<?xml version="1.0" standalone="no"?>
<!DOCTYPE svg PUBLIC "-//W3C//DTD SVG 1.1//EN" "http://www.w3.org/Graphics/SVG/1.1/DTD/svg11.dtd" >
<svg xmlns="http://www.w3.org/2000/svg" xmlns:xlink="http://www.w3.org/1999/xlink" version="1.1">
<metadata>
Created by FontForge 20201107 at Tue Nov 25 13:38:39 2025
 By 
Copyright (c) 2014 by Ryoichi Tsunekawa. All rights reserved.
</metadata>
<defs>
<font id="Graphie-ExtraBoldItalic" horiz-adv-x="839" >
  <font-face 
    font-family="Graphie ExtraBold"
    font-weight="800"
    font-style="italic"
    font-stretch="normal"
    units-per-em="2048"
    panose-1="2 11 8 3 2 2 4 9 2 4"
    ascent="1536"
    descent="-512"
    x-height="967"
    cap-height="1360"
    bbox="-498 -430 2236 1896"
    underline-thickness="180"
    underline-position="-208"
    slope="-11"
    unicode-range="U+0020-FB03"
  />
<missing-glyph horiz-adv-x="1269" 
d="M1196 0h-1049v1360h1049v-1360zM1047 1276h-750l375 -520zM616 680l-376 524v-1048zM727 680l377 -524v1048zM1047 84l-375 520l-375 -520h750z" />
    <glyph glyph-name="ff" unicode="ff" horiz-adv-x="1480" 
d="M1432 1454q138 0 221 -39l-58 -289h-12q-59 37 -135 37q-57 0 -94 -31.5t-47 -89.5l-15 -75h254l-55 -279h-254l-133 -688h-328l133 688h-364l-133 -688h-328l133 688h-149l55 279h147l17 80q77 387 448 387q138 0 221 -39l-57 -289h-12q-59 37 -135 37
q-57 0 -94.5 -31.5t-47.5 -89.5l-10 -55h365l18 100q77 387 449 387z" />
    <glyph glyph-name="fi" unicode="fi" horiz-adv-x="1316" 
d="M1208 1456q82 0 130 -47.5t48 -126.5q0 -95 -59.5 -155t-148.5 -60q-82 0 -130.5 47.5t-48.5 124.5q0 96 59.5 156.5t149.5 60.5zM784 0l134 688h-373l-133 -688h-328l133 688h-149l55 279h149l19 100q38 191 149 289t289 98q128 0 211 -39l-57 -289h-13q-59 37 -125 37
q-50 0 -85.5 -31.5t-45.5 -89.5l-14 -75h700l-188 -967h-328z" />
    <glyph glyph-name="ffi" unicode="ffi" horiz-adv-x="2009" 
d="M1901 1456q82 0 130 -47.5t48 -126.5q0 -95 -60 -155t-149 -60q-82 0 -130 47.5t-48 124.5q0 96 59.5 156.5t149.5 60.5zM1804 0h-327l133 688h-373l-133 -688h-328l133 688h-364l-133 -688h-328l133 688h-149l55 279h147l17 80q77 387 448 387q137 0 219 -37l-55 -285
h-12q-67 31 -135 31q-57 0 -94.5 -31.5t-47.5 -89.5l-10 -55h365l18 100q38 191 149 289t289 98q128 0 211 -39l-57 -289h-12q-59 37 -125 37q-50 0 -85.5 -31.5t-45.5 -89.5l-15 -75h701z" />
    <glyph glyph-name="f_j" unicode="fj" horiz-adv-x="1316" 
d="M1208 1456q82 0 130 -47.5t48 -126.5q0 -95 -59.5 -155t-148.5 -60q-82 0 -130.5 47.5t-48.5 124.5q0 96 59.5 156.5t149.5 60.5zM1300 967l-202 -1041q-33 -167 -128.5 -251.5t-236.5 -84.5q-100 0 -170 25l55 289h13q23 -23 59 -23q70 0 88 86l140 721h-373l-133 -688
h-328l133 688h-149l55 279h149l19 100q38 191 149 289t289 98q128 0 211 -39l-57 -289h-13q-59 37 -125 37q-50 0 -85.5 -31.5t-45.5 -89.5l-14 -75h700z" />
    <glyph glyph-name="f_f_j" unicode="ffj" horiz-adv-x="2009" 
d="M1901 1456q82 0 130 -47.5t48 -126.5q0 -95 -60 -155t-149 -60q-82 0 -130 47.5t-48 124.5q0 96 59.5 156.5t149.5 60.5zM1993 967l-203 -1041q-33 -167 -128.5 -251.5t-236.5 -84.5q-100 0 -170 25l56 289h12q23 -23 59 -23q70 0 88 86l142 721h-375l-133 -688h-328
l133 688h-364l-133 -688h-328l133 688h-149l55 279h147l17 80q77 387 448 387q137 0 219 -37l-55 -285h-12q-67 31 -135 31q-57 0 -94.5 -31.5t-47.5 -89.5l-10 -55h365l18 100q38 191 149 289t289 98q128 0 211 -39l-57 -289h-12q-59 37 -125 37q-50 0 -85.5 -31.5
t-45.5 -89.5l-15 -75h701z" />
    <glyph glyph-name=".notdef" horiz-adv-x="1269" 
d="M1196 0h-1049v1360h1049v-1360zM1047 1276h-750l375 -520zM616 680l-376 524v-1048zM727 680l377 -524v1048zM1047 84l-375 520l-375 -520h750z" />
    <glyph glyph-name=".null" horiz-adv-x="0" 
 />
    <glyph glyph-name="nonmarkingreturn" horiz-adv-x="682" 
 />
    <glyph glyph-name="space" unicode=" " horiz-adv-x="450" 
 />
    <glyph glyph-name="exclam" unicode="!" horiz-adv-x="593" 
d="M141 473l131 887h390l-213 -887h-308zM256 381q81 0 131.5 -50.5t50.5 -129.5q0 -93 -64.5 -157t-154.5 -64q-81 0 -131.5 50.5t-50.5 129.5q0 93 64.5 157t154.5 64z" />
    <glyph glyph-name="quotedbl" unicode="&#x22;" horiz-adv-x="985" 
d="M283 1360h315l-152 -621h-253zM727 1360h315l-151 -621h-254z" />
    <glyph glyph-name="numbersign" unicode="#" horiz-adv-x="1331" 
d="M1008 567h229l-76 -225h-229l-115 -342h-250l115 342h-188l-115 -342h-250l115 342h-230l76 225h229l82 246h-229l78 225h227l109 322h250l-109 -322h188l109 322h250l-109 -322h232l-78 -225h-229zM651 813l-82 -246h189l82 246h-189z" />
    <glyph glyph-name="dollar" unicode="$" horiz-adv-x="1331" 
d="M838 1010l-39 -195q205 -19 300 -96t95 -223q0 -212 -138.5 -324t-404.5 -117l-35 -178h-127l35 182q-257 15 -407 103l63 336h17q133 -133 385 -148l39 195q-206 19 -300 93t-94 216q0 209 141.5 327t399.5 124l31 157h127l-31 -159q233 -16 348 -84l-63 -338h-17
q-106 111 -325 129zM547 907q0 -31 30 -49.5t99 -28.5l35 181q-164 -9 -164 -103zM877 451q0 32 -31 50t-103 29l-34 -180q86 4 127 29t41 72z" />
    <glyph glyph-name="percent" unicode="%" horiz-adv-x="1568" 
d="M520 1380q134 0 207.5 -76.5t73.5 -205.5q0 -52 -10.5 -104t-36 -104.5t-64 -92.5t-99.5 -65t-136 -25q-134 0 -207.5 76.5t-73.5 205.5q0 66 19 131t57.5 125t108.5 97.5t161 37.5zM123 0l1137 1360h262l-1137 -1360h-262zM512 1196q-41 0 -72 -35t-44 -78t-13 -82
q0 -51 22.5 -80.5t59.5 -29.5q52 0 89.5 55.5t37.5 138.5q0 51 -21.5 81t-58.5 30zM1190 653q134 0 207 -76.5t73 -205.5q0 -52 -10.5 -104t-36 -104.5t-64 -92.5t-99.5 -65t-136 -25q-134 0 -207 76.5t-73 205.5q0 66 19 131t57.5 125t108.5 97.5t161 37.5zM1182 469
q-41 0 -72 -35t-44 -78t-13 -82q0 -51 22.5 -80.5t59.5 -29.5q52 0 89.5 55.5t37.5 138.5q0 51 -21.5 81t-58.5 30z" />
    <glyph glyph-name="ampersand" unicode="&#x26;" horiz-adv-x="1331" 
d="M981 715l305 -25q-15 -135 -76 -255t-159 -208l151 -227h-416l-36 53q-107 -73 -283 -73q-204 0 -318 92t-114 256q0 142 75 245t232 175v4q-78 115 -78 235q0 178 118.5 285.5t315.5 107.5q180 0 284.5 -84.5t104.5 -230.5q0 -135 -81.5 -231.5t-253.5 -167.5l137 -197
q77 110 92 246zM588 985q0 -48 41 -121q98 38 140 76.5t42 89.5q0 38 -26 60t-72 22q-58 0 -91.5 -34t-33.5 -93zM508 266q62 0 115 15l-158 260q-50 -31 -72 -66t-22 -86q0 -123 137 -123z" />
    <glyph glyph-name="quotesingle" unicode="'" horiz-adv-x="540" 
d="M283 1360h315l-152 -621h-253z" />
    <glyph glyph-name="parenleft" unicode="(" horiz-adv-x="866" 
d="M485 324q0 -305 172 -533h-329q-178 260 -178 592q0 120 29 246.5t86 255t151.5 252.5t216.5 223h330q-478 -481 -478 -1036z" />
    <glyph glyph-name="parenright" unicode=")" horiz-adv-x="866" 
d="M244 1360h329q87 -126 133 -278.5t46 -313.5q0 -120 -29 -246.5t-86.5 -255t-152 -252t-216.5 -223.5h-329q477 480 477 1036q0 305 -172 533z" />
    <glyph glyph-name="asterisk" unicode="*" horiz-adv-x="966" 
d="M909 791l-237 -166l-92 256l-148 -256l-225 166l229 196l-278 35l121 268l239 -137l-20 281h286l-88 -277l254 133l60 -268l-289 -37z" />
    <glyph glyph-name="plus" unicode="+" horiz-adv-x="1331" 
d="M809 469l-86 -438h-291l86 438h-438l55 291h438l86 438h291l-86 -438h439l-56 -291h-438z" />
    <glyph glyph-name="comma" unicode="," horiz-adv-x="593" 
d="M-203 -315l340 675h344l-411 -675h-273z" />
    <glyph glyph-name="hyphen" unicode="-" horiz-adv-x="757" 
d="M659 397h-593l63 332h594z" />
    <glyph glyph-name="period" unicode="." horiz-adv-x="593" 
d="M256 381q81 0 131.5 -50.5t50.5 -129.5q0 -93 -64.5 -157t-154.5 -64q-81 0 -131.5 50.5t-50.5 129.5q0 93 64.5 157t154.5 64z" />
    <glyph glyph-name="slash" unicode="/" horiz-adv-x="888" 
d="M-88 -164l821 1585h299l-821 -1585h-299z" />
    <glyph glyph-name="zero" unicode="0" horiz-adv-x="1331" 
d="M811 1380q229 0 353 -131t124 -372q0 -83 -11.5 -168t-37 -173.5t-63 -169t-94 -151.5t-126 -123t-162 -82t-198.5 -30q-230 0 -353.5 131.5t-123.5 373.5q0 83 11.5 168t37 173.5t63 168.5t94 151t126 122.5t162 81.5t198.5 30zM778 1069q-65 0 -119.5 -41.5t-88 -104.5
t-57 -141t-33 -146t-9.5 -124q0 -108 40 -164.5t118 -56.5q65 0 119 40.5t87.5 101.5t57 137.5t33.5 145.5t10 128q0 109 -40 167t-118 58z" />
    <glyph glyph-name="one" unicode="1" horiz-adv-x="1331" 
d="M948 0h-348l186 963l-434 -226l70 363l498 260h292z" />
    <glyph glyph-name="two" unicode="2" horiz-adv-x="1331" 
d="M1126 311l-61 -311h-981l63 324l418 284q140 97 212 160t94 102t22 86q0 113 -166 113q-118 0 -234.5 -46t-207.5 -126h-17l74 383q173 100 422 100q244 0 364.5 -95.5t120.5 -278.5q0 -67 -8 -119t-35.5 -115t-76.5 -119t-134 -121.5t-204 -132.5l-148 -84v-4h483z" />
    <glyph glyph-name="three" unicode="3" horiz-adv-x="1331" 
d="M1034 668v-4q137 -93 137 -263q0 -201 -155 -311t-426 -110q-150 0 -282 36t-197 95l69 354h17q52 -79 164.5 -126.5t242.5 -47.5q103 0 160 42.5t57 115.5q0 49 -47 68.5t-164 19.5h-159l55 286h164q134 0 185.5 27t51.5 96q0 59 -48.5 91t-135.5 32q-118 0 -230.5 -44
t-183.5 -107h-16l69 364q169 98 426 98q227 0 354.5 -95t127.5 -265q0 -251 -236 -352z" />
    <glyph glyph-name="four" unicode="4" horiz-adv-x="1331" 
d="M1219 227h-162l-45 -227h-348l45 227h-670l57 295l811 838h369l-160 -821h162zM846 928h-4l-373 -389h301z" />
    <glyph glyph-name="five" unicode="5" horiz-adv-x="1331" 
d="M606 1049l-33 -177q80 13 160 13q216 0 335.5 -104t119.5 -289q0 -239 -159.5 -375.5t-438.5 -136.5q-157 0 -290 29t-206 81l66 334h16q59 -63 167.5 -98t250.5 -35q110 0 173.5 44t63.5 120q0 68 -64 98.5t-210 30.5q-159 0 -321 -49h-17l160 825h897l-59 -311h-611z
" />
    <glyph glyph-name="six" unicode="6" horiz-adv-x="1331" 
d="M825 899q180 0 288 -105.5t108 -279.5q0 -236 -153.5 -385t-397.5 -149q-251 0 -389 137t-138 387q0 80 13 163.5t42 170t71.5 165t105.5 147.5t139 120t176.5 80.5t214.5 29.5q243 0 367 -94l-66 -328h-16q-109 109 -289 109q-129 0 -221.5 -67t-140.5 -191h4
q110 90 282 90zM678 291q84 0 137 50.5t53 131.5q0 68 -39.5 106.5t-111.5 38.5q-71 0 -125 -23t-105 -79q-2 -14 -2 -39q0 -87 51.5 -136.5t141.5 -49.5z" />
    <glyph glyph-name="seven" unicode="7" horiz-adv-x="1331" 
d="M1339 1036l-827 -1036h-434l862 1049h-711l60 311h1114z" />
    <glyph glyph-name="eight" unicode="8" horiz-adv-x="1331" 
d="M1069 692v-4q154 -86 154 -270q0 -205 -165.5 -321.5t-457.5 -116.5q-251 0 -391.5 94t-140.5 260q0 129 71.5 218t210.5 130v4q-125 87 -125 256q0 199 159 318.5t425 119.5q232 0 361.5 -93t129.5 -259q0 -244 -231 -336zM739 823q100 0 147.5 33t47.5 105
q0 108 -164 108q-195 0 -195 -147q0 -52 39 -75.5t125 -23.5zM637 291q115 0 175 37t60 106q0 55 -48 79t-156 24q-122 0 -179 -33t-57 -103q0 -110 205 -110z" />
    <glyph glyph-name="nine" unicode="9" horiz-adv-x="1331" 
d="M578 461q-180 0 -288 105.5t-108 279.5q0 236 153.5 385t397.5 149q251 0 389 -137t138 -387q0 -80 -13 -163.5t-42 -170t-71.5 -165t-105.5 -147.5t-139 -120t-176.5 -80.5t-214.5 -29.5q-243 0 -367 94l66 327h16q108 -108 289 -108q129 0 221.5 67t140.5 191h-4
q-110 -90 -282 -90zM725 1069q-84 0 -137 -50.5t-53 -131.5q0 -68 40 -107t111 -39q70 0 123.5 23.5t105.5 79.5q3 21 3 39q0 87 -51.5 136.5t-141.5 49.5z" />
    <glyph glyph-name="colon" unicode=":" horiz-adv-x="593" 
d="M256 381q81 0 131.5 -50.5t50.5 -129.5q0 -93 -64.5 -157t-154.5 -64q-81 0 -131.5 50.5t-50.5 129.5q0 93 64.5 157t154.5 64zM373 977q81 0 131.5 -50.5t50.5 -129.5q0 -93 -64.5 -157.5t-154.5 -64.5q-81 0 -131.5 51t-50.5 130q0 93 64.5 157t154.5 64z" />
    <glyph glyph-name="semicolon" unicode=";" horiz-adv-x="593" 
d="M-203 -315l340 675h344l-411 -675h-273zM373 977q81 0 131.5 -50.5t50.5 -129.5q0 -93 -64.5 -157.5t-154.5 -64.5q-81 0 -131.5 51t-50.5 130q0 93 64.5 157t154.5 64z" />
    <glyph glyph-name="less" unicode="&#x3c;" horiz-adv-x="1331" 
d="M575 600l599 -256l-60 -305l-977 450l47 250l1153 451l-59 -328l-703 -258v-4z" />
    <glyph glyph-name="equal" unicode="=" horiz-adv-x="1331" 
d="M164 745l55 291h1106l-55 -291h-1106zM55 193l58 290h1106l-58 -290h-1106z" />
    <glyph glyph-name="greater" unicode="&#x3e;" horiz-adv-x="1331" 
d="M1198 489l-1153 -450l59 328l703 258v4l-598 256l59 305l977 -451z" />
    <glyph glyph-name="question" unicode="?" horiz-adv-x="1030" 
d="M610 1380q226 0 354 -98.5t128 -271.5q0 -177 -111.5 -280t-372.5 -169l-16 -88h-320l58 293q222 37 313.5 83.5t91.5 121.5q0 46 -39 72t-108 26q-119 0 -236 -44.5t-213 -127.5h-16l74 381q176 102 413 102zM393 381q80 0 131 -50.5t51 -129.5q0 -92 -64 -156.5
t-155 -64.5q-80 0 -131 50.5t-51 129.5q0 92 64 156.5t155 64.5z" />
    <glyph glyph-name="at" unicode="@" horiz-adv-x="1572" 
d="M1243 922l-84 -433q-4 -20 -4 -34q0 -54 55 -54q40 0 70 35.5t45 89.5t22 103.5t7 91.5q0 193 -118 305.5t-333 112.5q-123 0 -234.5 -51.5t-192 -139t-128 -207.5t-47.5 -252q0 -212 140 -342.5t366 -130.5q251 0 459 144h12l-41 -213q-173 -90 -430 -90
q-209 0 -369.5 78.5t-249 222t-88.5 329.5q0 134 39.5 258t113 223.5t171.5 174t221 115t256 40.5q294 0 463.5 -162t169.5 -427q0 -83 -18.5 -165t-57 -158t-108.5 -123.5t-162 -47.5q-155 0 -203 123h-4q-34 -60 -91.5 -91.5t-131.5 -31.5q-141 0 -226.5 88t-85.5 234
q0 170 104 284.5t259 114.5q84 0 142 -38.5t83 -106.5h4l31 131h174zM797 401q76 0 129 57t53 144q0 66 -38 106t-101 40q-77 0 -129 -57t-52 -144q0 -65 37 -105.5t101 -40.5z" />
    <glyph glyph-name="A" unicode="A" horiz-adv-x="1529" 
d="M1026 0l-35 195h-542l-111 -195h-406l822 1360h362l293 -1360h-383zM864 930h-4l-235 -424h313z" />
    <glyph glyph-name="B" unicode="B" horiz-adv-x="1339" 
d="M1102 678v-4q160 -78 160 -262q0 -198 -133.5 -305t-397.5 -107h-690l264 1360h569q224 0 341.5 -87.5t117.5 -256.5q0 -255 -231 -338zM575 827h213q166 0 166 121q0 80 -116 80h-224zM477 332h273q141 0 141 117q0 83 -141 83h-234z" />
    <glyph glyph-name="C" unicode="C" horiz-adv-x="1284" 
d="M893 1380q296 0 457 -108l-74 -375h-16q-51 76 -148 114t-221 38q-184 0 -303 -118t-119 -306q0 -144 93 -229t249 -85q112 0 199 41t166 115h16l-78 -412q-88 -40 -163 -57.5t-191 -17.5q-305 0 -486.5 172t-181.5 450q0 220 103.5 398t287 279t410.5 101z" />
    <glyph glyph-name="D" unicode="D" horiz-adv-x="1476" 
d="M305 1360h500q316 0 485.5 -150.5t169.5 -427.5q0 -373 -210 -577.5t-593 -204.5h-616zM1083 750q0 278 -331 278h-138l-137 -696h187q203 0 311 108t108 310z" />
    <glyph glyph-name="E" unicode="E" horiz-adv-x="1263" 
d="M614 1028l-39 -199h512l-59 -303h-512l-39 -194h660l-64 -332h-1032l264 1360h1032l-63 -332h-660z" />
    <glyph glyph-name="F" unicode="F" horiz-adv-x="1228" 
d="M571 813h512l-63 -332h-512l-94 -481h-373l264 1360h1032l-63 -332h-660z" />
    <glyph glyph-name="G" unicode="G" horiz-adv-x="1429" 
d="M930 1380q336 0 522 -108l-74 -375h-16q-145 152 -436 152q-204 0 -330.5 -116t-126.5 -310q0 -145 98 -228.5t269 -83.5q46 0 71 4l35 177h-240l60 303h598l-143 -732q-102 -47 -193.5 -65t-226.5 -18q-328 0 -516.5 163t-188.5 443q0 358 229.5 576t608.5 218z" />
    <glyph glyph-name="H" unicode="H" horiz-adv-x="1499" 
d="M1270 0h-373l100 516h-483l-100 -516h-373l264 1360h373l-100 -512h483l100 512h373z" />
    <glyph glyph-name="I" unicode="I" horiz-adv-x="643" 
d="M41 0l264 1360h373l-264 -1360h-373z" />
    <glyph glyph-name="J" unicode="J" horiz-adv-x="1054" 
d="M1118 1360l-168 -864q-54 -272 -196.5 -394t-403.5 -122q-225 0 -370 106l69 358h17q41 -60 110.5 -96.5t153.5 -36.5q107 0 170.5 56t87.5 182l157 811h373z" />
    <glyph glyph-name="K" unicode="K" horiz-adv-x="1427" 
d="M1303 0h-449l-330 547h-4l-106 -547h-373l264 1360h373l-98 -506h4l481 506h489l-682 -686z" />
    <glyph glyph-name="L" unicode="L" horiz-adv-x="1191" 
d="M1044 0h-1003l264 1360h373l-201 -1028h631z" />
    <glyph glyph-name="M" unicode="M" horiz-adv-x="1957" 
d="M1729 0h-373l178 915h-4l-498 -915h-311l-141 903h-5l-174 -903h-360l264 1360h543l121 -825h4l440 825h580z" />
    <glyph glyph-name="N" unicode="N" horiz-adv-x="1519" 
d="M1290 0h-411l-297 922h-4l-177 -922h-360l264 1360h475l256 -801h4l154 801h360z" />
    <glyph glyph-name="O" unicode="O" horiz-adv-x="1552" 
d="M881 1380q296 0 475.5 -173t179.5 -451q0 -162 -59.5 -305.5t-163.5 -247t-250.5 -163.5t-314.5 -60q-296 0 -476 173t-180 451q0 163 60.5 307t165 247t251 162.5t312.5 59.5zM860 1049q-169 0 -280 -122.5t-111 -308.5q0 -140 81.5 -223.5t219.5 -83.5
q170 0 280.5 122.5t110.5 305.5q0 141 -81 225.5t-220 84.5z" />
    <glyph glyph-name="P" unicode="P" horiz-adv-x="1327" 
d="M305 1360h567q237 0 361.5 -103t124.5 -299q0 -262 -147 -397t-435 -135h-280l-82 -426h-373zM981 920q0 57 -38 82.5t-120 25.5h-209l-53 -270h230q98 0 144 40t46 122z" />
    <glyph glyph-name="Q" unicode="Q" horiz-adv-x="1548" 
d="M1536 756q0 -187 -77.5 -346.5t-215.5 -266.5l170 -299h-381l-88 158q-99 -22 -196 -22q-296 0 -476 173t-180 451q0 163 60.5 307t165 247t251 162.5t312.5 59.5q296 0 475.5 -173t179.5 -451zM469 618q0 -140 81.5 -223.5t217.5 -83.5l-156 275h381l74 -131
q94 118 94 284q0 141 -81 225.5t-220 84.5q-169 0 -280 -122.5t-111 -308.5z" />
    <glyph glyph-name="R" unicode="R" horiz-adv-x="1380" 
d="M305 1360h578q238 0 362.5 -101.5t124.5 -297.5t-91 -323.5t-263 -170.5l213 -467h-408l-172 442h-149l-86 -442h-373zM563 774h240q190 0 190 150q0 54 -37 79t-118 25h-224z" />
    <glyph glyph-name="S" unicode="S" horiz-adv-x="1220" 
d="M760 1380q139 0 275.5 -30.5t189.5 -73.5l-70 -358h-16q-124 139 -406 139q-98 0 -152.5 -29.5t-54.5 -83.5q0 -42 44.5 -65t162.5 -35q230 -23 334 -114t104 -257q0 -238 -154.5 -365.5t-443.5 -127.5q-178 0 -321.5 30.5t-224.5 87.5l69 367h17q170 -162 467 -162
q219 0 219 113q0 40 -46.5 64.5t-162.5 35.5q-230 23 -334 111t-104 250q0 241 158.5 372t449.5 131z" />
    <glyph glyph-name="T" unicode="T" horiz-adv-x="1232" 
d="M911 1028l-200 -1028h-373l201 1028h-379l63 332h1127l-64 -332h-375z" />
    <glyph glyph-name="U" unicode="U" horiz-adv-x="1409" 
d="M1473 1360l-154 -789q-59 -308 -214.5 -449.5t-447.5 -141.5q-264 0 -404 114.5t-140 335.5q0 87 16 166l147 764h373l-147 -762q-10 -46 -10 -100q0 -187 186 -187q117 0 188.5 76.5t102.5 235.5l143 737h361z" />
    <glyph glyph-name="V" unicode="V" horiz-adv-x="1439" 
d="M817 0h-375l-245 1360h383l131 -866h4l471 866h405z" />
    <glyph glyph-name="W" unicode="W" horiz-adv-x="2076" 
d="M1548 0h-379l-77 760h-5l-366 -760h-379l-139 1360h379l67 -807h4l391 807h316l82 -811h4l379 811h393z" />
    <glyph glyph-name="X" unicode="X" horiz-adv-x="1507" 
d="M940 0l-184 432l-346 -432h-463l602 707l-309 653h428l172 -397l317 397h459l-574 -676l322 -684h-424z" />
    <glyph glyph-name="Y" unicode="Y" horiz-adv-x="1466" 
d="M827 -2h-376l106 551l-379 811h428l197 -467l375 467h458l-704 -825z" />
    <glyph glyph-name="Z" unicode="Z" horiz-adv-x="1337" 
d="M1212 332l-63 -332h-1149l61 315l762 713h-581l63 332h1098l-62 -316l-759 -712h630z" />
    <glyph glyph-name="bracketleft" unicode="[" horiz-adv-x="866" 
d="M383 43h287l-49 -252h-605l306 1569h604l-49 -254h-287z" />
    <glyph glyph-name="backslash" unicode="\" horiz-adv-x="888" 
d="M715 -164h-283l-203 1585h283z" />
    <glyph glyph-name="bracketright" unicode="]" horiz-adv-x="866" 
d="M580 -209h-605l50 254h286l207 1063h-287l50 252h604z" />
    <glyph glyph-name="asciicircum" unicode="^" horiz-adv-x="1331" 
d="M784 1028l-354 -467h-350l627 799h256l309 -799h-320z" />
    <glyph glyph-name="underscore" unicode="_" horiz-adv-x="1024" 
d="M909 -104l-41 -209h-1024l41 209h1024z" />
    <glyph glyph-name="grave" unicode="`" horiz-adv-x="1024" 
d="M512 1100l-199 352h324l156 -352h-281z" />
    <glyph glyph-name="a" unicode="a" horiz-adv-x="1196" 
d="M991 0h-266l8 102h-4q-101 -122 -250 -122q-189 0 -306.5 126t-117.5 324q0 153 67.5 281t185 202t257.5 74q227 0 299 -147h4l35 127h277zM551 270q93 0 155 71t62 179q0 80 -44.5 128t-119.5 48q-93 0 -155 -71t-62 -179q0 -80 44.5 -128t119.5 -48z" />
    <glyph glyph-name="b" unicode="b" horiz-adv-x="1196" 
d="M717 987q189 0 306.5 -126t117.5 -324q0 -154 -67.5 -282t-185 -201.5t-257.5 -73.5q-227 0 -299 147h-4l-35 -127h-277l279 1434h328l-101 -510h4q85 63 191 63zM592 270q93 0 155 71t62 179q0 80 -44.5 128t-119.5 48q-93 0 -155 -71t-62 -179q0 -80 44.5 -128
t119.5 -48z" />
    <glyph glyph-name="c" unicode="c" horiz-adv-x="956" 
d="M631 987q215 0 338 -72l-64 -323h-12q-81 104 -244 104q-118 0 -190 -66t-72 -175q0 -85 59 -135t150 -50q149 0 256 107h12l-69 -352q-98 -45 -230 -45q-235 0 -372.5 125.5t-137.5 330.5q0 156 74.5 282.5t206 197.5t295.5 71z" />
    <glyph glyph-name="d" unicode="d" horiz-adv-x="1196" 
d="M991 0h-266l8 102h-4q-101 -122 -250 -122q-189 0 -306.5 126t-117.5 324q0 154 67.5 282t185 201.5t257.5 73.5q185 0 269 -100h4l104 547h328zM551 270q93 0 155 71t62 179q0 80 -44.5 128t-119.5 48q-93 0 -155 -71t-62 -179q0 -80 44.5 -128t119.5 -48z" />
    <glyph glyph-name="e" unicode="e" horiz-adv-x="1112" 
d="M612 711q-72 0 -128.5 -34.5t-80.5 -101.5h365q0 68 -42.5 102t-113.5 34zM1032 416h-645q10 -80 71.5 -120t162.5 -40q197 0 337 106h13l-62 -313q-107 -69 -327 -69q-245 0 -386 125t-141 329q0 243 163 398t419 155q199 0 311.5 -99.5t112.5 -269.5q0 -65 -29 -202z
" />
    <glyph glyph-name="f" unicode="f" horiz-adv-x="788" 
d="M739 1454q139 0 222 -39l-58 -289h-12q-59 37 -135 37q-57 0 -94.5 -31.5t-47.5 -89.5l-14 -75h254l-55 -279h-254l-133 -688h-328l133 688h-149l55 279h149l19 100q77 387 448 387z" />
    <glyph glyph-name="g" unicode="g" horiz-adv-x="1196" 
d="M1180 967l-176 -901q-45 -226 -201 -351t-400 -125q-255 0 -399 101l62 311h12q100 -121 321 -121q224 0 275 180h-4q-79 -61 -187 -61q-190 0 -308 125.5t-118 320.5q0 149 68 273.5t184.5 196t255.5 71.5q227 0 301 -149h4l33 129h277zM557 291q92 0 152.5 67t60.5 166
q0 76 -45 124t-121 48q-92 0 -153.5 -67t-61.5 -166q0 -76 46 -124t122 -48z" />
    <glyph glyph-name="h" unicode="h" horiz-adv-x="1128" 
d="M750 987q151 0 233 -80.5t82 -226.5q0 -54 -12 -113l-111 -567h-328l105 541q6 27 6 51q0 104 -102 104q-142 0 -177 -172l-102 -524h-328l279 1434h328l-101 -519h4q90 72 224 72z" />
    <glyph glyph-name="i" unicode="i" horiz-adv-x="548" 
d="M440 1456q82 0 130 -47.5t48 -126.5q0 -95 -59.5 -155t-148.5 -60q-82 0 -130.5 47.5t-48.5 124.5q0 96 59.5 156.5t149.5 60.5zM16 0l189 967h327l-188 -967h-328z" />
    <glyph glyph-name="j" unicode="j" horiz-adv-x="548" 
d="M440 1456q82 0 130 -47.5t48 -126.5q0 -95 -59.5 -155t-148.5 -60q-82 0 -130.5 47.5t-48.5 124.5q0 96 59.5 156.5t149.5 60.5zM532 967l-202 -1041q-33 -167 -128.5 -251.5t-236.5 -84.5q-100 0 -170 25l55 289h13q23 -23 59 -23q70 0 88 86l195 1000h327z" />
    <glyph glyph-name="k" unicode="k" horiz-adv-x="1142" 
d="M1028 0h-395l-211 377h-4l-74 -377h-328l279 1434h328l-160 -813h4l313 346h424l-481 -492z" />
    <glyph glyph-name="l" unicode="l" horiz-adv-x="548" 
d="M16 0l279 1434h328l-279 -1434h-328z" />
    <glyph glyph-name="m" unicode="m" horiz-adv-x="1697" 
d="M1327 987q148 0 227.5 -80.5t79.5 -224.5q0 -54 -12 -115l-111 -567h-327l106 553q4 16 4 45q0 47 -24 72.5t-70 25.5q-69 0 -111.5 -48t-62.5 -152l-96 -496h-328l105 541q6 30 6 55q0 100 -95 100q-132 0 -167 -174l-103 -522h-328l189 967h270l-12 -111h4
q101 131 274 131q91 0 159 -37t102 -106h4q105 143 317 143z" />
    <glyph glyph-name="n" unicode="n" horiz-adv-x="1128" 
d="M750 987q151 0 233 -80.5t82 -226.5q0 -54 -12 -113l-111 -567h-328l105 541q6 27 6 51q0 104 -102 104q-142 0 -177 -174l-102 -522h-328l189 967h270l-12 -111h4q104 131 283 131z" />
    <glyph glyph-name="o" unicode="o" horiz-adv-x="1155" 
d="M621 987q217 0 348 -126.5t131 -330.5q0 -234 -161 -392t-404 -158q-217 0 -348.5 126t-131.5 330q0 234 161.5 392.5t404.5 158.5zM604 696q-93 0 -155 -71t-62 -179q0 -80 44.5 -128t119.5 -48q93 0 155 71t62 179q0 80 -44.5 128t-119.5 48z" />
    <glyph glyph-name="p" unicode="p" horiz-adv-x="1196" 
d="M717 987q189 0 306.5 -126t117.5 -324q0 -154 -67.5 -282t-185 -201.5t-257.5 -73.5q-184 0 -266 98h-5l-92 -467h-327l264 1356h270l-10 -101h4q102 121 248 121zM592 270q93 0 155 71t62 179q0 80 -44.5 128t-119.5 48q-93 0 -155 -71t-62 -179q0 -80 44.5 -128
t119.5 -48z" />
    <glyph glyph-name="q" unicode="q" horiz-adv-x="1196" 
d="M915 -389h-327l86 432h-4q-85 -63 -191 -63q-189 0 -306.5 126t-117.5 324q0 154 67.5 282t185 201.5t257.5 73.5q227 0 299 -147h4l35 127h277zM551 270q93 0 155 71t62 179q0 80 -44.5 128t-119.5 48q-93 0 -155 -71t-62 -179q0 -80 44.5 -128t119.5 -48z" />
    <glyph glyph-name="r" unicode="r" 
d="M756 987q95 0 149 -43l-65 -311h-13q-38 43 -135 43q-114 0 -179.5 -68.5t-94.5 -220.5l-74 -387h-328l189 967h270l-16 -142h4q104 162 293 162z" />
    <glyph glyph-name="s" unicode="s" horiz-adv-x="905" 
d="M530 987q98 0 194.5 -20.5t143.5 -51.5l-53 -272h-12q-88 88 -277 88q-64 0 -100.5 -19t-36.5 -53q0 -21 27 -33t96 -16q166 -10 242.5 -76.5t76.5 -191.5q0 -175 -110.5 -268.5t-317.5 -93.5q-265 0 -399 79l55 287h13q55 -57 133.5 -82.5t195.5 -25.5q63 0 98.5 18.5
t35.5 52.5q0 26 -29 40t-107 20q-162 12 -235.5 74.5t-73.5 179.5q0 169 118 266.5t322 97.5z" />
    <glyph glyph-name="t" unicode="t" horiz-adv-x="827" 
d="M547 688l-60 -301q-4 -24 -4 -33q0 -84 95 -84q81 0 141 60h12l-65 -328q-72 -22 -181 -22q-167 0 -252.5 74.5t-85.5 217.5q0 48 13 115l57 301h-149l55 279h158l92 274h280l-53 -274h254l-55 -279h-252z" />
    <glyph glyph-name="u" unicode="u" horiz-adv-x="1128" 
d="M924 0h-271l13 109h-4q-105 -129 -283 -129q-151 0 -233.5 80.5t-82.5 224.5q0 47 13 114l110 568h328l-106 -541q-5 -20 -5 -47q0 -109 103 -109q142 0 176 174l102 523h328z" />
    <glyph glyph-name="v" unicode="v" horiz-adv-x="1056" 
d="M600 0h-324l-167 967h335l58 -582h4l287 582h352z" />
    <glyph glyph-name="w" unicode="w" horiz-adv-x="1589" 
d="M1171 0h-303l-63 524h-4l-260 -524h-303l-129 967h331l37 -543h4l273 543h260l67 -547h4l244 547h348z" />
    <glyph glyph-name="x" unicode="x" horiz-adv-x="1157" 
d="M1038 0h-379l-114 283l-215 -283h-408l455 510l-238 457h381l101 -250l188 250h405l-428 -482z" />
    <glyph glyph-name="y" unicode="y" horiz-adv-x="1056" 
d="M358 -389h-342l258 426l-165 930h337l64 -555h4l281 555h350z" />
    <glyph glyph-name="z" unicode="z" horiz-adv-x="1021" 
d="M467 279h432l-53 -279h-858l51 262l485 426h-372l55 279h817l-51 -262z" />
    <glyph glyph-name="braceleft" unicode="{" horiz-adv-x="897" 
d="M907 1106h-133q-37 0 -63.5 -22.5t-34.5 -59.5l-23 -117q-29 -150 -84 -228t-151 -106v-4q117 -55 117 -217q0 -60 -15 -133l-22 -117q-4 -20 -4 -26q0 -19 11 -25t42 -6h153l-49 -254h-196q-281 0 -281 234q0 40 10 102l33 168q8 36 8 70q0 48 -28 66t-93 18h-61l49 253
h41q83 0 131.5 43t67.5 136l33 168q32 169 118 240t256 71h217z" />
    <glyph glyph-name="bar" unicode="|" horiz-adv-x="686" 
d="M53 -389l355 1823h239l-354 -1823h-240z" />
    <glyph glyph-name="braceright" unicode="}" horiz-adv-x="897" 
d="M840 449h-41q-83 0 -131.5 -43t-67.5 -136l-33 -168q-32 -169 -118 -240t-256 -71h-218l50 254h133q37 0 63.5 22.5t34.5 59.5l23 117q29 150 84 228t151 106v4q-117 56 -117 217q0 59 15 133l22 117q4 20 4 26q0 19 -11 25t-42 6h-154l50 254h196q281 0 281 -234
q0 -40 -10 -102l-33 -168q-8 -36 -8 -70q0 -48 27.5 -66t92.5 -18h62z" />
    <glyph glyph-name="asciitilde" unicode="~" horiz-adv-x="1331" 
d="M1126 864l217 -162q-122 -179 -222 -253t-224 -74q-160 0 -301 125q-44 39 -68 51t-51 12q-40 0 -92 -46t-129 -152l-217 161q122 180 222 254t224 74q158 0 299 -125q44 -39 68 -51t51 -12q40 0 92 46t131 152z" />
    <glyph glyph-name="uni00A0" unicode="&#xa0;" horiz-adv-x="450" 
 />
    <glyph glyph-name="exclamdown" unicode="&#xa1;" horiz-adv-x="593" 
d="M414 979q-81 0 -132 50.5t-51 129.5q0 93 65 157t155 64q81 0 131.5 -50.5t50.5 -129.5q0 -93 -64.5 -157t-154.5 -64zM528 887l-131 -887h-389l213 887h307z" />
    <glyph glyph-name="cent" unicode="&#xa2;" horiz-adv-x="1331" 
d="M1026 1303l-37 -187q161 -22 228 -69l-68 -342h-16q-42 51 -89 76.5t-114 31.5l-86 -446q135 11 248 131h16l-74 -381q-63 -30 -119 -44.5t-133 -17.5l-34 -178h-127l36 184q-207 25 -325.5 153t-118.5 325q0 256 178.5 420.5t456.5 164.5h16l35 179h127zM565 555
q0 -70 39.5 -116.5t112.5 -63.5l86 438q-114 -17 -176 -85.5t-62 -172.5z" />
    <glyph glyph-name="sterling" unicode="&#xa3;" horiz-adv-x="1331" 
d="M932 1380q228 0 387 -100l-68 -354h-16q-115 143 -287 143q-82 0 -135 -47.5t-70 -136.5l-16 -80h344l-51 -266h-348q-24 -79 -61.5 -132.5t-98.5 -91.5v-4h621l-62 -311h-981l64 324q75 32 116 82.5t58 132.5h-133l51 266h135l25 131q86 444 526 444z" />
    <glyph glyph-name="currency" unicode="&#xa4;" horiz-adv-x="1331" 
d="M1038 481l113 -127l-213 -184l-111 137q-87 -33 -168 -33q-105 0 -190 50l-170 -154l-168 197l180 151q-16 59 -16 115q0 137 76 246l-115 127l213 184l111 -137q85 32 168 32q106 0 190 -49l170 154l168 -197l-180 -153q16 -56 16 -113q0 -124 -74 -246zM555 655
q0 -57 35.5 -92t93.5 -35q70 0 120 49.5t50 122.5q0 59 -35.5 95t-95.5 36q-71 0 -119.5 -50.5t-48.5 -125.5z" />
    <glyph glyph-name="yen" unicode="&#xa5;" horiz-adv-x="1331" 
d="M1241 721l-39 -209h-356l-21 -109h355l-41 -208h-355l-39 -195h-348l39 195h-358l41 208h358l21 109h-357l39 209h350l-299 639h404l133 -332l260 332h420l-545 -639h338z" />
    <glyph glyph-name="brokenbar" unicode="&#xa6;" horiz-adv-x="686" 
d="M252 635l156 799h239l-155 -799h-240zM53 -389l156 799h240l-156 -799h-240z" />
    <glyph glyph-name="section" unicode="&#xa7;" horiz-adv-x="1140" 
d="M547 1083q0 -30 35 -46.5t129 -26.5q192 -21 279 -94t87 -205q0 -114 -45.5 -192.5t-140.5 -129.5v-4q57 -64 57 -174q0 -205 -133 -312.5t-385 -107.5q-253 0 -385 82l53 289h13q150 -113 335 -113q98 0 150.5 30t52.5 87q0 33 -37.5 51.5t-136.5 30.5
q-191 23 -274.5 92t-83.5 195q0 224 196 321v4q-65 68 -65 182q0 194 136 303t390 109q202 0 328 -63l-55 -285h-13q-125 92 -280 92q-100 0 -153.5 -30t-53.5 -85zM614 494q74 9 117 52t43 107q0 80 -147 103q-95 -2 -150 -44.5t-55 -115.5q0 -43 40 -65t152 -37z" />
    <glyph glyph-name="dieresis" unicode="&#xa8;" horiz-adv-x="1024" 
d="M453 1440q74 0 117.5 -43.5t43.5 -116.5q0 -86 -52 -141.5t-136 -55.5q-74 0 -118 44.5t-44 115.5q0 86 53.5 141.5t135.5 55.5zM901 1440q73 0 116.5 -44t43.5 -116q0 -85 -53 -141t-134 -56q-75 0 -119 44t-44 116q0 86 53.5 141.5t136.5 55.5z" />
    <glyph glyph-name="copyright" unicode="&#xa9;" horiz-adv-x="1572" 
d="M879 1380q141 0 262 -48t205.5 -132t132 -202t47.5 -255q0 -212 -99.5 -387t-273 -275.5t-383.5 -100.5q-189 0 -336.5 81.5t-229 226.5t-81.5 328q0 159 58.5 300.5t159 243t241 161t297.5 59.5zM768 168q156 0 284 75t200.5 206.5t72.5 293.5q0 200 -123 324.5
t-321 124.5q-156 0 -284 -75t-200.5 -207t-72.5 -294q0 -200 123 -324t321 -124zM874 1049q152 0 246 -54l-43 -223h-12q-68 84 -184 84q-88 0 -143.5 -57.5t-55.5 -149.5q0 -66 42 -105.5t114 -39.5q102 0 190 84h12l-47 -246q-41 -19 -72 -25t-96 -6q-164 0 -263 93.5
t-99 244.5q0 174 115.5 287t295.5 113z" />
    <glyph glyph-name="ordfeminine" unicode="&#xaa;" horiz-adv-x="892" 
d="M829 690h-204l4 55h-4q-74 -71 -170 -71q-122 0 -203.5 91.5t-81.5 231.5q0 164 102 273.5t250 109.5q140 0 199 -82h4l16 66h217zM524 899q53 0 88 41.5t35 108.5q0 48 -24.5 77t-69.5 29q-55 0 -91 -42t-36 -107q0 -49 26.5 -78t71.5 -29z" />
    <glyph glyph-name="guillemotleft" unicode="&#xab;" horiz-adv-x="1095" 
d="M338 461l139 -139l-59 -310l-371 461l4 21l549 460l-68 -354zM829 461l140 -139l-60 -310l-370 461l4 21l549 460l-68 -354z" />
    <glyph glyph-name="logicalnot" unicode="&#xac;" horiz-adv-x="1331" 
d="M879 184l84 428h-836l57 291h1127l-142 -719h-290z" />
    <glyph glyph-name="uni00AD" unicode="&#xad;" horiz-adv-x="757" 
d="M659 397h-593l63 332h594z" />
    <glyph glyph-name="registered" unicode="&#xae;" horiz-adv-x="1572" 
d="M608 1038h301q128 0 195 -58t67 -167q0 -206 -178 -252l107 -239h-246l-72 229h-55l-43 -229h-215zM879 1380q141 0 262 -48t205.5 -132t132 -202t47.5 -255q0 -212 -99.5 -387t-273 -275.5t-383.5 -100.5q-189 0 -336.5 81.5t-229 226.5t-81.5 328q0 159 58.5 300.5
t159 243t241 161t297.5 59.5zM768 168q156 0 284 75t200.5 206.5t72.5 293.5q0 200 -123 324.5t-321 124.5q-156 0 -284 -75t-200.5 -207t-72.5 -294q0 -200 123 -324t321 -124zM954 797q0 26 -16.5 41.5t-48.5 15.5h-105l-22 -137h108q39 0 61.5 21.5t22.5 58.5z" />
    <glyph glyph-name="macron" unicode="&#xaf;" horiz-adv-x="1024" 
d="M299 1139l47 247h682l-47 -247h-682z" />
    <glyph glyph-name="degree" unicode="&#xb0;" horiz-adv-x="798" 
d="M530 1380q131 0 213 -82.5t82 -210.5q0 -142 -95 -237.5t-234 -95.5q-130 0 -212.5 81.5t-82.5 208.5q0 144 94.5 240t234.5 96zM528 1190q-56 0 -93.5 -39.5t-37.5 -101.5q0 -47 27.5 -76t73.5 -29q58 0 95.5 39.5t37.5 101.5q0 47 -28 76t-75 29z" />
    <glyph glyph-name="plusminus" unicode="&#xb1;" horiz-adv-x="1331" 
d="M772 291h420l-57 -291h-1127l58 291h415l56 280h-418l57 291h418l76 387h291l-76 -387h418l-58 -291h-418z" />
    <glyph glyph-name="twosuperior" unicode="&#xb2;" 
d="M817 1006l-41 -211h-594l43 221l258 180q99 69 133.5 104t34.5 68q0 32 -24.5 50t-69.5 18q-61 0 -132.5 -30t-121.5 -79h-12l51 262q101 58 244 58t223 -65t80 -183q0 -37 -3 -61t-16.5 -59.5t-39 -65.5t-74.5 -69t-119 -81l-92 -53v-4h272z" />
    <glyph glyph-name="threesuperior" unicode="&#xb3;" 
d="M770 1204v-4q74 -61 74 -162q0 -124 -90 -190t-254 -66q-89 0 -169.5 23t-125.5 59l45 228h12q77 -99 238 -99q114 0 114 78q0 27 -26.5 39t-85.5 12h-92l34 189h93q70 0 99.5 15.5t29.5 53.5q0 56 -95 56q-61 0 -133.5 -27.5t-118.5 -71.5h-12l49 252q107 58 252 58
q141 0 219 -61.5t78 -170.5q0 -148 -135 -211z" />
    <glyph glyph-name="acute" unicode="&#xb4;" horiz-adv-x="1024" 
d="M455 1100l288 352h359l-332 -352h-315z" />
    <glyph glyph-name="uni00B5" unicode="&#xb5;" horiz-adv-x="1155" 
d="M946 0h-270l12 109h-4q-105 -129 -283 -129q-21 0 -57 4l-72 -373h-327l264 1356h328l-107 -541q-4 -16 -4 -47q0 -109 102 -109q70 0 118 47.5t63 126.5l98 523h328z" />
    <glyph glyph-name="paragraph" unicode="&#xb6;" horiz-adv-x="1239" 
d="M1346 1434l-39 -203h-103l-315 -1620h-209l315 1620h-180l-315 -1620h-209l174 899q-157 26 -238.5 115.5t-81.5 236.5q0 274 161.5 423t459.5 149h580z" />
    <glyph glyph-name="periodcentered" unicode="&#xb7;" horiz-adv-x="593" 
d="M352 881q81 0 132 -51t51 -130q0 -93 -65 -157t-155 -64q-81 0 -131.5 50.5t-50.5 129.5q0 93 64.5 157.5t154.5 64.5z" />
    <glyph glyph-name="cedilla" unicode="&#xb8;" horiz-adv-x="1024" 
d="M432 -88v-4q170 -14 170 -139q0 -179 -270 -179q-129 0 -207 29l33 154h12q40 -25 70.5 -33t83.5 -8q39 0 58 14t19 35q0 43 -79 43q-37 0 -91 -12v34l127 156h148z" />
    <glyph glyph-name="onesuperior" unicode="&#xb9;" 
d="M715 795h-232l107 563l-219 -123l45 242l272 157h191z" />
    <glyph glyph-name="ordmasculine" unicode="&#xba;" horiz-adv-x="862" 
d="M559 1380q156 0 250 -89.5t94 -233.5q0 -168 -110.5 -275.5t-280.5 -107.5q-153 0 -247.5 90t-94.5 235q0 166 111 273.5t278 107.5zM545 1155q-54 0 -86.5 -41.5t-32.5 -107.5q0 -49 27.5 -78t72.5 -29q55 0 88 41t33 107q0 49 -28 78.5t-74 29.5z" />
    <glyph glyph-name="guillemotright" unicode="&#xbb;" horiz-adv-x="1095" 
d="M553 473l-549 -461l68 355l194 139l-139 139l59 309l371 -460zM1044 473l-548 -461l67 355l195 139l-140 139l60 309l371 -460z" />
    <glyph glyph-name="onequarter" unicode="&#xbc;" horiz-adv-x="2011" 
d="M424 0l1145 1360h258l-1145 -1360h-258zM1927 346l-41 -211h-94l-27 -135h-231l27 135h-383l39 201l466 504h246l-96 -494h94zM1642 551h-4l-194 -205h158zM662 520h-232l107 563l-220 -122l45 241l273 158h190z" />
    <glyph glyph-name="onehalf" unicode="&#xbd;" horiz-adv-x="2011" 
d="M342 0l1145 1360h258l-1145 -1360h-258zM1835 211l-41 -211h-594l43 221l258 180q99 69 133.5 104t34.5 68q0 32 -24.5 50t-69.5 18q-61 0 -132.5 -30t-121.5 -79h-12l51 263q99 57 244 57q143 0 223 -65t80 -183q0 -37 -3 -61t-16.5 -59.5t-39 -65.5t-74.5 -69t-119 -81
l-92 -53v-4h272zM662 520h-232l107 563l-220 -122l45 241l273 158h190z" />
    <glyph glyph-name="threequarters" unicode="&#xbe;" horiz-adv-x="2011" 
d="M424 0l1145 1360h258l-1145 -1360h-258zM1927 346l-41 -211h-94l-27 -135h-231l27 135h-383l39 201l466 504h246l-96 -494h94zM1642 551h-4l-194 -205h158zM717 930v-4q74 -61 74 -162q0 -124 -90.5 -190t-254.5 -66q-89 0 -169 23t-125 59l45 227h12q76 -98 237 -98
q115 0 115 78q0 27 -26.5 39t-85.5 12h-93l35 188h92q69 0 99 16t30 54q0 31 -23.5 43t-70.5 12q-61 0 -134 -27t-118 -71h-12l49 252q105 57 252 57q141 0 219 -61t78 -170q0 -148 -135 -211z" />
    <glyph glyph-name="questiondown" unicode="&#xbf;" horiz-adv-x="1030" 
d="M496 -20q-226 0 -354 98.5t-128 271.5q0 177 111.5 280t372.5 169l16 88h320l-58 -293q-222 -37 -313.5 -83.5t-91.5 -121.5q0 -46 39 -72t108 -26q119 0 236 44.5t213 127.5h16l-74 -381q-175 -102 -413 -102zM713 979q-80 0 -131.5 50.5t-51.5 129.5q0 92 64.5 156.5
t155.5 64.5q80 0 131 -50.5t51 -129.5q0 -92 -64 -156.5t-155 -64.5z" />
    <glyph glyph-name="Agrave" unicode="&#xc0;" horiz-adv-x="1529" 
d="M1026 0l-35 195h-542l-111 -195h-406l822 1360h362l293 -1360h-383zM864 930h-4l-235 -424h313zM834 1477l-199 352h323l156 -352h-280z" />
    <glyph glyph-name="Aacute" unicode="&#xc1;" horiz-adv-x="1529" 
d="M1026 0l-35 195h-542l-111 -195h-406l822 1360h362l293 -1360h-383zM864 930h-4l-235 -424h313zM791 1477l288 352h359l-332 -352h-315z" />
    <glyph glyph-name="Acircumflex" unicode="&#xc2;" horiz-adv-x="1529" 
d="M1026 0l-35 195h-542l-111 -195h-406l822 1360h362l293 -1360h-383zM864 930h-4l-235 -424h313zM1001 1610l-129 -133h-315l320 352h297l184 -352h-281z" />
    <glyph glyph-name="Atilde" unicode="&#xc3;" horiz-adv-x="1529" 
d="M1026 0l-35 195h-542l-111 -195h-406l822 1360h362l293 -1360h-383zM864 930h-4l-235 -424h313zM1368 1839l-39 -262q-36 -50 -89.5 -78.5t-109.5 -28.5q-83 0 -176 50q-65 36 -112 36q-59 0 -113.5 -30.5t-93.5 -87.5h-12l36 262q38 51 91 78.5t110 27.5q81 0 174 -49
q70 -37 113 -37q122 0 209 119h12z" />
    <glyph glyph-name="Adieresis" unicode="&#xc4;" horiz-adv-x="1529" 
d="M1026 0l-35 195h-542l-111 -195h-406l822 1360h362l293 -1360h-383zM864 930h-4l-235 -424h313zM784 1817q74 0 118 -43.5t44 -116.5q0 -86 -52 -141.5t-136 -55.5q-74 0 -118 44.5t-44 115.5q0 86 53 141.5t135 55.5zM1233 1817q73 0 116.5 -44t43.5 -116
q0 -85 -53 -141t-134 -56q-76 0 -120 44t-44 116q0 86 54 141.5t137 55.5z" />
    <glyph glyph-name="Aring" unicode="&#xc5;" horiz-adv-x="1529" 
d="M1026 0l-35 195h-542l-111 -195h-406l822 1360h362l293 -1360h-383zM864 930h-4l-235 -424h313zM1014 1892q98 0 160.5 -61.5t62.5 -155.5q0 -110 -75.5 -186t-184.5 -76q-95 0 -157 61.5t-62 155.5q0 110 75 186t181 76zM1004 1735q-37 0 -63 -26t-26 -64
q0 -33 20.5 -53.5t53.5 -20.5q37 0 63.5 26t26.5 64q0 33 -20 53.5t-55 20.5z" />
    <glyph glyph-name="AE" unicode="&#xc6;" horiz-adv-x="2162" 
d="M1475 829h512l-60 -303h-512l-39 -194h660l-64 -332h-1032l37 195h-471l-158 -195h-442l1132 1360h1198l-63 -332h-660zM1130 973h-4l-368 -467h280z" />
    <glyph glyph-name="Ccedilla" unicode="&#xc7;" horiz-adv-x="1284" 
d="M893 1380q296 0 457 -108l-74 -375h-16q-51 76 -148 114t-221 38q-184 0 -303 -118t-119 -306q0 -144 93 -229t249 -85q112 0 199 41t166 115h16l-78 -412q-88 -40 -163 -57.5t-191 -17.5h-45l-56 -68v-4q170 -14 170 -139q0 -179 -270 -179q-129 0 -207 29l33 154h12
q40 -25 70.5 -33t83.5 -8q39 0 58.5 14t19.5 35q0 43 -80 43q-36 0 -90 -12v34l123 152q-228 47 -359 209.5t-131 394.5q0 220 103.5 398t287 279t410.5 101z" />
    <glyph glyph-name="Egrave" unicode="&#xc8;" horiz-adv-x="1263" 
d="M614 1028l-39 -199h512l-59 -303h-512l-39 -194h660l-64 -332h-1032l264 1360h1032l-63 -332h-660zM715 1477l-199 352h324l155 -352h-280z" />
    <glyph glyph-name="Eacute" unicode="&#xc9;" horiz-adv-x="1263" 
d="M614 1028l-39 -199h512l-59 -303h-512l-39 -194h660l-64 -332h-1032l264 1360h1032l-63 -332h-660zM672 1477l289 352h358l-332 -352h-315z" />
    <glyph glyph-name="Ecircumflex" unicode="&#xca;" horiz-adv-x="1263" 
d="M614 1028l-39 -199h512l-59 -303h-512l-39 -194h660l-64 -332h-1032l264 1360h1032l-63 -332h-660zM883 1610l-129 -133h-316l320 352h297l184 -352h-281z" />
    <glyph glyph-name="Edieresis" unicode="&#xcb;" horiz-adv-x="1263" 
d="M614 1028l-39 -199h512l-59 -303h-512l-39 -194h660l-64 -332h-1032l264 1360h1032l-63 -332h-660zM666 1817q74 0 117.5 -43.5t43.5 -116.5q0 -86 -52 -141.5t-136 -55.5q-74 0 -118 44.5t-44 115.5q0 86 53.5 141.5t135.5 55.5zM1114 1817q73 0 116.5 -44t43.5 -116
q0 -85 -53 -141t-134 -56q-75 0 -119 44t-44 116q0 86 53.5 141.5t136.5 55.5z" />
    <glyph glyph-name="Igrave" unicode="&#xcc;" horiz-adv-x="643" 
d="M41 0l264 1360h373l-264 -1360h-373zM385 1477l-199 352h324l156 -352h-281z" />
    <glyph glyph-name="Iacute" unicode="&#xcd;" horiz-adv-x="643" 
d="M41 0l264 1360h373l-264 -1360h-373zM342 1477l289 352h358l-332 -352h-315z" />
    <glyph glyph-name="Icircumflex" unicode="&#xce;" horiz-adv-x="643" 
d="M41 0l264 1360h373l-264 -1360h-373zM553 1610l-129 -133h-315l319 352h297l184 -352h-280z" />
    <glyph glyph-name="Idieresis" unicode="&#xcf;" horiz-adv-x="643" 
d="M41 0l264 1360h373l-264 -1360h-373zM336 1817q74 0 118 -43.5t44 -116.5q0 -86 -52.5 -141.5t-136.5 -55.5q-74 0 -118 44.5t-44 115.5q0 86 53.5 141.5t135.5 55.5zM784 1817q73 0 116.5 -44t43.5 -116q0 -85 -52.5 -141t-133.5 -56q-76 0 -120 44t-44 116
q0 86 53.5 141.5t136.5 55.5z" />
    <glyph glyph-name="Eth" unicode="&#xd0;" horiz-adv-x="1513" 
d="M342 1360h500q316 0 485.5 -150.5t169.5 -427.5q0 -373 -210 -577.5t-593 -204.5h-616l106 545h-135l53 276h136zM514 332h186q204 0 312 108t108 310q0 278 -332 278h-137l-41 -207h240l-53 -276h-242z" />
    <glyph glyph-name="Ntilde" unicode="&#xd1;" horiz-adv-x="1519" 
d="M1290 0h-411l-297 922h-4l-177 -922h-360l264 1360h475l256 -801h4l154 801h360zM1358 1839l-39 -262q-36 -50 -89.5 -78.5t-109.5 -28.5q-83 0 -176 50q-65 36 -113 36q-59 0 -112.5 -30.5t-93.5 -87.5h-13l37 262q38 51 91 78.5t110 27.5q81 0 174 -49q70 -37 113 -37
q122 0 209 119h12z" />
    <glyph glyph-name="Ograve" unicode="&#xd2;" horiz-adv-x="1552" 
d="M881 1380q296 0 475.5 -173t179.5 -451q0 -162 -59.5 -305.5t-163.5 -247t-250.5 -163.5t-314.5 -60q-296 0 -476 173t-180 451q0 163 60.5 307t165 247t251 162.5t312.5 59.5zM860 1049q-169 0 -280 -122.5t-111 -308.5q0 -140 81.5 -223.5t219.5 -83.5
q170 0 280.5 122.5t110.5 305.5q0 141 -81 225.5t-220 84.5zM840 1477l-199 352h324l155 -352h-280z" />
    <glyph glyph-name="Oacute" unicode="&#xd3;" horiz-adv-x="1552" 
d="M881 1380q296 0 475.5 -173t179.5 -451q0 -162 -59.5 -305.5t-163.5 -247t-250.5 -163.5t-314.5 -60q-296 0 -476 173t-180 451q0 163 60.5 307t165 247t251 162.5t312.5 59.5zM860 1049q-169 0 -280 -122.5t-111 -308.5q0 -140 81.5 -223.5t219.5 -83.5
q170 0 280.5 122.5t110.5 305.5q0 141 -81 225.5t-220 84.5zM797 1477l288 352h359l-332 -352h-315z" />
    <glyph glyph-name="Ocircumflex" unicode="&#xd4;" horiz-adv-x="1552" 
d="M881 1380q296 0 475.5 -173t179.5 -451q0 -162 -59.5 -305.5t-163.5 -247t-250.5 -163.5t-314.5 -60q-296 0 -476 173t-180 451q0 163 60.5 307t165 247t251 162.5t312.5 59.5zM860 1049q-169 0 -280 -122.5t-111 -308.5q0 -140 81.5 -223.5t219.5 -83.5
q170 0 280.5 122.5t110.5 305.5q0 141 -81 225.5t-220 84.5zM1008 1610l-129 -133h-316l320 352h297l184 -352h-281z" />
    <glyph glyph-name="Otilde" unicode="&#xd5;" horiz-adv-x="1552" 
d="M881 1380q296 0 475.5 -173t179.5 -451q0 -162 -59.5 -305.5t-163.5 -247t-250.5 -163.5t-314.5 -60q-296 0 -476 173t-180 451q0 163 60.5 307t165 247t251 162.5t312.5 59.5zM860 1049q-169 0 -280 -122.5t-111 -308.5q0 -140 81.5 -223.5t219.5 -83.5
q170 0 280.5 122.5t110.5 305.5q0 141 -81 225.5t-220 84.5zM1374 1839l-39 -262q-36 -51 -89 -79t-109 -28q-83 0 -176 50q-65 36 -113 36q-59 0 -113.5 -30.5t-93.5 -87.5h-12l37 262q80 106 200 106q81 0 174 -49q70 -37 113 -37q122 0 209 119h12z" />
    <glyph glyph-name="Odieresis" unicode="&#xd6;" horiz-adv-x="1552" 
d="M881 1380q296 0 475.5 -173t179.5 -451q0 -162 -59.5 -305.5t-163.5 -247t-250.5 -163.5t-314.5 -60q-296 0 -476 173t-180 451q0 163 60.5 307t165 247t251 162.5t312.5 59.5zM860 1049q-169 0 -280 -122.5t-111 -308.5q0 -140 81.5 -223.5t219.5 -83.5
q170 0 280.5 122.5t110.5 305.5q0 141 -81 225.5t-220 84.5zM791 1817q74 0 117.5 -43.5t43.5 -116.5q0 -86 -52 -141.5t-136 -55.5q-74 0 -118 44.5t-44 115.5q0 86 53.5 141.5t135.5 55.5zM1239 1817q73 0 116.5 -44t43.5 -116q0 -85 -53 -141t-134 -56q-75 0 -119 44
t-44 116q0 86 53.5 141.5t136.5 55.5z" />
    <glyph glyph-name="multiply" unicode="&#xd7;" horiz-adv-x="1331" 
d="M1192 233l-223 -190l-303 371l-447 -371l-170 219l443 367l-302 366l224 191l303 -371l446 371l170 -219l-442 -367z" />
    <glyph glyph-name="Oslash" unicode="&#xd8;" horiz-adv-x="1552" 
d="M1669 1360l-239 -240q106 -151 106 -364q0 -162 -59.5 -305.5t-163.5 -247t-250.5 -163.5t-314.5 -60q-206 0 -367 90l-70 -70h-352l240 240q-107 153 -107 364q0 163 60.5 307t165 247t251 162.5t312.5 59.5q205 0 366 -90l70 70h352zM469 618q0 -50 12 -96l504 504
q-61 23 -125 23q-169 0 -280 -122.5t-111 -308.5zM1161 739q0 55 -12 101l-504 -506q61 -23 125 -23q170 0 280.5 122.5t110.5 305.5z" />
    <glyph glyph-name="Ugrave" unicode="&#xd9;" horiz-adv-x="1409" 
d="M1473 1360l-154 -789q-59 -308 -214.5 -449.5t-447.5 -141.5q-264 0 -404 114.5t-140 335.5q0 87 16 166l147 764h373l-147 -762q-10 -46 -10 -100q0 -187 186 -187q117 0 188.5 76.5t102.5 235.5l143 737h361zM768 1477l-199 352h324l156 -352h-281z" />
    <glyph glyph-name="Uacute" unicode="&#xda;" horiz-adv-x="1409" 
d="M1473 1360l-154 -789q-59 -308 -214.5 -449.5t-447.5 -141.5q-264 0 -404 114.5t-140 335.5q0 87 16 166l147 764h373l-147 -762q-10 -46 -10 -100q0 -187 186 -187q117 0 188.5 76.5t102.5 235.5l143 737h361zM725 1477l289 352h358l-332 -352h-315z" />
    <glyph glyph-name="Ucircumflex" unicode="&#xdb;" horiz-adv-x="1409" 
d="M1473 1360l-154 -789q-59 -308 -214.5 -449.5t-447.5 -141.5q-264 0 -404 114.5t-140 335.5q0 87 16 166l147 764h373l-147 -762q-10 -46 -10 -100q0 -187 186 -187q117 0 188.5 76.5t102.5 235.5l143 737h361zM936 1610l-129 -133h-315l319 352h297l184 -352h-280z" />
    <glyph glyph-name="Udieresis" unicode="&#xdc;" horiz-adv-x="1409" 
d="M1473 1360l-154 -789q-59 -308 -214.5 -449.5t-447.5 -141.5q-264 0 -404 114.5t-140 335.5q0 87 16 166l147 764h373l-147 -762q-10 -46 -10 -100q0 -187 186 -187q117 0 188.5 76.5t102.5 235.5l143 737h361zM719 1817q75 0 118.5 -43.5t43.5 -116.5
q0 -86 -52.5 -141.5t-136.5 -55.5q-74 0 -118 44.5t-44 115.5q0 86 53.5 141.5t135.5 55.5zM1167 1817q73 0 116.5 -44t43.5 -116q0 -85 -52.5 -141t-133.5 -56q-75 0 -119.5 44t-44.5 116q0 86 53.5 141.5t136.5 55.5z" />
    <glyph glyph-name="Yacute" unicode="&#xdd;" horiz-adv-x="1466" 
d="M827 -2h-376l106 551l-379 811h428l197 -467l375 467h458l-704 -825zM754 1477l288 352h359l-332 -352h-315z" />
    <glyph glyph-name="Thorn" unicode="&#xde;" horiz-adv-x="1327" 
d="M737 242h-280l-47 -242h-373l264 1360h373l-35 -184h195q236 0 360.5 -103t124.5 -299q0 -262 -147 -397t-435 -135zM784 844h-211l-53 -271h232q98 0 144 40t46 122q0 57 -38 83t-120 26z" />
    <glyph glyph-name="germandbls" unicode="&#xdf;" horiz-adv-x="1159" 
d="M713 1454q170 0 267 -79.5t97 -219.5q0 -107 -40 -188t-136 -154q-46 -35 -63 -57t-17 -47q0 -20 15.5 -35t58.5 -33q100 -41 143 -105t43 -167q0 -185 -104 -287t-291 -102q-175 0 -278 59l59 305h12q58 -86 166 -86q63 0 101 27t38 71q0 24 -19.5 41.5t-70.5 34.5
q-92 30 -132 82t-40 137q0 102 37.5 176.5t126.5 143.5q48 37 67 65t19 58q0 69 -94 69q-55 0 -87 -29.5t-44 -91.5l-203 -1042h-328l207 1067q38 198 158 292.5t332 94.5z" />
    <glyph glyph-name="agrave" unicode="&#xe0;" horiz-adv-x="1196" 
d="M991 0h-266l8 102h-4q-101 -122 -250 -122q-189 0 -306.5 126t-117.5 324q0 153 67.5 281t185 202t257.5 74q227 0 299 -147h4l35 127h277zM551 270q93 0 155 71t62 179q0 80 -44.5 128t-119.5 48q-93 0 -155 -71t-62 -179q0 -80 44.5 -128t119.5 -48zM561 1100l-199 352
h324l156 -352h-281z" />
    <glyph glyph-name="aacute" unicode="&#xe1;" horiz-adv-x="1196" 
d="M991 0h-266l8 102h-4q-101 -122 -250 -122q-189 0 -306.5 126t-117.5 324q0 153 67.5 281t185 202t257.5 74q227 0 299 -147h4l35 127h277zM551 270q93 0 155 71t62 179q0 80 -44.5 128t-119.5 48q-93 0 -155 -71t-62 -179q0 -80 44.5 -128t119.5 -48zM518 1100l289 352
h358l-331 -352h-316z" />
    <glyph glyph-name="acircumflex" unicode="&#xe2;" horiz-adv-x="1196" 
d="M991 0h-266l8 102h-4q-101 -122 -250 -122q-189 0 -306.5 126t-117.5 324q0 153 67.5 281t185 202t257.5 74q227 0 299 -147h4l35 127h277zM551 270q93 0 155 71t62 179q0 80 -44.5 128t-119.5 48q-93 0 -155 -71t-62 -179q0 -80 44.5 -128t119.5 -48zM729 1233
l-129 -133h-315l319 352h297l184 -352h-280z" />
    <glyph glyph-name="atilde" unicode="&#xe3;" horiz-adv-x="1196" 
d="M991 0h-266l8 102h-4q-101 -122 -250 -122q-189 0 -306.5 126t-117.5 324q0 153 67.5 281t185 202t257.5 74q227 0 299 -147h4l35 127h277zM551 270q93 0 155 71t62 179q0 80 -44.5 128t-119.5 48q-93 0 -155 -71t-62 -179q0 -80 44.5 -128t119.5 -48zM1096 1462
l-39 -262q-36 -50 -89.5 -78t-109.5 -28q-85 0 -176 49q-67 37 -113 37q-59 0 -113 -31t-94 -88h-12l37 262q38 51 91 79t110 28q79 0 174 -50q70 -37 112 -37q122 0 209 119h13z" />
    <glyph glyph-name="adieresis" unicode="&#xe4;" horiz-adv-x="1196" 
d="M991 0h-266l8 102h-4q-101 -122 -250 -122q-189 0 -306.5 126t-117.5 324q0 153 67.5 281t185 202t257.5 74q227 0 299 -147h4l35 127h277zM551 270q93 0 155 71t62 179q0 80 -44.5 128t-119.5 48q-93 0 -155 -71t-62 -179q0 -80 44.5 -128t119.5 -48zM512 1440
q74 0 118 -44t44 -116q0 -86 -52.5 -141.5t-136.5 -55.5q-74 0 -117.5 44.5t-43.5 115.5q0 86 53 141.5t135 55.5zM961 1440q73 0 116 -44t43 -116q0 -85 -52.5 -141t-133.5 -56q-76 0 -120 44.5t-44 115.5q0 86 54 141.5t137 55.5z" />
    <glyph glyph-name="aring" unicode="&#xe5;" horiz-adv-x="1196" 
d="M991 0h-266l8 102h-4q-101 -122 -250 -122q-189 0 -306.5 126t-117.5 324q0 153 67.5 281t185 202t257.5 74q227 0 299 -147h4l35 127h277zM551 270q93 0 155 71t62 179q0 80 -44.5 128t-119.5 48q-93 0 -155 -71t-62 -179q0 -80 44.5 -128t119.5 -48zM741 1516
q98 0 161 -62t63 -156q0 -110 -75.5 -186t-184.5 -76q-95 0 -157.5 61.5t-62.5 155.5q0 110 75 186.5t181 76.5zM731 1358q-37 0 -62.5 -26t-25.5 -64q0 -33 20.5 -53.5t53.5 -20.5q37 0 63.5 26t26.5 64q0 33 -20.5 53.5t-55.5 20.5z" />
    <glyph glyph-name="ae" unicode="&#xe6;" horiz-adv-x="1828" 
d="M551 270q93 0 155 71t62 179q0 80 -44.5 128t-119.5 48q-93 0 -155 -71t-62 -179q0 -80 44.5 -128t119.5 -48zM1323 711q-72 0 -130.5 -34.5t-82.5 -101.5h377q0 67 -46 101.5t-118 34.5zM1690 362l-62 -313q-70 -39 -132.5 -54t-158.5 -15q-122 0 -213 39t-137 110h-4
l-31 -129h-241l14 92h-4q-83 -112 -242 -112q-189 0 -306.5 126t-117.5 324q0 154 67.5 282t185 201.5t257.5 73.5q98 0 177 -38t122 -105h4l31 123h242l-17 -101h4q92 121 265 121q174 0 280.5 -100t106.5 -266q0 -68 -29 -205h-657q10 -79 73.5 -119.5t165.5 -40.5
q204 0 344 106h13z" />
    <glyph glyph-name="ccedilla" unicode="&#xe7;" horiz-adv-x="956" 
d="M631 987q215 0 338 -72l-64 -323h-12q-81 104 -244 104q-118 0 -190 -66t-72 -175q0 -85 59 -135t150 -50q149 0 256 107h12l-69 -352q-98 -45 -230 -45h-41l-55 -68v-4q170 -14 170 -139q0 -179 -270 -179q-129 0 -207 29l33 154h12q40 -26 70 -33.5t83 -7.5
q39 0 58.5 14t19.5 35q0 43 -80 43q-36 0 -90 -12v34l125 154q-159 41 -248.5 157t-89.5 279q0 156 74.5 282.5t206 197.5t295.5 71z" />
    <glyph glyph-name="egrave" unicode="&#xe8;" horiz-adv-x="1112" 
d="M612 711q-72 0 -128.5 -34.5t-80.5 -101.5h365q0 68 -42.5 102t-113.5 34zM1032 416h-645q10 -80 71.5 -120t162.5 -40q197 0 337 106h13l-62 -313q-107 -69 -327 -69q-245 0 -386 125t-141 329q0 243 163 398t419 155q199 0 311.5 -99.5t112.5 -269.5q0 -65 -29 -202z
M553 1100l-199 352h324l156 -352h-281z" />
    <glyph glyph-name="eacute" unicode="&#xe9;" horiz-adv-x="1112" 
d="M612 711q-72 0 -128.5 -34.5t-80.5 -101.5h365q0 68 -42.5 102t-113.5 34zM1032 416h-645q10 -80 71.5 -120t162.5 -40q197 0 337 106h13l-62 -313q-107 -69 -327 -69q-245 0 -386 125t-141 329q0 243 163 398t419 155q199 0 311.5 -99.5t112.5 -269.5q0 -65 -29 -202z
M510 1100l289 352h358l-332 -352h-315z" />
    <glyph glyph-name="ecircumflex" unicode="&#xea;" horiz-adv-x="1112" 
d="M612 711q-72 0 -128.5 -34.5t-80.5 -101.5h365q0 68 -42.5 102t-113.5 34zM1032 416h-645q10 -80 71.5 -120t162.5 -40q197 0 337 106h13l-62 -313q-107 -69 -327 -69q-245 0 -386 125t-141 329q0 243 163 398t419 155q199 0 311.5 -99.5t112.5 -269.5q0 -65 -29 -202z
M721 1233l-129 -133h-316l320 352h297l184 -352h-280z" />
    <glyph glyph-name="edieresis" unicode="&#xeb;" horiz-adv-x="1112" 
d="M612 711q-72 0 -128.5 -34.5t-80.5 -101.5h365q0 68 -42.5 102t-113.5 34zM1032 416h-645q10 -80 71.5 -120t162.5 -40q197 0 337 106h13l-62 -313q-107 -69 -327 -69q-245 0 -386 125t-141 329q0 243 163 398t419 155q199 0 311.5 -99.5t112.5 -269.5q0 -65 -29 -202z
M504 1440q74 0 118 -44t44 -116q0 -86 -52.5 -141.5t-136.5 -55.5q-74 0 -118 44.5t-44 115.5q0 86 53.5 141.5t135.5 55.5zM952 1440q73 0 116.5 -44t43.5 -116q0 -85 -52.5 -141t-133.5 -56q-76 0 -120 44.5t-44 115.5q0 86 53.5 141.5t136.5 55.5z" />
    <glyph glyph-name="igrave" unicode="&#xec;" horiz-adv-x="548" 
d="M532 967l-188 -967h-328l189 967h327zM264 1100l-198 352h323l156 -352h-281z" />
    <glyph glyph-name="iacute" unicode="&#xed;" horiz-adv-x="548" 
d="M532 967l-188 -967h-328l189 967h327zM221 1100l289 352h358l-331 -352h-316z" />
    <glyph glyph-name="icircumflex" unicode="&#xee;" horiz-adv-x="548" 
d="M532 967l-188 -967h-328l189 967h327zM432 1233l-129 -133h-315l319 352h297l184 -352h-280z" />
    <glyph glyph-name="idieresis" unicode="&#xef;" horiz-adv-x="548" 
d="M532 967l-188 -967h-328l189 967h327zM215 1440q75 0 118.5 -44t43.5 -116q0 -86 -52.5 -141.5t-136.5 -55.5q-74 0 -117.5 44.5t-43.5 115.5q0 86 53 141.5t135 55.5zM664 1440q73 0 116 -44t43 -116q0 -85 -52.5 -141t-133.5 -56q-75 0 -119.5 44.5t-44.5 115.5
q0 86 54 141.5t137 55.5z" />
    <glyph glyph-name="eth" unicode="&#xf0;" horiz-adv-x="1155" 
d="M1094 1223l-105 -35q123 -207 123 -498q0 -102 -10 -178q-32 -248 -187 -390t-380 -142q-217 0 -348.5 126t-131.5 330q0 151 68 278t185.5 200t256.5 73q105 0 178 -45l5 2q-24 65 -72 143l-324 -104l33 174l188 62q-97 109 -245 202v13h446q67 -52 119 -113l233 76z
M551 270q93 0 155 71t62 179q0 80 -44.5 128t-119.5 48q-93 0 -155 -71t-62 -179q0 -80 44.5 -128t119.5 -48z" />
    <glyph glyph-name="ntilde" unicode="&#xf1;" horiz-adv-x="1128" 
d="M750 987q151 0 233 -80.5t82 -226.5q0 -54 -12 -113l-111 -567h-328l105 541q6 27 6 51q0 104 -102 104q-142 0 -177 -174l-102 -522h-328l189 967h270l-12 -111h4q104 131 283 131zM1090 1462l-39 -262q-36 -50 -89.5 -78t-109.5 -28q-85 0 -176 49q-67 37 -113 37
q-59 0 -113 -31t-94 -88h-12l37 262q38 51 91 79t110 28q79 0 174 -50q70 -37 112 -37q122 0 209 119h13z" />
    <glyph glyph-name="ograve" unicode="&#xf2;" horiz-adv-x="1155" 
d="M621 987q217 0 348 -126.5t131 -330.5q0 -234 -161 -392t-404 -158q-217 0 -348.5 126t-131.5 330q0 234 161.5 392.5t404.5 158.5zM604 696q-93 0 -155 -71t-62 -179q0 -80 44.5 -128t119.5 -48q93 0 155 71t62 179q0 80 -44.5 128t-119.5 48zM567 1100l-198 352h323
l156 -352h-281z" />
    <glyph glyph-name="oacute" unicode="&#xf3;" horiz-adv-x="1155" 
d="M621 987q217 0 348 -126.5t131 -330.5q0 -234 -161 -392t-404 -158q-217 0 -348.5 126t-131.5 330q0 234 161.5 392.5t404.5 158.5zM604 696q-93 0 -155 -71t-62 -179q0 -80 44.5 -128t119.5 -48q93 0 155 71t62 179q0 80 -44.5 128t-119.5 48zM524 1100l289 352h358
l-331 -352h-316z" />
    <glyph glyph-name="ocircumflex" unicode="&#xf4;" horiz-adv-x="1155" 
d="M621 987q217 0 348 -126.5t131 -330.5q0 -234 -161 -392t-404 -158q-217 0 -348.5 126t-131.5 330q0 234 161.5 392.5t404.5 158.5zM604 696q-93 0 -155 -71t-62 -179q0 -80 44.5 -128t119.5 -48q93 0 155 71t62 179q0 80 -44.5 128t-119.5 48zM735 1233l-129 -133h-315
l319 352h297l185 -352h-281z" />
    <glyph glyph-name="otilde" unicode="&#xf5;" horiz-adv-x="1155" 
d="M621 987q217 0 348 -126.5t131 -330.5q0 -234 -161 -392t-404 -158q-217 0 -348.5 126t-131.5 330q0 234 161.5 392.5t404.5 158.5zM604 696q-93 0 -155 -71t-62 -179q0 -80 44.5 -128t119.5 -48q93 0 155 71t62 179q0 80 -44.5 128t-119.5 48zM1102 1462l-39 -262
q-36 -50 -89.5 -78t-109.5 -28q-85 0 -176 49q-67 37 -113 37q-59 0 -112.5 -31t-93.5 -88h-13l37 262q38 51 91 79t110 28q79 0 174 -50q70 -37 113 -37q122 0 209 119h12z" />
    <glyph glyph-name="odieresis" unicode="&#xf6;" horiz-adv-x="1155" 
d="M621 987q217 0 348 -126.5t131 -330.5q0 -234 -161 -392t-404 -158q-217 0 -348.5 126t-131.5 330q0 234 161.5 392.5t404.5 158.5zM604 696q-93 0 -155 -71t-62 -179q0 -80 44.5 -128t119.5 -48q93 0 155 71t62 179q0 80 -44.5 128t-119.5 48zM518 1440q74 0 118 -44
t44 -116q0 -86 -52 -141.5t-136 -55.5q-74 0 -118 44.5t-44 115.5q0 86 53 141.5t135 55.5zM967 1440q73 0 116 -44t43 -116q0 -85 -52.5 -141t-133.5 -56q-76 0 -120 44.5t-44 115.5q0 86 54 141.5t137 55.5z" />
    <glyph glyph-name="divide" unicode="&#xf7;" horiz-adv-x="1331" 
d="M793 1239q73 0 116 -43t43 -113q0 -84 -53 -138t-133 -54q-73 0 -117.5 44t-44.5 114q0 83 55 136.5t134 53.5zM80 469l55 291h1168l-56 -291h-1167zM616 338q73 0 116.5 -43t43.5 -113q0 -84 -53 -138t-133 -54q-73 0 -116.5 42.5t-43.5 112.5q0 84 53 138.5t133 54.5z
" />
    <glyph glyph-name="oslash" unicode="&#xf8;" horiz-adv-x="1155" 
d="M1194 967l-166 -179q72 -110 72 -258q0 -234 -161 -392t-404 -158q-126 0 -224 43l-20 -23h-332l168 178q-72 110 -72 258q0 234 161.5 392.5t404.5 158.5q128 0 221 -43l20 23h332zM606 707q-98 0 -163.5 -74.5t-65.5 -188.5q0 -39 8 -63l293 311q-30 15 -72 15z
M549 260q98 0 163.5 74t65.5 188q0 38 -8 62l-291 -312q30 -12 70 -12z" />
    <glyph glyph-name="ugrave" unicode="&#xf9;" horiz-adv-x="1128" 
d="M924 0h-271l13 109h-4q-105 -129 -283 -129q-151 0 -233.5 80.5t-82.5 224.5q0 47 13 114l110 568h328l-106 -541q-5 -20 -5 -47q0 -109 103 -109q142 0 176 174l102 523h328zM557 1100l-199 352h324l156 -352h-281z" />
    <glyph glyph-name="uacute" unicode="&#xfa;" horiz-adv-x="1128" 
d="M924 0h-271l13 109h-4q-105 -129 -283 -129q-151 0 -233.5 80.5t-82.5 224.5q0 47 13 114l110 568h328l-106 -541q-5 -20 -5 -47q0 -109 103 -109q142 0 176 174l102 523h328zM500 1100l288 352h359l-332 -352h-315z" />
    <glyph glyph-name="ucircumflex" unicode="&#xfb;" horiz-adv-x="1128" 
d="M924 0h-271l13 109h-4q-105 -129 -283 -129q-151 0 -233.5 80.5t-82.5 224.5q0 47 13 114l110 568h328l-106 -541q-5 -20 -5 -47q0 -109 103 -109q142 0 176 174l102 523h328zM719 1233l-129 -133h-316l320 352h297l184 -352h-280z" />
    <glyph glyph-name="udieresis" unicode="&#xfc;" horiz-adv-x="1128" 
d="M924 0h-271l13 109h-4q-105 -129 -283 -129q-151 0 -233.5 80.5t-82.5 224.5q0 47 13 114l110 568h328l-106 -541q-5 -20 -5 -47q0 -109 103 -109q142 0 176 174l102 523h328zM500 1440q74 0 118 -44t44 -116q0 -86 -52.5 -141.5t-136.5 -55.5q-74 0 -118 44.5t-44 115.5
q0 86 53.5 141.5t135.5 55.5zM948 1440q73 0 116.5 -44t43.5 -116q0 -85 -52.5 -141t-133.5 -56q-76 0 -120 44.5t-44 115.5q0 86 53.5 141.5t136.5 55.5z" />
    <glyph glyph-name="yacute" unicode="&#xfd;" horiz-adv-x="1056" 
d="M358 -389h-342l258 426l-165 930h337l64 -555h4l281 555h350zM475 1100l289 352h358l-331 -352h-316z" />
    <glyph glyph-name="thorn" unicode="&#xfe;" horiz-adv-x="1196" 
d="M717 987q189 0 306.5 -126t117.5 -324q0 -154 -67.5 -282t-185 -201.5t-257.5 -73.5q-184 0 -266 98h-5l-92 -467h-327l354 1823h328l-101 -512h4q83 65 191 65zM592 270q93 0 155 71t62 179q0 80 -44.5 128t-119.5 48q-93 0 -155 -71t-62 -179q0 -80 44.5 -128
t119.5 -48z" />
    <glyph glyph-name="ydieresis" unicode="&#xff;" horiz-adv-x="1056" 
d="M358 -389h-342l258 426l-165 930h337l64 -555h4l281 555h350zM469 1440q75 0 118.5 -44t43.5 -116q0 -86 -52.5 -141.5t-136.5 -55.5q-74 0 -117.5 44.5t-43.5 115.5q0 86 53 141.5t135 55.5zM918 1440q73 0 116 -44t43 -116q0 -85 -52.5 -141t-133.5 -56
q-75 0 -119.5 44.5t-44.5 115.5q0 86 54 141.5t137 55.5z" />
    <glyph glyph-name="Amacron" unicode="&#x100;" horiz-adv-x="1529" 
d="M1026 0l-35 195h-542l-111 -195h-406l822 1360h362l293 -1360h-383zM864 930h-4l-235 -424h313zM631 1516l47 247h682l-47 -247h-682z" />
    <glyph glyph-name="amacron" unicode="&#x101;" horiz-adv-x="1196" 
d="M991 0h-266l8 102h-4q-101 -122 -250 -122q-189 0 -306.5 126t-117.5 324q0 153 67.5 281t185 202t257.5 74q227 0 299 -147h4l35 127h277zM551 270q93 0 155 71t62 179q0 80 -44.5 128t-119.5 48q-93 0 -155 -71t-62 -179q0 -80 44.5 -128t119.5 -48zM358 1139l48 247
h681l-47 -247h-682z" />
    <glyph glyph-name="Abreve" unicode="&#x102;" horiz-adv-x="1529" 
d="M1026 0l-35 195h-542l-111 -195h-406l822 1360h362l293 -1360h-383zM864 930h-4l-235 -424h313zM1167 1827h226q-53 -350 -396 -350q-161 0 -247 77.5t-86 217.5q0 19 4 55h225v-10q0 -99 119 -99q116 0 155 109z" />
    <glyph glyph-name="abreve" unicode="&#x103;" horiz-adv-x="1196" 
d="M991 0h-266l8 102h-4q-101 -122 -250 -122q-189 0 -306.5 126t-117.5 324q0 153 67.5 281t185 202t257.5 74q227 0 299 -147h4l35 127h277zM551 270q93 0 155 71t62 179q0 80 -44.5 128t-119.5 48q-93 0 -155 -71t-62 -179q0 -80 44.5 -128t119.5 -48zM895 1450h225
q-53 -350 -395 -350q-161 0 -247.5 78t-86.5 217q0 19 4 55h226v-10q0 -99 118 -99q117 0 156 109z" />
    <glyph glyph-name="Aogonek" unicode="&#x104;" horiz-adv-x="1529" 
d="M1229 -199q66 0 139 52h12l-47 -240q-67 -23 -168 -23q-114 0 -177.5 46.5t-63.5 125.5q0 146 149 234v4h-47l-35 195h-542l-111 -195h-406l822 1360h362l293 -1360h-88q-71 -27 -109 -72t-38 -80q0 -22 15.5 -34.5t39.5 -12.5zM864 930h-4l-235 -424h313z" />
    <glyph glyph-name="aogonek" unicode="&#x105;" horiz-adv-x="1196" 
d="M991 0h-88q-71 -27 -109 -72t-38 -80q0 -22 15.5 -34.5t39.5 -12.5q66 0 139 52h13l-48 -240q-67 -23 -167 -23q-114 0 -178 46.5t-64 125.5q0 173 221 271l6 69h-4q-101 -122 -250 -122q-189 0 -306.5 126t-117.5 324q0 153 67.5 281t185 202t257.5 74q227 0 299 -147h4
l35 127h277zM551 270q93 0 155 71t62 179q0 80 -44.5 128t-119.5 48q-93 0 -155 -71t-62 -179q0 -80 44.5 -128t119.5 -48z" />
    <glyph glyph-name="Cacute" unicode="&#x106;" horiz-adv-x="1284" 
d="M893 1380q296 0 457 -108l-74 -375h-16q-51 76 -148 114t-221 38q-184 0 -303 -118t-119 -306q0 -144 93 -229t249 -85q112 0 199 41t166 115h16l-78 -412q-88 -40 -163 -57.5t-191 -17.5q-305 0 -486.5 172t-181.5 450q0 220 103.5 398t287 279t410.5 101zM741 1477
l289 352h359l-332 -352h-316z" />
    <glyph glyph-name="cacute" unicode="&#x107;" horiz-adv-x="956" 
d="M631 987q215 0 338 -72l-64 -323h-12q-81 104 -244 104q-118 0 -190 -66t-72 -175q0 -85 59 -135t150 -50q149 0 256 107h12l-69 -352q-98 -45 -230 -45q-235 0 -372.5 125.5t-137.5 330.5q0 156 74.5 282.5t206 197.5t295.5 71zM498 1100l288 352h359l-332 -352h-315z
" />
    <glyph glyph-name="Ccircumflex" unicode="&#x108;" horiz-adv-x="1284" 
d="M893 1380q296 0 457 -108l-74 -375h-16q-51 76 -148 114t-221 38q-184 0 -303 -118t-119 -306q0 -144 93 -229t249 -85q112 0 199 41t166 115h16l-78 -412q-88 -40 -163 -57.5t-191 -17.5q-305 0 -486.5 172t-181.5 450q0 220 103.5 398t287 279t410.5 101zM952 1610
l-129 -133h-315l319 352h297l185 -352h-281z" />
    <glyph glyph-name="ccircumflex" unicode="&#x109;" horiz-adv-x="956" 
d="M631 987q215 0 338 -72l-64 -323h-12q-81 104 -244 104q-118 0 -190 -66t-72 -175q0 -85 59 -135t150 -50q149 0 256 107h12l-69 -352q-98 -45 -230 -45q-235 0 -372.5 125.5t-137.5 330.5q0 156 74.5 282.5t206 197.5t295.5 71zM709 1233l-129 -133h-316l320 352h297
l184 -352h-281z" />
    <glyph glyph-name="Cdotaccent" unicode="&#x10a;" horiz-adv-x="1284" 
d="M893 1380q296 0 457 -108l-74 -375h-16q-51 76 -148 114t-221 38q-184 0 -303 -118t-119 -306q0 -144 93 -229t249 -85q112 0 199 41t166 115h16l-78 -412q-88 -40 -163 -57.5t-191 -17.5q-305 0 -486.5 172t-181.5 450q0 220 103.5 398t287 279t410.5 101zM961 1833
q82 0 130 -47.5t48 -126.5q0 -95 -60 -155t-149 -60q-82 0 -130 47.5t-48 124.5q0 96 59.5 156.5t149.5 60.5z" />
    <glyph glyph-name="cdotaccent" unicode="&#x10b;" horiz-adv-x="956" 
d="M631 987q215 0 338 -72l-64 -323h-12q-81 104 -244 104q-118 0 -190 -66t-72 -175q0 -85 59 -135t150 -50q149 0 256 107h12l-69 -352q-98 -45 -230 -45q-235 0 -372.5 125.5t-137.5 330.5q0 156 74.5 282.5t206 197.5t295.5 71zM717 1456q82 0 130 -47.5t48 -126.5
q0 -95 -60 -155t-149 -60q-82 0 -130 47.5t-48 124.5q0 96 59.5 156.5t149.5 60.5z" />
    <glyph glyph-name="Ccaron" unicode="&#x10c;" horiz-adv-x="1284" 
d="M893 1380q296 0 457 -108l-74 -375h-16q-51 76 -148 114t-221 38q-184 0 -303 -118t-119 -306q0 -144 93 -229t249 -85q112 0 199 41t166 115h16l-78 -412q-88 -40 -163 -57.5t-191 -17.5q-305 0 -486.5 172t-181.5 450q0 220 103.5 398t287 279t410.5 101zM1065 1477
h-297l-184 352h280l76 -133l129 133h315z" />
    <glyph glyph-name="ccaron" unicode="&#x10d;" horiz-adv-x="956" 
d="M631 987q215 0 338 -72l-64 -323h-12q-81 104 -244 104q-118 0 -190 -66t-72 -175q0 -85 59 -135t150 -50q149 0 256 107h12l-69 -352q-98 -45 -230 -45q-235 0 -372.5 125.5t-137.5 330.5q0 156 74.5 282.5t206 197.5t295.5 71zM821 1100h-297l-184 352h281l75 -133
l129 133h316z" />
    <glyph glyph-name="Dcaron" unicode="&#x10e;" horiz-adv-x="1476" 
d="M305 1360h500q316 0 485.5 -150.5t169.5 -427.5q0 -373 -210 -577.5t-593 -204.5h-616zM1083 750q0 278 -331 278h-138l-137 -696h187q203 0 311 108t108 310zM1032 1477h-297l-184 352h280l76 -133l129 133h316z" />
    <glyph glyph-name="dcaron" unicode="&#x10f;" horiz-adv-x="1415" 
d="M991 0h-266l8 102h-4q-101 -122 -250 -122q-189 0 -306.5 126t-117.5 324q0 154 67.5 282t185 201.5t257.5 73.5q185 0 269 -100h4l104 547h328zM551 270q93 0 155 71t62 179q0 80 -44.5 128t-119.5 48q-93 0 -155 -71t-62 -179q0 -80 44.5 -128t119.5 -48zM1262 1026
l129 408h329l-211 -408h-247z" />
    <glyph glyph-name="Dcroat" unicode="&#x110;" horiz-adv-x="1513" 
d="M342 1360h500q316 0 485.5 -150.5t169.5 -427.5q0 -373 -210 -577.5t-593 -204.5h-616l106 545h-135l53 276h136zM514 332h186q204 0 312 108t108 310q0 278 -332 278h-137l-41 -207h240l-53 -276h-242z" />
    <glyph glyph-name="dcroat" unicode="&#x111;" horiz-adv-x="1224" 
d="M991 0h-266l8 102h-4q-101 -122 -250 -122q-189 0 -306.5 126t-117.5 324q0 154 67.5 282t185 201.5t257.5 73.5q185 0 269 -100h4l34 178h-266l41 215h266l29 154h328l-31 -154h139l-41 -215h-139zM551 270q93 0 155 71t62 179q0 80 -44.5 128t-119.5 48q-93 0 -155 -71
t-62 -179q0 -80 44.5 -128t119.5 -48z" />
    <glyph glyph-name="Emacron" unicode="&#x112;" horiz-adv-x="1263" 
d="M614 1028l-39 -199h512l-59 -303h-512l-39 -194h660l-64 -332h-1032l264 1360h1032l-63 -332h-660zM512 1516l47 247h682l-47 -247h-682z" />
    <glyph glyph-name="emacron" unicode="&#x113;" horiz-adv-x="1112" 
d="M612 711q-72 0 -128.5 -34.5t-80.5 -101.5h365q0 68 -42.5 102t-113.5 34zM1032 416h-645q10 -80 71.5 -120t162.5 -40q197 0 337 106h13l-62 -313q-107 -69 -327 -69q-245 0 -386 125t-141 329q0 243 163 398t419 155q199 0 311.5 -99.5t112.5 -269.5q0 -65 -29 -202z
M350 1139l47 247h682l-47 -247h-682z" />
    <glyph glyph-name="Ebreve" unicode="&#x114;" horiz-adv-x="1263" 
d="M614 1028l-39 -199h512l-59 -303h-512l-39 -194h660l-64 -332h-1032l264 1360h1032l-63 -332h-660zM1049 1827h225q-53 -350 -395 -350q-161 0 -247.5 78t-86.5 217q0 19 4 55h225v-10q0 -99 119 -99q117 0 156 109z" />
    <glyph glyph-name="ebreve" unicode="&#x115;" horiz-adv-x="1112" 
d="M612 711q-72 0 -128.5 -34.5t-80.5 -101.5h365q0 68 -42.5 102t-113.5 34zM1032 416h-645q10 -80 71.5 -120t162.5 -40q197 0 337 106h13l-62 -313q-107 -69 -327 -69q-245 0 -386 125t-141 329q0 243 163 398t419 155q199 0 311.5 -99.5t112.5 -269.5q0 -65 -29 -202z
M887 1450h225q-53 -350 -395 -350q-161 0 -247.5 78t-86.5 217q0 19 4 55h225v-10q0 -99 119 -99q117 0 156 109z" />
    <glyph glyph-name="Edotaccent" unicode="&#x116;" horiz-adv-x="1263" 
d="M614 1028l-39 -199h512l-59 -303h-512l-39 -194h660l-64 -332h-1032l264 1360h1032l-63 -332h-660zM891 1833q82 0 130 -47.5t48 -126.5q0 -95 -60 -155t-149 -60q-82 0 -130 47.5t-48 124.5q0 96 59.5 156.5t149.5 60.5z" />
    <glyph glyph-name="edotaccent" unicode="&#x117;" horiz-adv-x="1112" 
d="M612 711q-72 0 -128.5 -34.5t-80.5 -101.5h365q0 68 -42.5 102t-113.5 34zM1032 416h-645q10 -80 71.5 -120t162.5 -40q197 0 337 106h13l-62 -313q-107 -69 -327 -69q-245 0 -386 125t-141 329q0 243 163 398t419 155q199 0 311.5 -99.5t112.5 -269.5q0 -65 -29 -202z
M729 1456q82 0 130 -47.5t48 -126.5q0 -95 -60 -155t-149 -60q-82 0 -130 47.5t-48 124.5q0 96 59.5 156.5t149.5 60.5z" />
    <glyph glyph-name="Eogonek" unicode="&#x118;" horiz-adv-x="1263" 
d="M575 829h512l-59 -303h-512l-39 -194h660l-64 -332h-88q-71 -27 -109 -72t-38 -80q0 -22 15.5 -34.5t39.5 -12.5q66 0 139 52h12l-47 -240q-67 -23 -168 -23q-114 0 -177.5 46.5t-63.5 125.5q0 146 149 234v4h-696l264 1360h1032l-63 -332h-660z" />
    <glyph glyph-name="eogonek" unicode="&#x119;" horiz-adv-x="1112" 
d="M612 711q-72 0 -128.5 -34.5t-80.5 -101.5h365q0 68 -42.5 102t-113.5 34zM971 362l-62 -313q-12 -8 -29 -16t-28.5 -12t-35.5 -12.5t-34 -12.5q-67 -25 -104 -65.5t-37 -80.5q0 -23 14.5 -36t38.5 -13q67 0 140 52h12l-47 -240q-54 -23 -174 -23q-109 0 -172.5 46.5
t-63.5 125.5q0 124 125 215v5q-216 19 -337.5 140.5t-121.5 311.5q0 243 163 398t419 155q199 0 311.5 -99.5t112.5 -269.5q0 -65 -29 -202h-645q10 -80 71.5 -120t162.5 -40q197 0 337 106h13z" />
    <glyph glyph-name="Ecaron" unicode="&#x11a;" horiz-adv-x="1263" 
d="M614 1028l-39 -199h512l-59 -303h-512l-39 -194h660l-64 -332h-1032l264 1360h1032l-63 -332h-660zM995 1477h-297l-184 352h281l75 -133l129 133h316z" />
    <glyph glyph-name="ecaron" unicode="&#x11b;" horiz-adv-x="1112" 
d="M612 711q-72 0 -128.5 -34.5t-80.5 -101.5h365q0 68 -42.5 102t-113.5 34zM1032 416h-645q10 -80 71.5 -120t162.5 -40q197 0 337 106h13l-62 -313q-107 -69 -327 -69q-245 0 -386 125t-141 329q0 243 163 398t419 155q199 0 311.5 -99.5t112.5 -269.5q0 -65 -29 -202z
M834 1100h-297l-185 352h281l76 -133l129 133h315z" />
    <glyph glyph-name="Gcircumflex" unicode="&#x11c;" horiz-adv-x="1429" 
d="M930 1380q336 0 522 -108l-74 -375h-16q-145 152 -436 152q-204 0 -330.5 -116t-126.5 -310q0 -145 98 -228.5t269 -83.5q46 0 71 4l35 177h-240l60 303h598l-143 -732q-102 -47 -193.5 -65t-226.5 -18q-328 0 -516.5 163t-188.5 443q0 358 229.5 576t608.5 218z
M983 1610l-129 -133h-315l319 352h297l184 -352h-280z" />
    <glyph glyph-name="gcircumflex" unicode="&#x11d;" horiz-adv-x="1196" 
d="M1180 967l-176 -901q-45 -226 -201 -351t-400 -125q-255 0 -399 101l62 311h12q100 -121 321 -121q224 0 275 180h-4q-79 -61 -187 -61q-190 0 -308 125.5t-118 320.5q0 149 68 273.5t184.5 196t255.5 71.5q227 0 301 -149h4l33 129h277zM557 291q92 0 152.5 67t60.5 166
q0 76 -45 124t-121 48q-92 0 -153.5 -67t-61.5 -166q0 -76 46 -124t122 -48zM731 1233l-129 -133h-315l319 352h297l184 -352h-280z" />
    <glyph glyph-name="Gbreve" unicode="&#x11e;" horiz-adv-x="1429" 
d="M930 1380q336 0 522 -108l-74 -375h-16q-145 152 -436 152q-204 0 -330.5 -116t-126.5 -310q0 -145 98 -228.5t269 -83.5q46 0 71 4l35 177h-240l60 303h598l-143 -732q-102 -47 -193.5 -65t-226.5 -18q-328 0 -516.5 163t-188.5 443q0 358 229.5 576t608.5 218z
M1149 1827h225q-53 -350 -395 -350q-161 0 -247.5 78t-86.5 217q0 19 4 55h225v-10q0 -99 119 -99q117 0 156 109z" />
    <glyph glyph-name="gbreve" unicode="&#x11f;" horiz-adv-x="1196" 
d="M1180 967l-176 -901q-45 -226 -201 -351t-400 -125q-255 0 -399 101l62 311h12q100 -121 321 -121q224 0 275 180h-4q-79 -61 -187 -61q-190 0 -308 125.5t-118 320.5q0 149 68 273.5t184.5 196t255.5 71.5q227 0 301 -149h4l33 129h277zM557 291q92 0 152.5 67t60.5 166
q0 76 -45 124t-121 48q-92 0 -153.5 -67t-61.5 -166q0 -76 46 -124t122 -48zM897 1450h225q-53 -350 -395 -350q-161 0 -247.5 78t-86.5 217q0 19 4 55h226v-10q0 -99 118 -99q117 0 156 109z" />
    <glyph glyph-name="Gdotaccent" unicode="&#x120;" horiz-adv-x="1429" 
d="M930 1380q336 0 522 -108l-74 -375h-16q-145 152 -436 152q-204 0 -330.5 -116t-126.5 -310q0 -145 98 -228.5t269 -83.5q46 0 71 4l35 177h-240l60 303h598l-143 -732q-102 -47 -193.5 -65t-226.5 -18q-328 0 -516.5 163t-188.5 443q0 358 229.5 576t608.5 218z
M991 1833q82 0 130 -47.5t48 -126.5q0 -95 -59.5 -155t-148.5 -60q-82 0 -130.5 47.5t-48.5 124.5q0 96 59.5 156.5t149.5 60.5z" />
    <glyph glyph-name="gdotaccent" unicode="&#x121;" horiz-adv-x="1196" 
d="M1180 967l-176 -901q-45 -226 -201 -351t-400 -125q-255 0 -399 101l62 311h12q100 -121 321 -121q224 0 275 180h-4q-79 -61 -187 -61q-190 0 -308 125.5t-118 320.5q0 149 68 273.5t184.5 196t255.5 71.5q227 0 301 -149h4l33 129h277zM557 291q92 0 152.5 67t60.5 166
q0 76 -45 124t-121 48q-92 0 -153.5 -67t-61.5 -166q0 -76 46 -124t122 -48zM739 1456q83 0 131 -47.5t48 -126.5q0 -95 -60 -155t-149 -60q-82 0 -130.5 47.5t-48.5 124.5q0 96 59.5 156.5t149.5 60.5z" />
    <glyph glyph-name="uni0122" unicode="&#x122;" horiz-adv-x="1429" 
d="M930 1380q336 0 522 -108l-74 -375h-16q-145 152 -436 152q-204 0 -330.5 -116t-126.5 -310q0 -145 98 -228.5t269 -83.5q46 0 71 4l35 177h-240l60 303h598l-143 -732q-102 -47 -193.5 -65t-226.5 -18q-328 0 -516.5 163t-188.5 443q0 358 229.5 576t608.5 218z
M213 -430l252 311h342l-295 -311h-299z" />
    <glyph glyph-name="uni0123" unicode="&#x123;" horiz-adv-x="1196" 
d="M1151 1452l-289 -352h-342l332 352h299zM1180 967l-176 -901q-45 -226 -201 -351t-400 -125q-255 0 -399 101l62 311h12q100 -121 321 -121q224 0 275 180h-4q-79 -61 -187 -61q-190 0 -308 125.5t-118 320.5q0 149 68 273.5t184.5 196t255.5 71.5q227 0 301 -149h4
l33 129h277zM557 291q92 0 152.5 67t60.5 166q0 76 -45 124t-121 48q-92 0 -153.5 -67t-61.5 -166q0 -76 46 -124t122 -48z" />
    <glyph glyph-name="Hcircumflex" unicode="&#x124;" horiz-adv-x="1499" 
d="M1270 0h-373l100 516h-483l-100 -516h-373l264 1360h373l-100 -512h483l100 512h373zM981 1610l-129 -133h-315l319 352h297l184 -352h-280z" />
    <glyph glyph-name="hcircumflex" unicode="&#x125;" horiz-adv-x="1128" 
d="M750 987q151 0 233 -80.5t82 -226.5q0 -54 -12 -113l-111 -567h-328l105 541q6 27 6 51q0 104 -102 104q-142 0 -177 -172l-102 -524h-328l279 1434h328l-101 -519h4q90 72 224 72zM518 1673l-129 -133h-315l319 352h297l184 -352h-280z" />
    <glyph glyph-name="Hbar" unicode="&#x126;" horiz-adv-x="1507" 
d="M1462 969l-188 -969h-373l100 516h-483l-100 -516h-373l188 969h-94l45 235h95l30 156h373l-31 -156h484l30 156h373l-31 -156h95l-46 -235h-94zM606 969l-24 -121h483l25 121h-484z" />
    <glyph glyph-name="hbar" unicode="&#x127;" horiz-adv-x="1146" 
d="M768 987q151 0 233 -80.5t82 -226.5q0 -54 -12 -113l-110 -567h-328l104 541q6 27 6 51q0 104 -102 104q-141 0 -176 -172l-103 -524h-327l207 1065h-125l41 215h125l30 154h328l-31 -154h262l-41 -215h-262l-28 -150h4q90 72 223 72z" />
    <glyph glyph-name="Itilde" unicode="&#x128;" horiz-adv-x="643" 
d="M41 0l264 1360h373l-264 -1360h-373zM920 1839l-39 -262q-36 -50 -89.5 -78.5t-109.5 -28.5q-83 0 -176 50q-65 36 -113 36q-59 0 -113.5 -30.5t-93.5 -87.5h-12l37 262q38 51 91 78.5t110 27.5q81 0 174 -49q70 -37 112 -37q122 0 209 119h13z" />
    <glyph glyph-name="itilde" unicode="&#x129;" horiz-adv-x="548" 
d="M532 967l-188 -967h-328l189 967h327zM799 1462l-39 -262q-36 -50 -89.5 -78t-109.5 -28q-85 0 -176 49q-67 37 -113 37q-59 0 -112.5 -31t-93.5 -88h-13l37 262q38 51 91 79t110 28q79 0 174 -50q70 -37 113 -37q121 0 208 119h13z" />
    <glyph glyph-name="Imacron" unicode="&#x12a;" horiz-adv-x="643" 
d="M41 0l264 1360h373l-264 -1360h-373zM182 1516l47 247h682l-47 -247h-682z" />
    <glyph glyph-name="imacron" unicode="&#x12b;" horiz-adv-x="548" 
d="M532 967l-188 -967h-328l189 967h327zM61 1139l48 247h682l-48 -247h-682z" />
    <glyph glyph-name="Ibreve" unicode="&#x12c;" horiz-adv-x="643" 
d="M41 0l264 1360h373l-264 -1360h-373zM719 1827h225q-53 -350 -395 -350q-161 0 -247.5 78t-86.5 217q0 19 4 55h225v-10q0 -99 119 -99q117 0 156 109z" />
    <glyph glyph-name="ibreve" unicode="&#x12d;" horiz-adv-x="548" 
d="M532 967l-188 -967h-328l189 967h327zM598 1450h225q-53 -350 -395 -350q-161 0 -247.5 78t-86.5 217q0 19 4 55h226v-10q0 -99 118 -99q117 0 156 109z" />
    <glyph glyph-name="Iogonek" unicode="&#x12e;" horiz-adv-x="643" 
d="M414 0h-88q-71 -27 -109.5 -72t-38.5 -80q0 -22 15.5 -34.5t39.5 -12.5q67 0 140 52h12l-47 -240q-54 -23 -174 -23q-109 0 -172.5 46.5t-63.5 125.5q0 145 150 234v4h-37l264 1360h373z" />
    <glyph glyph-name="iogonek" unicode="&#x12f;" horiz-adv-x="548" 
d="M344 0h-88q-71 -27 -109 -72t-38 -80q0 -22 15.5 -34.5t39.5 -12.5q66 0 139 52h12l-47 -240q-54 -23 -174 -23q-109 0 -172 46.5t-63 125.5q0 147 157 238l189 967h327zM440 1456q82 0 130 -47.5t48 -126.5q0 -95 -59.5 -155t-148.5 -60q-82 0 -130.5 47.5t-48.5 124.5
q0 96 59.5 156.5t149.5 60.5z" />
    <glyph glyph-name="Idotaccent" unicode="&#x130;" horiz-adv-x="643" 
d="M41 0l264 1360h373l-264 -1360h-373zM561 1833q82 0 130 -47.5t48 -126.5q0 -95 -60 -155t-149 -60q-82 0 -130 47.5t-48 124.5q0 96 59.5 156.5t149.5 60.5z" />
    <glyph glyph-name="dotlessi" unicode="&#x131;" horiz-adv-x="548" 
d="M532 967l-188 -967h-328l189 967h327z" />
    <glyph glyph-name="IJ" unicode="&#x132;" horiz-adv-x="1697" 
d="M41 0l264 1360h373l-264 -1360h-373zM1761 1360l-168 -864q-54 -272 -196.5 -394t-403.5 -122q-225 0 -370 106l69 358h17q41 -60 110.5 -96.5t153.5 -36.5q107 0 170.5 56t87.5 182l158 811h372z" />
    <glyph glyph-name="ij" unicode="&#x133;" horiz-adv-x="1097" 
d="M440 1456q82 0 130 -47.5t48 -126.5q0 -95 -59.5 -155t-148.5 -60q-82 0 -130.5 47.5t-48.5 124.5q0 96 59.5 156.5t149.5 60.5zM16 0l189 967h327l-188 -967h-328zM989 1456q82 0 130 -47.5t48 -126.5q0 -95 -60 -155t-149 -60q-82 0 -130 47.5t-48 124.5
q0 96 59.5 156.5t149.5 60.5zM1081 967l-202 -1041q-33 -167 -128.5 -251.5t-236.5 -84.5q-100 0 -170 25l55 289h13q23 -23 59 -23q70 0 88 86l195 1000h327z" />
    <glyph glyph-name="Jcircumflex" unicode="&#x134;" horiz-adv-x="1054" 
d="M1118 1360l-168 -864q-54 -272 -196.5 -394t-403.5 -122q-225 0 -370 106l69 358h17q41 -60 110.5 -96.5t153.5 -36.5q107 0 170.5 56t87.5 182l157 811h373zM993 1610l-129 -133h-315l319 352h297l185 -352h-281z" />
    <glyph glyph-name="jcircumflex" unicode="&#x135;" horiz-adv-x="548" 
d="M532 967l-202 -1041q-33 -167 -128.5 -251.5t-236.5 -84.5q-100 0 -170 25l55 289h13q23 -23 59 -23q70 0 88 86l195 1000h327zM432 1233l-129 -133h-315l319 352h297l184 -352h-280z" />
    <glyph glyph-name="uni0136" unicode="&#x136;" horiz-adv-x="1427" 
d="M1303 0h-449l-330 547h-4l-106 -547h-373l264 1360h373l-98 -506h4l481 506h489l-682 -686zM172 -430l252 311h342l-295 -311h-299z" />
    <glyph glyph-name="uni0137" unicode="&#x137;" horiz-adv-x="1142" 
d="M1028 0h-395l-211 377h-4l-74 -377h-328l279 1434h328l-160 -813h4l313 346h424l-481 -492zM37 -430l252 311h342l-295 -311h-299z" />
    <glyph glyph-name="kgreenlandic" unicode="&#x138;" horiz-adv-x="1142" 
d="M1028 0h-395l-211 377h-4l-74 -377h-328l189 967h327l-69 -346h4l313 346h424l-481 -492z" />
    <glyph glyph-name="Lacute" unicode="&#x139;" horiz-adv-x="1191" 
d="M1044 0h-1003l264 1360h373l-201 -1028h631zM342 1477l289 352h358l-332 -352h-315z" />
    <glyph glyph-name="lacute" unicode="&#x13a;" horiz-adv-x="548" 
d="M16 0l279 1434h328l-279 -1434h-328zM307 1540l289 352h358l-331 -352h-316z" />
    <glyph glyph-name="uni013B" unicode="&#x13b;" horiz-adv-x="1191" 
d="M1044 0h-1003l264 1360h373l-201 -1028h631zM111 -430l251 311h343l-295 -311h-299z" />
    <glyph glyph-name="uni013C" unicode="&#x13c;" horiz-adv-x="548" 
d="M16 0l279 1434h328l-279 -1434h-328zM-264 -430l252 311h342l-295 -311h-299z" />
    <glyph glyph-name="Lcaron" unicode="&#x13d;" horiz-adv-x="1191" 
d="M1044 0h-1003l264 1360h373l-201 -1028h631zM721 1026l129 408h330l-211 -408h-248z" />
    <glyph glyph-name="lcaron" unicode="&#x13e;" horiz-adv-x="761" 
d="M16 0l279 1434h328l-279 -1434h-328zM604 1026l129 408h330l-211 -408h-248z" />
    <glyph glyph-name="Ldot" unicode="&#x13f;" horiz-adv-x="1191" 
d="M1044 0h-1003l264 1360h373l-201 -1028h631zM967 874q82 0 130 -47.5t48 -126.5q0 -95 -60 -155t-149 -60q-82 0 -130 47.5t-48 124.5q0 96 59.5 156.5t149.5 60.5z" />
    <glyph glyph-name="ldot" unicode="&#x140;" horiz-adv-x="794" 
d="M16 0l279 1434h328l-279 -1434h-328zM729 874q82 0 130 -47.5t48 -126.5q0 -95 -60 -155t-149 -60q-82 0 -130 47.5t-48 124.5q0 96 59.5 156.5t149.5 60.5z" />
    <glyph glyph-name="Lslash" unicode="&#x141;" horiz-adv-x="1228" 
d="M78 0l69 354l-149 -75l63 327l150 76l131 678h373l-90 -465l469 242l-64 -328l-471 -242l-45 -235h631l-64 -332h-1003z" />
    <glyph glyph-name="lslash" unicode="&#x142;" horiz-adv-x="612" 
d="M479 573l-110 -573h-328l74 385l-140 -74l62 307l137 72l145 744h328l-108 -553l168 86l-62 -308z" />
    <glyph glyph-name="Nacute" unicode="&#x143;" horiz-adv-x="1519" 
d="M1290 0h-411l-297 922h-4l-177 -922h-360l264 1360h475l256 -801h4l154 801h360zM780 1477l289 352h358l-331 -352h-316z" />
    <glyph glyph-name="nacute" unicode="&#x144;" horiz-adv-x="1128" 
d="M750 987q151 0 233 -80.5t82 -226.5q0 -54 -12 -113l-111 -567h-328l105 541q6 27 6 51q0 104 -102 104q-142 0 -177 -174l-102 -522h-328l189 967h270l-12 -111h4q104 131 283 131zM512 1100l289 352h358l-332 -352h-315z" />
    <glyph glyph-name="uni0145" unicode="&#x145;" horiz-adv-x="1519" 
d="M1290 0h-411l-297 922h-4l-177 -922h-360l264 1360h475l256 -801h4l154 801h360zM221 -430l252 311h342l-295 -311h-299z" />
    <glyph glyph-name="uni0146" unicode="&#x146;" horiz-adv-x="1128" 
d="M750 987q151 0 233 -80.5t82 -226.5q0 -54 -12 -113l-111 -567h-328l105 541q6 27 6 51q0 104 -102 104q-142 0 -177 -174l-102 -522h-328l189 967h270l-12 -111h4q104 131 283 131zM35 -430l252 311h342l-295 -311h-299z" />
    <glyph glyph-name="Ncaron" unicode="&#x147;" horiz-adv-x="1519" 
d="M1290 0h-411l-297 922h-4l-177 -922h-360l264 1360h475l256 -801h4l154 801h360zM1104 1477h-297l-184 352h280l76 -133l129 133h315z" />
    <glyph glyph-name="ncaron" unicode="&#x148;" horiz-adv-x="1128" 
d="M750 987q151 0 233 -80.5t82 -226.5q0 -54 -12 -113l-111 -567h-328l105 541q6 27 6 51q0 104 -102 104q-142 0 -177 -174l-102 -522h-328l189 967h270l-12 -111h4q104 131 283 131zM836 1100h-297l-185 352h281l76 -133l129 133h315z" />
    <glyph glyph-name="napostrophe" unicode="&#x149;" horiz-adv-x="1128" 
d="M197 1434h303q-48 -253 -154 -365h-256q93 165 107 365zM750 987q151 0 233 -80.5t82 -226.5q0 -54 -12 -113l-111 -567h-328l105 541q6 27 6 51q0 104 -102 104q-142 0 -177 -174l-102 -522h-328l189 967h270l-12 -111h4q104 131 283 131z" />
    <glyph glyph-name="Eng" unicode="&#x14a;" horiz-adv-x="1519" 
d="M1554 1360l-278 -1434q-36 -181 -130.5 -258.5t-260.5 -77.5q-90 0 -170 25l43 295h12q26 -23 70 -23q68 0 84 80l26 135l-356 871h-4l-189 -973h-360l264 1360h486l272 -658h4l127 658h360z" />
    <glyph glyph-name="eng" unicode="&#x14b;" horiz-adv-x="1132" 
d="M750 987q151 0 233 -80.5t82 -226.5q0 -54 -12 -113l-127 -641q-33 -166 -128.5 -251t-236.5 -85q-100 0 -170 25l55 289h13q23 -23 59 -23q72 0 88 86l113 574q6 27 6 51q0 104 -102 104q-144 0 -179 -174l-100 -522h-328l189 967h270l-12 -111h4q104 131 283 131z" />
    <glyph glyph-name="Omacron" unicode="&#x14c;" horiz-adv-x="1552" 
d="M881 1380q296 0 475.5 -173t179.5 -451q0 -162 -59.5 -305.5t-163.5 -247t-250.5 -163.5t-314.5 -60q-296 0 -476 173t-180 451q0 163 60.5 307t165 247t251 162.5t312.5 59.5zM860 1049q-169 0 -280 -122.5t-111 -308.5q0 -140 81.5 -223.5t219.5 -83.5
q170 0 280.5 122.5t110.5 305.5q0 141 -81 225.5t-220 84.5zM637 1516l47 247h682l-47 -247h-682z" />
    <glyph glyph-name="omacron" unicode="&#x14d;" horiz-adv-x="1155" 
d="M621 987q217 0 348 -126.5t131 -330.5q0 -234 -161 -392t-404 -158q-217 0 -348.5 126t-131.5 330q0 234 161.5 392.5t404.5 158.5zM604 696q-93 0 -155 -71t-62 -179q0 -80 44.5 -128t119.5 -48q93 0 155 71t62 179q0 80 -44.5 128t-119.5 48zM365 1139l47 247h682
l-47 -247h-682z" />
    <glyph glyph-name="Obreve" unicode="&#x14e;" horiz-adv-x="1552" 
d="M881 1380q296 0 475.5 -173t179.5 -451q0 -162 -59.5 -305.5t-163.5 -247t-250.5 -163.5t-314.5 -60q-296 0 -476 173t-180 451q0 163 60.5 307t165 247t251 162.5t312.5 59.5zM860 1049q-169 0 -280 -122.5t-111 -308.5q0 -140 81.5 -223.5t219.5 -83.5
q170 0 280.5 122.5t110.5 305.5q0 141 -81 225.5t-220 84.5zM1174 1827h225q-53 -350 -395 -350q-161 0 -247.5 78t-86.5 217q0 19 4 55h225v-10q0 -99 119 -99q117 0 156 109z" />
    <glyph glyph-name="obreve" unicode="&#x14f;" horiz-adv-x="1155" 
d="M621 987q217 0 348 -126.5t131 -330.5q0 -234 -161 -392t-404 -158q-217 0 -348.5 126t-131.5 330q0 234 161.5 392.5t404.5 158.5zM604 696q-93 0 -155 -71t-62 -179q0 -80 44.5 -128t119.5 -48q93 0 155 71t62 179q0 80 -44.5 128t-119.5 48zM901 1450h225
q-53 -350 -395 -350q-161 0 -247.5 78t-86.5 217q0 19 4 55h226v-10q0 -99 118 -99q117 0 156 109z" />
    <glyph glyph-name="Ohungarumlaut" unicode="&#x150;" horiz-adv-x="1552" 
d="M881 1380q296 0 475.5 -173t179.5 -451q0 -162 -59.5 -305.5t-163.5 -247t-250.5 -163.5t-314.5 -60q-296 0 -476 173t-180 451q0 163 60.5 307t165 247t251 162.5t312.5 59.5zM860 1049q-169 0 -280 -122.5t-111 -308.5q0 -140 81.5 -223.5t219.5 -83.5
q170 0 280.5 122.5t110.5 305.5q0 141 -81 225.5t-220 84.5zM584 1477l288 352h342l-331 -352h-299zM1006 1477l288 352h342l-333 -352h-297z" />
    <glyph glyph-name="ohungarumlaut" unicode="&#x151;" horiz-adv-x="1155" 
d="M621 987q217 0 348 -126.5t131 -330.5q0 -234 -161 -392t-404 -158q-217 0 -348.5 126t-131.5 330q0 234 161.5 392.5t404.5 158.5zM604 696q-93 0 -155 -71t-62 -179q0 -80 44.5 -128t119.5 -48q93 0 155 71t62 179q0 80 -44.5 128t-119.5 48zM311 1100l289 352h342
l-332 -352h-299zM733 1100l289 352h342l-334 -352h-297z" />
    <glyph glyph-name="OE" unicode="&#x152;" horiz-adv-x="2088" 
d="M1405 829h512l-59 -303h-512l-39 -194h659l-63 -332h-1160q-316 0 -485.5 150.5t-169.5 427.5q0 371 211.5 576.5t591.5 205.5h1276l-64 -332h-659zM1071 1028h-186q-205 0 -312.5 -108.5t-107.5 -313.5q0 -274 332 -274h137z" />
    <glyph glyph-name="oe" unicode="&#x153;" horiz-adv-x="1822" 
d="M551 270q93 0 155 71t62 179q0 80 -44.5 128t-119.5 48q-93 0 -155 -71t-62 -179q0 -80 44.5 -128t119.5 -48zM1325 711q-72 0 -128.5 -34.5t-80.5 -101.5h365q0 68 -42.5 102t-113.5 34zM1683 362l-63 -313q-69 -38 -134 -53.5t-161 -15.5q-301 0 -418 186h-4
q-138 -186 -399 -186q-203 0 -326 124t-123 326q0 239 152.5 398t382.5 159q128 0 221.5 -48t146.5 -138h5q138 186 391 186q194 0 307 -99t113 -267q0 -68 -29 -205h-645q10 -80 71 -120t162 -40q198 0 338 106h12z" />
    <glyph glyph-name="Racute" unicode="&#x154;" horiz-adv-x="1380" 
d="M305 1360h578q238 0 362.5 -101.5t124.5 -297.5t-91 -323.5t-263 -170.5l213 -467h-408l-172 442h-149l-86 -442h-373zM563 774h240q190 0 190 150q0 54 -37 79t-118 25h-224zM682 1477l289 352h358l-332 -352h-315z" />
    <glyph glyph-name="racute" unicode="&#x155;" 
d="M756 987q95 0 149 -43l-65 -311h-13q-38 43 -135 43q-114 0 -179.5 -68.5t-94.5 -220.5l-74 -387h-328l189 967h270l-16 -142h4q104 162 293 162zM381 1100l289 352h358l-332 -352h-315z" />
    <glyph glyph-name="uni0156" unicode="&#x156;" horiz-adv-x="1380" 
d="M305 1360h578q238 0 362.5 -101.5t124.5 -297.5t-91 -323.5t-263 -170.5l213 -467h-408l-172 442h-149l-86 -442h-373zM563 774h240q190 0 190 150q0 54 -37 79t-118 25h-224zM166 -430l252 311h342l-295 -311h-299z" />
    <glyph glyph-name="uni0157" unicode="&#x157;" 
d="M756 987q95 0 149 -43l-65 -311h-13q-38 43 -135 43q-114 0 -179.5 -68.5t-94.5 -220.5l-74 -387h-328l189 967h270l-16 -142h4q104 162 293 162zM-264 -430l252 311h342l-295 -311h-299z" />
    <glyph glyph-name="Rcaron" unicode="&#x158;" horiz-adv-x="1380" 
d="M305 1360h578q238 0 362.5 -101.5t124.5 -297.5t-91 -323.5t-263 -170.5l213 -467h-408l-172 442h-149l-86 -442h-373zM563 774h240q190 0 190 150q0 54 -37 79t-118 25h-224zM1006 1477h-297l-185 352h281l76 -133l129 133h315z" />
    <glyph glyph-name="rcaron" unicode="&#x159;" 
d="M756 987q95 0 149 -43l-65 -311h-13q-38 43 -135 43q-114 0 -179.5 -68.5t-94.5 -220.5l-74 -387h-328l189 967h270l-16 -142h4q104 162 293 162zM705 1100h-297l-185 352h281l76 -133l129 133h315z" />
    <glyph glyph-name="Sacute" unicode="&#x15a;" horiz-adv-x="1220" 
d="M760 1380q139 0 275.5 -30.5t189.5 -73.5l-70 -358h-16q-124 139 -406 139q-98 0 -152.5 -29.5t-54.5 -83.5q0 -42 44.5 -65t162.5 -35q230 -23 334 -114t104 -257q0 -238 -154.5 -365.5t-443.5 -127.5q-178 0 -321.5 30.5t-224.5 87.5l69 367h17q170 -162 467 -162
q219 0 219 113q0 40 -46.5 64.5t-162.5 35.5q-230 23 -334 111t-104 250q0 241 158.5 372t449.5 131zM633 1477l289 352h358l-332 -352h-315z" />
    <glyph glyph-name="sacute" unicode="&#x15b;" horiz-adv-x="905" 
d="M530 987q98 0 194.5 -20.5t143.5 -51.5l-53 -272h-12q-88 88 -277 88q-64 0 -100.5 -19t-36.5 -53q0 -21 27 -33t96 -16q166 -10 242.5 -76.5t76.5 -191.5q0 -175 -110.5 -268.5t-317.5 -93.5q-265 0 -399 79l55 287h13q55 -57 133.5 -82.5t195.5 -25.5q63 0 98.5 18.5
t35.5 52.5q0 26 -29 40t-107 20q-162 12 -235.5 74.5t-73.5 179.5q0 169 118 266.5t322 97.5zM395 1100l289 352h358l-331 -352h-316z" />
    <glyph glyph-name="Scircumflex" unicode="&#x15c;" horiz-adv-x="1220" 
d="M760 1380q139 0 275.5 -30.5t189.5 -73.5l-70 -358h-16q-124 139 -406 139q-98 0 -152.5 -29.5t-54.5 -83.5q0 -42 44.5 -65t162.5 -35q230 -23 334 -114t104 -257q0 -238 -154.5 -365.5t-443.5 -127.5q-178 0 -321.5 30.5t-224.5 87.5l69 367h17q170 -162 467 -162
q219 0 219 113q0 40 -46.5 64.5t-162.5 35.5q-230 23 -334 111t-104 250q0 241 158.5 372t449.5 131zM844 1610l-129 -133h-316l320 352h297l184 -352h-280z" />
    <glyph glyph-name="scircumflex" unicode="&#x15d;" horiz-adv-x="905" 
d="M530 987q98 0 194.5 -20.5t143.5 -51.5l-53 -272h-12q-88 88 -277 88q-64 0 -100.5 -19t-36.5 -53q0 -21 27 -33t96 -16q166 -10 242.5 -76.5t76.5 -191.5q0 -175 -110.5 -268.5t-317.5 -93.5q-265 0 -399 79l55 287h13q55 -57 133.5 -82.5t195.5 -25.5q63 0 98.5 18.5
t35.5 52.5q0 26 -29 40t-107 20q-162 12 -235.5 74.5t-73.5 179.5q0 169 118 266.5t322 97.5zM606 1233l-129 -133h-315l319 352h297l185 -352h-281z" />
    <glyph glyph-name="Scedilla" unicode="&#x15e;" horiz-adv-x="1220" 
d="M27 98l69 367h17q170 -162 467 -162q219 0 219 113q0 40 -46.5 64.5t-162.5 35.5q-230 23 -334 111t-104 250q0 241 158.5 372t449.5 131q139 0 275.5 -30.5t189.5 -73.5l-70 -358h-16q-124 139 -406 139q-98 0 -152.5 -29.5t-54.5 -83.5q0 -42 44.5 -65t162.5 -35
q230 -23 334 -114t104 -257q0 -232 -147.5 -359.5t-423.5 -133.5l-55 -68v-4q170 -14 170 -139q0 -179 -271 -179q-128 0 -206 29l32 154h13q40 -26 70 -33.5t83 -7.5q39 0 58.5 14t19.5 35q0 43 -80 43q-36 0 -90 -12v34l113 138q-289 19 -430 114z" />
    <glyph glyph-name="scedilla" unicode="&#x15f;" horiz-adv-x="905" 
d="M4 59l55 287h13q55 -57 133.5 -82.5t195.5 -25.5q63 0 98.5 18.5t35.5 52.5q0 26 -29 40t-107 20q-162 12 -235.5 74.5t-73.5 179.5q0 169 118 266.5t322 97.5q98 0 194.5 -20.5t143.5 -51.5l-53 -272h-12q-88 88 -277 88q-64 0 -100.5 -19t-36.5 -53q0 -21 27 -33
t96 -16q166 -10 242.5 -76.5t76.5 -191.5q0 -167 -101 -260t-292 -102l-55 -68v-4q170 -14 170 -139q0 -179 -270 -179q-129 0 -207 29l33 154h12q40 -26 70 -33.5t83 -7.5q39 0 58.5 14t19.5 35q0 43 -80 43q-36 0 -90 -12v34l113 138q-186 13 -291 75z" />
    <glyph glyph-name="Scaron" unicode="&#x160;" horiz-adv-x="1220" 
d="M760 1380q139 0 275.5 -30.5t189.5 -73.5l-70 -358h-16q-124 139 -406 139q-98 0 -152.5 -29.5t-54.5 -83.5q0 -42 44.5 -65t162.5 -35q230 -23 334 -114t104 -257q0 -238 -154.5 -365.5t-443.5 -127.5q-178 0 -321.5 30.5t-224.5 87.5l69 367h17q170 -162 467 -162
q219 0 219 113q0 40 -46.5 64.5t-162.5 35.5q-230 23 -334 111t-104 250q0 241 158.5 372t449.5 131zM956 1477h-297l-184 352h281l75 -133l130 133h315z" />
    <glyph glyph-name="scaron" unicode="&#x161;" horiz-adv-x="905" 
d="M530 987q98 0 194.5 -20.5t143.5 -51.5l-53 -272h-12q-88 88 -277 88q-64 0 -100.5 -19t-36.5 -53q0 -21 27 -33t96 -16q166 -10 242.5 -76.5t76.5 -191.5q0 -175 -110.5 -268.5t-317.5 -93.5q-265 0 -399 79l55 287h13q55 -57 133.5 -82.5t195.5 -25.5q63 0 98.5 18.5
t35.5 52.5q0 26 -29 40t-107 20q-162 12 -235.5 74.5t-73.5 179.5q0 169 118 266.5t322 97.5zM719 1100h-297l-184 352h280l76 -133l129 133h315z" />
    <glyph glyph-name="uni0162" unicode="&#x162;" horiz-adv-x="1232" 
d="M911 1028l-200 -1028h-105l-71 -88v-4q170 -14 170 -139q0 -179 -271 -179q-129 0 -207 29l33 154h12q40 -25 70.5 -33t83.5 -8q39 0 58.5 14t19.5 35q0 43 -80 43q-36 0 -90 -12v34l125 154h-121l201 1028h-379l63 332h1127l-64 -332h-375z" />
    <glyph glyph-name="uni0163" unicode="&#x163;" horiz-adv-x="827" 
d="M547 688l-60 -301q-4 -24 -4 -33q0 -84 95 -84q81 0 141 60h12l-65 -328q-72 -22 -181 -22q-27 0 -77 4l-60 -72v-4q170 -14 170 -139q0 -179 -270 -179q-129 0 -207 29l33 154h12q40 -25 70.5 -33t83.5 -8q39 0 58 14t19 35q0 43 -79 43q-37 0 -91 -12v34l140 172
q-140 72 -140 254q0 48 13 115l57 301h-149l55 279h158l92 274h280l-53 -274h254l-55 -279h-252z" />
    <glyph glyph-name="Tcaron" unicode="&#x164;" horiz-adv-x="1232" 
d="M911 1028l-200 -1028h-373l201 1028h-379l63 332h1127l-64 -332h-375zM961 1477h-297l-185 352h281l76 -133l129 133h315z" />
    <glyph glyph-name="tcaron" unicode="&#x165;" horiz-adv-x="827" 
d="M547 688l-60 -301q-4 -24 -4 -33q0 -84 95 -84q81 0 141 60h12l-65 -328q-72 -22 -181 -22q-167 0 -252.5 74.5t-85.5 217.5q0 48 13 115l57 301h-149l55 279h158l92 274h280l-53 -274h254l-55 -279h-252zM653 1026l129 408h330l-211 -408h-248z" />
    <glyph glyph-name="Tbar" unicode="&#x166;" horiz-adv-x="1232" 
d="M866 799h195l-47 -236h-193l-110 -563h-373l111 563h-201l47 236h199l45 229h-379l63 332h1127l-64 -332h-375z" />
    <glyph glyph-name="tbar" unicode="&#x167;" horiz-adv-x="847" 
d="M750 606l-41 -209h-215l-2 -10q-5 -30 -5 -33q0 -84 95 -84q81 0 141 60h12l-65 -328q-72 -22 -181 -22q-167 0 -252 74.5t-85 217.5q0 54 12 115l2 10h-127l41 209h125l16 82h-149l55 279h158l92 274h280l-53 -274h254l-55 -279h-252l-16 -82h215z" />
    <glyph glyph-name="Utilde" unicode="&#x168;" horiz-adv-x="1409" 
d="M1473 1360l-154 -789q-59 -308 -214.5 -449.5t-447.5 -141.5q-264 0 -404 114.5t-140 335.5q0 87 16 166l147 764h373l-147 -762q-10 -46 -10 -100q0 -187 186 -187q117 0 188.5 76.5t102.5 235.5l143 737h361zM1303 1839l-39 -262q-36 -50 -89.5 -78.5t-109.5 -28.5
q-83 0 -176 50q-65 36 -113 36q-59 0 -113.5 -30.5t-93.5 -87.5h-12l37 262q80 106 201 106q81 0 174 -49q70 -37 112 -37q122 0 209 119h13z" />
    <glyph glyph-name="utilde" unicode="&#x169;" horiz-adv-x="1128" 
d="M924 0h-271l13 109h-4q-105 -129 -283 -129q-151 0 -233.5 80.5t-82.5 224.5q0 47 13 114l110 568h328l-106 -541q-5 -20 -5 -47q0 -109 103 -109q142 0 176 174l102 523h328zM1083 1462l-39 -262q-36 -50 -89 -78t-109 -28q-85 0 -176 49q-67 37 -113 37q-59 0 -113 -31
t-94 -88h-12l37 262q38 51 90.5 79t109.5 28q80 0 175 -50q70 -37 112 -37q122 0 209 119h12z" />
    <glyph glyph-name="Umacron" unicode="&#x16a;" horiz-adv-x="1409" 
d="M1473 1360l-154 -789q-59 -308 -214.5 -449.5t-447.5 -141.5q-264 0 -404 114.5t-140 335.5q0 87 16 166l147 764h373l-147 -762q-10 -46 -10 -100q0 -187 186 -187q117 0 188.5 76.5t102.5 235.5l143 737h361zM565 1516l47 247h682l-47 -247h-682z" />
    <glyph glyph-name="umacron" unicode="&#x16b;" horiz-adv-x="1128" 
d="M924 0h-271l13 109h-4q-105 -129 -283 -129q-151 0 -233.5 80.5t-82.5 224.5q0 47 13 114l110 568h328l-106 -541q-5 -20 -5 -47q0 -109 103 -109q142 0 176 174l102 523h328zM346 1139l47 247h682l-47 -247h-682z" />
    <glyph glyph-name="Ubreve" unicode="&#x16c;" horiz-adv-x="1409" 
d="M1473 1360l-154 -789q-59 -308 -214.5 -449.5t-447.5 -141.5q-264 0 -404 114.5t-140 335.5q0 87 16 166l147 764h373l-147 -762q-10 -46 -10 -100q0 -187 186 -187q117 0 188.5 76.5t102.5 235.5l143 737h361zM1102 1827h225q-53 -350 -395 -350q-161 0 -247.5 78
t-86.5 217q0 19 4 55h225v-10q0 -99 119 -99q117 0 156 109z" />
    <glyph glyph-name="ubreve" unicode="&#x16d;" horiz-adv-x="1128" 
d="M924 0h-271l13 109h-4q-105 -129 -283 -129q-151 0 -233.5 80.5t-82.5 224.5q0 47 13 114l110 568h328l-106 -541q-5 -20 -5 -47q0 -109 103 -109q142 0 176 174l102 523h328zM881 1450h225q-53 -350 -395 -350q-161 0 -247.5 78t-86.5 217q0 19 4 55h225v-10
q0 -99 119 -99q117 0 156 109z" />
    <glyph glyph-name="Uring" unicode="&#x16e;" horiz-adv-x="1409" 
d="M1473 1360l-154 -789q-59 -308 -214.5 -449.5t-447.5 -141.5q-264 0 -404 114.5t-140 335.5q0 87 16 166l147 764h373l-147 -762q-10 -46 -10 -100q0 -187 186 -187q117 0 188.5 76.5t102.5 235.5l143 737h361zM948 1892q98 0 160.5 -61.5t62.5 -155.5q0 -110 -75.5 -186
t-184.5 -76q-95 0 -157 61.5t-62 155.5q0 110 75 186t181 76zM938 1735q-37 0 -62.5 -26t-25.5 -64q0 -33 20.5 -53.5t53.5 -20.5q37 0 63.5 26t26.5 64q0 33 -20.5 53.5t-55.5 20.5z" />
    <glyph glyph-name="uring" unicode="&#x16f;" horiz-adv-x="1128" 
d="M924 0h-271l13 109h-4q-105 -129 -283 -129q-151 0 -233.5 80.5t-82.5 224.5q0 47 13 114l110 568h328l-106 -541q-5 -20 -5 -47q0 -109 103 -109q142 0 176 174l102 523h328zM729 1516q98 0 160.5 -62t62.5 -156q0 -110 -75.5 -186t-184.5 -76q-95 0 -157 61.5
t-62 155.5q0 110 75 186.5t181 76.5zM719 1358q-37 0 -62.5 -26t-25.5 -64q0 -33 20.5 -53.5t53.5 -20.5q37 0 63.5 26t26.5 64q0 33 -20.5 53.5t-55.5 20.5z" />
    <glyph glyph-name="Uhungarumlaut" unicode="&#x170;" horiz-adv-x="1409" 
d="M1473 1360l-154 -789q-59 -308 -214.5 -449.5t-447.5 -141.5q-264 0 -404 114.5t-140 335.5q0 87 16 166l147 764h373l-147 -762q-10 -46 -10 -100q0 -187 186 -187q117 0 188.5 76.5t102.5 235.5l143 737h361zM512 1477l289 352h342l-332 -352h-299zM934 1477l289 352
h342l-334 -352h-297z" />
    <glyph glyph-name="uhungarumlaut" unicode="&#x171;" horiz-adv-x="1128" 
d="M924 0h-271l13 109h-4q-105 -129 -283 -129q-151 0 -233.5 80.5t-82.5 224.5q0 47 13 114l110 568h328l-106 -541q-5 -20 -5 -47q0 -109 103 -109q142 0 176 174l102 523h328zM287 1100l288 352h343l-332 -352h-299zM709 1100l288 352h342l-333 -352h-297z" />
    <glyph glyph-name="Uogonek" unicode="&#x172;" horiz-adv-x="1409" 
d="M1473 1360l-154 -789q-43 -222 -132 -354t-243 -194q-67 -27 -108.5 -61t-54.5 -61t-13 -53q0 -22 15.5 -34.5t39.5 -12.5q67 0 140 52h12l-47 -240q-54 -23 -174 -23q-109 0 -172.5 46.5t-63.5 125.5q0 123 113 213v5q-252 6 -385 120.5t-133 329.5q0 87 16 166l147 764
h373l-147 -762q-10 -46 -10 -100q0 -187 186 -187q117 0 188.5 76.5t102.5 235.5l143 737h361z" />
    <glyph glyph-name="uogonek" unicode="&#x173;" horiz-adv-x="1128" 
d="M924 0h-84q-71 -27 -109.5 -72t-38.5 -80q0 -22 16 -34.5t40 -12.5q66 0 139 52h12l-47 -240q-67 -23 -168 -23q-114 0 -178 46.5t-64 125.5q0 169 215 269l9 78h-4q-105 -129 -283 -129q-151 0 -233.5 80.5t-82.5 224.5q0 47 13 114l110 568h328l-106 -541
q-5 -20 -5 -47q0 -109 103 -109q142 0 176 174l102 523h328z" />
    <glyph glyph-name="Wcircumflex" unicode="&#x174;" horiz-adv-x="2076" 
d="M1548 0h-379l-77 760h-5l-366 -760h-379l-139 1360h379l67 -807h4l391 807h316l82 -811h4l379 811h393zM1270 1610l-129 -133h-316l320 352h297l184 -352h-280z" />
    <glyph glyph-name="wcircumflex" unicode="&#x175;" horiz-adv-x="1589" 
d="M1171 0h-303l-63 524h-4l-260 -524h-303l-129 967h331l37 -543h4l273 543h260l67 -547h4l244 547h348zM952 1233l-129 -133h-315l319 352h297l185 -352h-281z" />
    <glyph glyph-name="Ycircumflex" unicode="&#x176;" horiz-adv-x="1466" 
d="M827 -2h-376l106 551l-379 811h428l197 -467l375 467h458l-704 -825zM965 1610l-129 -133h-316l320 352h297l184 -352h-281z" />
    <glyph glyph-name="ycircumflex" unicode="&#x177;" horiz-adv-x="1056" 
d="M358 -389h-342l258 426l-165 930h337l64 -555h4l281 555h350zM686 1233l-129 -133h-315l319 352h297l184 -352h-280z" />
    <glyph glyph-name="Ydieresis" unicode="&#x178;" horiz-adv-x="1466" 
d="M827 -2h-376l106 551l-379 811h428l197 -467l375 467h458l-704 -825zM748 1817q74 0 117.5 -43.5t43.5 -116.5q0 -86 -52 -141.5t-136 -55.5q-74 0 -118 44.5t-44 115.5q0 86 53.5 141.5t135.5 55.5zM1196 1817q73 0 116.5 -44t43.5 -116q0 -85 -53 -141t-134 -56
q-75 0 -119 44t-44 116q0 86 53.5 141.5t136.5 55.5z" />
    <glyph glyph-name="Zacute" unicode="&#x179;" horiz-adv-x="1337" 
d="M1212 332l-63 -332h-1149l61 315l762 713h-581l63 332h1098l-62 -316l-759 -712h630zM698 1477l289 352h359l-332 -352h-316z" />
    <glyph glyph-name="zacute" unicode="&#x17a;" horiz-adv-x="1021" 
d="M467 279h432l-53 -279h-858l51 262l485 426h-372l55 279h817l-51 -262zM465 1100l289 352h358l-332 -352h-315z" />
    <glyph glyph-name="Zdotaccent" unicode="&#x17b;" horiz-adv-x="1337" 
d="M1212 332l-63 -332h-1149l61 315l762 713h-581l63 332h1098l-62 -316l-759 -712h630zM918 1833q82 0 130 -47.5t48 -126.5q0 -95 -60 -155t-149 -60q-82 0 -130 47.5t-48 124.5q0 96 59.5 156.5t149.5 60.5z" />
    <glyph glyph-name="zdotaccent" unicode="&#x17c;" horiz-adv-x="1021" 
d="M467 279h432l-53 -279h-858l51 262l485 426h-372l55 279h817l-51 -262zM684 1456q82 0 130 -47.5t48 -126.5q0 -95 -60 -155t-149 -60q-82 0 -130 47.5t-48 124.5q0 96 59.5 156.5t149.5 60.5z" />
    <glyph glyph-name="Zcaron" unicode="&#x17d;" horiz-adv-x="1337" 
d="M1212 332l-63 -332h-1149l61 315l762 713h-581l63 332h1098l-62 -316l-759 -712h630zM1022 1477h-297l-184 352h280l76 -133l129 133h315z" />
    <glyph glyph-name="zcaron" unicode="&#x17e;" horiz-adv-x="1021" 
d="M467 279h432l-53 -279h-858l51 262l485 426h-372l55 279h817l-51 -262zM788 1100h-296l-185 352h281l76 -133l129 133h315z" />
    <glyph glyph-name="florin" unicode="&#x192;" horiz-adv-x="1331" 
d="M1122 1380q133 0 213 -39l-61 -284h-17q-50 33 -127 33q-66 0 -112 -33.5t-66 -95.5l-22 -68h256l-56 -279h-292l-125 -378q-62 -188 -182 -283.5t-285 -95.5q-133 0 -213 39l61 284h17q42 -33 127 -33q55 0 96 33.5t61 95.5l113 338h-213l55 279h248l37 108
q128 379 487 379z" />
    <glyph glyph-name="AEacute" unicode="&#x1fc;" horiz-adv-x="2162" 
d="M1475 829h512l-60 -303h-512l-39 -194h660l-64 -332h-1032l37 195h-471l-158 -195h-442l1132 1360h1198l-63 -332h-660zM1130 973h-4l-368 -467h280zM1159 1477l289 352h358l-331 -352h-316z" />
    <glyph glyph-name="aeacute" unicode="&#x1fd;" horiz-adv-x="1828" 
d="M551 270q93 0 155 71t62 179q0 80 -44.5 128t-119.5 48q-93 0 -155 -71t-62 -179q0 -80 44.5 -128t119.5 -48zM1323 711q-72 0 -130.5 -34.5t-82.5 -101.5h377q0 67 -46 101.5t-118 34.5zM1690 362l-62 -313q-70 -39 -132.5 -54t-158.5 -15q-122 0 -213 39t-137 110h-4
l-31 -129h-241l14 92h-4q-83 -112 -242 -112q-189 0 -306.5 126t-117.5 324q0 154 67.5 282t185 201.5t257.5 73.5q98 0 177 -38t122 -105h4l31 123h242l-17 -101h4q92 121 265 121q174 0 280.5 -100t106.5 -266q0 -68 -29 -205h-657q10 -79 73.5 -119.5t165.5 -40.5
q204 0 344 106h13zM872 1100l289 352h359l-332 -352h-316z" />
    <glyph glyph-name="Oslashacute" unicode="&#x1fe;" horiz-adv-x="1552" 
d="M1669 1360l-239 -240q106 -151 106 -364q0 -162 -59.5 -305.5t-163.5 -247t-250.5 -163.5t-314.5 -60q-206 0 -367 90l-70 -70h-352l240 240q-107 153 -107 364q0 163 60.5 307t165 247t251 162.5t312.5 59.5q205 0 366 -90l70 70h352zM469 618q0 -50 12 -96l504 504
q-61 23 -125 23q-169 0 -280 -122.5t-111 -308.5zM1161 739q0 55 -12 101l-504 -506q61 -23 125 -23q170 0 280.5 122.5t110.5 305.5zM793 1477l288 352h359l-332 -352h-315z" />
    <glyph glyph-name="oslashacute" unicode="&#x1ff;" horiz-adv-x="1155" 
d="M1194 967l-166 -179q72 -110 72 -258q0 -234 -161 -392t-404 -158q-126 0 -224 43l-20 -23h-332l168 178q-72 110 -72 258q0 234 161.5 392.5t404.5 158.5q128 0 221 -43l20 23h332zM606 707q-98 0 -163.5 -74.5t-65.5 -188.5q0 -39 8 -63l293 311q-30 15 -72 15z
M549 260q98 0 163.5 74t65.5 188q0 38 -8 62l-291 -312q30 -12 70 -12zM539 1100l288 352h359l-332 -352h-315z" />
    <glyph glyph-name="uni0218" unicode="&#x218;" horiz-adv-x="1220" 
d="M760 1380q139 0 275.5 -30.5t189.5 -73.5l-70 -358h-16q-124 139 -406 139q-98 0 -152.5 -29.5t-54.5 -83.5q0 -42 44.5 -65t162.5 -35q230 -23 334 -114t104 -257q0 -238 -154.5 -365.5t-443.5 -127.5q-178 0 -321.5 30.5t-224.5 87.5l69 367h17q170 -162 467 -162
q219 0 219 113q0 40 -46.5 64.5t-162.5 35.5q-230 23 -334 111t-104 250q0 241 158.5 372t449.5 131zM88 -430l252 311h342l-295 -311h-299z" />
    <glyph glyph-name="uni0219" unicode="&#x219;" horiz-adv-x="905" 
d="M530 987q98 0 194.5 -20.5t143.5 -51.5l-53 -272h-12q-88 88 -277 88q-64 0 -100.5 -19t-36.5 -53q0 -21 27 -33t96 -16q166 -10 242.5 -76.5t76.5 -191.5q0 -175 -110.5 -268.5t-317.5 -93.5q-265 0 -399 79l55 287h13q55 -57 133.5 -82.5t195.5 -25.5q63 0 98.5 18.5
t35.5 52.5q0 26 -29 40t-107 20q-162 12 -235.5 74.5t-73.5 179.5q0 169 118 266.5t322 97.5zM-74 -430l252 311h342l-295 -311h-299z" />
    <glyph glyph-name="uni021A" unicode="&#x21a;" horiz-adv-x="1232" 
d="M911 1028l-200 -1028h-373l201 1028h-379l63 332h1127l-64 -332h-375zM78 -430l252 311h342l-295 -311h-299z" />
    <glyph glyph-name="uni021B" unicode="&#x21b;" horiz-adv-x="827" 
d="M547 688l-60 -301q-4 -24 -4 -33q0 -84 95 -84q81 0 141 60h12l-65 -328q-72 -22 -181 -22q-167 0 -252.5 74.5t-85.5 217.5q0 48 13 115l57 301h-149l55 279h158l92 274h280l-53 -274h254l-55 -279h-252zM-109 -430l252 311h342l-295 -311h-299z" />
    <glyph glyph-name="uni0237" unicode="&#x237;" horiz-adv-x="548" 
d="M532 967l-202 -1041q-33 -167 -128.5 -251.5t-236.5 -84.5q-100 0 -170 25l55 289h13q23 -23 59 -23q70 0 88 86l195 1000h327z" />
    <glyph glyph-name="circumflex" unicode="&#x2c6;" horiz-adv-x="1024" 
d="M674 1233l-129 -133h-316l320 352h297l184 -352h-280z" />
    <glyph glyph-name="caron" unicode="&#x2c7;" horiz-adv-x="1024" 
d="M782 1100h-297l-184 352h281l75 -133l129 133h316z" />
    <glyph glyph-name="breve" unicode="&#x2d8;" horiz-adv-x="1024" 
d="M834 1450h225q-53 -350 -395 -350q-161 0 -247.5 78t-86.5 217q0 19 4 55h225v-10q0 -99 119 -99q117 0 156 109z" />
    <glyph glyph-name="dotaccent" unicode="&#x2d9;" horiz-adv-x="1024" 
d="M678 1456q82 0 130 -47.5t48 -126.5q0 -95 -60 -155t-149 -60q-82 0 -130 47.5t-48 124.5q0 96 59.5 156.5t149.5 60.5z" />
    <glyph glyph-name="ring" unicode="&#x2da;" horiz-adv-x="1024" 
d="M682 1516q98 0 160.5 -62t62.5 -156q0 -110 -75.5 -186t-184.5 -76q-95 0 -157 61.5t-62 155.5q0 110 75 186.5t181 76.5zM672 1358q-37 0 -62.5 -26t-25.5 -64q0 -33 20 -53.5t53 -20.5q37 0 64 26t27 64q0 33 -20.5 53.5t-55.5 20.5z" />
    <glyph glyph-name="ogonek" unicode="&#x2db;" horiz-adv-x="1024" 
d="M563 86l25 -86q-71 -27 -109.5 -72t-38.5 -80q0 -22 16 -34.5t40 -12.5q66 0 139 52h12l-47 -240q-67 -23 -168 -23q-114 0 -178 46.5t-64 125.5q0 49 17 91t57.5 85t115.5 80.5t183 67.5z" />
    <glyph glyph-name="tilde" unicode="&#x2dc;" horiz-adv-x="1024" 
d="M1036 1462l-39 -262q-36 -50 -89 -78t-109 -28q-85 0 -176 49q-67 37 -113 37q-59 0 -113 -31t-94 -88h-12l37 262q38 51 90.5 79t109.5 28q79 0 174 -50q70 -37 113 -37q122 0 209 119h12z" />
    <glyph glyph-name="hungarumlaut" unicode="&#x2dd;" horiz-adv-x="1024" 
d="M242 1100l288 352h342l-331 -352h-299zM664 1100l288 352h342l-333 -352h-297z" />
    <glyph glyph-name="uni0394" unicode="&#x394;" horiz-adv-x="1521" 
d="M-72 0l822 1360h362l293 -1360h-1477zM965 332l-103 592h-4l-336 -592h443z" />
    <glyph glyph-name="uni03A9" unicode="&#x3a9;" horiz-adv-x="1576" 
d="M1452 332l-63 -332h-586l61 315q285 179 285 449q0 129 -81.5 207t-219.5 78q-167 0 -279 -111t-112 -281q0 -204 190 -342l-61 -315h-586l63 332h248v4q-104 54 -161.5 154.5t-57.5 230.5q0 191 97.5 341.5t274 234t402.5 83.5q298 0 483 -152.5t185 -400.5
q0 -162 -78 -293t-215 -198v-4h211z" />
    <glyph glyph-name="uni03BC" unicode="&#x3bc;" horiz-adv-x="1155" 
d="M946 0h-270l12 109h-4q-105 -129 -283 -129q-21 0 -57 4l-72 -373h-327l264 1356h328l-107 -541q-4 -16 -4 -47q0 -109 102 -109q70 0 118 47.5t63 126.5l98 523h328z" />
    <glyph glyph-name="pi" unicode="&#x3c0;" horiz-adv-x="1247" 
d="M1110 688l-133 -688h-328l133 688h-239l-133 -688h-328l133 688h-143l55 279h1182l-56 -279h-143z" />
    <glyph glyph-name="uni1E02" unicode="&#x1e02;" horiz-adv-x="1339" 
d="M1102 678v-4q160 -78 160 -262q0 -198 -133.5 -305t-397.5 -107h-690l264 1360h569q224 0 341.5 -87.5t117.5 -256.5q0 -255 -231 -338zM575 827h213q166 0 166 121q0 80 -116 80h-224zM477 332h273q141 0 141 117q0 83 -141 83h-234zM889 1833q82 0 130 -47.5t48 -126.5
q0 -95 -60 -155t-149 -60q-82 0 -130 47.5t-48 124.5q0 96 59.5 156.5t149.5 60.5z" />
    <glyph glyph-name="uni1E03" unicode="&#x1e03;" horiz-adv-x="1196" 
d="M717 987q189 0 306.5 -126t117.5 -324q0 -154 -67.5 -282t-185 -201.5t-257.5 -73.5q-227 0 -299 147h-4l-35 -127h-277l279 1434h328l-101 -510h4q85 63 191 63zM592 270q93 0 155 71t62 179q0 80 -44.5 128t-119.5 48q-93 0 -155 -71t-62 -179q0 -80 44.5 -128
t119.5 -48zM526 1896q83 0 131 -47.5t48 -126.5q0 -95 -60 -155t-149 -60q-82 0 -130.5 47.5t-48.5 124.5q0 96 59.5 156.5t149.5 60.5z" />
    <glyph glyph-name="uni1E0A" unicode="&#x1e0a;" horiz-adv-x="1476" 
d="M305 1360h500q316 0 485.5 -150.5t169.5 -427.5q0 -373 -210 -577.5t-593 -204.5h-616zM1083 750q0 278 -331 278h-138l-137 -696h187q203 0 311 108t108 310zM928 1833q82 0 130 -47.5t48 -126.5q0 -95 -60 -155t-149 -60q-82 0 -130 47.5t-48 124.5q0 96 59.5 156.5
t149.5 60.5z" />
    <glyph glyph-name="uni1E0B" unicode="&#x1e0b;" horiz-adv-x="1196" 
d="M991 0h-266l8 102h-4q-101 -122 -250 -122q-189 0 -306.5 126t-117.5 324q0 154 67.5 282t185 201.5t257.5 73.5q185 0 269 -100h4l104 547h328zM551 270q93 0 155 71t62 179q0 80 -44.5 128t-119.5 48q-93 0 -155 -71t-62 -179q0 -80 44.5 -128t119.5 -48zM1174 1896
q82 0 130 -47.5t48 -126.5q0 -95 -60 -155t-149 -60q-82 0 -130 47.5t-48 124.5q0 96 59.5 156.5t149.5 60.5z" />
    <glyph glyph-name="uni1E1E" unicode="&#x1e1e;" horiz-adv-x="1228" 
d="M571 813h512l-63 -332h-512l-94 -481h-373l264 1360h1032l-63 -332h-660zM889 1833q82 0 130 -47.5t48 -126.5q0 -95 -60 -155t-149 -60q-82 0 -130 47.5t-48 124.5q0 96 59.5 156.5t149.5 60.5z" />
    <glyph glyph-name="uni1E1F" unicode="&#x1e1f;" horiz-adv-x="788" 
d="M739 1454q139 0 222 -39l-58 -289h-12q-59 37 -135 37q-57 0 -94.5 -31.5t-47.5 -89.5l-14 -75h254l-55 -279h-254l-133 -688h-328l133 688h-149l55 279h149l19 100q77 387 448 387zM690 1896q82 0 130 -47.5t48 -126.5q0 -95 -60 -155t-149 -60q-82 0 -130 47.5
t-48 124.5q0 96 59.5 156.5t149.5 60.5z" />
    <glyph glyph-name="uni1E40" unicode="&#x1e40;" horiz-adv-x="1957" 
d="M1729 0h-373l178 915h-4l-498 -915h-311l-141 903h-5l-174 -903h-360l264 1360h543l121 -825h4l440 825h580zM1219 1833q82 0 130 -47.5t48 -126.5q0 -95 -60 -155t-149 -60q-82 0 -130 47.5t-48 124.5q0 96 59.5 156.5t149.5 60.5z" />
    <glyph glyph-name="uni1E41" unicode="&#x1e41;" horiz-adv-x="1697" 
d="M1327 987q148 0 227.5 -80.5t79.5 -224.5q0 -54 -12 -115l-111 -567h-327l106 553q4 16 4 45q0 47 -24 72.5t-70 25.5q-69 0 -111.5 -48t-62.5 -152l-96 -496h-328l105 541q6 30 6 55q0 100 -95 100q-132 0 -167 -174l-103 -522h-328l189 967h270l-12 -111h4
q101 131 274 131q91 0 159 -37t102 -106h4q105 143 317 143zM1026 1456q82 0 130 -47.5t48 -126.5q0 -95 -60 -155t-149 -60q-82 0 -130 47.5t-48 124.5q0 96 59.5 156.5t149.5 60.5z" />
    <glyph glyph-name="uni1E56" unicode="&#x1e56;" horiz-adv-x="1327" 
d="M305 1360h567q237 0 361.5 -103t124.5 -299q0 -262 -147 -397t-435 -135h-280l-82 -426h-373zM981 920q0 57 -38 82.5t-120 25.5h-209l-53 -270h230q98 0 144 40t46 122zM909 1833q82 0 130 -47.5t48 -126.5q0 -95 -59.5 -155t-148.5 -60q-82 0 -130.5 47.5t-48.5 124.5
q0 96 59.5 156.5t149.5 60.5z" />
    <glyph glyph-name="uni1E57" unicode="&#x1e57;" horiz-adv-x="1196" 
d="M717 987q189 0 306.5 -126t117.5 -324q0 -154 -67.5 -282t-185 -201.5t-257.5 -73.5q-184 0 -266 98h-5l-92 -467h-327l264 1356h270l-10 -101h4q102 121 248 121zM592 270q93 0 155 71t62 179q0 80 -44.5 128t-119.5 48q-93 0 -155 -71t-62 -179q0 -80 44.5 -128
t119.5 -48zM791 1456q82 0 130 -47.5t48 -126.5q0 -95 -60 -155t-149 -60q-82 0 -130 47.5t-48 124.5q0 96 59.5 156.5t149.5 60.5z" />
    <glyph glyph-name="uni1E60" unicode="&#x1e60;" horiz-adv-x="1220" 
d="M760 1380q139 0 275.5 -30.5t189.5 -73.5l-70 -358h-16q-124 139 -406 139q-98 0 -152.5 -29.5t-54.5 -83.5q0 -42 44.5 -65t162.5 -35q230 -23 334 -114t104 -257q0 -238 -154.5 -365.5t-443.5 -127.5q-178 0 -321.5 30.5t-224.5 87.5l69 367h17q170 -162 467 -162
q219 0 219 113q0 40 -46.5 64.5t-162.5 35.5q-230 23 -334 111t-104 250q0 241 158.5 372t449.5 131zM852 1833q82 0 130 -47.5t48 -126.5q0 -95 -60 -155t-149 -60q-82 0 -130 47.5t-48 124.5q0 96 59.5 156.5t149.5 60.5z" />
    <glyph glyph-name="uni1E61" unicode="&#x1e61;" horiz-adv-x="905" 
d="M530 987q98 0 194.5 -20.5t143.5 -51.5l-53 -272h-12q-88 88 -277 88q-64 0 -100.5 -19t-36.5 -53q0 -21 27 -33t96 -16q166 -10 242.5 -76.5t76.5 -191.5q0 -175 -110.5 -268.5t-317.5 -93.5q-265 0 -399 79l55 287h13q55 -57 133.5 -82.5t195.5 -25.5q63 0 98.5 18.5
t35.5 52.5q0 26 -29 40t-107 20q-162 12 -235.5 74.5t-73.5 179.5q0 169 118 266.5t322 97.5zM614 1456q83 0 131 -47.5t48 -126.5q0 -95 -60 -155t-149 -60q-82 0 -130 47.5t-48 124.5q0 96 59 156.5t149 60.5z" />
    <glyph glyph-name="uni1E6A" unicode="&#x1e6a;" horiz-adv-x="1232" 
d="M911 1028l-200 -1028h-373l201 1028h-379l63 332h1127l-64 -332h-375zM856 1833q82 0 130 -47.5t48 -126.5q0 -95 -60 -155t-149 -60q-82 0 -130 47.5t-48 124.5q0 96 59.5 156.5t149.5 60.5z" />
    <glyph glyph-name="uni1E6B" unicode="&#x1e6b;" horiz-adv-x="827" 
d="M547 688l-60 -301q-4 -24 -4 -33q0 -84 95 -84q81 0 141 60h12l-65 -328q-72 -22 -181 -22q-167 0 -252.5 74.5t-85.5 217.5q0 48 13 115l57 301h-149l55 279h158l92 274h280l-53 -274h254l-55 -279h-252zM580 1718q82 0 130 -47.5t48 -126.5q0 -95 -60 -155t-149 -60
q-82 0 -130 47.5t-48 124.5q0 96 59.5 156.5t149.5 60.5z" />
    <glyph glyph-name="Wgrave" unicode="&#x1e80;" horiz-adv-x="2076" 
d="M1548 0h-379l-77 760h-5l-366 -760h-379l-139 1360h379l67 -807h4l391 807h316l82 -811h4l379 811h393zM1102 1477l-199 352h324l155 -352h-280z" />
    <glyph glyph-name="wgrave" unicode="&#x1e81;" horiz-adv-x="1589" 
d="M1171 0h-303l-63 524h-4l-260 -524h-303l-129 967h331l37 -543h4l273 543h260l67 -547h4l244 547h348zM784 1100l-198 352h323l156 -352h-281z" />
    <glyph glyph-name="Wacute" unicode="&#x1e82;" horiz-adv-x="2076" 
d="M1548 0h-379l-77 760h-5l-366 -760h-379l-139 1360h379l67 -807h4l391 807h316l82 -811h4l379 811h393zM1059 1477l289 352h358l-332 -352h-315z" />
    <glyph glyph-name="wacute" unicode="&#x1e83;" horiz-adv-x="1589" 
d="M1171 0h-303l-63 524h-4l-260 -524h-303l-129 967h331l37 -543h4l273 543h260l67 -547h4l244 547h348zM741 1100l289 352h359l-332 -352h-316z" />
    <glyph glyph-name="Wdieresis" unicode="&#x1e84;" horiz-adv-x="2076" 
d="M1548 0h-379l-77 760h-5l-366 -760h-379l-139 1360h379l67 -807h4l391 807h316l82 -811h4l379 811h393zM1053 1817q74 0 117.5 -43.5t43.5 -116.5q0 -86 -52 -141.5t-136 -55.5q-74 0 -118 44.5t-44 115.5q0 86 53.5 141.5t135.5 55.5zM1501 1817q73 0 116.5 -44
t43.5 -116q0 -85 -52.5 -141t-133.5 -56q-75 0 -119.5 44t-44.5 116q0 86 53.5 141.5t136.5 55.5z" />
    <glyph glyph-name="wdieresis" unicode="&#x1e85;" horiz-adv-x="1589" 
d="M1171 0h-303l-63 524h-4l-260 -524h-303l-129 967h331l37 -543h4l273 543h260l67 -547h4l244 547h348zM735 1440q75 0 118.5 -44t43.5 -116q0 -86 -52 -141.5t-136 -55.5q-74 0 -118 44.5t-44 115.5q0 86 53 141.5t135 55.5zM1184 1440q73 0 116 -44t43 -116
q0 -85 -52.5 -141t-133.5 -56q-75 0 -119.5 44.5t-44.5 115.5q0 86 54 141.5t137 55.5z" />
    <glyph glyph-name="Ygrave" unicode="&#x1ef2;" horiz-adv-x="1466" 
d="M827 -2h-376l106 551l-379 811h428l197 -467l375 467h458l-704 -825zM797 1477l-199 352h324l155 -352h-280z" />
    <glyph glyph-name="ygrave" unicode="&#x1ef3;" horiz-adv-x="1056" 
d="M358 -389h-342l258 426l-165 930h337l64 -555h4l281 555h350zM518 1100l-199 352h324l156 -352h-281z" />
    <glyph glyph-name="uni2007" unicode="&#x2007;" horiz-adv-x="1331" 
 />
    <glyph glyph-name="figuredash" unicode="&#x2012;" horiz-adv-x="1331" 
d="M113 535l55 290h1126l-55 -290h-1126z" />
    <glyph glyph-name="endash" unicode="&#x2013;" horiz-adv-x="1024" 
d="M90 418l55 291h820l-56 -291h-819z" />
    <glyph glyph-name="emdash" unicode="&#x2014;" horiz-adv-x="2048" 
d="M90 418l55 291h1844l-56 -291h-1843z" />
    <glyph glyph-name="quoteleft" unicode="&#x2018;" horiz-adv-x="593" 
d="M745 1360l-339 -676h-345l412 676h272z" />
    <glyph glyph-name="quoteright" unicode="&#x2019;" horiz-adv-x="593" 
d="M57 684l340 676h344l-411 -676h-273z" />
    <glyph glyph-name="quotesinglbase" unicode="&#x201a;" horiz-adv-x="593" 
d="M-203 -315l340 675h344l-411 -675h-273z" />
    <glyph glyph-name="quotedblleft" unicode="&#x201c;" horiz-adv-x="1054" 
d="M1206 1360l-340 -676h-344l412 676h272zM745 1360l-339 -676h-345l412 676h272z" />
    <glyph glyph-name="quotedblright" unicode="&#x201d;" horiz-adv-x="1054" 
d="M57 684l340 676h344l-411 -676h-273zM518 684l340 676h344l-411 -676h-273z" />
    <glyph glyph-name="quotedblbase" unicode="&#x201e;" horiz-adv-x="1054" 
d="M258 -315l340 675h344l-412 -675h-272zM-203 -315l340 675h344l-411 -675h-273z" />
    <glyph glyph-name="dagger" unicode="&#x2020;" horiz-adv-x="995" 
d="M713 911l-144 -735h-262l144 735h-277l45 230h275l57 293h262l-57 -293h274l-45 -230h-272z" />
    <glyph glyph-name="daggerdbl" unicode="&#x2021;" horiz-adv-x="995" 
d="M670 698h274l-43 -229h-274l-58 -293h-262l58 293h-275l43 229h275l43 213h-277l45 230h275l57 293h262l-57 -293h274l-45 -230h-272z" />
    <glyph glyph-name="bullet" unicode="&#x2022;" horiz-adv-x="1024" 
d="M547 887q134 0 218.5 -85t84.5 -216q0 -149 -98.5 -247.5t-243.5 -98.5q-134 0 -218.5 85t-84.5 216q0 149 98.5 247.5t243.5 98.5z" />
    <glyph glyph-name="ellipsis" unicode="&#x2026;" horiz-adv-x="2048" 
d="M1645 381q81 0 131.5 -50.5t50.5 -129.5q0 -93 -64.5 -157t-154.5 -64q-81 0 -132 50.5t-51 129.5q0 93 65 157t155 64zM983 381q81 0 131.5 -50.5t50.5 -129.5q0 -93 -64.5 -157t-154.5 -64q-81 0 -131.5 50.5t-50.5 129.5q0 93 64.5 157t154.5 64zM322 381
q81 0 131.5 -50.5t50.5 -129.5q0 -93 -64.5 -157t-154.5 -64q-81 0 -132 50.5t-51 129.5q0 93 65 157t155 64z" />
    <glyph glyph-name="perthousand" unicode="&#x2030;" horiz-adv-x="2279" 
d="M1901 653q134 0 207 -76.5t73 -205.5q0 -52 -10.5 -104t-36 -104.5t-64 -92.5t-99.5 -65t-136 -25q-134 0 -207.5 76.5t-73.5 205.5q0 52 11 104t37.5 104.5t65.5 92.5t99 65t134 25zM1892 469q-41 0 -72 -35t-44 -78t-13 -82q0 -51 22.5 -80.5t59.5 -29.5
q52 0 89.5 55.5t37.5 138.5q0 51 -21.5 81t-58.5 30zM520 1380q134 0 207.5 -76.5t73.5 -205.5q0 -52 -10.5 -104t-36 -104.5t-64 -92.5t-99.5 -65t-136 -25q-134 0 -207.5 76.5t-73.5 205.5q0 66 19 131t57.5 125t108.5 97.5t161 37.5zM123 0l1137 1360h262l-1137 -1360
h-262zM512 1196q-41 0 -72 -35t-44 -78t-13 -82q0 -51 22.5 -80.5t59.5 -29.5q52 0 89.5 55.5t37.5 138.5q0 51 -21.5 81t-58.5 30zM1190 653q134 0 207 -76.5t73 -205.5q0 -52 -10.5 -104t-36 -104.5t-64 -92.5t-99.5 -65t-136 -25q-134 0 -207 76.5t-73 205.5q0 66 19 131
t57.5 125t108.5 97.5t161 37.5zM1182 469q-41 0 -72 -35t-44 -78t-13 -82q0 -51 22.5 -80.5t59.5 -29.5q52 0 89.5 55.5t37.5 138.5q0 51 -21.5 81t-58.5 30z" />
    <glyph glyph-name="guilsinglleft" unicode="&#x2039;" horiz-adv-x="604" 
d="M338 461l139 -139l-59 -310l-371 461l4 21l549 460l-68 -354z" />
    <glyph glyph-name="guilsinglright" unicode="&#x203a;" horiz-adv-x="604" 
d="M553 473l-549 -461l68 355l194 139l-139 139l59 309l371 -460z" />
    <glyph glyph-name="fraction" unicode="&#x2044;" horiz-adv-x="331" 
d="M-498 0l1145 1360h258l-1145 -1360h-258z" />
    <glyph glyph-name="zerosuperior" unicode="&#x2070;" 
d="M618 1647q141 0 218 -81.5t77 -232.5q0 -97 -21.5 -188.5t-67 -175.5t-128 -135.5t-192.5 -51.5q-141 0 -217 81.5t-76 232.5q0 74 12 147t42.5 147t75.5 130t116.5 91.5t160.5 35.5zM604 1436q-42 0 -75.5 -38.5t-51 -94t-26.5 -107t-9 -88.5q0 -115 76 -115
q42 0 75.5 38.5t51 94t26.5 107t9 88.5q0 115 -76 115z" />
    <glyph glyph-name="foursuperior" unicode="&#x2074;" 
d="M909 1141l-41 -211h-94l-26 -135h-232l27 135h-383l39 200l467 504h245l-96 -493h94zM625 1346h-4l-195 -205h158z" />
    <glyph glyph-name="fivesuperior" unicode="&#x2075;" 
d="M520 1423l-16 -84q23 2 78 2q133 0 206.5 -67.5t73.5 -186.5q0 -145 -93.5 -225t-258.5 -80q-196 0 -307 54l41 223h12q98 -66 246 -66q59 0 92 21.5t33 60.5q0 68 -156 68q-93 0 -180 -19h-12l98 510h541l-41 -211h-357z" />
    <glyph glyph-name="sixsuperior" unicode="&#x2076;" 
d="M621 1352q118 0 185.5 -66t67.5 -176q0 -148 -89 -238t-236 -90q-152 0 -239 87t-87 241q0 71 16 143.5t51.5 143.5t87 126.5t129.5 89.5t171 34q150 0 229 -62l-43 -215h-12q-60 66 -168 66q-132 0 -192 -113l4 -2q48 31 125 31zM547 993q42 0 68 27t26 70q0 33 -21 52
t-55 19q-63 0 -110 -47q-2 -10 -2 -29q0 -43 25 -67.5t69 -24.5z" />
    <glyph glyph-name="sevensuperior" unicode="&#x2077;" 
d="M475 795h-289l478 628h-373l41 211h637l-41 -217z" />
    <glyph glyph-name="eightsuperior" unicode="&#x2078;" 
d="M786 1210v-4q88 -59 88 -166q0 -123 -96.5 -190.5t-275.5 -67.5q-152 0 -239 63.5t-87 172.5q0 163 168 213v4q-72 59 -72 156q0 120 91 188t253 68q143 0 225.5 -64t82.5 -174q0 -145 -138 -199zM584 1309q100 0 100 73q0 58 -84 58q-46 0 -71 -19.5t-25 -54.5
q0 -57 80 -57zM518 993q125 0 125 76q0 55 -106 55q-59 0 -91 -19t-32 -54q0 -58 104 -58z" />
    <glyph glyph-name="ninesuperior" unicode="&#x2079;" 
d="M504 1077q-119 0 -186.5 66t-67.5 176q0 148 89 238t236 90q152 0 239 -87t87 -241q0 -71 -16 -143.5t-51.5 -143.5t-87 -126.5t-129.5 -89.5t-171 -34q-150 0 -229 62l43 215h12q60 -66 168 -66q133 0 193 113l-4 2q-48 -31 -125 -31zM578 1436q-43 0 -69 -27t-26 -70
q0 -33 21 -52t55 -19q64 0 111 47q2 10 2 28q0 43 -25 68t-69 25z" />
    <glyph glyph-name="zeroinferior" unicode="&#x2080;" 
d="M389 463q141 0 218 -81.5t77 -231.5q0 -76 -13 -150t-43.5 -147.5t-76 -129t-117.5 -90t-160 -34.5q-141 0 -216.5 81t-75.5 232q0 74 12 147t42.5 147t75.5 130t116.5 91.5t160.5 35.5zM375 252q-42 0 -75.5 -38.5t-51 -94t-26.5 -107t-9 -88.5q0 -114 76 -114
q42 0 75.5 38t51 94t26.5 107t9 88q0 115 -76 115z" />
    <glyph glyph-name="oneinferior" unicode="&#x2081;" 
d="M485 -389h-231l106 563l-219 -123l45 242l273 158h190z" />
    <glyph glyph-name="twoinferior" unicode="&#x2082;" 
d="M588 -178l-41 -211h-594l43 221l258 180q99 69 133.5 104t34.5 68q0 32 -24.5 50t-69.5 18q-61 0 -132.5 -30t-121.5 -79h-13l52 263q99 57 243 57q143 0 223 -65t80 -183q0 -37 -2.5 -61t-16 -59.5t-39.5 -65.5t-74.5 -69t-118.5 -81l-93 -53v-4h273z" />
    <glyph glyph-name="threeinferior" unicode="&#x2083;" 
d="M541 20v-4q73 -61 73 -161q0 -124 -90 -190t-254 -66q-89 0 -169.5 23t-125.5 59l45 227h13q76 -98 237 -98q115 0 115 77q0 52 -113 52h-92l35 188h92q69 0 99 16t30 54q0 31 -23.5 43t-70.5 12q-61 0 -134 -27t-118 -71h-12l49 252q105 57 252 57q141 0 219 -61.5
t78 -170.5q0 -148 -135 -211z" />
    <glyph glyph-name="fourinferior" unicode="&#x2084;" 
d="M680 -43l-41 -211h-94l-27 -135h-231l26 135h-383l39 201l467 504h246l-96 -494h94zM395 162h-4l-194 -205h157z" />
    <glyph glyph-name="fiveinferior" unicode="&#x2085;" 
d="M291 240l-17 -84q23 2 78 2q133 0 207 -67.5t74 -186.5q0 -145 -93.5 -225t-258.5 -80q-199 0 -308 53l41 223h13q97 -65 245 -65q59 0 92 21t33 60q0 68 -155 68q-98 0 -181 -18h-12l98 510h541l-41 -211h-356z" />
    <glyph glyph-name="sixinferior" unicode="&#x2086;" 
d="M391 168q119 0 186.5 -66t67.5 -176q0 -148 -89 -237.5t-237 -89.5q-152 0 -238.5 86.5t-86.5 240.5q0 71 16 143.5t51.5 143.5t87 126.5t129.5 89.5t171 34q150 0 229 -62l-43 -215h-12q-60 66 -168 66q-133 0 -193 -113l4 -2q48 31 125 31zM317 -190q43 0 69 26.5
t26 69.5q0 33 -21 52t-55 19q-64 0 -111 -47q-2 -10 -2 -28q0 -43 25 -67.5t69 -24.5z" />
    <glyph glyph-name="seveninferior" unicode="&#x2087;" 
d="M246 -389h-289l477 629h-373l41 211h637l-41 -218z" />
    <glyph glyph-name="eightinferior" unicode="&#x2088;" 
d="M557 27v-4q88 -59 88 -166q0 -123 -97 -190.5t-276 -67.5q-152 0 -238.5 63t-86.5 172q0 163 168 213v4q-72 59 -72 156q0 120 91 188t253 68q142 0 224.5 -64t82.5 -174q0 -145 -137 -198zM354 125q101 0 101 74q0 57 -84 57q-46 0 -71.5 -19.5t-25.5 -54.5
q0 -57 80 -57zM289 -190q125 0 125 75q0 56 -107 56q-59 0 -91 -19.5t-32 -54.5q0 -57 105 -57z" />
    <glyph glyph-name="nineinferior" unicode="&#x2089;" 
d="M274 -106q-119 0 -186.5 65.5t-67.5 175.5q0 148 89 238t237 90q152 0 239 -87t87 -241q0 -71 -16 -143t-51.5 -143.5t-87 -126.5t-129.5 -89t-171 -34q-152 0 -229 61l43 215h12q59 -65 168 -65q133 0 192 112l-4 2q-46 -30 -125 -30zM348 252q-43 0 -68.5 -26.5
t-25.5 -69.5q0 -33 21 -52.5t55 -19.5q63 0 110 47q2 10 2 29q0 43 -25 67.5t-69 24.5z" />
    <glyph glyph-name="Euro" unicode="&#x20ac;" horiz-adv-x="1331" 
d="M1030 1380q223 0 346 -96l-63 -334h-17q-102 117 -270 117q-200 0 -305 -164h428l-31 -158h-465q-21 -58 -24 -131h463l-31 -157h-426q44 -164 242 -164q180 0 315 125h16l-71 -367q-121 -71 -338 -71q-237 0 -376 127t-153 350h-159l30 157h135q2 35 25 131h-133l31 158
h151q94 228 270.5 352.5t409.5 124.5z" />
    <glyph glyph-name="uni20B9" unicode="&#x20b9;" horiz-adv-x="1331" 
d="M1341 1182h-251q43 -63 53 -160h168l-35 -178h-148q-35 -155 -139.5 -238t-288.5 -100v-4l418 -502h-432l-434 555l27 154h221q198 0 262 135h-580l35 178h569q-34 129 -231 129h-313l41 209h1093z" />
    <glyph glyph-name="uni2113" unicode="&#x2113;" horiz-adv-x="1083" 
d="M686 260q63 0 129 27.5t115 74.5h12l-68 -344q-89 -38 -249 -38q-164 0 -267 67.5t-129 202.5q-66 -47 -174 -94l43 327q93 42 138 66l90 467q34 173 151.5 268.5t292.5 95.5q153 0 238.5 -77t85.5 -211q0 -70 -15.5 -133.5t-54 -133.5t-101 -137t-160 -141.5
t-228.5 -149.5q3 -66 42 -101.5t109 -35.5zM745 1135q-83 0 -110 -136l-53 -258l4 -2q215 171 215 334q0 62 -56 62z" />
    <glyph glyph-name="uni2117" unicode="&#x2117;" horiz-adv-x="1572" 
d="M641 1038h293q128 0 196 -59.5t68 -171.5q0 -283 -307 -283h-139l-35 -202h-215zM977 793q0 53 -68 53h-104l-21 -129h109q40 0 62 19.5t22 56.5zM879 1380q141 0 262 -48t205.5 -132t132 -202t47.5 -255q0 -212 -99.5 -387t-273 -275.5t-383.5 -100.5
q-189 0 -336.5 81.5t-229 226.5t-81.5 328q0 159 58.5 300.5t159 243t241 161t297.5 59.5zM768 168q156 0 284 75t200.5 206.5t72.5 293.5q0 200 -123 324.5t-321 124.5q-156 0 -284 -75t-200.5 -207t-72.5 -294q0 -200 123 -324t321 -124z" />
    <glyph glyph-name="trademark" unicode="&#x2122;" horiz-adv-x="1599" 
d="M547 1186l-101 -516h-196l100 516h-172l33 174h541l-33 -174h-172zM1538 670h-197l82 424h-4l-215 -424h-168l-51 430h-4l-84 -430h-188l133 690h282l45 -399h5l196 399h301z" />
    <glyph glyph-name="uni2126" unicode="&#x2126;" horiz-adv-x="1576" 
d="M1452 332l-63 -332h-586l61 315q285 179 285 449q0 129 -81.5 207t-219.5 78q-167 0 -279 -111t-112 -281q0 -204 190 -342l-61 -315h-586l63 332h248v4q-104 54 -161.5 154.5t-57.5 230.5q0 191 97.5 341.5t274 234t402.5 83.5q298 0 483 -152.5t185 -400.5
q0 -162 -78 -293t-215 -198v-4h211z" />
    <glyph glyph-name="estimated" unicode="&#x212e;" horiz-adv-x="1622" 
d="M850 1380q150 0 286.5 -55t235.5 -148.5t157 -223.5t58 -273v-16h-1196q-8 0 -8 -9v-385q0 -17 16 -41q86 -98 204.5 -153.5t250.5 -55.5q138 0 261.5 62.5t213.5 171.5h109q-105 -127 -259 -200.5t-329 -73.5q-150 0 -286.5 55.5t-235.5 149t-157 223t-58 272.5t58 273
t157 223.5t235.5 148.5t286.5 55zM854 1339q-131 0 -248 -54t-207 -150q-16 -24 -16 -45v-377q0 -13 8 -13h918q12 0 12 13v385q0 24 -21 45q-89 92 -205 144t-241 52z" />
    <glyph glyph-name="onethird" unicode="&#x2153;" horiz-adv-x="2011" 
d="M342 0l1145 1360h258l-1145 -1360h-258zM1788 410v-4q74 -61 74 -162q0 -124 -90 -190t-254 -66q-89 0 -169.5 23t-125.5 59l45 227h12q76 -98 238 -98q114 0 114 77q0 52 -112 52h-93l35 188h92q69 0 99 16t30 54q0 31 -23.5 43t-70.5 12q-61 0 -134 -27t-118 -71h-12
l49 252q105 57 252 57q141 0 219 -61t78 -170q0 -148 -135 -211zM662 520h-232l107 563l-220 -122l45 241l273 158h190z" />
    <glyph glyph-name="twothirds" unicode="&#x2154;" horiz-adv-x="2011" 
d="M373 0l1145 1360h258l-1145 -1360h-258zM1788 410v-4q74 -61 74 -162q0 -124 -90 -190t-254 -66q-89 0 -169.5 23t-125.5 59l45 227h12q76 -98 238 -98q114 0 114 77q0 52 -112 52h-93l35 188h92q69 0 99 16t30 54q0 31 -23.5 43t-70.5 12q-61 0 -134 -27t-118 -71h-12
l49 252q105 57 252 57q141 0 219 -61t78 -170q0 -148 -135 -211zM764 731l-41 -211h-594l43 221l258 181q99 69 133.5 104t34.5 68q0 67 -94 67q-61 0 -132.5 -29.5t-121.5 -78.5h-12l51 262q99 57 243 57q143 0 223.5 -65t80.5 -183q0 -37 -3 -61t-16.5 -59.5t-39 -65.5
t-74.5 -69t-119 -81l-92 -53v-4h272z" />
    <glyph glyph-name="oneeighth" unicode="&#x215b;" horiz-adv-x="2011" 
d="M342 0l1145 1360h258l-1145 -1360h-258zM1804 416v-4q88 -59 88 -166q0 -123 -96.5 -190.5t-275.5 -67.5q-152 0 -239 63t-87 172q0 163 168 213v4q-72 59 -72 156q0 120 91 188t253 68q143 0 225.5 -64t82.5 -174q0 -144 -138 -198zM1602 514q100 0 100 74q0 57 -84 57
q-46 0 -71 -19.5t-25 -54.5q0 -57 80 -57zM1536 199q125 0 125 75q0 56 -107 56q-58 0 -90 -19.5t-32 -54.5q0 -57 104 -57zM662 520h-232l107 563l-220 -122l45 241l273 158h190z" />
    <glyph glyph-name="threeeighths" unicode="&#x215c;" horiz-adv-x="2011" 
d="M342 0l1145 1360h258l-1145 -1360h-258zM1804 416v-4q88 -59 88 -166q0 -123 -96.5 -190.5t-275.5 -67.5q-152 0 -239 63t-87 172q0 163 168 213v4q-72 59 -72 156q0 120 91 188t253 68q143 0 225.5 -64t82.5 -174q0 -144 -138 -198zM1602 514q100 0 100 74q0 57 -84 57
q-46 0 -71 -19.5t-25 -54.5q0 -57 80 -57zM1536 199q125 0 125 75q0 56 -107 56q-58 0 -90 -19.5t-32 -54.5q0 -57 104 -57zM717 930v-4q74 -61 74 -162q0 -124 -90.5 -190t-254.5 -66q-89 0 -169 23t-125 59l45 227h12q76 -98 237 -98q115 0 115 78q0 27 -26.5 39t-85.5 12
h-93l35 188h92q69 0 99 16t30 54q0 31 -23.5 43t-70.5 12q-61 0 -134 -27t-118 -71h-12l49 252q105 57 252 57q141 0 219 -61t78 -170q0 -148 -135 -211z" />
    <glyph glyph-name="fiveeighths" unicode="&#x215d;" horiz-adv-x="2011" 
d="M342 0l1145 1360h258l-1145 -1360h-258zM1804 416v-4q88 -59 88 -166q0 -123 -96.5 -190.5t-275.5 -67.5q-152 0 -239 63t-87 172q0 163 168 213v4q-72 59 -72 156q0 120 91 188t253 68q143 0 225.5 -64t82.5 -174q0 -144 -138 -198zM1602 514q100 0 100 74q0 57 -84 57
q-46 0 -71 -19.5t-25 -54.5q0 -57 80 -57zM1536 199q125 0 125 75q0 56 -107 56q-58 0 -90 -19.5t-32 -54.5q0 -57 104 -57zM467 1149l-16 -84q23 2 77 2q133 0 207 -67.5t74 -186.5q0 -145 -93.5 -225t-258.5 -80q-198 0 -307 53l40 223h13q97 -65 246 -65q59 0 91.5 21.5
t32.5 60.5q0 67 -155 67q-98 0 -180 -18h-13l99 510h540l-41 -211h-356z" />
    <glyph glyph-name="seveneighths" unicode="&#x215e;" horiz-adv-x="2011" 
d="M264 0l1145 1360h258l-1145 -1360h-258zM1804 416v-4q88 -59 88 -166q0 -123 -96.5 -190.5t-275.5 -67.5q-152 0 -239 63t-87 172q0 163 168 213v4q-72 59 -72 156q0 120 91 188t253 68q143 0 225.5 -64t82.5 -174q0 -144 -138 -198zM1602 514q100 0 100 74q0 57 -84 57
q-46 0 -71 -19.5t-25 -54.5q0 -57 80 -57zM1536 199q125 0 125 75q0 56 -107 56q-58 0 -90 -19.5t-32 -54.5q0 -57 104 -57zM422 520h-289l477 629h-372l41 211h636l-41 -217z" />
    <glyph glyph-name="partialdiff" unicode="&#x2202;" horiz-adv-x="1206" 
d="M780 1454q196 0 304 -120.5t108 -332.5q0 -76 -15 -166t-47 -188.5t-77 -193.5t-108.5 -180.5t-137.5 -150.5t-169 -103.5t-198 -38.5q-172 0 -270 99.5t-98 270.5q0 155 73 300t192.5 234t248.5 89q76 0 140.5 -33.5t100.5 -89.5h4q11 51 11 100q0 191 -185 191
q-54 0 -130 -28.5t-138 -82.5h-16l65 354q134 70 342 70zM500 291q61 0 126 76.5t119 203.5q-6 49 -35.5 80t-66.5 31q-86 0 -153.5 -94.5t-67.5 -204.5q0 -92 78 -92z" />
    <glyph glyph-name="uni2206" unicode="&#x2206;" horiz-adv-x="1521" 
d="M-72 0l822 1360h362l293 -1360h-1477zM965 332l-103 592h-4l-336 -592h443z" />
    <glyph glyph-name="product" unicode="&#x220f;" horiz-adv-x="1409" 
d="M1133 -266h-373l252 1294h-402l-252 -1294h-372l315 1626h1147z" />
    <glyph glyph-name="summation" unicode="&#x2211;" horiz-adv-x="1216" 
d="M1272 1026h-617l361 -512l-475 -448h544l-63 -332h-1077l61 315l533 498l-340 495l61 316h1077z" />
    <glyph glyph-name="minus" unicode="&#x2212;" horiz-adv-x="1331" 
d="M90 469l55 291h1147l-55 -291h-1147z" />
    <glyph glyph-name="uni2219" unicode="&#x2219;" horiz-adv-x="593" 
d="M352 881q81 0 132 -51t51 -130q0 -93 -65 -157t-155 -64q-81 0 -131.5 50.5t-50.5 129.5q0 93 64.5 157.5t154.5 64.5z" />
    <glyph glyph-name="radical" unicode="&#x221a;" horiz-adv-x="1144" 
d="M614 -143h-301l-73 368h-191l57 291h353l39 -262h4l497 1147h304z" />
    <glyph glyph-name="infinity" unicode="&#x221e;" horiz-adv-x="1443" 
d="M1077 1036q148 0 232 -83t84 -228q0 -186 -99.5 -293.5t-269.5 -107.5q-194 0 -295 157h-4q-115 -157 -283 -157q-147 0 -231 83t-84 228q0 186 99.5 293.5t269.5 107.5q190 0 290 -164h5q63 85 131.5 124.5t154.5 39.5zM469 545q100 0 178 108q-38 91 -73.5 126.5
t-88.5 35.5q-57 0 -93 -44.5t-36 -115.5q0 -51 31 -80.5t82 -29.5zM1034 545q57 0 94 44t37 111q0 53 -31 84t-83 31q-101 0 -181 -113q38 -86 75.5 -121.5t88.5 -35.5z" />
    <glyph glyph-name="integral" unicode="&#x222b;" horiz-adv-x="806" 
d="M139 -27l223 1145q67 336 375 336q117 0 197 -41l-55 -283h-13q-33 33 -90 33q-75 0 -94 -92l-223 -1145q-67 -336 -375 -336q-117 0 -197 41l56 283h12q33 -33 90 -33q75 0 94 92z" />
    <glyph glyph-name="approxequal" unicode="&#x2248;" horiz-adv-x="1331" 
d="M1182 1151l217 -162q-122 -179 -222.5 -253t-224.5 -74q-161 0 -301 124q-45 39 -68.5 51.5t-50.5 12.5q-40 0 -92 -46.5t-129 -152.5l-217 162q122 180 222.5 254t224.5 74q158 0 299 -125q45 -39 68 -51.5t50 -12.5q40 0 92.5 46.5t131.5 152.5zM1071 578l217 -162
q-122 -180 -222 -254t-224 -74q-160 0 -301 125q-44 39 -68 51t-51 12q-40 0 -92 -46t-129 -152l-217 162q122 179 222 253t224 74q158 0 299 -125q44 -39 68 -51t51 -12q40 0 92 46t131 153z" />
    <glyph glyph-name="notequal" unicode="&#x2260;" horiz-adv-x="1331" 
d="M786 494h435l-56 -281h-563l-139 -213h-307l139 213h-236l56 281h364l158 241h-475l53 281h606l140 213h307l-140 -213h193l-53 -281h-324z" />
    <glyph glyph-name="lessequal" unicode="&#x2264;" horiz-adv-x="1331" 
d="M686 786l539 -174l-60 -307l-995 369l47 250l1141 370l-64 -327l-608 -176v-5zM1161 291l-57 -291h-1065l57 291h1065z" />
    <glyph glyph-name="greaterequal" unicode="&#x2265;" horiz-adv-x="1331" 
d="M1237 674l-1137 -369l62 330l608 174v4l-539 176l58 303l995 -368zM1161 291l-57 -291h-1065l57 291h1065z" />
    <glyph glyph-name="lozenge" unicode="&#x25ca;" horiz-adv-x="1314" 
d="M692 0h-250l-325 680l581 680h250l328 -680zM780 1049l-329 -385l159 -353l330 385z" />
    <glyph glyph-name="uniE069" unicode="&#xe069;" horiz-adv-x="548" 
d="M440 1456q82 0 130 -47.5t48 -126.5q0 -95 -59.5 -155t-148.5 -60q-82 0 -130.5 47.5t-48.5 124.5q0 96 59.5 156.5t149.5 60.5zM16 0l189 967h327l-188 -967h-328z" />
    <glyph glyph-name="uniEF01" unicode="&#xef01;" horiz-adv-x="1024" 
d="M-25 -430l252 311h342l-295 -311h-299z" />
    <glyph glyph-name="uniEF02" unicode="&#xef02;" horiz-adv-x="1024" 
d="M430 1026l129 408h330l-211 -408h-248z" />
    <glyph glyph-name="uniF8FF" unicode="&#xf8ff;" horiz-adv-x="2048" 
d="M899 430v107h-2l-35 -160h-47l57 258h56v-135h2l57 135h64l-58 -258h-49l35 160h-2l-45 -107h-33zM287 584l-35 -158q-8 -26 -19.5 -37.5t-31.5 -11.5h-95l58 258h88q37 0 37 -31q0 -8 -2 -20zM600 377h-49l12 53h-35l-14 -53h-49l47 211q9 47 53 47h45q37 0 37 -31
q0 -8 -2 -20zM1167 377h-49l12 53h-34l-15 -53h-49l47 211q9 47 54 47h45q36 0 36 -31q0 -8 -2 -20zM821 584l-22 -107q-8 -35 -27 -41l12 -59h-47l-8 53h-27l-12 -53h-49l57 258h88q37 0 37 -31q0 -8 -2 -20zM1731 584l-25 -109q-9 -45 -49 -45h-45l-13 -53h-49l58 258h88
q37 0 37 -31q0 -8 -2 -20zM477 635l-57 -258h-49l12 53h-37l-12 -53h-49l57 258h49l-37 -166h37l37 166h49zM1440 635h49l-35 -154q-1 -7 0.5 -9.5t7.5 -2.5h15q9 0 12 8l35 158h49l-35 -160q-9 -45 -49 -45l-29 -53h-49l29 53q-37 0 -37 31q0 10 2 20zM1845 496l-8 -39h-53
l-8 -41h67l-10 -39h-115l58 258h116l-10 -39h-65l-23 -100h51zM1374 596l-49 -219h-49l49 219h-39l8 39h125l-8 -39h-37zM205 596l-41 -180h26q10 0 13 10l35 158q2 12 -7 12h-26zM1659 477l22 107q1 7 -0.5 9.5t-7.5 2.5h-24l-29 -127h27q9 0 12 8zM750 477l22 107
q1 7 -0.5 9.5t-7.5 2.5h-25l-28 -127h26q10 0 13 8zM1155 596h-14q-11 0 -13 -10l-26 -117h37l24 115q1 7 -0.5 9.5t-7.5 2.5zM588 596h-15q-9 0 -12 -10l-26 -117h36l25 115q1 7 -0.5 9.5t-7.5 2.5zM2021 682v-61h-12v51h-2l-14 -41h-8l-15 41h-2v-51h-10v61h20l11 -33h2
l10 33h20zM1950 682v-10h-19v-51h-12v51h-16v10h47z" />
    <glyph glyph-name="zero.numr" 
d="M565 1372q141 0 218 -81.5t77 -231.5q0 -97 -21.5 -188.5t-67 -175.5t-128 -135.5t-192.5 -51.5q-141 0 -217 81t-76 232q0 74 12 147t42.5 147t75.5 130t116.5 91.5t160.5 35.5zM551 1161q-42 0 -75.5 -38t-51 -94t-26.5 -107t-9 -88q0 -115 76 -115q42 0 75.5 38.5
t51 94t26.5 107t9 88.5q0 114 -76 114z" />
    <glyph glyph-name="one.numr" 
d="M662 520h-232l107 563l-220 -122l45 241l273 158h190z" />
    <glyph glyph-name="two.numr" 
d="M764 731l-41 -211h-594l43 221l258 181q99 69 133.5 104t34.5 68q0 67 -94 67q-61 0 -132.5 -29.5t-121.5 -78.5h-12l51 262q99 57 243 57q143 0 223.5 -65t80.5 -183q0 -37 -3 -61t-16.5 -59.5t-39 -65.5t-74.5 -69t-119 -81l-92 -53v-4h272z" />
    <glyph glyph-name="three.numr" 
d="M717 930v-4q74 -61 74 -162q0 -124 -90.5 -190t-254.5 -66q-89 0 -169 23t-125 59l45 227h12q76 -98 237 -98q115 0 115 78q0 27 -26.5 39t-85.5 12h-93l35 188h92q69 0 99 16t30 54q0 31 -23.5 43t-70.5 12q-61 0 -134 -27t-118 -71h-12l49 252q105 57 252 57
q141 0 219 -61t78 -170q0 -148 -135 -211z" />
    <glyph glyph-name="four.numr" 
d="M856 866l-41 -211h-94l-27 -135h-231l26 135h-383l39 201l467 504h246l-96 -494h94zM571 1071h-4l-194 -205h157z" />
    <glyph glyph-name="five.numr" 
d="M467 1149l-16 -84q23 2 77 2q133 0 207 -67.5t74 -186.5q0 -145 -93.5 -225t-258.5 -80q-198 0 -307 53l40 223h13q97 -65 246 -65q59 0 91.5 21.5t32.5 60.5q0 67 -155 67q-98 0 -180 -18h-13l99 510h540l-41 -211h-356z" />
    <glyph glyph-name="six.numr" 
d="M567 1077q119 0 186.5 -65.5t67.5 -175.5q0 -148 -89 -238t-236 -90q-152 0 -239 87t-87 241q0 71 16 143t51.5 143.5t87 126.5t129.5 89t171 34q152 0 229 -61l-43 -215h-12q-59 65 -168 65q-134 0 -193 -112l4 -2q46 30 125 30zM494 719q43 0 68.5 26.5t25.5 69.5
q0 33 -21 52.5t-55 19.5q-64 0 -111 -47q-2 -10 -2 -29q0 -43 25.5 -67.5t69.5 -24.5z" />
    <glyph glyph-name="seven.numr" 
d="M422 520h-289l477 629h-372l41 211h636l-41 -217z" />
    <glyph glyph-name="eight.numr" 
d="M733 936v-4q88 -59 88 -166q0 -123 -96.5 -190.5t-275.5 -67.5q-152 0 -239 63t-87 172q0 163 168 213v5q-72 59 -72 155q0 120 91 188t253 68q143 0 225 -63.5t82 -173.5q0 -146 -137 -199zM530 1034q101 0 101 74q0 57 -84 57q-46 0 -71 -19t-25 -54q0 -27 20 -42.5
t59 -15.5zM465 719q125 0 125 76q0 55 -107 55q-59 0 -91 -19.5t-32 -54.5q0 -57 105 -57z" />
    <glyph glyph-name="nine.numr" 
d="M451 803q-119 0 -186.5 65.5t-67.5 175.5q0 148 89 238t236 90q152 0 239 -87t87 -241q0 -71 -16 -143t-51.5 -143.5t-87 -126.5t-129.5 -89t-171 -34q-152 0 -229 61l43 215h12q59 -65 168 -65q134 0 193 112l-5 3q-48 -31 -124 -31zM524 1161q-43 0 -68.5 -26.5
t-25.5 -69.5q0 -33 21 -52.5t55 -19.5q63 0 110 47q2 10 2 29q0 43 -25 67.5t-69 24.5z" />
    <glyph glyph-name="zero.dnom" 
d="M465 852q141 0 218 -81.5t77 -231.5q0 -76 -13 -150t-43.5 -147.5t-76 -129t-117.5 -90t-160 -34.5q-141 0 -217 81t-76 232q0 74 12.5 147t42.5 147t75.5 130t117 91.5t160.5 35.5zM451 641q-42 0 -75.5 -38.5t-51 -94t-26.5 -107t-9 -88.5q0 -114 76 -114q42 0 75.5 38
t51 94t26 107t8.5 88q0 115 -75 115z" />
    <glyph glyph-name="one.dnom" 
d="M561 0h-231l106 563l-219 -123l45 242l273 158h190z" />
    <glyph glyph-name="two.dnom" 
d="M664 211l-41 -211h-594l43 221l258 180q99 69 133.5 104t34.5 68q0 32 -24.5 50t-70.5 18q-61 0 -132 -30t-121 -79h-13l51 263q99 57 244 57q143 0 223 -65t80 -183q0 -37 -3 -61t-16.5 -59.5t-39 -65.5t-74.5 -69t-119 -81l-92 -53v-4h273z" />
    <glyph glyph-name="three.dnom" 
d="M616 410v-4q74 -61 74 -162q0 -124 -90 -190t-254 -66q-89 0 -169.5 23t-125.5 59l45 227h13q76 -98 237 -98q115 0 115 77q0 52 -113 52h-92l35 188h92q69 0 99 16t30 54q0 31 -23.5 43t-70.5 12q-61 0 -134 -27t-118 -71h-12l49 252q105 57 252 57q141 0 219 -61
t78 -170q0 -148 -136 -211z" />
    <glyph glyph-name="four.dnom" 
d="M756 346l-41 -211h-94l-27 -135h-232l27 135h-383l39 201l467 504h246l-96 -494h94zM471 551h-4l-195 -205h158z" />
    <glyph glyph-name="five.dnom" 
d="M367 629l-17 -84q23 2 78 2q133 0 207 -67.5t74 -186.5q0 -145 -94 -225t-259 -80q-198 0 -307 53l41 223h12q97 -65 246 -65q59 0 92 21.5t33 60.5q0 67 -156 67q-97 0 -180 -18h-12l98 510h541l-41 -211h-356z" />
    <glyph glyph-name="six.dnom" 
d="M467 557q119 0 186.5 -66t67.5 -176q0 -148 -89 -237.5t-237 -89.5q-152 0 -238.5 86.5t-86.5 240.5q0 71 15.5 143t51.5 143.5t87 127t129 89.5t171 34q153 0 230 -61l-43 -216h-13q-60 66 -168 66q-132 0 -192 -113l4 -2q48 31 125 31zM393 199q43 0 68.5 26.5
t25.5 69.5q0 33 -20.5 52.5t-54.5 19.5q-63 0 -111 -48q-2 -10 -2 -28q0 -43 25 -67.5t69 -24.5z" />
    <glyph glyph-name="seven.dnom" 
d="M322 0h-289l477 629h-373l41 211h637l-41 -217z" />
    <glyph glyph-name="eight.dnom" 
d="M633 416v-4q88 -59 88 -166q0 -123 -97 -190.5t-276 -67.5q-152 0 -238.5 63t-86.5 172q0 163 167 213v4q-71 58 -71 156q0 120 91 188t253 68q142 0 224.5 -64t82.5 -174q0 -145 -137 -198zM430 514q100 0 100 74q0 57 -84 57q-46 0 -71 -19.5t-25 -54.5q0 -57 80 -57z
M365 199q124 0 124 75q0 56 -106 56q-59 0 -91 -19.5t-32 -54.5q0 -57 105 -57z" />
    <glyph glyph-name="nine.dnom" 
d="M350 283q-119 0 -186.5 65.5t-67.5 175.5q0 148 89 238t237 90q152 0 239 -87t87 -241q0 -71 -16 -143t-51.5 -143.5t-87 -126.5t-129.5 -89t-171 -34q-153 0 -230 61l43 215h13q59 -65 168 -65q133 0 192 112l-4 2q-47 -30 -125 -30zM424 641q-43 0 -68.5 -26.5
t-25.5 -69.5q0 -33 21 -52.5t55 -19.5q63 0 110 47q2 10 2 29q0 43 -25 67.5t-69 24.5z" />
    </font>
</defs>
</svg>
