<?xml version="1.0" standalone="no"?>
<!DOCTYPE svg PUBLIC "-//W3C//DTD SVG 1.1//EN" "http://www.w3.org/Graphics/SVG/1.1/DTD/svg11.dtd" >
<svg xmlns="http://www.w3.org/2000/svg" xmlns:xlink="http://www.w3.org/1999/xlink" version="1.1">
<metadata>
Created by FontForge 20201107 at Tue Nov 25 13:38:38 2025
 By 
Copyright (c) 2014 by Ryoichi Tsunekawa. All rights reserved.
</metadata>
<defs>
<font id="Graphie-SemiBoldItalic" horiz-adv-x="839" >
  <font-face 
    font-family="Graphie SemiBold"
    font-weight="600"
    font-style="italic"
    font-stretch="normal"
    units-per-em="2048"
    panose-1="2 11 6 3 2 2 4 9 2 4"
    ascent="1536"
    descent="-512"
    x-height="961"
    cap-height="1360"
    bbox="-467 -430 2255 1892"
    underline-thickness="129"
    underline-position="-208"
    slope="-11"
    unicode-range="U+0020-FB03"
  />
<missing-glyph horiz-adv-x="1269" 
d="M1196 0h-1049v1360h1049v-1360zM1047 1276h-750l375 -520zM616 680l-376 524v-1048zM727 680l377 -524v1048zM1047 84l-375 520l-375 -520h750z" />
    <glyph glyph-name="ff" unicode="ff" horiz-adv-x="1368" 
d="M1350 1454q122 0 198 -39l-39 -198h-10q-58 43 -141 43q-77 0 -126.5 -44t-64.5 -126l-24 -129h293l-37 -189h-293l-152 -772h-217l150 772h-418l-152 -772h-217l150 772h-168l37 189h168l24 124q34 170 135.5 259.5t262.5 89.5q122 0 198 -39l-39 -199h-10
q-55 43 -141 43q-77 0 -126.5 -44t-64.5 -126l-20 -108h418l28 145q34 170 135.5 259t262.5 89z" />
    <glyph glyph-name="fi" unicode="fi" horiz-adv-x="1183" 
d="M963 0h-218l150 772h-426l-152 -772h-217l150 772h-168l37 189h168l28 145q34 170 133.5 259t253.5 89q113 0 189 -39l-39 -198h-10q-58 43 -131 43q-70 0 -118 -44.5t-63 -125.5l-24 -129h643zM1110 1399q58 0 91.5 -34.5t33.5 -90.5q0 -67 -42 -109.5t-106 -42.5
q-58 0 -92 33t-34 88q0 68 42.5 112t106.5 44z" />
    <glyph glyph-name="ffi" unicode="ffi" horiz-adv-x="1820" 
d="M1786 961l-187 -961h-217l150 772h-426l-152 -772h-217l150 772h-418l-152 -772h-217l150 772h-168l37 189h168l24 124q34 170 135.5 259.5t262.5 89.5q126 0 198 -37l-39 -195h-10q-53 37 -141 37q-77 0 -126.5 -44t-64.5 -126l-20 -108h418l28 145q34 170 133.5 259
t253.5 89q113 0 189 -39l-39 -198h-10q-58 43 -131 43q-70 0 -118 -44.5t-63 -125.5l-24 -129h643zM1747 1399q58 0 91.5 -34.5t33.5 -90.5q0 -67 -42 -109.5t-106 -42.5q-58 0 -92.5 33.5t-34.5 87.5q0 67 42.5 111.5t107.5 44.5z" />
    <glyph glyph-name="f_j" unicode="fj" horiz-adv-x="1183" 
d="M1149 961l-211 -1084q-56 -287 -299 -287q-79 0 -141 27l37 197h10q33 -29 69 -29q47 0 73 28t38 89l170 870h-426l-152 -772h-217l150 772h-168l37 189h168l28 145q34 170 133.5 259t253.5 89q113 0 189 -39l-39 -198h-10q-58 43 -131 43q-70 0 -118 -44.5t-63 -125.5
l-24 -129h643zM1110 1399q58 0 91.5 -34.5t33.5 -90.5q0 -67 -42 -109.5t-106 -42.5q-58 0 -92 33t-34 88q0 68 42.5 112t106.5 44z" />
    <glyph glyph-name="f_f_j" unicode="ffj" horiz-adv-x="1820" 
d="M1786 961l-211 -1084q-56 -287 -299 -287q-79 0 -141 27l36 197h11q33 -29 69 -29q47 0 73 28t38 89l170 870h-426l-152 -772h-217l150 772h-418l-152 -772h-217l150 772h-168l37 189h168l24 124q34 170 135.5 259.5t262.5 89.5q126 0 198 -37l-39 -195h-10
q-53 37 -141 37q-77 0 -126.5 -44t-64.5 -126l-20 -108h418l28 145q34 170 133.5 259t253.5 89q113 0 189 -39l-39 -198h-10q-58 43 -131 43q-70 0 -118 -44.5t-63 -125.5l-24 -129h643zM1747 1399q58 0 91.5 -34.5t33.5 -90.5q0 -67 -42 -109.5t-106 -42.5
q-58 0 -92.5 33.5t-34.5 87.5q0 67 42.5 111.5t107.5 44.5z" />
    <glyph glyph-name=".notdef" horiz-adv-x="1269" 
d="M1196 0h-1049v1360h1049v-1360zM1047 1276h-750l375 -520zM616 680l-376 524v-1048zM727 680l377 -524v1048zM1047 84l-375 520l-375 -520h750z" />
    <glyph glyph-name=".null" horiz-adv-x="0" 
 />
    <glyph glyph-name="nonmarkingreturn" horiz-adv-x="682" 
 />
    <glyph glyph-name="space" unicode=" " horiz-adv-x="450" 
 />
    <glyph glyph-name="exclam" unicode="!" horiz-adv-x="536" 
d="M154 408l157 952h256l-213 -952h-200zM213 262q57 0 92 -35.5t35 -91.5q0 -64 -46.5 -109.5t-109.5 -45.5q-57 0 -92 35t-35 91q0 64 46.5 110t109.5 46z" />
    <glyph glyph-name="quotedbl" unicode="&#x22;" horiz-adv-x="872" 
d="M213 756l98 604h209l-139 -604h-168zM596 756l98 604h209l-139 -604h-168z" />
    <glyph glyph-name="numbersign" unicode="#" horiz-adv-x="1331" 
d="M958 526h263l-52 -151h-262l-125 -375h-168l125 375h-278l-125 -375h-170l125 375h-260l51 151h260l111 328h-260l51 152h260l119 354h170l-119 -354h278l119 354h168l-119 -354h262l-53 -152h-260zM623 854l-111 -328h279l110 328h-278z" />
    <glyph glyph-name="dollar" unicode="$" horiz-adv-x="1331" 
d="M926 1462l-31 -162q225 -19 334 -98l-43 -233h-12q-97 111 -320 129l-61 -316q198 -19 288 -93t90 -214q0 -197 -135 -306.5t-385 -113.5l-35 -178h-135l35 182q-127 10 -231 42.5t-164 80.5l43 230h12q119 -132 381 -150l64 324q-198 20 -287.5 92t-89.5 205
q0 192 138 304.5t378 117.5l31 157h135zM463 920q0 -51 46 -79.5t153 -43.5l59 305q-120 -6 -189 -55t-69 -127zM952 442q0 54 -47 85t-153 44l-62 -313q124 7 193 55.5t69 128.5z" />
    <glyph glyph-name="percent" unicode="%" horiz-adv-x="1554" 
d="M524 1380q131 0 205 -74t74 -200q0 -51 -11 -103t-37.5 -106t-65.5 -95.5t-100.5 -68t-137.5 -26.5q-130 0 -202.5 75t-72.5 201q0 53 11.5 106.5t38 106.5t65.5 93.5t99.5 65.5t133.5 25zM156 0l1124 1360h197l-1125 -1360h-196zM520 1239q-48 0 -85.5 -24.5t-58 -63.5
t-30.5 -81t-10 -83q0 -67 32 -103t91 -36q49 0 86.5 25.5t57 66t29 81t9.5 79.5q0 67 -31 103t-90 36zM1180 653q131 0 204.5 -74t73.5 -200q0 -51 -11 -103t-37.5 -106t-65.5 -95.5t-100.5 -68t-137.5 -26.5q-130 0 -202.5 75t-72.5 201q0 53 11.5 106.5t38.5 106.5
t66 93.5t99.5 65.5t133.5 25zM1176 512q-63 0 -107 -43t-61 -97.5t-17 -111.5q0 -67 32 -103t91 -36q49 0 86.5 25.5t57 66t29 81t9.5 79.5q0 68 -31 103.5t-89 35.5z" />
    <glyph glyph-name="ampersand" unicode="&#x26;" horiz-adv-x="1312" 
d="M1018 219l160 -219h-279l-57 84q-171 -104 -379 -104q-195 0 -305.5 87t-110.5 242q0 148 80 254.5t250 184.5q-92 131 -92 260q0 167 113.5 269.5t299.5 102.5q166 0 264.5 -77t98.5 -207q0 -139 -89 -238t-290 -182l221 -301q58 72 95.5 166.5t45.5 185.5l205 -16
q-31 -174 -84 -286.5t-147 -205.5zM573 825q162 59 226.5 114t64.5 128q0 54 -42.5 86.5t-112.5 32.5q-97 0 -152 -48.5t-55 -133.5q0 -87 71 -179zM485 174q138 0 250 62l-252 358q-118 -57 -164.5 -112t-46.5 -138t54.5 -126.5t158.5 -43.5z" />
    <glyph glyph-name="quotesingle" unicode="'" horiz-adv-x="489" 
d="M213 756l98 604h209l-139 -604h-168z" />
    <glyph glyph-name="parenleft" unicode="(" horiz-adv-x="792" 
d="M645 1360h223q-247 -241 -363 -503.5t-116 -522.5q0 -306 174 -543h-223q-174 256 -174 576q0 162 47.5 330t158.5 345.5t273 317.5z" />
    <glyph glyph-name="parenright" unicode=")" horiz-adv-x="792" 
d="M266 1360h221q175 -260 175 -580q0 -249 -119.5 -515t-358.5 -474h-225q247 241 363 503.5t116 522.5q0 308 -172 543z" />
    <glyph glyph-name="asterisk" unicode="*" horiz-adv-x="944" 
d="M696 655l-123 287l-186 -287l-154 115l254 238l-313 61l82 180l281 -139l-2 324h194l-82 -322l303 137l39 -180l-325 -61l194 -238z" />
    <glyph glyph-name="plus" unicode="+" horiz-adv-x="1331" 
d="M770 518l-94 -483h-193l95 483h-484l37 193h483l95 483h192l-94 -483h483l-37 -193h-483z" />
    <glyph glyph-name="comma" unicode="," horiz-adv-x="536" 
d="M-143 -301l280 543h228l-326 -543h-182z" />
    <glyph glyph-name="hyphen" unicode="-" horiz-adv-x="757" 
d="M84 451l43 219h578l-43 -219h-578z" />
    <glyph glyph-name="period" unicode="." horiz-adv-x="536" 
d="M213 262q57 0 92 -35.5t35 -91.5q0 -64 -46.5 -109.5t-109.5 -45.5q-57 0 -92 35t-35 91q0 64 46.5 110t109.5 46z" />
    <glyph glyph-name="slash" unicode="/" horiz-adv-x="856" 
d="M-70 -164l854 1585h199l-854 -1585h-199z" />
    <glyph glyph-name="zero" unicode="0" horiz-adv-x="1331" 
d="M819 1380q224 0 345.5 -128.5t121.5 -364.5q0 -84 -11.5 -170.5t-37.5 -176t-64.5 -170.5t-95.5 -153t-126.5 -124t-162 -82.5t-198.5 -30.5q-224 0 -345.5 130t-121.5 369q0 116 22.5 235t76 240t131.5 214.5t198.5 152.5t267.5 59zM795 1174q-78 0 -145 -32.5
t-113.5 -88t-83 -124.5t-57.5 -146t-31.5 -148.5t-10.5 -136.5q0 -151 66 -231.5t190 -80.5q78 0 145 32.5t113.5 87.5t83 123.5t57.5 145.5t31.5 148.5t10.5 136.5q0 152 -66 233t-190 81z" />
    <glyph glyph-name="one" unicode="1" horiz-adv-x="1331" 
d="M887 0h-230l213 1098l-493 -244l47 240l537 266h190z" />
    <glyph glyph-name="two" unicode="2" horiz-adv-x="1331" 
d="M1096 207l-39 -207h-963l41 217l354 242q315 217 419 322t104 216q0 177 -244 177q-117 0 -239 -49t-214 -130h-12l49 267q88 59 205 88.5t236 29.5q452 0 452 -348q0 -72 -11.5 -127t-47.5 -122.5t-102 -134t-177 -149.5t-270 -180l-178 -108v-4h637z" />
    <glyph glyph-name="three" unicode="3" horiz-adv-x="1331" 
d="M1010 680v-4q159 -86 159 -266q0 -203 -154 -316.5t-421 -113.5q-151 0 -282.5 40t-192.5 107l45 238h12q53 -82 170.5 -130.5t255.5 -48.5q156 0 245 64.5t89 177.5q0 83 -69 121.5t-214 38.5h-182l39 200h188q170 0 252 50t82 155q0 88 -71 134.5t-201 46.5
q-123 0 -238 -46t-194 -118h-13l50 258q169 112 434 112q220 0 343.5 -90t123.5 -250q0 -131 -66 -223.5t-190 -136.5z" />
    <glyph glyph-name="four" unicode="4" horiz-adv-x="1331" 
d="M1042 260l-51 -260h-229l51 260h-760l39 195l924 905h239l-174 -893h185l-39 -207h-185zM967 1059l-598 -592h483z" />
    <glyph glyph-name="five" unicode="5" horiz-adv-x="1331" 
d="M549 1153l-60 -307q112 31 230 31q221 0 342 -101.5t121 -283.5q0 -238 -158 -375t-434 -137q-156 0 -290.5 36t-201.5 97l45 227h13q57 -73 172.5 -113.5t265.5 -40.5q164 0 259 75t95 204q0 213 -336 213q-175 0 -364 -80h-12l147 762h889l-39 -207h-684z" />
    <glyph glyph-name="six" unicode="6" horiz-adv-x="1331" 
d="M907 1174q-178 0 -306 -106.5t-185 -301.5h4q145 123 375 123q195 0 308.5 -105.5t113.5 -279.5q0 -230 -155 -377t-398 -147q-244 0 -379 137t-135 387q0 81 13 164.5t41.5 170t70.5 164.5t104.5 147.5t138.5 120t177 80t216 29.5q238 0 357 -98l-45 -223h-13
q-103 115 -303 115zM983 473q0 101 -65 159t-179 58q-220 0 -362 -180q0 -6 -1 -18.5t-1 -18.5q0 -133 80.5 -210t212.5 -77q137 0 226 81.5t89 205.5z" />
    <glyph glyph-name="seven" unicode="7" horiz-adv-x="1331" 
d="M1368 1143l-954 -1143h-287l975 1153h-834l39 207h1104z" />
    <glyph glyph-name="eight" unicode="8" horiz-adv-x="1331" 
d="M1034 696v-4q178 -82 178 -276q0 -204 -163.5 -320t-448.5 -116q-247 0 -385.5 91t-138.5 253q0 140 79 233t230 133v4q-145 80 -145 258q0 198 154.5 313t418.5 115q227 0 354 -89t127 -247q0 -260 -260 -348zM739 788q158 0 240 54.5t82 161.5q0 83 -70 126.5
t-205 43.5q-153 0 -235 -59t-82 -169q0 -81 66.5 -119.5t203.5 -38.5zM623 186q171 0 264.5 61t93.5 173q0 87 -75 127.5t-232 40.5q-363 0 -363 -223q0 -86 80.5 -132.5t231.5 -46.5z" />
    <glyph glyph-name="nine" unicode="9" horiz-adv-x="1331" 
d="M743 1380q244 0 379 -137t135 -387q0 -81 -13 -164.5t-41.5 -170t-70.5 -164.5t-104.5 -147.5t-138.5 -120t-177 -80t-216 -29.5q-238 0 -357 98l45 223h13q103 -115 303 -115q178 0 306 106.5t185 301.5h-4q-145 -123 -375 -123q-195 0 -308.5 105.5t-113.5 279.5
q0 230 155 377t398 147zM424 887q0 -101 65 -159t179 -58q220 0 362 180q0 6 1 18.5t1 18.5q0 133 -80.5 210t-212.5 77q-137 0 -226 -81.5t-89 -205.5z" />
    <glyph glyph-name="colon" unicode=":" horiz-adv-x="536" 
d="M213 262q57 0 92 -35.5t35 -91.5q0 -64 -46.5 -109.5t-109.5 -45.5q-57 0 -92 35t-35 91q0 64 46.5 110t109.5 46zM346 948q57 0 92 -35.5t35 -91.5q0 -64 -46.5 -109.5t-109.5 -45.5q-57 0 -92 35.5t-35 91.5q0 64 46.5 109.5t109.5 45.5z" />
    <glyph glyph-name="semicolon" unicode=";" horiz-adv-x="536" 
d="M-143 -301l280 543h228l-326 -543h-182zM346 948q57 0 92 -35.5t35 -91.5q0 -64 -46.5 -109.5t-109.5 -45.5q-57 0 -92 35.5t-35 91.5q0 64 46.5 109.5t109.5 45.5z" />
    <glyph glyph-name="less" unicode="&#x3c;" horiz-adv-x="1331" 
d="M442 602l711 -326l-41 -202l-956 458l28 164l1139 459l-41 -219l-840 -330v-4z" />
    <glyph glyph-name="equal" unicode="=" horiz-adv-x="1331" 
d="M180 786l37 193h1090l-37 -193h-1090zM76 250l37 192h1089l-37 -192h-1089z" />
    <glyph glyph-name="greater" unicode="&#x3e;" horiz-adv-x="1331" 
d="M1200 532l-1139 -458l39 219l842 330v4l-711 325l41 203l957 -459z" />
    <glyph glyph-name="question" unicode="?" horiz-adv-x="1005" 
d="M616 1380q212 0 330.5 -91.5t118.5 -254.5q0 -186 -117.5 -293.5t-400.5 -179.5l-29 -153h-211l58 292q256 51 361 120t105 188q0 78 -60.5 122t-168.5 44q-118 0 -235 -46t-211 -129h-13l52 265q188 116 421 116zM371 262q57 0 92 -35t35 -92q0 -63 -46 -109t-110 -46
q-57 0 -92 34.5t-35 91.5q0 64 46.5 110t109.5 46z" />
    <glyph glyph-name="at" unicode="@" horiz-adv-x="1595" 
d="M1253 922l-90 -471q-4 -20 -4 -39q0 -68 66 -68q43 0 78 27t55.5 68t34.5 94t19 99t5 89q0 212 -132 337.5t-365 125.5q-179 0 -332 -95t-241.5 -257t-88.5 -351q0 -226 153 -368t400 -142q135 0 256 40t211 110h10l-31 -158q-73 -51 -192 -78.5t-258 -27.5
q-310 0 -501 172.5t-191 451.5q0 168 63.5 320t171 260.5t257 172.5t315.5 64q290 0 458 -161.5t168 -425.5q0 -64 -10.5 -129.5t-36 -132.5t-62.5 -119t-94.5 -84.5t-127.5 -32.5q-149 0 -181 113h-4q-89 -113 -262 -113q-141 0 -228 88.5t-87 233.5q0 171 110 286t269 115
q98 0 165.5 -37.5t98.5 -105.5h4l26 129h125zM797 344q106 0 179 75.5t73 190.5q0 88 -52.5 141.5t-140.5 53.5q-108 0 -180 -74.5t-72 -189.5q0 -89 52.5 -143t140.5 -54z" />
    <glyph glyph-name="A" unicode="A" horiz-adv-x="1503" 
d="M1124 0l-57 256h-700l-158 -256h-268l864 1360h235l336 -1360h-252zM879 1081h-5l-374 -612h518z" />
    <glyph glyph-name="B" unicode="B" horiz-adv-x="1316" 
d="M1057 684v-4q174 -74 174 -266q0 -199 -132 -306.5t-386 -107.5h-654l265 1360h538q217 0 330 -83t113 -241q0 -271 -248 -352zM459 793h321q137 0 207 52.5t70 151.5q0 144 -217 144h-314zM348 219h377q260 0 260 209q0 152 -227 152h-340z" />
    <glyph glyph-name="C" unicode="C" horiz-adv-x="1320" 
d="M905 1380q148 0 270.5 -33t198.5 -98l-49 -250h-12q-55 79 -166 120.5t-244 41.5q-238 0 -394.5 -157t-156.5 -398q0 -185 117.5 -296t312.5 -111q230 0 408 170h12l-55 -287q-85 -51 -174 -76.5t-217 -25.5q-196 0 -345 78t-228 216.5t-79 317.5q0 223 103.5 403.5
t287 282.5t410.5 102z" />
    <glyph glyph-name="D" unicode="D" horiz-adv-x="1482" 
d="M324 1360h483q308 0 478.5 -151.5t170.5 -422.5q0 -365 -215.5 -575.5t-589.5 -210.5h-592zM1208 762q0 183 -112 281t-324 98h-246l-178 -922h309q254 0 402.5 146.5t148.5 396.5z" />
    <glyph glyph-name="E" unicode="E" horiz-adv-x="1257" 
d="M526 1141l-67 -350h612l-41 -213h-612l-70 -359h758l-41 -219h-1006l265 1360h1005l-41 -219h-762z" />
    <glyph glyph-name="F" unicode="F" horiz-adv-x="1220" 
d="M455 772h612l-41 -219h-614l-107 -553h-246l265 1360h1005l-41 -219h-762z" />
    <glyph glyph-name="G" unicode="G" horiz-adv-x="1437" 
d="M928 1380q350 0 526 -131l-49 -252h-12q-149 164 -467 164q-254 0 -414 -154.5t-160 -400.5q0 -188 121.5 -297.5t333.5 -109.5q125 0 213 32l55 277h-350l43 213h586l-121 -627q-111 -63 -209.5 -88.5t-241.5 -25.5q-314 0 -497 162.5t-183 437.5q0 234 105 416.5
t293 283t428 100.5z" />
    <glyph glyph-name="H" unicode="H" horiz-adv-x="1503" 
d="M1257 0h-245l112 578h-706l-113 -578h-246l265 1360h245l-108 -563h706l109 563h246z" />
    <glyph glyph-name="I" unicode="I" horiz-adv-x="550" 
d="M59 0l265 1360h245l-264 -1360h-246z" />
    <glyph glyph-name="J" unicode="J" horiz-adv-x="1044" 
d="M1094 1360l-174 -895q-49 -249 -187 -367t-377 -118q-118 0 -213.5 33t-158.5 93l45 240h12q46 -70 125 -108.5t180 -38.5q277 0 334 299l168 862h246z" />
    <glyph glyph-name="K" unicode="K" horiz-adv-x="1343" 
d="M1212 0h-303l-483 616l-121 -616h-246l265 1360h245l-114 -588l669 588h336l-801 -682z" />
    <glyph glyph-name="L" unicode="L" horiz-adv-x="1183" 
d="M1036 0h-977l265 1360h245l-221 -1141h731z" />
    <glyph glyph-name="M" unicode="M" horiz-adv-x="1929" 
d="M1683 0h-245l211 1090h-4l-668 -1090h-223l-244 1081h-4l-209 -1081h-238l265 1360h360l234 -1038h4l639 1038h387z" />
    <glyph glyph-name="N" unicode="N" horiz-adv-x="1513" 
d="M1268 0h-287l-467 1106h-4l-213 -1106h-238l265 1360h327l443 -1028h4l196 1028h238z" />
    <glyph glyph-name="O" unicode="O" horiz-adv-x="1560" 
d="M893 1380q290 0 465.5 -170.5t175.5 -443.5q0 -220 -103 -400t-284 -283t-402 -103q-290 0 -465.5 170.5t-175.5 443.5q0 166 61 312t166 250t251 164t311 60zM881 1161q-112 0 -210 -42.5t-168 -116t-110.5 -177.5t-40.5 -223q0 -182 110.5 -292.5t297.5 -110.5
q224 0 375 159.5t151 395.5q0 184 -110 295.5t-295 111.5z" />
    <glyph glyph-name="P" unicode="P" horiz-adv-x="1304" 
d="M324 1360h555q224 0 340 -95.5t116 -279.5q0 -243 -141 -373.5t-410 -130.5h-385l-94 -481h-246zM1085 961q0 91 -58 135.5t-179 44.5h-322l-86 -441h355q144 0 217 66.5t73 194.5z" />
    <glyph glyph-name="Q" unicode="Q" horiz-adv-x="1558" 
d="M1534 766q0 -204 -90.5 -375.5t-247.5 -277.5l162 -269h-254l-105 174q-122 -38 -254 -38q-290 0 -465.5 170.5t-175.5 443.5q0 166 61 312t166 250t251 164t311 60q290 0 465.5 -170.5t175.5 -443.5zM760 199q68 0 123 14l-189 311h254l131 -217q97 76 152 193t55 254
q0 184 -110 295.5t-295 111.5q-112 0 -210 -42.5t-168 -116t-110.5 -177.5t-40.5 -223q0 -182 110.5 -292.5t297.5 -110.5z" />
    <glyph glyph-name="R" unicode="R" horiz-adv-x="1359" 
d="M324 1360h567q223 0 339 -95t116 -278q0 -200 -99 -321.5t-291 -155.5l244 -510h-270l-215 498h-314l-96 -498h-246zM1098 965q0 89 -58.5 132.5t-179.5 43.5h-334l-82 -424h363q144 0 217.5 63t73.5 185z" />
    <glyph glyph-name="S" unicode="S" horiz-adv-x="1198" 
d="M737 1380q148 0 279 -33t188 -85l-47 -248h-12q-61 70 -173 108.5t-253 38.5q-138 0 -222.5 -57.5t-84.5 -151.5q0 -66 60 -99.5t220 -53.5q243 -30 346 -114t103 -241q0 -219 -153 -341.5t-425 -122.5q-172 0 -315 36t-223 99l47 252h12q79 -82 204.5 -125t282.5 -43
q152 0 238 56.5t86 154.5q0 70 -64 107t-231 58q-235 30 -334.5 108t-99.5 226q0 217 153.5 344t417.5 127z" />
    <glyph glyph-name="T" unicode="T" horiz-adv-x="1206" 
d="M854 1141l-221 -1141h-244l221 1141h-428l41 219h1100l-41 -219h-428z" />
    <glyph glyph-name="U" unicode="U" horiz-adv-x="1417" 
d="M1466 1360l-155 -793q-59 -299 -216.5 -443t-439.5 -144q-254 0 -391 113.5t-137 330.5q0 84 16 160l150 776h246l-150 -776q-12 -65 -12 -117q0 -132 74 -200t215 -68q336 0 413 399l150 762h237z" />
    <glyph glyph-name="V" unicode="V" horiz-adv-x="1417" 
d="M739 0h-241l-293 1360h254l207 -1049h4l620 1049h269z" />
    <glyph glyph-name="W" unicode="W" horiz-adv-x="2062" 
d="M1497 0h-246l-123 954h-4l-497 -954h-248l-168 1360h250l110 -991h4l517 991h213l129 -995h4l497 995h260z" />
    <glyph glyph-name="X" unicode="X" horiz-adv-x="1447" 
d="M1016 0l-273 537l-479 -537h-305l645 702l-354 658h282l261 -506l450 506h303l-618 -676l370 -684h-282z" />
    <glyph glyph-name="Y" unicode="Y" horiz-adv-x="1404" 
d="M733 0h-246l113 582l-414 778h283l287 -569l506 569h303l-721 -787z" />
    <glyph glyph-name="Z" unicode="Z" horiz-adv-x="1316" 
d="M391 219h776l-41 -219h-1122l39 207l950 934h-727l43 219h1071l-41 -207z" />
    <glyph glyph-name="bracketleft" unicode="[" horiz-adv-x="792" 
d="M279 -39h303l-33 -170h-514l305 1569h514l-33 -172h-303z" />
    <glyph glyph-name="backslash" unicode="\" horiz-adv-x="856" 
d="M670 -164h-191l-235 1585h190z" />
    <glyph glyph-name="bracketright" unicode="]" horiz-adv-x="792" 
d="M489 -209h-514l33 172h303l240 1227h-303l33 170h514z" />
    <glyph glyph-name="asciicircum" unicode="^" horiz-adv-x="1331" 
d="M803 1143l-459 -574h-233l641 791h163l334 -791h-213z" />
    <glyph glyph-name="underscore" unicode="_" horiz-adv-x="1024" 
d="M-147 -274l28 143h1024l-28 -143h-1024z" />
    <glyph glyph-name="grave" unicode="`" horiz-adv-x="1024" 
d="M561 1100l-201 346h228l172 -346h-199z" />
    <glyph glyph-name="a" unicode="a" horiz-adv-x="1210" 
d="M1176 961l-187 -961h-180l16 117h-4q-125 -137 -325 -137q-193 0 -311.5 123t-118.5 319q0 154 70 282.5t191.5 202.5t266.5 74q132 0 223 -46t133 -130h4l35 156h187zM541 172q142 0 237.5 102t95.5 256q0 116 -69.5 186t-186.5 70q-141 0 -237 -100.5t-96 -255.5
q0 -116 70 -187t186 -71z" />
    <glyph glyph-name="b" unicode="b" horiz-adv-x="1210" 
d="M713 981q193 0 312.5 -123t119.5 -319q0 -155 -70.5 -283.5t-192 -202t-266.5 -73.5q-134 0 -224.5 46t-131.5 130h-4l-37 -156h-184l278 1434h217l-108 -553h4q115 100 287 100zM592 174q140 0 236 100.5t96 251.5q0 119 -69.5 189.5t-186.5 70.5q-140 0 -236 -99.5
t-96 -254.5q0 -116 70 -187t186 -71z" />
    <glyph glyph-name="c" unicode="c" horiz-adv-x="980" 
d="M639 981q107 0 197 -24t145 -68l-43 -219h-10q-87 116 -279 116q-160 0 -261 -98t-101 -252q0 -118 77 -190t203 -72q87 0 153.5 29.5t133.5 93.5h10l-47 -248q-115 -69 -268 -69q-224 0 -353.5 122t-129.5 322q0 157 74 284.5t205 200t294 72.5z" />
    <glyph glyph-name="d" unicode="d" horiz-adv-x="1210" 
d="M989 0h-180l16 117h-4q-125 -137 -325 -137q-193 0 -311.5 123t-118.5 319q0 154 70 282.5t191.5 202.5t266.5 74q240 0 336 -145h4l117 598h217zM541 174q142 0 237.5 101.5t95.5 254.5q0 116 -69.5 186t-186.5 70q-141 0 -237 -100t-96 -254q0 -116 70 -187t186 -71z
" />
    <glyph glyph-name="e" unicode="e" horiz-adv-x="1128" 
d="M623 791q-109 0 -193 -58t-119 -158h555q-1 100 -67 158t-176 58zM1040 414h-755q6 -113 91 -178.5t224 -65.5q196 0 354 137h11l-47 -244q-132 -83 -343 -83q-235 0 -372 121t-137 321q0 243 161 401t410 158q201 0 315.5 -103t114.5 -276q0 -68 -27 -188z" />
    <glyph glyph-name="f" unicode="f" horiz-adv-x="731" 
d="M713 1454q122 0 198 -39l-39 -198h-10q-58 43 -141 43q-77 0 -126.5 -44t-64.5 -126l-24 -129h293l-37 -189h-293l-152 -772h-217l150 772h-168l37 189h168l28 145q34 170 135.5 259t262.5 89z" />
    <glyph glyph-name="g" unicode="g" horiz-adv-x="1210" 
d="M1176 961l-175 -891q-45 -230 -194.5 -355t-388.5 -125q-269 0 -402 123l41 213h11q110 -141 348 -141q312 0 375 307h-5q-118 -100 -286 -100q-194 0 -313 122.5t-119 315.5q0 151 69.5 278t190.5 200t266 73q132 0 222 -46t132 -130h4l37 156h187zM545 186
q140 0 234.5 98.5t94.5 247.5q0 114 -70 184t-186 70q-140 0 -234.5 -98.5t-94.5 -247.5q0 -114 69.5 -184t186.5 -70z" />
    <glyph glyph-name="h" unicode="h" horiz-adv-x="1136" 
d="M729 981q156 0 241 -83t85 -232q0 -57 -11 -111l-108 -555h-217l104 539q8 39 8 71q0 86 -47 131t-135 45q-115 0 -194 -74t-105 -208l-98 -504h-217l278 1434h217l-110 -570h4q120 117 305 117z" />
    <glyph glyph-name="i" unicode="i" horiz-adv-x="473" 
d="M399 1399q58 0 91.5 -34.5t33.5 -90.5q0 -67 -41.5 -109.5t-105.5 -42.5q-58 0 -92.5 33.5t-34.5 87.5q0 68 42.5 112t106.5 44zM35 0l186 961h217l-186 -961h-217z" />
    <glyph glyph-name="j" unicode="j" horiz-adv-x="473" 
d="M399 1399q58 0 91.5 -34.5t33.5 -90.5q0 -67 -41.5 -109.5t-105.5 -42.5q-58 0 -92.5 33.5t-34.5 87.5q0 68 42.5 112t106.5 44zM438 961l-211 -1084q-56 -287 -299 -287q-79 0 -141 27l37 197h10q33 -29 70 -29q47 0 72.5 28t37.5 89l207 1059h217z" />
    <glyph glyph-name="k" unicode="k" horiz-adv-x="1050" 
d="M930 0h-268l-326 428l-84 -428h-217l278 1434h217l-170 -873l447 400h295l-557 -482z" />
    <glyph glyph-name="l" unicode="l" horiz-adv-x="473" 
d="M35 0l278 1434h217l-278 -1434h-217z" />
    <glyph glyph-name="m" unicode="m" horiz-adv-x="1732" 
d="M1348 981q149 0 228 -79t79 -224q0 -49 -13 -119l-110 -559h-217l108 549q9 43 9 76q0 79 -41.5 120t-122.5 41q-108 0 -179 -72.5t-98 -217.5l-96 -496h-217l106 549q9 43 9 78q0 159 -162 159q-107 0 -178 -70.5t-97 -203.5l-98 -512h-217l186 961h183l-21 -127h4
q113 147 318 147q103 0 173 -44.5t99 -129.5h4q119 174 361 174z" />
    <glyph glyph-name="n" unicode="n" horiz-adv-x="1136" 
d="M729 981q156 0 241 -83t85 -232q0 -57 -11 -111l-108 -555h-217l104 539q8 39 8 71q0 85 -47 130.5t-135 45.5q-116 0 -195 -74.5t-104 -207.5l-98 -504h-217l186 961h182l-22 -140h4q123 160 344 160z" />
    <glyph glyph-name="o" unicode="o" horiz-adv-x="1159" 
d="M629 981q211 0 338 -122.5t127 -321.5q0 -238 -161.5 -397.5t-402.5 -159.5q-210 0 -337 123.5t-127 322.5q0 236 162 395.5t401 159.5zM618 786q-141 0 -237 -100t-96 -254q0 -116 70 -187t186 -71q142 0 237.5 101.5t95.5 254.5q0 116 -69.5 186t-186.5 70z" />
    <glyph glyph-name="p" unicode="p" horiz-adv-x="1210" 
d="M713 981q193 0 312.5 -123t119.5 -319q0 -155 -70 -283.5t-191.5 -202t-267.5 -73.5q-235 0 -335 143h-5l-100 -512h-217l262 1350h182l-18 -115h4q126 135 324 135zM592 174q140 0 236 100.5t96 251.5q0 119 -69.5 189.5t-186.5 70.5q-140 0 -236 -99.5t-96 -254.5
q0 -116 70 -187t186 -71z" />
    <glyph glyph-name="q" unicode="q" horiz-adv-x="1210" 
d="M913 -389h-217l92 469h-4q-118 -100 -288 -100q-193 0 -311.5 123t-118.5 319q0 154 70 282.5t191.5 202.5t266.5 74q132 0 222 -46t132 -130h4l37 156h187zM541 174q142 0 237.5 101.5t95.5 254.5q0 116 -69.5 186t-186.5 70q-141 0 -237 -100t-96 -254q0 -116 70 -187
t186 -71z" />
    <glyph glyph-name="r" unicode="r" horiz-adv-x="784" 
d="M700 981q95 0 150 -41l-45 -211h-10q-42 45 -133 45q-131 0 -212 -87.5t-116 -268.5l-82 -418h-217l186 961h182l-20 -136h4q111 156 313 156z" />
    <glyph glyph-name="s" unicode="s" horiz-adv-x="890" 
d="M518 981q101 0 193.5 -22.5t138.5 -57.5l-39 -211h-10q-91 101 -287 101q-89 0 -144 -35t-55 -92q0 -36 37 -54.5t133 -25.5q175 -13 249.5 -75t74.5 -185q0 -161 -111.5 -252.5t-306.5 -91.5q-255 0 -389 92l45 223h10q111 -123 336 -123q94 0 147.5 33.5t53.5 93.5
q0 42 -39.5 63.5t-144.5 30.5q-167 13 -239.5 70.5t-72.5 171.5q0 158 114.5 252t305.5 94z" />
    <glyph glyph-name="t" unicode="t" horiz-adv-x="778" 
d="M469 772l-84 -434q-6 -24 -6 -47q0 -55 30.5 -86t86.5 -31q86 0 151 59h10l-47 -227q-60 -26 -159 -26q-145 0 -219 66t-74 192q0 38 10 100l84 434h-170l37 189h176l82 264h180l-51 -264h293l-37 -189h-293z" />
    <glyph glyph-name="u" unicode="u" horiz-adv-x="1136" 
d="M915 0h-182l21 137h-4q-123 -157 -342 -157q-156 0 -242 82.5t-86 230.5q0 51 12 113l107 555h217l-105 -545q-6 -38 -6 -66q0 -84 46.5 -130t133.5 -46q116 0 197 75.5t106 205.5l97 506h217z" />
    <glyph glyph-name="v" unicode="v" horiz-adv-x="1030" 
d="M535 0h-222l-202 961h223l127 -730h4l409 730h236z" />
    <glyph glyph-name="w" unicode="w" horiz-adv-x="1562" 
d="M1124 0h-211l-96 653h-4l-346 -653h-213l-143 961h221l78 -687h4l368 687h176l103 -689h4l346 689h231z" />
    <glyph glyph-name="x" unicode="x" horiz-adv-x="1095" 
d="M965 0h-248l-187 358l-323 -358h-268l473 502l-262 459h249l174 -330l295 330h269l-447 -476z" />
    <glyph glyph-name="y" unicode="y" horiz-adv-x="1030" 
d="M270 -389h-235l278 426l-202 924h223l131 -687h4l405 687h236z" />
    <glyph glyph-name="z" unicode="z" horiz-adv-x="1005" 
d="M326 188h540l-37 -188h-839l33 174l647 598h-500l37 189h801l-35 -175z" />
    <glyph glyph-name="braceleft" unicode="{" horiz-adv-x="823" 
d="M852 1188h-100q-66 0 -109.5 -35.5t-56.5 -101.5l-33 -170q-26 -135 -79 -208t-144 -98v-4q114 -49 114 -200q0 -53 -12 -117l-33 -170q-6 -24 -6 -43q0 -78 105 -78h116l-32 -172h-142q-129 0 -194.5 55.5t-65.5 163.5q0 35 10 90l39 201q9 44 9 76q0 62 -33 87t-105 25
h-51l35 173h37q90 0 143.5 49.5t75.5 154.5l39 201q29 154 113 223.5t239 69.5h156z" />
    <glyph glyph-name="bar" unicode="|" horiz-adv-x="686" 
d="M92 -389l354 1823h162l-354 -1823h-162z" />
    <glyph glyph-name="braceright" unicode="}" horiz-adv-x="823" 
d="M778 489h-39q-90 0 -143.5 -49.5t-75.5 -154.5l-39 -201q-29 -154 -113 -223.5t-239 -69.5h-154l33 172h101q66 0 109.5 35.5t55.5 101.5l33 170q26 137 79 210t144 98v4q-114 46 -114 198q0 52 12 117l33 170q6 24 6 45q0 41 -25 58.5t-80 17.5h-114l33 172h139
q260 0 260 -219q0 -35 -10 -90l-39 -201q-8 -39 -8 -76q0 -61 32.5 -86.5t104.5 -25.5h51z" />
    <glyph glyph-name="asciitilde" unicode="~" horiz-adv-x="1331" 
d="M1182 825l135 -118q-116 -157 -209 -222t-203 -65q-72 0 -134 26.5t-140 92.5q-54 46 -86 61.5t-70 15.5q-59 0 -120 -47.5t-150 -162.5l-137 116q116 157 208.5 222t202.5 65q72 0 136 -27t139 -90q57 -47 87.5 -62.5t67.5 -15.5q56 0 118.5 48t154.5 163z" />
    <glyph glyph-name="uni00A0" unicode="&#xa0;" horiz-adv-x="450" 
 />
    <glyph glyph-name="exclamdown" unicode="&#xa1;" horiz-adv-x="536" 
d="M401 1098q-57 0 -92 35.5t-35 91.5q0 64 46.5 109.5t109.5 45.5q57 0 92 -35.5t35 -91.5q0 -64 -46.5 -109.5t-109.5 -45.5zM461 952l-158 -952h-256l213 952h201z" />
    <glyph glyph-name="cent" unicode="&#xa2;" horiz-adv-x="1331" 
d="M1004 1272l-37 -187q168 -22 241 -88l-45 -229h-12q-75 99 -223 117l-121 -623q146 8 270 135h13l-52 -262q-64 -40 -125.5 -58.5t-146.5 -21.5l-35 -178h-135l37 186q-193 28 -301.5 149.5t-108.5 305.5q0 164 77 295t216 205.5t315 75.5l35 178h138zM455 526
q0 -100 57 -167t160 -89l119 617q-153 -17 -244.5 -114.5t-91.5 -246.5z" />
    <glyph glyph-name="sterling" unicode="&#xa3;" horiz-adv-x="1331" 
d="M928 1380q237 0 372 -116l-45 -236h-12q-110 146 -305 146q-124 0 -202 -69.5t-103 -203.5l-25 -131h447l-39 -188h-445l-6 -37q-25 -126 -70.5 -202.5t-129.5 -131.5v-4h733l-41 -207h-971l43 217q87 50 132 114.5t65 170.5l16 80h-141l39 188h139l31 162
q43 221 173.5 334.5t344.5 113.5z" />
    <glyph glyph-name="currency" unicode="&#xa4;" horiz-adv-x="1331" 
d="M1008 446l116 -133l-143 -123l-113 142q-95 -53 -209 -53q-125 0 -223 69l-180 -158l-113 132l189 157q-31 70 -31 152q0 161 100 282l-116 134l143 122l113 -141q92 53 207 53q127 0 225 -69l180 157l111 -131l-187 -157q31 -70 31 -152q0 -162 -100 -283zM475 647
q0 -87 55.5 -142.5t145.5 -55.5q105 0 182.5 77.5t77.5 182.5q0 88 -56.5 145t-146.5 57q-105 0 -181.5 -77.5t-76.5 -186.5z" />
    <glyph glyph-name="yen" unicode="&#xa5;" horiz-adv-x="1331" 
d="M1235 733l-31 -160h-405l-31 -161h406l-33 -160h-404l-49 -252h-229l49 252h-408l33 160h406l30 161h-405l31 160h391l-334 627h266l227 -461l402 461h280l-575 -627h383z" />
    <glyph glyph-name="brokenbar" unicode="&#xa6;" horiz-adv-x="686" 
d="M291 635l155 799h162l-155 -799h-162zM92 -389l156 799h162l-156 -799h-162z" />
    <glyph glyph-name="section" unicode="&#xa7;" horiz-adv-x="1122" 
d="M461 1100q0 -49 48.5 -75.5t174.5 -41.5q199 -25 284 -92.5t85 -196.5q0 -228 -213 -325v-4q75 -62 75 -185q0 -189 -126 -289t-365 -100q-119 0 -219 25t-162 69l39 207h10q134 -119 346 -119q134 0 206.5 46t72.5 126q0 52 -49.5 79t-178.5 44q-199 26 -281.5 91
t-82.5 190q0 114 56 199t161 131v4q-82 62 -82 182q0 183 129.5 286t370.5 103q205 0 325 -74l-41 -202h-10q-120 96 -291 96q-134 0 -208 -46t-74 -128zM633 444q100 15 158.5 73t58.5 140q0 64 -64 97.5t-221 50.5q-111 -10 -174 -68t-63 -147q0 -63 62.5 -93t242.5 -53z
" />
    <glyph glyph-name="dieresis" unicode="&#xa8;" horiz-adv-x="1024" 
d="M461 1391q55 0 88 -32t33 -85q0 -64 -40 -104t-100 -40q-55 0 -87.5 31.5t-32.5 83.5q0 64 39.5 105t99.5 41zM887 1391q55 0 87 -32t32 -85q0 -64 -39.5 -104t-98.5 -40q-56 0 -89.5 31.5t-33.5 83.5q0 63 41.5 104.5t100.5 41.5z" />
    <glyph glyph-name="copyright" unicode="&#xa9;" horiz-adv-x="1603" 
d="M901 1380q284 0 462.5 -176.5t178.5 -451.5q0 -160 -59 -303t-160 -246t-242.5 -163t-300.5 -60q-284 0 -462.5 176.5t-178.5 451.5q0 160 59 303t160 246t242.5 163t300.5 60zM778 111q172 0 316 85.5t226.5 232.5t82.5 321q0 220 -139.5 359.5t-360.5 139.5
q-172 0 -315.5 -85.5t-226 -232t-82.5 -321.5q0 -220 139 -359.5t360 -139.5zM893 1049q166 0 252 -68l-31 -158h-10q-69 92 -207 92q-117 0 -191.5 -77t-74.5 -197q0 -89 56.5 -143t152.5 -54q113 0 209 93h10l-35 -177q-46 -27 -87 -38t-106 -11q-160 0 -256 91.5
t-96 238.5q0 177 117 292.5t297 115.5z" />
    <glyph glyph-name="ordfeminine" unicode="&#xaa;" horiz-adv-x="909" 
d="M834 694h-142l10 78h-4q-89 -92 -221 -92q-129 0 -212 87.5t-83 223.5q0 167 105.5 278t261.5 111q178 0 237 -118h5l22 98h150zM520 831q90 0 151.5 67t61.5 163q0 75 -44.5 121.5t-119.5 46.5q-90 0 -152.5 -65.5t-62.5 -164.5q0 -75 46 -121.5t120 -46.5z" />
    <glyph glyph-name="guillemotleft" unicode="&#xab;" horiz-adv-x="1028" 
d="M256 465l188 -221l-41 -211l-346 440l2 14l519 441l-48 -244zM690 465l189 -221l-41 -211l-346 440l2 14l518 441l-47 -244z" />
    <glyph glyph-name="logicalnot" unicode="&#xac;" horiz-adv-x="1331" 
d="M1165 193h-192l92 469h-918l37 192h1110z" />
    <glyph glyph-name="uni00AD" unicode="&#xad;" horiz-adv-x="757" 
d="M84 451l43 219h578l-43 -219h-578z" />
    <glyph glyph-name="registered" unicode="&#xae;" horiz-adv-x="1603" 
d="M639 1038h297q120 0 182 -51.5t62 -150.5q0 -220 -201 -254l127 -260h-172l-103 251h-135l-49 -251h-147zM1028 817q0 88 -113 88h-155l-39 -200h170q137 0 137 112zM901 1380q284 0 462.5 -176.5t178.5 -451.5q0 -160 -59 -303t-160 -246t-242.5 -163t-300.5 -60
q-284 0 -462.5 176.5t-178.5 451.5q0 160 59 303t160 246t242.5 163t300.5 60zM778 111q172 0 316 85.5t226.5 232.5t82.5 321q0 220 -139.5 359.5t-360.5 139.5q-172 0 -315.5 -85.5t-226 -232t-82.5 -321.5q0 -220 139 -359.5t360 -139.5z" />
    <glyph glyph-name="macron" unicode="&#xaf;" horiz-adv-x="1024" 
d="M313 1169l33 177h668l-33 -177h-668z" />
    <glyph glyph-name="degree" unicode="&#xb0;" horiz-adv-x="796" 
d="M539 1380q125 0 203.5 -79t78.5 -201q0 -142 -96.5 -238t-235.5 -96q-127 0 -204.5 78t-77.5 200q0 142 96.5 239t235.5 97zM537 1237q-78 0 -130.5 -53.5t-52.5 -139.5q0 -62 38 -98.5t102 -36.5q77 0 128.5 53.5t51.5 139.5q0 62 -37 98.5t-100 36.5z" />
    <glyph glyph-name="plusminus" unicode="&#xb1;" horiz-adv-x="1331" 
d="M707 193h458l-39 -193h-1110l39 193h459l82 419h-461l39 193h459l86 436h192l-86 -436h459l-39 -193h-457z" />
    <glyph glyph-name="twosuperior" unicode="&#xb2;" 
d="M801 940l-29 -145h-582l29 153l221 154q176 124 230.5 181t54.5 116q0 49 -36 75.5t-101 26.5t-137 -29.5t-127 -78.5h-11l37 186q53 32 122.5 50t133.5 18q133 0 207 -60t74 -170q0 -55 -13 -97t-50.5 -90t-104 -99.5t-174.5 -120.5l-107 -66v-4h363z" />
    <glyph glyph-name="threesuperior" unicode="&#xb3;" 
d="M903 1430q0 -159 -151 -216v-4q90 -58 90 -168q0 -124 -90 -192t-252 -68q-87 0 -166.5 25t-124.5 65l31 160h10q82 -104 250 -104q180 0 180 131q0 92 -154 92h-104l24 139h109q94 0 140 28.5t46 90.5q0 92 -149 92q-65 0 -135.5 -27.5t-122.5 -74.5h-10l34 180
q111 68 256 68q138 0 213.5 -57t75.5 -160z" />
    <glyph glyph-name="acute" unicode="&#xb4;" horiz-adv-x="1024" 
d="M496 1100l303 346h256l-336 -346h-223z" />
    <glyph glyph-name="uni00B5" unicode="&#xb5;" horiz-adv-x="1169" 
d="M942 0h-182l20 135h-4q-124 -155 -342 -155q-104 0 -172 38l-80 -407h-217l262 1350h217l-106 -539q-8 -36 -8 -70q0 -85 48 -131.5t136 -46.5q113 0 193.5 77t105.5 206l98 504h217z" />
    <glyph glyph-name="paragraph" unicode="&#xb6;" horiz-adv-x="1198" 
d="M1169 1292l-327 -1681h-148l328 1681h-234l-327 -1681h-148l185 948q-336 38 -336 334q0 258 151.5 399.5t434.5 141.5h559l-27 -142h-111z" />
    <glyph glyph-name="periodcentered" unicode="&#xb7;" horiz-adv-x="536" 
d="M322 821q57 0 92 -35.5t35 -91.5q0 -64 -46.5 -109.5t-109.5 -45.5q-57 0 -92 35.5t-35 91.5q0 64 46.5 109.5t109.5 45.5z" />
    <glyph glyph-name="cedilla" unicode="&#xb8;" horiz-adv-x="1024" 
d="M414 -106v-5q161 -12 161 -129q0 -170 -247 -170q-115 0 -187 35l29 127h8q56 -41 150 -41q41 0 61.5 17t20.5 41q0 47 -70 47q-31 0 -88 -17v29l129 172h113z" />
    <glyph glyph-name="onesuperior" unicode="&#xb9;" 
d="M684 795h-160l125 649l-235 -135l30 166l275 159h129z" />
    <glyph glyph-name="ordmasculine" unicode="&#xba;" horiz-adv-x="872" 
d="M571 1380q151 0 241.5 -88t90.5 -229q0 -167 -111 -275t-278 -108q-149 0 -240.5 87t-91.5 228q0 167 111 276t278 109zM563 1229q-89 0 -149 -65t-60 -163q0 -76 47 -123t121 -47q88 0 149.5 66.5t61.5 161.5q0 76 -47.5 123t-122.5 47z" />
    <glyph glyph-name="guillemotright" unicode="&#xbb;" horiz-adv-x="1028" 
d="M532 473l-516 -440l45 243l275 220l-186 221l40 211l345 -441zM967 473l-516 -440l45 243l274 220l-186 221l41 211l344 -441z" />
    <glyph glyph-name="onequarter" unicode="&#xbc;" horiz-adv-x="1994" 
d="M459 0l1145 1360h180l-1145 -1360h-180zM1772 156l-31 -156h-160l31 156h-438l26 137l535 547h170l-105 -539h107l-27 -145h-108zM1702 627l-318 -326h256l64 326h-2zM631 520h-160l125 649l-236 -135l31 166l275 160h129z" />
    <glyph glyph-name="onehalf" unicode="&#xbd;" horiz-adv-x="1994" 
d="M373 0l1145 1360h180l-1145 -1360h-180zM1802 145l-28 -145h-582l29 154l221 153q175 123 229.5 180.5t54.5 116.5q0 49 -36 76t-101 27q-64 0 -136 -29.5t-128 -79.5h-10l37 186q53 32 122.5 50t133.5 18q133 0 206.5 -59.5t73.5 -169.5q0 -74 -25.5 -129t-99.5 -121.5
t-217 -157.5l-106 -65v-5h362zM631 520h-160l125 649l-236 -135l31 166l275 160h129z" />
    <glyph glyph-name="threequarters" unicode="&#xbe;" horiz-adv-x="1994" 
d="M467 0l1145 1360h180l-1145 -1360h-180zM1772 156l-31 -156h-160l31 156h-438l26 137l535 547h170l-105 -539h107l-27 -145h-108zM1702 627l-318 -326h256l64 326h-2zM850 1155q0 -158 -152 -215v-4q90 -58 90 -168q0 -124 -90 -192t-252 -68q-87 0 -166 25t-124 65
l30 160h11q83 -105 249 -105q181 0 181 131q0 93 -154 93h-104l24 139h109q94 0 140 28.5t46 90.5q0 92 -149 92q-65 0 -135.5 -28t-122.5 -75h-11l35 181q109 67 256 67q138 0 213.5 -57t75.5 -160z" />
    <glyph glyph-name="questiondown" unicode="&#xbf;" horiz-adv-x="1005" 
d="M467 -20q-212 0 -330.5 91.5t-118.5 254.5q0 186 118 293.5t401 179.5l28 153h211l-57 -293q-257 -51 -362 -120t-105 -187q0 -78 60.5 -122t168.5 -44q119 0 236.5 45.5t210.5 128.5h12l-51 -264q-188 -116 -422 -116zM713 1098q-57 0 -92 35t-35 92q0 63 45.5 109
t109.5 46q57 0 92 -35t35 -92q0 -64 -46 -109.5t-109 -45.5z" />
    <glyph glyph-name="Agrave" unicode="&#xc0;" horiz-adv-x="1503" 
d="M1124 0l-57 256h-700l-158 -256h-268l864 1360h235l336 -1360h-252zM879 1081h-5l-374 -612h518zM866 1483l-200 346h227l172 -346h-199z" />
    <glyph glyph-name="Aacute" unicode="&#xc1;" horiz-adv-x="1503" 
d="M1124 0l-57 256h-700l-158 -256h-268l864 1360h235l336 -1360h-252zM879 1081h-5l-374 -612h518zM823 1483l303 346h256l-335 -346h-224z" />
    <glyph glyph-name="Acircumflex" unicode="&#xc2;" horiz-adv-x="1503" 
d="M1124 0l-57 256h-700l-158 -256h-268l864 1360h235l336 -1360h-252zM879 1081h-5l-374 -612h518zM997 1673l-188 -190h-223l321 346h211l191 -346h-195z" />
    <glyph glyph-name="Atilde" unicode="&#xc3;" horiz-adv-x="1503" 
d="M1124 0l-57 256h-700l-158 -256h-268l864 1360h235l336 -1360h-252zM879 1081h-5l-374 -612h518zM1343 1806l-30 -194q-35 -50 -87 -77.5t-110 -27.5q-80 0 -162 56q-38 26 -63 35.5t-57 9.5q-111 0 -203 -127h-8l28 192q77 107 201 107q81 0 160 -56q36 -26 62 -35.5
t59 -9.5q110 0 202 127h8z" />
    <glyph glyph-name="Adieresis" unicode="&#xc4;" horiz-adv-x="1503" 
d="M1124 0l-57 256h-700l-158 -256h-268l864 1360h235l336 -1360h-252zM879 1081h-5l-374 -612h518zM780 1774q55 0 88 -32t33 -85q0 -64 -40 -104t-99 -40q-55 0 -88 32t-33 83q0 64 39.5 105t99.5 41zM1206 1774q55 0 87 -32t32 -85q0 -64 -39 -104t-98 -40
q-56 0 -89.5 31.5t-33.5 83.5q0 64 41 105t100 41z" />
    <glyph glyph-name="Aring" unicode="&#xc5;" horiz-adv-x="1503" 
d="M1124 0l-57 256h-700l-158 -256h-268l864 1360h235l336 -1360h-252zM879 1081h-5l-374 -612h518zM1004 1870q87 0 141.5 -53.5t54.5 -137.5q0 -100 -67.5 -167.5t-165.5 -67.5q-86 0 -140.5 53.5t-54.5 136.5q0 100 68 168t164 68zM995 1745q-40 0 -68 -30t-28 -73
q0 -33 20 -53t56 -20q40 0 69 29.5t29 70.5q0 34 -21.5 55t-56.5 21z" />
    <glyph glyph-name="AE" unicode="&#xc6;" horiz-adv-x="2140" 
d="M1341 791h613l-41 -213h-613l-69 -359h758l-41 -219h-1006l49 256h-563l-219 -256h-291l1186 1360h1108l-41 -219h-762zM1155 1098h-4l-539 -629h420z" />
    <glyph glyph-name="Ccedilla" unicode="&#xc7;" horiz-adv-x="1320" 
d="M905 1380q148 0 270.5 -33t198.5 -98l-49 -250h-12q-55 79 -166 120.5t-244 41.5q-238 0 -394.5 -157t-156.5 -398q0 -185 117.5 -296t312.5 -111q230 0 408 170h12l-55 -287q-85 -51 -174 -76.5t-217 -25.5h-37l-66 -86v-5q81 -6 121.5 -39.5t40.5 -89.5
q0 -170 -248 -170q-114 0 -186 35l29 127h8q56 -41 149 -41q41 0 61.5 17t20.5 41q0 47 -69 47q-31 0 -88 -17v29l122 164q-237 38 -373.5 200t-136.5 400q0 223 103.5 403.5t287 282.5t410.5 102z" />
    <glyph glyph-name="Egrave" unicode="&#xc8;" horiz-adv-x="1257" 
d="M526 1141l-67 -350h612l-41 -213h-612l-70 -359h758l-41 -219h-1006l265 1360h1005l-41 -219h-762zM766 1483l-201 346h228l172 -346h-199z" />
    <glyph glyph-name="Eacute" unicode="&#xc9;" horiz-adv-x="1257" 
d="M526 1141l-67 -350h612l-41 -213h-612l-70 -359h758l-41 -219h-1006l265 1360h1005l-41 -219h-762zM723 1483l303 346h256l-336 -346h-223z" />
    <glyph glyph-name="Ecircumflex" unicode="&#xca;" horiz-adv-x="1257" 
d="M526 1141l-67 -350h612l-41 -213h-612l-70 -359h758l-41 -219h-1006l265 1360h1005l-41 -219h-762zM897 1673l-188 -190h-224l322 346h211l190 -346h-194z" />
    <glyph glyph-name="Edieresis" unicode="&#xcb;" horiz-adv-x="1257" 
d="M526 1141l-67 -350h612l-41 -213h-612l-70 -359h758l-41 -219h-1006l265 1360h1005l-41 -219h-762zM680 1774q55 0 88 -32t33 -85q0 -64 -40 -104t-99 -40q-55 0 -88 32t-33 83q0 64 39.5 105t99.5 41zM1106 1774q55 0 87 -32t32 -85q0 -64 -39.5 -104t-98.5 -40
q-56 0 -89 31.5t-33 83.5q0 64 41 105t100 41z" />
    <glyph glyph-name="Igrave" unicode="&#xcc;" horiz-adv-x="550" 
d="M59 0l265 1360h245l-264 -1360h-246zM387 1483l-201 346h228l172 -346h-199z" />
    <glyph glyph-name="Iacute" unicode="&#xcd;" horiz-adv-x="550" 
d="M59 0l265 1360h245l-264 -1360h-246zM344 1483l303 346h256l-336 -346h-223z" />
    <glyph glyph-name="Icircumflex" unicode="&#xce;" horiz-adv-x="550" 
d="M59 0l265 1360h245l-264 -1360h-246zM518 1673l-188 -190h-224l322 346h211l190 -346h-194z" />
    <glyph glyph-name="Idieresis" unicode="&#xcf;" horiz-adv-x="550" 
d="M59 0l265 1360h245l-264 -1360h-246zM301 1774q55 0 88 -32t33 -85q0 -64 -40 -104t-99 -40q-55 0 -88 32t-33 83q0 64 39.5 105t99.5 41zM727 1774q55 0 87 -32t32 -85q0 -64 -39 -104t-98 -40q-56 0 -89.5 31.5t-33.5 83.5q0 64 41 105t100 41z" />
    <glyph glyph-name="Eth" unicode="&#xd0;" horiz-adv-x="1515" 
d="M356 1360h484q308 0 478.5 -151.5t170.5 -422.5q0 -365 -215.5 -575.5t-589.5 -210.5h-592l113 584h-144l39 207h146zM381 219h309q254 0 402.5 146.5t148.5 396.5q0 183 -112 281t-324 98h-246l-67 -350h344l-41 -207h-344z" />
    <glyph glyph-name="Ntilde" unicode="&#xd1;" horiz-adv-x="1513" 
d="M1268 0h-287l-467 1106h-4l-213 -1106h-238l265 1360h327l443 -1028h4l196 1028h238zM1346 1806l-31 -194q-35 -50 -87 -77.5t-110 -27.5q-80 0 -162 56q-38 26 -63 35.5t-57 9.5q-111 0 -203 -127h-8l28 192q77 107 201 107q81 0 160 -56q36 -26 62 -35.5t59 -9.5
q110 0 202 127h9z" />
    <glyph glyph-name="Ograve" unicode="&#xd2;" horiz-adv-x="1560" 
d="M893 1380q290 0 465.5 -170.5t175.5 -443.5q0 -220 -103 -400t-284 -283t-402 -103q-290 0 -465.5 170.5t-175.5 443.5q0 166 61 312t166 250t251 164t311 60zM881 1161q-112 0 -210 -42.5t-168 -116t-110.5 -177.5t-40.5 -223q0 -182 110.5 -292.5t297.5 -110.5
q224 0 375 159.5t151 395.5q0 184 -110 295.5t-295 111.5zM891 1483l-201 346h228l172 -346h-199z" />
    <glyph glyph-name="Oacute" unicode="&#xd3;" horiz-adv-x="1560" 
d="M893 1380q290 0 465.5 -170.5t175.5 -443.5q0 -220 -103 -400t-284 -283t-402 -103q-290 0 -465.5 170.5t-175.5 443.5q0 166 61 312t166 250t251 164t311 60zM881 1161q-112 0 -210 -42.5t-168 -116t-110.5 -177.5t-40.5 -223q0 -182 110.5 -292.5t297.5 -110.5
q224 0 375 159.5t151 395.5q0 184 -110 295.5t-295 111.5zM848 1483l303 346h256l-336 -346h-223z" />
    <glyph glyph-name="Ocircumflex" unicode="&#xd4;" horiz-adv-x="1560" 
d="M893 1380q290 0 465.5 -170.5t175.5 -443.5q0 -220 -103 -400t-284 -283t-402 -103q-290 0 -465.5 170.5t-175.5 443.5q0 166 61 312t166 250t251 164t311 60zM881 1161q-112 0 -210 -42.5t-168 -116t-110.5 -177.5t-40.5 -223q0 -182 110.5 -292.5t297.5 -110.5
q224 0 375 159.5t151 395.5q0 184 -110 295.5t-295 111.5zM1022 1673l-188 -190h-224l322 346h211l190 -346h-194z" />
    <glyph glyph-name="Otilde" unicode="&#xd5;" horiz-adv-x="1560" 
d="M893 1380q290 0 465.5 -170.5t175.5 -443.5q0 -220 -103 -400t-284 -283t-402 -103q-290 0 -465.5 170.5t-175.5 443.5q0 166 61 312t166 250t251 164t311 60zM881 1161q-112 0 -210 -42.5t-168 -116t-110.5 -177.5t-40.5 -223q0 -182 110.5 -292.5t297.5 -110.5
q224 0 375 159.5t151 395.5q0 184 -110 295.5t-295 111.5zM1368 1806l-31 -194q-75 -105 -196 -105q-80 0 -162 56q-38 26 -63.5 35.5t-57.5 9.5q-111 0 -203 -127h-8l29 192q77 107 201 107q80 0 159 -56q36 -26 62 -35.5t59 -9.5q111 0 203 127h8z" />
    <glyph glyph-name="Odieresis" unicode="&#xd6;" horiz-adv-x="1560" 
d="M893 1380q290 0 465.5 -170.5t175.5 -443.5q0 -220 -103 -400t-284 -283t-402 -103q-290 0 -465.5 170.5t-175.5 443.5q0 166 61 312t166 250t251 164t311 60zM881 1161q-112 0 -210 -42.5t-168 -116t-110.5 -177.5t-40.5 -223q0 -182 110.5 -292.5t297.5 -110.5
q224 0 375 159.5t151 395.5q0 184 -110 295.5t-295 111.5zM805 1774q55 0 88 -32t33 -85q0 -63 -40 -103.5t-100 -40.5q-55 0 -87.5 31.5t-32.5 83.5q0 64 39.5 105t99.5 41zM1231 1774q55 0 87 -32t32 -85q0 -64 -39.5 -104t-98.5 -40q-56 0 -89 31.5t-33 83.5q0 64 41 105
t100 41z" />
    <glyph glyph-name="multiply" unicode="&#xd7;" horiz-adv-x="1331" 
d="M1153 203l-149 -127l-330 405l-486 -405l-112 145l483 402l-328 403l150 127l328 -403l485 403l115 -145l-484 -402z" />
    <glyph glyph-name="Oslash" unicode="&#xd8;" horiz-adv-x="1560" 
d="M1659 1360l-234 -227q109 -153 109 -367q0 -220 -103 -400t-284 -283t-402 -103q-237 0 -397 114l-96 -94h-281l240 231q-107 150 -107 363q0 166 61 312t166 250t251 164t311 60q235 0 391 -110l94 90h281zM352 602q0 -107 41 -194l717 694q-92 59 -229 59
q-112 0 -210 -42.5t-168 -116t-110.5 -177.5t-40.5 -223zM1286 754q0 114 -45 202l-719 -694q97 -63 238 -63q224 0 375 159.5t151 395.5z" />
    <glyph glyph-name="Ugrave" unicode="&#xd9;" horiz-adv-x="1417" 
d="M1466 1360l-155 -793q-59 -299 -216.5 -443t-439.5 -144q-254 0 -391 113.5t-137 330.5q0 84 16 160l150 776h246l-150 -776q-12 -65 -12 -117q0 -132 74 -200t215 -68q336 0 413 399l150 762h237zM819 1483l-201 346h228l172 -346h-199z" />
    <glyph glyph-name="Uacute" unicode="&#xda;" horiz-adv-x="1417" 
d="M1466 1360l-155 -793q-59 -299 -216.5 -443t-439.5 -144q-254 0 -391 113.5t-137 330.5q0 84 16 160l150 776h246l-150 -776q-12 -65 -12 -117q0 -132 74 -200t215 -68q336 0 413 399l150 762h237zM776 1483l303 346h256l-336 -346h-223z" />
    <glyph glyph-name="Ucircumflex" unicode="&#xdb;" horiz-adv-x="1417" 
d="M1466 1360l-155 -793q-59 -299 -216.5 -443t-439.5 -144q-254 0 -391 113.5t-137 330.5q0 84 16 160l150 776h246l-150 -776q-12 -65 -12 -117q0 -132 74 -200t215 -68q336 0 413 399l150 762h237zM950 1673l-188 -190h-223l321 346h211l191 -346h-195z" />
    <glyph glyph-name="Udieresis" unicode="&#xdc;" horiz-adv-x="1417" 
d="M1466 1360l-155 -793q-59 -299 -216.5 -443t-439.5 -144q-254 0 -391 113.5t-137 330.5q0 84 16 160l150 776h246l-150 -776q-12 -65 -12 -117q0 -132 74 -200t215 -68q336 0 413 399l150 762h237zM733 1774q55 0 88 -32t33 -85q0 -64 -40 -104t-99 -40q-55 0 -88 32
t-33 83q0 64 39.5 105t99.5 41zM1159 1774q55 0 87 -32t32 -85q0 -64 -39 -104t-98 -40q-56 0 -89.5 31.5t-33.5 83.5q0 64 41 105t100 41z" />
    <glyph glyph-name="Yacute" unicode="&#xdd;" horiz-adv-x="1404" 
d="M733 0h-246l113 582l-414 778h283l287 -569l506 569h303l-721 -787zM770 1483l303 346h256l-336 -346h-223z" />
    <glyph glyph-name="Thorn" unicode="&#xde;" horiz-adv-x="1304" 
d="M524 1149h310q224 0 339 -96t115 -281q0 -243 -141 -373.5t-410 -130.5h-385l-51 -268h-246l264 1360h246zM803 930h-322l-86 -443h353q144 0 217 66.5t73 194.5q0 92 -57.5 137t-177.5 45z" />
    <glyph glyph-name="germandbls" unicode="&#xdf;" horiz-adv-x="1155" 
d="M725 1454q157 0 246.5 -72.5t89.5 -199.5q0 -110 -42.5 -189.5t-146.5 -154.5q-55 -39 -76.5 -67.5t-21.5 -59.5q0 -27 21 -45.5t75 -38.5q104 -38 149.5 -103t45.5 -168q0 -178 -104.5 -277t-292.5 -99q-195 0 -310 73l45 223h11q32 -49 92.5 -75.5t140.5 -26.5
q94 0 148.5 44t54.5 120q0 40 -26 67.5t-91 53.5q-98 39 -137 92.5t-39 138.5q0 90 37.5 152.5t132.5 128.5q71 50 97 85.5t26 84.5q0 58 -39 89.5t-111 31.5q-105 0 -163.5 -52.5t-81.5 -167.5l-203 -1042h-217l205 1063q38 200 157 295.5t328 95.5z" />
    <glyph glyph-name="agrave" unicode="&#xe0;" horiz-adv-x="1210" 
d="M1176 961l-187 -961h-180l16 117h-4q-125 -137 -325 -137q-193 0 -311.5 123t-118.5 319q0 154 70 282.5t191.5 202.5t266.5 74q132 0 223 -46t133 -130h4l35 156h187zM541 172q142 0 237.5 102t95.5 256q0 116 -69.5 186t-186.5 70q-141 0 -237 -100.5t-96 -255.5
q0 -116 70 -187t186 -71zM612 1100l-200 346h227l172 -346h-199z" />
    <glyph glyph-name="aacute" unicode="&#xe1;" horiz-adv-x="1210" 
d="M1176 961l-187 -961h-180l16 117h-4q-125 -137 -325 -137q-193 0 -311.5 123t-118.5 319q0 154 70 282.5t191.5 202.5t266.5 74q132 0 223 -46t133 -130h4l35 156h187zM541 172q142 0 237.5 102t95.5 256q0 116 -69.5 186t-186.5 70q-141 0 -237 -100.5t-96 -255.5
q0 -116 70 -187t186 -71zM569 1100l303 346h256l-335 -346h-224z" />
    <glyph glyph-name="acircumflex" unicode="&#xe2;" horiz-adv-x="1210" 
d="M1176 961l-187 -961h-180l16 117h-4q-125 -137 -325 -137q-193 0 -311.5 123t-118.5 319q0 154 70 282.5t191.5 202.5t266.5 74q132 0 223 -46t133 -130h4l35 156h187zM541 172q142 0 237.5 102t95.5 256q0 116 -69.5 186t-186.5 70q-141 0 -237 -100.5t-96 -255.5
q0 -116 70 -187t186 -71zM743 1290l-188 -190h-223l321 346h211l191 -346h-195z" />
    <glyph glyph-name="atilde" unicode="&#xe3;" horiz-adv-x="1210" 
d="M1176 961l-187 -961h-180l16 117h-4q-125 -137 -325 -137q-193 0 -311.5 123t-118.5 319q0 154 70 282.5t191.5 202.5t266.5 74q132 0 223 -46t133 -130h4l35 156h187zM541 172q142 0 237.5 102t95.5 256q0 116 -69.5 186t-186.5 70q-141 0 -237 -100.5t-96 -255.5
q0 -116 70 -187t186 -71zM1090 1423l-31 -194q-35 -50 -87 -77.5t-110 -27.5q-80 0 -162 56q-38 26 -63 35.5t-57 9.5q-111 0 -203 -127h-8l28 192q77 107 201 107q81 0 160 -56q36 -26 62 -35.5t59 -9.5q110 0 202 127h9z" />
    <glyph glyph-name="adieresis" unicode="&#xe4;" horiz-adv-x="1210" 
d="M1176 961l-187 -961h-180l16 117h-4q-125 -137 -325 -137q-193 0 -311.5 123t-118.5 319q0 154 70 282.5t191.5 202.5t266.5 74q132 0 223 -46t133 -130h4l35 156h187zM541 172q142 0 237.5 102t95.5 256q0 116 -69.5 186t-186.5 70q-141 0 -237 -100.5t-96 -255.5
q0 -116 70 -187t186 -71zM526 1391q55 0 88 -32t33 -85q0 -64 -40 -104t-99 -40q-55 0 -88 32t-33 83q0 64 39.5 105t99.5 41zM952 1391q55 0 87 -32t32 -85q0 -64 -39 -104t-98 -40q-56 0 -89.5 31.5t-33.5 83.5q0 64 41 105t100 41z" />
    <glyph glyph-name="aring" unicode="&#xe5;" horiz-adv-x="1210" 
d="M1176 961l-187 -961h-180l16 117h-4q-125 -137 -325 -137q-193 0 -311.5 123t-118.5 319q0 154 70 282.5t191.5 202.5t266.5 74q132 0 223 -46t133 -130h4l35 156h187zM541 172q142 0 237.5 102t95.5 256q0 116 -69.5 186t-186.5 70q-141 0 -237 -100.5t-96 -255.5
q0 -116 70 -187t186 -71zM750 1487q87 0 141.5 -53.5t54.5 -137.5q0 -100 -67.5 -167.5t-165.5 -67.5q-86 0 -140.5 53.5t-54.5 136.5q0 100 68 168t164 68zM741 1362q-40 0 -68 -29.5t-28 -72.5q0 -33 20 -53.5t56 -20.5q40 0 69 29.5t29 70.5q0 34 -21.5 55t-56.5 21z" />
    <glyph glyph-name="ae" unicode="&#xe6;" horiz-adv-x="1933" 
d="M541 174q142 0 237.5 101.5t95.5 254.5q0 116 -69.5 186t-186.5 70q-141 0 -237 -100t-96 -254q0 -116 70 -187t186 -71zM1425 791q-109 0 -195.5 -58.5t-121.5 -157.5h565q-1 99 -69 157.5t-179 58.5zM1772 307l-48 -244q-132 -83 -319 -83q-145 0 -248 47t-151 131h-5
l-36 -158h-164l18 111h-4q-112 -131 -319 -131q-193 0 -311.5 123t-118.5 319q0 154 70 282.5t191.5 202.5t266.5 74q122 0 215 -46t139 -126h4l35 152h164l-21 -115h5q116 135 333 135q186 0 296 -103.5t110 -275.5q0 -68 -27 -188h-766q6 -112 94 -178t228 -66
q200 0 358 137h11z" />
    <glyph glyph-name="ccedilla" unicode="&#xe7;" horiz-adv-x="980" 
d="M639 981q107 0 197 -24t145 -68l-43 -219h-10q-87 116 -279 116q-160 0 -261 -98t-101 -252q0 -118 77 -190t203 -72q87 0 153.5 29.5t133.5 93.5h10l-47 -248q-115 -69 -268 -69h-23l-65 -86v-5q81 -6 121.5 -39.5t40.5 -89.5q0 -170 -248 -170q-115 0 -187 35l29 127h8
q56 -41 150 -41q41 0 61.5 17t20.5 41q0 47 -70 47q-31 0 -88 -17v29l123 164q-168 32 -262 147.5t-94 284.5q0 157 74 284.5t205 200t294 72.5z" />
    <glyph glyph-name="egrave" unicode="&#xe8;" horiz-adv-x="1128" 
d="M623 791q-109 0 -193 -58t-119 -158h555q-1 100 -67 158t-176 58zM1040 414h-755q6 -113 91 -178.5t224 -65.5q196 0 354 137h11l-47 -244q-132 -83 -343 -83q-235 0 -372 121t-137 321q0 243 161 401t410 158q201 0 315.5 -103t114.5 -276q0 -68 -27 -188zM608 1100
l-200 346h227l172 -346h-199z" />
    <glyph glyph-name="eacute" unicode="&#xe9;" horiz-adv-x="1128" 
d="M623 791q-109 0 -193 -58t-119 -158h555q-1 100 -67 158t-176 58zM1040 414h-755q6 -113 91 -178.5t224 -65.5q196 0 354 137h11l-47 -244q-132 -83 -343 -83q-235 0 -372 121t-137 321q0 243 161 401t410 158q201 0 315.5 -103t114.5 -276q0 -68 -27 -188zM565 1100
l303 346h256l-336 -346h-223z" />
    <glyph glyph-name="ecircumflex" unicode="&#xea;" horiz-adv-x="1128" 
d="M623 791q-109 0 -193 -58t-119 -158h555q-1 100 -67 158t-176 58zM1040 414h-755q6 -113 91 -178.5t224 -65.5q196 0 354 137h11l-47 -244q-132 -83 -343 -83q-235 0 -372 121t-137 321q0 243 161 401t410 158q201 0 315.5 -103t114.5 -276q0 -68 -27 -188zM739 1290
l-188 -190h-223l321 346h211l191 -346h-195z" />
    <glyph glyph-name="edieresis" unicode="&#xeb;" horiz-adv-x="1128" 
d="M623 791q-109 0 -193 -58t-119 -158h555q-1 100 -67 158t-176 58zM1040 414h-755q6 -113 91 -178.5t224 -65.5q196 0 354 137h11l-47 -244q-132 -83 -343 -83q-235 0 -372 121t-137 321q0 243 161 401t410 158q201 0 315.5 -103t114.5 -276q0 -68 -27 -188zM522 1391
q55 0 88 -32t33 -85q0 -64 -40 -104t-99 -40q-55 0 -88 32t-33 83q0 64 39.5 105t99.5 41zM948 1391q55 0 87 -32t32 -85q0 -64 -39 -104t-98 -40q-56 0 -89.5 31.5t-33.5 83.5q0 64 41 105t100 41z" />
    <glyph glyph-name="igrave" unicode="&#xec;" horiz-adv-x="473" 
d="M35 0l186 961h217l-186 -961h-217zM272 1100l-200 346h227l172 -346h-199z" />
    <glyph glyph-name="iacute" unicode="&#xed;" horiz-adv-x="473" 
d="M35 0l186 961h217l-186 -961h-217zM229 1100l303 346h256l-335 -346h-224z" />
    <glyph glyph-name="icircumflex" unicode="&#xee;" horiz-adv-x="473" 
d="M35 0l186 961h217l-186 -961h-217zM403 1290l-188 -190h-223l321 346h211l191 -346h-195z" />
    <glyph glyph-name="idieresis" unicode="&#xef;" horiz-adv-x="473" 
d="M35 0l186 961h217l-186 -961h-217zM186 1391q55 0 88 -32t33 -85q0 -64 -40 -104t-99 -40q-55 0 -88 32t-33 83q0 64 39.5 105t99.5 41zM612 1391q55 0 87 -32t32 -85q0 -64 -39 -104t-98 -40q-56 0 -89.5 31.5t-33.5 83.5q0 64 41 105t100 41z" />
    <glyph glyph-name="eth" unicode="&#xf0;" horiz-adv-x="1159" 
d="M1090 1221l-117 -35q133 -208 133 -504q0 -88 -12 -182q-20 -158 -98.5 -277t-199 -181t-266.5 -62q-210 0 -337 123.5t-127 322.5q0 151 70.5 279t192 202t265.5 74q176 0 272 -104h4q-28 126 -106 247l-348 -104l30 151l222 66q-111 111 -267 186v11h326q31 -18 60 -42
t46.5 -41.5t47.5 -50.5l237 72zM541 174q142 0 237.5 101.5t95.5 254.5q0 116 -69.5 186t-186.5 70q-141 0 -237 -100t-96 -254q0 -116 70 -187t186 -71z" />
    <glyph glyph-name="ntilde" unicode="&#xf1;" horiz-adv-x="1136" 
d="M729 981q156 0 241 -83t85 -232q0 -57 -11 -111l-108 -555h-217l104 539q8 39 8 71q0 85 -47 130.5t-135 45.5q-116 0 -195 -74.5t-104 -207.5l-98 -504h-217l186 961h182l-22 -140h4q123 160 344 160zM1081 1423l-30 -194q-35 -50 -87 -77.5t-110 -27.5q-80 0 -162 56
q-38 26 -63.5 35.5t-57.5 9.5q-110 0 -202 -127h-9l29 192q77 107 201 107q81 0 160 -56q36 -26 61.5 -35.5t58.5 -9.5q111 0 203 127h8z" />
    <glyph glyph-name="ograve" unicode="&#xf2;" horiz-adv-x="1159" 
d="M629 981q211 0 338 -122.5t127 -321.5q0 -238 -161.5 -397.5t-402.5 -159.5q-210 0 -337 123.5t-127 322.5q0 236 162 395.5t401 159.5zM618 786q-141 0 -237 -100t-96 -254q0 -116 70 -187t186 -71q142 0 237.5 101.5t95.5 254.5q0 116 -69.5 186t-186.5 70zM616 1100
l-200 346h227l172 -346h-199z" />
    <glyph glyph-name="oacute" unicode="&#xf3;" horiz-adv-x="1159" 
d="M629 981q211 0 338 -122.5t127 -321.5q0 -238 -161.5 -397.5t-402.5 -159.5q-210 0 -337 123.5t-127 322.5q0 236 162 395.5t401 159.5zM618 786q-141 0 -237 -100t-96 -254q0 -116 70 -187t186 -71q142 0 237.5 101.5t95.5 254.5q0 116 -69.5 186t-186.5 70zM573 1100
l304 346h256l-336 -346h-224z" />
    <glyph glyph-name="ocircumflex" unicode="&#xf4;" horiz-adv-x="1159" 
d="M629 981q211 0 338 -122.5t127 -321.5q0 -238 -161.5 -397.5t-402.5 -159.5q-210 0 -337 123.5t-127 322.5q0 236 162 395.5t401 159.5zM618 786q-141 0 -237 -100t-96 -254q0 -116 70 -187t186 -71q142 0 237.5 101.5t95.5 254.5q0 116 -69.5 186t-186.5 70zM748 1290
l-189 -190h-223l321 346h211l191 -346h-195z" />
    <glyph glyph-name="otilde" unicode="&#xf5;" horiz-adv-x="1159" 
d="M629 981q211 0 338 -122.5t127 -321.5q0 -238 -161.5 -397.5t-402.5 -159.5q-210 0 -337 123.5t-127 322.5q0 236 162 395.5t401 159.5zM618 786q-141 0 -237 -100t-96 -254q0 -116 70 -187t186 -71q142 0 237.5 101.5t95.5 254.5q0 116 -69.5 186t-186.5 70zM1094 1423
l-31 -194q-35 -50 -87 -77.5t-110 -27.5q-79 0 -161 56q-38 26 -63.5 35.5t-57.5 9.5q-111 0 -203 -127h-8l28 192q77 107 201 107q81 0 160 -56q36 -26 62 -35.5t59 -9.5q110 0 202 127h9z" />
    <glyph glyph-name="odieresis" unicode="&#xf6;" horiz-adv-x="1159" 
d="M629 981q211 0 338 -122.5t127 -321.5q0 -238 -161.5 -397.5t-402.5 -159.5q-210 0 -337 123.5t-127 322.5q0 236 162 395.5t401 159.5zM618 786q-141 0 -237 -100t-96 -254q0 -116 70 -187t186 -71q142 0 237.5 101.5t95.5 254.5q0 116 -69.5 186t-186.5 70zM530 1391
q55 0 88 -32t33 -85q0 -64 -40 -104t-99 -40q-55 0 -88 32t-33 83q0 64 39.5 105t99.5 41zM956 1391q55 0 87 -32t32 -85q0 -64 -39 -104t-98 -40q-56 0 -89.5 31.5t-33.5 83.5q0 64 41 105t100 41z" />
    <glyph glyph-name="divide" unicode="&#xf7;" horiz-adv-x="1331" 
d="M795 1210q51 0 82.5 -30t31.5 -78q0 -60 -39 -100.5t-96 -40.5q-53 0 -84 31t-31 81q0 61 38.5 99t97.5 38zM94 518l37 193h1159l-37 -193h-1159zM610 268q52 0 82.5 -31t30.5 -81q0 -61 -38.5 -99.5t-94.5 -38.5q-52 0 -83.5 30.5t-31.5 80.5q0 60 39 99.5t96 39.5z" />
    <glyph glyph-name="oslash" unicode="&#xf8;" horiz-adv-x="1159" 
d="M1188 961l-168 -166q74 -113 74 -258q0 -238 -161.5 -397.5t-402.5 -159.5q-148 0 -262 65l-45 -45h-248l166 166q-75 107 -75 260q0 236 162 395.5t401 159.5q150 0 264 -68l47 48h248zM285 432q0 -56 18 -106l436 436q-53 24 -121 24q-141 0 -237 -100t-96 -254z
M874 530q0 55 -16 101l-436 -432q55 -25 119 -25q142 0 237.5 101.5t95.5 254.5z" />
    <glyph glyph-name="ugrave" unicode="&#xf9;" horiz-adv-x="1136" 
d="M915 0h-182l21 137h-4q-123 -157 -342 -157q-156 0 -242 82.5t-86 230.5q0 51 12 113l107 555h217l-105 -545q-6 -38 -6 -66q0 -84 46.5 -130t133.5 -46q116 0 197 75.5t106 205.5l97 506h217zM610 1100l-200 346h227l172 -346h-199z" />
    <glyph glyph-name="uacute" unicode="&#xfa;" horiz-adv-x="1136" 
d="M915 0h-182l21 137h-4q-123 -157 -342 -157q-156 0 -242 82.5t-86 230.5q0 51 12 113l107 555h217l-105 -545q-6 -38 -6 -66q0 -84 46.5 -130t133.5 -46q116 0 197 75.5t106 205.5l97 506h217zM545 1100l303 346h256l-336 -346h-223z" />
    <glyph glyph-name="ucircumflex" unicode="&#xfb;" horiz-adv-x="1136" 
d="M915 0h-182l21 137h-4q-123 -157 -342 -157q-156 0 -242 82.5t-86 230.5q0 51 12 113l107 555h217l-105 -545q-6 -38 -6 -66q0 -84 46.5 -130t133.5 -46q116 0 197 75.5t106 205.5l97 506h217zM733 1290l-188 -190h-223l321 346h211l190 -346h-194z" />
    <glyph glyph-name="udieresis" unicode="&#xfc;" horiz-adv-x="1136" 
d="M915 0h-182l21 137h-4q-123 -157 -342 -157q-156 0 -242 82.5t-86 230.5q0 51 12 113l107 555h217l-105 -545q-6 -38 -6 -66q0 -84 46.5 -130t133.5 -46q116 0 197 75.5t106 205.5l97 506h217zM512 1391q55 0 88 -32t33 -85q0 -64 -40 -104t-99 -40q-55 0 -88 32t-33 83
q0 64 39.5 105t99.5 41zM938 1391q55 0 87 -32t32 -85q0 -64 -39 -104t-98 -40q-56 0 -89.5 31.5t-33.5 83.5q0 64 41 105t100 41z" />
    <glyph glyph-name="yacute" unicode="&#xfd;" horiz-adv-x="1030" 
d="M270 -389h-235l278 426l-202 924h223l131 -687h4l405 687h236zM508 1100l303 346h256l-336 -346h-223z" />
    <glyph glyph-name="thorn" unicode="&#xfe;" horiz-adv-x="1210" 
d="M713 981q193 0 312.5 -123t119.5 -319q0 -155 -70 -283.5t-191.5 -202t-267.5 -73.5q-235 0 -335 143h-5l-100 -512h-217l354 1823h217l-108 -553h4q118 100 287 100zM592 174q140 0 236 100.5t96 251.5q0 119 -69.5 189.5t-186.5 70.5q-140 0 -236 -99.5t-96 -254.5
q0 -116 70 -187t186 -71z" />
    <glyph glyph-name="ydieresis" unicode="&#xff;" horiz-adv-x="1030" 
d="M270 -389h-235l278 426l-202 924h223l131 -687h4l405 687h236zM465 1391q55 0 88 -32t33 -85q0 -64 -40 -104t-100 -40q-55 0 -87.5 31.5t-32.5 83.5q0 64 39.5 105t99.5 41zM891 1391q55 0 87 -32t32 -85q0 -64 -39.5 -104t-98.5 -40q-56 0 -89 31.5t-33 83.5
q0 64 41 105t100 41z" />
    <glyph glyph-name="Amacron" unicode="&#x100;" horiz-adv-x="1503" 
d="M1124 0l-57 256h-700l-158 -256h-268l864 1360h235l336 -1360h-252zM879 1081h-5l-374 -612h518zM633 1552l33 177h667l-33 -177h-667z" />
    <glyph glyph-name="amacron" unicode="&#x101;" horiz-adv-x="1210" 
d="M1176 961l-187 -961h-180l16 117h-4q-125 -137 -325 -137q-193 0 -311.5 123t-118.5 319q0 154 70 282.5t191.5 202.5t266.5 74q132 0 223 -46t133 -130h4l35 156h187zM541 172q142 0 237.5 102t95.5 256q0 116 -69.5 186t-186.5 70q-141 0 -237 -100.5t-96 -255.5
q0 -116 70 -187t186 -71zM379 1169l33 177h667l-32 -177h-668z" />
    <glyph glyph-name="Abreve" unicode="&#x102;" horiz-adv-x="1503" 
d="M1124 0l-57 256h-700l-158 -256h-268l864 1360h235l336 -1360h-252zM879 1081h-5l-374 -612h518zM1202 1815h160q-69 -322 -383 -322q-151 0 -231 77t-80 214v31h159q0 -148 160 -148q157 0 215 148z" />
    <glyph glyph-name="abreve" unicode="&#x103;" horiz-adv-x="1210" 
d="M1176 961l-187 -961h-180l16 117h-4q-125 -137 -325 -137q-193 0 -311.5 123t-118.5 319q0 154 70 282.5t191.5 202.5t266.5 74q132 0 223 -46t133 -130h4l35 156h187zM541 172q142 0 237.5 102t95.5 256q0 116 -69.5 186t-186.5 70q-141 0 -237 -100.5t-96 -255.5
q0 -116 70 -187t186 -71zM948 1432h160q-69 -322 -383 -322q-151 0 -231 77t-80 214v31h159q0 -148 160 -148q157 0 215 148z" />
    <glyph glyph-name="Aogonek" unicode="&#x104;" horiz-adv-x="1503" 
d="M1180 -264q75 0 147 55h8l-32 -170q-67 -31 -162 -31t-149 44t-54 116q0 154 184 260l-55 246h-700l-158 -256h-268l864 1360h235l336 -1360h-63q-100 -40 -152.5 -97.5t-52.5 -105.5q0 -29 19.5 -45t52.5 -16zM874 1081l-374 -612h518l-139 612h-5z" />
    <glyph glyph-name="aogonek" unicode="&#x105;" horiz-adv-x="1210" 
d="M989 0h-63q-100 -40 -152.5 -97.5t-52.5 -105.5q0 -29 19.5 -45t52.5 -16q75 0 147 55h8l-33 -170q-67 -31 -161 -31q-95 0 -149 44t-54 116q0 188 264 299l10 68h-4q-125 -137 -325 -137q-193 0 -311.5 123t-118.5 319q0 154 70 282.5t191.5 202.5t266.5 74
q132 0 223 -46t133 -130h4l35 156h187zM541 172q142 0 237.5 102t95.5 256q0 116 -69.5 186t-186.5 70q-141 0 -237 -100.5t-96 -255.5q0 -116 70 -187t186 -71z" />
    <glyph glyph-name="Cacute" unicode="&#x106;" horiz-adv-x="1320" 
d="M905 1380q148 0 270.5 -33t198.5 -98l-49 -250h-12q-55 79 -166 120.5t-244 41.5q-238 0 -394.5 -157t-156.5 -398q0 -185 117.5 -296t312.5 -111q230 0 408 170h12l-55 -287q-85 -51 -174 -76.5t-217 -25.5q-196 0 -345 78t-228 216.5t-79 317.5q0 223 103.5 403.5
t287 282.5t410.5 102zM807 1483l303 346h256l-336 -346h-223z" />
    <glyph glyph-name="cacute" unicode="&#x107;" horiz-adv-x="980" 
d="M639 981q107 0 197 -24t145 -68l-43 -219h-10q-87 116 -279 116q-160 0 -261 -98t-101 -252q0 -118 77 -190t203 -72q87 0 153.5 29.5t133.5 93.5h10l-47 -248q-115 -69 -268 -69q-224 0 -353.5 122t-129.5 322q0 157 74 284.5t205 200t294 72.5zM549 1100l303 346h256
l-336 -346h-223z" />
    <glyph glyph-name="Ccircumflex" unicode="&#x108;" horiz-adv-x="1320" 
d="M905 1380q148 0 270.5 -33t198.5 -98l-49 -250h-12q-55 79 -166 120.5t-244 41.5q-238 0 -394.5 -157t-156.5 -398q0 -185 117.5 -296t312.5 -111q230 0 408 170h12l-55 -287q-85 -51 -174 -76.5t-217 -25.5q-196 0 -345 78t-228 216.5t-79 317.5q0 223 103.5 403.5
t287 282.5t410.5 102zM981 1673l-188 -190h-224l322 346h211l190 -346h-194z" />
    <glyph glyph-name="ccircumflex" unicode="&#x109;" horiz-adv-x="980" 
d="M639 981q107 0 197 -24t145 -68l-43 -219h-10q-87 116 -279 116q-160 0 -261 -98t-101 -252q0 -118 77 -190t203 -72q87 0 153.5 29.5t133.5 93.5h10l-47 -248q-115 -69 -268 -69q-224 0 -353.5 122t-129.5 322q0 157 74 284.5t205 200t294 72.5zM723 1290l-188 -190
h-224l322 346h211l190 -346h-194z" />
    <glyph glyph-name="Cdotaccent" unicode="&#x10a;" horiz-adv-x="1320" 
d="M905 1380q148 0 270.5 -33t198.5 -98l-49 -250h-12q-55 79 -166 120.5t-244 41.5q-238 0 -394.5 -157t-156.5 -398q0 -185 117.5 -296t312.5 -111q230 0 408 170h12l-55 -287q-85 -51 -174 -76.5t-217 -25.5q-196 0 -345 78t-228 216.5t-79 317.5q0 223 103.5 403.5
t287 282.5t410.5 102zM977 1784q60 0 95.5 -34.5t35.5 -90.5q0 -69 -44 -112.5t-110 -43.5q-58 0 -93.5 33.5t-35.5 89.5q0 68 44 113t108 45z" />
    <glyph glyph-name="cdotaccent" unicode="&#x10b;" horiz-adv-x="980" 
d="M639 981q107 0 197 -24t145 -68l-43 -219h-10q-87 116 -279 116q-160 0 -261 -98t-101 -252q0 -118 77 -190t203 -72q87 0 153.5 29.5t133.5 93.5h10l-47 -248q-115 -69 -268 -69q-224 0 -353.5 122t-129.5 322q0 157 74 284.5t205 200t294 72.5zM719 1401
q60 0 95.5 -34.5t35.5 -90.5q0 -68 -44 -112t-110 -44q-58 0 -93.5 33.5t-35.5 89.5q0 68 44 113t108 45z" />
    <glyph glyph-name="Ccaron" unicode="&#x10c;" horiz-adv-x="1320" 
d="M905 1380q148 0 270.5 -33t198.5 -98l-49 -250h-12q-55 79 -166 120.5t-244 41.5q-238 0 -394.5 -157t-156.5 -398q0 -185 117.5 -296t312.5 -111q230 0 408 170h12l-55 -287q-85 -51 -174 -76.5t-217 -25.5q-196 0 -345 78t-228 216.5t-79 317.5q0 223 103.5 403.5
t287 282.5t410.5 102zM1040 1483h-211l-188 346h195l116 -193l189 193h223z" />
    <glyph glyph-name="ccaron" unicode="&#x10d;" horiz-adv-x="980" 
d="M639 981q107 0 197 -24t145 -68l-43 -219h-10q-87 116 -279 116q-160 0 -261 -98t-101 -252q0 -118 77 -190t203 -72q87 0 153.5 29.5t133.5 93.5h10l-47 -248q-115 -69 -268 -69q-224 0 -353.5 122t-129.5 322q0 157 74 284.5t205 200t294 72.5zM782 1100h-211l-188 346
h195l116 -193l189 193h223z" />
    <glyph glyph-name="Dcaron" unicode="&#x10e;" horiz-adv-x="1482" 
d="M324 1360h483q308 0 478.5 -151.5t170.5 -422.5q0 -365 -215.5 -575.5t-589.5 -210.5h-592zM1208 762q0 183 -112 281t-324 98h-246l-178 -922h309q254 0 402.5 146.5t148.5 396.5zM989 1483h-211l-188 346h194l117 -193l189 193h223z" />
    <glyph glyph-name="dcaron" unicode="&#x10f;" horiz-adv-x="1210" 
d="M989 0h-180l16 117h-4q-125 -137 -325 -137q-193 0 -311.5 123t-118.5 319q0 154 70 282.5t191.5 202.5t266.5 74q240 0 336 -145h4l117 598h217zM541 174q142 0 237.5 101.5t95.5 254.5q0 116 -69.5 186t-186.5 70q-141 0 -237 -100t-96 -254q0 -116 70 -187t186 -71z
M1262 1032l139 402h225l-190 -402h-174z" />
    <glyph glyph-name="Dcroat" unicode="&#x110;" horiz-adv-x="1515" 
d="M356 1360h484q308 0 478.5 -151.5t170.5 -422.5q0 -365 -215.5 -575.5t-589.5 -210.5h-592l113 584h-144l39 207h146zM381 219h309q254 0 402.5 146.5t148.5 396.5q0 183 -112 281t-324 98h-246l-67 -350h344l-41 -207h-344z" />
    <glyph glyph-name="dcroat" unicode="&#x111;" horiz-adv-x="1232" 
d="M989 0h-180l16 117h-4q-125 -137 -325 -137q-193 0 -311.5 123t-118.5 319q0 154 70 282.5t191.5 202.5t266.5 74q240 0 336 -145h4l47 245h-346l33 162h346l37 191h217l-37 -191h149l-32 -162h-148zM541 174q142 0 237.5 101.5t95.5 254.5q0 116 -69.5 186t-186.5 70
q-141 0 -237 -100t-96 -254q0 -116 70 -187t186 -71z" />
    <glyph glyph-name="Emacron" unicode="&#x112;" horiz-adv-x="1257" 
d="M526 1141l-67 -350h612l-41 -213h-612l-70 -359h758l-41 -219h-1006l265 1360h1005l-41 -219h-762zM532 1552l33 177h668l-33 -177h-668z" />
    <glyph glyph-name="emacron" unicode="&#x113;" horiz-adv-x="1128" 
d="M623 791q-109 0 -193 -58t-119 -158h555q-1 100 -67 158t-176 58zM1040 414h-755q6 -113 91 -178.5t224 -65.5q196 0 354 137h11l-47 -244q-132 -83 -343 -83q-235 0 -372 121t-137 321q0 243 161 401t410 158q201 0 315.5 -103t114.5 -276q0 -68 -27 -188zM375 1169
l33 177h667l-33 -177h-667z" />
    <glyph glyph-name="Ebreve" unicode="&#x114;" horiz-adv-x="1257" 
d="M526 1141l-67 -350h612l-41 -213h-612l-70 -359h758l-41 -219h-1006l265 1360h1005l-41 -219h-762zM1102 1815h160q-69 -322 -383 -322q-152 0 -232 77t-80 214v31h160q0 -148 160 -148q157 0 215 148z" />
    <glyph glyph-name="ebreve" unicode="&#x115;" horiz-adv-x="1128" 
d="M623 791q-109 0 -193 -58t-119 -158h555q-1 100 -67 158t-176 58zM1040 414h-755q6 -113 91 -178.5t224 -65.5q196 0 354 137h11l-47 -244q-132 -83 -343 -83q-235 0 -372 121t-137 321q0 243 161 401t410 158q201 0 315.5 -103t114.5 -276q0 -68 -27 -188zM944 1432h160
q-69 -322 -383 -322q-151 0 -231 77t-80 214v31h159q0 -148 160 -148q157 0 215 148z" />
    <glyph glyph-name="Edotaccent" unicode="&#x116;" horiz-adv-x="1257" 
d="M526 1141l-67 -350h612l-41 -213h-612l-70 -359h758l-41 -219h-1006l265 1360h1005l-41 -219h-762zM893 1784q60 0 95.5 -34.5t35.5 -90.5q0 -69 -44 -112.5t-110 -43.5q-58 0 -93.5 33.5t-35.5 89.5q0 68 44 113t108 45z" />
    <glyph glyph-name="edotaccent" unicode="&#x117;" horiz-adv-x="1128" 
d="M623 791q-109 0 -193 -58t-119 -158h555q-1 100 -67 158t-176 58zM1040 414h-755q6 -113 91 -178.5t224 -65.5q196 0 354 137h11l-47 -244q-132 -83 -343 -83q-235 0 -372 121t-137 321q0 243 161 401t410 158q201 0 315.5 -103t114.5 -276q0 -68 -27 -188zM735 1401
q60 0 95.5 -34.5t35.5 -90.5q0 -69 -43.5 -112.5t-109.5 -43.5q-58 0 -93.5 33.5t-35.5 89.5q0 68 43.5 113t107.5 45z" />
    <glyph glyph-name="Eogonek" unicode="&#x118;" horiz-adv-x="1257" 
d="M459 791h612l-41 -213h-612l-70 -359h758l-41 -219h-64q-100 -40 -152 -97.5t-52 -105.5q0 -29 19 -45t52 -16q76 0 148 55h8l-33 -170q-67 -31 -162 -31t-148.5 44t-53.5 116q0 147 161 246v4h-729l265 1360h1005l-41 -219h-762z" />
    <glyph glyph-name="eogonek" unicode="&#x119;" horiz-adv-x="1128" 
d="M1067 602q0 -68 -27 -188h-755q6 -113 91 -178.5t224 -65.5q196 0 354 137h11l-47 -244q-17 -11 -38.5 -21t-50 -22t-45.5 -20q-182 -85 -182 -197q0 -31 20.5 -49t55.5 -18q76 0 145 55h8l-32 -170q-54 -31 -162 -31q-95 0 -150 46t-55 120q0 124 129 219v5
q-230 4 -362.5 124.5t-132.5 317.5q0 243 161 401t410 158q201 0 315.5 -103t114.5 -276zM623 791q-109 0 -193 -58t-119 -158h555q-1 100 -67 158t-176 58z" />
    <glyph glyph-name="Ecaron" unicode="&#x11a;" horiz-adv-x="1257" 
d="M526 1141l-67 -350h612l-41 -213h-612l-70 -359h758l-41 -219h-1006l265 1360h1005l-41 -219h-762zM956 1483h-211l-188 346h195l116 -193l189 193h223z" />
    <glyph glyph-name="ecaron" unicode="&#x11b;" horiz-adv-x="1128" 
d="M623 791q-109 0 -193 -58t-119 -158h555q-1 100 -67 158t-176 58zM1040 414h-755q6 -113 91 -178.5t224 -65.5q196 0 354 137h11l-47 -244q-132 -83 -343 -83q-235 0 -372 121t-137 321q0 243 161 401t410 158q201 0 315.5 -103t114.5 -276q0 -68 -27 -188zM799 1100
h-211l-189 346h195l117 -193l188 193h223z" />
    <glyph glyph-name="Gcircumflex" unicode="&#x11c;" horiz-adv-x="1437" 
d="M928 1380q350 0 526 -131l-49 -252h-12q-149 164 -467 164q-254 0 -414 -154.5t-160 -400.5q0 -188 121.5 -297.5t333.5 -109.5q125 0 213 32l55 277h-350l43 213h586l-121 -627q-111 -63 -209.5 -88.5t-241.5 -25.5q-314 0 -497 162.5t-183 437.5q0 234 105 416.5
t293 283t428 100.5zM1006 1673l-189 -190h-223l321 346h211l191 -346h-195z" />
    <glyph glyph-name="gcircumflex" unicode="&#x11d;" horiz-adv-x="1210" 
d="M1176 961l-175 -891q-45 -230 -194.5 -355t-388.5 -125q-269 0 -402 123l41 213h11q110 -141 348 -141q312 0 375 307h-5q-118 -100 -286 -100q-194 0 -313 122.5t-119 315.5q0 151 69.5 278t190.5 200t266 73q132 0 222 -46t132 -130h4l37 156h187zM545 186
q140 0 234.5 98.5t94.5 247.5q0 114 -70 184t-186 70q-140 0 -234.5 -98.5t-94.5 -247.5q0 -114 69.5 -184t186.5 -70zM745 1290l-188 -190h-223l321 346h211l191 -346h-195z" />
    <glyph glyph-name="Gbreve" unicode="&#x11e;" horiz-adv-x="1437" 
d="M928 1380q350 0 526 -131l-49 -252h-12q-149 164 -467 164q-254 0 -414 -154.5t-160 -400.5q0 -188 121.5 -297.5t333.5 -109.5q125 0 213 32l55 277h-350l43 213h586l-121 -627q-111 -63 -209.5 -88.5t-241.5 -25.5q-314 0 -497 162.5t-183 437.5q0 234 105 416.5
t293 283t428 100.5zM1210 1815h160q-69 -322 -383 -322q-151 0 -231 77t-80 214v31h160q0 -148 159 -148q157 0 215 148z" />
    <glyph glyph-name="gbreve" unicode="&#x11f;" horiz-adv-x="1210" 
d="M1176 961l-175 -891q-45 -230 -194.5 -355t-388.5 -125q-269 0 -402 123l41 213h11q110 -141 348 -141q312 0 375 307h-5q-118 -100 -286 -100q-194 0 -313 122.5t-119 315.5q0 151 69.5 278t190.5 200t266 73q132 0 222 -46t132 -130h4l37 156h187zM545 186
q140 0 234.5 98.5t94.5 247.5q0 114 -70 184t-186 70q-140 0 -234.5 -98.5t-94.5 -247.5q0 -114 69.5 -184t186.5 -70zM950 1432h160q-69 -322 -383 -322q-151 0 -231 77t-80 214v31h159q0 -148 160 -148q157 0 215 148z" />
    <glyph glyph-name="Gdotaccent" unicode="&#x120;" horiz-adv-x="1437" 
d="M928 1380q350 0 526 -131l-49 -252h-12q-149 164 -467 164q-254 0 -414 -154.5t-160 -400.5q0 -188 121.5 -297.5t333.5 -109.5q125 0 213 32l55 277h-350l43 213h586l-121 -627q-111 -63 -209.5 -88.5t-241.5 -25.5q-314 0 -497 162.5t-183 437.5q0 234 105 416.5
t293 283t428 100.5zM1001 1784q60 0 96 -34.5t36 -90.5q0 -69 -43.5 -112.5t-110.5 -43.5q-58 0 -93.5 33.5t-35.5 89.5q0 68 43.5 113t107.5 45z" />
    <glyph glyph-name="gdotaccent" unicode="&#x121;" horiz-adv-x="1210" 
d="M1176 961l-175 -891q-45 -230 -194.5 -355t-388.5 -125q-269 0 -402 123l41 213h11q110 -141 348 -141q312 0 375 307h-5q-118 -100 -286 -100q-194 0 -313 122.5t-119 315.5q0 151 69.5 278t190.5 200t266 73q132 0 222 -46t132 -130h4l37 156h187zM545 186
q140 0 234.5 98.5t94.5 247.5q0 114 -70 184t-186 70q-140 0 -234.5 -98.5t-94.5 -247.5q0 -114 69.5 -184t186.5 -70zM741 1401q60 0 95.5 -34.5t35.5 -90.5q0 -69 -43.5 -112.5t-109.5 -43.5q-58 0 -93.5 33.5t-35.5 89.5q0 68 43.5 113t107.5 45z" />
    <glyph glyph-name="uni0122" unicode="&#x122;" horiz-adv-x="1437" 
d="M928 1380q350 0 526 -131l-49 -252h-12q-149 164 -467 164q-254 0 -414 -154.5t-160 -400.5q0 -188 121.5 -297.5t333.5 -109.5q125 0 213 32l55 277h-350l43 213h586l-121 -627q-111 -63 -209.5 -88.5t-241.5 -25.5q-314 0 -497 162.5t-183 437.5q0 234 105 416.5
t293 283t428 100.5zM266 -430l262 303h244l-293 -303h-213z" />
    <glyph glyph-name="uni0123" unicode="&#x123;" horiz-adv-x="1210" 
d="M1110 1446l-301 -346h-244l332 346h213zM1176 961l-175 -891q-45 -230 -194.5 -355t-388.5 -125q-269 0 -402 123l41 213h11q110 -141 348 -141q312 0 375 307h-5q-118 -100 -286 -100q-194 0 -313 122.5t-119 315.5q0 151 69.5 278t190.5 200t266 73q132 0 222 -46
t132 -130h4l37 156h187zM545 186q140 0 234.5 98.5t94.5 247.5q0 114 -70 184t-186 70q-140 0 -234.5 -98.5t-94.5 -247.5q0 -114 69.5 -184t186.5 -70z" />
    <glyph glyph-name="Hcircumflex" unicode="&#x124;" horiz-adv-x="1503" 
d="M1257 0h-245l112 578h-706l-113 -578h-246l265 1360h245l-108 -563h706l109 563h246zM995 1673l-188 -190h-223l321 346h211l191 -346h-195z" />
    <glyph glyph-name="hcircumflex" unicode="&#x125;" horiz-adv-x="1136" 
d="M729 981q156 0 241 -83t85 -232q0 -57 -11 -111l-108 -555h-217l104 539q8 39 8 71q0 86 -47 131t-135 45q-115 0 -194 -74t-105 -208l-98 -504h-217l278 1434h217l-110 -570h4q120 117 305 117zM492 1737l-189 -191h-223l321 346h211l191 -346h-195z" />
    <glyph glyph-name="Hbar" unicode="&#x126;" horiz-adv-x="1511" 
d="M1262 0h-246l112 578h-706l-113 -578h-246l187 963h-109l37 182h109l41 215h245l-41 -215h707l41 215h246l-41 -215h110l-36 -182h-111zM465 797h706l33 166h-706z" />
    <glyph glyph-name="hbar" unicode="&#x127;" horiz-adv-x="1148" 
d="M741 981q156 0 241 -83t85 -232q0 -62 -10 -111l-109 -555h-217l105 539q8 39 8 71q0 86 -47 131t-135 45q-116 0 -195 -74.5t-105 -207.5l-98 -504h-217l211 1081h-135l33 162h133l37 191h217l-37 -191h325l-30 -162h-326l-43 -217h4q120 117 305 117z" />
    <glyph glyph-name="Itilde" unicode="&#x128;" horiz-adv-x="550" 
d="M59 0l265 1360h245l-264 -1360h-246zM864 1806l-30 -194q-35 -50 -87 -77.5t-110 -27.5q-80 0 -162 56q-38 26 -63.5 35.5t-57.5 9.5q-110 0 -202 -127h-9l29 192q77 107 201 107q80 0 159 -56q36 -26 62 -35.5t59 -9.5q111 0 203 127h8z" />
    <glyph glyph-name="itilde" unicode="&#x129;" horiz-adv-x="473" 
d="M35 0l186 961h217l-186 -961h-217zM750 1423l-31 -194q-35 -50 -87 -77.5t-110 -27.5q-80 0 -162 56q-38 26 -63 35.5t-57 9.5q-111 0 -203 -127h-8l28 192q77 107 201 107q81 0 160 -56q36 -26 62 -35.5t59 -9.5q110 0 202 127h9z" />
    <glyph glyph-name="Imacron" unicode="&#x12a;" horiz-adv-x="550" 
d="M59 0l265 1360h245l-264 -1360h-246zM154 1552l32 177h668l-33 -177h-667z" />
    <glyph glyph-name="imacron" unicode="&#x12b;" horiz-adv-x="473" 
d="M35 0l186 961h217l-186 -961h-217zM39 1169l33 177h667l-32 -177h-668z" />
    <glyph glyph-name="Ibreve" unicode="&#x12c;" horiz-adv-x="550" 
d="M59 0l265 1360h245l-264 -1360h-246zM723 1815h160q-69 -322 -383 -322q-152 0 -232 77t-80 214v31h160q0 -148 160 -148q157 0 215 148z" />
    <glyph glyph-name="ibreve" unicode="&#x12d;" horiz-adv-x="473" 
d="M35 0l186 961h217l-186 -961h-217zM608 1432h160q-69 -322 -383 -322q-151 0 -231 77t-80 214v31h159q0 -148 160 -148q157 0 215 148z" />
    <glyph glyph-name="Iogonek" unicode="&#x12e;" horiz-adv-x="550" 
d="M305 0h-55q-96 -47 -140 -101t-44 -102q0 -29 19 -45t52 -16q79 0 148 55h8l-33 -170q-54 -31 -162 -31q-95 0 -148.5 44t-53.5 116q0 146 163 250l265 1360h245z" />
    <glyph glyph-name="iogonek" unicode="&#x12f;" horiz-adv-x="473" 
d="M252 0h-59q-96 -47 -140.5 -101t-44.5 -102q0 -29 19.5 -45t52.5 -16q78 0 147 55h9l-33 -170q-54 -31 -162 -31q-95 0 -149 44t-54 116q0 162 201 273l182 938h217zM399 1399q58 0 91.5 -34.5t33.5 -90.5q0 -67 -41.5 -109.5t-105.5 -42.5q-58 0 -92.5 33.5t-34.5 87.5
q0 68 42.5 112t106.5 44z" />
    <glyph glyph-name="Idotaccent" unicode="&#x130;" horiz-adv-x="550" 
d="M59 0l265 1360h245l-264 -1360h-246zM514 1784q60 0 95.5 -34.5t35.5 -90.5q0 -69 -43.5 -112.5t-109.5 -43.5q-59 0 -94.5 34t-35.5 89q0 68 44 113t108 45z" />
    <glyph glyph-name="dotlessi" unicode="&#x131;" horiz-adv-x="473" 
d="M35 0l186 961h217l-186 -961h-217z" />
    <glyph glyph-name="IJ" unicode="&#x132;" horiz-adv-x="1595" 
d="M59 0l265 1360h245l-264 -1360h-246zM1645 1360l-175 -895q-49 -250 -186.5 -367.5t-376.5 -117.5q-118 0 -213.5 33t-158.5 93l45 240h12q46 -70 125 -108.5t180 -38.5q277 0 334 299l168 862h246z" />
    <glyph glyph-name="ij" unicode="&#x133;" horiz-adv-x="946" 
d="M399 1399q58 0 91.5 -34.5t33.5 -90.5q0 -67 -41.5 -109.5t-105.5 -42.5q-58 0 -92.5 33.5t-34.5 87.5q0 68 42.5 112t106.5 44zM35 0l186 961h217l-186 -961h-217zM872 1399q58 0 91.5 -34.5t33.5 -90.5q0 -67 -41.5 -109.5t-105.5 -42.5q-58 0 -92.5 33.5t-34.5 87.5
q0 68 42.5 112t106.5 44zM911 961l-211 -1084q-56 -287 -299 -287q-79 0 -141 27l37 197h10q33 -29 70 -29q47 0 72.5 28t37.5 89l207 1059h217z" />
    <glyph glyph-name="Jcircumflex" unicode="&#x134;" horiz-adv-x="1044" 
d="M1094 1360l-174 -895q-49 -249 -187 -367t-377 -118q-118 0 -213.5 33t-158.5 93l45 240h12q46 -70 125 -108.5t180 -38.5q277 0 334 299l168 862h246zM1042 1673l-188 -190h-223l321 346h211l191 -346h-195z" />
    <glyph glyph-name="jcircumflex" unicode="&#x135;" horiz-adv-x="473" 
d="M438 961l-211 -1084q-56 -287 -299 -287q-79 0 -141 27l37 197h10q33 -29 70 -29q47 0 72.5 28t37.5 89l207 1059h217zM403 1290l-188 -190h-223l321 346h211l191 -346h-195z" />
    <glyph glyph-name="uni0136" unicode="&#x136;" horiz-adv-x="1343" 
d="M1212 0h-303l-483 616l-121 -616h-246l265 1360h245l-114 -588l669 588h336l-801 -682zM190 -430l263 303h243l-293 -303h-213z" />
    <glyph glyph-name="uni0137" unicode="&#x137;" horiz-adv-x="1050" 
d="M930 0h-268l-326 428l-84 -428h-217l278 1434h217l-170 -873l447 400h295l-557 -482zM47 -430l262 303h244l-293 -303h-213z" />
    <glyph glyph-name="kgreenlandic" unicode="&#x138;" horiz-adv-x="1050" 
d="M930 0h-268l-326 428l-84 -428h-217l186 961h217l-78 -400l447 400h295l-557 -482z" />
    <glyph glyph-name="Lacute" unicode="&#x139;" horiz-adv-x="1183" 
d="M1036 0h-977l265 1360h245l-221 -1141h731zM344 1483l303 346h256l-336 -346h-223z" />
    <glyph glyph-name="lacute" unicode="&#x13a;" horiz-adv-x="473" 
d="M35 0l278 1434h217l-278 -1434h-217zM317 1546l304 346h256l-336 -346h-224z" />
    <glyph glyph-name="uni013B" unicode="&#x13b;" horiz-adv-x="1183" 
d="M1036 0h-977l265 1360h245l-221 -1141h731zM143 -430l263 303h243l-293 -303h-213z" />
    <glyph glyph-name="uni013C" unicode="&#x13c;" horiz-adv-x="473" 
d="M35 0l278 1434h217l-278 -1434h-217zM-260 -430l262 303h244l-293 -303h-213z" />
    <glyph glyph-name="Lcaron" unicode="&#x13d;" horiz-adv-x="1183" 
d="M1036 0h-977l265 1360h245l-221 -1141h731zM655 1032l140 402h225l-191 -402h-174z" />
    <glyph glyph-name="lcaron" unicode="&#x13e;" horiz-adv-x="473" 
d="M35 0l278 1434h217l-278 -1434h-217zM524 1032l140 402h225l-191 -402h-174z" />
    <glyph glyph-name="Ldot" unicode="&#x13f;" horiz-adv-x="1183" 
d="M1036 0h-977l265 1360h245l-221 -1141h731zM911 821q60 0 95.5 -34.5t35.5 -90.5q0 -68 -43 -111.5t-110 -43.5q-58 0 -93.5 33.5t-35.5 89.5q0 68 43.5 112.5t107.5 44.5z" />
    <glyph glyph-name="ldot" unicode="&#x140;" horiz-adv-x="620" 
d="M35 0l278 1434h217l-278 -1434h-217zM602 821q60 0 95.5 -34.5t35.5 -90.5q0 -68 -43.5 -111.5t-109.5 -43.5q-58 0 -93.5 33.5t-35.5 89.5q0 68 43.5 112.5t107.5 44.5z" />
    <glyph glyph-name="Lslash" unicode="&#x141;" horiz-adv-x="1214" 
d="M92 0l78 403l-162 -84l45 230l162 84l141 727h246l-113 -586l558 291l-43 -229l-560 -291l-63 -326h731l-43 -219h-977z" />
    <glyph glyph-name="lslash" unicode="&#x142;" horiz-adv-x="528" 
d="M395 631l-123 -631h-217l97 500l-154 -82l49 233l150 80l137 703h217l-111 -574l183 98l-48 -231z" />
    <glyph glyph-name="Nacute" unicode="&#x143;" horiz-adv-x="1513" 
d="M1268 0h-287l-467 1106h-4l-213 -1106h-238l265 1360h327l443 -1028h4l196 1028h238zM825 1483l303 346h256l-335 -346h-224z" />
    <glyph glyph-name="nacute" unicode="&#x144;" horiz-adv-x="1136" 
d="M729 981q156 0 241 -83t85 -232q0 -57 -11 -111l-108 -555h-217l104 539q8 39 8 71q0 85 -47 130.5t-135 45.5q-116 0 -195 -74.5t-104 -207.5l-98 -504h-217l186 961h182l-22 -140h4q123 160 344 160zM561 1100l303 346h256l-336 -346h-223z" />
    <glyph glyph-name="uni0145" unicode="&#x145;" horiz-adv-x="1513" 
d="M1268 0h-287l-467 1106h-4l-213 -1106h-238l265 1360h327l443 -1028h4l196 1028h238zM260 -430l262 303h244l-293 -303h-213z" />
    <glyph glyph-name="uni0146" unicode="&#x146;" horiz-adv-x="1136" 
d="M729 981q156 0 241 -83t85 -232q0 -57 -11 -111l-108 -555h-217l104 539q8 39 8 71q0 85 -47 130.5t-135 45.5q-116 0 -195 -74.5t-104 -207.5l-98 -504h-217l186 961h182l-22 -140h4q123 160 344 160zM82 -430l262 303h244l-293 -303h-213z" />
    <glyph glyph-name="Ncaron" unicode="&#x147;" horiz-adv-x="1513" 
d="M1268 0h-287l-467 1106h-4l-213 -1106h-238l265 1360h327l443 -1028h4l196 1028h238zM1059 1483h-211l-189 346h195l117 -193l188 193h223z" />
    <glyph glyph-name="ncaron" unicode="&#x148;" horiz-adv-x="1136" 
d="M729 981q156 0 241 -83t85 -232q0 -57 -11 -111l-108 -555h-217l104 539q8 39 8 71q0 85 -47 130.5t-135 45.5q-116 0 -195 -74.5t-104 -207.5l-98 -504h-217l186 961h182l-22 -140h4q123 160 344 160zM795 1100h-211l-189 346h195l117 -193l188 193h223z" />
    <glyph glyph-name="napostrophe" unicode="&#x149;" horiz-adv-x="1136" 
d="M219 1434h203q-42 -227 -141 -353h-170q92 160 108 353zM729 981q156 0 241 -83t85 -232q0 -57 -11 -111l-108 -555h-217l104 539q8 39 8 71q0 85 -47 130.5t-135 45.5q-116 0 -195 -74.5t-104 -207.5l-98 -504h-217l186 961h182l-22 -140h4q123 160 344 160z" />
    <glyph glyph-name="Eng" unicode="&#x14a;" horiz-adv-x="1513" 
d="M1532 1360l-289 -1483q-30 -155 -106 -221t-211 -66q-75 0 -152 25l41 211h10q31 -25 74 -25q45 0 74.5 26.5t38.5 74.5l24 133l-518 1091h-4l-217 -1126h-238l265 1360h338l448 -938h4l180 938h238z" />
    <glyph glyph-name="eng" unicode="&#x14b;" horiz-adv-x="1138" 
d="M729 981q156 0 241 -83t85 -232q0 -57 -11 -111l-133 -678q-57 -287 -299 -287q-81 0 -143 27l39 197h10q29 -29 70 -29q88 0 110 117l125 637q8 39 8 71q0 85 -47 130.5t-135 45.5q-115 0 -194 -74t-105 -208l-98 -504h-217l186 961h182l-22 -138h4q124 158 344 158z
" />
    <glyph glyph-name="Omacron" unicode="&#x14c;" horiz-adv-x="1560" 
d="M893 1380q290 0 465.5 -170.5t175.5 -443.5q0 -220 -103 -400t-284 -283t-402 -103q-290 0 -465.5 170.5t-175.5 443.5q0 166 61 312t166 250t251 164t311 60zM881 1161q-112 0 -210 -42.5t-168 -116t-110.5 -177.5t-40.5 -223q0 -182 110.5 -292.5t297.5 -110.5
q224 0 375 159.5t151 395.5q0 184 -110 295.5t-295 111.5zM657 1552l33 177h668l-33 -177h-668z" />
    <glyph glyph-name="omacron" unicode="&#x14d;" horiz-adv-x="1159" 
d="M629 981q211 0 338 -122.5t127 -321.5q0 -238 -161.5 -397.5t-402.5 -159.5q-210 0 -337 123.5t-127 322.5q0 236 162 395.5t401 159.5zM618 786q-141 0 -237 -100t-96 -254q0 -116 70 -187t186 -71q142 0 237.5 101.5t95.5 254.5q0 116 -69.5 186t-186.5 70zM383 1169
l33 177h667l-32 -177h-668z" />
    <glyph glyph-name="Obreve" unicode="&#x14e;" horiz-adv-x="1560" 
d="M893 1380q290 0 465.5 -170.5t175.5 -443.5q0 -220 -103 -400t-284 -283t-402 -103q-290 0 -465.5 170.5t-175.5 443.5q0 166 61 312t166 250t251 164t311 60zM881 1161q-112 0 -210 -42.5t-168 -116t-110.5 -177.5t-40.5 -223q0 -182 110.5 -292.5t297.5 -110.5
q224 0 375 159.5t151 395.5q0 184 -110 295.5t-295 111.5zM1227 1815h159q-69 -322 -382 -322q-152 0 -232 77t-80 214v31h160q0 -148 160 -148q157 0 215 148z" />
    <glyph glyph-name="obreve" unicode="&#x14f;" horiz-adv-x="1159" 
d="M629 981q211 0 338 -122.5t127 -321.5q0 -238 -161.5 -397.5t-402.5 -159.5q-210 0 -337 123.5t-127 322.5q0 236 162 395.5t401 159.5zM618 786q-141 0 -237 -100t-96 -254q0 -116 70 -187t186 -71q142 0 237.5 101.5t95.5 254.5q0 116 -69.5 186t-186.5 70zM952 1432
h160q-69 -322 -383 -322q-151 0 -231 77t-80 214v31h160q0 -148 159 -148q157 0 215 148z" />
    <glyph glyph-name="Ohungarumlaut" unicode="&#x150;" horiz-adv-x="1560" 
d="M893 1380q290 0 465.5 -170.5t175.5 -443.5q0 -220 -103 -400t-284 -283t-402 -103q-290 0 -465.5 170.5t-175.5 443.5q0 166 61 312t166 250t251 164t311 60zM881 1161q-112 0 -210 -42.5t-168 -116t-110.5 -177.5t-40.5 -223q0 -182 110.5 -292.5t297.5 -110.5
q224 0 375 159.5t151 395.5q0 184 -110 295.5t-295 111.5zM651 1483l301 346h244l-332 -346h-213zM1047 1483l301 346h243l-336 -346h-208z" />
    <glyph glyph-name="ohungarumlaut" unicode="&#x151;" horiz-adv-x="1159" 
d="M629 981q211 0 338 -122.5t127 -321.5q0 -238 -161.5 -397.5t-402.5 -159.5q-210 0 -337 123.5t-127 322.5q0 236 162 395.5t401 159.5zM618 786q-141 0 -237 -100t-96 -254q0 -116 70 -187t186 -71q142 0 237.5 101.5t95.5 254.5q0 116 -69.5 186t-186.5 70zM377 1100
l301 346h244l-332 -346h-213zM772 1100l301 346h244l-336 -346h-209z" />
    <glyph glyph-name="OE" unicode="&#x152;" horiz-adv-x="2179" 
d="M1384 791h615l-43 -213h-613l-69 -359h758l-41 -219h-1243q-310 0 -480 152t-170 426q0 361 216.5 571.5t588.5 210.5h1352l-41 -219h-762zM1206 1141h-309q-255 0 -403 -145.5t-148 -397.5q0 -183 112 -281t324 -98h246z" />
    <glyph glyph-name="oe" unicode="&#x153;" horiz-adv-x="1931" 
d="M541 174q143 0 238 101.5t95 254.5q0 116 -69.5 186t-186.5 70q-141 0 -237 -101t-96 -253q0 -116 70 -187t186 -71zM1425 791q-109 0 -192.5 -58t-118.5 -158h555q-1 100 -67.5 158t-176.5 58zM1767 307l-47 -244q-132 -83 -321 -83q-165 0 -277.5 56.5t-165.5 162.5h-4
q-70 -106 -182 -162.5t-258 -56.5q-201 0 -323.5 123t-122.5 321q0 155 71 283t196 201t277 73q143 0 244.5 -57.5t151.5 -161.5h4q69 105 181.5 162t254.5 57q197 0 310.5 -102.5t113.5 -276.5q0 -68 -27 -188h-756q6 -112 91 -178t225 -66q196 0 354 137h10z" />
    <glyph glyph-name="Racute" unicode="&#x154;" horiz-adv-x="1359" 
d="M324 1360h567q223 0 339 -95t116 -278q0 -200 -99 -321.5t-291 -155.5l244 -510h-270l-215 498h-314l-96 -498h-246zM1098 965q0 89 -58.5 132.5t-179.5 43.5h-334l-82 -424h363q144 0 217.5 63t73.5 185zM719 1483l303 346h256l-336 -346h-223z" />
    <glyph glyph-name="racute" unicode="&#x155;" horiz-adv-x="784" 
d="M700 981q95 0 150 -41l-45 -211h-10q-42 45 -133 45q-131 0 -212 -87.5t-116 -268.5l-82 -418h-217l186 961h182l-20 -136h4q111 156 313 156zM399 1100l303 346h256l-335 -346h-224z" />
    <glyph glyph-name="uni0156" unicode="&#x156;" horiz-adv-x="1359" 
d="M324 1360h567q223 0 339 -95t116 -278q0 -200 -99 -321.5t-291 -155.5l244 -510h-270l-215 498h-314l-96 -498h-246zM1098 965q0 89 -58.5 132.5t-179.5 43.5h-334l-82 -424h363q144 0 217.5 63t73.5 185zM205 -430l262 303h244l-293 -303h-213z" />
    <glyph glyph-name="uni0157" unicode="&#x157;" horiz-adv-x="784" 
d="M700 981q95 0 150 -41l-45 -211h-10q-42 45 -133 45q-131 0 -212 -87.5t-116 -268.5l-82 -418h-217l186 961h182l-20 -136h4q111 156 313 156zM-260 -430l262 303h244l-293 -303h-213z" />
    <glyph glyph-name="Rcaron" unicode="&#x158;" horiz-adv-x="1359" 
d="M324 1360h567q223 0 339 -95t116 -278q0 -200 -99 -321.5t-291 -155.5l244 -510h-270l-215 498h-314l-96 -498h-246zM1098 965q0 89 -58.5 132.5t-179.5 43.5h-334l-82 -424h363q144 0 217.5 63t73.5 185zM952 1483h-211l-188 346h195l116 -193l189 193h223z" />
    <glyph glyph-name="rcaron" unicode="&#x159;" horiz-adv-x="784" 
d="M700 981q95 0 150 -41l-45 -211h-10q-42 45 -133 45q-131 0 -212 -87.5t-116 -268.5l-82 -418h-217l186 961h182l-20 -136h4q111 156 313 156zM633 1100h-211l-189 346h195l117 -193l188 193h223z" />
    <glyph glyph-name="Sacute" unicode="&#x15a;" horiz-adv-x="1198" 
d="M737 1380q148 0 279 -33t188 -85l-47 -248h-12q-61 70 -173 108.5t-253 38.5q-138 0 -222.5 -57.5t-84.5 -151.5q0 -66 60 -99.5t220 -53.5q243 -30 346 -114t103 -241q0 -219 -153 -341.5t-425 -122.5q-172 0 -315 36t-223 99l47 252h12q79 -82 204.5 -125t282.5 -43
q152 0 238 56.5t86 154.5q0 70 -64 107t-231 58q-235 30 -334.5 108t-99.5 226q0 217 153.5 344t417.5 127zM668 1483l303 346h256l-336 -346h-223z" />
    <glyph glyph-name="sacute" unicode="&#x15b;" horiz-adv-x="890" 
d="M518 981q101 0 193.5 -22.5t138.5 -57.5l-39 -211h-10q-91 101 -287 101q-89 0 -144 -35t-55 -92q0 -36 37 -54.5t133 -25.5q175 -13 249.5 -75t74.5 -185q0 -161 -111.5 -252.5t-306.5 -91.5q-255 0 -389 92l45 223h10q111 -123 336 -123q94 0 147.5 33.5t53.5 93.5
q0 42 -39.5 63.5t-144.5 30.5q-167 13 -239.5 70.5t-72.5 171.5q0 158 114.5 252t305.5 94zM432 1100l303 346h256l-336 -346h-223z" />
    <glyph glyph-name="Scircumflex" unicode="&#x15c;" horiz-adv-x="1198" 
d="M737 1380q148 0 279 -33t188 -85l-47 -248h-12q-61 70 -173 108.5t-253 38.5q-138 0 -222.5 -57.5t-84.5 -151.5q0 -66 60 -99.5t220 -53.5q243 -30 346 -114t103 -241q0 -219 -153 -341.5t-425 -122.5q-172 0 -315 36t-223 99l47 252h12q79 -82 204.5 -125t282.5 -43
q152 0 238 56.5t86 154.5q0 70 -64 107t-231 58q-235 30 -334.5 108t-99.5 226q0 217 153.5 344t417.5 127zM842 1673l-189 -190h-223l322 346h211l190 -346h-195z" />
    <glyph glyph-name="scircumflex" unicode="&#x15d;" horiz-adv-x="890" 
d="M518 981q101 0 193.5 -22.5t138.5 -57.5l-39 -211h-10q-91 101 -287 101q-89 0 -144 -35t-55 -92q0 -36 37 -54.5t133 -25.5q175 -13 249.5 -75t74.5 -185q0 -161 -111.5 -252.5t-306.5 -91.5q-255 0 -389 92l45 223h10q111 -123 336 -123q94 0 147.5 33.5t53.5 93.5
q0 42 -39.5 63.5t-144.5 30.5q-167 13 -239.5 70.5t-72.5 171.5q0 158 114.5 252t305.5 94zM606 1290l-188 -190h-223l321 346h211l191 -346h-195z" />
    <glyph glyph-name="Scedilla" unicode="&#x15e;" horiz-adv-x="1198" 
d="M25 115l47 252h12q79 -82 204.5 -125t282.5 -43q152 0 238 56.5t86 154.5q0 70 -64 107t-231 58q-235 30 -334.5 108t-99.5 226q0 217 153.5 344t417.5 127q148 0 279 -33t188 -85l-47 -248h-12q-61 70 -173 108.5t-253 38.5q-138 0 -222.5 -57.5t-84.5 -151.5
q0 -66 60 -99.5t220 -53.5q243 -30 346 -114t103 -241q0 -217 -149 -339t-414 -125l-66 -86v-5q81 -6 121.5 -39.5t40.5 -89.5q0 -170 -248 -170q-114 0 -186 35l28 127h8q56 -41 150 -41q41 0 61.5 17t20.5 41q0 47 -70 47q-31 0 -88 -17v29l117 156q-142 9 -257.5 43
t-184.5 88z" />
    <glyph glyph-name="scedilla" unicode="&#x15f;" horiz-adv-x="890" 
d="M2 72l45 223h10q111 -123 336 -123q94 0 147.5 33.5t53.5 93.5q0 42 -39.5 63.5t-144.5 30.5q-167 13 -239.5 70.5t-72.5 171.5q0 158 114.5 252t305.5 94q101 0 193.5 -22.5t138.5 -57.5l-39 -211h-10q-91 101 -287 101q-89 0 -144 -35t-55 -92q0 -36 37 -54.5
t133 -25.5q175 -13 249.5 -75t74.5 -185q0 -155 -102.5 -245.5t-284.5 -98.5l-66 -86v-5q81 -6 121.5 -39.5t40.5 -89.5q0 -170 -248 -170q-114 0 -186 35l29 127h8q56 -41 149 -41q41 0 61.5 17t20.5 41q0 47 -69 47q-31 0 -88 -17v29l116 154q-199 15 -309 90z" />
    <glyph glyph-name="Scaron" unicode="&#x160;" horiz-adv-x="1198" 
d="M737 1380q148 0 279 -33t188 -85l-47 -248h-12q-61 70 -173 108.5t-253 38.5q-138 0 -222.5 -57.5t-84.5 -151.5q0 -66 60 -99.5t220 -53.5q243 -30 346 -114t103 -241q0 -219 -153 -341.5t-425 -122.5q-172 0 -315 36t-223 99l47 252h12q79 -82 204.5 -125t282.5 -43
q152 0 238 56.5t86 154.5q0 70 -64 107t-231 58q-235 30 -334.5 108t-99.5 226q0 217 153.5 344t417.5 127zM901 1483h-211l-188 346h194l117 -193l188 193h224z" />
    <glyph glyph-name="scaron" unicode="&#x161;" horiz-adv-x="890" 
d="M518 981q101 0 193.5 -22.5t138.5 -57.5l-39 -211h-10q-91 101 -287 101q-89 0 -144 -35t-55 -92q0 -36 37 -54.5t133 -25.5q175 -13 249.5 -75t74.5 -185q0 -161 -111.5 -252.5t-306.5 -91.5q-255 0 -389 92l45 223h10q111 -123 336 -123q94 0 147.5 33.5t53.5 93.5
q0 42 -39.5 63.5t-144.5 30.5q-167 13 -239.5 70.5t-72.5 171.5q0 158 114.5 252t305.5 94zM666 1100h-211l-189 346h195l117 -193l188 193h223z" />
    <glyph glyph-name="uni0162" unicode="&#x162;" horiz-adv-x="1206" 
d="M1282 1141h-428l-221 -1141h-55l-78 -106v-5q166 -12 166 -129q0 -170 -248 -170q-115 0 -187 35l29 127h8q56 -41 150 -41q41 0 61.5 17t20.5 41q0 47 -70 47q-31 0 -88 -17v29l123 172h-76l221 1141h-428l41 219h1100z" />
    <glyph glyph-name="uni0163" unicode="&#x163;" horiz-adv-x="778" 
d="M469 772l-84 -434q-6 -24 -6 -47q0 -55 30.5 -86t86.5 -31q86 0 151 59h10l-47 -227q-60 -26 -159 -26q-24 0 -70 4l-68 -90v-5q81 -6 121.5 -39.5t40.5 -89.5q0 -170 -248 -170q-114 0 -186 35l29 127h8q56 -41 149 -41q41 0 61.5 17t20.5 41q0 47 -69 47q-31 0 -88 -17
v29l137 182q-131 58 -131 228q0 38 10 100l84 434h-170l37 189h176l82 264h180l-51 -264h293l-37 -189h-293z" />
    <glyph glyph-name="Tcaron" unicode="&#x164;" horiz-adv-x="1206" 
d="M854 1141l-221 -1141h-244l221 1141h-428l41 219h1100l-41 -219h-428zM905 1483h-211l-188 346h194l117 -193l189 193h223z" />
    <glyph glyph-name="tcaron" unicode="&#x165;" horiz-adv-x="778" 
d="M469 772l-84 -434q-6 -24 -6 -47q0 -55 30.5 -86t86.5 -31q86 0 151 59h10l-47 -227q-60 -26 -159 -26q-145 0 -219 66t-74 192q0 38 10 100l84 434h-170l37 189h176l82 264h180l-51 -264h293l-37 -189h-293zM635 1032l139 402h225l-190 -402h-174z" />
    <glyph glyph-name="Tbar" unicode="&#x166;" horiz-adv-x="1206" 
d="M786 791h246l-37 -183h-243l-119 -608h-244l119 608h-248l37 183h246l67 350h-428l41 219h1100l-41 -219h-428z" />
    <glyph glyph-name="tbar" unicode="&#x167;" horiz-adv-x="800" 
d="M698 608l-32 -159h-256l-21 -111q-6 -24 -6 -47q0 -55 30.5 -86t86.5 -31q86 0 151 59h11l-48 -227q-60 -26 -159 -26q-145 0 -219 66t-74 192q0 38 10 100l21 111h-146l33 159h145l31 164h-170l37 189h176l82 264h180l-51 -264h293l-37 -189h-293l-31 -164h256z" />
    <glyph glyph-name="Utilde" unicode="&#x168;" horiz-adv-x="1417" 
d="M1466 1360l-155 -793q-59 -299 -216.5 -443t-439.5 -144q-254 0 -391 113.5t-137 330.5q0 84 16 160l150 776h246l-150 -776q-12 -65 -12 -117q0 -132 74 -200t215 -68q336 0 413 399l150 762h237zM1296 1806l-30 -194q-35 -50 -87 -77.5t-110 -27.5q-80 0 -162 56
q-38 26 -63.5 35.5t-57.5 9.5q-110 0 -202 -127h-9l29 192q77 107 201 107q81 0 160 -56q36 -26 61.5 -35.5t58.5 -9.5q111 0 203 127h8z" />
    <glyph glyph-name="utilde" unicode="&#x169;" horiz-adv-x="1136" 
d="M915 0h-182l21 137h-4q-123 -157 -342 -157q-156 0 -242 82.5t-86 230.5q0 51 12 113l107 555h217l-105 -545q-6 -38 -6 -66q0 -84 46.5 -130t133.5 -46q116 0 197 75.5t106 205.5l97 506h217zM1075 1423l-31 -194q-75 -105 -196 -105q-80 0 -162 56q-38 26 -63.5 35.5
t-57.5 9.5q-111 0 -203 -127h-8l29 192q77 107 201 107q80 0 159 -56q36 -26 62 -35.5t59 -9.5q111 0 203 127h8z" />
    <glyph glyph-name="Umacron" unicode="&#x16a;" horiz-adv-x="1417" 
d="M1466 1360l-155 -793q-59 -299 -216.5 -443t-439.5 -144q-254 0 -391 113.5t-137 330.5q0 84 16 160l150 776h246l-150 -776q-12 -65 -12 -117q0 -132 74 -200t215 -68q336 0 413 399l150 762h237zM586 1552l32 177h668l-33 -177h-667z" />
    <glyph glyph-name="umacron" unicode="&#x16b;" horiz-adv-x="1136" 
d="M915 0h-182l21 137h-4q-123 -157 -342 -157q-156 0 -242 82.5t-86 230.5q0 51 12 113l107 555h217l-105 -545q-6 -38 -6 -66q0 -84 46.5 -130t133.5 -46q116 0 197 75.5t106 205.5l97 506h217zM365 1169l32 177h668l-33 -177h-667z" />
    <glyph glyph-name="Ubreve" unicode="&#x16c;" horiz-adv-x="1417" 
d="M1466 1360l-155 -793q-59 -299 -216.5 -443t-439.5 -144q-254 0 -391 113.5t-137 330.5q0 84 16 160l150 776h246l-150 -776q-12 -65 -12 -117q0 -132 74 -200t215 -68q336 0 413 399l150 762h237zM1155 1815h160q-69 -322 -383 -322q-151 0 -231 77t-80 214v31h159
q0 -148 160 -148q157 0 215 148z" />
    <glyph glyph-name="ubreve" unicode="&#x16d;" horiz-adv-x="1136" 
d="M915 0h-182l21 137h-4q-123 -157 -342 -157q-156 0 -242 82.5t-86 230.5q0 51 12 113l107 555h217l-105 -545q-6 -38 -6 -66q0 -84 46.5 -130t133.5 -46q116 0 197 75.5t106 205.5l97 506h217zM932 1432h160q-69 -322 -383 -322q-152 0 -232 77t-80 214v31h160
q0 -148 160 -148q157 0 215 148z" />
    <glyph glyph-name="Uring" unicode="&#x16e;" horiz-adv-x="1417" 
d="M1466 1360l-155 -793q-59 -299 -216.5 -443t-439.5 -144q-254 0 -391 113.5t-137 330.5q0 84 16 160l150 776h246l-150 -776q-12 -65 -12 -117q0 -132 74 -200t215 -68q336 0 413 399l150 762h237zM956 1870q87 0 142 -53.5t55 -137.5q0 -100 -67.5 -167.5t-165.5 -67.5
q-86 0 -140.5 53.5t-54.5 136.5q0 100 67.5 168t163.5 68zM948 1745q-40 0 -68 -30t-28 -73q0 -33 20 -53t56 -20q40 0 69 29.5t29 70.5q0 34 -21.5 55t-56.5 21z" />
    <glyph glyph-name="uring" unicode="&#x16f;" horiz-adv-x="1136" 
d="M915 0h-182l21 137h-4q-123 -157 -342 -157q-156 0 -242 82.5t-86 230.5q0 51 12 113l107 555h217l-105 -545q-6 -38 -6 -66q0 -84 46.5 -130t133.5 -46q116 0 197 75.5t106 205.5l97 506h217zM735 1487q87 0 142 -53.5t55 -137.5q0 -100 -68 -167.5t-166 -67.5
q-86 0 -140 53t-54 137q0 100 67.5 168t163.5 68zM727 1362q-40 0 -68 -29.5t-28 -72.5q0 -33 20 -53.5t56 -20.5q40 0 69 29.5t29 70.5q0 34 -21.5 55t-56.5 21z" />
    <glyph glyph-name="Uhungarumlaut" unicode="&#x170;" horiz-adv-x="1417" 
d="M1466 1360l-155 -793q-59 -299 -216.5 -443t-439.5 -144q-254 0 -391 113.5t-137 330.5q0 84 16 160l150 776h246l-150 -776q-12 -65 -12 -117q0 -132 74 -200t215 -68q336 0 413 399l150 762h237zM580 1483l301 346h243l-331 -346h-213zM975 1483l301 346h244l-336 -346
h-209z" />
    <glyph glyph-name="uhungarumlaut" unicode="&#x171;" horiz-adv-x="1136" 
d="M915 0h-182l21 137h-4q-123 -157 -342 -157q-156 0 -242 82.5t-86 230.5q0 51 12 113l107 555h217l-105 -545q-6 -38 -6 -66q0 -84 46.5 -130t133.5 -46q116 0 197 75.5t106 205.5l97 506h217zM350 1100l301 346h244l-332 -346h-213zM745 1100l302 346h243l-336 -346
h-209z" />
    <glyph glyph-name="Uogonek" unicode="&#x172;" horiz-adv-x="1417" 
d="M1466 1360l-155 -793q-42 -214 -131.5 -346t-239.5 -196q-217 -96 -217 -222q0 -31 20.5 -49t55.5 -18q76 0 145 55h8l-32 -170q-54 -31 -162 -31q-95 0 -150 46t-55 120q0 121 123 219v5h-21q-254 0 -391 113.5t-137 330.5q0 84 16 160l150 776h246l-150 -776
q-12 -65 -12 -117q0 -132 74 -200t215 -68q336 0 413 399l150 762h237z" />
    <glyph glyph-name="uogonek" unicode="&#x173;" horiz-adv-x="1136" 
d="M915 0h-57q-100 -40 -152.5 -97.5t-52.5 -105.5q0 -29 19.5 -45t52.5 -16q75 0 147 55h9l-33 -170q-67 -31 -162 -31t-149 44t-54 116q0 185 256 297l15 90h-4q-123 -157 -342 -157q-156 0 -242 82.5t-86 230.5q0 51 12 113l107 555h217l-105 -545q-6 -38 -6 -66
q0 -84 46.5 -130t133.5 -46q116 0 197 75.5t106 205.5l97 506h217z" />
    <glyph glyph-name="Wcircumflex" unicode="&#x174;" horiz-adv-x="2062" 
d="M1497 0h-246l-123 954h-4l-497 -954h-248l-168 1360h250l110 -991h4l517 991h213l129 -995h4l497 995h260zM1274 1673l-189 -190h-223l322 346h211l190 -346h-194z" />
    <glyph glyph-name="wcircumflex" unicode="&#x175;" horiz-adv-x="1562" 
d="M1124 0h-211l-96 653h-4l-346 -653h-213l-143 961h221l78 -687h4l368 687h176l103 -689h4l346 689h231zM948 1290l-188 -190h-223l321 346h211l191 -346h-195z" />
    <glyph glyph-name="Ycircumflex" unicode="&#x176;" horiz-adv-x="1404" 
d="M733 0h-246l113 582l-414 778h283l287 -569l506 569h303l-721 -787zM944 1673l-188 -190h-224l322 346h211l190 -346h-194z" />
    <glyph glyph-name="ycircumflex" unicode="&#x177;" horiz-adv-x="1030" 
d="M270 -389h-235l278 426l-202 924h223l131 -687h4l405 687h236zM682 1290l-188 -190h-224l322 346h211l190 -346h-194z" />
    <glyph glyph-name="Ydieresis" unicode="&#x178;" horiz-adv-x="1404" 
d="M733 0h-246l113 582l-414 778h283l287 -569l506 569h303l-721 -787zM727 1774q55 0 88 -32t33 -85q0 -64 -40 -104t-99 -40q-55 0 -88 32t-33 83q0 64 39.5 105t99.5 41zM1153 1774q55 0 87 -32t32 -85q0 -64 -39 -104t-98 -40q-56 0 -89.5 31.5t-33.5 83.5q0 64 41 105
t100 41z" />
    <glyph glyph-name="Zacute" unicode="&#x179;" horiz-adv-x="1316" 
d="M391 219h776l-41 -219h-1122l39 207l950 934h-727l43 219h1071l-41 -207zM735 1483l303 346h256l-336 -346h-223z" />
    <glyph glyph-name="zacute" unicode="&#x17a;" horiz-adv-x="1005" 
d="M326 188h540l-37 -188h-839l33 174l647 598h-500l37 189h801l-35 -175zM504 1100l303 346h256l-336 -346h-223z" />
    <glyph glyph-name="Zdotaccent" unicode="&#x17b;" horiz-adv-x="1316" 
d="M391 219h776l-41 -219h-1122l39 207l950 934h-727l43 219h1071l-41 -207zM905 1784q60 0 95.5 -34.5t35.5 -90.5q0 -69 -43.5 -112.5t-109.5 -43.5q-58 0 -93.5 33.5t-35.5 89.5q0 68 43.5 113t107.5 45z" />
    <glyph glyph-name="zdotaccent" unicode="&#x17c;" horiz-adv-x="1005" 
d="M326 188h540l-37 -188h-839l33 174l647 598h-500l37 189h801l-35 -175zM674 1401q60 0 95.5 -34.5t35.5 -90.5q0 -68 -43.5 -112t-110.5 -44q-58 0 -93.5 33.5t-35.5 89.5q0 68 44 113t108 45z" />
    <glyph glyph-name="Zcaron" unicode="&#x17d;" horiz-adv-x="1316" 
d="M391 219h776l-41 -219h-1122l39 207l950 934h-727l43 219h1071l-41 -207zM969 1483h-211l-189 346h195l117 -193l188 193h223z" />
    <glyph glyph-name="zcaron" unicode="&#x17e;" horiz-adv-x="1005" 
d="M326 188h540l-37 -188h-839l33 174l647 598h-500l37 189h801l-35 -175zM737 1100h-211l-188 346h194l117 -193l189 193h223z" />
    <glyph glyph-name="florin" unicode="&#x192;" horiz-adv-x="1331" 
d="M1135 1380q122 0 192 -39l-43 -194h-12q-48 39 -133 39q-83 0 -141.5 -45t-86.5 -129l-47 -140h301l-37 -188h-325l-162 -485q-58 -170 -163 -256t-251 -86q-122 0 -192 39l43 194h12q45 -39 133 -39q150 0 207 174l152 459h-258l36 188h285l55 166q57 169 168 255.5
t267 86.5z" />
    <glyph glyph-name="AEacute" unicode="&#x1fc;" horiz-adv-x="2140" 
d="M1341 791h613l-41 -213h-613l-69 -359h758l-41 -219h-1006l49 256h-563l-219 -256h-291l1186 1360h1108l-41 -219h-762zM1155 1098h-4l-539 -629h420zM1174 1483l303 346h256l-336 -346h-223z" />
    <glyph glyph-name="aeacute" unicode="&#x1fd;" horiz-adv-x="1933" 
d="M541 174q142 0 237.5 101.5t95.5 254.5q0 116 -69.5 186t-186.5 70q-141 0 -237 -100t-96 -254q0 -116 70 -187t186 -71zM1425 791q-109 0 -195.5 -58.5t-121.5 -157.5h565q-1 99 -69 157.5t-179 58.5zM1772 307l-48 -244q-132 -83 -319 -83q-145 0 -248 47t-151 131h-5
l-36 -158h-164l18 111h-4q-112 -131 -319 -131q-193 0 -311.5 123t-118.5 319q0 154 70 282.5t191.5 202.5t266.5 74q122 0 215 -46t139 -126h4l35 152h164l-21 -115h5q116 135 333 135q186 0 296 -103.5t110 -275.5q0 -68 -27 -188h-766q6 -112 94 -178t228 -66
q200 0 358 137h11zM969 1100l303 346h256l-336 -346h-223z" />
    <glyph glyph-name="Oslashacute" unicode="&#x1fe;" horiz-adv-x="1560" 
d="M1659 1360l-234 -227q109 -153 109 -367q0 -220 -103 -400t-284 -283t-402 -103q-237 0 -397 114l-96 -94h-281l240 231q-107 150 -107 363q0 166 61 312t166 250t251 164t311 60q235 0 391 -110l94 90h281zM352 602q0 -107 41 -194l717 694q-92 59 -229 59
q-112 0 -210 -42.5t-168 -116t-110.5 -177.5t-40.5 -223zM1286 754q0 114 -45 202l-719 -694q97 -63 238 -63q224 0 375 159.5t151 395.5zM844 1483l303 346h256l-336 -346h-223z" />
    <glyph glyph-name="oslashacute" unicode="&#x1ff;" horiz-adv-x="1159" 
d="M1188 961l-168 -166q74 -113 74 -258q0 -238 -161.5 -397.5t-402.5 -159.5q-148 0 -262 65l-45 -45h-248l166 166q-75 107 -75 260q0 236 162 395.5t401 159.5q150 0 264 -68l47 48h248zM285 432q0 -56 18 -106l436 436q-53 24 -121 24q-141 0 -237 -100t-96 -254z
M874 530q0 55 -16 101l-436 -432q55 -25 119 -25q142 0 237.5 101.5t95.5 254.5zM590 1100l303 346h256l-336 -346h-223z" />
    <glyph glyph-name="uni0218" unicode="&#x218;" horiz-adv-x="1198" 
d="M737 1380q148 0 279 -33t188 -85l-47 -248h-12q-61 70 -173 108.5t-253 38.5q-138 0 -222.5 -57.5t-84.5 -151.5q0 -66 60 -99.5t220 -53.5q243 -30 346 -114t103 -241q0 -219 -153 -341.5t-425 -122.5q-172 0 -315 36t-223 99l47 252h12q79 -82 204.5 -125t282.5 -43
q152 0 238 56.5t86 154.5q0 70 -64 107t-231 58q-235 30 -334.5 108t-99.5 226q0 217 153.5 344t417.5 127zM115 -430l262 303h244l-293 -303h-213z" />
    <glyph glyph-name="uni0219" unicode="&#x219;" horiz-adv-x="890" 
d="M518 981q101 0 193.5 -22.5t138.5 -57.5l-39 -211h-10q-91 101 -287 101q-89 0 -144 -35t-55 -92q0 -36 37 -54.5t133 -25.5q175 -13 249.5 -75t74.5 -185q0 -161 -111.5 -252.5t-306.5 -91.5q-255 0 -389 92l45 223h10q111 -123 336 -123q94 0 147.5 33.5t53.5 93.5
q0 42 -39.5 63.5t-144.5 30.5q-167 13 -239.5 70.5t-72.5 171.5q0 158 114.5 252t305.5 94zM-41 -430l262 303h244l-293 -303h-213z" />
    <glyph glyph-name="uni021A" unicode="&#x21a;" horiz-adv-x="1206" 
d="M854 1141l-221 -1141h-244l221 1141h-428l41 219h1100l-41 -219h-428zM106 -430l263 303h243l-293 -303h-213z" />
    <glyph glyph-name="uni021B" unicode="&#x21b;" horiz-adv-x="778" 
d="M469 772l-84 -434q-6 -24 -6 -47q0 -55 30.5 -86t86.5 -31q86 0 151 59h10l-47 -227q-60 -26 -159 -26q-145 0 -219 66t-74 192q0 38 10 100l84 434h-170l37 189h176l82 264h180l-51 -264h293l-37 -189h-293zM-84 -430l262 303h244l-293 -303h-213z" />
    <glyph glyph-name="uni0237" unicode="&#x237;" horiz-adv-x="473" 
d="M438 961l-211 -1084q-56 -287 -299 -287q-79 0 -141 27l37 197h10q33 -29 70 -29q47 0 72.5 28t37.5 89l207 1059h217z" />
    <glyph glyph-name="circumflex" unicode="&#x2c6;" horiz-adv-x="1024" 
d="M684 1290l-188 -190h-224l322 346h211l190 -346h-194z" />
    <glyph glyph-name="caron" unicode="&#x2c7;" horiz-adv-x="1024" 
d="M737 1100h-211l-188 346h194l117 -193l189 193h223z" />
    <glyph glyph-name="breve" unicode="&#x2d8;" horiz-adv-x="1024" 
d="M881 1432h159q-69 -322 -383 -322q-151 0 -231 77t-80 214v31h160q0 -148 160 -148q157 0 215 148z" />
    <glyph glyph-name="dotaccent" unicode="&#x2d9;" horiz-adv-x="1024" 
d="M674 1401q60 0 95.5 -34.5t35.5 -90.5q0 -68 -43.5 -112t-110.5 -44q-58 0 -93.5 33.5t-35.5 89.5q0 68 44 113t108 45z" />
    <glyph glyph-name="ring" unicode="&#x2da;" horiz-adv-x="1024" 
d="M684 1487q87 0 142 -53.5t55 -137.5q0 -100 -68 -167.5t-166 -67.5q-86 0 -140 53t-54 137q0 100 67.5 168t163.5 68zM676 1362q-40 0 -68 -29.5t-28 -72.5q0 -33 19.5 -53.5t55.5 -20.5q40 0 69.5 29.5t29.5 70.5q0 34 -21.5 55t-56.5 21z" />
    <glyph glyph-name="ogonek" unicode="&#x2db;" horiz-adv-x="1024" 
d="M563 80l31 -80q-100 -40 -152.5 -97.5t-52.5 -105.5q0 -29 19.5 -45t52.5 -16q75 0 147 55h8l-32 -170q-67 -31 -162 -31t-149 44t-54 116q0 214 344 330z" />
    <glyph glyph-name="tilde" unicode="&#x2dc;" horiz-adv-x="1024" 
d="M1024 1423l-31 -194q-75 -105 -196 -105q-80 0 -162 56q-38 26 -63.5 35.5t-57.5 9.5q-111 0 -203 -127h-8l29 192q77 107 200 107q81 0 160 -56q36 -26 62 -35.5t59 -9.5q111 0 203 127h8z" />
    <glyph glyph-name="hungarumlaut" unicode="&#x2dd;" horiz-adv-x="1024" 
d="M301 1100l301 346h244l-332 -346h-213zM696 1100l301 346h244l-336 -346h-209z" />
    <glyph glyph-name="uni0394" unicode="&#x394;" horiz-adv-x="1495" 
d="M-66 0l865 1360h235l336 -1360h-1436zM1069 219l-195 862h-4l-532 -862h731z" />
    <glyph glyph-name="uni03A9" unicode="&#x3a9;" horiz-adv-x="1585" 
d="M1427 219l-41 -219h-536l41 207q184 89 282.5 235t98.5 326q0 178 -111.5 285.5t-296.5 107.5q-147 0 -268.5 -69.5t-190.5 -191.5t-69 -271q0 -135 65.5 -243t186.5 -179l-41 -207h-535l41 219h264v4q-108 65 -166.5 175t-58.5 253q0 158 57.5 293.5t160 231t247.5 150
t315 54.5q292 0 472 -158.5t180 -414.5q0 -182 -91.5 -341.5t-246.5 -242.5v-4h241z" />
    <glyph glyph-name="uni03BC" unicode="&#x3bc;" horiz-adv-x="1169" 
d="M942 0h-182l20 135h-4q-124 -155 -342 -155q-104 0 -172 38l-80 -407h-217l262 1350h217l-106 -539q-8 -36 -8 -70q0 -85 48 -131.5t136 -46.5q113 0 193.5 77t105.5 206l98 504h217z" />
    <glyph glyph-name="pi" unicode="&#x3c0;" horiz-adv-x="1226" 
d="M1094 772l-150 -772h-217l150 772h-414l-152 -772h-217l152 772h-158l37 189h1163l-37 -189h-157z" />
    <glyph glyph-name="uni1E02" unicode="&#x1e02;" horiz-adv-x="1316" 
d="M1057 684v-4q174 -74 174 -266q0 -199 -132 -306.5t-386 -107.5h-654l265 1360h538q217 0 330 -83t113 -241q0 -271 -248 -352zM459 793h321q137 0 207 52.5t70 151.5q0 144 -217 144h-314zM348 219h377q260 0 260 209q0 152 -227 152h-340zM879 1784q60 0 95.5 -34.5
t35.5 -90.5q0 -69 -44 -112.5t-110 -43.5q-58 0 -93.5 33.5t-35.5 89.5q0 68 44 113t108 45z" />
    <glyph glyph-name="uni1E03" unicode="&#x1e03;" horiz-adv-x="1210" 
d="M713 981q193 0 312.5 -123t119.5 -319q0 -155 -70.5 -283.5t-192 -202t-266.5 -73.5q-134 0 -224.5 46t-131.5 130h-4l-37 -156h-184l278 1434h217l-108 -553h4q115 100 287 100zM592 174q140 0 236 100.5t96 251.5q0 119 -69.5 189.5t-186.5 70.5q-140 0 -236 -99.5
t-96 -254.5q0 -116 70 -187t186 -71zM487 1847q60 0 95.5 -34.5t35.5 -90.5q0 -68 -43 -111.5t-110 -43.5q-58 0 -93.5 33.5t-35.5 89.5q0 68 43.5 112.5t107.5 44.5z" />
    <glyph glyph-name="uni1E0A" unicode="&#x1e0a;" horiz-adv-x="1482" 
d="M324 1360h483q308 0 478.5 -151.5t170.5 -422.5q0 -365 -215.5 -575.5t-589.5 -210.5h-592zM1208 762q0 183 -112 281t-324 98h-246l-178 -922h309q254 0 402.5 146.5t148.5 396.5zM926 1784q60 0 95.5 -34.5t35.5 -90.5q0 -69 -43.5 -112.5t-110.5 -43.5
q-58 0 -93.5 33.5t-35.5 89.5q0 68 44 113t108 45z" />
    <glyph glyph-name="uni1E0B" unicode="&#x1e0b;" horiz-adv-x="1210" 
d="M989 0h-180l16 117h-4q-125 -137 -325 -137q-193 0 -311.5 123t-118.5 319q0 154 70 282.5t191.5 202.5t266.5 74q240 0 336 -145h4l117 598h217zM541 174q142 0 237.5 101.5t95.5 254.5q0 116 -69.5 186t-186.5 70q-141 0 -237 -100t-96 -254q0 -116 70 -187t186 -71z
M1225 1847q60 0 95.5 -34.5t35.5 -90.5q0 -68 -43.5 -111.5t-110.5 -43.5q-58 0 -93.5 33.5t-35.5 89.5q0 68 44 112.5t108 44.5z" />
    <glyph glyph-name="uni1E1E" unicode="&#x1e1e;" horiz-adv-x="1220" 
d="M455 772h612l-41 -219h-614l-107 -553h-246l265 1360h1005l-41 -219h-762zM879 1784q60 0 95.5 -34.5t35.5 -90.5q0 -69 -44 -112.5t-110 -43.5q-58 0 -93.5 33.5t-35.5 89.5q0 68 44 113t108 45z" />
    <glyph glyph-name="uni1E1F" unicode="&#x1e1f;" horiz-adv-x="731" 
d="M713 1454q122 0 198 -39l-39 -198h-10q-58 43 -141 43q-77 0 -126.5 -44t-64.5 -126l-24 -129h293l-37 -189h-293l-152 -772h-217l150 772h-168l37 189h168l28 145q34 170 135.5 259t262.5 89zM668 1847q60 0 95.5 -34.5t35.5 -90.5q0 -68 -43.5 -111.5t-110.5 -43.5
q-58 0 -93.5 33.5t-35.5 89.5q0 68 44 112.5t108 44.5z" />
    <glyph glyph-name="uni1E40" unicode="&#x1e40;" horiz-adv-x="1929" 
d="M1683 0h-245l211 1090h-4l-668 -1090h-223l-244 1081h-4l-209 -1081h-238l265 1360h360l234 -1038h4l639 1038h387zM1202 1784q60 0 95.5 -34.5t35.5 -90.5q0 -69 -43.5 -112.5t-109.5 -43.5q-58 0 -93.5 33.5t-35.5 89.5q0 68 43.5 113t107.5 45z" />
    <glyph glyph-name="uni1E41" unicode="&#x1e41;" horiz-adv-x="1732" 
d="M1348 981q149 0 228 -79t79 -224q0 -49 -13 -119l-110 -559h-217l108 549q9 43 9 76q0 79 -41.5 120t-122.5 41q-108 0 -179 -72.5t-98 -217.5l-96 -496h-217l106 549q9 43 9 78q0 159 -162 159q-107 0 -178 -70.5t-97 -203.5l-98 -512h-217l186 961h183l-21 -127h4
q113 147 318 147q103 0 173 -44.5t99 -129.5h4q119 174 361 174zM1042 1401q60 0 96 -34.5t36 -90.5q0 -68 -44 -112t-110 -44q-58 0 -93.5 33.5t-35.5 89.5q0 68 43.5 113t107.5 45z" />
    <glyph glyph-name="uni1E56" unicode="&#x1e56;" horiz-adv-x="1304" 
d="M324 1360h555q224 0 340 -95.5t116 -279.5q0 -243 -141 -373.5t-410 -130.5h-385l-94 -481h-246zM1085 961q0 91 -58 135.5t-179 44.5h-322l-86 -441h355q144 0 217 66.5t73 194.5zM899 1784q60 0 95.5 -34.5t35.5 -90.5q0 -69 -43.5 -112.5t-109.5 -43.5
q-58 0 -93.5 33.5t-35.5 89.5q0 68 43.5 113t107.5 45z" />
    <glyph glyph-name="uni1E57" unicode="&#x1e57;" horiz-adv-x="1210" 
d="M713 981q193 0 312.5 -123t119.5 -319q0 -155 -70 -283.5t-191.5 -202t-267.5 -73.5q-235 0 -335 143h-5l-100 -512h-217l262 1350h182l-18 -115h4q126 135 324 135zM592 174q140 0 236 100.5t96 251.5q0 119 -69.5 189.5t-186.5 70.5q-140 0 -236 -99.5t-96 -254.5
q0 -116 70 -187t186 -71zM797 1399q60 0 95.5 -34.5t35.5 -90.5q0 -68 -44 -112t-110 -44q-58 0 -93.5 33.5t-35.5 89.5q0 68 44 113t108 45z" />
    <glyph glyph-name="uni1E60" unicode="&#x1e60;" horiz-adv-x="1198" 
d="M737 1380q148 0 279 -33t188 -85l-47 -248h-12q-61 70 -173 108.5t-253 38.5q-138 0 -222.5 -57.5t-84.5 -151.5q0 -66 60 -99.5t220 -53.5q243 -30 346 -114t103 -241q0 -219 -153 -341.5t-425 -122.5q-172 0 -315 36t-223 99l47 252h12q79 -82 204.5 -125t282.5 -43
q152 0 238 56.5t86 154.5q0 70 -64 107t-231 58q-235 30 -334.5 108t-99.5 226q0 217 153.5 344t417.5 127zM838 1784q60 0 95.5 -34.5t35.5 -90.5q0 -69 -43.5 -112.5t-110.5 -43.5q-58 0 -93.5 33.5t-35.5 89.5q0 68 44 113t108 45z" />
    <glyph glyph-name="uni1E61" unicode="&#x1e61;" horiz-adv-x="890" 
d="M518 981q101 0 193.5 -22.5t138.5 -57.5l-39 -211h-10q-91 101 -287 101q-89 0 -144 -35t-55 -92q0 -36 37 -54.5t133 -25.5q175 -13 249.5 -75t74.5 -185q0 -161 -111.5 -252.5t-306.5 -91.5q-255 0 -389 92l45 223h10q111 -123 336 -123q94 0 147.5 33.5t53.5 93.5
q0 42 -39.5 63.5t-144.5 30.5q-167 13 -239.5 70.5t-72.5 171.5q0 158 114.5 252t305.5 94zM602 1401q60 0 95.5 -34.5t35.5 -90.5q0 -69 -43.5 -112.5t-109.5 -43.5q-58 0 -93.5 33.5t-35.5 89.5q0 68 43.5 113t107.5 45z" />
    <glyph glyph-name="uni1E6A" unicode="&#x1e6a;" horiz-adv-x="1206" 
d="M854 1141l-221 -1141h-244l221 1141h-428l41 219h1100l-41 -219h-428zM842 1784q60 0 95.5 -34.5t35.5 -90.5q0 -69 -43.5 -112.5t-110.5 -43.5q-58 0 -93.5 33.5t-35.5 89.5q0 68 44 113t108 45z" />
    <glyph glyph-name="uni1E6B" unicode="&#x1e6b;" horiz-adv-x="778" 
d="M469 772l-84 -434q-6 -24 -6 -47q0 -55 30.5 -86t86.5 -31q86 0 151 59h10l-47 -227q-60 -26 -159 -26q-145 0 -219 66t-74 192q0 38 10 100l84 434h-170l37 189h176l82 264h180l-51 -264h293l-37 -189h-293zM530 1653q60 0 96 -34.5t36 -90.5q0 -68 -44 -112t-110 -44
q-58 0 -93.5 33.5t-35.5 89.5q0 68 43.5 113t107.5 45z" />
    <glyph glyph-name="Wgrave" unicode="&#x1e80;" horiz-adv-x="2062" 
d="M1497 0h-246l-123 954h-4l-497 -954h-248l-168 1360h250l110 -991h4l517 991h213l129 -995h4l497 995h260zM1143 1483l-201 346h227l172 -346h-198z" />
    <glyph glyph-name="wgrave" unicode="&#x1e81;" horiz-adv-x="1562" 
d="M1124 0h-211l-96 653h-4l-346 -653h-213l-143 961h221l78 -687h4l368 687h176l103 -689h4l346 689h231zM817 1100l-201 346h228l172 -346h-199z" />
    <glyph glyph-name="Wacute" unicode="&#x1e82;" horiz-adv-x="2062" 
d="M1497 0h-246l-123 954h-4l-497 -954h-248l-168 1360h250l110 -991h4l517 991h213l129 -995h4l497 995h260zM1100 1483l303 346h256l-336 -346h-223z" />
    <glyph glyph-name="wacute" unicode="&#x1e83;" horiz-adv-x="1562" 
d="M1124 0h-211l-96 653h-4l-346 -653h-213l-143 961h221l78 -687h4l368 687h176l103 -689h4l346 689h231zM774 1100l303 346h256l-336 -346h-223z" />
    <glyph glyph-name="Wdieresis" unicode="&#x1e84;" horiz-adv-x="2062" 
d="M1497 0h-246l-123 954h-4l-497 -954h-248l-168 1360h250l110 -991h4l517 991h213l129 -995h4l497 995h260zM1057 1774q55 0 88 -32t33 -85q0 -63 -40 -103.5t-100 -40.5q-55 0 -87.5 31.5t-32.5 83.5q0 64 39.5 105t99.5 41zM1483 1774q55 0 87 -32t32 -85
q0 -64 -39.5 -104t-98.5 -40q-56 0 -89.5 31.5t-33.5 83.5q0 64 41.5 105t100.5 41z" />
    <glyph glyph-name="wdieresis" unicode="&#x1e85;" horiz-adv-x="1562" 
d="M1124 0h-211l-96 653h-4l-346 -653h-213l-143 961h221l78 -687h4l368 687h176l103 -689h4l346 689h231zM731 1391q55 0 88 -32t33 -85q0 -64 -40 -104t-99 -40q-55 0 -88 32t-33 83q0 64 39.5 105t99.5 41zM1157 1391q55 0 87 -32t32 -85q0 -64 -39 -104t-98 -40
q-56 0 -89.5 31.5t-33.5 83.5q0 64 41 105t100 41z" />
    <glyph glyph-name="Ygrave" unicode="&#x1ef2;" horiz-adv-x="1404" 
d="M733 0h-246l113 582l-414 778h283l287 -569l506 569h303l-721 -787zM813 1483l-201 346h228l172 -346h-199z" />
    <glyph glyph-name="ygrave" unicode="&#x1ef3;" horiz-adv-x="1030" 
d="M270 -389h-235l278 426l-202 924h223l131 -687h4l405 687h236zM551 1100l-201 346h228l172 -346h-199z" />
    <glyph glyph-name="uni2007" unicode="&#x2007;" horiz-adv-x="1331" 
 />
    <glyph glyph-name="figuredash" unicode="&#x2012;" horiz-adv-x="1331" 
d="M123 582l37 194h1126l-37 -194h-1126z" />
    <glyph glyph-name="endash" unicode="&#x2013;" horiz-adv-x="1024" 
d="M100 463l37 194h819l-36 -194h-820z" />
    <glyph glyph-name="emdash" unicode="&#x2014;" horiz-adv-x="2048" 
d="M100 463l37 194h1843l-36 -194h-1844z" />
    <glyph glyph-name="quoteleft" unicode="&#x2018;" horiz-adv-x="536" 
d="M643 1360l-281 -543h-227l326 543h182z" />
    <glyph glyph-name="quoteright" unicode="&#x2019;" horiz-adv-x="536" 
d="M129 817l281 543h227l-326 -543h-182z" />
    <glyph glyph-name="quotesinglbase" unicode="&#x201a;" horiz-adv-x="536" 
d="M-143 -301l280 543h228l-326 -543h-182z" />
    <glyph glyph-name="quotedblleft" unicode="&#x201c;" horiz-adv-x="933" 
d="M1040 1360l-280 -543h-228l326 543h182zM643 1360l-281 -543h-227l326 543h182z" />
    <glyph glyph-name="quotedblright" unicode="&#x201d;" horiz-adv-x="933" 
d="M129 817l281 543h227l-326 -543h-182zM526 817l281 543h227l-325 -543h-183z" />
    <glyph glyph-name="quotedblbase" unicode="&#x201e;" horiz-adv-x="933" 
d="M254 -301l281 543h227l-326 -543h-182zM-143 -301l280 543h228l-326 -543h-182z" />
    <glyph glyph-name="dagger" unicode="&#x2020;" horiz-adv-x="999" 
d="M682 952l-150 -768h-178l150 768h-309l28 156h309l64 326h178l-63 -326h307l-29 -156h-307z" />
    <glyph glyph-name="daggerdbl" unicode="&#x2021;" horiz-adv-x="999" 
d="M625 666h309l-31 -156h-307l-64 -326h-178l64 326h-309l30 156h307l58 286h-309l28 156h309l64 326h178l-63 -326h307l-29 -156h-307z" />
    <glyph glyph-name="bullet" unicode="&#x2022;" horiz-adv-x="1024" 
d="M551 862q124 0 201 -77.5t77 -198.5q0 -139 -94 -233.5t-231 -94.5q-124 0 -201.5 76.5t-77.5 197.5q0 139 94.5 234.5t231.5 95.5z" />
    <glyph glyph-name="ellipsis" unicode="&#x2026;" horiz-adv-x="2048" 
d="M1616 262q57 0 92 -35.5t35 -91.5q0 -64 -46.5 -109.5t-109.5 -45.5q-57 0 -92 35t-35 91q0 64 46.5 110t109.5 46zM969 262q57 0 92 -35.5t35 -91.5q0 -64 -46.5 -109.5t-109.5 -45.5q-57 0 -92 35t-35 91q0 64 46.5 110t109.5 46zM322 262q57 0 92 -35.5t35 -91.5
q0 -64 -46.5 -109.5t-109.5 -45.5q-57 0 -92 35t-35 91q0 64 46.5 110t109.5 46z" />
    <glyph glyph-name="perthousand" unicode="&#x2030;" horiz-adv-x="2265" 
d="M1892 653q131 0 205 -74t74 -200q0 -51 -11 -103t-37.5 -106t-65.5 -95.5t-100.5 -68t-137.5 -26.5q-130 0 -202.5 75t-72.5 201q0 53 11.5 106.5t38 106.5t65.5 93.5t99.5 65.5t133.5 25zM1888 512q-48 0 -85.5 -24.5t-58 -63.5t-30.5 -81t-10 -83q0 -67 32 -103t91 -36
q49 0 86.5 25.5t57 66t29 81t9.5 79.5q0 67 -31 103t-90 36zM524 1380q131 0 205 -74t74 -200q0 -51 -11 -103t-37.5 -106t-65.5 -95.5t-100.5 -68t-137.5 -26.5q-130 0 -202.5 75t-72.5 201q0 53 11.5 106.5t38 106.5t65.5 93.5t99.5 65.5t133.5 25zM156 0l1124 1360h197
l-1125 -1360h-196zM520 1239q-48 0 -85.5 -24.5t-58 -63.5t-30.5 -81t-10 -83q0 -67 32 -103t91 -36q49 0 86.5 25.5t57 66t29 81t9.5 79.5q0 67 -31 103t-90 36zM1180 653q131 0 204.5 -74t73.5 -200q0 -51 -11 -103t-37.5 -106t-65.5 -95.5t-100.5 -68t-137.5 -26.5
q-130 0 -202.5 75t-72.5 201q0 53 11.5 106.5t38.5 106.5t66 93.5t99.5 65.5t133.5 25zM1176 512q-63 0 -107 -43t-61 -97.5t-17 -111.5q0 -67 32 -103t91 -36q49 0 86.5 25.5t57 66t29 81t9.5 79.5q0 68 -31 103.5t-89 35.5z" />
    <glyph glyph-name="guilsinglleft" unicode="&#x2039;" horiz-adv-x="591" 
d="M256 465l188 -221l-41 -211l-346 440l2 14l519 441l-48 -244z" />
    <glyph glyph-name="guilsinglright" unicode="&#x203a;" horiz-adv-x="591" 
d="M532 473l-516 -440l45 243l275 220l-186 221l40 211l345 -441z" />
    <glyph glyph-name="fraction" unicode="&#x2044;" horiz-adv-x="315" 
d="M-467 0l1145 1360h180l-1145 -1360h-180z" />
    <glyph glyph-name="zerosuperior" unicode="&#x2070;" 
d="M627 1647q137 0 211.5 -80.5t74.5 -229.5q0 -72 -13.5 -146t-45 -148.5t-78 -131.5t-118.5 -93t-160 -36q-137 0 -211 80t-74 228q0 60 10 121t29.5 124.5t53.5 119t78 99t106.5 68.5t136.5 25zM616 1501q-64 0 -113.5 -43.5t-75.5 -109t-39 -129.5t-13 -119
q0 -84 34 -128t99 -44q64 0 114 43t77 108.5t40 129t13 118.5q0 86 -35 130t-101 44z" />
    <glyph glyph-name="foursuperior" unicode="&#x2074;" 
d="M770 950l-31 -155h-159l30 155h-438l27 137l534 547h170l-104 -538h106l-26 -146h-109zM700 1421l-317 -325h256l63 325h-2z" />
    <glyph glyph-name="fivesuperior" unicode="&#x2075;" 
d="M485 1489l-30 -162q55 12 118 12q135 0 209 -66.5t74 -185.5q0 -142 -95 -223.5t-257 -81.5q-94 0 -174.5 20t-126.5 54l28 156h11q90 -84 258 -84q90 0 142 40t52 111q0 121 -192 121q-106 0 -207 -37h-10l92 471h534l-26 -145h-400z" />
    <glyph glyph-name="sixsuperior" unicode="&#x2076;" 
d="M688 1501q-95 0 -164 -53t-106 -154h4q73 52 184 52q124 0 194 -66.5t70 -175.5q0 -148 -89.5 -235t-235.5 -87q-148 0 -233 85t-85 237q0 68 14.5 138.5t49.5 144t85.5 130.5t130.5 93.5t177 36.5q150 0 221 -64l-28 -151h-11q-60 69 -178 69zM711 1090q0 55 -35.5 85.5
t-97.5 30.5q-115 0 -191 -98q-2 -8 -2 -23q0 -73 43 -115t117 -42t120 44.5t46 117.5z" />
    <glyph glyph-name="sevensuperior" unicode="&#x2077;" 
d="M410 795h-199l563 694h-459l29 145h641l-29 -151z" />
    <glyph glyph-name="eightsuperior" unicode="&#x2078;" 
d="M762 1219v-5q106 -53 106 -174q0 -123 -96.5 -190.5t-271.5 -67.5q-148 0 -233 60t-85 164q0 173 187 223v4q-88 52 -88 162q0 120 90 186t252 66q138 0 217.5 -59.5t79.5 -160.5q0 -158 -158 -208zM584 1290q174 0 174 119q0 44 -38 68t-110 24q-83 0 -127.5 -31
t-44.5 -90q0 -90 146 -90zM512 928q96 0 147.5 33t51.5 96q0 94 -170 94q-95 0 -146 -32.5t-51 -94.5q0 -96 168 -96z" />
    <glyph glyph-name="ninesuperior" unicode="&#x2079;" 
d="M438 928q95 0 164.5 53t106.5 154h-4q-73 -52 -185 -52q-124 0 -194 66.5t-70 175.5q0 148 90 235t236 87q148 0 232.5 -85t84.5 -237q0 -68 -14.5 -138.5t-49.5 -144t-85.5 -130.5t-130.5 -93.5t-177 -36.5q-150 0 -221 64l29 151h10q60 -69 178 -69zM416 1339
q0 -55 35.5 -85.5t97.5 -30.5q114 0 190 98q2 8 2 22q0 73 -42.5 115.5t-116.5 42.5t-120 -44.5t-46 -117.5z" />
    <glyph glyph-name="zeroinferior" unicode="&#x2080;" 
d="M397 463q137 0 212 -80t75 -229q0 -72 -13.5 -146t-45.5 -148.5t-78.5 -131.5t-118.5 -93t-160 -36q-137 0 -210.5 79.5t-73.5 227.5q0 60 9.5 121t29.5 124.5t53.5 119t77.5 99t106.5 68.5t136.5 25zM387 317q-64 0 -114 -43.5t-76 -109t-39 -129.5t-13 -119
q0 -84 34.5 -128t99.5 -44q64 0 114 43t76.5 108.5t39.5 129t13 118.5q0 174 -135 174z" />
    <glyph glyph-name="oneinferior" unicode="&#x2081;" 
d="M455 -389h-160l125 649l-236 -135l31 166l274 160h129z" />
    <glyph glyph-name="twoinferior" unicode="&#x2082;" 
d="M571 -244l-28 -145h-582l29 153l221 154q176 124 230.5 181t54.5 116q0 49 -36.5 75.5t-101.5 26.5t-137 -29.5t-127 -78.5h-10l37 186q53 32 122.5 50t133.5 18q133 0 206.5 -60t73.5 -170q0 -55 -13 -97t-50.5 -90t-104 -99.5t-174.5 -120.5l-106 -66v-4h362z" />
    <glyph glyph-name="threeinferior" unicode="&#x2083;" 
d="M674 246q0 -158 -152 -215v-4q90 -58 90 -168q0 -124 -90 -192t-252 -68q-87 0 -166 25t-124 65l30 159h10q82 -104 250 -104q181 0 181 131q0 92 -154 92h-104l24 139h109q94 0 140 28.5t46 90.5q0 92 -150 92q-65 0 -135.5 -27.5t-122.5 -74.5h-10l35 180
q111 68 256 68q138 0 213.5 -57t75.5 -160z" />
    <glyph glyph-name="fourinferior" unicode="&#x2084;" 
d="M541 -233l-31 -156h-160l31 156h-438l26 137l535 547h170l-105 -539h107l-27 -145h-108zM471 238l-317 -326h256l63 326h-2z" />
    <glyph glyph-name="fiveinferior" unicode="&#x2085;" 
d="M256 305l-31 -162q60 13 119 13q135 0 209 -66.5t74 -185.5q0 -142 -95.5 -223.5t-257.5 -81.5q-95 0 -175 19.5t-126 53.5l29 156h10q90 -84 258 -84q90 0 142.5 40.5t52.5 111.5q0 120 -193 120q-107 0 -206 -36h-11l92 471h535l-27 -146h-399z" />
    <glyph glyph-name="sixinferior" unicode="&#x2086;" 
d="M459 317q-96 0 -165 -52.5t-106 -153.5h5q71 51 184 51q124 0 194 -66.5t70 -175.5q0 -148 -90 -234.5t-236 -86.5q-148 0 -232.5 84.5t-84.5 236.5q0 68 14.5 138.5t49.5 144t85.5 130.5t130.5 93.5t177 36.5q150 0 221 -64l-29 -151h-10q-60 69 -178 69zM481 -94
q0 55 -35.5 86t-97.5 31q-114 0 -190 -99q-2 -8 -2 -22q0 -73 42.5 -115.5t116.5 -42.5t120 44.5t46 117.5z" />
    <glyph glyph-name="seveninferior" unicode="&#x2087;" 
d="M180 -389h-198l563 694h-459l29 146h641l-29 -152z" />
    <glyph glyph-name="eightinferior" unicode="&#x2088;" 
d="M532 35v-4q107 -53 107 -174q0 -123 -97 -190.5t-272 -67.5q-148 0 -232.5 59.5t-84.5 163.5q0 173 186 223v4q-88 52 -88 162q0 120 90 186t252 66q138 0 217.5 -59t79.5 -160q0 -159 -158 -209zM354 106q174 0 174 119q0 44 -37.5 68t-109.5 24q-83 0 -127.5 -30.5
t-44.5 -89.5q0 -91 145 -91zM283 -256q96 0 147 33t51 96q0 94 -170 94q-95 0 -145.5 -32.5t-50.5 -94.5q0 -96 168 -96z" />
    <glyph glyph-name="nineinferior" unicode="&#x2089;" 
d="M209 -256q95 0 164 53t106 154h-4q-71 -51 -184 -51q-124 0 -194 66t-70 175q0 148 89.5 235t235.5 87q148 0 233 -85t85 -237q0 -56 -10.5 -114.5t-32.5 -120.5t-59 -116t-86 -97.5t-118.5 -68.5t-150.5 -25q-152 0 -221 63l28 152h11q61 -70 178 -70zM186 156
q0 -55 35.5 -86t97.5 -31q115 0 191 98q2 8 2 23q0 73 -43 115t-117 42t-120 -44t-46 -117z" />
    <glyph glyph-name="Euro" unicode="&#x20ac;" horiz-adv-x="1331" 
d="M1026 1380q226 0 340 -100l-43 -225h-12q-96 119 -289 119q-140 0 -249 -69t-179 -198h553l-27 -137h-579q-29 -79 -35 -172h579l-26 -137h-553q17 -133 99.5 -204t223.5 -71q96 0 183.5 33t152.5 92h13l-50 -248q-54 -40 -145 -61.5t-195 -21.5q-239 0 -374 127
t-146 354h-159l26 137h137q5 79 33 172h-135l27 137h155q94 225 269.5 349t404.5 124z" />
    <glyph glyph-name="uni20B9" unicode="&#x20b9;" horiz-adv-x="1331" 
d="M1063 1210v-4q57 -66 63 -174h187l-27 -149h-174q-73 -330 -506 -330h-16v-4l500 -549h-287l-516 588l22 129h242q134 0 212 39t111 127h-671l28 149h664q-10 86 -81 125t-206 39h-344l31 164h1083l-28 -150h-287z" />
    <glyph glyph-name="uni2113" unicode="&#x2113;" horiz-adv-x="1009" 
d="M604 174q121 0 225 96h11l-47 -243q-89 -47 -230 -47q-159 0 -249 76t-91 220l-145 -71l31 219q87 43 147 76l106 551q29 156 129 242.5t250 86.5q126 0 195.5 -65t69.5 -182q0 -385 -553 -727q-9 -44 -9 -76q0 -156 160 -156zM575 1036l-73 -377q151 116 227 235t76 212
q0 82 -82 82q-57 0 -95 -40t-53 -112z" />
    <glyph glyph-name="uni2117" unicode="&#x2117;" horiz-adv-x="1603" 
d="M668 1038h290q121 0 183.5 -54.5t62.5 -158.5q0 -131 -73.5 -198.5t-219.5 -67.5h-190l-43 -237h-150zM1053 819q0 84 -113 84h-158l-37 -209h170q65 0 101.5 32t36.5 93zM901 1380q284 0 462.5 -176.5t178.5 -451.5q0 -160 -59 -303t-160 -246t-242.5 -163t-300.5 -60
q-284 0 -462.5 176.5t-178.5 451.5q0 160 59 303t160 246t242.5 163t300.5 60zM778 111q172 0 316 85.5t226.5 232.5t82.5 321q0 220 -139.5 359.5t-360.5 139.5q-172 0 -315.5 -85.5t-226 -232t-82.5 -321.5q0 -220 139 -359.5t360 -139.5z" />
    <glyph glyph-name="trademark" unicode="&#x2122;" horiz-adv-x="1579" 
d="M522 1239l-110 -569h-140l111 569h-197l25 121h528l-22 -121h-195zM1507 670h-139l98 510h-4l-295 -510h-123l-98 520h-4l-100 -520h-129l133 690h201l90 -494h4l284 494h215z" />
    <glyph glyph-name="uni2126" unicode="&#x2126;" horiz-adv-x="1585" 
d="M1427 219l-41 -219h-536l41 207q184 89 282.5 235t98.5 326q0 178 -111.5 285.5t-296.5 107.5q-147 0 -268.5 -69.5t-190.5 -191.5t-69 -271q0 -135 65.5 -243t186.5 -179l-41 -207h-535l41 219h264v4q-108 65 -166.5 175t-58.5 253q0 158 57.5 293.5t160 231t247.5 150
t315 54.5q292 0 472 -158.5t180 -414.5q0 -182 -91.5 -341.5t-246.5 -242.5v-4h241z" />
    <glyph glyph-name="estimated" unicode="&#x212e;" horiz-adv-x="1646" 
d="M862 1380q150 0 286.5 -55t235.5 -148.5t157 -223.5t58 -273v-16h-1196q-8 0 -8 -9v-385q0 -16 17 -41q86 -98 204 -153.5t250 -55.5q138 0 261.5 62.5t213.5 171.5h109q-105 -127 -259 -200.5t-329 -73.5q-150 0 -286.5 55.5t-235.5 149t-157 223t-58 272.5t58 273
t157 223.5t235.5 148.5t286.5 55zM866 1339q-130 0 -247 -54t-207 -150q-17 -25 -17 -45v-377q0 -13 8 -13h918q12 0 12 13v385q0 25 -20 45q-89 92 -205 144t-242 52z" />
    <glyph glyph-name="onethird" unicode="&#x2153;" horiz-adv-x="1994" 
d="M373 0l1145 1360h180l-1145 -1360h-180zM1905 635q0 -158 -152 -215v-4q90 -58 90 -168q0 -124 -90 -192t-252 -68q-87 0 -166.5 25t-124.5 65l31 160h10q83 -105 250 -105q180 0 180 131q0 92 -153 92h-105l25 140h108q94 0 140.5 28t46.5 90q0 46 -39.5 69.5
t-110.5 23.5q-65 0 -135.5 -28t-122.5 -75h-10l35 180q111 68 256 68q138 0 213.5 -57t75.5 -160zM631 520h-160l125 649l-236 -135l31 166l275 160h129z" />
    <glyph glyph-name="twothirds" unicode="&#x2154;" horiz-adv-x="1994" 
d="M403 0l1145 1360h181l-1145 -1360h-181zM1905 635q0 -158 -152 -215v-4q90 -58 90 -168q0 -124 -90 -192t-252 -68q-87 0 -166.5 25t-124.5 65l31 160h10q83 -105 250 -105q180 0 180 131q0 92 -153 92h-105l25 140h108q94 0 140.5 28t46.5 90q0 46 -39.5 69.5
t-110.5 23.5q-65 0 -135.5 -28t-122.5 -75h-10l35 180q111 68 256 68q138 0 213.5 -57t75.5 -160zM748 666l-29 -146h-582l29 154l221 153q176 124 230.5 181t54.5 116q0 49 -36 76t-101 27t-137.5 -30t-127.5 -79h-10l37 187q53 32 122 49.5t134 17.5q133 0 207 -59.5
t74 -169.5q0 -74 -25.5 -129t-99.5 -121.5t-217 -157.5l-107 -65v-4h363z" />
    <glyph glyph-name="oneeighth" unicode="&#x215b;" horiz-adv-x="1994" 
d="M373 0l1145 1360h180l-1145 -1360h-180zM1763 424v-4q107 -54 107 -174q0 -123 -97 -190.5t-272 -67.5q-148 0 -232.5 59.5t-84.5 163.5q0 173 186 223v4q-88 52 -88 162q0 120 90 186t252 66q138 0 217.5 -59t79.5 -160q0 -159 -158 -209zM1585 496q174 0 174 118
q0 45 -38 69t-109 24q-83 0 -127.5 -31t-44.5 -90q0 -90 145 -90zM1513 133q96 0 147.5 33t51.5 96q0 94 -170 94q-95 0 -145.5 -32.5t-50.5 -94.5q0 -96 167 -96zM631 520h-160l125 649l-236 -135l31 166l275 160h129z" />
    <glyph glyph-name="threeeighths" unicode="&#x215c;" horiz-adv-x="1994" 
d="M377 0l1145 1360h180l-1145 -1360h-180zM1763 424v-4q107 -54 107 -174q0 -123 -97 -190.5t-272 -67.5q-148 0 -232.5 59.5t-84.5 163.5q0 173 186 223v4q-88 52 -88 162q0 120 90 186t252 66q138 0 217.5 -59t79.5 -160q0 -159 -158 -209zM1585 496q174 0 174 118
q0 45 -38 69t-109 24q-83 0 -127.5 -31t-44.5 -90q0 -90 145 -90zM1513 133q96 0 147.5 33t51.5 96q0 94 -170 94q-95 0 -145.5 -32.5t-50.5 -94.5q0 -96 167 -96zM850 1155q0 -158 -152 -215v-4q90 -58 90 -168q0 -124 -90 -192t-252 -68q-87 0 -166 25t-124 65l30 160h11
q83 -105 249 -105q181 0 181 131q0 93 -154 93h-104l24 139h109q94 0 140 28.5t46 90.5q0 92 -149 92q-65 0 -135.5 -28t-122.5 -75h-11l35 181q109 67 256 67q138 0 213.5 -57t75.5 -160z" />
    <glyph glyph-name="fiveeighths" unicode="&#x215d;" horiz-adv-x="1994" 
d="M377 0l1145 1360h180l-1145 -1360h-180zM1763 424v-4q107 -54 107 -174q0 -123 -97 -190.5t-272 -67.5q-148 0 -232.5 59.5t-84.5 163.5q0 173 186 223v4q-88 52 -88 162q0 120 90 186t252 66q138 0 217.5 -59t79.5 -160q0 -159 -158 -209zM1585 496q174 0 174 118
q0 45 -38 69t-109 24q-83 0 -127.5 -31t-44.5 -90q0 -90 145 -90zM1513 133q96 0 147.5 33t51.5 96q0 94 -170 94q-95 0 -145.5 -32.5t-50.5 -94.5q0 -96 167 -96zM432 1214l-31 -161q55 12 119 12q135 0 209 -66.5t74 -185.5q0 -142 -95 -223.5t-257 -81.5q-94 0 -174.5 20
t-126.5 54l28 155h10q90 -84 258 -84q90 0 142.5 40.5t52.5 111.5q0 121 -192 121q-106 0 -207 -37h-11l93 471h534l-27 -146h-399z" />
    <glyph glyph-name="seveneighths" unicode="&#x215e;" horiz-adv-x="1994" 
d="M285 0l1145 1360h180l-1145 -1360h-180zM1763 424v-4q107 -54 107 -174q0 -123 -97 -190.5t-272 -67.5q-148 0 -232.5 59.5t-84.5 163.5q0 173 186 223v4q-88 52 -88 162q0 120 90 186t252 66q138 0 217.5 -59t79.5 -160q0 -159 -158 -209zM1585 496q174 0 174 118
q0 45 -38 69t-109 24q-83 0 -127.5 -31t-44.5 -90q0 -90 145 -90zM1513 133q96 0 147.5 33t51.5 96q0 94 -170 94q-95 0 -145.5 -32.5t-50.5 -94.5q0 -96 167 -96zM356 520h-198l563 694h-459l29 146h641l-29 -152z" />
    <glyph glyph-name="partialdiff" unicode="&#x2202;" horiz-adv-x="1210" 
d="M805 1454q187 0 289 -113t102 -315q0 -74 -15 -164.5t-47 -191t-76.5 -198t-109 -187t-140 -157.5t-173 -108t-203.5 -40q-165 0 -260.5 96.5t-95.5 257.5q0 162 74.5 306t198.5 230t263 86q107 0 190.5 -41t125.5 -112h4q29 143 29 196q0 121 -60 184.5t-176 63.5
q-69 0 -147.5 -28t-145.5 -84h-12l47 237q135 82 338 82zM467 186q111 0 215 107.5t178 286.5q-20 77 -80 123.5t-133 46.5q-135 0 -236.5 -119t-101.5 -273q0 -78 43 -125t115 -47z" />
    <glyph glyph-name="uni2206" unicode="&#x2206;" horiz-adv-x="1495" 
d="M-66 0l865 1360h235l336 -1360h-1436zM1069 219l-195 862h-4l-532 -862h731z" />
    <glyph glyph-name="product" unicode="&#x220f;" horiz-adv-x="1413" 
d="M1120 -266h-246l273 1407h-625l-272 -1407h-246l315 1626h1117z" />
    <glyph glyph-name="summation" unicode="&#x2211;" horiz-adv-x="1189" 
d="M1272 1139h-756l406 -617l-582 -569h700l-41 -219h-1052l41 207l622 606l-389 604l41 207h1053z" />
    <glyph glyph-name="minus" unicode="&#x2212;" horiz-adv-x="1331" 
d="M109 518l36 193h1131l-37 -193h-1130z" />
    <glyph glyph-name="uni2219" unicode="&#x2219;" horiz-adv-x="536" 
d="M322 821q57 0 92 -35.5t35 -91.5q0 -64 -46.5 -109.5t-109.5 -45.5q-57 0 -92 35.5t-35 91.5q0 64 46.5 109.5t109.5 45.5z" />
    <glyph glyph-name="radical" unicode="&#x221a;" horiz-adv-x="1095" 
d="M545 -143h-226l-98 434h-174l37 192h309l66 -333h4l567 1251h227z" />
    <glyph glyph-name="infinity" unicode="&#x221e;" horiz-adv-x="1429" 
d="M1087 1012q132 0 209.5 -76.5t77.5 -208.5q0 -171 -95 -275t-251 -104q-99 0 -170 43.5t-125 138.5h-4q-69 -94 -143.5 -138t-165.5 -44q-134 0 -211.5 78t-77.5 211q0 169 94.5 272t251.5 103q98 0 168.5 -45t126.5 -142h4q69 97 144 142t167 45zM440 508
q63 0 116.5 36.5t113.5 119.5q-47 104 -93 146t-112 42q-74 0 -120 -57.5t-46 -149.5q0 -64 37.5 -100.5t103.5 -36.5zM1040 508q77 0 124.5 55t47.5 144q0 67 -39 106t-106 39q-63 0 -116.5 -37t-114.5 -123q44 -100 91 -142t113 -42z" />
    <glyph glyph-name="integral" unicode="&#x222b;" horiz-adv-x="782" 
d="M172 -86l242 1245q57 295 321 295q106 0 178 -43l-39 -192h-10q-40 43 -106 43q-106 0 -131 -132l-242 -1245q-57 -295 -322 -295q-110 0 -178 43l37 193h10q34 -43 109 -43q107 0 131 131z" />
    <glyph glyph-name="approxequal" unicode="&#x2248;" horiz-adv-x="1331" 
d="M1233 1092l135 -119q-116 -157 -209 -222t-203 -65q-72 0 -134 26.5t-140 92.5q-55 47 -87 62.5t-69 15.5q-59 0 -120 -48t-150 -163l-137 116q116 157 208.5 222t202.5 65q72 0 136 -27t139 -90q56 -47 87.5 -62t68.5 -15q56 0 118 48t154 163zM1128 559l136 -119
q-115 -157 -208.5 -221.5t-203.5 -64.5q-72 0 -134 26t-140 92q-55 47 -87 62.5t-69 15.5q-59 0 -120 -48t-150 -163l-138 117q116 157 209 222t203 65q72 0 135.5 -26.5t138.5 -90.5q57 -47 88 -62.5t68 -15.5q56 0 118 48t154 163z" />
    <glyph glyph-name="notequal" unicode="&#x2260;" horiz-adv-x="1331" 
d="M696 455h510l-39 -193h-614l-188 -254h-207l188 254h-268l39 193h372l240 319h-553l39 193h657l189 254h207l-189 -254h226l-39 -193h-330z" />
    <glyph glyph-name="lessequal" unicode="&#x2264;" horiz-adv-x="1331" 
d="M500 750l692 -263l-39 -204l-973 393l31 164l1126 395l-43 -219l-794 -262v-4zM1135 193l-39 -193h-1049l39 193h1049z" />
    <glyph glyph-name="greaterequal" unicode="&#x2265;" horiz-adv-x="1331" 
d="M1229 676l-1125 -393l41 219l797 262v4l-694 264l39 201l973 -393zM1135 193l-39 -193h-1049l39 193h1049z" />
    <glyph glyph-name="lozenge" unicode="&#x25ca;" horiz-adv-x="1263" 
d="M455 0l-330 680l590 680h172l332 -680l-592 -680h-172zM356 668l213 -455l418 479l-215 455z" />
    <glyph glyph-name="uniE069" unicode="&#xe069;" horiz-adv-x="473" 
d="M399 1399q58 0 91.5 -34.5t33.5 -90.5q0 -67 -41.5 -109.5t-105.5 -42.5q-58 0 -92.5 33.5t-34.5 87.5q0 68 42.5 112t106.5 44zM35 0l186 961h217l-186 -961h-217z" />
    <glyph glyph-name="uniEF01" unicode="&#xef01;" horiz-adv-x="1024" 
d="M16 -430l263 303h243l-293 -303h-213z" />
    <glyph glyph-name="uniEF02" unicode="&#xef02;" horiz-adv-x="1024" 
d="M477 1032l139 402h226l-191 -402h-174z" />
    <glyph glyph-name="uniF8FF" unicode="&#xf8ff;" horiz-adv-x="2048" 
d="M899 430v107h-2l-35 -160h-47l57 258h56v-135h2l57 135h64l-58 -258h-49l35 160h-2l-45 -107h-33zM287 584l-35 -158q-8 -26 -19.5 -37.5t-31.5 -11.5h-95l58 258h88q37 0 37 -31q0 -8 -2 -20zM600 377h-49l12 53h-35l-14 -53h-49l47 211q9 47 53 47h45q37 0 37 -31
q0 -8 -2 -20zM1167 377h-49l12 53h-34l-15 -53h-49l47 211q9 47 54 47h45q36 0 36 -31q0 -8 -2 -20zM821 584l-22 -107q-8 -35 -27 -41l12 -59h-47l-8 53h-27l-12 -53h-49l57 258h88q37 0 37 -31q0 -8 -2 -20zM1731 584l-25 -109q-9 -45 -49 -45h-45l-13 -53h-49l58 258h88
q37 0 37 -31q0 -8 -2 -20zM477 635l-57 -258h-49l12 53h-37l-12 -53h-49l57 258h49l-37 -166h37l37 166h49zM1440 635h49l-35 -154q-1 -7 0.5 -9.5t7.5 -2.5h15q9 0 12 8l35 158h49l-35 -160q-9 -45 -49 -45l-29 -53h-49l29 53q-37 0 -37 31q0 10 2 20zM1845 496l-8 -39h-53
l-8 -41h67l-10 -39h-115l58 258h116l-10 -39h-65l-23 -100h51zM1374 596l-49 -219h-49l49 219h-39l8 39h125l-8 -39h-37zM205 596l-41 -180h26q10 0 13 10l35 158q2 12 -7 12h-26zM1659 477l22 107q1 7 -0.5 9.5t-7.5 2.5h-24l-29 -127h27q9 0 12 8zM750 477l22 107
q1 7 -0.5 9.5t-7.5 2.5h-25l-28 -127h26q10 0 13 8zM1155 596h-14q-11 0 -13 -10l-26 -117h37l24 115q1 7 -0.5 9.5t-7.5 2.5zM588 596h-15q-9 0 -12 -10l-26 -117h36l25 115q1 7 -0.5 9.5t-7.5 2.5zM2021 682v-61h-12v51h-2l-14 -41h-8l-15 41h-2v-51h-10v61h20l11 -33h2
l10 33h20zM1950 682v-10h-19v-51h-12v51h-16v10h47z" />
    <glyph glyph-name="zero.numr" 
d="M573 1372q137 0 212 -80t75 -229q0 -72 -13.5 -146t-45.5 -148.5t-78.5 -131.5t-118.5 -93t-160 -36q-137 0 -210.5 79.5t-73.5 227.5q0 60 9.5 121t29.5 124.5t53.5 119t77.5 99t106.5 68.5t136.5 25zM563 1227q-64 0 -113.5 -43.5t-75.5 -109.5t-39 -130t-13 -119
q0 -84 34 -128t99 -44q52 0 95 29t69.5 73.5t45 100t26 105.5t7.5 92q0 174 -135 174z" />
    <glyph glyph-name="one.numr" 
d="M631 520h-160l125 649l-236 -135l31 166l275 160h129z" />
    <glyph glyph-name="two.numr" 
d="M748 666l-29 -146h-582l29 154l221 153q176 124 230.5 181t54.5 116q0 49 -36 76t-101 27t-137.5 -30t-127.5 -79h-10l37 187q53 32 122 49.5t134 17.5q133 0 207 -59.5t74 -169.5q0 -74 -25.5 -129t-99.5 -121.5t-217 -157.5l-107 -65v-4h363z" />
    <glyph glyph-name="three.numr" 
d="M850 1155q0 -158 -152 -215v-4q90 -58 90 -168q0 -124 -90 -192t-252 -68q-87 0 -166 25t-124 65l30 160h11q83 -105 249 -105q181 0 181 131q0 93 -154 93h-104l24 139h109q94 0 140 28.5t46 90.5q0 92 -149 92q-65 0 -135.5 -28t-122.5 -75h-11l35 181q109 67 256 67
q138 0 213.5 -57t75.5 -160z" />
    <glyph glyph-name="four.numr" 
d="M717 676l-31 -156h-160l31 156h-438l26 137l535 547h170l-105 -539h107l-27 -145h-108zM647 1147l-317 -326h256l63 326h-2z" />
    <glyph glyph-name="five.numr" 
d="M432 1214l-31 -161q55 12 119 12q135 0 209 -66.5t74 -185.5q0 -142 -95 -223.5t-257 -81.5q-94 0 -174.5 20t-126.5 54l28 155h10q90 -84 258 -84q90 0 142.5 40.5t52.5 111.5q0 121 -192 121q-106 0 -207 -37h-11l93 471h534l-27 -146h-399z" />
    <glyph glyph-name="six.numr" 
d="M635 1227q-95 0 -164 -53t-106 -154h4q71 51 184 51q124 0 194 -66.5t70 -175.5q0 -148 -89.5 -234.5t-235.5 -86.5q-148 0 -233 85t-85 236q0 68 14.5 138.5t49.5 144t85.5 130.5t130.5 93.5t177 36.5q152 0 221 -63l-29 -152h-10q-61 70 -178 70zM657 815
q0 55 -35.5 86t-97.5 31q-114 0 -190 -98q-2 -8 -2 -23q0 -73 43 -115.5t117 -42.5t119.5 44.5t45.5 117.5z" />
    <glyph glyph-name="seven.numr" 
d="M356 520h-198l563 694h-459l29 146h641l-29 -152z" />
    <glyph glyph-name="eight.numr" 
d="M709 944v-4q106 -53 106 -174q0 -123 -97 -190.5t-272 -67.5q-148 0 -232.5 59.5t-84.5 163.5q0 173 186 223v4q-88 52 -88 162q0 120 90 186t252 66q138 0 217.5 -59t79.5 -160q0 -159 -157 -209zM530 1016q175 0 175 119q0 44 -38 68t-110 24q-83 0 -127.5 -31
t-44.5 -90q0 -90 145 -90zM459 653q96 0 147 33t51 96q0 95 -170 95q-95 0 -145.5 -32.5t-50.5 -94.5q0 -47 43 -72t125 -25z" />
    <glyph glyph-name="nine.numr" 
d="M385 653q95 0 164 53t106 154h-4q-71 -51 -184 -51q-124 0 -194 66.5t-70 175.5q0 148 89.5 234.5t235.5 86.5q148 0 233 -85t85 -236q0 -68 -14.5 -138.5t-49.5 -144t-85.5 -130.5t-130.5 -93.5t-177 -36.5q-152 0 -221 63l29 152h10q61 -70 178 -70zM362 1065
q0 -55 36 -86t98 -31q114 0 190 99q2 8 2 22q0 73 -43 115.5t-117 42.5t-120 -44.5t-46 -117.5z" />
    <glyph glyph-name="zero.dnom" 
d="M473 852q137 0 212 -80t75 -229q0 -72 -13.5 -146t-45.5 -148.5t-78.5 -131.5t-118.5 -93t-160 -36q-137 0 -211 79.5t-74 227.5q0 60 10 121t29.5 124.5t53.5 119t78 99t106.5 68.5t136.5 25zM463 707q-52 0 -95 -29.5t-69.5 -74t-44.5 -100.5t-25.5 -105.5t-7.5 -92.5
q0 -84 34 -128t99 -44q64 0 114 43t77 108.5t40 129t13 118.5q0 175 -135 175z" />
    <glyph glyph-name="one.dnom" 
d="M530 0h-159l125 649l-236 -135l31 166l274 160h129z" />
    <glyph glyph-name="two.dnom" 
d="M647 145l-29 -145h-581l29 154l221 153q175 123 229.5 180.5t54.5 116.5q0 49 -36 76t-101 27q-64 0 -136 -29.5t-128 -79.5h-10l37 186q53 32 122.5 50t133.5 18q133 0 206.5 -59.5t73.5 -169.5q0 -74 -25.5 -129t-99.5 -121.5t-217 -157.5l-106 -65v-5h362z" />
    <glyph glyph-name="three.dnom" 
d="M750 635q0 -158 -152 -215v-4q90 -58 90 -168q0 -124 -90 -192t-252 -68q-87 0 -166.5 25t-124.5 65l31 160h10q82 -105 250 -105q180 0 180 131q0 92 -153 92h-105l25 140h108q94 0 140.5 28t46.5 90q0 46 -39.5 69.5t-110.5 23.5q-65 0 -135.5 -28t-122.5 -75h-10
l35 180q111 68 256 68q138 0 213.5 -57t75.5 -160z" />
    <glyph glyph-name="four.dnom" 
d="M616 156l-30 -156h-160l31 156h-439l27 137l535 547h170l-105 -539h107l-27 -145h-109zM547 627l-318 -326h256l64 326h-2z" />
    <glyph glyph-name="five.dnom" 
d="M332 694l-31 -162q60 13 119 13q134 0 208 -66.5t74 -185.5q0 -142 -95 -223.5t-257 -81.5q-95 0 -175 19.5t-126 53.5l29 156h10q90 -84 258 -84q90 0 142.5 40.5t52.5 111.5q0 59 -49 90t-144 31q-106 0 -207 -37h-10l92 471h535l-27 -146h-399z" />
    <glyph glyph-name="six.dnom" 
d="M535 707q-95 0 -164.5 -53t-106.5 -154h4q71 51 185 51q124 0 194 -66.5t70 -175.5q0 -148 -90 -234.5t-236 -86.5q-148 0 -232.5 84.5t-84.5 236.5q0 68 14.5 138.5t49 144t85.5 130.5t130.5 93.5t176.5 36.5q151 0 222 -64l-29 -151h-10q-61 70 -178 70zM557 295
q0 55 -35.5 86t-97.5 31q-115 0 -191 -99q-2 -8 -2 -22q0 -73 43 -115.5t117 -42.5t120 44.5t46 117.5z" />
    <glyph glyph-name="seven.dnom" 
d="M256 0h-199l564 694h-459l28 146h641l-28 -152z" />
    <glyph glyph-name="eight.dnom" 
d="M608 424v-4q107 -54 107 -174q0 -123 -97 -190.5t-272 -67.5q-148 0 -232.5 59.5t-84.5 163.5q0 173 186 223v4q-88 52 -88 162q0 120 90 186t252 66q138 0 217.5 -59t79.5 -160q0 -159 -158 -209zM430 496q174 0 174 118q0 45 -38 69t-109 24q-83 0 -127.5 -31
t-44.5 -90q0 -90 145 -90zM358 133q96 0 147.5 33t51.5 96q0 94 -170 94q-95 0 -146 -32.5t-51 -94.5q0 -96 168 -96z" />
    <glyph glyph-name="nine.dnom" 
d="M285 133q95 0 164 53t106 154h-4q-71 -51 -184 -51q-124 0 -194.5 66t-70.5 175q0 148 90 235t236 87q148 0 232.5 -85t84.5 -237q0 -68 -14.5 -138.5t-49 -144t-85.5 -130.5t-130.5 -93t-176.5 -36q-152 0 -221 63l28 152h10q61 -70 179 -70zM262 545q0 -55 35.5 -86
t97.5 -31q115 0 191 98q2 8 2 23q0 73 -43 115.5t-117 42.5t-120 -44.5t-46 -117.5z" />
    </font>
</defs>
</svg>
