<svg xmlns="http://www.w3.org/2000/svg" xml:space="preserve" id="Calque_1" x="0" y="0" style="enable-background:new 0 0 841.9 595.3" version="1.1" viewBox="0 0 841.9 595.3"><style>.st1{fill:#fff}</style><linearGradient id="SVGID_1_" x1="455.592" x2="582.482" y1="318.932" y2="192.042" gradientTransform="matrix(1 0 0 -1 0 598)" gradientUnits="userSpaceOnUse"><stop offset="0" style="stop-color:#5b5a72"/><stop offset="1" style="stop-color:#b0b0bf"/></linearGradient><path d="M542.2 402c-25.6 0-58.4-2.7-69.1-15.5-3.4-4-3.2-7.5-3.1-8.4.1-1.5 1.8-18.8 11.1-36.3C490 325 507.9 305 542.2 305s52.2 20 61.1 36.8c9.3 17.6 11 34.9 11.1 36.3.1.9.3 4.4-3.1 8.4-10.6 12.7-43.4 15.5-69.1 15.5z" style="fill:url(#SVGID_1_)"/><path d="M542.2 307.4c64 0 69.7 70.9 69.7 70.9s3.8 21.1-69.7 21.1-69.7-21.1-69.7-21.1 5.7-70.9 69.7-70.9m0-5c-28.1 0-50 13.2-63.3 38.1-9.5 17.8-11.3 35.4-11.4 37.3-.2 1.4-.2 5.6 3.6 10.2 9.1 10.9 33 16.4 71.1 16.4s62-5.5 71.1-16.4c3.9-4.7 3.8-8.9 3.7-10.2-.2-1.8-1.9-19.4-11.4-37.3-13.4-24.9-35.2-38.1-63.4-38.1z" class="st1"/><linearGradient id="SVGID_00000127006009608984015800000015465689611210253484_" x1="498.243" x2="626.723" y1="359.323" y2="230.853" gradientTransform="matrix(1 0 0 -1 0 598)" gradientUnits="userSpaceOnUse"><stop offset="0" style="stop-color:#5b5a72"/><stop offset="1" style="stop-color:#b0b0bf"/></linearGradient><path d="M542.2 331.4c-26.9 0-48.7-21.9-48.7-48.7s21.9-48.7 48.7-48.7 48.7 21.9 48.7 48.7-21.8 48.7-48.7 48.7z" style="fill:url(#SVGID_00000127006009608984015800000015465689611210253484_)"/><path d="M542.2 236.4c25.5 0 46.2 20.7 46.2 46.2s-20.7 46.2-46.2 46.2-46.2-20.6-46.2-46.1 20.7-46.2 46.2-46.3m0-4.9c-28.2 0-51.2 23-51.2 51.2s23 51.2 51.2 51.2 51.2-23 51.2-51.2-22.9-51.2-51.2-51.2z" class="st1"/><linearGradient id="SVGID_00000088131255558611015060000006010586525982947748_" x1="254.497" x2="377.037" y1="316.727" y2="194.187" gradientTransform="matrix(1 0 0 -1 0 598)" gradientUnits="userSpaceOnUse"><stop offset="0" style="stop-color:#5b5a72"/><stop offset="1" style="stop-color:#b0b0bf"/></linearGradient><path d="M338.9 402c-25.6 0-58.4-2.7-69.1-15.5-3.4-4-3.2-7.5-3.1-8.4.1-1.5 1.8-18.8 11.1-36.3 8.9-16.8 26.8-36.8 61.1-36.8s52.2 20 61.1 36.8c9.4 17.6 11 34.9 11.1 36.3.1.9.3 4.4-3.1 8.4-10.6 12.7-43.4 15.5-69.1 15.5z" style="fill:url(#SVGID_00000088131255558611015060000006010586525982947748_)"/><path d="M338.9 307.4c64 0 69.7 70.9 69.7 70.9s3.8 21.1-69.7 21.1-69.7-21.1-69.7-21.1 5.7-70.9 69.7-70.9m0-5c-28.1 0-50 13.2-63.3 38.1-9.5 17.8-11.3 35.4-11.4 37.3-.2 1.4-.2 5.6 3.6 10.2 9.1 10.9 33 16.4 71.1 16.4s62-5.5 71.1-16.4c3.9-4.7 3.8-8.9 3.6-10.2-.2-1.8-1.9-19.4-11.4-37.3-13.3-24.9-35.1-38.1-63.3-38.1z" class="st1"/><linearGradient id="SVGID_00000174567806014475436500000002368080369122980757_" x1="297.18" x2="421.25" y1="357.09" y2="233.02" gradientTransform="matrix(1 0 0 -1 0 598)" gradientUnits="userSpaceOnUse"><stop offset="0" style="stop-color:#5b5a72"/><stop offset="1" style="stop-color:#b0b0bf"/></linearGradient><path d="M338.9 331.4c-26.9 0-48.7-21.9-48.7-48.7s21.9-48.7 48.7-48.7 48.7 21.9 48.7 48.7-21.8 48.7-48.7 48.7z" style="fill:url(#SVGID_00000174567806014475436500000002368080369122980757_)"/><path d="M338.9 236.4c25.5 0 46.2 20.7 46.2 46.2s-20.7 46.2-46.2 46.2-46.2-20.7-46.2-46.2 20.7-46.1 46.2-46.2m0-4.9c-28.2 0-51.2 23-51.2 51.2s23 51.2 51.2 51.2 51.2-23 51.2-51.2-22.9-51.2-51.2-51.2z" class="st1"/><linearGradient id="SVGID_00000079472473011850828800000001206149544304499376_" x1="324.661" x2="501.501" y1="302.351" y2="125.511" gradientTransform="matrix(1 0 0 -1 0 598)" gradientUnits="userSpaceOnUse"><stop offset="0" style="stop-color:#5b5a72"/><stop offset="1" style="stop-color:#b0b0bf"/></linearGradient><path d="M440.6 459.5c-62.1 0-84.5-11.2-92.4-20.6-4.4-5.2-4.1-9.7-4-10.6.2-1.9 2.4-25 14.9-48.6 11.9-22.4 35.7-49 81.4-49s69.5 26.6 81.4 49c12.5 23.5 14.7 46.7 14.9 48.6.1 1 .4 5.4-4 10.6-7.7 9.4-30.1 20.6-92.2 20.6z" style="fill:url(#SVGID_00000079472473011850828800000001206149544304499376_)"/><path d="M440.6 333.1c86.1 0 93.8 95.4 93.8 95.4s5.1 28.5-93.8 28.5-93.8-28.5-93.8-28.5 7.6-95.4 93.8-95.4m0-5c-47 0-71.4 27.4-83.6 50.3-12.6 23.7-15 47.1-15.2 49.5-.2 1.6-.4 6.7 4.5 12.5 5.1 6.1 14.2 11 26.9 14.6 16.4 4.6 39.1 6.9 67.4 6.9s50.9-2.3 67.4-6.9c12.7-3.5 21.8-8.5 26.9-14.6 4.9-5.9 4.7-11 4.5-12.5-.2-2.4-2.5-25.8-15.2-49.5-12.2-22.9-36.7-50.3-83.6-50.3z" class="st1"/><linearGradient id="SVGID_00000013178266297122951010000007567080031362365341_" x1="381.64" x2="560.13" y1="357.1" y2="178.61" gradientTransform="matrix(1 0 0 -1 0 598)" gradientUnits="userSpaceOnUse"><stop offset="0" style="stop-color:#5b5a72"/><stop offset="1" style="stop-color:#b0b0bf"/></linearGradient><path d="M440.6 364.5c-35.7 0-64.7-29-64.7-64.7s29-64.7 64.7-64.7 64.7 29 64.7 64.7-29.1 64.7-64.7 64.7z" style="fill:url(#SVGID_00000013178266297122951010000007567080031362365341_)"/><path d="M440.6 237.7c34.3 0 62.2 27.8 62.2 62.2S474.9 362 440.6 362s-62.2-27.8-62.2-62.2 27.8-62.1 62.2-62.1m0-5c-37 0-67.2 30.1-67.2 67.2s30.1 67.2 67.2 67.2 67.2-30.1 67.2-67.2-30.2-67.2-67.2-67.2z" class="st1"/><linearGradient id="SVGID_00000176743941053315323500000000918893018571979453_" x1="144.751" x2="210.431" y1="9315.474" y2="9294.764" gradientTransform="scale(1 -1) rotate(-30.809 -17116.763 4408.768)" gradientUnits="userSpaceOnUse"><stop offset="0" style="stop-color:#5b5a72"/><stop offset="1" style="stop-color:#b0b0bf"/></linearGradient><path d="M248.9 278.7c-1.2 0-2.3-.8-2.6-2l-1.2-4.7h-.5c-2.9 0-5.7-.4-8.4-1.3l-2.5 4.1c-.8 1.3-2.4 1.7-3.7.9l-6.4-3.8c-1.3-.8-1.7-2.4-.9-3.7l2.5-4.1c-2.2-2.1-4-4.5-5.4-7.2l-4.7 1.2c-.2 0-.4.1-.7.1-1.2 0-2.3-.8-2.6-2L210 249c-.2-.7-.1-1.4.3-2.1.4-.6 1-1.1 1.7-1.2l4.7-1.2c-.1-3 .4-6 1.3-8.9l-4.1-2.5c-1.3-.8-1.7-2.4-.9-3.7l3.8-6.4c.8-1.3 2.4-1.7 3.7-.9l4.1 2.5c2.1-2.2 4.5-4 7.2-5.4l-1.2-4.7c-.2-.7-.1-1.4.3-2.1s1-1.1 1.7-1.2l7.2-1.8c.2-.1.4-.1.7-.1 1.2 0 2.3.8 2.6 2.1l1.2 4.7h.5c2.9 0 5.7.4 8.4 1.3l2.5-4.1c.8-1.3 2.4-1.7 3.7-.9l6.4 3.8c1.3.8 1.7 2.4.9 3.7l-2.5 4.1c2.2 2.1 4 4.5 5.4 7.2l4.7-1.2c.2-.1.4-.1.7-.1 1.2 0 2.3.8 2.6 2.1l1.8 7.2c.2.7.1 1.4-.3 2.1-.4.6-1 1.1-1.7 1.2l-4.7 1.2c0 3-.4 6-1.3 8.9l4.1 2.5c1.3.8 1.7 2.4.9 3.7l-3.8 6.4c-.8 1.3-2.4 1.7-3.7.9l-4.1-2.5c-2.1 2.2-4.5 4-7.2 5.4l1.2 4.7c.2.7.1 1.4-.3 2s-1 1.1-1.7 1.2l-7.2 1.8h-.7zm-4.2-44.5c-3.4 0-6.7 1.8-8.4 4.8-2.8 4.6-1.2 10.7 3.4 13.4 1.5.9 3.2 1.4 5 1.4 3.4 0 6.7-1.8 8.4-4.8 2.8-4.6 1.2-10.6-3.4-13.4-1.5-.9-3.3-1.4-5-1.4z" style="fill:url(#SVGID_00000176743941053315323500000000918893018571979453_)"/><path d="M240.4 210.2c.8 0 1.5.5 1.7 1.4l1.4 5.4c3.4-.2 6.8.3 10 1.4l2.8-4.8c.3-.6.9-.9 1.5-.9.3 0 .6.1.9.2l3.2 1.9 3.2 1.9c.9.5 1.1 1.6.6 2.4L263 224c2.6 2.3 4.6 5.1 6 8.1l5.4-1.4c.1 0 .3-.1.4-.1.8 0 1.5.5 1.7 1.4l.9 3.6.9 3.6c.2 1-.3 1.9-1.3 2.2l-5.4 1.4c.1 3.4-.3 6.7-1.5 10l4.8 2.8c.9.5 1.1 1.6.6 2.5l-1.9 3.2-1.9 3.2c-.3.6-.9.9-1.5.9-.3 0-.6-.1-.9-.2l-4.8-2.8c-2.3 2.5-5.1 4.6-8.1 6l1.4 5.4c.2 1-.3 1.9-1.3 2.2l-3.6.9-3.6.9h-.4c-.8 0-1.5-.5-1.7-1.4l-1.4-5.4c-3.4.2-6.8-.3-10-1.5l-2.9 4.8c-.3.6-.9.9-1.5.9-.3 0-.6-.1-.9-.2l-3.2-1.9-3.2-1.9c-.9-.5-1.1-1.6-.6-2.5l2.9-4.8c-2.6-2.3-4.6-5.1-6-8.1l-5.4 1.4h-.4c-.8 0-1.5-.5-1.7-1.4l-.9-3.6-.9-3.6c-.2-1 .3-1.9 1.3-2.2l5.4-1.4c-.1-3.3.3-6.7 1.5-10l-4.8-2.9c-.8-.5-1.1-1.6-.6-2.4l1.9-3.2 1.9-3.2c.3-.6.9-.9 1.5-.9.3 0 .6.1.9.2l4.8 2.9c2.3-2.6 5.1-4.6 8.1-6l-1.4-5.4c-.2-1 .3-1.9 1.3-2.2l3.6-.9 3.6-.9c0 .1.2.1.3.1m4.3 44.5c3.6 0 7.2-1.9 9.2-5.2 3-5.1 1.4-11.6-3.7-14.7-1.7-1-3.6-1.5-5.5-1.5-3.6 0-7.2 1.9-9.2 5.2-3 5.1-1.4 11.6 3.7 14.7 1.6 1 3.5 1.5 5.5 1.5m-4.3-46.4c-.3 0-.6 0-.9.1l-3.6.9-3.6.9c-.9.2-1.7.8-2.2 1.7s-.6 1.8-.4 2.8l1 4c-2.3 1.3-4.4 2.8-6.3 4.7l-3.5-2.1c-.6-.3-1.2-.5-1.9-.5-1.3 0-2.5.7-3.1 1.8l-1.9 3.2-1.9 3.2c-1 1.7-.5 4 1.3 5l3.5 2.1c-.7 2.5-1.1 5.1-1.1 7.7l-4 1c-1.9.5-3.1 2.5-2.6 4.4l.9 3.6.9 3.6c.5 1.9 2.5 3.1 4.4 2.6l4-1c1.3 2.3 2.8 4.4 4.7 6.3l-2.1 3.5c-.5.8-.6 1.8-.4 2.8s.8 1.7 1.7 2.2l3.2 1.9 3.2 1.9c.6.3 1.2.5 1.9.5 1.3 0 2.5-.7 3.1-1.8l2.1-3.5c2.5.7 5.1 1.1 7.8 1.1l1 4c.5 1.9 2.5 3.1 4.4 2.6l3.6-.9 3.6-.9c1.9-.5 3.1-2.5 2.6-4.4l-1-4c2.3-1.3 4.4-2.8 6.3-4.7l3.5 2.1c.6.3 1.2.5 1.9.5 1.3 0 2.5-.7 3.1-1.8l1.9-3.2 1.9-3.2c1-1.7.5-4-1.3-5l-3.5-2.1c.7-2.5 1.1-5.1 1.1-7.8l4-1c.9-.2 1.7-.8 2.2-1.7s.6-1.8.4-2.8l-.9-3.6-.9-3.6c-.5-1.9-2.5-3.1-4.4-2.6l-4 1c-1.3-2.3-2.8-4.4-4.7-6.3l2.1-3.5c1-1.7.5-4-1.3-5l-3.2-1.9-3.2-1.9c-.6-.3-1.2-.5-1.9-.5-1.3 0-2.5.7-3.1 1.8l-2.1 3.5c-2.5-.7-5.1-1.1-7.7-1.1l-1-4c-.5-1.4-1.9-2.5-3.6-2.6zm4.3 44.6c-1.6 0-3.1-.4-4.5-1.2-2-1.2-3.5-3.2-4.1-5.4-.6-2.3-.2-4.7 1-6.7 1.6-2.7 4.5-4.3 7.6-4.3 1.6 0 3.2.4 4.5 1.2 2 1.2 3.5 3.2 4.1 5.4.6 2.3.2 4.7-1 6.7-1.6 2.6-4.5 4.3-7.6 4.3z" class="st1"/><linearGradient id="SVGID_00000101085095227135160600000008115959546318247561_" x1="-1224.261" x2="-1185.897" y1="10182.681" y2="10170.583" gradientTransform="scale(1 -1) rotate(-46.88 -12444.893 3267.703)" gradientUnits="userSpaceOnUse"><stop offset="0" style="stop-color:#5b5a72"/><stop offset="1" style="stop-color:#b0b0bf"/></linearGradient><path d="M290.2 232.2c-.6 0-1.2-.3-1.7-.7l-2.8-2.9c-1.5.5-3 .7-4.5.7-1.9 0-3.7-.3-5.4-1l-3 2.8c-.4.4-1 .6-1.6.6-.6 0-1.2-.3-1.7-.7l-5.5-5.9c-.9-.9-.8-2.4.1-3.2l3-2.8c-1-3.2-.9-6.8.3-9.9l-2.8-3c-.4-.4-.6-1-.6-1.6 0-.6.3-1.2.7-1.6l5.9-5.6c.4-.4 1-.6 1.6-.6.6 0 1.2.3 1.7.7l2.8 3c1.5-.5 3-.7 4.5-.7 1.9 0 3.7.3 5.4 1l3-2.8c.4-.4 1-.6 1.6-.6.6 0 1.2.3 1.7.7l5.5 5.9c.9.9.8 2.4-.1 3.2l-3 2.8c1 3.3.9 6.8-.3 9.9l2.8 2.9c.4.4.6 1 .6 1.6 0 .6-.3 1.2-.7 1.6l-5.9 5.6c-.4.3-1 .6-1.6.6zm-8.9-20.7c-.7 0-1.5.3-2 .8-1.2 1.1-1.2 2.9-.1 4.1.6.6 1.3.9 2.1.9.7 0 1.5-.3 2-.8.6-.5.9-1.2.9-2s-.2-1.5-.8-2.1c-.5-.6-1.3-.9-2.1-.9z" style="fill:url(#SVGID_00000101085095227135160600000008115959546318247561_)"/><path d="M272.4 197.5c.4 0 .7.1 1 .4l3.2 3.4c1.5-.6 3.2-.9 4.8-.9 1.9 0 3.8.4 5.6 1.2l3.4-3.2c.3-.2.6-.4.9-.4.4 0 .7.1 1 .4l2.8 3 2.8 3c.5.6.5 1.4-.1 1.9l-3.4 3.2c1.2 3.4 1.1 7.1-.3 10.4l3.2 3.4c.5.6.5 1.4-.1 1.9l-3 2.8-3 2.8c-.3.2-.6.4-.9.4-.4 0-.7-.1-1-.4l-3.2-3.4c-1.5.6-3.1.8-4.8.8-1.9 0-3.8-.4-5.6-1.2l-3.4 3.2c-.3.2-.6.4-.9.4-.4 0-.7-.1-1-.4l-2.8-3-2.8-3c-.5-.6-.5-1.4.1-1.9l3.4-3.2c-1.2-3.4-1.1-7.1.4-10.4l-3.2-3.4c-.5-.6-.5-1.4.1-1.9l3-2.8 3-2.8c.1-.1.4-.3.8-.3m8.9 20.7c2.1 0 3.8-1.7 3.8-3.9 0-1-.4-1.9-1-2.6-.7-.8-1.7-1.2-2.8-1.2-2.1 0-3.8 1.7-3.8 3.8 0 1 .4 1.9 1 2.6.8.9 1.8 1.3 2.8 1.3m-8.9-22.5c-.8 0-1.6.3-2.2.9l-3 2.8-3 2.8c-.6.6-1 1.4-1 2.2 0 .9.3 1.7.9 2.3l2.4 2.5c-1 3-1.2 6.3-.3 9.4l-2.5 2.4c-.6.6-1 1.4-1 2.2 0 .9.3 1.7.9 2.3l2.8 3 2.8 3c.6.6 1.5 1 2.3 1 .8 0 1.6-.3 2.2-.9l2.5-2.4c1.7.6 3.4.9 5.2.9 1.4 0 2.9-.2 4.2-.6l2.4 2.5c.6.6 1.5 1 2.3 1 .8 0 1.6-.3 2.2-.9l3-2.8 3-2.8c.6-.6 1-1.4 1-2.2 0-.9-.3-1.7-.9-2.3l-2.4-2.5c1.1-3 1.2-6.3.3-9.4l2.5-2.4c.6-.6 1-1.4 1-2.2 0-.9-.3-1.7-.9-2.3l-2.8-3-2.8-3c-.6-.6-1.5-1-2.3-1-.8 0-1.6.3-2.2.9l-2.5 2.4c-1.7-.6-3.4-.9-5.2-.9-1.4 0-2.9.2-4.2.6l-2.4-2.5c-.6-.6-1.5-1-2.3-1zm8.9 20.7c-.6 0-1.1-.2-1.5-.6-.8-.8-.7-2.1.1-2.8.4-.4.9-.5 1.4-.5.6 0 1.1.2 1.5.6.8.8.7 2.1-.1 2.8-.4.3-.9.5-1.4.5z" class="st1"/><linearGradient id="SVGID_00000006683895257470189680000001142647968287899019_" x1="599.565" x2="651.375" y1="394.405" y2="342.585" gradientTransform="matrix(1 0 0 -1 0 598)" gradientUnits="userSpaceOnUse"><stop offset="0" style="stop-color:#5b5a72"/><stop offset="1" style="stop-color:#b0b0bf"/></linearGradient><path d="M631.6 260c-1.4 0-2.7-.9-3.1-2.3l-1-3.1c-2.1.1-4.2-.1-6.2-.5l-1.5 2.9c-.8 1.6-2.8 2.3-4.4 1.4l-5.5-2.8c-1.6-.8-2.3-2.8-1.4-4.4l1.5-2.9c-1.6-1.4-2.9-3-4.1-4.8l-3 1c-1.7.6-3.6-.4-4.1-2.1l-1.9-5.8c-.6-1.7.4-3.6 2.1-4.1l3-1c-.1-2.1.1-4.2.5-6.2l-2.9-1.5c-1.6-.8-2.3-2.8-1.4-4.4l2.8-5.5c.6-1.1 1.7-1.8 2.9-1.8.5 0 1 .1 1.5.4l2.9 1.5c1.4-1.6 3-2.9 4.8-4.1l-1-3.1c-.3-.8-.2-1.7.2-2.5s1.1-1.4 1.9-1.6l5.8-1.9c.3-.1.7-.2 1-.2 1.4 0 2.7.9 3.1 2.3l1 3.1c2.1-.1 4.2.1 6.2.5l1.5-2.9c.6-1.1 1.7-1.8 2.9-1.8.5 0 1 .1 1.5.4l5.5 2.8c1.6.8 2.3 2.8 1.4 4.4l-1.5 2.9c1.6 1.4 2.9 3 4.1 4.8l3-1c.3-.1.7-.2 1-.2 1.4 0 2.7.9 3.1 2.3l1.9 5.8c.3.8.2 1.7-.2 2.5s-1.1 1.4-1.9 1.6l-3 1c.1 2.1-.1 4.2-.5 6.2l2.9 1.5c1.6.8 2.3 2.8 1.4 4.4l-2.8 5.5c-.6 1.1-1.7 1.8-2.9 1.8-.5 0-1-.1-1.5-.4l-2.9-1.5c-1.4 1.6-3 2.9-4.8 4.1l1 3.1c.3.8.2 1.7-.2 2.5s-1.1 1.4-1.9 1.6l-5.8 1.9c-.3.2-.7.2-1 .2zm-5.3-43.2c-1.4 0-2.8.2-4.2.7-3.4 1.1-6.2 3.5-7.9 6.7-1.6 3.2-1.9 6.9-.8 10.3 1.8 5.6 7 9.4 12.9 9.4 1.4 0 2.8-.2 4.2-.7 3.4-1.1 6.2-3.5 7.9-6.7s1.9-6.9.8-10.3c-1.9-5.7-7-9.4-12.9-9.4z" style="fill:url(#SVGID_00000006683895257470189680000001142647968287899019_)"/><path d="M621 202.4c.7 0 1.2.4 1.5 1.1l1.4 4.4c2.8-.3 5.7-.1 8.4.7l2.1-4.1c.4-.8 1.3-1.1 2.1-.7l2.7 1.4 2.7 1.4c.8.4 1 1.3.7 2.1l-2.1 4.1c2.2 1.8 4.1 3.9 5.5 6.4l4.4-1.4c.2-.1.3-.1.5-.1.7 0 1.2.4 1.5 1.1l.9 2.9.9 2.9c.3.8-.2 1.7-1 1.9l-4.4 1.4c.3 2.9.1 5.7-.7 8.4l4.1 2.1c.8.4 1 1.3.7 2.1l-1.4 2.7-1.4 2.7c-.4.8-1.3 1.1-2.1.7l-4.1-2.1c-1.8 2.2-4 4.1-6.4 5.5l1.4 4.4c.3.8-.2 1.7-1 1.9l-2.9.9-2.9.9c-.2 0-.3.1-.5.1-.7 0-1.2-.4-1.5-1.1l-1.4-4.4c-2.8.3-5.7.1-8.4-.7l-2.1 4.1c-.4.8-1.3 1.1-2.1.7l-2.7-1.4-2.7-1.4c-.8-.4-1-1.3-.7-2.1l2.1-4.1c-2.2-1.8-4.1-4-5.5-6.4l-4.4 1.4c-.2.1-.3.1-.5.1-.7 0-1.2-.4-1.5-1.1l-.9-2.9-.9-2.9c-.3-.8.2-1.7 1-1.9l4.4-1.4c-.3-2.9-.1-5.7.7-8.4l-4.1-2.1c-.8-.4-1-1.3-.7-2.1l1.4-2.7 1.4-2.7c.4-.8 1.3-1.1 2.1-.7l4.1 2.1c1.8-2.2 3.9-4.1 6.4-5.5l-1.4-4.4c-.3-.8.2-1.7 1-1.9l2.9-.9 2.9-.9c.2-.1.4-.1.5-.1m5.3 43.2c1.5 0 3.1-.2 4.7-.7 8-2.6 12.4-11.2 9.8-19.2-2.1-6.5-8.1-10.6-14.5-10.6-1.6 0-3.1.2-4.7.7-8 2.6-12.4 11.2-9.8 19.2 2 6.5 8 10.6 14.5 10.6m-5.3-46.7c-.5 0-1 .1-1.5.2l-2.9.9-2.9.9c-1.3.4-2.3 1.3-3 2.5-.6 1.2-.7 2.6-.3 3.9l.6 1.8c-1.1.8-2.1 1.7-3.1 2.6l-1.7-.9c-.7-.4-1.5-.6-2.3-.6-1.9 0-3.6 1.1-4.5 2.8l-1.4 2.7-1.4 2.7c-.6 1.2-.7 2.6-.3 3.9.4 1.3 1.3 2.3 2.5 2.9l1.7.9c-.2 1.3-.3 2.7-.3 4l-1.8.6c-2.7.9-4.1 3.7-3.3 6.4l.9 2.9.9 2.9c.7 2.1 2.6 3.5 4.8 3.5.5 0 1-.1 1.5-.2l1.8-.6c.8 1.1 1.7 2.1 2.6 3.1l-.9 1.7c-1.3 2.5-.3 5.5 2.2 6.8l2.7 1.4 2.7 1.4c.7.4 1.5.6 2.3.6 1.9 0 3.6-1 4.5-2.8l.9-1.7c1.3.2 2.7.3 4 .3l.6 1.8c.7 2.1 2.6 3.5 4.8 3.5.5 0 1-.1 1.5-.2l2.9-.9 2.9-.9c2.7-.9 4.1-3.7 3.3-6.4l-.6-1.8c1.1-.8 2.1-1.7 3.1-2.6l1.7.9c.7.4 1.5.6 2.3.6 1.9 0 3.6-1.1 4.5-2.8l1.4-2.7 1.4-2.7c1.3-2.5.3-5.5-2.2-6.8l-1.7-.9c.2-1.3.3-2.7.3-4l1.8-.6c1.3-.4 2.3-1.3 3-2.5.6-1.2.7-2.6.3-3.9l-.9-2.9-.9-2.9c-.7-2.1-2.6-3.5-4.8-3.5-.5 0-1 .1-1.5.2l-1.8.6c-.8-1.1-1.7-2.1-2.6-3.1l.9-1.7c1.3-2.5.3-5.5-2.2-6.8l-2.7-1.4-2.7-1.4c-.7-.4-1.5-.6-2.3-.6-1.9 0-3.6 1.1-4.5 2.8l-.9 1.7c-1.3-.2-2.7-.3-4-.3l-.6-1.8c-.7-2.1-2.6-3.5-4.8-3.5zm5.3 43.2c-5.1 0-9.6-3.3-11.2-8.2-1-3-.7-6.2.7-9s3.9-4.9 6.8-5.8c1.2-.4 2.4-.6 3.6-.6 5.1 0 9.6 3.3 11.2 8.1 2 6.2-1.4 12.8-7.6 14.8-1.1.5-2.3.7-3.5.7z" class="st1"/><linearGradient id="SVGID_00000181075742873428952690000008318687805002834561_" x1="544.361" x2="578.232" y1="9484.848" y2="9474.168" gradientTransform="scale(1 -1) rotate(-30.809 -17116.763 4408.768)" gradientUnits="userSpaceOnUse"><stop offset="0" style="stop-color:#5b5a72"/><stop offset="1" style="stop-color:#b0b0bf"/></linearGradient><path d="M665.7 308.7c-.6 0-1.2-.4-1.3-1.1l-.6-2.4h-.2c-1.5 0-2.9-.2-4.3-.7l-1.3 2.1c-.2.4-.7.7-1.2.7-.2 0-.5-.1-.7-.2l-3.3-2c-.7-.4-.9-1.3-.5-1.9l1.3-2.1c-1.1-1.1-2.1-2.3-2.8-3.7l-2.4.6h-.3c-.6 0-1.2-.4-1.4-1.1l-.9-3.7c-.2-.7.3-1.5 1-1.7l2.4-.6c0-1.6.2-3.1.7-4.6l-2.1-1.3c-.7-.4-.9-1.2-.5-1.9l2-3.3c.2-.4.7-.7 1.2-.7.2 0 .5.1.7.2l2.1 1.3c1.1-1.1 2.3-2 3.7-2.8l-.6-2.4c-.2-.7.3-1.5 1-1.7l3.7-.9h.3c.6 0 1.2.4 1.3 1.1l.6 2.4h.3c1.5 0 2.9.2 4.3.7l1.3-2.1c.4-.7 1.3-.9 1.9-.5l3.3 2c.3.2.5.5.6.9s0 .7-.2 1.1l-1.3 2.1c1.1 1.1 2 2.3 2.8 3.7l2.4-.6h.3c.6 0 1.2.4 1.4 1.1l.9 3.7c.1.4 0 .7-.2 1.1-.2.3-.5.5-.9.6l-2.4.6c0 1.6-.2 3.1-.7 4.6l2.1 1.3c.3.2.5.5.6.9s0 .7-.2 1.1l-2 3.3c-.4.7-1.3.9-1.9.5l-2.1-1.3c-1.1 1.1-2.3 2-3.7 2.8l.6 2.4c.2.8-.3 1.5-1 1.7l-3.7.9c.2-.2 0-.2-.1-.2zm-2.2-23c-1.8 0-3.4.9-4.3 2.5-1.4 2.4-.6 5.5 1.8 6.9.8.5 1.7.7 2.6.7 1.8 0 3.4-.9 4.3-2.5 1.4-2.4.6-5.5-1.8-6.9-.8-.4-1.7-.7-2.6-.7z" style="fill:url(#SVGID_00000181075742873428952690000008318687805002834561_)"/><path d="M661.3 273.4c.4 0 .8.3.9.7l.7 2.8h.6c1.5 0 3.1.3 4.5.8l1.5-2.5c.3-.4.8-.6 1.3-.3l1.7 1 1.7 1c.4.3.6.8.3 1.3l-1.5 2.5c1.3 1.2 2.4 2.6 3.1 4.2l2.8-.7c.5-.1 1 .2 1.1.7l.5 1.9.5 1.9c.1.5-.2 1-.7 1.1l-2.8.7c.1 1.7-.2 3.5-.8 5.2l2.5 1.5c.4.3.6.8.3 1.3l-1 1.6-1 1.6c-.3.4-.8.6-1.3.3l-2.5-1.5c-1.2 1.3-2.6 2.3-4.2 3.1l.7 2.8c.1.5-.2 1-.7 1.1l-1.9.5-1.9.5c-.5.1-1-.2-1.1-.7l-.7-2.8h-.6c-1.5 0-3.1-.2-4.5-.8l-1.5 2.5c-.3.4-.8.6-1.3.3l-1.7-1-1.7-1c-.4-.3-.6-.8-.3-1.3l1.5-2.5c-1.3-1.2-2.4-2.6-3.1-4.2l-2.8.7c-.5.1-1-.2-1.1-.7l-.5-1.9-.5-1.9c-.1-.5.2-1 .7-1.1l2.8-.7c-.1-1.7.2-3.5.8-5.2l-2.5-1.5c-.4-.3-.6-.8-.3-1.3l1-1.6 1-1.6c.3-.4.8-.6 1.3-.3l2.5 1.5c1.2-1.3 2.6-2.4 4.2-3.1l-.7-2.8c-.1-.5.2-1 .7-1.1l1.9-.5 1.9-.5h.2m2.2 22.9c1.9 0 3.7-1 4.8-2.7 1.6-2.6.7-6-1.9-7.6-.9-.5-1.8-.8-2.8-.8-1.9 0-3.7 1-4.8 2.7-1.6 2.6-.7 6 1.9 7.6.8.6 1.8.8 2.8.8m-2.2-23.9c-.2 0-.3 0-.5.1l-1.9.5-1.9.5c-.5.1-.9.4-1.2.9-.3.4-.3.9-.2 1.4l.5 2c-1.2.7-2.3 1.5-3.2 2.4l-1.8-1.1c-.9-.5-2-.2-2.6.6l-1 1.6-1 1.6c-.3.4-.3.9-.2 1.4s.4.9.9 1.1l1.8 1.1c-.4 1.3-.6 2.6-.6 4l-2 .5c-.5.1-.9.4-1.2.9s-.3.9-.2 1.4l.5 1.9.5 1.9a2 2 0 0 0 2.3 1.4l2-.5c.6 1.2 1.5 2.3 2.4 3.2l-1.1 1.8c-.3.4-.3.9-.2 1.4.1.5.4.9.9 1.1l1.7 1 1.7 1c.9.5 2 .2 2.6-.6l1.1-1.8c1.3.4 2.6.6 4 .6l.5 2c.2.8 1 1.4 1.8 1.4.2 0 .3 0 .5-.1l1.9-.5 1.9-.5c.5-.1.9-.4 1.2-.9s.3-.9.2-1.4l-.5-2c1.2-.7 2.3-1.5 3.2-2.4l1.8 1.1c.9.5 2 .2 2.6-.6l1-1.6 1-1.6c.5-.9.2-2-.7-2.6l-1.8-1.1c.4-1.3.6-2.6.6-4l2-.5c.5-.1.9-.4 1.2-.9s.3-.9.2-1.4l-.5-1.9-.5-1.9c-.2-.8-1-1.4-1.8-1.4-.2 0-.3 0-.5.1l-2 .5c-.7-1.2-1.5-2.3-2.4-3.2l1.1-1.8c.5-.9.2-2-.7-2.6l-1.7-1-1.7-1c-.9-.5-2-.2-2.6.6l-1.1 1.8c-1.3-.4-2.6-.6-4-.6l-.5-2c-.2-.7-.9-1.3-1.8-1.3zm2.2 23c-.8 0-1.6-.2-2.3-.6-2.2-1.3-2.9-4.1-1.6-6.3.8-1.4 2.3-2.2 3.9-2.2.8 0 1.6.2 2.3.6 2.2 1.3 2.9 4.1 1.6 6.3-.8 1.3-2.3 2.2-3.9 2.2z" class="st1"/></svg>