<?xml version="1.0" encoding="utf-8"?>
<!-- Generator: Adobe Illustrator 28.3.0, SVG Export Plug-In . SVG Version: 6.00 Build 0)  -->
<svg version="1.1" id="Calque_1" xmlns="http://www.w3.org/2000/svg" xmlns:xlink="http://www.w3.org/1999/xlink" x="0px" y="0px"
	 viewBox="0 0 841.9 595.3" style="enable-background:new 0 0 841.9 595.3;" xml:space="preserve">
<style type="text/css">
	.st0{fill:url(#SVGID_1_);}
	.st1{fill:#FFFFFF;}
	.st2{fill:url(#SVGID_00000046311082556225695470000000234196495400670894_);}
	.st3{fill:url(#SVGID_00000092425328032022357230000012563406401622511250_);}
	.st4{fill:url(#SVGID_00000103985008667903289500000012398908472250108350_);}
	.st5{fill:url(#SVGID_00000074420298906172467690000014064024135417979793_);}
	.st6{fill:url(#SVGID_00000075123690737013279090000003253159741517530545_);}
	.st7{fill:url(#SVGID_00000107588251784532786300000016280517770778430378_);}
	.st8{fill:url(#SVGID_00000107583416712977012340000006148330488136451229_);}
	.st9{fill:url(#SVGID_00000094610773033961925840000001922300531291235715_);}
	.st10{fill:url(#SVGID_00000145752964268170927220000007746220426222094488_);}
</style>
<linearGradient id="SVGID_1_" gradientUnits="userSpaceOnUse" x1="455.5923" y1="318.9323" x2="582.4823" y2="192.0423" gradientTransform="matrix(1 0 0 -1 0 598)">
	<stop  offset="0" style="stop-color:#5B5A72"/>
	<stop  offset="1" style="stop-color:#B0B0BF"/>
</linearGradient>
<path class="st0" d="M542.2,402c-25.6,0-58.4-2.7-69.1-15.5c-3.4-4-3.2-7.5-3.1-8.4c0.1-1.5,1.8-18.8,11.1-36.3
	c8.9-16.8,26.8-36.8,61.1-36.8s52.2,20,61.1,36.8c9.3,17.6,11,34.9,11.1,36.3c0.1,0.9,0.3,4.4-3.1,8.4
	C600.7,399.2,567.9,402,542.2,402L542.2,402z"/>
<path class="st1" d="M542.2,307.4c64,0,69.7,70.9,69.7,70.9s3.8,21.1-69.7,21.1s-69.7-21.1-69.7-21.1S478.2,307.4,542.2,307.4
	 M542.2,302.4c-28.1,0-50,13.2-63.3,38.1c-9.5,17.8-11.3,35.4-11.4,37.3c-0.2,1.4-0.2,5.6,3.6,10.2c9.1,10.9,33,16.4,71.1,16.4
	s62-5.5,71.1-16.4c3.9-4.7,3.8-8.9,3.7-10.2c-0.2-1.8-1.9-19.4-11.4-37.3C592.2,315.6,570.4,302.4,542.2,302.4L542.2,302.4z"/>
<linearGradient id="SVGID_00000127006009608984015800000015465689611210253484_" gradientUnits="userSpaceOnUse" x1="498.2433" y1="359.3233" x2="626.7233" y2="230.8533" gradientTransform="matrix(1 0 0 -1 0 598)">
	<stop  offset="0" style="stop-color:#5B5A72"/>
	<stop  offset="1" style="stop-color:#B0B0BF"/>
</linearGradient>
<path style="fill:url(#SVGID_00000127006009608984015800000015465689611210253484_);" d="M542.2,331.4c-26.9,0-48.7-21.9-48.7-48.7
	s21.9-48.7,48.7-48.7s48.7,21.9,48.7,48.7S569.1,331.4,542.2,331.4z"/>
<path class="st1" d="M542.2,236.4c25.5,0,46.2,20.7,46.2,46.2s-20.7,46.2-46.2,46.2S496,308.2,496,282.7S516.7,236.5,542.2,236.4
	 M542.2,231.5c-28.2,0-51.2,23-51.2,51.2s23,51.2,51.2,51.2s51.2-23,51.2-51.2S570.5,231.5,542.2,231.5z"/>
<linearGradient id="SVGID_00000088131255558611015060000006010586525982947748_" gradientUnits="userSpaceOnUse" x1="254.4973" y1="316.7274" x2="377.0374" y2="194.1873" gradientTransform="matrix(1 0 0 -1 0 598)">
	<stop  offset="0" style="stop-color:#5B5A72"/>
	<stop  offset="1" style="stop-color:#B0B0BF"/>
</linearGradient>
<path style="fill:url(#SVGID_00000088131255558611015060000006010586525982947748_);" d="M338.9,402c-25.6,0-58.4-2.7-69.1-15.5
	c-3.4-4-3.2-7.5-3.1-8.4c0.1-1.5,1.8-18.8,11.1-36.3c8.9-16.8,26.8-36.8,61.1-36.8s52.2,20,61.1,36.8c9.4,17.6,11,34.9,11.1,36.3
	c0.1,0.9,0.3,4.4-3.1,8.4C397.4,399.2,364.6,402,338.9,402L338.9,402z"/>
<path class="st1" d="M338.9,307.4c64,0,69.7,70.9,69.7,70.9s3.8,21.1-69.7,21.1s-69.7-21.1-69.7-21.1S274.9,307.4,338.9,307.4
	 M338.9,302.4c-28.1,0-50,13.2-63.3,38.1c-9.5,17.8-11.3,35.4-11.4,37.3c-0.2,1.4-0.2,5.6,3.6,10.2c9.1,10.9,33,16.4,71.1,16.4
	s62-5.5,71.1-16.4c3.9-4.7,3.8-8.9,3.6-10.2c-0.2-1.8-1.9-19.4-11.4-37.3C388.9,315.6,367.1,302.4,338.9,302.4L338.9,302.4z"/>
<linearGradient id="SVGID_00000174567806014475436500000002368080369122980757_" gradientUnits="userSpaceOnUse" x1="297.18" y1="357.09" x2="421.25" y2="233.02" gradientTransform="matrix(1 0 0 -1 0 598)">
	<stop  offset="0" style="stop-color:#5B5A72"/>
	<stop  offset="1" style="stop-color:#B0B0BF"/>
</linearGradient>
<path style="fill:url(#SVGID_00000174567806014475436500000002368080369122980757_);" d="M338.9,331.4c-26.9,0-48.7-21.9-48.7-48.7
	s21.9-48.7,48.7-48.7s48.7,21.9,48.7,48.7S365.8,331.4,338.9,331.4z"/>
<path class="st1" d="M338.9,236.4c25.5,0,46.2,20.7,46.2,46.2s-20.7,46.2-46.2,46.2s-46.2-20.7-46.2-46.2S313.4,236.5,338.9,236.4
	 M338.9,231.5c-28.2,0-51.2,23-51.2,51.2s23,51.2,51.2,51.2s51.2-23,51.2-51.2S367.2,231.5,338.9,231.5z"/>
<linearGradient id="SVGID_00000079472473011850828800000001206149544304499376_" gradientUnits="userSpaceOnUse" x1="324.6612" y1="302.3512" x2="501.5012" y2="125.5112" gradientTransform="matrix(1 0 0 -1 0 598)">
	<stop  offset="0" style="stop-color:#5B5A72"/>
	<stop  offset="1" style="stop-color:#B0B0BF"/>
</linearGradient>
<path style="fill:url(#SVGID_00000079472473011850828800000001206149544304499376_);" d="M440.6,459.5c-62.1,0-84.5-11.2-92.4-20.6
	c-4.4-5.2-4.1-9.7-4-10.6c0.2-1.9,2.4-25,14.9-48.6c11.9-22.4,35.7-49,81.4-49s69.5,26.6,81.4,49c12.5,23.5,14.7,46.7,14.9,48.6
	c0.1,1,0.4,5.4-4,10.6C525.1,448.3,502.7,459.5,440.6,459.5L440.6,459.5z"/>
<path class="st1" d="M440.6,333.1c86.1,0,93.8,95.4,93.8,95.4s5.1,28.5-93.8,28.5s-93.8-28.5-93.8-28.5S354.4,333.1,440.6,333.1
	 M440.6,328.1c-47,0-71.4,27.4-83.6,50.3c-12.6,23.7-15,47.1-15.2,49.5c-0.2,1.6-0.4,6.7,4.5,12.5c5.1,6.1,14.2,11,26.9,14.6
	c16.4,4.6,39.1,6.9,67.4,6.9s50.9-2.3,67.4-6.9c12.7-3.5,21.8-8.5,26.9-14.6c4.9-5.9,4.7-11,4.5-12.5c-0.2-2.4-2.5-25.8-15.2-49.5
	C512,355.5,487.5,328.1,440.6,328.1L440.6,328.1z"/>
<linearGradient id="SVGID_00000013178266297122951010000007567080031362365341_" gradientUnits="userSpaceOnUse" x1="381.64" y1="357.1" x2="560.1299" y2="178.61" gradientTransform="matrix(1 0 0 -1 0 598)">
	<stop  offset="0" style="stop-color:#5B5A72"/>
	<stop  offset="1" style="stop-color:#B0B0BF"/>
</linearGradient>
<path style="fill:url(#SVGID_00000013178266297122951010000007567080031362365341_);" d="M440.6,364.5c-35.7,0-64.7-29-64.7-64.7
	s29-64.7,64.7-64.7s64.7,29,64.7,64.7S476.2,364.5,440.6,364.5L440.6,364.5z"/>
<path class="st1" d="M440.6,237.7c34.3,0,62.2,27.8,62.2,62.2S474.9,362,440.6,362s-62.2-27.8-62.2-62.2S406.2,237.7,440.6,237.7
	 M440.6,232.7c-37,0-67.2,30.1-67.2,67.2s30.1,67.2,67.2,67.2s67.2-30.1,67.2-67.2S477.6,232.7,440.6,232.7z"/>
<linearGradient id="SVGID_00000176743941053315323500000000918893018571979453_" gradientUnits="userSpaceOnUse" x1="144.7507" y1="9315.4736" x2="210.4315" y2="9294.7637" gradientTransform="matrix(0.8589 0.5122 0.5122 -0.8589 -4673.8433 8145.001)">
	<stop  offset="0" style="stop-color:#5B5A72"/>
	<stop  offset="1" style="stop-color:#B0B0BF"/>
</linearGradient>
<path style="fill:url(#SVGID_00000176743941053315323500000000918893018571979453_);" d="M248.9,278.7c-1.2,0-2.3-0.8-2.6-2
	l-1.2-4.7h-0.5c-2.9,0-5.7-0.4-8.4-1.3l-2.5,4.1c-0.8,1.3-2.4,1.7-3.7,0.9l-6.4-3.8c-1.3-0.8-1.7-2.4-0.9-3.7l2.5-4.1
	c-2.2-2.1-4-4.5-5.4-7.2l-4.7,1.2c-0.2,0-0.4,0.1-0.7,0.1c-1.2,0-2.3-0.8-2.6-2l-1.8-7.2c-0.2-0.7-0.1-1.4,0.3-2.1
	c0.4-0.6,1-1.1,1.7-1.2l4.7-1.2c-0.1-3,0.4-6,1.3-8.9l-4.1-2.5c-1.3-0.8-1.7-2.4-0.9-3.7c0,0,0,0,0,0l3.8-6.4
	c0.8-1.3,2.4-1.7,3.7-0.9l4.1,2.5c2.1-2.2,4.5-4,7.2-5.4l-1.2-4.7c-0.2-0.7-0.1-1.4,0.3-2.1s1-1.1,1.7-1.2l7.2-1.8
	c0.2-0.1,0.4-0.1,0.7-0.1c1.2,0,2.3,0.8,2.6,2.1l1.2,4.7h0.5c2.9,0,5.7,0.4,8.4,1.3l2.5-4.1c0.8-1.3,2.4-1.7,3.7-0.9l6.4,3.8
	c1.3,0.8,1.7,2.4,0.9,3.7l-2.5,4.1c2.2,2.1,4,4.5,5.4,7.2l4.7-1.2c0.2-0.1,0.4-0.1,0.7-0.1c1.2,0,2.3,0.8,2.6,2.1l1.8,7.2
	c0.2,0.7,0.1,1.4-0.3,2.1c-0.4,0.6-1,1.1-1.7,1.2l-4.7,1.2c0,3-0.4,6-1.3,8.9l4.1,2.5c1.3,0.8,1.7,2.4,0.9,3.7c0,0,0,0,0,0l-3.8,6.4
	c-0.8,1.3-2.4,1.7-3.7,0.9l-4.1-2.5c-2.1,2.2-4.5,4-7.2,5.4l1.2,4.7c0.2,0.7,0.1,1.4-0.3,2s-1,1.1-1.7,1.2l-7.2,1.8
	C249.3,278.7,249.1,278.7,248.9,278.7L248.9,278.7z M244.7,234.2c-3.4,0-6.7,1.8-8.4,4.8c-2.8,4.6-1.2,10.7,3.4,13.4
	c1.5,0.9,3.2,1.4,5,1.4c3.4,0,6.7-1.8,8.4-4.8c2.8-4.6,1.2-10.6-3.4-13.4C248.2,234.7,246.4,234.2,244.7,234.2L244.7,234.2z"/>
<path class="st1" d="M240.4,210.2c0.8,0,1.5,0.5,1.7,1.4l1.4,5.4c3.4-0.2,6.8,0.3,10,1.4l2.8-4.8c0.3-0.6,0.9-0.9,1.5-0.9
	c0.3,0,0.6,0.1,0.9,0.2l3.2,1.9l3.2,1.9c0.9,0.5,1.1,1.6,0.6,2.4L263,224c2.6,2.3,4.6,5.1,6,8.1l5.4-1.4c0.1,0,0.3-0.1,0.4-0.1
	c0.8,0,1.5,0.5,1.7,1.4l0.9,3.6l0.9,3.6c0.2,1-0.3,1.9-1.3,2.2l-5.4,1.4c0.1,3.4-0.3,6.7-1.5,10l4.8,2.8c0.9,0.5,1.1,1.6,0.6,2.5
	l-1.9,3.2l-1.9,3.2c-0.3,0.6-0.9,0.9-1.5,0.9c-0.3,0-0.6-0.1-0.9-0.2l-4.8-2.8c-2.3,2.5-5.1,4.6-8.1,6l1.4,5.4
	c0.2,1-0.3,1.9-1.3,2.2l-3.6,0.9l-3.6,0.9c-0.1,0-0.3,0-0.4,0c-0.8,0-1.5-0.5-1.7-1.4l-1.4-5.4c-3.4,0.2-6.8-0.3-10-1.5l-2.9,4.8
	c-0.3,0.6-0.9,0.9-1.5,0.9c-0.3,0-0.6-0.1-0.9-0.2l-3.2-1.9l-3.2-1.9c-0.9-0.5-1.1-1.6-0.6-2.5l2.9-4.8c-2.6-2.3-4.6-5.1-6-8.1
	l-5.4,1.4c-0.1,0-0.3,0-0.4,0c-0.8,0-1.5-0.5-1.7-1.4l-0.9-3.6l-0.9-3.6c-0.2-1,0.3-1.9,1.3-2.2l5.4-1.4c-0.1-3.3,0.3-6.7,1.5-10
	l-4.8-2.9c-0.8-0.5-1.1-1.6-0.6-2.4l1.9-3.2l1.9-3.2c0.3-0.6,0.9-0.9,1.5-0.9c0.3,0,0.6,0.1,0.9,0.2l4.8,2.9c2.3-2.6,5.1-4.6,8.1-6
	l-1.4-5.4c-0.2-1,0.3-1.9,1.3-2.2l3.6-0.9l3.6-0.9C240.1,210.2,240.3,210.2,240.4,210.2 M244.7,254.7c3.6,0,7.2-1.9,9.2-5.2
	c3-5.1,1.4-11.6-3.7-14.7c-1.7-1-3.6-1.5-5.5-1.5c-3.6,0-7.2,1.9-9.2,5.2c-3,5.1-1.4,11.6,3.7,14.7
	C240.8,254.2,242.7,254.7,244.7,254.7 M240.4,208.3c-0.3,0-0.6,0-0.9,0.1l-3.6,0.9l-3.6,0.9c-0.9,0.2-1.7,0.8-2.2,1.7
	s-0.6,1.8-0.4,2.8l1,4c-2.3,1.3-4.4,2.8-6.3,4.7l-3.5-2.1c-0.6-0.3-1.2-0.5-1.9-0.5c-1.3,0-2.5,0.7-3.1,1.8l-1.9,3.2l-1.9,3.2
	c-1,1.7-0.5,4,1.3,5c0,0,0,0,0,0l3.5,2.1c-0.7,2.5-1.1,5.1-1.1,7.7l-4,1c-1.9,0.5-3.1,2.5-2.6,4.4l0.9,3.6l0.9,3.6
	c0.5,1.9,2.5,3.1,4.4,2.6l4-1c1.3,2.3,2.8,4.4,4.7,6.3l-2.1,3.5c-0.5,0.8-0.6,1.8-0.4,2.8s0.8,1.7,1.7,2.2l3.2,1.9l3.2,1.9
	c0.6,0.3,1.2,0.5,1.9,0.5c1.3,0,2.5-0.7,3.1-1.8l2.1-3.5c2.5,0.7,5.1,1.1,7.8,1.1l1,4c0.5,1.9,2.5,3.1,4.4,2.6c0,0,0,0,0,0l3.6-0.9
	l3.6-0.9c1.9-0.5,3.1-2.5,2.6-4.4l-1-4c2.3-1.3,4.4-2.8,6.3-4.7l3.5,2.1c0.6,0.3,1.2,0.5,1.9,0.5c1.3,0,2.5-0.7,3.1-1.8l1.9-3.2
	l1.9-3.2c1-1.7,0.5-4-1.3-5l-3.5-2.1c0.7-2.5,1.1-5.1,1.1-7.8l4-1c0.9-0.2,1.7-0.8,2.2-1.7s0.6-1.8,0.4-2.8l-0.9-3.6l-0.9-3.6
	c-0.5-1.9-2.5-3.1-4.4-2.6c0,0,0,0,0,0l-4,1c-1.3-2.3-2.8-4.4-4.7-6.3l2.1-3.5c1-1.7,0.5-4-1.3-5l-3.2-1.9l-3.2-1.9
	c-0.6-0.3-1.2-0.5-1.9-0.5c-1.3,0-2.5,0.7-3.1,1.8l-2.1,3.5c-2.5-0.7-5.1-1.1-7.7-1.1l-1-4C243.5,209.5,242.1,208.4,240.4,208.3
	L240.4,208.3z M244.7,252.9c-1.6,0-3.1-0.4-4.5-1.2c-2-1.2-3.5-3.2-4.1-5.4c-0.6-2.3-0.2-4.7,1-6.7c1.6-2.7,4.5-4.3,7.6-4.3
	c1.6,0,3.2,0.4,4.5,1.2c2,1.2,3.5,3.2,4.1,5.4c0.6,2.3,0.2,4.7-1,6.7C250.7,251.2,247.8,252.9,244.7,252.9L244.7,252.9z"/>
<linearGradient id="SVGID_00000101085095227135160600000008115959546318247561_" gradientUnits="userSpaceOnUse" x1="-1224.2609" y1="10182.6807" x2="-1185.8971" y2="10170.583" gradientTransform="matrix(0.6835 0.7299 0.7299 -0.6835 -6323.4463 8049.4199)">
	<stop  offset="0" style="stop-color:#5B5A72"/>
	<stop  offset="1" style="stop-color:#B0B0BF"/>
</linearGradient>
<path style="fill:url(#SVGID_00000101085095227135160600000008115959546318247561_);" d="M290.2,232.2c-0.6,0-1.2-0.3-1.7-0.7
	l-2.8-2.9c-1.5,0.5-3,0.7-4.5,0.7c-1.9,0-3.7-0.3-5.4-1l-3,2.8c-0.4,0.4-1,0.6-1.6,0.6c-0.6,0-1.2-0.3-1.7-0.7l-5.5-5.9
	c-0.9-0.9-0.8-2.4,0.1-3.2l3-2.8c-1-3.2-0.9-6.8,0.3-9.9l-2.8-3c-0.4-0.4-0.6-1-0.6-1.6c0-0.6,0.3-1.2,0.7-1.6l5.9-5.6
	c0.4-0.4,1-0.6,1.6-0.6c0.6,0,1.2,0.3,1.7,0.7l2.8,3c1.5-0.5,3-0.7,4.5-0.7c1.9,0,3.7,0.3,5.4,1l3-2.8c0.4-0.4,1-0.6,1.6-0.6
	c0.6,0,1.2,0.3,1.7,0.7l5.5,5.9c0.9,0.9,0.8,2.4-0.1,3.2l-3,2.8c1,3.3,0.9,6.8-0.3,9.9l2.8,2.9c0.4,0.4,0.6,1,0.6,1.6
	c0,0.6-0.3,1.2-0.7,1.6l-5.9,5.6C291.4,231.9,290.8,232.2,290.2,232.2L290.2,232.2z M281.3,211.5c-0.7,0-1.5,0.3-2,0.8
	c-1.2,1.1-1.2,2.9-0.1,4.1c0.6,0.6,1.3,0.9,2.1,0.9c0.7,0,1.5-0.3,2-0.8c0.6-0.5,0.9-1.2,0.9-2s-0.2-1.5-0.8-2.1
	C282.9,211.8,282.1,211.5,281.3,211.5L281.3,211.5z"/>
<path class="st1" d="M272.4,197.5c0.4,0,0.7,0.1,1,0.4l3.2,3.4c1.5-0.6,3.2-0.9,4.8-0.9c1.9,0,3.8,0.4,5.6,1.2l3.4-3.2
	c0.3-0.2,0.6-0.4,0.9-0.4c0.4,0,0.7,0.1,1,0.4l2.8,3l2.8,3c0.5,0.6,0.5,1.4-0.1,1.9l-3.4,3.2c1.2,3.4,1.1,7.1-0.3,10.4l3.2,3.4
	c0.5,0.6,0.5,1.4-0.1,1.9l-3,2.8l-3,2.8c-0.3,0.2-0.6,0.4-0.9,0.4c-0.4,0-0.7-0.1-1-0.4l-3.2-3.4c-1.5,0.6-3.1,0.8-4.8,0.8
	c-1.9,0-3.8-0.4-5.6-1.2l-3.4,3.2c-0.3,0.2-0.6,0.4-0.9,0.4c-0.4,0-0.7-0.1-1-0.4l-2.8-3l-2.8-3c-0.5-0.6-0.5-1.4,0.1-1.9l3.4-3.2
	c-1.2-3.4-1.1-7.1,0.4-10.4l-3.2-3.4c-0.5-0.6-0.5-1.4,0.1-1.9l3-2.8l3-2.8C271.7,197.7,272,197.5,272.4,197.5 M281.3,218.2
	c2.1,0,3.8-1.7,3.8-3.9c0-1-0.4-1.9-1-2.6c-0.7-0.8-1.7-1.2-2.8-1.2c-2.1,0-3.8,1.7-3.8,3.8c0,1,0.4,1.9,1,2.6
	C279.3,217.8,280.3,218.2,281.3,218.2 M272.4,195.7c-0.8,0-1.6,0.3-2.2,0.9l-3,2.8l-3,2.8c-0.6,0.6-1,1.4-1,2.2
	c0,0.9,0.3,1.7,0.9,2.3l2.4,2.5c-1,3-1.2,6.3-0.3,9.4l-2.5,2.4c-0.6,0.6-1,1.4-1,2.2c0,0.9,0.3,1.7,0.9,2.3l2.8,3l2.8,3
	c0.6,0.6,1.5,1,2.3,1c0.8,0,1.6-0.3,2.2-0.9l2.5-2.4c1.7,0.6,3.4,0.9,5.2,0.9c1.4,0,2.9-0.2,4.2-0.6l2.4,2.5c0.6,0.6,1.5,1,2.3,1
	c0.8,0,1.6-0.3,2.2-0.9l3-2.8l3-2.8c0.6-0.6,1-1.4,1-2.2c0-0.9-0.3-1.7-0.9-2.3l-2.4-2.5c1.1-3,1.2-6.3,0.3-9.4l2.5-2.4
	c0.6-0.6,1-1.4,1-2.2c0-0.9-0.3-1.7-0.9-2.3l-2.8-3l-2.8-3c-0.6-0.6-1.5-1-2.3-1c-0.8,0-1.6,0.3-2.2,0.9l-2.5,2.4
	c-1.7-0.6-3.4-0.9-5.2-0.9c-1.4,0-2.9,0.2-4.2,0.6l-2.4-2.5C274.1,196.1,273.2,195.7,272.4,195.7L272.4,195.7z M281.3,216.4
	c-0.6,0-1.1-0.2-1.5-0.6c-0.8-0.8-0.7-2.1,0.1-2.8c0.4-0.4,0.9-0.5,1.4-0.5c0.6,0,1.1,0.2,1.5,0.6c0.8,0.8,0.7,2.1-0.1,2.8
	C282.3,216.2,281.8,216.4,281.3,216.4L281.3,216.4z"/>
<linearGradient id="SVGID_00000006683895257470189680000001142647968287899019_" gradientUnits="userSpaceOnUse" x1="599.5649" y1="394.4049" x2="651.3749" y2="342.5849" gradientTransform="matrix(1 0 0 -1 0 598)">
	<stop  offset="0" style="stop-color:#5B5A72"/>
	<stop  offset="1" style="stop-color:#B0B0BF"/>
</linearGradient>
<path style="fill:url(#SVGID_00000006683895257470189680000001142647968287899019_);" d="M631.6,260c-1.4,0-2.7-0.9-3.1-2.3l-1-3.1
	c-2.1,0.1-4.2-0.1-6.2-0.5l-1.5,2.9c-0.8,1.6-2.8,2.3-4.4,1.4l-5.5-2.8c-1.6-0.8-2.3-2.8-1.4-4.4c0,0,0,0,0,0l1.5-2.9
	c-1.6-1.4-2.9-3-4.1-4.8l-3,1c-1.7,0.6-3.6-0.4-4.1-2.1c0,0,0,0,0,0l-1.9-5.8c-0.6-1.7,0.4-3.6,2.1-4.1l3-1
	c-0.1-2.1,0.1-4.2,0.5-6.2l-2.9-1.5c-1.6-0.8-2.3-2.8-1.4-4.4l2.8-5.5c0.6-1.1,1.7-1.8,2.9-1.8c0.5,0,1,0.1,1.5,0.4l2.9,1.5
	c1.4-1.6,3-2.9,4.8-4.1l-1-3.1c-0.3-0.8-0.2-1.7,0.2-2.5s1.1-1.4,1.9-1.6l5.8-1.9c0.3-0.1,0.7-0.2,1-0.2c1.4,0,2.7,0.9,3.1,2.3
	l1,3.1c2.1-0.1,4.2,0.1,6.2,0.5l1.5-2.9c0.6-1.1,1.7-1.8,2.9-1.8c0.5,0,1,0.1,1.5,0.4l5.5,2.8c1.6,0.8,2.3,2.8,1.4,4.4l-1.5,2.9
	c1.6,1.4,2.9,3,4.1,4.8l3-1c0.3-0.1,0.7-0.2,1-0.2c1.4,0,2.7,0.9,3.1,2.3l1.9,5.8c0.3,0.8,0.2,1.7-0.2,2.5s-1.1,1.4-1.9,1.6l-3,1
	c0.1,2.1-0.1,4.2-0.5,6.2l2.9,1.5c1.6,0.8,2.3,2.8,1.4,4.4l-2.8,5.5c-0.6,1.1-1.7,1.8-2.9,1.8c-0.5,0-1-0.1-1.5-0.4l-2.9-1.5
	c-1.4,1.6-3,2.9-4.8,4.1l1,3.1c0.3,0.8,0.2,1.7-0.2,2.5s-1.1,1.4-1.9,1.6l-5.8,1.9C632.3,260,631.9,260,631.6,260L631.6,260z
	 M626.3,216.8c-1.4,0-2.8,0.2-4.2,0.7c-3.4,1.1-6.2,3.5-7.9,6.7c-1.6,3.2-1.9,6.9-0.8,10.3c1.8,5.6,7,9.4,12.9,9.4
	c1.4,0,2.8-0.2,4.2-0.7c3.4-1.1,6.2-3.5,7.9-6.7s1.9-6.9,0.8-10.3C637.3,220.5,632.2,216.8,626.3,216.8L626.3,216.8z"/>
<path class="st1" d="M621,202.4c0.7,0,1.2,0.4,1.5,1.1l1.4,4.4c2.8-0.3,5.7-0.1,8.4,0.7l2.1-4.1c0.4-0.8,1.3-1.1,2.1-0.7l2.7,1.4
	l2.7,1.4c0.8,0.4,1,1.3,0.7,2.1l-2.1,4.1c2.2,1.8,4.1,3.9,5.5,6.4l4.4-1.4c0.2-0.1,0.3-0.1,0.5-0.1c0.7,0,1.2,0.4,1.5,1.1l0.9,2.9
	l0.9,2.9c0.3,0.8-0.2,1.7-1,1.9l-4.4,1.4c0.3,2.9,0.1,5.7-0.7,8.4l4.1,2.1c0.8,0.4,1,1.3,0.7,2.1l-1.4,2.7l-1.4,2.7
	c-0.4,0.8-1.3,1.1-2.1,0.7l-4.1-2.1c-1.8,2.2-4,4.1-6.4,5.5l1.4,4.4c0.3,0.8-0.2,1.7-1,1.9l-2.9,0.9l-2.9,0.9
	c-0.2,0-0.3,0.1-0.5,0.1c-0.7,0-1.2-0.4-1.5-1.1l-1.4-4.4c-2.8,0.3-5.7,0.1-8.4-0.7l-2.1,4.1c-0.4,0.8-1.3,1.1-2.1,0.7l-2.7-1.4
	l-2.7-1.4c-0.8-0.4-1-1.3-0.7-2.1l2.1-4.1c-2.2-1.8-4.1-4-5.5-6.4l-4.4,1.4c-0.2,0.1-0.3,0.1-0.5,0.1c-0.7,0-1.2-0.4-1.5-1.1
	l-0.9-2.9l-0.9-2.9c-0.3-0.8,0.2-1.7,1-1.9l4.4-1.4c-0.3-2.9-0.1-5.7,0.7-8.4l-4.1-2.1c-0.8-0.4-1-1.3-0.7-2.1l1.4-2.7l1.4-2.7
	c0.4-0.8,1.3-1.1,2.1-0.7l4.1,2.1c1.8-2.2,3.9-4.1,6.4-5.5l-1.4-4.4c-0.3-0.8,0.2-1.7,1-1.9l2.9-0.9l2.9-0.9
	C620.7,202.4,620.9,202.4,621,202.4 M626.3,245.6c1.5,0,3.1-0.2,4.7-0.7c8-2.6,12.4-11.2,9.8-19.2c-2.1-6.5-8.1-10.6-14.5-10.6
	c-1.6,0-3.1,0.2-4.7,0.7c-8,2.6-12.4,11.2-9.8,19.2C613.8,241.5,619.8,245.6,626.3,245.6 M621,198.9c-0.5,0-1,0.1-1.5,0.2l-2.9,0.9
	l-2.9,0.9c-1.3,0.4-2.3,1.3-3,2.5c-0.6,1.2-0.7,2.6-0.3,3.9l0.6,1.8c-1.1,0.8-2.1,1.7-3.1,2.6l-1.7-0.9c-0.7-0.4-1.5-0.6-2.3-0.6
	c-1.9,0-3.6,1.1-4.5,2.8l-1.4,2.7l-1.4,2.7c-0.6,1.2-0.7,2.6-0.3,3.9c0.4,1.3,1.3,2.3,2.5,2.9l1.7,0.9c-0.2,1.3-0.3,2.7-0.3,4
	l-1.8,0.6c-2.7,0.9-4.1,3.7-3.3,6.4l0.9,2.9l0.9,2.9c0.7,2.1,2.6,3.5,4.8,3.5c0.5,0,1-0.1,1.5-0.2l1.8-0.6c0.8,1.1,1.7,2.1,2.6,3.1
	l-0.9,1.7c-1.3,2.5-0.3,5.5,2.2,6.8l2.7,1.4l2.7,1.4c0.7,0.4,1.5,0.6,2.3,0.6c1.9,0,3.6-1,4.5-2.8l0.9-1.7c1.3,0.2,2.7,0.3,4,0.3
	l0.6,1.8c0.7,2.1,2.6,3.5,4.8,3.5c0.5,0,1-0.1,1.5-0.2l2.9-0.9l2.9-0.9c2.7-0.9,4.1-3.7,3.3-6.4l-0.6-1.8c1.1-0.8,2.1-1.7,3.1-2.6
	l1.7,0.9c0.7,0.4,1.5,0.6,2.3,0.6c1.9,0,3.6-1.1,4.5-2.8l1.4-2.7l1.4-2.7c1.3-2.5,0.3-5.5-2.2-6.8l-1.7-0.9c0.2-1.3,0.3-2.7,0.3-4
	l1.8-0.6c1.3-0.4,2.3-1.3,3-2.5c0.6-1.2,0.7-2.6,0.3-3.9l-0.9-2.9l-0.9-2.9c-0.7-2.1-2.6-3.5-4.8-3.5c-0.5,0-1,0.1-1.5,0.2l-1.8,0.6
	c-0.8-1.1-1.7-2.1-2.6-3.1l0.9-1.7c1.3-2.5,0.3-5.5-2.2-6.8l-2.7-1.4l-2.7-1.4c-0.7-0.4-1.5-0.6-2.3-0.6c-1.9,0-3.6,1.1-4.5,2.8
	l-0.9,1.7c-1.3-0.2-2.7-0.3-4-0.3l-0.6-1.8C625.1,200.3,623.2,198.9,621,198.9L621,198.9z M626.3,242.1c-5.1,0-9.6-3.3-11.2-8.2
	c-1-3-0.7-6.2,0.7-9c1.4-2.8,3.9-4.9,6.8-5.8c1.2-0.4,2.4-0.6,3.6-0.6c5.1,0,9.6,3.3,11.2,8.1c2,6.2-1.4,12.8-7.6,14.8
	C628.7,241.9,627.5,242.1,626.3,242.1L626.3,242.1z"/>
<linearGradient id="SVGID_00000181075742873428952690000008318687805002834561_" gradientUnits="userSpaceOnUse" x1="544.3615" y1="9484.8477" x2="578.2318" y2="9474.168" gradientTransform="matrix(0.8589 0.5122 0.5122 -0.8589 -4673.8433 8145.001)">
	<stop  offset="0" style="stop-color:#5B5A72"/>
	<stop  offset="1" style="stop-color:#B0B0BF"/>
</linearGradient>
<path style="fill:url(#SVGID_00000181075742873428952690000008318687805002834561_);" d="M665.7,308.7c-0.6,0-1.2-0.4-1.3-1.1
	l-0.6-2.4h-0.2c-1.5,0-2.9-0.2-4.3-0.7l-1.3,2.1c-0.2,0.4-0.7,0.7-1.2,0.7c-0.2,0-0.5-0.1-0.7-0.2l-3.3-2c-0.7-0.4-0.9-1.3-0.5-1.9
	l1.3-2.1c-1.1-1.1-2.1-2.3-2.8-3.7l-2.4,0.6c-0.1,0-0.2,0-0.3,0c-0.6,0-1.2-0.4-1.4-1.1l-0.9-3.7c-0.2-0.7,0.3-1.5,1-1.7
	c0,0,0,0,0,0l2.4-0.6c0-1.6,0.2-3.1,0.7-4.6l-2.1-1.3c-0.7-0.4-0.9-1.2-0.5-1.9l2-3.3c0.2-0.4,0.7-0.7,1.2-0.7
	c0.2,0,0.5,0.1,0.7,0.2l2.1,1.3c1.1-1.1,2.3-2,3.7-2.8l-0.6-2.4c-0.2-0.7,0.3-1.5,1-1.7c0,0,0,0,0,0l3.7-0.9c0.1,0,0.2,0,0.3,0
	c0.6,0,1.2,0.4,1.3,1.1l0.6,2.4h0.3c1.5,0,2.9,0.2,4.3,0.7l1.3-2.1c0.4-0.7,1.3-0.9,1.9-0.5l3.3,2c0.3,0.2,0.5,0.5,0.6,0.9
	s0,0.7-0.2,1.1l-1.3,2.1c1.1,1.1,2,2.3,2.8,3.7l2.4-0.6c0.1,0,0.2,0,0.3,0c0.6,0,1.2,0.4,1.4,1.1l0.9,3.7c0.1,0.4,0,0.7-0.2,1.1
	c-0.2,0.3-0.5,0.5-0.9,0.6l-2.4,0.6c0,1.6-0.2,3.1-0.7,4.6l2.1,1.3c0.3,0.2,0.5,0.5,0.6,0.9s0,0.7-0.2,1.1l-2,3.3
	c-0.4,0.7-1.3,0.9-1.9,0.5l-2.1-1.3c-1.1,1.1-2.3,2-3.7,2.8l0.6,2.4c0.2,0.8-0.3,1.5-1,1.7l-3.7,0.9
	C666,308.7,665.8,308.7,665.7,308.7L665.7,308.7z M663.5,285.7c-1.8,0-3.4,0.9-4.3,2.5c-1.4,2.4-0.6,5.5,1.8,6.9
	c0.8,0.5,1.7,0.7,2.6,0.7c1.8,0,3.4-0.9,4.3-2.5c1.4-2.4,0.6-5.5-1.8-6.9C665.3,286,664.4,285.7,663.5,285.7z"/>
<path class="st1" d="M661.3,273.4c0.4,0,0.8,0.3,0.9,0.7l0.7,2.8c0.2,0,0.4,0,0.6,0c1.5,0,3.1,0.3,4.5,0.8l1.5-2.5
	c0.3-0.4,0.8-0.6,1.3-0.3c0,0,0,0,0,0l1.7,1l1.7,1c0.4,0.3,0.6,0.8,0.3,1.3l-1.5,2.5c1.3,1.2,2.4,2.6,3.1,4.2l2.8-0.7
	c0.5-0.1,1,0.2,1.1,0.7c0,0,0,0,0,0l0.5,1.9l0.5,1.9c0.1,0.5-0.2,1-0.7,1.1l-2.8,0.7c0.1,1.7-0.2,3.5-0.8,5.2l2.5,1.5
	c0.4,0.3,0.6,0.8,0.3,1.3l-1,1.6l-1,1.6c-0.3,0.4-0.8,0.6-1.3,0.3c0,0,0,0,0,0l-2.5-1.5c-1.2,1.3-2.6,2.3-4.2,3.1l0.7,2.8
	c0.1,0.5-0.2,1-0.7,1.1l-1.9,0.5l-1.9,0.5c-0.5,0.1-1-0.2-1.1-0.7c0,0,0,0,0,0l-0.7-2.8c-0.2,0-0.4,0-0.6,0c-1.5,0-3.1-0.2-4.5-0.8
	l-1.5,2.5c-0.3,0.4-0.8,0.6-1.3,0.3c0,0,0,0,0,0l-1.7-1l-1.7-1c-0.4-0.3-0.6-0.8-0.3-1.3c0,0,0,0,0,0l1.5-2.5
	c-1.3-1.2-2.4-2.6-3.1-4.2l-2.8,0.7c-0.5,0.1-1-0.2-1.1-0.7c0,0,0,0,0,0l-0.5-1.9l-0.5-1.9c-0.1-0.5,0.2-1,0.7-1.1l2.8-0.7
	c-0.1-1.7,0.2-3.5,0.8-5.2l-2.5-1.5c-0.4-0.3-0.6-0.8-0.3-1.3c0,0,0,0,0,0l1-1.6l1-1.6c0.3-0.4,0.8-0.6,1.3-0.3c0,0,0,0,0,0l2.5,1.5
	c1.2-1.3,2.6-2.4,4.2-3.1l-0.7-2.8c-0.1-0.5,0.2-1,0.7-1.1l1.9-0.5l1.9-0.5C661.2,273.4,661.3,273.4,661.3,273.4 M663.5,296.3
	c1.9,0,3.7-1,4.8-2.7c1.6-2.6,0.7-6-1.9-7.6c-0.9-0.5-1.8-0.8-2.8-0.8c-1.9,0-3.7,1-4.8,2.7c-1.6,2.6-0.7,6,1.9,7.6
	C661.5,296.1,662.5,296.3,663.5,296.3 M661.3,272.4c-0.2,0-0.3,0-0.5,0.1l-1.9,0.5l-1.9,0.5c-0.5,0.1-0.9,0.4-1.2,0.9
	c-0.3,0.4-0.3,0.9-0.2,1.4l0.5,2c-1.2,0.7-2.3,1.5-3.2,2.4l-1.8-1.1c-0.9-0.5-2-0.2-2.6,0.6l-1,1.6l-1,1.6c-0.3,0.4-0.3,0.9-0.2,1.4
	s0.4,0.9,0.9,1.1l1.8,1.1c-0.4,1.3-0.6,2.6-0.6,4l-2,0.5c-0.5,0.1-0.9,0.4-1.2,0.9s-0.3,0.9-0.2,1.4l0.5,1.9l0.5,1.9
	c0.3,1,1.3,1.6,2.3,1.4l2-0.5c0.6,1.2,1.5,2.3,2.4,3.2l-1.1,1.8c-0.3,0.4-0.3,0.9-0.2,1.4c0.1,0.5,0.4,0.9,0.9,1.1l1.7,1l1.7,1
	c0.9,0.5,2,0.2,2.6-0.6l1.1-1.8c1.3,0.4,2.6,0.6,4,0.6l0.5,2c0.2,0.8,1,1.4,1.8,1.4c0.2,0,0.3,0,0.5-0.1l1.9-0.5l1.9-0.5
	c0.5-0.1,0.9-0.4,1.2-0.9s0.3-0.9,0.2-1.4l-0.5-2c1.2-0.7,2.3-1.5,3.2-2.4l1.8,1.1c0.9,0.5,2,0.2,2.6-0.6l1-1.6l1-1.6
	c0.5-0.9,0.2-2-0.7-2.6l-1.8-1.1c0.4-1.3,0.6-2.6,0.6-4l2-0.5c0.5-0.1,0.9-0.4,1.2-0.9s0.3-0.9,0.2-1.4l-0.5-1.9l-0.5-1.9
	c-0.2-0.8-1-1.4-1.8-1.4c-0.2,0-0.3,0-0.5,0.1l-2,0.5c-0.7-1.2-1.5-2.3-2.4-3.2l1.1-1.8c0.5-0.9,0.2-2-0.7-2.6l-1.7-1l-1.7-1
	c-0.9-0.5-2-0.2-2.6,0.6l-1.1,1.8c-1.3-0.4-2.6-0.6-4-0.6l-0.5-2C662.9,273,662.2,272.4,661.3,272.4L661.3,272.4z M663.5,295.4
	c-0.8,0-1.6-0.2-2.3-0.6c-2.2-1.3-2.9-4.1-1.6-6.3c0.8-1.4,2.3-2.2,3.9-2.2c0.8,0,1.6,0.2,2.3,0.6c2.2,1.3,2.9,4.1,1.6,6.3
	C666.6,294.5,665.1,295.4,663.5,295.4L663.5,295.4z"/>
</svg>
