<?xml version="1.0" standalone="no"?>
<!DOCTYPE svg PUBLIC "-//W3C//DTD SVG 20010904//EN"
 "http://www.w3.org/TR/2001/REC-SVG-20010904/DTD/svg10.dtd">
<svg version="1.0" xmlns="http://www.w3.org/2000/svg"
 width="3839.000000pt" height="1686.000000pt" viewBox="0 0 3839.000000 1686.000000"
 preserveAspectRatio="xMidYMid meet">

<g transform="translate(0.000000,1686.000000) scale(0.100000,-0.100000)"
fill="#000000" stroke="none">
<path d="M16600 13776 c-157 -44 -287 -169 -340 -326 -19 -55 -22 -81 -18
-172 4 -102 7 -112 46 -190 46 -94 106 -158 195 -212 120 -71 -131 -66 3180
-66 2099 0 3001 3 3043 11 318 58 489 414 339 708 -37 73 -123 162 -194 200
-124 66 133 61 -3191 60 -2384 -1 -3024 -3 -3060 -13z"/>
<path d="M18285 11953 c-275 -36 -467 -289 -425 -559 30 -190 173 -352 354
-400 43 -12 546 -14 3079 -14 l3028 0 61 21 c244 82 386 339 323 584 -50 191
-210 337 -401 365 -66 9 -5948 12 -6019 3z"/>
<path d="M15653 10106 c-297 -72 -453 -411 -318 -690 63 -131 204 -240 344
-266 79 -15 6012 -14 6083 1 182 38 339 195 377 377 53 257 -103 511 -354 577
-53 13 -395 15 -3070 14 -2375 -1 -3021 -3 -3062 -13z"/>
<path d="M8485 6184 c-452 -38 -836 -186 -1131 -435 -365 -309 -561 -802 -514
-1296 59 -637 470 -1130 1119 -1343 388 -127 911 -141 1328 -34 645 164 1091
608 1220 1214 28 132 26 499 -4 632 -44 196 -117 368 -224 529 -85 128 -282
325 -409 408 -249 164 -542 270 -860 311 -90 12 -440 21 -525 14z m465 -600
c254 -42 480 -152 636 -308 166 -168 257 -376 271 -621 28 -527 -296 -916
-868 -1041 -121 -27 -487 -27 -609 0 -469 103 -770 377 -852 776 -26 126 -21
345 11 465 27 102 96 242 159 325 249 328 745 488 1252 404z"/>
<path d="M12645 6184 c-743 -62 -1299 -419 -1541 -989 -83 -194 -116 -373
-116 -610 2 -394 137 -743 397 -1023 140 -151 287 -256 500 -358 325 -155 720
-225 1115 -195 451 35 838 174 1135 411 l64 51 -156 232 c-86 128 -159 236
-163 240 -4 5 -63 -28 -131 -73 -206 -134 -396 -217 -596 -257 -128 -26 -493
-26 -613 0 -460 99 -750 350 -851 735 -29 110 -36 300 -15 419 76 436 402 729
911 820 126 22 379 22 510 -1 299 -53 499 -136 682 -285 l61 -49 167 246 166
247 -36 32 c-117 102 -385 245 -575 307 -115 37 -259 69 -390 86 -89 12 -440
21 -525 14z"/>
<path d="M23525 6184 c-263 -26 -381 -49 -547 -104 -382 -127 -695 -361 -890
-666 -84 -132 -163 -327 -200 -497 -19 -88 -22 -132 -22 -322 0 -189 3 -234
21 -317 155 -689 700 -1150 1483 -1254 150 -20 500 -23 640 -6 260 33 472 95
685 202 174 87 301 177 425 301 375 375 521 913 394 1448 -95 403 -360 750
-733 960 -220 124 -437 196 -716 237 -97 14 -459 26 -540 18z m328 -585 c295
-25 557 -134 735 -303 126 -119 206 -250 259 -422 26 -84 27 -100 27 -279 0
-179 -1 -195 -27 -279 -53 -169 -118 -279 -241 -401 -120 -120 -246 -195 -422
-254 -152 -51 -226 -62 -425 -68 -271 -8 -454 26 -656 122 -121 57 -192 105
-282 190 -214 203 -315 487 -283 793 56 542 492 886 1152 910 25 1 98 -3 163
-9z"/>
<path d="M27270 6180 c-591 -65 -1038 -369 -1147 -780 -24 -92 -24 -303 1
-384 54 -179 174 -310 396 -433 142 -79 372 -152 707 -223 581 -124 769 -187
873 -290 51 -51 70 -99 70 -181 0 -169 -186 -290 -505 -328 -410 -49 -974 87
-1315 318 -41 28 -78 51 -82 51 -8 0 -328 -475 -328 -487 0 -5 35 -30 78 -56
264 -159 671 -300 1018 -351 554 -83 1064 2 1418 238 94 63 236 207 285 289
95 162 129 341 100 530 -30 193 -127 333 -328 469 -174 118 -412 207 -776 288
-429 96 -610 147 -762 216 -80 36 -153 97 -177 148 -22 46 -20 141 3 191 65
143 328 235 669 235 317 0 726 -117 956 -272 48 -33 60 -38 71 -27 6 8 82 118
168 246 l156 232 -28 20 c-49 35 -220 119 -326 160 -190 73 -399 127 -630 162
-151 23 -440 32 -565 19z"/>
<path d="M15924 6128 c-9 -18 -367 -708 -795 -1533 -428 -825 -781 -1508 -785
-1517 -6 -17 14 -18 339 -18 l345 0 143 280 143 280 941 -2 940 -3 110 -215
c76 -149 122 -227 151 -256 68 -69 97 -74 433 -81 l294 -6 -116 224 c-64 123
-426 820 -804 1549 l-688 1325 -317 3 -317 2 -17 -32z m655 -1296 l318 -632
-644 0 -643 0 317 635 c175 349 322 634 326 632 5 -1 152 -287 326 -635z"/>
<path d="M3590 6140 c-151 -4 -332 -8 -402 -9 l-128 -1 0 -1534 0 -1534 418
-8 c667 -14 1160 -11 1342 10 399 44 702 146 945 317 113 81 284 251 353 352
101 147 180 338 224 541 19 87 22 132 22 321 0 191 -3 234 -22 325 -66 302
-178 517 -372 710 -287 286 -625 436 -1125 497 -143 17 -833 24 -1255 13z
m1085 -590 c376 -23 602 -111 781 -303 115 -122 185 -258 221 -427 24 -116 24
-335 -1 -445 -75 -329 -278 -555 -593 -661 -204 -69 -466 -89 -1020 -78 l-353
7 0 953 0 953 23 4 c44 9 795 6 942 -3z"/>
<path d="M19035 6139 c-132 -3 -279 -7 -327 -8 l-88 -1 0 -1535 0 -1535 320 0
320 0 2 458 3 457 375 1 c691 3 1005 52 1302 206 195 101 337 243 422 421 74
155 102 316 93 537 -16 379 -178 636 -498 793 -236 115 -527 180 -924 207
-162 10 -615 10 -1000 -1z m1185 -599 c212 -26 348 -78 441 -167 195 -186 154
-532 -80 -682 -57 -37 -136 -66 -256 -93 -83 -20 -128 -22 -577 -25 l-488 -5
0 491 c0 458 1 490 18 495 30 9 854 -3 942 -14z"/>
<path d="M29170 5835 l0 -295 583 -2 582 -3 3 -1237 2 -1238 325 0 325 0 0
1240 0 1240 580 0 580 0 0 295 0 295 -1490 0 -1490 0 0 -295z"/>
<path d="M32602 4673 l3 -1458 21 -40 c25 -46 45 -65 94 -91 34 -18 87 -19
1318 -22 l1282 -3 0 301 0 300 -1035 0 -1035 0 0 335 0 335 925 0 925 0 0 295
0 295 -922 2 -923 3 0 305 0 305 1003 3 1002 2 0 295 0 295 -1330 0 -1330 0 2
-1457z"/>
</g>
</svg>
