<?xml version="1.0" standalone="no"?>
<!DOCTYPE svg PUBLIC "-//W3C//DTD SVG 20010904//EN"
 "http://www.w3.org/TR/2001/REC-SVG-20010904/DTD/svg10.dtd">
<svg version="1.0" xmlns="http://www.w3.org/2000/svg"
 width="740.000000pt" height="297.000000pt" viewBox="0 0 740.000000 297.000000"
 preserveAspectRatio="xMidYMid meet">

<g transform="translate(0.000000,297.000000) scale(0.100000,-0.100000)"
fill="#000000" stroke="none">
<path d="M2880 1748 l0 -943 1607 2 1608 3 3 940 2 940 -490 0 -490 0 0 -90 0
-90 403 0 402 1 3 -771 2 -770 -1440 0 -1440 0 2 770 3 771 743 -1 c408 0 804
3 880 6 l137 7 0 77 0 77 -134 7 c-74 3 -509 6 -968 6 l-833 0 0 -942z"/>
<path d="M310 1741 l0 -491 90 0 90 0 0 144 0 144 193 4 192 3 67 33 c81 40
139 102 169 181 17 45 20 73 17 141 -6 142 -69 242 -188 299 -55 26 -56 26
-342 29 l-288 3 0 -490z m560 292 c84 -52 106 -179 46 -257 -44 -58 -76 -66
-262 -66 l-164 0 0 168 c0 93 3 172 7 176 5 4 82 6 173 4 149 -3 168 -5 200
-25z"/>
<path d="M3447 2223 c-3 -5 -10 -35 -17 -68 -6 -33 -14 -68 -16 -77 -5 -17 11
-18 236 -18 l242 0 -27 -32 c-15 -18 -73 -82 -129 -142 -55 -60 -108 -117
-116 -126 -26 -30 -222 -242 -291 -315 -75 -80 -84 -93 -94 -153 l-7 -42 383
2 382 3 17 83 17 82 -254 0 -254 0 23 29 c13 16 157 174 322 352 164 178 304
333 311 344 7 11 15 35 19 53 l6 32 -375 0 c-205 0 -376 -3 -378 -7z"/>
<path d="M1450 1950 c-137 -29 -230 -122 -259 -258 -35 -168 21 -333 141 -408
56 -35 151 -57 221 -51 68 6 158 47 181 82 18 27 34 33 33 13 0 -7 1 -28 1
-45 l2 -33 80 0 80 0 0 345 0 345 -79 0 -79 0 -7 -41 -7 -41 -27 25 c-63 60
-179 88 -281 67z m200 -165 c123 -64 147 -240 46 -341 -78 -79 -212 -77 -288
2 -110 116 -56 316 96 355 41 11 109 3 146 -16z"/>
<path d="M4471 1944 c-81 -22 -147 -62 -205 -125 -131 -141 -165 -355 -76
-479 55 -78 194 -121 325 -101 83 12 186 50 228 84 l29 22 -42 53 c-42 52 -43
53 -67 37 -64 -42 -202 -58 -266 -31 -45 19 -77 57 -84 100 l-6 36 276 0 275
0 12 72 c39 230 -58 350 -283 347 -34 0 -86 -7 -116 -15z m182 -148 c38 -15
67 -55 67 -90 l0 -25 -185 -3 c-102 -2 -185 1 -185 5 0 22 57 79 103 102 58
29 146 34 200 11z"/>
<path d="M5349 1931 c-25 -10 -67 -33 -94 -51 l-48 -33 7 47 7 46 -76 0 c-52
0 -77 -4 -79 -12 -2 -7 -11 -47 -19 -88 -56 -265 -119 -558 -123 -572 -5 -16
3 -18 79 -18 l85 0 11 48 c6 26 24 112 41 191 34 157 51 200 102 248 105 101
254 75 274 -48 4 -21 -10 -109 -35 -226 -23 -106 -41 -197 -41 -203 0 -6 32
-10 83 -10 l83 0 22 108 c11 59 30 149 42 201 22 104 25 186 9 244 -13 49 -63
105 -114 128 -52 24 -155 24 -216 0z"/>
<path d="M2041 1888 c11 -29 65 -161 118 -293 54 -132 106 -262 116 -290 l18
-50 -62 -143 c-33 -79 -61 -146 -61 -148 0 -3 41 -3 91 -2 l92 3 208 484 c115
267 209 486 209 488 0 2 -42 3 -92 3 l-93 0 -21 -53 c-31 -74 -160 -398 -169
-422 -5 -15 -21 22 -62 140 -30 88 -68 199 -86 248 l-31 87 -98 0 -98 0 21
-52z"/>
<path d="M2920 495 c0 -113 2 -135 15 -135 11 0 15 12 15 45 l0 45 68 0 c73 0
80 3 105 40 26 37 21 77 -12 111 -28 27 -34 29 -110 29 l-81 0 0 -135z m170
85 c24 -24 25 -48 4 -78 -13 -19 -24 -22 -80 -22 l-64 0 0 60 0 60 60 0 c47 0
64 -4 80 -20z"/>
<path d="M4540 573 c0 -54 -1 -55 -18 -40 -25 23 -91 21 -121 -2 -18 -13 -25
-31 -28 -68 -4 -42 -2 -54 19 -78 20 -23 33 -28 72 -29 36 -1 51 4 62 18 12
18 19 15 15 -6 0 -5 6 -8 14 -8 13 0 15 22 15 135 0 113 -2 135 -15 135 -12 0
-15 -13 -15 -57z m-17 -76 c44 -50 -9 -130 -75 -111 -59 17 -64 103 -8 131 30
15 59 8 83 -20z"/>
<path d="M4740 495 c0 -110 3 -135 14 -135 8 0 16 5 18 10 2 7 15 5 36 -5 67
-34 135 11 135 90 0 62 -30 95 -88 95 -22 0 -51 -7 -64 -16 l-23 -17 4 57 c3
48 1 56 -14 56 -16 0 -18 -13 -18 -135z m164 -7 c32 -76 -48 -144 -104 -88
-24 24 -27 82 -4 104 9 9 32 16 55 16 35 0 41 -4 53 -32z"/>
<path d="M5310 495 l0 -135 90 0 c73 0 90 3 90 15 0 12 -15 15 -75 15 l-75 0
0 120 c0 100 -2 120 -15 120 -13 0 -15 -22 -15 -135z"/>
<path d="M3196 525 c-54 -50 -25 -155 47 -169 101 -19 166 86 101 163 -22 27
-32 31 -73 31 -37 0 -54 -6 -75 -25z m127 -27 c24 -28 21 -65 -8 -93 -47 -48
-115 -19 -115 48 0 69 78 97 123 45z"/>
<path d="M3400 543 c0 -4 14 -46 30 -92 17 -46 30 -85 30 -87 0 -2 10 -4 23
-4 19 0 26 10 42 65 11 36 22 65 25 65 3 0 14 -28 25 -62 16 -48 25 -64 41
-66 18 -3 25 9 52 84 36 98 37 104 18 104 -9 0 -23 -26 -36 -67 -13 -38 -26
-72 -30 -76 -4 -5 -18 25 -31 67 -17 52 -28 75 -38 74 -8 -2 -25 -36 -39 -76
-13 -40 -26 -71 -29 -69 -2 3 -15 36 -27 74 -15 42 -30 69 -40 71 -9 2 -16 0
-16 -5z"/>
<path d="M3759 521 c-78 -78 11 -200 117 -160 35 13 46 37 14 31 -8 -1 -29 -5
-47 -8 -26 -5 -37 -1 -60 22 l-28 29 88 3 87 3 0 30 c0 77 -111 109 -171 50z
m129 -18 c21 -29 14 -33 -58 -33 -68 0 -70 1 -60 21 22 40 90 47 118 12z"/>
<path d="M3980 455 c0 -78 3 -95 15 -95 12 0 15 14 15 63 0 74 14 93 70 99 19
2 35 8 35 13 0 15 -74 18 -91 4 -10 -8 -14 -8 -14 0 0 6 -7 11 -15 11 -12 0
-15 -17 -15 -95z"/>
<path d="M4165 527 c-17 -14 -28 -36 -32 -63 -4 -33 -1 -45 22 -72 33 -40 78
-49 130 -28 48 20 36 42 -13 24 -38 -15 -78 -3 -100 30 l-14 22 86 0 86 0 0
30 c0 73 -105 109 -165 57z m122 -19 c7 -6 13 -17 13 -24 0 -11 -17 -14 -70
-14 -68 0 -70 1 -60 21 20 37 82 46 117 17z"/>
<path d="M4970 547 c0 -2 18 -45 40 -95 l39 -92 -19 -46 c-24 -55 -24 -53 -2
-47 12 3 37 48 76 140 31 74 55 137 52 140 -14 14 -33 -10 -55 -68 -14 -35
-28 -68 -31 -72 -4 -4 -20 26 -36 67 -21 54 -34 76 -46 76 -10 0 -18 -1 -18
-3z"/>
<path d="M5522 453 l40 -97 -21 -43 c-20 -41 -20 -43 -2 -43 14 0 30 27 66
108 82 185 78 172 58 172 -12 0 -27 -20 -45 -65 -16 -35 -28 -69 -28 -75 0
-29 -19 -2 -43 65 -21 57 -33 75 -47 75 -17 0 -15 -10 22 -97z"/>
<path d="M5720 455 c0 -78 3 -95 15 -95 12 0 15 13 15 58 0 72 18 100 65 104
20 2 36 8 38 13 3 15 -62 18 -80 3 -13 -10 -17 -10 -20 0 -3 6 -11 12 -19 12
-11 0 -14 -20 -14 -95z"/>
<path d="M5905 525 c-19 -18 -25 -35 -25 -68 0 -82 61 -124 134 -93 20 8 36
11 36 5 0 -5 7 -9 15 -9 12 0 15 17 15 95 0 78 -3 95 -15 95 -8 0 -15 -7 -15
-17 0 -15 -1 -15 -18 0 -29 27 -98 22 -127 -8z m130 -28 c21 -30 19 -73 -5
-97 -54 -54 -145 5 -119 79 18 50 94 61 124 18z"/>
</g>
</svg>
