<svg xmlns="http://www.w3.org/2000/svg" xml:space="preserve" id="Calque_1" x="0" y="0" style="enable-background:new 0 0 841.9 595.3" version="1.1" viewBox="0 0 841.9 595.3"><style>.st1,.st2,.st3{opacity:.1;fill:url(#SVGID_00000061439014186879350460000006919460085898802328_);enable-background:new}.st2,.st3{fill:url(#SVGID_00000103261985035610419010000005044853847499760024_)}.st3{fill:url(#SVGID_00000089537578484062573480000004898910762058573192_)}.st10,.st4,.st5,.st6,.st7,.st8,.st9{opacity:.1;fill:url(#SVGID_00000157994017998800879390000008503269439281083068_);enable-background:new}.st10,.st5,.st6,.st7,.st8,.st9{fill:url(#SVGID_00000127016966914228169570000003575767893645141895_)}.st10,.st6,.st7,.st8,.st9{fill:url(#SVGID_00000167391202847825506820000005915907385993212344_)}.st10,.st7,.st8,.st9{fill:url(#SVGID_00000124135293548149136340000012487381083025869748_)}.st10,.st8,.st9{fill:url(#SVGID_00000149365713820880654670000015978840205911926668_)}.st10,.st9{fill:url(#SVGID_00000155848394097744280840000007812156539677940621_)}.st10{fill:url(#SVGID_00000036971010921535365470000002832650438492587958_)}.st11,.st12,.st13,.st14,.st15,.st16{opacity:.1;fill:url(#SVGID_00000000225093731088168540000017382947306355338664_);enable-background:new}.st12,.st13,.st14,.st15,.st16{fill:url(#SVGID_00000170242271016907257860000015915558521577896842_)}.st13,.st14,.st15,.st16{fill:url(#SVGID_00000024717016787815542510000002592699193072072836_)}.st14,.st15,.st16{fill:url(#SVGID_00000078044178965134902070000007743082174652134310_)}.st15,.st16{fill:url(#SVGID_00000158736644690006390700000014602670716075527334_)}.st16{fill:url(#SVGID_00000093864478087482897350000011559727372659533493_)}</style><linearGradient id="SVGID_1_" x1="-2628.648" x2="-2578.554" y1="821.183" y2="771.089" gradientTransform="rotate(-103.491 -1243.116 -865.326)" gradientUnits="userSpaceOnUse"><stop offset=".1" style="stop-color:#5b5a72"/><stop offset=".5" style="stop-color:#b0b0bf"/><stop offset=".96" style="stop-color:#f4f4f6"/></linearGradient><path d="M665.4 46.3c-.4-1.3-.3-2.7.1-4 1.2-4.1 5.5-6.4 9.6-5.2l55 16.3c2.6.8 4.7 2.9 5.3 5.6s-.2 5.5-2.2 7.4l-41.6 39.5c-1 .9-2.2 1.6-3.5 1.9-4.1 1-8.3-1.6-9.3-5.7l-13.4-55.8zm25.2 39.2 22.2-21.1-29.3-8.7 7.1 29.8z" style="opacity:.1;fill:url(#SVGID_1_);enable-background:new"/><linearGradient id="SVGID_00000037683938756474346710000018438803236630266530_" x1="3238.171" x2="3270.693" y1="-9718.279" y2="-9750.802" gradientTransform="rotate(138.738 146.96 -5202.469)" gradientUnits="userSpaceOnUse"><stop offset=".1" style="stop-color:#5b5a72"/><stop offset=".5" style="stop-color:#b0b0bf"/><stop offset=".96" style="stop-color:#f4f4f6"/></linearGradient><path d="M793.7 275.2c-1.3 1.2-3.2 1.6-4.8 1.1-1.7-.6-2.9-2-3.3-3.8l-7.3-36.5c-.4-1.8.3-3.6 1.6-4.8s3.2-1.6 4.9-1l35.2 12c.9.2 1.6.7 2.2 1.4 1.8 2.1 1.6 5.3-.5 7.1l-28 24.5zm-4-32.8 3.9 19.5 14.9-13.1-18.8-6.4z" style="opacity:.1;fill:url(#SVGID_00000037683938756474346710000018438803236630266530_);enable-background:new"/><linearGradient id="SVGID_00000111154890995256249580000012251695417134804153_" x1="10272.23" x2="10294.518" y1="-4911.78" y2="-4934.066" gradientTransform="rotate(66.871 1532.789 -9661.9)" gradientUnits="userSpaceOnUse"><stop offset=".1" style="stop-color:#5b5a72"/><stop offset=".5" style="stop-color:#b0b0bf"/><stop offset=".96" style="stop-color:#f4f4f6"/></linearGradient><path d="M624.5 255.2c.2.6.3 1.2.3 1.7-.2 1.9-1.9 3.2-3.8 3l-25.3-3c-.6-.1-1.2-.3-1.7-.7-1.5-1.1-1.8-3.3-.7-4.8l15.3-20.4c.4-.5.8-.9 1.4-1.1 1.7-.8 3.8.1 4.5 1.8l10 23.5zm-14-15.2-8.2 10.9 13.5 1.6-5.3-12.5z" style="opacity:.1;fill:url(#SVGID_00000111154890995256249580000012251695417134804153_);enable-background:new"/><linearGradient id="SVGID_00000180351112362184218380000005052385791796943783_" x1="10403.763" x2="10417.609" y1="-4921.317" y2="-4935.164" gradientTransform="rotate(66.871 1532.789 -9661.9)" gradientUnits="userSpaceOnUse"><stop offset=".1" style="stop-color:#5b5a72"/><stop offset=".5" style="stop-color:#b0b0bf"/><stop offset=".96" style="stop-color:#f4f4f6"/></linearGradient><path d="M674.7 366.9c.3.7.2 1.5-.3 2.2-.5.6-1.2.9-2 .8l-15.7-1.9c-.3 0-.7-.2-1-.4-.9-.7-1.1-2.1-.4-3l9.5-12.7c.3-.3.6-.6.9-.7 1.1-.5 2.3 0 2.8 1.1l6.2 14.6zm-13.8-2.7 8.4 1-3.3-7.8-5.1 6.8z" style="opacity:.1;fill:url(#SVGID_00000180351112362184218380000005052385791796943783_);enable-background:new"/><linearGradient id="SVGID_00000059285949619472749710000015540967009310294697_" x1="3251.794" x2="3273.149" y1="4706.443" y2="4685.078" gradientTransform="rotate(-43.838 -3798.14 5814.528)" gradientUnits="userSpaceOnUse"><stop offset=".1" style="stop-color:#5b5a72"/><stop offset=".5" style="stop-color:#b0b0bf"/><stop offset=".96" style="stop-color:#f4f4f6"/></linearGradient><path d="M523.2 103.2c.9-.8 2.1-1.1 3.3-.8 1.2.4 2 1.3 2.3 2.4l5.8 23.7c.3 1.2 0 2.4-.9 3.2s-2.1 1.1-3.2.8l-23.5-6.8c-1.2-.4-2-1.3-2.3-2.4-.3-1.2 0-2.4.9-3.2l17.6-16.9zm-8.9 17.8 12.5 3.7-3.1-12.7-9.4 9z" style="opacity:.1;fill:url(#SVGID_00000059285949619472749710000015540967009310294697_);enable-background:new"/><linearGradient id="SVGID_00000031902762408260552450000013527533194290889890_" x1="1293.032" x2="1359.022" y1="-1436.787" y2="-1502.787" gradientTransform="rotate(16.342 -4121.52 -2603)" gradientUnits="userSpaceOnUse"><stop offset=".1" style="stop-color:#5b5a72"/><stop offset=".5" style="stop-color:#b0b0bf"/><stop offset=".96" style="stop-color:#f4f4f6"/></linearGradient><path d="M777.9 53.9c-21-6.2-33-28.3-26.9-49.3s28.2-33.1 49.2-26.9S833.2 6 827.1 27s-28.2 33.1-49.2 26.9zm16.3-55.7c-9.7-2.8-19.9 2.7-22.7 12.4s2.7 19.9 12.4 22.7 19.9-2.7 22.7-12.4c2.8-9.6-2.8-19.8-12.4-22.7z" style="opacity:.1;fill:url(#SVGID_00000031902762408260552450000013527533194290889890_);enable-background:new"/><linearGradient id="SVGID_00000054954770944373656520000012326998677880556453_" x1="1107.061" x2="1154.771" y1="-1386.638" y2="-1434.358" gradientTransform="rotate(16.342 -4121.52 -2603)" gradientUnits="userSpaceOnUse"><stop offset=".1" style="stop-color:#5b5a72"/><stop offset=".5" style="stop-color:#b0b0bf"/><stop offset=".96" style="stop-color:#f4f4f6"/></linearGradient><path d="M557.1 10c4.5-15.2 20.4-24 35.6-19.5 15.2 4.4 24 20.4 19.5 35.6-4.4 15.3-20.4 24-35.6 19.5s-24-20.4-19.5-35.6zm31.2-4.6c-7-2-14.4 2-16.4 9s2 14.4 9 16.4 14.4-2 16.4-9-2-14.3-9-16.4z" style="opacity:.1;fill:url(#SVGID_00000054954770944373656520000012326998677880556453_);enable-background:new"/><linearGradient id="SVGID_00000004515443664884136770000010806185666481210030_" x1="-10279.453" x2="-10234.794" y1="-391.157" y2="-435.817" gradientTransform="rotate(-93.27 -4474.066 -5313.003) scale(1.00003)" gradientUnits="userSpaceOnUse"><stop offset=".1" style="stop-color:#5b5a72"/><stop offset=".5" style="stop-color:#b0b0bf"/><stop offset=".96" style="stop-color:#f4f4f6"/></linearGradient><path d="M773.1 179c.8 14.8-10.5 27.6-25.3 28.4s-27.5-10.5-28.3-25.3c-.8-14.9 10.5-27.5 25.3-28.4 14.8-.8 27.5 10.5 28.3 25.3zm-39.1 2.2c.3 6.8 6.2 12 13 11.6 6.8-.3 12-6.2 11.6-13-.3-6.8-6.2-12-13-11.6s-12 6.2-11.6 13z" style="opacity:.1;fill:url(#SVGID_00000004515443664884136770000010806185666481210030_);enable-background:new"/><linearGradient id="SVGID_00000082366967591230248500000016861075432618085798_" x1="-10411.138" x2="-10396.418" y1="-650.912" y2="-665.632" gradientTransform="rotate(-93.27 -4474.066 -5313.003) scale(1.00003)" gradientUnits="userSpaceOnUse"><stop offset=".1" style="stop-color:#5b5a72"/><stop offset=".5" style="stop-color:#b0b0bf"/><stop offset=".96" style="stop-color:#f4f4f6"/></linearGradient><path d="M511.5 350.4c-4.8.3-9-3.5-9.3-8.3s3.4-9 8.3-9.3c4.8-.3 9 3.4 9.3 8.3s-3.5 9.1-8.3 9.3zm-4.6-8.5c.1 2.2 2.1 3.9 4.3 3.8s3.9-2.1 3.8-4.3c-.1-2.2-2.1-3.9-4.3-3.8s-3.9 2.1-3.8 4.3z" style="opacity:.1;fill:url(#SVGID_00000082366967591230248500000016861075432618085798_);enable-background:new"/><linearGradient id="SVGID_00000020392504925043485450000015050935236871516345_" x1="-10174.865" x2="-10160.105" y1="-765.869" y2="-780.629" gradientTransform="rotate(-93.27 -4474.066 -5313.003) scale(1.00003)" gradientUnits="userSpaceOnUse"><stop offset=".1" style="stop-color:#5b5a72"/><stop offset=".5" style="stop-color:#b0b0bf"/><stop offset=".96" style="stop-color:#f4f4f6"/></linearGradient><path d="M383.2 121.1c-4.9.2-9.1-3.5-9.4-8.4-.2-4.9 3.5-9.1 8.4-9.4 4.9-.2 9.1 3.5 9.4 8.4s-3.5 9.1-8.4 9.4zm-.7-12.9c-2.3.1-4 2-3.8 4.4.1 2.2 2 3.9 4.3 3.8 2.2-.1 3.9-2 3.8-4.3-.1-2.3-2.1-4-4.3-3.9z" style="opacity:.1;fill:url(#SVGID_00000020392504925043485450000015050935236871516345_);enable-background:new"/><linearGradient id="SVGID_00000078020333796295880200000006142645345578797971_" x1="-10441.632" x2="-10411.422" y1="-326.106" y2="-356.316" gradientTransform="rotate(-93.27 -4474.066 -5313.003) scale(1.00003)" gradientUnits="userSpaceOnUse"><stop offset=".1" style="stop-color:#5b5a72"/><stop offset=".5" style="stop-color:#b0b0bf"/><stop offset=".96" style="stop-color:#f4f4f6"/></linearGradient><path d="M846.6 344.8c.6 10-7.1 18.6-17.1 19.2s-18.6-7.1-19.2-17.1c-.6-10 7.1-18.6 17.1-19.2s18.6 7.1 19.2 17.1zm-26.5 1.5c.2 4.6 4.2 8.2 8.8 7.9 4.6-.2 8.1-4.2 7.9-8.8-.2-4.6-4.2-8.2-8.8-7.9-4.6.2-8.1 4.2-7.9 8.8z" style="opacity:.1;fill:url(#SVGID_00000078020333796295880200000006142645345578797971_);enable-background:new"/><linearGradient id="SVGID_00000016050624058359476900000004996091159365626556_" x1="-9497.494" x2="-9435.568" y1="596.179" y2="534.254" gradientTransform="rotate(-121.473 -4449.89 -2547.164)" gradientUnits="userSpaceOnUse"><stop offset=".1" style="stop-color:#5b5a72"/><stop offset=".5" style="stop-color:#b0b0bf"/><stop offset=".96" style="stop-color:#f4f4f6"/></linearGradient><path d="M781.6 102.2c-2.3-3.8-1.1-8.7 2.6-11l43.2-26.4c3.8-2.3 8.7-1.2 11 2.6l26.4 43.2c2.3 3.8 1.2 8.7-2.6 11L819 148c-3.8 2.3-8.7 1.2-11-2.6l-26.4-43.2zm35.9 28 29.6-18.1L829 82.5l-29.6 18.1 18.1 29.6z" style="opacity:.1;fill:url(#SVGID_00000016050624058359476900000004996091159365626556_);enable-background:new"/><linearGradient id="SVGID_00000115490987406373061520000013495365059235821711_" x1="-5053.944" x2="-5024.521" y1="-7700.29" y2="-7729.714" gradientTransform="rotate(156.693 -2982.543 -3115.125)" gradientUnits="userSpaceOnUse"><stop offset=".1" style="stop-color:#5b5a72"/><stop offset=".5" style="stop-color:#b0b0bf"/><stop offset=".96" style="stop-color:#f4f4f6"/></linearGradient><path d="m716.8 312.6-9.5-22.1c-.8-1.9.1-4.2 2-5l22.1-9.5c1.9-.8 4.2.1 5 2l9.5 22.1c.8 1.9-.1 4.2-2 5l-22.1 9.5c-1.9.8-4.1 0-5-2zm14.2-28.1-15.1 6.5 6.5 15.1 15.1-6.5-6.5-15.1z" style="opacity:.1;fill:url(#SVGID_00000115490987406373061520000013495365059235821711_);enable-background:new"/><linearGradient id="SVGID_00000157307954669456321360000015712160596436093592_" x1="-5037.157" x2="-5022.488" y1="-7873.713" y2="-7888.382" gradientTransform="rotate(156.693 -2982.543 -3115.125)" gradientUnits="userSpaceOnUse"><stop offset=".1" style="stop-color:#5b5a72"/><stop offset=".5" style="stop-color:#b0b0bf"/><stop offset=".96" style="stop-color:#f4f4f6"/></linearGradient><path d="m778.8 460.2-4.8-11c-.4-1 0-2.1 1-2.5l11-4.8c1-.4 2.1 0 2.5 1l4.8 11c.4 1 0 2.1-1 2.5l-11 4.8c-.9.4-2 0-2.5-1zm7.1-14.1-7.5 3.2 3.2 7.6 7.5-3.2-3.2-7.6z" style="opacity:.1;fill:url(#SVGID_00000157307954669456321360000015712160596436093592_);enable-background:new"/><linearGradient id="SVGID_00000109010516096654170500000007394592937640684673_" x1="127.58" x2="160.574" y1="-7663.36" y2="-7696.355" gradientTransform="rotate(115.779 -2084.491 -3596.194)" gradientUnits="userSpaceOnUse"><stop offset=".1" style="stop-color:#5b5a72"/><stop offset=".5" style="stop-color:#b0b0bf"/><stop offset=".96" style="stop-color:#f4f4f6"/></linearGradient><path d="m628 208.2-24.3-11.7c-2.1-1-3-3.6-2-5.7l11.7-24.3c1-2.1 3.6-3 5.7-2l24.3 11.7c2.1 1 3 3.6 2 5.7l-11.7 24.3c-1 2.1-3.5 3-5.7 2zm-8.6-34.2-8 16.6 16.6 8 8-16.6-16.6-8z" style="opacity:.1;fill:url(#SVGID_00000109010516096654170500000007394592937640684673_);enable-background:new"/><linearGradient id="SVGID_00000013192511024332454800000017394451209585322926_" x1="240.578" x2="255.429" y1="-7569.983" y2="-7584.824" gradientTransform="rotate(115.779 -2084.491 -3596.194)" gradientUnits="userSpaceOnUse"><stop offset=".1" style="stop-color:#5b5a72"/><stop offset=".5" style="stop-color:#b0b0bf"/><stop offset=".96" style="stop-color:#f4f4f6"/></linearGradient><path d="m488.1 245.2-10.9-5.3c-1-.4-1.4-1.5-.9-2.5l5.3-10.9c.4-1 1.5-1.4 2.5-.9l10.9 5.3c1 .4 1.4 1.5.9 2.5l-5.3 10.9c-.4 1-1.6 1.4-2.5.9zm-4-15.4-3.6 7.5 7.5 3.6 3.6-7.5-7.5-3.6z" style="opacity:.1;fill:url(#SVGID_00000013192511024332454800000017394451209585322926_);enable-background:new"/><linearGradient id="SVGID_00000165940542886650291050000004183964412411536539_" x1="51.823" x2="71.925" y1="-7433.629" y2="-7453.73" gradientTransform="rotate(115.779 -2084.491 -3596.194)" gradientUnits="userSpaceOnUse"><stop offset=".1" style="stop-color:#5b5a72"/><stop offset=".5" style="stop-color:#b0b0bf"/><stop offset=".96" style="stop-color:#f4f4f6"/></linearGradient><path d="m449.3 22.9-14.8-7.2c-1.3-.7-1.8-2.2-1.2-3.5l7.1-14.8c.7-1.3 2.2-1.8 3.5-1.2l14.8 7.2c1.3.7 1.8 2.2 1.2 3.5l-7.1 14.8c-.7 1.3-2.2 1.8-3.5 1.2zM444 2.1l-4.9 10.1 10.1 4.9L454.1 7 444 2.1z" style="opacity:.1;fill:url(#SVGID_00000165940542886650291050000004183964412411536539_);enable-background:new"/></svg>