<svg xmlns="http://www.w3.org/2000/svg" xml:space="preserve" id="Calque_1" x="0" y="0" style="enable-background:new 0 0 841.9 595.3" version="1.1" viewBox="0 0 841.9 595.3"><style>.st1,.st2,.st3{opacity:.1;fill:url(#SVGID_00000108279150388263661640000014147623503117320071_);enable-background:new}.st2,.st3{fill:url(#SVGID_00000112630155748348093320000001347655618859873179_)}.st3{fill:url(#SVGID_00000000209262419196668810000001484779417025098160_)}.st10,.st4,.st5,.st6,.st7,.st8,.st9{opacity:.1;fill:url(#SVGID_00000093164977219922762780000004222694389995342219_);enable-background:new}.st10,.st5,.st6,.st7,.st8,.st9{fill:url(#SVGID_00000181073285837978936760000011568467391869713285_)}.st10,.st6,.st7,.st8,.st9{fill:url(#SVGID_00000054983910824883039690000006334329731622343350_)}.st10,.st7,.st8,.st9{fill:url(#SVGID_00000174579118358467569890000014894152997591537817_)}.st10,.st8,.st9{fill:url(#SVGID_00000071527832173169628790000018357830447316257685_)}.st10,.st9{fill:url(#SVGID_00000021799651829547443780000010819098738256038049_)}.st10{fill:url(#SVGID_00000128456284707945659540000015634409363430294188_)}.st11,.st12,.st13,.st14,.st15,.st16{opacity:.1;fill:url(#SVGID_00000088118970330604214590000007130000100754697857_);enable-background:new}.st12,.st13,.st14,.st15,.st16{fill:url(#SVGID_00000090993004919305897190000000792885699199403428_)}.st13,.st14,.st15,.st16{fill:url(#SVGID_00000002360051433482803080000010705405142942310562_)}.st14,.st15,.st16{fill:url(#SVGID_00000135659070054766850140000007453248431762631588_)}.st15,.st16{fill:url(#SVGID_00000156556816933864391610000015997838715230510258_)}.st16{fill:url(#SVGID_00000102513172850661023430000005415345042055183244_)}</style><linearGradient id="SVGID_1_" x1="-2653.951" x2="-2603.856" y1="-193.204" y2="-143.109" gradientTransform="rotate(-76.509 -1087.418 -1812.598)" gradientUnits="userSpaceOnUse"><stop offset=".1" style="stop-color:#5b5a72"/><stop offset=".5" style="stop-color:#b0b0bf"/><stop offset=".96" style="stop-color:#f4f4f6"/></linearGradient><path d="m176.5 46.3-13.4 55.8c-1 4.1-5.2 6.7-9.3 5.7-1.3-.3-2.5-1-3.5-1.9l-41.6-39.5c-2-1.9-2.8-4.7-2.2-7.4s2.7-4.8 5.3-5.6l55-16.3c4.1-1.2 8.4 1.1 9.6 5.2.4 1.3.5 2.7.1 4zm-25.2 39.2 7.1-29.8-29.3 8.7 22.2 21.1z" style="opacity:.1;fill:url(#SVGID_1_);enable-background:new"/><linearGradient id="SVGID_00000145047712477880601030000008337806678930803607_" x1="3349.831" x2="3382.352" y1="10610.747" y2="10643.27" gradientTransform="rotate(41.262 15480.29 1025.61)" gradientUnits="userSpaceOnUse"><stop offset=".1" style="stop-color:#5b5a72"/><stop offset=".5" style="stop-color:#b0b0bf"/><stop offset=".96" style="stop-color:#f4f4f6"/></linearGradient><path d="m48.2 275.2-28-24.5c-2.1-1.8-2.3-5-.5-7.1.6-.7 1.3-1.2 2.2-1.4l35.2-12c1.7-.6 3.6-.2 4.9 1s2 3 1.6 4.8l-7.3 36.5c-.4 1.8-1.6 3.2-3.3 3.8-1.6.5-3.5.1-4.8-1.1zm-14.8-26.4 14.9 13.1 3.9-19.5-18.8 6.4z" style="opacity:.1;fill:url(#SVGID_00000145047712477880601030000008337806678930803607_);enable-background:new"/><linearGradient id="SVGID_00000074437106145886122310000004613884322200966280_" x1="10556.663" x2="10578.95" y1="5695.468" y2="5717.755" gradientTransform="rotate(113.129 7201.264 -436.32)" gradientUnits="userSpaceOnUse"><stop offset=".1" style="stop-color:#5b5a72"/><stop offset=".5" style="stop-color:#b0b0bf"/><stop offset=".96" style="stop-color:#f4f4f6"/></linearGradient><path d="m217.4 255.2 10-23.5c.7-1.7 2.8-2.6 4.5-1.8.6.2 1 .6 1.4 1.1l15.3 20.4c1.1 1.5.8 3.7-.7 4.8-.5.4-1.1.6-1.7.7l-25.3 3c-1.9.2-3.6-1.1-3.8-3 0-.5.1-1.1.3-1.7zm14-15.2-5.3 12.5 13.5-1.6-8.2-10.9z" style="opacity:.1;fill:url(#SVGID_00000074437106145886122310000004613884322200966280_);enable-background:new"/><linearGradient id="SVGID_00000156559539056952025620000009147119276298810781_" x1="10688.195" x2="10702.042" y1="5705.006" y2="5718.853" gradientTransform="rotate(113.129 7201.264 -436.32)" gradientUnits="userSpaceOnUse"><stop offset=".1" style="stop-color:#5b5a72"/><stop offset=".5" style="stop-color:#b0b0bf"/><stop offset=".96" style="stop-color:#f4f4f6"/></linearGradient><path d="m167.2 366.9 6.2-14.6c.5-1.1 1.7-1.6 2.8-1.1.3.1.6.4.9.7l9.5 12.7c.7.9.5 2.3-.4 3-.3.2-.7.4-1 .4l-15.7 1.9c-.8.1-1.5-.2-2-.8-.5-.7-.6-1.5-.3-2.2zm8.7-9.5-3.3 7.8 8.4-1-5.1-6.8z" style="opacity:.1;fill:url(#SVGID_00000156559539056952025620000009147119276298810781_);enable-background:new"/><linearGradient id="SVGID_00000005949558811178021860000005805590169921862838_" x1="3378.324" x2="3399.68" y1="-4161.468" y2="-4140.103" gradientTransform="rotate(-136.162 2714.226 -1399.658)" gradientUnits="userSpaceOnUse"><stop offset=".1" style="stop-color:#5b5a72"/><stop offset=".5" style="stop-color:#b0b0bf"/><stop offset=".96" style="stop-color:#f4f4f6"/></linearGradient><path d="m318.7 103.2 17.6 16.9c.9.8 1.2 2 .9 3.2-.3 1.1-1.1 2-2.3 2.4l-23.5 6.8c-1.1.3-2.3 0-3.2-.8s-1.2-2-.9-3.2l5.8-23.7c.3-1.1 1.1-2 2.3-2.4 1.2-.3 2.4 0 3.3.8zm8.9 17.8-9.4-9-3.1 12.7 12.5-3.7z" style="opacity:.1;fill:url(#SVGID_00000005949558811178021860000005805590169921862838_);enable-background:new"/><linearGradient id="SVGID_00000016046333034857015380000009434398157995822233_" x1="1568.668" x2="1634.658" y1="2072.242" y2="2138.242" gradientTransform="rotate(163.658 978.085 949.992)" gradientUnits="userSpaceOnUse"><stop offset=".1" style="stop-color:#5b5a72"/><stop offset=".5" style="stop-color:#b0b0bf"/><stop offset=".96" style="stop-color:#f4f4f6"/></linearGradient><path d="M64 53.9C43 60.1 20.9 48 14.8 27s5.9-43.1 26.9-49.3 43.1 5.9 49.2 26.9S85 47.7 64 53.9zm-28.7-33c2.8 9.7 13 15.2 22.7 12.4s15.2-13 12.4-22.7-13-15.2-22.7-12.4c-9.6 2.9-15.2 13.1-12.4 22.7z" style="opacity:.1;fill:url(#SVGID_00000016046333034857015380000009434398157995822233_);enable-background:new"/><linearGradient id="SVGID_00000084499951973646111900000010945040311230568624_" x1="1382.697" x2="1430.407" y1="2022.093" y2="2069.813" gradientTransform="rotate(163.658 978.085 949.992)" gradientUnits="userSpaceOnUse"><stop offset=".1" style="stop-color:#5b5a72"/><stop offset=".5" style="stop-color:#b0b0bf"/><stop offset=".96" style="stop-color:#f4f4f6"/></linearGradient><path d="M265.3 45.6c-15.2 4.5-31.2-4.2-35.6-19.5-4.5-15.2 4.3-31.2 19.5-35.6 15.2-4.5 31.1 4.3 35.6 19.5s-4.3 31.1-19.5 35.6zm-20.7-23.8c2 7 9.4 11 16.4 9s11-9.4 9-16.4-9.4-11-16.4-9c-7 2.1-11 9.4-9 16.4z" style="opacity:.1;fill:url(#SVGID_00000084499951973646111900000010945040311230568624_);enable-background:new"/><linearGradient id="SVGID_00000049185359920101836480000006637187804096817550_" x1="-10286.266" x2="-10241.606" y1="994.266" y2="1038.926" gradientTransform="rotate(-86.73 -5526.944 -4884.717) scale(1.00003)" gradientUnits="userSpaceOnUse"><stop offset=".1" style="stop-color:#5b5a72"/><stop offset=".5" style="stop-color:#b0b0bf"/><stop offset=".96" style="stop-color:#f4f4f6"/></linearGradient><path d="M68.8 179c.8-14.8 13.5-26.1 28.3-25.3 14.8.9 26.1 13.5 25.3 28.4-.8 14.8-13.5 26.1-28.3 25.3S68 193.8 68.8 179zm27.5-10.8c-6.8-.4-12.7 4.8-13 11.6-.4 6.8 4.8 12.7 11.6 13 6.8.4 12.7-4.8 13-11.6.4-6.8-4.8-12.6-11.6-13z" style="opacity:.1;fill:url(#SVGID_00000049185359920101836480000006637187804096817550_);enable-background:new"/><linearGradient id="SVGID_00000006683289211664274790000005049863299098280894_" x1="-10417.949" x2="-10403.229" y1="1254.021" y2="1268.741" gradientTransform="rotate(-86.73 -5526.944 -4884.717) scale(1.00003)" gradientUnits="userSpaceOnUse"><stop offset=".1" style="stop-color:#5b5a72"/><stop offset=".5" style="stop-color:#b0b0bf"/><stop offset=".96" style="stop-color:#f4f4f6"/></linearGradient><path d="M322.1 341.1c.3-4.9 4.5-8.6 9.3-8.3 4.9.3 8.6 4.5 8.3 9.3s-4.5 8.6-9.3 8.3c-4.8-.2-8.6-4.4-8.3-9.3zm9.1-3.5c-2.2-.1-4.2 1.6-4.3 3.8-.1 2.2 1.6 4.2 3.8 4.3s4.2-1.6 4.3-3.8c.1-2.2-1.6-4.2-3.8-4.3z" style="opacity:.1;fill:url(#SVGID_00000006683289211664274790000005049863299098280894_);enable-background:new"/><linearGradient id="SVGID_00000157270370128004297490000007741414157049699730_" x1="-10181.678" x2="-10166.918" y1="1368.978" y2="1383.738" gradientTransform="rotate(-86.73 -5526.944 -4884.717) scale(1.00003)" gradientUnits="userSpaceOnUse"><stop offset=".1" style="stop-color:#5b5a72"/><stop offset=".5" style="stop-color:#b0b0bf"/><stop offset=".96" style="stop-color:#f4f4f6"/></linearGradient><path d="M450.3 111.7c.3-4.9 4.5-8.6 9.4-8.4 4.9.3 8.6 4.5 8.4 9.4-.3 4.9-4.5 8.6-9.4 8.4-4.9-.3-8.7-4.5-8.4-9.4zm9.1-3.5c-2.2-.1-4.2 1.6-4.3 3.9-.1 2.3 1.6 4.2 3.8 4.3 2.3.1 4.2-1.6 4.3-3.8.2-2.4-1.5-4.3-3.8-4.4z" style="opacity:.1;fill:url(#SVGID_00000157270370128004297490000007741414157049699730_);enable-background:new"/><linearGradient id="SVGID_00000165926895385726167360000007347751649646623124_" x1="-10448.443" x2="-10418.233" y1="929.215" y2="959.425" gradientTransform="rotate(-86.73 -5526.944 -4884.717) scale(1.00003)" gradientUnits="userSpaceOnUse"><stop offset=".1" style="stop-color:#5b5a72"/><stop offset=".5" style="stop-color:#b0b0bf"/><stop offset=".96" style="stop-color:#f4f4f6"/></linearGradient><path d="M-4.7 344.8c.6-10 9.2-17.7 19.2-17.1s17.7 9.2 17.1 19.2c-.6 10-9.2 17.7-19.2 17.1s-17.7-9.2-17.1-19.2zm18.6-7.3c-4.6-.3-8.6 3.3-8.8 7.9s3.3 8.6 7.9 8.8c4.6.3 8.6-3.3 8.8-7.9.2-4.6-3.3-8.6-7.9-8.8z" style="opacity:.1;fill:url(#SVGID_00000165926895385726167360000007347751649646623124_);enable-background:new"/><linearGradient id="SVGID_00000160892169128168944710000006918479389802436025_" x1="-9543.614" x2="-9481.689" y1="82.023" y2="143.948" gradientTransform="rotate(-58.527 -4753.171 -8394.633)" gradientUnits="userSpaceOnUse"><stop offset=".1" style="stop-color:#5b5a72"/><stop offset=".5" style="stop-color:#b0b0bf"/><stop offset=".96" style="stop-color:#f4f4f6"/></linearGradient><path d="m60.3 102.2-26.4 43.2c-2.3 3.8-7.2 4.9-11 2.6l-43.2-26.4c-3.8-2.3-4.9-7.2-2.6-11L3.5 67.4c2.3-3.8 7.2-4.9 11-2.6l43.2 26.4c3.7 2.3 4.9 7.2 2.6 11zm-35.9 28 18.1-29.6-29.6-18.1-18.1 29.6 29.6 18.1z" style="opacity:.1;fill:url(#SVGID_00000160892169128168944710000006918479389802436025_);enable-background:new"/><linearGradient id="SVGID_00000041989279282959470610000008561004784331522731_" x1="-4995.234" x2="-4965.811" y1="8580.808" y2="8610.232" gradientTransform="rotate(23.307 17686.625 16799.439)" gradientUnits="userSpaceOnUse"><stop offset=".1" style="stop-color:#5b5a72"/><stop offset=".5" style="stop-color:#b0b0bf"/><stop offset=".96" style="stop-color:#f4f4f6"/></linearGradient><path d="M120.1 314.6 98 305.1c-1.9-.8-2.8-3.1-2-5l9.5-22.1c.8-1.9 3.1-2.8 5-2l22.1 9.5c1.9.8 2.8 3.1 2 5l-9.5 22.1c-.9 2-3.1 2.8-5 2zm-15.7-15 15.1 6.5L126 291l-15.1-6.5-6.5 15.1z" style="opacity:.1;fill:url(#SVGID_00000041989279282959470610000008561004784331522731_);enable-background:new"/><linearGradient id="SVGID_00000124148595475835105750000012970244771233130936_" x1="-4978.447" x2="-4963.778" y1="8754.231" y2="8768.9" gradientTransform="rotate(23.307 17686.625 16799.439)" gradientUnits="userSpaceOnUse"><stop offset=".1" style="stop-color:#5b5a72"/><stop offset=".5" style="stop-color:#b0b0bf"/><stop offset=".96" style="stop-color:#f4f4f6"/></linearGradient><path d="m60.6 461.2-11-4.8c-1-.4-1.4-1.5-1-2.5l4.8-11c.4-1 1.5-1.4 2.5-1l11 4.8c1 .4 1.4 1.5 1 2.5l-4.8 11c-.5 1-1.6 1.4-2.5 1zm-7.8-7.5 7.5 3.2 3.2-7.6-7.5-3.2-3.2 7.6z" style="opacity:.1;fill:url(#SVGID_00000124148595475835105750000012970244771233130936_);enable-background:new"/><linearGradient id="SVGID_00000054985812586191055000000003501266952137137540_" x1="307.847" x2="340.841" y1="8546.498" y2="8579.492" gradientTransform="rotate(64.221 6945.052 4290.425)" gradientUnits="userSpaceOnUse"><stop offset=".1" style="stop-color:#5b5a72"/><stop offset=".5" style="stop-color:#b0b0bf"/><stop offset=".96" style="stop-color:#f4f4f6"/></linearGradient><path d="m208.2 206.2-11.7-24.3c-1-2.1-.1-4.7 2-5.7l24.3-11.7c2.1-1 4.7-.1 5.7 2l11.7 24.3c1 2.1.1 4.7-2 5.7l-24.3 11.7c-2.2 1-4.7.1-5.7-2zm-2.3-24.2 8 16.6 16.6-8-8-16.6-16.6 8z" style="opacity:.1;fill:url(#SVGID_00000054985812586191055000000003501266952137137540_);enable-background:new"/><linearGradient id="SVGID_00000158735279567402003790000012575803356596632743_" x1="420.845" x2="435.696" y1="8453.121" y2="8467.962" gradientTransform="rotate(64.221 6945.052 4290.425)" gradientUnits="userSpaceOnUse"><stop offset=".1" style="stop-color:#5b5a72"/><stop offset=".5" style="stop-color:#b0b0bf"/><stop offset=".96" style="stop-color:#f4f4f6"/></linearGradient><path d="m351.3 244.3-5.3-10.9c-.5-1-.1-2.1.9-2.5l10.9-5.3c1-.5 2.1-.1 2.5.9l5.3 10.9c.5 1 .1 2.1-.9 2.5l-10.9 5.3c-.9.5-2.1.1-2.5-.9zm-1-10.9 3.6 7.5 7.5-3.6-3.6-7.5-7.5 3.6z" style="opacity:.1;fill:url(#SVGID_00000158735279567402003790000012575803356596632743_);enable-background:new"/><linearGradient id="SVGID_00000068659861167969987450000017246817475853553285_" x1="232.09" x2="252.192" y1="8316.767" y2="8336.868" gradientTransform="rotate(64.221 6945.052 4290.425)" gradientUnits="userSpaceOnUse"><stop offset=".1" style="stop-color:#5b5a72"/><stop offset=".5" style="stop-color:#b0b0bf"/><stop offset=".96" style="stop-color:#f4f4f6"/></linearGradient><path d="M389.1 21.7 382 6.9c-.6-1.3-.1-2.8 1.2-3.5L398-3.8c1.3-.6 2.8-.1 3.5 1.2l7.1 14.8c.6 1.3.1 2.8-1.2 3.5l-14.8 7.2c-1.3.6-2.8.1-3.5-1.2zM387.8 7l4.9 10.1 10.1-4.9-4.9-10.1L387.8 7z" style="opacity:.1;fill:url(#SVGID_00000068659861167969987450000017246817475853553285_);enable-background:new"/></svg>