<svg xmlns="http://www.w3.org/2000/svg" xml:space="preserve" id="Calque_1" x="0" y="0" style="enable-background:new 0 0 841.9 595.3" version="1.1" viewBox="0 0 841.9 595.3"><style>.st1,.st2,.st3{opacity:.1;fill:url(#SVGID_00000070837375680265276290000009536825645283003293_);enable-background:new}.st2,.st3{fill:url(#SVGID_00000175315869115020267680000017242190292373766837_)}.st3{fill:url(#SVGID_00000047754374470700476440000003847376119749442199_)}.st10,.st4,.st5,.st6,.st7,.st8,.st9{opacity:.1;fill:url(#SVGID_00000109749464207758046200000014312327820949623445_);enable-background:new}.st10,.st5,.st6,.st7,.st8,.st9{fill:url(#SVGID_00000164484924470809933110000005079079807592374206_)}.st10,.st6,.st7,.st8,.st9{fill:url(#SVGID_00000042700116711119988610000010361545813797344417_)}.st10,.st7,.st8,.st9{fill:url(#SVGID_00000132766838492909029210000011152398519372059831_)}.st10,.st8,.st9{fill:url(#SVGID_00000158722017341165849010000016662563618804307854_)}.st10,.st9{fill:url(#SVGID_00000011731964642799307050000013851906856630232194_)}.st10{fill:url(#SVGID_00000173877227993458980050000005907143405118735778_)}.st11,.st12,.st13,.st14,.st15,.st16{opacity:.1;fill:url(#SVGID_00000089571393394469451280000017246509281868023177_);enable-background:new}.st12,.st13,.st14,.st15,.st16{fill:url(#SVGID_00000029043518801055168910000001083650825317796268_)}.st13,.st14,.st15,.st16{fill:url(#SVGID_00000036952028089539217430000004794850009891021198_)}.st14,.st15,.st16{fill:url(#SVGID_00000157299243470419139230000014850162797208465826_)}.st15,.st16{fill:url(#SVGID_00000067227135609490916040000010479114863085990274_)}.st16{fill:url(#SVGID_00000164480532600500470150000015946730178857607867_)}</style><linearGradient id="SVGID_1_" x1="-2472.159" x2="-2422.064" y1="-489.781" y2="-439.686" gradientTransform="scale(1 -1) rotate(-76.509 -1184.633 -2142.225)" gradientUnits="userSpaceOnUse"><stop offset=".1" style="stop-color:#5b5a72"/><stop offset=".5" style="stop-color:#b0b0bf"/><stop offset=".96" style="stop-color:#f4f4f6"/></linearGradient><path d="M176.5 546.9c.4 1.3.3 2.7-.1 4-1.2 4.1-5.5 6.4-9.6 5.2l-55-16.3c-2.6-.8-4.7-2.9-5.3-5.6s.2-5.5 2.2-7.4l41.6-39.5c1-.9 2.2-1.6 3.5-1.9 4.1-1 8.3 1.6 9.3 5.7l13.4 55.8zm-25.2-39.2-22.2 21.1 29.3 8.7-7.1-29.8z" style="opacity:.1;fill:url(#SVGID_1_);enable-background:new"/><linearGradient id="SVGID_00000092447384255652798460000012024127651141568183_" x1="3002.671" x2="3035.192" y1="10588.068" y2="10620.591" gradientTransform="scale(1 -1) rotate(41.262 16064.474 1178.76)" gradientUnits="userSpaceOnUse"><stop offset=".1" style="stop-color:#5b5a72"/><stop offset=".5" style="stop-color:#b0b0bf"/><stop offset=".96" style="stop-color:#f4f4f6"/></linearGradient><path d="M48.2 318c1.3-1.2 3.2-1.6 4.8-1.1 1.7.6 2.9 2 3.3 3.8l7.3 36.5c.4 1.8-.3 3.6-1.6 4.8-1.3 1.2-3.2 1.6-4.9 1l-35.2-12c-.9-.2-1.6-.7-2.2-1.4-1.8-2.1-1.6-5.3.5-7.1l28-24.5zm4 32.8-3.9-19.5-14.9 13.1 18.8 6.4z" style="opacity:.1;fill:url(#SVGID_00000092447384255652798460000012024127651141568183_);enable-background:new"/><linearGradient id="SVGID_00000111881055022348103090000017041991811051700121_" x1="10427.096" x2="10449.383" y1="6018.303" y2="6040.589" gradientTransform="scale(-1 1) rotate(-66.871 800.72 11266.702)" gradientUnits="userSpaceOnUse"><stop offset=".1" style="stop-color:#5b5a72"/><stop offset=".5" style="stop-color:#b0b0bf"/><stop offset=".96" style="stop-color:#f4f4f6"/></linearGradient><path d="M217.4 338c-.2-.6-.3-1.2-.3-1.7.2-1.9 1.9-3.2 3.8-3l25.3 3c.6.1 1.2.3 1.7.7 1.5 1.1 1.8 3.3.7 4.8l-15.3 20.4c-.4.5-.8.9-1.4 1.1-1.7.8-3.8-.1-4.5-1.8l-10-23.5zm14 15.2 8.2-10.9-13.5-1.6 5.3 12.5z" style="opacity:.1;fill:url(#SVGID_00000111881055022348103090000017041991811051700121_);enable-background:new"/><linearGradient id="SVGID_00000083801247420339388900000016135558499505823895_" x1="10558.627" x2="10572.474" y1="6027.84" y2="6041.687" gradientTransform="scale(-1 1) rotate(-66.871 800.72 11266.702)" gradientUnits="userSpaceOnUse"><stop offset=".1" style="stop-color:#5b5a72"/><stop offset=".5" style="stop-color:#b0b0bf"/><stop offset=".96" style="stop-color:#f4f4f6"/></linearGradient><path d="M167.2 226.3c-.3-.7-.2-1.5.3-2.2.5-.6 1.2-.9 2-.8l15.7 1.9c.3 0 .7.2 1 .4.9.7 1.1 2.1.4 3l-9.5 12.7c-.3.3-.6.6-.9.7-1.1.5-2.3 0-2.8-1.1l-6.2-14.6zM181 229l-8.4-1 3.3 7.8 5.1-6.8z" style="opacity:.1;fill:url(#SVGID_00000083801247420339388900000016135558499505823895_);enable-background:new"/><linearGradient id="SVGID_00000024682235831237125130000016286406076473530787_" x1="3726.155" x2="3747.51" y1="-4154.409" y2="-4133.043" gradientTransform="scale(-1 1) rotate(43.837 -4033.055 -6877.637)" gradientUnits="userSpaceOnUse"><stop offset=".1" style="stop-color:#5b5a72"/><stop offset=".5" style="stop-color:#b0b0bf"/><stop offset=".96" style="stop-color:#f4f4f6"/></linearGradient><path d="M318.7 490c-.9.8-2.1 1.1-3.3.8-1.2-.4-2-1.3-2.3-2.4l-5.8-23.7c-.3-1.2 0-2.4.9-3.2.9-.8 2.1-1.1 3.2-.8l23.5 6.8c1.2.4 2 1.3 2.3 2.4.3 1.2 0 2.4-.9 3.2L318.7 490zm8.9-17.8-12.5-3.7 3.1 12.7 9.4-9z" style="opacity:.1;fill:url(#SVGID_00000024682235831237125130000016286406076473530787_);enable-background:new"/><linearGradient id="SVGID_00000044863388642120383890000003519203579433439370_" x1="1735.565" x2="1801.555" y1="2377.487" y2="2443.487" gradientTransform="scale(-1 1) rotate(-16.338 -5531.36 7844.033)" gradientUnits="userSpaceOnUse"><stop offset=".1" style="stop-color:#5b5a72"/><stop offset=".5" style="stop-color:#b0b0bf"/><stop offset=".96" style="stop-color:#f4f4f6"/></linearGradient><path d="M64 539.3c21 6.2 33 28.3 26.9 49.3s-28.2 33.1-49.2 26.9-33-28.3-26.9-49.3S43 533.1 64 539.3zM47.7 595c9.7 2.8 19.9-2.7 22.7-12.4s-2.7-19.9-12.4-22.7-19.9 2.7-22.7 12.4c-2.8 9.6 2.8 19.8 12.4 22.7z" style="opacity:.1;fill:url(#SVGID_00000044863388642120383890000003519203579433439370_);enable-background:new"/><linearGradient id="SVGID_00000152953286909957564810000014712145594288747966_" x1="1549.594" x2="1597.304" y1="2327.337" y2="2375.057" gradientTransform="scale(-1 1) rotate(-16.338 -5531.36 7844.033)" gradientUnits="userSpaceOnUse"><stop offset=".1" style="stop-color:#5b5a72"/><stop offset=".5" style="stop-color:#b0b0bf"/><stop offset=".96" style="stop-color:#f4f4f6"/></linearGradient><path d="M284.8 583.2c-4.5 15.2-20.4 24-35.6 19.5-15.2-4.4-24-20.4-19.5-35.6 4.4-15.3 20.4-24 35.6-19.5 15.2 4.5 24 20.4 19.5 35.6zm-31.2 4.6c7 2 14.4-2 16.4-9s-2-14.4-9-16.4-14.4 2-16.4 9 2 14.3 9 16.4z" style="opacity:.1;fill:url(#SVGID_00000152953286909957564810000014712145594288747966_);enable-background:new"/><linearGradient id="SVGID_00000181803688038344144820000018215562874397834629_" x1="-10054.728" x2="-10010.069" y1="734.667" y2="779.327" gradientTransform="matrix(.05704 .9984 .9984 -.05704 -88.935 10471.276)" gradientUnits="userSpaceOnUse"><stop offset=".1" style="stop-color:#5b5a72"/><stop offset=".5" style="stop-color:#b0b0bf"/><stop offset=".96" style="stop-color:#f4f4f6"/></linearGradient><path d="M68.8 414.2c-.8-14.8 10.5-27.6 25.3-28.4s27.5 10.5 28.3 25.3c.8 14.9-10.5 27.5-25.3 28.4-14.8.8-27.5-10.5-28.3-25.3zm39.1-2.2c-.3-6.8-6.2-12-13-11.6-6.8.3-12 6.2-11.6 13 .3 6.8 6.2 12 13 11.6 6.8-.4 12-6.2 11.6-13z" style="opacity:.1;fill:url(#SVGID_00000181803688038344144820000018215562874397834629_);enable-background:new"/><linearGradient id="SVGID_00000160186218237670902340000015954104223823857557_" x1="-10186.413" x2="-10171.693" y1="994.421" y2="1009.141" gradientTransform="matrix(.05704 .9984 .9984 -.05704 -88.935 10471.276)" gradientUnits="userSpaceOnUse"><stop offset=".1" style="stop-color:#5b5a72"/><stop offset=".5" style="stop-color:#b0b0bf"/><stop offset=".96" style="stop-color:#f4f4f6"/></linearGradient><path d="M330.4 242.8c4.8-.3 9 3.5 9.3 8.3s-3.4 9-8.3 9.3c-4.8.3-9-3.4-9.3-8.3-.3-4.9 3.5-9.1 8.3-9.3zm4.6 8.5c-.1-2.2-2.1-3.9-4.3-3.8s-3.9 2.1-3.8 4.3 2.1 3.9 4.3 3.8c2.2-.1 3.9-2.1 3.8-4.3z" style="opacity:.1;fill:url(#SVGID_00000160186218237670902340000015954104223823857557_);enable-background:new"/><linearGradient id="SVGID_00000059310718838713121280000012227004547739729046_" x1="-9950.141" x2="-9935.381" y1="1109.379" y2="1124.139" gradientTransform="matrix(.05704 .9984 .9984 -.05704 -88.935 10471.276)" gradientUnits="userSpaceOnUse"><stop offset=".1" style="stop-color:#5b5a72"/><stop offset=".5" style="stop-color:#b0b0bf"/><stop offset=".96" style="stop-color:#f4f4f6"/></linearGradient><path d="M458.7 472.1c4.9-.2 9.1 3.5 9.4 8.4.2 4.9-3.5 9.1-8.4 9.4-4.9.2-9.1-3.5-9.4-8.4s3.5-9.1 8.4-9.4zm.7 12.9c2.3-.1 4-2 3.8-4.4-.1-2.2-2-3.9-4.3-3.8-2.2.1-3.9 2-3.8 4.3s2.1 4 4.3 3.9z" style="opacity:.1;fill:url(#SVGID_00000059310718838713121280000012227004547739729046_);enable-background:new"/><linearGradient id="SVGID_00000082352802875750653640000012546097214657383346_" x1="-10216.906" x2="-10186.696" y1="669.615" y2="699.825" gradientTransform="matrix(.05704 .9984 .9984 -.05704 -88.935 10471.276)" gradientUnits="userSpaceOnUse"><stop offset=".1" style="stop-color:#5b5a72"/><stop offset=".5" style="stop-color:#b0b0bf"/><stop offset=".96" style="stop-color:#f4f4f6"/></linearGradient><path d="M-4.7 248.4c-.6-10 7.1-18.6 17.1-19.2s18.6 7.1 19.2 17.1c.6 10-7.1 18.6-17.1 19.2s-18.6-7.1-19.2-17.1zm26.5-1.5c-.2-4.6-4.2-8.2-8.8-7.9-4.6.2-8.1 4.2-7.9 8.8s4.2 8.2 8.8 7.9c4.6-.2 8.1-4.2 7.9-8.8z" style="opacity:.1;fill:url(#SVGID_00000082352802875750653640000012546097214657383346_);enable-background:new"/><linearGradient id="SVGID_00000034799145925333742720000008791830272325932163_" x1="-9462.272" x2="-9400.346" y1="-256.185" y2="-194.261" gradientTransform="scale(1 -1) rotate(-58.527 -4939.89 -8787.762)" gradientUnits="userSpaceOnUse"><stop offset=".1" style="stop-color:#5b5a72"/><stop offset=".5" style="stop-color:#b0b0bf"/><stop offset=".96" style="stop-color:#f4f4f6"/></linearGradient><path d="M60.3 491c2.3 3.8 1.1 8.7-2.6 11l-43.2 26.4c-3.8 2.3-8.7 1.2-11-2.6l-26.4-43.2c-2.3-3.8-1.2-8.7 2.6-11l43.2-26.4c3.8-2.3 8.7-1.2 11 2.6L60.3 491zm-35.9-28-29.6 18.1 18.1 29.6 29.6-18.1L24.4 463z" style="opacity:.1;fill:url(#SVGID_00000034799145925333742720000008791830272325932163_);enable-background:new"/><linearGradient id="SVGID_00000132056956956347899720000006313466367068609450_" x1="-5318.503" x2="-5289.081" y1="8452.241" y2="8481.665" gradientTransform="scale(1 -1) rotate(23.309 18651.952 17221.185)" gradientUnits="userSpaceOnUse"><stop offset=".1" style="stop-color:#5b5a72"/><stop offset=".5" style="stop-color:#b0b0bf"/><stop offset=".96" style="stop-color:#f4f4f6"/></linearGradient><path d="m125.1 280.6 9.5 22.1c.8 1.9-.1 4.2-2 5l-22.1 9.5c-1.9.8-4.2-.1-5-2L96 293.1c-.8-1.9.1-4.2 2-5l22.1-9.5c1.9-.8 4.1 0 5 2zm-14.2 28.1 15.1-6.5-6.5-15.1-15.1 6.5 6.5 15.1z" style="opacity:.1;fill:url(#SVGID_00000132056956956347899720000006313466367068609450_);enable-background:new"/><linearGradient id="SVGID_00000169526801649832982600000004184501982344473252_" x1="-5301.716" x2="-5287.047" y1="8625.664" y2="8640.333" gradientTransform="scale(1 -1) rotate(23.309 18651.952 17221.185)" gradientUnits="userSpaceOnUse"><stop offset=".1" style="stop-color:#5b5a72"/><stop offset=".5" style="stop-color:#b0b0bf"/><stop offset=".96" style="stop-color:#f4f4f6"/></linearGradient><path d="m63.1 133 4.8 11c.4 1 0 2.1-1 2.5l-11 4.8c-1 .4-2.1 0-2.5-1l-4.8-11c-.4-1 0-2.1 1-2.5l11-4.8c.9-.4 2 0 2.5 1zM56 147.1l7.5-3.2-3.2-7.6-7.5 3.2 3.2 7.6z" style="opacity:.1;fill:url(#SVGID_00000169526801649832982600000004184501982344473252_);enable-background:new"/><linearGradient id="SVGID_00000016076732487770811830000009473901086034103189_" x1="-20.638" x2="12.356" y1="8661.021" y2="8694.015" gradientTransform="scale(1 -1) rotate(64.222 7344.707 4312.651)" gradientUnits="userSpaceOnUse"><stop offset=".1" style="stop-color:#5b5a72"/><stop offset=".5" style="stop-color:#b0b0bf"/><stop offset=".96" style="stop-color:#f4f4f6"/></linearGradient><path d="m213.9 385 24.3 11.7c2.1 1 3 3.6 2 5.7l-11.7 24.3c-1 2.1-3.6 3-5.7 2L198.5 417c-2.1-1-3-3.6-2-5.7l11.7-24.3c1-2.1 3.5-3 5.7-2zm8.6 34.2 8-16.6-16.6-8-8 16.6 16.6 8z" style="opacity:.1;fill:url(#SVGID_00000016076732487770811830000009473901086034103189_);enable-background:new"/><linearGradient id="SVGID_00000109721990202933146530000003326137842877215664_" x1="92.36" x2="107.211" y1="8567.644" y2="8582.484" gradientTransform="scale(1 -1) rotate(64.222 7344.707 4312.651)" gradientUnits="userSpaceOnUse"><stop offset=".1" style="stop-color:#5b5a72"/><stop offset=".5" style="stop-color:#b0b0bf"/><stop offset=".96" style="stop-color:#f4f4f6"/></linearGradient><path d="m353.8 348 10.9 5.3c1 .4 1.4 1.5.9 2.5l-5.3 10.9c-.4 1-1.5 1.4-2.5.9l-10.9-5.3c-1-.4-1.4-1.5-.9-2.5l5.3-10.9c.4-1 1.6-1.4 2.5-.9zm4 15.4 3.6-7.5-7.5-3.6-3.6 7.5 7.5 3.6z" style="opacity:.1;fill:url(#SVGID_00000109721990202933146530000003326137842877215664_);enable-background:new"/><linearGradient id="SVGID_00000005230431239502681030000009335705147164862880_" x1="-96.395" x2="-76.293" y1="8431.289" y2="8451.391" gradientTransform="scale(1 -1) rotate(64.222 7344.707 4312.651)" gradientUnits="userSpaceOnUse"><stop offset=".1" style="stop-color:#5b5a72"/><stop offset=".5" style="stop-color:#b0b0bf"/><stop offset=".96" style="stop-color:#f4f4f6"/></linearGradient><path d="m392.6 570.3 14.8 7.2c1.3.7 1.8 2.2 1.2 3.5l-7.1 14.8c-.7 1.3-2.2 1.8-3.5 1.2l-14.8-7.2c-1.3-.7-1.8-2.2-1.2-3.5l7.1-14.8c.7-1.3 2.2-1.8 3.5-1.2zm5.3 20.8 4.9-10.1-10.1-4.9-4.9 10.1 10.1 4.9z" style="opacity:.1;fill:url(#SVGID_00000005230431239502681030000009335705147164862880_);enable-background:new"/></svg>