<svg xmlns="http://www.w3.org/2000/svg" xml:space="preserve" id="Calque_1" x="0" y="0" style="enable-background:new 0 0 841.9 595.3" version="1.1" viewBox="0 0 841.9 595.3"><style>.st1,.st2,.st3{opacity:.1;fill:url(#SVGID_00000043431000892798524870000013646698988761008536_);enable-background:new}.st2,.st3{fill:url(#SVGID_00000155134254196957765430000002945533320609835421_)}.st3{fill:url(#SVGID_00000010297280531324184980000001198579435579443074_)}.st10,.st4,.st5,.st6,.st7,.st8,.st9{opacity:.1;fill:url(#SVGID_00000039099049720526494120000008808732394330113921_);enable-background:new}.st10,.st5,.st6,.st7,.st8,.st9{fill:url(#SVGID_00000008829128714229208760000017902900538838445706_)}.st10,.st6,.st7,.st8,.st9{fill:url(#SVGID_00000119087499208892010380000010381970467755058338_)}.st10,.st7,.st8,.st9{fill:url(#SVGID_00000083085523654756766520000012982496708826815886_)}.st10,.st8,.st9{fill:url(#SVGID_00000106865887620670169330000012451504000248982928_)}.st10,.st9{fill:url(#SVGID_00000135666563583868580500000000070984376128652720_)}.st10{fill:url(#SVGID_00000181085897744298598880000000611623584241907881_)}.st11,.st12,.st13,.st14,.st15,.st16{opacity:.1;fill:url(#SVGID_00000029724753838418738450000005538245800427699089_);enable-background:new}.st12,.st13,.st14,.st15,.st16{fill:url(#SVGID_00000070084982688878356920000013454468015572151485_)}.st13,.st14,.st15,.st16{fill:url(#SVGID_00000132046744616645422640000013639405017289184410_)}.st14,.st15,.st16{fill:url(#SVGID_00000075847482079559361420000015241890721427600037_)}.st15,.st16{fill:url(#SVGID_00000042704263973896502350000002323782500069389465_)}.st16{fill:url(#SVGID_00000080904837211742733280000007266006052949937034_)}</style><linearGradient id="SVGID_1_" x1="-1814.741" x2="-1764.647" y1="170.437" y2="220.531" gradientTransform="rotate(103.491 -679.923 1337.92)" gradientUnits="userSpaceOnUse"><stop offset=".1" style="stop-color:#5b5a72"/><stop offset=".5" style="stop-color:#b0b0bf"/><stop offset=".96" style="stop-color:#f4f4f6"/></linearGradient><path d="m665.4 549 13.4-55.8c1-4.1 5.2-6.7 9.3-5.7 1.3.3 2.5 1 3.5 1.9l41.6 39.5c2 1.9 2.8 4.7 2.2 7.4s-2.7 4.8-5.3 5.6l-55 16.3c-4.1 1.2-8.4-1.1-9.6-5.2-.4-1.3-.5-2.7-.1-4zm25.2-39.2-7.1 29.8 29.3-8.7-22.2-21.1z" style="opacity:.1;fill:url(#SVGID_1_);enable-background:new"/><linearGradient id="SVGID_00000165216445216005251110000007352117016334935446_" x1="3641.193" x2="3673.715" y1="9916.433" y2="9948.955" gradientTransform="rotate(-138.738 423.233 5675.063)" gradientUnits="userSpaceOnUse"><stop offset=".1" style="stop-color:#5b5a72"/><stop offset=".5" style="stop-color:#b0b0bf"/><stop offset=".96" style="stop-color:#f4f4f6"/></linearGradient><path d="m793.7 320.1 28 24.5c2.1 1.8 2.3 5 .5 7.1-.6.7-1.3 1.2-2.2 1.4l-35.2 12c-1.7.6-3.6.2-4.9-1-1.3-1.2-2-3-1.6-4.8l7.3-36.5c.4-1.8 1.6-3.2 3.3-3.8 1.6-.5 3.5-.1 4.8 1.1zm14.8 26.4-14.9-13.1-3.9 19.5 18.8-6.4z" style="opacity:.1;fill:url(#SVGID_00000165216445216005251110000007352117016334935446_);enable-background:new"/><linearGradient id="SVGID_00000100343086978260991760000010123231000578105479_" x1="10156.935" x2="10179.222" y1="5436.272" y2="5458.559" gradientTransform="rotate(-66.871 1528.763 10134.487)" gradientUnits="userSpaceOnUse"><stop offset=".1" style="stop-color:#5b5a72"/><stop offset=".5" style="stop-color:#b0b0bf"/><stop offset=".96" style="stop-color:#f4f4f6"/></linearGradient><path d="m624.5 340.1-10 23.5c-.7 1.7-2.8 2.6-4.5 1.8-.6-.2-1-.6-1.4-1.1l-15.3-20.4c-1.1-1.5-.8-3.7.7-4.8.5-.4 1.1-.6 1.7-.7l25.3-3c1.9-.2 3.6 1.1 3.8 3 0 .5-.1 1.1-.3 1.7zm-14 15.2 5.3-12.5-13.5 1.6 8.2 10.9z" style="opacity:.1;fill:url(#SVGID_00000100343086978260991760000010123231000578105479_);enable-background:new"/><linearGradient id="SVGID_00000161624478048656803030000013749184465900425089_" x1="10288.466" x2="10302.313" y1="5445.809" y2="5459.656" gradientTransform="rotate(-66.871 1528.763 10134.487)" gradientUnits="userSpaceOnUse"><stop offset=".1" style="stop-color:#5b5a72"/><stop offset=".5" style="stop-color:#b0b0bf"/><stop offset=".96" style="stop-color:#f4f4f6"/></linearGradient><path d="m674.7 228.4-6.2 14.6c-.5 1.1-1.7 1.6-2.8 1.1-.3-.1-.6-.4-.9-.7l-9.5-12.7c-.7-.9-.5-2.3.4-3 .3-.2.7-.4 1-.4l15.7-1.9c.8-.1 1.5.2 2 .8.5.7.6 1.5.3 2.2zm-8.7 9.5 3.3-7.8-8.4 1 5.1 6.8z" style="opacity:.1;fill:url(#SVGID_00000161624478048656803030000013749184465900425089_);enable-background:new"/><linearGradient id="SVGID_00000017506192226898679220000012830270538471622789_" x1="3610.203" x2="3631.559" y1="-3465.808" y2="-3444.443" gradientTransform="rotate(43.838 -2817.036 -5341.947)" gradientUnits="userSpaceOnUse"><stop offset=".1" style="stop-color:#5b5a72"/><stop offset=".5" style="stop-color:#b0b0bf"/><stop offset=".96" style="stop-color:#f4f4f6"/></linearGradient><path d="m523.2 492.1-17.6-16.9c-.9-.8-1.2-2-.9-3.2.3-1.1 1.1-2 2.3-2.4l23.5-6.8c1.1-.3 2.3 0 3.2.8s1.2 2 .9 3.2l-5.8 23.7c-.3 1.1-1.1 2-2.3 2.4-1.2.3-2.4 0-3.3-.8zm-8.9-17.8 9.4 9 3.1-12.7-12.5 3.7z" style="opacity:.1;fill:url(#SVGID_00000017506192226898679220000012830270538471622789_);enable-background:new"/><linearGradient id="SVGID_00000102540159930448415390000007165685028152413106_" x1="1204.122" x2="1270.112" y1="2405.979" y2="2471.979" gradientTransform="rotate(-16.342 -5468.25 3075.48)" gradientUnits="userSpaceOnUse"><stop offset=".1" style="stop-color:#5b5a72"/><stop offset=".5" style="stop-color:#b0b0bf"/><stop offset=".96" style="stop-color:#f4f4f6"/></linearGradient><path d="M777.9 541.4c21-6.2 43.1 5.9 49.2 26.9s-5.9 43.1-26.9 49.3-43.1-5.9-49.2-26.9 5.9-43.1 26.9-49.3zm28.7 33c-2.8-9.7-13-15.2-22.7-12.4s-15.2 13-12.4 22.7 13 15.2 22.7 12.4c9.6-2.9 15.2-13.1 12.4-22.7z" style="opacity:.1;fill:url(#SVGID_00000102540159930448415390000007165685028152413106_);enable-background:new"/><linearGradient id="SVGID_00000114754260417837759670000009623106006191977091_" x1="1018.151" x2="1065.861" y1="2355.83" y2="2403.55" gradientTransform="rotate(-16.342 -5468.25 3075.48)" gradientUnits="userSpaceOnUse"><stop offset=".1" style="stop-color:#5b5a72"/><stop offset=".5" style="stop-color:#b0b0bf"/><stop offset=".96" style="stop-color:#f4f4f6"/></linearGradient><path d="M576.6 549.7c15.2-4.5 31.2 4.2 35.6 19.5 4.5 15.2-4.3 31.2-19.5 35.6-15.2 4.5-31.1-4.3-35.6-19.5s4.3-31.1 19.5-35.6zm20.7 23.8c-2-7-9.4-11-16.4-9s-11 9.4-9 16.4 9.4 11 16.4 9c7-2.1 11-9.4 9-16.4z" style="opacity:.1;fill:url(#SVGID_00000114754260417837759670000009623106006191977091_);enable-background:new"/><linearGradient id="SVGID_00000060724075033550377920000015266515840211704488_" x1="-9521.018" x2="-9476.358" y1="1457.389" y2="1502.049" gradientTransform="rotate(93.27 -3872.425 5785.603) scale(1.00003)" gradientUnits="userSpaceOnUse"><stop offset=".1" style="stop-color:#5b5a72"/><stop offset=".5" style="stop-color:#b0b0bf"/><stop offset=".96" style="stop-color:#f4f4f6"/></linearGradient><path d="M773.1 416.3c-.8 14.8-13.5 26.1-28.3 25.3-14.8-.9-26.1-13.5-25.3-28.4.8-14.8 13.5-26.1 28.3-25.3s26.1 13.6 25.3 28.4zm-27.5 10.8c6.8.4 12.7-4.8 13-11.6.4-6.8-4.8-12.7-11.6-13-6.8-.4-12.7 4.8-13 11.6-.4 6.8 4.8 12.6 11.6 13z" style="opacity:.1;fill:url(#SVGID_00000060724075033550377920000015266515840211704488_);enable-background:new"/><linearGradient id="SVGID_00000064355568901570744080000007097825372920661944_" x1="-9652.701" x2="-9637.981" y1="1717.143" y2="1731.863" gradientTransform="rotate(93.27 -3872.425 5785.603) scale(1.00003)" gradientUnits="userSpaceOnUse"><stop offset=".1" style="stop-color:#5b5a72"/><stop offset=".5" style="stop-color:#b0b0bf"/><stop offset=".96" style="stop-color:#f4f4f6"/></linearGradient><path d="M519.8 254.2c-.3 4.9-4.5 8.6-9.3 8.3-4.9-.3-8.6-4.5-8.3-9.3s4.5-8.6 9.3-8.3c4.8.2 8.6 4.4 8.3 9.3zm-9.1 3.5c2.2.1 4.2-1.6 4.3-3.8s-1.6-4.2-3.8-4.3-4.2 1.6-4.3 3.8c-.1 2.2 1.6 4.2 3.8 4.3z" style="opacity:.1;fill:url(#SVGID_00000064355568901570744080000007097825372920661944_);enable-background:new"/><linearGradient id="SVGID_00000080923318745560028930000013761633041101609383_" x1="-9416.43" x2="-9401.67" y1="1832.1" y2="1846.86" gradientTransform="rotate(93.27 -3872.425 5785.603) scale(1.00003)" gradientUnits="userSpaceOnUse"><stop offset=".1" style="stop-color:#5b5a72"/><stop offset=".5" style="stop-color:#b0b0bf"/><stop offset=".96" style="stop-color:#f4f4f6"/></linearGradient><path d="M391.6 483.6c-.3 4.9-4.5 8.6-9.4 8.4-4.9-.3-8.6-4.5-8.4-9.4.3-4.9 4.5-8.6 9.4-8.4 4.9.3 8.7 4.5 8.4 9.4zm-9.1 3.5c2.2.1 4.2-1.6 4.3-3.9.1-2.3-1.6-4.2-3.8-4.3-2.3-.1-4.2 1.6-4.3 3.8-.2 2.4 1.5 4.3 3.8 4.4z" style="opacity:.1;fill:url(#SVGID_00000080923318745560028930000013761633041101609383_);enable-background:new"/><linearGradient id="SVGID_00000135669170116710229410000002836869745191098773_" x1="-9683.195" x2="-9652.985" y1="1392.337" y2="1422.547" gradientTransform="rotate(93.27 -3872.425 5785.603) scale(1.00003)" gradientUnits="userSpaceOnUse"><stop offset=".1" style="stop-color:#5b5a72"/><stop offset=".5" style="stop-color:#b0b0bf"/><stop offset=".96" style="stop-color:#f4f4f6"/></linearGradient><path d="M846.6 250.5c-.6 10-9.2 17.7-19.2 17.1s-17.7-9.2-17.1-19.2c.6-10 9.2-17.7 19.2-17.1s17.7 9.2 17.1 19.2zm-18.6 7.3c4.6.3 8.6-3.3 8.8-7.9.2-4.6-3.3-8.6-7.9-8.8-4.6-.3-8.6 3.3-8.8 7.9-.2 4.6 3.3 8.6 7.9 8.8z" style="opacity:.1;fill:url(#SVGID_00000135669170116710229410000002836869745191098773_);enable-background:new"/><linearGradient id="SVGID_00000092441893978352366820000005727680861704620941_" x1="-8621.133" x2="-8559.207" y1="244.773" y2="306.698" gradientTransform="rotate(121.473 -3942.881 3019.76)" gradientUnits="userSpaceOnUse"><stop offset=".1" style="stop-color:#5b5a72"/><stop offset=".5" style="stop-color:#b0b0bf"/><stop offset=".96" style="stop-color:#f4f4f6"/></linearGradient><path d="m781.6 493.1 26.4-43.2c2.3-3.8 7.2-4.9 11-2.6l43.2 26.4c3.8 2.3 4.9 7.2 2.6 11l-26.4 43.2c-2.3 3.8-7.2 4.9-11 2.6l-43.2-26.4c-3.7-2.3-4.9-7.2-2.6-11zm35.9-28-18.1 29.6 29.6 18.1 18.1-29.6-29.6-18.1z" style="opacity:.1;fill:url(#SVGID_00000092441893978352366820000005727680861704620941_);enable-background:new"/><linearGradient id="SVGID_00000122691701670311644070000007270986499018322088_" x1="-4492.076" x2="-4462.653" y1="7934.294" y2="7963.719" gradientTransform="rotate(-156.693 -2664.345 3587.722)" gradientUnits="userSpaceOnUse"><stop offset=".1" style="stop-color:#5b5a72"/><stop offset=".5" style="stop-color:#b0b0bf"/><stop offset=".96" style="stop-color:#f4f4f6"/></linearGradient><path d="m721.8 280.7 22.1 9.5c1.9.8 2.8 3.1 2 5l-9.5 22.1c-.8 1.9-3.1 2.8-5 2l-22.1-9.5c-1.9-.8-2.8-3.1-2-5l9.5-22.1c.9-2 3.1-2.8 5-2zm15.7 15-15.1-6.5-6.5 15.1 15.1 6.5 6.5-15.1z" style="opacity:.1;fill:url(#SVGID_00000122691701670311644070000007270986499018322088_);enable-background:new"/><linearGradient id="SVGID_00000150061186301887825580000001524801592139572644_" x1="-4475.289" x2="-4460.619" y1="8107.718" y2="8122.387" gradientTransform="rotate(-156.693 -2664.345 3587.722)" gradientUnits="userSpaceOnUse"><stop offset=".1" style="stop-color:#5b5a72"/><stop offset=".5" style="stop-color:#b0b0bf"/><stop offset=".96" style="stop-color:#f4f4f6"/></linearGradient><path d="m781.3 134.1 11 4.8c1 .4 1.4 1.5 1 2.5l-4.8 11c-.4 1-1.5 1.4-2.5 1l-11-4.8c-1-.4-1.4-1.5-1-2.5l4.8-11c.5-1 1.6-1.4 2.5-1zm7.8 7.5-7.5-3.2-3.2 7.6 7.5 3.2 3.2-7.6z" style="opacity:.1;fill:url(#SVGID_00000150061186301887825580000001524801592139572644_);enable-background:new"/><linearGradient id="SVGID_00000010295612092377410480000014542905182001338028_" x1="324.78" x2="357.774" y1="7889.506" y2="7922.501" gradientTransform="rotate(-115.779 -1870.057 4068.792)" gradientUnits="userSpaceOnUse"><stop offset=".1" style="stop-color:#5b5a72"/><stop offset=".5" style="stop-color:#b0b0bf"/><stop offset=".96" style="stop-color:#f4f4f6"/></linearGradient><path d="m633.7 389.1 11.7 24.3c1 2.1.1 4.7-2 5.7l-24.3 11.7c-2.1 1-4.7.1-5.7-2l-11.7-24.3c-1-2.1-.1-4.7 2-5.7l24.3-11.7c2.2-1 4.7-.1 5.7 2zm2.3 24.2-8-16.6-16.6 8 8 16.6 16.6-8z" style="opacity:.1;fill:url(#SVGID_00000010295612092377410480000014542905182001338028_);enable-background:new"/><linearGradient id="SVGID_00000005954074854244271680000004286319125609965471_" x1="437.778" x2="452.629" y1="7796.129" y2="7810.97" gradientTransform="rotate(-115.779 -1870.057 4068.792)" gradientUnits="userSpaceOnUse"><stop offset=".1" style="stop-color:#5b5a72"/><stop offset=".5" style="stop-color:#b0b0bf"/><stop offset=".96" style="stop-color:#f4f4f6"/></linearGradient><path d="m490.6 351 5.3 10.9c.5 1 .1 2.1-.9 2.5l-10.9 5.3c-1 .5-2.1.1-2.5-.9l-5.3-10.9c-.5-1-.1-2.1.9-2.5l10.9-5.3c.9-.5 2.1-.1 2.5.9zm1 10.9-3.6-7.5-7.5 3.6 3.6 7.5 7.5-3.6z" style="opacity:.1;fill:url(#SVGID_00000005954074854244271680000004286319125609965471_);enable-background:new"/><linearGradient id="SVGID_00000034048518774201552720000015991832847615641731_" x1="249.023" x2="269.125" y1="7659.774" y2="7679.876" gradientTransform="rotate(-115.779 -1870.057 4068.792)" gradientUnits="userSpaceOnUse"><stop offset=".1" style="stop-color:#5b5a72"/><stop offset=".5" style="stop-color:#b0b0bf"/><stop offset=".96" style="stop-color:#f4f4f6"/></linearGradient><path d="m452.8 573.6 7.1 14.8c.6 1.3.1 2.8-1.2 3.5l-14.8 7.2c-1.3.6-2.8.1-3.5-1.2l-7.1-14.8c-.6-1.3-.1-2.8 1.2-3.5l14.8-7.2c1.3-.6 2.8-.1 3.5 1.2zm1.3 14.7-4.9-10.1-10.1 4.9 4.9 10.1 10.1-4.9z" style="opacity:.1;fill:url(#SVGID_00000034048518774201552720000015991832847615641731_);enable-background:new"/></svg>