<svg xmlns="http://www.w3.org/2000/svg" xmlns:xlink="http://www.w3.org/1999/xlink" viewBox="0 0 841.9 595.3"><defs><radialGradient id="e" cx="1515.7" cy="936.3" r="50" data-name="Dégradé sans nom" fx="1515.7" fy="936.3" gradientTransform="matrix(.6 0 0 .6 -591.9 536.6)" gradientUnits="userSpaceOnUse"><stop offset=".4" stop-color="#353544" stop-opacity=".5"/><stop offset="1" stop-color="#353544" stop-opacity="0"/></radialGradient><radialGradient id="f" cx="2312" cy="937.4" r="50" data-name="Dégradé sans nom 2" fx="2312" fy="937.4" gradientTransform="matrix(.5 0 0 .5 -829 536.4)" gradientUnits="userSpaceOnUse"><stop offset=".4" stop-color="#353544" stop-opacity=".5"/><stop offset="1" stop-color="#353544" stop-opacity="0"/></radialGradient><radialGradient id="g" cx="4118.2" cy="935.2" r="50" data-name="Dégradé sans nom 3" fx="4118.2" fy="935.2" gradientTransform="matrix(.3 0 0 .3 -1064.7 536)" gradientUnits="userSpaceOnUse"><stop offset=".4" stop-color="#353544" stop-opacity=".5"/><stop offset="1" stop-color="#353544" stop-opacity="0"/></radialGradient><radialGradient id="h" cx="3773.4" cy="936.2" r="50" data-name="Dégradé sans nom 4" fx="3773.4" fy="936.2" gradientTransform="matrix(.3 0 0 .3 -1064.7 536.1)" gradientUnits="userSpaceOnUse"><stop offset=".4" stop-color="#353544" stop-opacity=".5"/><stop offset="1" stop-color="#353544" stop-opacity="0"/></radialGradient><radialGradient id="i" cx="2202.4" cy="937.8" r="50" data-name="Dégradé sans nom 5" fx="2202.4" fy="937.8" gradientTransform="matrix(.4 0 0 .4 -836.3 536.4)" gradientUnits="userSpaceOnUse"><stop offset=".4" stop-color="#353544" stop-opacity=".5"/><stop offset="1" stop-color="#353544" stop-opacity="0"/></radialGradient><radialGradient id="j" cx="270.7" cy="74.7" r="50" data-name="Dégradé sans nom 6" fx="270.7" fy="74.7" gradientTransform="matrix(1 0 0 -.1 0 479.6)" gradientUnits="userSpaceOnUse"><stop offset=".4" stop-color="#353544" stop-opacity=".5"/><stop offset="1" stop-color="#353544" stop-opacity="0"/></radialGradient><radialGradient id="p" cx="2037.7" cy="935.5" r="50.1" data-name="Dégradé sans nom 13" fx="2037.7" fy="935.5" gradientTransform="matrix(.6 0 0 .6 -591.9 536.4)" gradientUnits="userSpaceOnUse"><stop offset=".4" stop-color="#353544" stop-opacity=".5"/><stop offset="1" stop-color="#353544" stop-opacity="0"/></radialGradient><radialGradient id="q" cx="3448.3" cy="936.9" r="50" data-name="Dégradé sans nom 14" fx="3448.3" fy="936.9" gradientTransform="matrix(.4 0 0 .4 -808.4 536.1)" gradientUnits="userSpaceOnUse"><stop offset=".4" stop-color="#353544" stop-opacity=".5"/><stop offset="1" stop-color="#353544" stop-opacity="0"/></radialGradient><radialGradient id="r" cx="3043" cy="937.8" r="50" data-name="Dégradé sans nom 15" fx="3043" fy="937.8" gradientTransform="matrix(.5 0 0 .5 -748.1 536.2)" gradientUnits="userSpaceOnUse"><stop offset=".4" stop-color="#353544" stop-opacity=".5"/><stop offset="1" stop-color="#353544" stop-opacity="0"/></radialGradient><radialGradient id="s" cx="6207.3" cy="1453.8" r="50" data-name="Dégradé sans nom 16" fx="6207.3" fy="1453.8" gradientTransform="matrix(.3 0 0 .3 -979.7 557.3)" gradientUnits="userSpaceOnUse"><stop offset=".4" stop-color="#353544" stop-opacity=".5"/><stop offset="1" stop-color="#353544" stop-opacity="0"/></radialGradient><radialGradient id="b" cx="6846.1" cy="1549.1" r="50" data-name="Dégradé sans nom 18" fx="6846.1" fy="1549.1" gradientTransform="matrix(.3 0 0 .3 -1003.6 563)" gradientUnits="userSpaceOnUse"><stop offset=".4" stop-color="#353544" stop-opacity=".5"/><stop offset="1" stop-color="#353544" stop-opacity="0"/></radialGradient><radialGradient xlink:href="#b" id="t" cx="816.3" cy="523.1" r="50" data-name="Dégradé sans nom 18" fx="816.3" fy="523.1" gradientTransform="matrix(.9 0 0 .9 -166.7 518)"/><linearGradient id="a" x1="-201.4" x2="-122.3" y1="231.5" y2="152.4" data-name="Dégradé sans nom 7" gradientTransform="matrix(1 0 0 -1 432.5 620.8)" gradientUnits="userSpaceOnUse"><stop offset="0" stop-color="#5b5a72"/><stop offset=".5" stop-color="#b0b0bf"/><stop offset="1" stop-color="#f4f4f6"/></linearGradient><linearGradient xlink:href="#a" id="k" x1="289.4" x2="339.4" y1="412.6" y2="462.6" data-name="Dégradé sans nom 7"/><linearGradient id="l" x1="-2904.8" x2="-2880.1" y1="-1370.2" y2="-1394.9" data-name="Dégradé sans nom 9" gradientTransform="scale(-1 1) rotate(60.2 -3137.144 1853.571)" gradientUnits="userSpaceOnUse"><stop offset="0" stop-color="#5b5a72"/><stop offset=".5" stop-color="#b0b0bf"/><stop offset="1" stop-color="#f4f4f6"/></linearGradient><linearGradient xlink:href="#a" id="m" x1="161" x2="178.7" y1="449" y2="466.7" data-name="Dégradé sans nom 7"/><linearGradient id="n" x1="-317.7" x2="-281.7" y1="186.7" y2="150.7" data-name="Dégradé sans nom 11" gradientTransform="matrix(1 0 0 -1 432.5 620.8)" gradientUnits="userSpaceOnUse"><stop offset="0" stop-color="#5b5a72"/><stop offset=".5" stop-color="#b0b0bf"/><stop offset="1" stop-color="#f4f4f6"/></linearGradient><linearGradient id="o" x1="-2826.5" x2="-2809" y1="-1496" y2="-1513.4" data-name="Dégradé sans nom 12" gradientTransform="scale(-1 1) rotate(60.2 -3137.144 1853.571)" gradientUnits="userSpaceOnUse"><stop offset="0" stop-color="#5b5a72"/><stop offset=".5" stop-color="#b0b0bf"/><stop offset="1" stop-color="#f4f4f6"/></linearGradient><linearGradient id="u" x1="-3121.5" x2="-3066.2" y1="-1037" y2="-1092.3" data-name="Dégradé sans nom 19" gradientTransform="scale(-1 1) rotate(60.2 -3137.144 1853.571)" gradientUnits="userSpaceOnUse"><stop offset="0" stop-color="#5b5a72"/><stop offset=".5" stop-color="#b0b0bf"/><stop offset="1" stop-color="#f4f4f6"/></linearGradient><linearGradient id="c" x1="613" x2="644.8" y1="432.4" y2="464.2" data-name="Dégradé sans nom 21" gradientUnits="userSpaceOnUse"><stop offset="0" stop-color="#5b5a72"/><stop offset=".5" stop-color="#b0b0bf"/><stop offset="1" stop-color="#f4f4f6"/></linearGradient><linearGradient xlink:href="#c" id="v" x1="-2034" x2="-2008.9" y1="-4083.1" y2="-4108.3" data-name="Dégradé sans nom 21" gradientTransform="scale(-1 1) rotate(-13.6 17714.664 -7459.738)"/><linearGradient id="w" x1="262" x2="297.9" y1="186.7" y2="150.8" data-name="Dégradé sans nom 22" gradientTransform="matrix(1 0 0 -1 432.5 620.8)" gradientUnits="userSpaceOnUse"><stop offset="0" stop-color="#5b5a72"/><stop offset=".5" stop-color="#b0b0bf"/><stop offset="1" stop-color="#f4f4f6"/></linearGradient><linearGradient id="d" x1="766.5" x2="785.3" y1="448.9" y2="467.7" data-name="Dégradé sans nom 24" gradientUnits="userSpaceOnUse"><stop offset="0" stop-color="#5b5a72"/><stop offset=".5" stop-color="#b0b0bf"/><stop offset="1" stop-color="#f4f4f6"/></linearGradient><linearGradient xlink:href="#d" id="x" x1="-3168" x2="-3152.9" y1="-896.8" y2="-912" data-name="Dégradé sans nom 24" gradientTransform="scale(-1 1) rotate(60.2 -3137.144 1853.571)"/></defs><ellipse cx="317.5" cy="471.3" rx="30.7" ry="4.1" style="fill:url(#e)"/><ellipse cx="211.4" cy="471.3" rx="22.9" ry="4.1" style="fill:url(#f)"/><ellipse cx="170.9" cy="471.3" rx="15.4" ry="4.1" style="fill:url(#g)"/><ellipse cx="67.4" cy="471.3" rx="15.4" ry="4.1" style="fill:url(#h)"/><ellipse cx="132.9" cy="471.3" rx="22.5" ry="4.1" style="fill:url(#i)"/><ellipse cx="270.7" cy="471.3" rx="50.8" ry="6" style="fill:url(#j)"/><path d="M303 471.3h-64.7c-5.6 0-10.2-4.6-10.2-10.2v-64.7c0-5.6 4.6-10.2 10.2-10.2H303c5.6 0 10.2 4.6 10.2 10.2v64.7c0 5.6-4.6 10.2-10.2 10.2Zm-54.5-20.4h44.3v-44.3h-44.3v44.3Z" style="fill:url(#a)"/><path d="M317.5 410.1c16.9 0 30.6 13.7 30.6 30.6s-13.7 30.6-30.6 30.6-30.6-13.7-30.6-30.6 13.7-30.6 30.6-30.6Zm14.1 30.6c0-7.8-6.3-14.1-14.1-14.1s-14.1 6.3-14.1 14.1 6.3 14.1 14.1 14.1 14.1-6.3 14.1-14.1Z" style="fill:url(#k)"/><path d="M193.9 465.6 208 441c.7-1.2 1.9-1.9 3.3-1.9s2.6.7 3.3 1.9l14.2 24.5c.7 1.2.7 2.6 0 3.8-.7 1.2-1.9 1.9-3.3 1.9h-28.4c-2.1 0-3.8-1.6-3.8-3.7 0-.7.2-1.3.5-1.9Zm17.4-15-7.5 13.1h15.1l-7.6-13.1Z" style="fill:url(#l)"/><path d="M170.9 446.4c6.9 0 12.5 5.6 12.5 12.5s-5.6 12.5-12.5 12.5-12.5-5.6-12.5-12.5 5.6-12.5 12.5-12.5Zm5.7 12.5c0-3.2-2.6-5.7-5.7-5.7-3.2 0-5.7 2.6-5.7 5.7 0 3.2 2.6 5.7 5.7 5.7 3.2 0 5.7-2.6 5.7-5.7Z" style="fill:url(#m)"/><path d="M147.6 471.3h-29.4c-2.6 0-4.6-2.1-4.6-4.6v-29.4c0-2.6 2.1-4.6 4.6-4.6h29.4c2.6 0 4.6 2.1 4.6 4.6v29.4c0 2.6-2.1 4.6-4.6 4.6Zm-24.8-9.2h20.1V442h-20.1v20.1Z" style="fill:url(#n)"/><path d="m55.2 467.3 9.9-17.3c.5-.8 1.4-1.4 2.3-1.4s1.8.5 2.3 1.3l10 17.2c.5.8.5 1.9 0 2.7s-1.4 1.4-2.3 1.4H57.5c-1 0-1.8-.5-2.3-1.3-.5-.8-.5-1.9 0-2.7Zm12.2-10.5-5.3 9.2h10.6l-5.3-9.2Z" style="fill:url(#o)"/><ellipse cx="630.7" cy="471.3" rx="30.7" ry="4.1" style="fill:url(#p)"/><ellipse cx="674.4" cy="471.3" rx="21.8" ry="4.1" style="fill:url(#q)"/><ellipse cx="712.5" cy="471.3" rx="24.3" ry="4.1" style="fill:url(#r)"/><ellipse cx="758.5" cy="471.3" rx="14.4" ry="3.4" style="fill:url(#s)"/><ellipse cx="776.6" cy="471.3" rx="13.3" ry="3.3" style="fill:url(#b)"/><ellipse cx="590.6" cy="471.3" rx="47.2" ry="4.8" style="fill:url(#t)"/><path d="m551.5 458.6 31.5-54.9c1.5-2.6 4.3-4.3 7.4-4.3 3 0 5.9 1.6 7.4 4.2l31.8 54.7c1.5 2.6 1.5 5.9 0 8.5-1.5 2.6-4.3 4.3-7.4 4.3l-63.3.2c-3 0-5.9-1.6-7.4-4.2s-1.5-5.9 0-8.5Zm39-33.6-16.8 29.3h33.8c0-.1-17-29.3-17-29.3Z" style="fill:url(#u)"/><path d="M630.8 429c11.7 0 21.2 9.5 21.2 21.2s-9.5 21.2-21.2 21.2-21.2-9.5-21.2-21.2 9.5-21.2 21.2-21.2Zm9.7 21.2c0-5.4-4.4-9.8-9.8-9.8s-9.8 4.4-9.8 9.8 4.4 9.8 9.8 9.8 9.8-4.4 9.8-9.8Z" style="fill:url(#c)"/><path d="m662.2 436.2 28 6.7c1.3.3 2.4 1.3 2.8 2.7.4 1.3 0 2.8-.9 3.8l-19.8 20.9c-1 1-2.4 1.4-3.7 1.1-1.3-.3-2.4-1.3-2.8-2.7l-8.2-27.6c-.4-1.3 0-2.8.9-3.8 1-1 2.4-1.4 3.7-1.1Zm19.7 12.7-14.9-3.6 4.3 14.7 10.6-11.1Z" style="fill:url(#v)"/><path d="M727.2 471.4h-29.4c-2.6 0-4.6-2.1-4.6-4.6v-29.4c0-2.6 2.1-4.6 4.6-4.6h29.4c2.6 0 4.6 2.1 4.6 4.6v29.4c0 2.6-2.1 4.6-4.6 4.6Zm-24.7-9.3h20.1V442h-20.1v20.1Z" style="fill:url(#w)"/><path d="M776.6 446.5c6.9 0 12.5 5.6 12.5 12.5s-5.6 12.5-12.5 12.5-12.5-5.6-12.5-12.5 5.6-12.5 12.5-12.5Zm5.7 12.4c0-3.2-2.6-5.7-5.7-5.8-3.2 0-5.7 2.6-5.8 5.7 0 3.2 2.6 5.8 5.8 5.8 3.2 0 5.7-2.6 5.7-5.7Z" style="fill:url(#d)"/><path d="m747.8 467.9 8.6-15c.4-.7 1.2-1.2 2-1.2s1.6.4 2 1.2l8.7 15c.4.7.4 1.6 0 2.3-.4.7-1.2 1.2-2 1.2h-17.3c-.8 0-1.6-.4-2-1.1-.4-.7-.4-1.6 0-2.3Zm10.7-9.2-4.6 8h9.2l-4.7-8Z" style="fill:url(#x)"/></svg>