<svg xmlns="http://www.w3.org/2000/svg" xml:space="preserve" id="Calque_1" x="0" y="0" style="enable-background:new 0 0 2107.6 1790.8" version="1.1" viewBox="0 0 2107.6 1790.8"><style>.st2{fill:url(#SVGID_00000044172600542571740770000004429104518812561586_)}.st3{fill:url(#SVGID_00000078728514075688816780000007314865978839374501_)}.st4{fill:url(#SVGID_00000128453348925754096210000011708538493203268258_)}.st5{fill:url(#SVGID_00000153678951743614821690000016576735296672073865_)}.st6{fill:url(#SVGID_00000073681080033156965370000005901622981437066117_)}.st7{fill:url(#SVGID_00000062179026936907547130000008157767645001938359_)}.st8{fill:url(#SVGID_00000173856885650953945590000015748032396809076377_)}.st9{fill:url(#SVGID_00000075152859524060132770000011493826929385601933_)}.st10{fill:url(#SVGID_00000131365064806857768440000009796357860474504323_)}.st11{fill:url(#SVGID_00000004520959356833394540000018252755840746013570_)}.st12{fill:url(#SVGID_00000010290332725053661020000012758634269895942539_)}.st13{fill:url(#SVGID_00000090293430816654102930000012790840491461631895_)}.st14{fill:url(#SVGID_00000049200485688892746100000012994660962465271174_)}.st15{fill:url(#SVGID_00000109752590524042376380000016869994091329898376_)}.st16{fill:url(#SVGID_00000179628117514032978840000011341532416463031714_)}.st17{fill:url(#SVGID_00000021821964582905512760000018032482714723513233_)}.st18{fill:url(#SVGID_00000058558801466328567010000013132021914012357559_)}.st19{fill:url(#SVGID_00000143578419125891471250000005804142622296431279_)}.st20{fill:url(#SVGID_00000111909603553996053270000002883389618946830522_)}.st21{fill:url(#SVGID_00000120548004029068489380000015431538488297669556_)}.st22{fill:url(#SVGID_00000072268989816939687040000003715747552500334014_)}.st23{fill:url(#SVGID_00000140703172377193135750000015803018690633957538_)}.st24{fill:url(#SVGID_00000111871921675784921810000010897060599457228162_)}.st25{fill:url(#SVGID_00000083073568187908475430000003292972292455525000_)}.st26{fill:url(#SVGID_00000163044203763833213450000005123273841241259169_)}.st27{fill:url(#SVGID_00000115482985371691086820000013473594272942198974_)}.st28{fill:url(#SVGID_00000018921996602098680110000017871790191994518971_)}.st29{fill:url(#SVGID_00000011733822459257979020000010125238141497644468_)}.st30{fill:url(#SVGID_00000071561532594389691540000011416244205049312174_)}.st31{fill:url(#SVGID_00000163756061521081512470000000103147306358523777_)}.st32{fill:url(#SVGID_00000161620816582507057900000009001781896172357772_)}.st33{fill:url(#SVGID_00000013184054400197593290000015778698957410455426_)}.st34{fill:url(#SVGID_00000039107036859781058200000011545951095083431314_)}.st35{fill:url(#SVGID_00000164478485085810575830000004889149087296688514_)}.st36{fill:url(#SVGID_00000170254611584260054130000010903205656085686669_)}.st37{fill:url(#SVGID_00000016071200550890844230000017503064918614312592_)}.st38{fill:url(#SVGID_00000083079864471555850850000009080788588870689964_)}.st39{fill:url(#SVGID_00000044167899531695065510000000463748713739782296_)}.st40{fill:url(#SVGID_00000067233761127247941130000011728439673065265849_)}.st41{fill:url(#SVGID_00000115509376282538827200000012352786696515568278_)}.st42{fill:url(#SVGID_00000089563382659457656600000012312989820233084084_)}.st43{fill:url(#SVGID_00000156578843585812230250000008248237261094686394_)}.st44{fill:url(#SVGID_00000142863305858174114790000005761762965895743126_)}.st45{fill:url(#SVGID_00000087378118365608914070000003546961174444790938_)}.st46{fill:url(#SVGID_00000176008113643390870810000008921777793669109941_)}.st47{fill:url(#SVGID_00000163776310065579258100000010739559438212950679_)}.st48{fill:url(#SVGID_00000115501679750895153380000005899936347750995381_)}.st49{fill:url(#SVGID_00000085238174391181717140000004117954699016423045_)}.st50{fill:url(#SVGID_00000116915376306050160760000001329725643854124191_)}.st51{fill:url(#SVGID_00000013183806916301790010000002232253859906935231_)}.st52{fill:url(#SVGID_00000062872167025982803230000011236731109444428686_)}.st53{fill:url(#SVGID_00000057132714544917611460000013277947047701003197_)}.st54{fill:url(#SVGID_00000036209058029974619490000007591180793050211263_)}</style><g style="opacity:.1"><linearGradient id="SVGID_1_" x1="-11137.202" x2="-11117.71" y1="-522.57" y2="-542.062" gradientTransform="matrix(-.9961 .08837 .08837 .9961 -9729.242 2187.657)" gradientUnits="userSpaceOnUse"><stop offset=".1" style="stop-color:#5b5a72"/><stop offset=".5" style="stop-color:#b0b0bf"/><stop offset=".96" style="stop-color:#f4f4f6"/></linearGradient><path d="m1295.9 668 22.2-2c1.1-.1 2.1.4 2.7 1.3.6.9.7 2 .3 3l-9.4 20.2c-.4 1-1.4 1.6-2.5 1.7-1.1.1-2.1-.4-2.7-1.3l-12.8-18.3c-.6-.9-.7-2-.3-3 .5-.8 1.5-1.5 2.5-1.6zm17.6 4.5-11.9 1 6.8 9.7 5.1-10.7z" style="fill:url(#SVGID_1_)"/><linearGradient id="SVGID_00000179620724072427306430000001401274003112619443_" x1="-5412.89" x2="-5394.687" y1="6491.96" y2="6473.757" gradientTransform="scale(-1 1) rotate(76.367 428.727 5563.79)" gradientUnits="userSpaceOnUse"><stop offset=".1" style="stop-color:#5b5a72"/><stop offset=".5" style="stop-color:#b0b0bf"/><stop offset=".96" style="stop-color:#f4f4f6"/></linearGradient><path d="m1830.2 120.3 4.9-20.2c.2-1 1-1.8 1.9-2 1-.3 2 0 2.7.7l15.1 14.4c1.1 1.1 1.2 2.8.1 4-.3.4-.8.6-1.2.8l-20 5.9c-1 .3-2 0-2.7-.7-.7-.9-1-1.9-.8-2.9zm9.3-14.2-2.6 10.8 10.7-3.1c-.1 0-8.1-7.7-8.1-7.7z" style="fill:url(#SVGID_00000179620724072427306430000001401274003112619443_)"/><linearGradient id="SVGID_00000043454725515236339850000008513826683389431425_" x1="1953.373" x2="2000.737" y1="-6729.134" y2="-6776.488" gradientTransform="scale(1 -1) rotate(40.1 -6894.55 -4226.727)" gradientUnits="userSpaceOnUse"><stop offset=".1" style="stop-color:#5b5a72"/><stop offset=".5" style="stop-color:#b0b0bf"/><stop offset=".96" style="stop-color:#f4f4f6"/></linearGradient><path d="m1550.8 440.4-41.5 34.9a7.3 7.3 0 0 1-10.3-.9c-.8-1-1.4-2.2-1.6-3.4l-9.5-53.4c-.5-2.6.5-5.2 2.5-6.9s4.7-2.2 7.2-1.3l51 18.5c2.4.9 4.2 3 4.7 5.6.4 2.6-.5 5.2-2.5 6.9zm-41.2 15.6 22.1-18.6-27.2-9.8 5.1 28.4z" style="fill:url(#SVGID_00000043454725515236339850000008513826683389431425_)"/><linearGradient id="SVGID_00000152245022597427386450000007825234713572176519_" x1="-11205.439" x2="-11180.583" y1="1869.914" y2="1845.059" gradientTransform="scale(-1 1) rotate(19.451 -1724.538 28973.438)" gradientUnits="userSpaceOnUse"><stop offset=".1" style="stop-color:#5b5a72"/><stop offset=".5" style="stop-color:#b0b0bf"/><stop offset=".96" style="stop-color:#f4f4f6"/></linearGradient><path d="m1606.2 248.3 26.8-9.5c2-.7 4.2.3 4.9 2.3.2.6.3 1.3.2 2l-5.2 28c-.2 1.4-1.2 2.5-2.5 2.9s-2.7.2-3.8-.7l-21.6-18.5c-1-.9-1.5-2.3-1.3-3.6.2-1.3 1.2-2.4 2.5-2.9zm23.1 0-14.3 5.1 11.5 9.9 2.8-15z" style="fill:url(#SVGID_00000152245022597427386450000007825234713572176519_)"/><linearGradient id="SVGID_00000003825052035900782230000017325284061031925904_" x1="-291.917" x2="-216.497" y1="7099.954" y2="7024.544" gradientTransform="scale(1 -1) rotate(-64.209 -5354.854 1733.296)" gradientUnits="userSpaceOnUse"><stop offset=".1" style="stop-color:#5b5a72"/><stop offset=".5" style="stop-color:#b0b0bf"/><stop offset=".96" style="stop-color:#f4f4f6"/></linearGradient><path d="M1702.4 523.7c10.9 22.5 1.5 49.7-21.1 60.6-22.5 10.9-49.7 1.4-60.6-21.1s-1.4-49.7 21.1-60.5 49.7-1.5 60.6 21zm-31.7 38.5c10.4-5 14.7-17.5 9.7-27.9-5-10.4-17.5-14.7-27.9-9.7-10.4 5-14.7 17.5-9.7 27.9s17.5 14.7 27.9 9.7z" style="fill:url(#SVGID_00000003825052035900782230000017325284061031925904_)"/><linearGradient id="SVGID_00000091006357861026453730000008368456605541149107_" x1="-487.703" x2="-449.453" y1="7276.318" y2="7238.068" gradientTransform="scale(1 -1) rotate(-64.209 -5354.854 1733.296)" gradientUnits="userSpaceOnUse"><stop offset=".1" style="stop-color:#5b5a72"/><stop offset=".5" style="stop-color:#b0b0bf"/><stop offset=".96" style="stop-color:#f4f4f6"/></linearGradient><path d="M1765 254.5c5.5 11.4.7 25.2-10.7 30.7-11.4 5.5-25.2.7-30.7-10.7s-.7-25.2 10.7-30.7c11.4-5.5 25.1-.7 30.7 10.7zm-16.1 19.5c5.3-2.5 7.5-8.9 4.9-14.1s-8.9-7.5-14.1-4.9c-5.3 2.5-7.5 8.9-4.9 14.1 2.5 5.2 8.8 7.5 14.1 4.9z" style="fill:url(#SVGID_00000091006357861026453730000008368456605541149107_)"/><linearGradient id="SVGID_00000089536096096330459460000007032339609860731296_" x1="-370.756" x2="-340.185" y1="6818.065" y2="6787.496" gradientTransform="scale(1 -1) rotate(-64.209 -5354.854 1733.296)" gradientUnits="userSpaceOnUse"><stop offset=".1" style="stop-color:#5b5a72"/><stop offset=".5" style="stop-color:#b0b0bf"/><stop offset=".96" style="stop-color:#f4f4f6"/></linearGradient><path d="M1400.9 555.8c4.4 9.1.6 20.1-8.6 24.5-9.1 4.4-20.1.6-24.6-8.6s-.6-20.1 8.6-24.5c9.2-4.4 20.2-.5 24.6 8.6zm-12.8 15.6c4.2-2 6-7.1 3.9-11.3s-7.1-6-11.3-3.9c-4.2 2-6 7.1-3.9 11.3 2 4.2 7.1 5.9 11.3 3.9z" style="fill:url(#SVGID_00000089536096096330459460000007032339609860731296_)"/><linearGradient id="SVGID_00000049224104594218814040000006147696140888517300_" x1="-3748.638" x2="-3651.17" y1="9097.082" y2="8999.614" gradientTransform="matrix(.01187 .9999 .9999 -.01187 -7343.614 4197.387)" gradientUnits="userSpaceOnUse"><stop offset=".1" style="stop-color:#5b5a72"/><stop offset=".5" style="stop-color:#b0b0bf"/><stop offset=".96" style="stop-color:#f4f4f6"/></linearGradient><path d="m1608.4 430.6-.9-79.7c-.1-6.9 5.5-12.6 12.4-12.7l79.7-1c6.9-.1 12.6 5.5 12.7 12.4l.9 79.7c.1 6.9-5.5 12.6-12.4 12.7l-79.7 1c-6.9.1-12.6-5.4-12.7-12.4zm24.3-67.4.7 54.6 54.6-.6-.7-54.6-54.6.6z" style="fill:url(#SVGID_00000049224104594218814040000006147696140888517300_)"/><linearGradient id="SVGID_00000082349570667946337690000011701876043420517565_" x1="-9592.213" x2="-9562.202" y1="7283.363" y2="7253.352" gradientTransform="scale(-1 1) rotate(45.997 2696.431 12949.123)" gradientUnits="userSpaceOnUse"><stop offset=".1" style="stop-color:#5b5a72"/><stop offset=".5" style="stop-color:#b0b0bf"/><stop offset=".96" style="stop-color:#f4f4f6"/></linearGradient><path d="m1723.8 171.2 17.1-17.6c1.5-1.5 3.9-1.6 5.5-.1l17.7 17.1c1.5 1.5 1.6 3.9.1 5.5l-17.1 17.6c-1.5 1.5-3.9 1.6-5.5.1l-17.7-17.1c-1.5-1.5-1.6-4-.1-5.5zm19.9-9.5-11.7 12.1 12.1 11.7 11.7-12.1-12.1-11.7z" style="fill:url(#SVGID_00000082349570667946337690000011701876043420517565_)"/><linearGradient id="SVGID_00000009587531141477755790000009074796174025795734_" x1="-3546.222" x2="-3486.859" y1="8907.588" y2="8848.225" gradientTransform="matrix(.01187 .9999 .9999 -.01187 -7343.614 4197.387)" gradientUnits="userSpaceOnUse"><stop offset=".1" style="stop-color:#5b5a72"/><stop offset=".5" style="stop-color:#b0b0bf"/><stop offset=".96" style="stop-color:#f4f4f6"/></linearGradient><path d="m1460.5 600.2-.6-48.5c-.1-4.2 3.3-7.7 7.6-7.7l48.5-.6c4.2 0 7.7 3.3 7.7 7.6l.6 48.5c.1 4.2-3.3 7.7-7.6 7.7l-48.5.6c-4.2 0-7.7-3.4-7.7-7.6zm14.8-41.1.4 33.2 33.2-.4-.4-33.2-33.2.4z" style="fill:url(#SVGID_00000009587531141477755790000009074796174025795734_)"/><linearGradient id="SVGID_00000171697008605302721840000005495342850702252983_" x1="-11005.565" x2="-10967.707" y1="5217.615" y2="5179.756" gradientTransform="scale(-1 1) rotate(28.659 3313.347 21303.786)" gradientUnits="userSpaceOnUse"><stop offset=".1" style="stop-color:#5b5a72"/><stop offset=".5" style="stop-color:#b0b0bf"/><stop offset=".96" style="stop-color:#f4f4f6"/></linearGradient><path d="m1487.2 302.8 27.2-14.9c2.4-1.3 5.3-.4 6.6 1.9l14.8 27.2c1.3 2.4.4 5.3-1.9 6.6l-27.2 14.9c-2.4 1.3-5.3.4-6.6-1.9l-14.8-27.2c-1.4-2.3-.5-5.3 1.9-6.6zm27.5-3.9-18.6 10.2 10.2 18.6 18.6-10.2-10.2-18.6z" style="fill:url(#SVGID_00000171697008605302721840000005495342850702252983_)"/><linearGradient id="SVGID_00000116198911832475902850000010727517199925424294_" x1="-9967.871" x2="-9926.285" y1="-1050.749" y2="-1092.336" gradientTransform="matrix(-.9961 .08837 .08837 .9961 -9729.242 2187.657)" gradientUnits="userSpaceOnUse"><stop offset=".1" style="stop-color:#5b5a72"/><stop offset=".5" style="stop-color:#b0b0bf"/><stop offset=".96" style="stop-color:#f4f4f6"/></linearGradient><path d="m59.2 228.3 47.4-4.2c2.3-.2 4.5.8 5.8 2.7 1.3 1.9 1.5 4.3.6 6.4l-20.1 43.2c-1.5 3.2-5.3 4.6-8.5 3.1-1-.5-1.9-1.2-2.5-2.1l-27.3-39c-1.3-1.9-1.5-4.3-.6-6.4.9-2.1 2.9-3.5 5.2-3.7zm37.5 9.6-25.3 2.2L86 260.9l10.7-23z" style="fill:url(#SVGID_00000116198911832475902850000010727517199925424294_)"/><linearGradient id="SVGID_00000154405210785003131010000006093232202203845527_" x1="-11365.492" x2="-11337.506" y1="-1135.59" y2="-1163.566" gradientTransform="matrix(-.9961 .08837 .08837 .9961 -9729.242 2187.657)" gradientUnits="userSpaceOnUse"><stop offset=".1" style="stop-color:#5b5a72"/><stop offset=".5" style="stop-color:#b0b0bf"/><stop offset=".96" style="stop-color:#f4f4f6"/></linearGradient><path d="m1459.4 30.7 31.9-2.8c1.5-.1 3 .6 3.9 1.8.9 1.3 1 2.9.4 4.3l-13.5 29c-.7 1.4-2 2.3-3.5 2.5-1.5.1-3-.6-3.9-1.8l-18.4-26.2c-.9-1.3-1-2.9-.4-4.3.7-1.4 2-2.3 3.5-2.5zm25.3 6.4-17 1.5 9.8 14 7.2-15.5z" style="fill:url(#SVGID_00000154405210785003131010000006093232202203845527_)"/><linearGradient id="SVGID_00000044899927402892754170000013992635587644844946_" x1="-3232.092" x2="-3182.888" y1="-7063.429" y2="-7112.633" gradientTransform="scale(1 -1) rotate(45.51 -8240.614 1559.344)" gradientUnits="userSpaceOnUse"><stop offset=".1" style="stop-color:#5b5a72"/><stop offset=".5" style="stop-color:#b0b0bf"/><stop offset=".96" style="stop-color:#f4f4f6"/></linearGradient><path d="m1487.3 902.3-39.5 40.2c-1.9 1.9-4.7 2.7-7.3 2-2.6-.7-4.7-2.7-5.4-5.3l-15.1-54.3c-1.1-4 1.2-8.2 5.3-9.3 1.3-.4 2.6-.4 3.9 0l54.5 14.1c4.1 1.1 6.5 5.2 5.4 9.2-.2 1.3-.8 2.5-1.8 3.4zm-41.1 20.2 21.1-21.4-29.1-7.5 8 28.9z" style="fill:url(#SVGID_00000044899927402892754170000013992635587644844946_)"/><linearGradient id="SVGID_00000035491306857924180730000002040366614596348330_" x1="-7817.233" x2="-7795.899" y1="2728.859" y2="2707.524" gradientTransform="scale(-1 1) rotate(53.58 -1919.41 8337.34)" gradientUnits="userSpaceOnUse"><stop offset=".1" style="stop-color:#5b5a72"/><stop offset=".5" style="stop-color:#b0b0bf"/><stop offset=".96" style="stop-color:#f4f4f6"/></linearGradient><path d="m879.2 269.3 14.5-19.6c1.1-1.5 3.1-1.8 4.6-.7.5.3.8.8 1.1 1.3l9.8 22.4c.5 1.1.3 2.3-.4 3.3s-1.8 1.5-3 1.3l-24.3-2.7c-1.2-.1-2.2-.9-2.7-2-.4-1.1-.3-2.4.4-3.3zm16.4-11.2-7.7 10.5 13 1.5-5.3-12z" style="fill:url(#SVGID_00000035491306857924180730000002040366614596348330_)"/><linearGradient id="SVGID_00000144306935556826071850000000198745621792920456_" x1="-9742.228" x2="-9706.803" y1="-5376.163" y2="-5411.589" gradientTransform="scale(-1 1) rotate(-48.381 1853.339 -12511.59)" gradientUnits="userSpaceOnUse"><stop offset=".1" style="stop-color:#5b5a72"/><stop offset=".5" style="stop-color:#b0b0bf"/><stop offset=".96" style="stop-color:#f4f4f6"/></linearGradient><path d="m511.3 846.8 26.9 30.3c1.3 1.5 1.7 3.5 1.1 5.3-.6 1.8-2.2 3.2-4.1 3.6l-39.7 8.2c-1.9.4-3.9-.3-5.2-1.7-1.3-1.5-1.7-3.5-1.1-5.3l12.8-38.5c.6-1.8 2.2-3.2 4.1-3.6 1.9-.4 3.9.3 5.2 1.7zm12.5 30.6-14.4-16.2-6.8 20.5 21.2-4.3z" style="fill:url(#SVGID_00000144306935556826071850000000198745621792920456_)"/><linearGradient id="SVGID_00000173861223516384591100000016086202082521414075_" x1="-8711.158" x2="-8660.866" y1="1842.052" y2="1791.759" gradientTransform="scale(-1 1) rotate(49.299 -4616.764 8811.967)" gradientUnits="userSpaceOnUse"><stop offset=".1" style="stop-color:#5b5a72"/><stop offset=".5" style="stop-color:#b0b0bf"/><stop offset=".96" style="stop-color:#f4f4f6"/></linearGradient><path d="m1934.4 1175 37.5-43.7c1.8-2.1 4.6-3.1 7.3-2.6s5 2.4 5.9 5.1l19 54.3c.9 2.6.4 5.5-1.4 7.6-1.8 2.1-4.6 3.1-7.3 2.6l-56.6-10.7c-2.7-.5-5-2.4-5.9-5.1-.8-2.5-.3-5.4 1.5-7.5zm40.6-23.4-20 23.3 30.2 5.7-10.2-29z" style="fill:url(#SVGID_00000173861223516384591100000016086202082521414075_)"/><linearGradient id="SVGID_00000165214393047316442950000005949392998589583250_" x1="-11172.275" x2="-11130.189" y1="-436.147" y2="-478.244" gradientTransform="matrix(-.9996 -.02687 -.02687 .9996 -10637.21 1893.434)" gradientUnits="userSpaceOnUse"><stop offset=".1" style="stop-color:#5b5a72"/><stop offset=".5" style="stop-color:#b0b0bf"/><stop offset=".96" style="stop-color:#f4f4f6"/></linearGradient><path d="m499.1 1720.7 48.2 1.3c2.3.1 4.4 1.4 5.5 3.4 1.1 2 1 4.5-.2 6.5l-25.2 41.1c-1.2 2-3.4 3.2-5.7 3.1-2.3-.1-4.4-1.4-5.5-3.4l-23-42.4c-1.1-2-1-4.5.2-6.5s3.4-3.2 5.7-3.1zm36.6 14-25.7-.7 12.2 22.6 13.5-21.9z" style="fill:url(#SVGID_00000165214393047316442950000005949392998589583250_)"/><linearGradient id="SVGID_00000153668523919927473490000006676462197055285399_" x1="-1175.687" x2="-1145.127" y1="6225.785" y2="6195.225" gradientTransform="scale(1 -1) rotate(-64.209 -5354.854 1733.296)" gradientUnits="userSpaceOnUse"><stop offset=".1" style="stop-color:#5b5a72"/><stop offset=".5" style="stop-color:#b0b0bf"/><stop offset=".96" style="stop-color:#f4f4f6"/></linearGradient><path d="M517.5 88.6c4.4 9.1.6 20.1-8.5 24.5-9.1 4.4-20.1.6-24.5-8.6s-.6-20.1 8.6-24.5c9-4.3 20-.5 24.4 8.6zm-12.9 15.6c4.2-2 6-7.1 3.9-11.3s-7.1-6-11.3-3.9c-4.2 2-6 7.1-3.9 11.3 2.1 4.2 7.1 6 11.3 3.9z" style="fill:url(#SVGID_00000153668523919927473490000006676462197055285399_)"/><linearGradient id="SVGID_00000183955858250878922270000005497853077540338312_" x1="-8155.718" x2="-8129.028" y1="-2355.169" y2="-2381.859" gradientTransform="scale(-1 1) rotate(-52.382 -207.76 -8604.613)" gradientUnits="userSpaceOnUse"><stop offset=".1" style="stop-color:#5b5a72"/><stop offset=".5" style="stop-color:#b0b0bf"/><stop offset=".96" style="stop-color:#f4f4f6"/></linearGradient><path d="M98.9 1496.2c-5.4-7-4.1-17.1 2.9-22.5 7-5.4 17.1-4.1 22.5 2.9 5.4 7 4.1 17.1-2.9 22.5-7 5.4-17.1 4.1-22.5-2.9zm8.2-15.7c-3.2 2.5-3.8 7.1-1.3 10.4s7.1 3.8 10.4 1.3c3.2-2.5 3.8-7.1 1.3-10.4-2.6-3.2-7.2-3.8-10.4-1.3z" style="fill:url(#SVGID_00000183955858250878922270000005497853077540338312_)"/><linearGradient id="SVGID_00000017488423453245320360000005528156762868949141_" x1="-6836.209" x2="-6814.069" y1="6624.992" y2="6602.842" gradientTransform="scale(-1 1) rotate(47.63 3031.872 10886.666)" gradientUnits="userSpaceOnUse"><stop offset=".1" style="stop-color:#5b5a72"/><stop offset=".5" style="stop-color:#b0b0bf"/><stop offset=".96" style="stop-color:#f4f4f6"/></linearGradient><path d="M463.4 733.8c-5 5.4-13.4 5.8-18.8.9s-5.8-13.4-.9-18.8 13.4-5.8 18.8-.9 5.8 13.3.9 18.8zm-14-4.5c2.5 2.3 6.4 2.1 8.7-.4s2.1-6.4-.4-8.7c-2.5-2.3-6.4-2.1-8.7.4s-2.1 6.5.4 8.7z" style="fill:url(#SVGID_00000017488423453245320360000005528156762868949141_)"/><linearGradient id="SVGID_00000071525974709676679980000006276536288556089496_" x1="-6759.496" x2="-6716.546" y1="7232.825" y2="7189.875" gradientTransform="scale(-1 1) rotate(47.63 3031.872 10886.666)" gradientUnits="userSpaceOnUse"><stop offset=".1" style="stop-color:#5b5a72"/><stop offset=".5" style="stop-color:#b0b0bf"/><stop offset=".96" style="stop-color:#f4f4f6"/></linearGradient><path d="M854.6 1209.2c-9.6 10.5-26 11.3-36.5 1.7-10.5-9.6-11.3-26-1.7-36.5 9.6-10.5 26-11.3 36.5-1.7 10.6 9.6 11.3 26 1.7 36.5zm-27.1-8.6c4.8 4.4 12.4 4.1 16.8-.8s4.1-12.4-.8-16.8-12.4-4.1-16.8.8-4 12.4.8 16.8z" style="fill:url(#SVGID_00000071525974709676679980000006276536288556089496_)"/><linearGradient id="SVGID_00000134233025084313028280000007465300108353585340_" x1="-6779.307" x2="-6718.347" y1="7796.864" y2="7735.914" gradientTransform="scale(-1 1) rotate(47.63 3031.872 10886.666)" gradientUnits="userSpaceOnUse"><stop offset=".1" style="stop-color:#5b5a72"/><stop offset=".5" style="stop-color:#b0b0bf"/><stop offset=".96" style="stop-color:#f4f4f6"/></linearGradient><path d="M1279.4 1582.6c-13.6 14.9-36.8 16-51.8 2.4-14.9-13.6-16-36.8-2.4-51.8 13.6-14.9 36.8-16 51.8-2.4 15 13.7 16.1 36.9 2.4 51.8zm-38.4-12.2c6.9 6.3 17.6 5.8 23.8-1.1 6.3-6.9 5.8-17.6-1.1-23.8-6.9-6.3-17.6-5.8-23.8 1.1-6.3 6.8-5.8 17.5 1.1 23.8z" style="fill:url(#SVGID_00000134233025084313028280000007465300108353585340_)"/><linearGradient id="SVGID_00000096058606554946519500000008272769290394908045_" x1="-8548.453" x2="-8513.124" y1="-1218.552" y2="-1253.882" gradientTransform="scale(-1 1) rotate(-65.411 -3477.367 -5150.468)" gradientUnits="userSpaceOnUse"><stop offset=".1" style="stop-color:#5b5a72"/><stop offset=".5" style="stop-color:#b0b0bf"/><stop offset=".96" style="stop-color:#f4f4f6"/></linearGradient><path d="M2002.2 1081.1c-4.9-10.7-.2-23.3 10.5-28.2 10.7-4.9 23.3-.2 28.2 10.5s.2 23.3-10.5 28.2c-10.8 4.8-23.4.1-28.2-10.5zm15.2-17.7c-4.9 2.2-7.1 8.1-4.8 13s8.1 7.1 13 4.8 7.1-8.1 4.8-13-8.1-7.1-13-4.8z" style="fill:url(#SVGID_00000096058606554946519500000008272769290394908045_)"/><linearGradient id="SVGID_00000142155653216717596130000000765265813014214588_" x1="-9242.151" x2="-9206.961" y1="6436.211" y2="6401.02" gradientTransform="scale(-1 1) rotate(31.293 5866.805 18107.092)" gradientUnits="userSpaceOnUse"><stop offset=".1" style="stop-color:#5b5a72"/><stop offset=".5" style="stop-color:#b0b0bf"/><stop offset=".96" style="stop-color:#f4f4f6"/></linearGradient><path d="m935.9 272.2 24.6-15c2.1-1.3 4.9-.6 6.2 1.5l15 24.6c1.3 2.1.6 4.9-1.5 6.2l-24.6 15c-2.1 1.3-4.9.6-6.2-1.5l-15-24.6c-1.3-2.1-.6-4.9 1.5-6.2zm25.5-4.8-16.8 10.2 10.2 16.8 16.8-10.2-10.2-16.8z" style="fill:url(#SVGID_00000142155653216717596130000000765265813014214588_)"/><linearGradient id="SVGID_00000074404849704817041330000001811249664281351869_" x1="-9719.089" x2="-9688.991" y1="4618.271" y2="4588.183" gradientTransform="scale(-1 1) rotate(9.341 21184.418 60605.912)" gradientUnits="userSpaceOnUse"><stop offset=".1" style="stop-color:#5b5a72"/><stop offset=".5" style="stop-color:#b0b0bf"/><stop offset=".96" style="stop-color:#f4f4f6"/></linearGradient><path d="m190.6 318.8 24.3-4c2.1-.4 4.1 1.1 4.4 3.2l4 24.3c.4 2.1-1.1 4.1-3.2 4.4l-24.3 4c-2.1.4-4.1-1.1-4.4-3.2l-4-24.3c-.3-2 1.1-4 3.2-4.4zm21.8 4.3-16.6 2.7 2.7 16.6 16.6-2.7-2.7-16.6z" style="fill:url(#SVGID_00000074404849704817041330000001811249664281351869_)"/><linearGradient id="SVGID_00000072261914660446403770000015476067818583697555_" x1="-11494.123" x2="-11460.224" y1="5160.227" y2="5126.318" gradientTransform="scale(-1 1) rotate(9.341 21184.418 60605.912)" gradientUnits="userSpaceOnUse"><stop offset=".1" style="stop-color:#5b5a72"/><stop offset=".5" style="stop-color:#b0b0bf"/><stop offset=".96" style="stop-color:#f4f4f6"/></linearGradient><path d="m2026.1 562.2 27.4-4.5c2.4-.4 4.6 1.2 5 3.6l4.5 27.4c.4 2.4-1.2 4.6-3.6 5l-27.4 4.5c-2.4.4-4.6-1.2-5-3.6l-4.5-27.4c-.4-2.4 1.2-4.6 3.6-5zm24.4 4.8-18.7 3.1 3.1 18.7 18.7-3.1-3.1-18.7z" style="fill:url(#SVGID_00000072261914660446403770000015476067818583697555_)"/><linearGradient id="SVGID_00000168819802631352140810000001472595151946583990_" x1="-3647.625" x2="-3618.509" y1="1959.355" y2="1930.238" gradientTransform="matrix(.0396 .9992 .9992 -.0396 -909.816 4317.452)" gradientUnits="userSpaceOnUse"><stop offset=".1" style="stop-color:#5b5a72"/><stop offset=".5" style="stop-color:#b0b0bf"/><stop offset=".96" style="stop-color:#f4f4f6"/></linearGradient><path d="m879.5 627.4-1.3-33.3c-.1-1.6.7-3.1 2.1-4 1.4-.9 3.1-.9 4.5-.2l29.5 15.5c1.4.8 2.3 2.2 2.4 3.8.1 1.6-.7 3.1-2.1 4L886.5 631c-1.4.9-3.1.9-4.5.2-1.5-.8-2.4-2.2-2.5-3.8zm8-25.9.7 17.8 15-9.5-15.7-8.3z" style="fill:url(#SVGID_00000168819802631352140810000001472595151946583990_)"/><linearGradient id="SVGID_00000145760700402818025860000014855891437665539200_" x1="-10828.157" x2="-10803.351" y1="-470.825" y2="-495.63" gradientTransform="matrix(-.9961 .08837 .08837 .9961 -9729.242 2187.657)" gradientUnits="userSpaceOnUse"><stop offset=".1" style="stop-color:#5b5a72"/><stop offset=".5" style="stop-color:#b0b0bf"/><stop offset=".96" style="stop-color:#f4f4f6"/></linearGradient><path d="m986.6 742.8 28.3-2.5c1.4-.1 2.7.5 3.5 1.6.8 1.1.9 2.6.3 3.8l-12 25.8c-.6 1.2-1.8 2.1-3.1 2.2-1.4.1-2.7-.5-3.5-1.6l-16.3-23.2c-.8-1.1-.9-2.6-.3-3.8.5-1.3 1.7-2.2 3.1-2.3zm22.4 5.7-15.1 1.3 8.7 12.4 6.4-13.7z" style="fill:url(#SVGID_00000145760700402818025860000014855891437665539200_)"/><linearGradient id="SVGID_00000106119141741476887780000005471352261933729720_" x1="-483.886" x2="-426.296" y1="6369.075" y2="6311.485" gradientTransform="scale(1 -1) rotate(-64.209 -5354.854 1733.296)" gradientUnits="userSpaceOnUse"><stop offset=".1" style="stop-color:#5b5a72"/><stop offset=".5" style="stop-color:#b0b0bf"/><stop offset=".96" style="stop-color:#f4f4f6"/></linearGradient><path d="M955.5 661c8.3 17.2 1.1 37.9-16.1 46.2s-37.9 1.1-46.3-16.1-1.1-37.9 16.1-46.2 38-1.1 46.3 16.1zm-24.2 29.4c7.9-3.8 11.2-13.4 7.4-21.3s-13.4-11.2-21.3-7.4c-7.9 3.8-11.2 13.4-7.4 21.3 3.8 7.9 13.4 11.3 21.3 7.4z" style="fill:url(#SVGID_00000106119141741476887780000005471352261933729720_)"/><linearGradient id="SVGID_00000170238272380682412380000000209356135071371401_" x1="-265.409" x2="-245.94" y1="6414.651" y2="6395.182" gradientTransform="scale(1 -1) rotate(-64.209 -5354.854 1733.296)" gradientUnits="userSpaceOnUse"><stop offset=".1" style="stop-color:#5b5a72"/><stop offset=".5" style="stop-color:#b0b0bf"/><stop offset=".96" style="stop-color:#f4f4f6"/></linearGradient><path d="M1080.2 821.3c2.8 5.8.4 12.8-5.4 15.6-5.8 2.8-12.8.4-15.6-5.5s-.4-12.8 5.4-15.6 12.8-.3 15.6 5.5zm-8.1 9.9c2.7-1.3 3.8-4.5 2.5-7.2s-4.5-3.8-7.2-2.5c-2.7 1.3-3.8 4.5-2.5 7.2s4.5 3.8 7.2 2.5z" style="fill:url(#SVGID_00000170238272380682412380000000209356135071371401_)"/><linearGradient id="SVGID_00000169541093245628335930000018389707375796814260_" x1="-5460.805" x2="-5418.358" y1="-3083.169" y2="-3125.626" gradientTransform="scale(1 -1) rotate(64.798 -4092.011 3084.64)" gradientUnits="userSpaceOnUse"><stop offset=".1" style="stop-color:#5b5a72"/><stop offset=".5" style="stop-color:#b0b0bf"/><stop offset=".96" style="stop-color:#f4f4f6"/></linearGradient><path d="m962.3 764.1-14.8 31.4c-1.3 2.7-4.5 3.9-7.3 2.6l-31.4-14.8c-2.7-1.3-3.9-4.5-2.6-7.3l14.8-31.4c1.3-2.7 4.5-3.9 7.3-2.6l31.4 14.8c2.8 1.3 3.9 4.5 2.6 7.3zM940 785.9l10.1-21.5-21.5-10.1-10.1 21.5 21.5 10.1z" style="fill:url(#SVGID_00000169541093245628335930000018389707375796814260_)"/><linearGradient id="SVGID_00000000933282003066849900000007679599237601314981_" x1="-5334.984" x2="-5316.352" y1="-2883.4" y2="-2902.031" gradientTransform="scale(1 -1) rotate(64.798 -4092.011 3084.64)" gradientUnits="userSpaceOnUse"><stop offset=".1" style="stop-color:#5b5a72"/><stop offset=".5" style="stop-color:#b0b0bf"/><stop offset=".96" style="stop-color:#f4f4f6"/></linearGradient><path d="m803.6 574.2-6.5 13.8c-.6 1.2-2 1.7-3.2 1.2l-13.8-6.5c-1.2-.6-1.7-2-1.2-3.2l6.5-13.8c.6-1.2 2-1.7 3.2-1.2l13.8 6.5c1.3.6 1.8 2 1.2 3.2zm-9.8 9.6 4.4-9.4-9.4-4.4-4.4 9.4 9.4 4.4z" style="fill:url(#SVGID_00000000933282003066849900000007679599237601314981_)"/><linearGradient id="SVGID_00000039129011693107949570000015258294819335106970_" x1="-10625.381" x2="-10594.473" y1="5787.66" y2="5756.752" gradientTransform="scale(-1 1) rotate(9.341 21184.418 60605.912)" gradientUnits="userSpaceOnUse"><stop offset=".1" style="stop-color:#5b5a72"/><stop offset=".5" style="stop-color:#b0b0bf"/><stop offset=".96" style="stop-color:#f4f4f6"/></linearGradient><path d="m1273.8 1324.9 24.9-4.1c2.2-.4 4.2 1.1 4.6 3.3l4.1 24.9c.4 2.2-1.1 4.2-3.3 4.6l-24.9 4.1c-2.2.4-4.2-1.1-4.6-3.3l-4.1-24.9c-.3-2.2 1.2-4.3 3.3-4.6zm22.3 4.4-17.1 2.8 2.8 17.1 17.1-2.8-2.8-17.1z" style="fill:url(#SVGID_00000039129011693107949570000015258294819335106970_)"/><linearGradient id="SVGID_00000028325116500455845880000011055472901715669905_" x1="-8936.884" x2="-8920.741" y1="-6881.293" y2="-6897.444" gradientTransform="scale(-1 1) rotate(-77.672 -195.566 -6978.432)" gradientUnits="userSpaceOnUse"><stop offset=".1" style="stop-color:#5b5a72"/><stop offset=".5" style="stop-color:#b0b0bf"/><stop offset=".96" style="stop-color:#f4f4f6"/></linearGradient><path d="m1977.9 1561.4 3.9 18.1c.2.9-.1 1.8-.8 2.4s-1.6.8-2.4.5l-17.6-5.6c-1.3-.4-2-1.8-1.6-3.1.1-.4.4-.8.7-1.1l13.7-12.4c.7-.6 1.6-.8 2.4-.5.9.1 1.5.8 1.7 1.7zm-1.8 14.9-2.1-9.6-7.3 6.6 9.4 3z" style="fill:url(#SVGID_00000028325116500455845880000011055472901715669905_)"/><linearGradient id="SVGID_00000133515025855806159460000004058529950290786969_" x1="-8724.394" x2="-8682.597" y1="3828.565" y2="3786.768" gradientTransform="scale(-1 1) rotate(44.421 -2302.584 11271.308)" gradientUnits="userSpaceOnUse"><stop offset=".1" style="stop-color:#5b5a72"/><stop offset=".5" style="stop-color:#b0b0bf"/><stop offset=".96" style="stop-color:#f4f4f6"/></linearGradient><path d="m1622.5 1466.3 34.2-33.5c1.6-1.6 4-2.2 6.2-1.6 2.2.6 3.9 2.4 4.5 4.6l11.9 46.3c.6 2.2-.1 4.6-1.7 6.2s-4 2.2-6.2 1.6l-46.1-12.8c-2.2-.6-3.9-2.4-4.5-4.6-.6-2.2.1-4.6 1.7-6.2zm35.3-16.4-18.2 17.9 24.6 6.9-6.4-24.8z" style="fill:url(#SVGID_00000133515025855806159460000004058529950290786969_)"/><linearGradient id="SVGID_00000055694880082896284670000007915900787081960107_" x1="-9998.516" x2="-9964.04" y1="3031.347" y2="2996.882" gradientTransform="scale(-1 1) rotate(27.918 -3095.115 18924.657)" gradientUnits="userSpaceOnUse"><stop offset=".1" style="stop-color:#5b5a72"/><stop offset=".5" style="stop-color:#b0b0bf"/><stop offset=".96" style="stop-color:#f4f4f6"/></linearGradient><path d="m1706.9 1639.3 34.9-18.5c1.7-.9 3.7-.8 5.3.2 1.6 1 2.6 2.8 2.5 4.7l-1.4 39.4c-.1 1.9-1.1 3.6-2.8 4.5s-3.7.8-5.3-.2l-33.4-21c-2.5-1.6-3.2-4.8-1.7-7.3.4-.7 1.1-1.3 1.9-1.8zm31.7-4.8-18.6 9.9 17.8 11.2.8-21.1z" style="fill:url(#SVGID_00000055694880082896284670000007915900787081960107_)"/><linearGradient id="SVGID_00000139980431068174722810000018389772744615914129_" x1="-9912.47" x2="-9840.64" y1="1233.675" y2="1161.845" gradientTransform="scale(-1 1) rotate(-35.101 -5208.223 -11568.519)" gradientUnits="userSpaceOnUse"><stop offset=".1" style="stop-color:#5b5a72"/><stop offset=".5" style="stop-color:#b0b0bf"/><stop offset=".96" style="stop-color:#f4f4f6"/></linearGradient><path d="M1661.9 1593.8c-19.5-13.7-24.2-40.7-10.5-60.2s40.7-24.2 60.2-10.5 24.2 40.7 10.5 60.2c-13.8 19.5-40.7 24.2-60.2 10.5zm8.5-46.7c-6.3 9-4.2 21.4 4.8 27.7 9 6.3 21.4 4.2 27.7-4.8 6.3-9 4.2-21.4-4.8-27.7-9-6.4-21.4-4.2-27.7 4.8z" style="fill:url(#SVGID_00000139980431068174722810000018389772744615914129_)"/><linearGradient id="SVGID_00000124858826979221076250000000942245060581616548_" x1="-673.648" x2="-644.278" y1="-1481.609" y2="-1510.979" gradientTransform="scale(1 -1) rotate(31.36 839.201 2947.03)" gradientUnits="userSpaceOnUse"><stop offset=".1" style="stop-color:#5b5a72"/><stop offset=".5" style="stop-color:#b0b0bf"/><stop offset=".96" style="stop-color:#f4f4f6"/></linearGradient><path d="M1863.7 1611.9c8.3-5.1 19.2-2.4 24.3 5.9s2.4 19.2-5.9 24.3c-8.3 5.1-19.2 2.4-24.3-5.9-5-8.3-2.4-19.2 5.9-24.3zm16.2 10.9c-2.3-3.8-7.3-5.1-11.2-2.7-3.8 2.3-5.1 7.3-2.7 11.2 2.3 3.8 7.3 5.1 11.2 2.7s5-7.4 2.7-11.2z" style="fill:url(#SVGID_00000124858826979221076250000000942245060581616548_)"/><linearGradient id="SVGID_00000152969808987509883740000012849565118902459292_" x1="-9630.831" x2="-9616.071" y1="1062.164" y2="1047.403" gradientTransform="scale(-1 1) rotate(-35.101 -5208.223 -11568.519)" gradientUnits="userSpaceOnUse"><stop offset=".1" style="stop-color:#5b5a72"/><stop offset=".5" style="stop-color:#b0b0bf"/><stop offset=".96" style="stop-color:#f4f4f6"/></linearGradient><path d="M1557 1305c-4-2.8-5-8.4-2.2-12.4s8.4-5 12.4-2.2 5 8.4 2.2 12.4-8.4 5-12.4 2.2zm1.8-9.6c-1.3 1.8-.8 4.4 1 5.7 1.8 1.3 4.4.8 5.7-1s.8-4.4-1-5.7-4.4-.8-5.7 1z" style="fill:url(#SVGID_00000152969808987509883740000012849565118902459292_)"/><linearGradient id="SVGID_00000004533626921943196180000016770681435861030847_" x1="-9732.368" x2="-9707.988" y1="1194.756" y2="1170.376" gradientTransform="scale(-1 1) rotate(-35.101 -5208.223 -11568.519)" gradientUnits="userSpaceOnUse"><stop offset=".1" style="stop-color:#5b5a72"/><stop offset=".5" style="stop-color:#b0b0bf"/><stop offset=".96" style="stop-color:#f4f4f6"/></linearGradient><path d="M1559.3 1469.6c-6.6-4.7-8.2-13.8-3.6-20.4s13.8-8.2 20.4-3.6c6.6 4.7 8.2 13.8 3.6 20.4-4.6 6.7-13.8 8.3-20.4 3.6zm2.9-15.8c-2.1 3.1-1.4 7.3 1.6 9.4s7.3 1.4 9.4-1.6 1.4-7.3-1.6-9.4-7.2-1.5-9.4 1.6z" style="fill:url(#SVGID_00000004533626921943196180000016770681435861030847_)"/><linearGradient id="SVGID_00000054960691977926677700000009811394641368477348_" x1="-10764.588" x2="-10723.022" y1="730.435" y2="688.87" gradientTransform="scale(-1 1) rotate(-47.46 -5292.684 -9030.989)" gradientUnits="userSpaceOnUse"><stop offset=".1" style="stop-color:#5b5a72"/><stop offset=".5" style="stop-color:#b0b0bf"/><stop offset=".96" style="stop-color:#f4f4f6"/></linearGradient><path d="m1806.3 1543.3 23 25.1c2 2.2 1.8 5.6-.3 7.6l-25.1 23c-2.2 2-5.6 1.8-7.6-.3l-23-25.1c-2-2.2-1.8-5.6.3-7.6l25.1-23c2.2-2 5.6-1.9 7.6.3zm11.5 28.4-15.7-17.2-17.2 15.7 15.7 17.2 17.2-15.7z" style="fill:url(#SVGID_00000054960691977926677700000009811394641368477348_)"/><linearGradient id="SVGID_00000153666593761243613540000015351425138859375765_" x1="-3516.371" x2="-3483.516" y1="9220.128" y2="9187.272" gradientTransform="scale(1 -1) rotate(-87.56 -6550.674 1170.139)" gradientUnits="userSpaceOnUse"><stop offset=".1" style="stop-color:#5b5a72"/><stop offset=".5" style="stop-color:#b0b0bf"/><stop offset=".96" style="stop-color:#f4f4f6"/></linearGradient><path d="m1588.5 1549.9-1.2-26.8c-.1-2.3 1.7-4.3 4-4.4l26.8-1.2c2.3-.1 4.3 1.7 4.4 4.1l1.2 26.8c.1 2.3-1.7 4.3-4.1 4.4l-26.8 1.2c-2.3.1-4.2-1.7-4.3-4.1zm7.4-23 .8 18.4 18.4-.8-.8-18.4-18.4.8z" style="fill:url(#SVGID_00000153666593761243613540000015351425138859375765_)"/><linearGradient id="SVGID_00000139980331471344548850000015602390489093163186_" x1="-11100.06" x2="-11076.236" y1="4482.359" y2="4458.536" gradientTransform="scale(-1 1) rotate(-13.379 -19500.873 -37439.488)" gradientUnits="userSpaceOnUse"><stop offset=".1" style="stop-color:#5b5a72"/><stop offset=".5" style="stop-color:#b0b0bf"/><stop offset=".96" style="stop-color:#f4f4f6"/></linearGradient><path d="m1611.9 1371.6 18.9 4.5c1.7.4 2.7 2.1 2.3 3.7l-4.5 18.9c-.4 1.7-2 2.7-3.7 2.3l-18.9-4.5c-1.7-.4-2.7-2-2.3-3.7l4.5-18.9c.4-1.7 2-2.7 3.7-2.3zm14.5 9.8-13-3.1-3.1 13 13 3.1 3.1-13z" style="fill:url(#SVGID_00000139980331471344548850000015602390489093163186_)"/><linearGradient id="SVGID_00000036247909796859988380000017094045611244226188_" x1="-10024.258" x2="-9995.966" y1="562.043" y2="533.74" gradientTransform="scale(-1 1) rotate(-31.489 -4407.053 -16974.13)" gradientUnits="userSpaceOnUse"><stop offset=".1" style="stop-color:#5b5a72"/><stop offset=".5" style="stop-color:#b0b0bf"/><stop offset=".96" style="stop-color:#f4f4f6"/></linearGradient><path d="M31.3 876.4 51 888.5c1.7 1 2.3 3.3 1.2 5l-12.1 19.7c-1 1.7-3.3 2.3-5 1.2l-19.7-12.1c-1.7-1-2.3-3.3-1.2-5l12.1-19.7c1-1.8 3.3-2.3 5-1.2zm12.8 16.4-13.5-8.3-8.3 13.5 13.5 8.3 8.3-13.5z" style="fill:url(#SVGID_00000036247909796859988380000017094045611244226188_)"/><linearGradient id="SVGID_00000101096678481864850380000003381869473622322598_" x1="-3469.616" x2="-3418.434" y1="-5083.473" y2="-5134.655" gradientTransform="scale(1 -1) rotate(29.287 -8561.938 4215.536)" gradientUnits="userSpaceOnUse"><stop offset=".1" style="stop-color:#5b5a72"/><stop offset=".5" style="stop-color:#b0b0bf"/><stop offset=".96" style="stop-color:#f4f4f6"/></linearGradient><path d="m498.2 1415.4-51.1 28.7c-2.5 1.4-5.5 1.3-7.9-.1-2.4-1.4-3.9-4.1-3.9-6.9l.7-58.6c.1-4.4 3.6-7.8 8-7.8 1.4 0 2.7.4 3.9 1.1l50.4 29.9c2.4 1.4 3.9 4.1 3.9 6.9.1 2.8-1.5 5.4-4 6.8zm-46.8 8.2 27.3-15.3-26.9-16-.4 31.3z" style="fill:url(#SVGID_00000101096678481864850380000003381869473622322598_)"/><linearGradient id="SVGID_00000118383268793719026810000001026981602314616727_" x1="-10474.397" x2="-10459.964" y1="-1094.239" y2="-1108.684" gradientTransform="matrix(-.9983 .05791 .05791 .9983 -9739.382 3085.285)" gradientUnits="userSpaceOnUse"><stop offset=".1" style="stop-color:#5b5a72"/><stop offset=".5" style="stop-color:#b0b0bf"/><stop offset=".96" style="stop-color:#f4f4f6"/></linearGradient><path d="m638.1 1374.9 16.5-1c.8-.1 1.5.3 2 1 .4.7.5 1.5.1 2.2l-7.4 14.8c-.4.7-1.1 1.2-1.9 1.2s-1.5-.3-2-1l-9.1-13.8c-.7-1-.4-2.4.6-3.1.4-.1.8-.3 1.2-.3zm12.9 3.7-8.8.5 4.8 7.4 4-7.9z" style="fill:url(#SVGID_00000118383268793719026810000001026981602314616727_)"/><linearGradient id="SVGID_00000157310578206156284380000016855349861542543038_" x1="-5355.802" x2="-5326.089" y1="1943.859" y2="1914.146" gradientTransform="scale(1 -1) rotate(-84.1 -4359.109 -2799.973)" gradientUnits="userSpaceOnUse"><stop offset=".1" style="stop-color:#5b5a72"/><stop offset=".5" style="stop-color:#b0b0bf"/><stop offset=".96" style="stop-color:#f4f4f6"/></linearGradient><path d="m235 1355.2-3.5-33.8c-.3-2.5 1.6-4.8 4.1-5 .8-.1 1.6 0 2.3.4l31.1 13.9c1.5.7 2.5 2.1 2.7 3.7s-.5 3.2-1.9 4.2l-27.6 19.9c-1.3 1-3.1 1.1-4.6.5-1.5-.8-2.5-2.2-2.6-3.8zm6.4-26.9 1.9 18.1 14.7-10.6-16.6-7.5z" style="fill:url(#SVGID_00000157310578206156284380000016855349861542543038_)"/><linearGradient id="SVGID_00000067928383881778270800000011727630733847620268_" x1="-8963.734" x2="-8941.594" y1="2991.648" y2="2969.498" gradientTransform="scale(-1 1) rotate(-10.55 -14092.771 -45246.188)" gradientUnits="userSpaceOnUse"><stop offset=".1" style="stop-color:#5b5a72"/><stop offset=".5" style="stop-color:#b0b0bf"/><stop offset=".96" style="stop-color:#f4f4f6"/></linearGradient><path d="M206.5 1236.6c-7.2-1.3-12-8.3-10.7-15.5 1.4-7.2 8.3-12 15.5-10.7 7.2 1.3 12 8.3 10.6 15.5-1.3 7.3-8.2 12-15.4 10.7zm-3.6-14.2c-.6 3.3 1.6 6.5 4.9 7.2 3.3.6 6.5-1.6 7.1-4.9s-1.6-6.5-4.9-7.2c-3.3-.6-6.5 1.6-7.1 4.9z" style="fill:url(#SVGID_00000067928383881778270800000011727630733847620268_)"/><linearGradient id="SVGID_00000150066858886944767590000003595029425157304715_" x1="-9172.816" x2="-9131.597" y1="3184.837" y2="3143.617" gradientTransform="scale(-1 1) rotate(-10.55 -14092.771 -45246.188)" gradientUnits="userSpaceOnUse"><stop offset=".1" style="stop-color:#5b5a72"/><stop offset=".5" style="stop-color:#b0b0bf"/><stop offset=".96" style="stop-color:#f4f4f6"/></linearGradient><path d="M366.6 1464.5c-13.5-2.5-22.3-15.4-19.8-28.9 2.5-13.4 15.5-22.3 28.9-19.8s22.3 15.5 19.8 28.9c-2.5 13.4-15.5 22.3-28.9 19.8zm-6.7-26.5c-1.1 6.2 2.9 12.2 9.1 13.3s12.1-2.9 13.3-9.1-2.9-12.2-9.1-13.3-12.2 2.9-13.3 9.1z" style="fill:url(#SVGID_00000150066858886944767590000003595029425157304715_)"/><linearGradient id="SVGID_00000163035047236324550550000006538481130524086165_" x1="-1921.206" x2="-1893.936" y1="5777.828" y2="5750.558" gradientTransform="scale(1 -1) rotate(-57.359 -7193.38 55.77)" gradientUnits="userSpaceOnUse"><stop offset=".1" style="stop-color:#5b5a72"/><stop offset=".5" style="stop-color:#b0b0bf"/><stop offset=".96" style="stop-color:#f4f4f6"/></linearGradient><path d="M478.1 1308.5c4.9 7.6 2.7 17.8-5 22.7-7.6 4.9-17.8 2.7-22.7-5s-2.6-17.8 5-22.7c7.7-4.9 17.8-2.6 22.7 5zm-9.7 15.2c3.5-2.2 4.5-6.9 2.3-10.4s-6.9-4.5-10.4-2.3-4.5 6.9-2.3 10.4 6.9 4.5 10.4 2.3z" style="fill:url(#SVGID_00000163035047236324550550000006538481130524086165_)"/><linearGradient id="SVGID_00000105402733346206989420000013307953957095746981_" x1="-7261.542" x2="-7222.63" y1="-2709.346" y2="-2748.268" gradientTransform="matrix(-.00559 -1 -1 .00559 -2423.567 -5874.315)" gradientUnits="userSpaceOnUse"><stop offset=".1" style="stop-color:#5b5a72"/><stop offset=".5" style="stop-color:#b0b0bf"/><stop offset=".96" style="stop-color:#f4f4f6"/></linearGradient><path d="m366.6 1336.2.2 31.8c0 2.8-2.2 5-5 5l-31.8.2c-2.8 0-5-2.2-5-5l-.2-31.8c0-2.8 2.2-5 5-5l31.8-.2c2.7 0 5 2.3 5 5zm-9.9 26.9-.1-21.8-21.8.1.1 21.8 21.8-.1z" style="fill:url(#SVGID_00000105402733346206989420000013307953957095746981_)"/><linearGradient id="SVGID_00000147930757898429092470000007078292569373036713_" x1="-7099.211" x2="-7081.16" y1="-2506.655" y2="-2524.706" gradientTransform="matrix(-.00559 -1 -1 .00559 -2423.567 -5874.315)" gradientUnits="userSpaceOnUse"><stop offset=".1" style="stop-color:#5b5a72"/><stop offset=".5" style="stop-color:#b0b0bf"/><stop offset=".96" style="stop-color:#f4f4f6"/></linearGradient><path d="m141.5 1194.1.1 14.8c0 1.3-1 2.3-2.3 2.3l-14.8.1c-1.3 0-2.3-1-2.3-2.3l-.1-14.8c0-1.3 1-2.3 2.3-2.3l14.8-.1c1.2 0 2.3 1 2.3 2.3zm-4.6 12.5-.1-10.1-10.1.1.1 10.1 10.1-.1z" style="fill:url(#SVGID_00000147930757898429092470000007078292569373036713_)"/><linearGradient id="SVGID_00000114034233184301111960000009323283038537706901_" x1="-4556.818" x2="-4531.694" y1="5092.627" y2="5067.504" gradientTransform="scale(1 -1) rotate(-79.851 -5845.284 -1182.43)" gradientUnits="userSpaceOnUse"><stop offset=".1" style="stop-color:#5b5a72"/><stop offset=".5" style="stop-color:#b0b0bf"/><stop offset=".96" style="stop-color:#f4f4f6"/></linearGradient><path d="m537.1 1371.7-3.6-20.2c-.3-1.8.9-3.4 2.6-3.8l20.2-3.6c1.8-.3 3.4.9 3.8 2.6l3.6 20.2c.3 1.8-.9 3.4-2.6 3.8l-20.2 3.6c-1.8.3-3.5-.9-3.8-2.6zm3.3-18.2 2.5 13.8 13.8-2.5-2.5-13.8-13.8 2.5z" style="fill:url(#SVGID_00000114034233184301111960000009323283038537706901_)"/></g></svg>