<svg xmlns="http://www.w3.org/2000/svg" xmlns:xlink="http://www.w3.org/1999/xlink" xml:space="preserve" id="Calque_1" x="0" y="0" style="enable-background:new 0 0 253 182" version="1.1" viewBox="0 0 253 182"><style>.st2,.st3{fill:#fff}.st3{opacity:.5;enable-background:new}.st5,.st6{fill:none;stroke:#fff;stroke-width:1.63;stroke-linecap:round;stroke-linejoin:round}.st6{stroke-width:3}</style><defs><path id="SVGID_1_" d="M50 0h154v182H50z"/></defs><clipPath id="SVGID_00000134927997443344189710000017949328054804558748_"><use xlink:href="#SVGID_1_" style="overflow:visible"/></clipPath><g style="clip-path:url(#SVGID_00000134927997443344189710000017949328054804558748_)"><radialGradient id="SVGID_00000125585347209826536360000000526488984675312571_" cx="-494.278" cy="17.538" r="1" gradientTransform="matrix(43.16 .01507 -.00167 4.78 21482.766 99.892)" gradientUnits="userSpaceOnUse"><stop offset=".4" style="stop-color:#fff;stop-opacity:.5"/><stop offset="1" style="stop-color:#fff;stop-opacity:0"/></radialGradient><path d="M150.7 182c24.2 0 43.8-2.4 43.8-5.4s-19.6-5.4-43.8-5.4-43.8 2.4-43.8 5.4 19.6 5.4 43.8 5.4z" style="fill:url(#SVGID_00000125585347209826536360000000526488984675312571_)"/><path d="m114.5 28.9 3.5 19c-1.2 5-1.4 10.5-.4 16l-6.4-34.4c-1.8-1.2-3.5-4.6-4.3-8.7-1-5.5.5-7.8 2.8-8.2s4.6 1.1 5.6 6.6c.9 4.1.4 7.9-.8 9.7zM171.2 106.6s5.5-5.1 16.9 7.1 17.9 26.4 15.3 28.4c-2 1.5-12.3-8-23.2-17.9-11.2-10.1-12-14.9-9-17.6zM121.8 100.6c-.6.1-1.3.2-2 .3-16.6 2.8-28.9 9.5-28.2 12.4.4 1.7 10.1 3.2 24.7.3 4-.8 7.3-1.6 10.1-2.4l-4.6-10.6zM171.9 17.1l6.6 35.5c-1.1-5.8-3.4-10.9-6.7-15.3l-3.6-19.5c-2.1-1.2-4-4.7-4.8-9-1.1-5.7.8-8.2 3.4-8.8 2.7-.5 5.3 1.2 6.3 6.9.8 4.4.2 8.3-1.2 10.2z" class="st2"/><path d="M150.9 55.8c.8-.2 1.4-.7 1.3-1.3-.1-.6-.9-.9-1.7-.8-.8.2-1.4.7-1.3 1.3.1.6.9.9 1.7.8zM152.8 53.2c1.3-.2 2.1-1.3 1.9-2.5-.2-1.1-1.4-1.8-2.7-1.6s-2.1 1.3-1.9 2.5c.2 1.1 1.4 1.8 2.7 1.6zM124.3 61c.7-.1 1.1-.7 1-1.2-.1-.5-.7-.8-1.4-.7-.7.1-1.1.7-1 1.2s.8.9 1.4.7zM125.9 58.6c1-.3 1.5-1.3 1.2-2.3-.3-1-1.3-1.5-2.3-1.2-1 .3-1.5 1.3-1.2 2.3.3 1 1.3 1.5 2.3 1.2z" class="st3"/><path d="M174.7 104.2c2.1 0 4.4.7 6.9 2.2l5-9.6c1.3-2.5-1-5.4-3.8-4.6l-34.4 8.6-2 24.8c-.1 1.8-1.8 1.8-1.9 0l-1.7-24.8-18-8.6c-2.3-.8-4.2 2.1-3.1 4.6l25.9 60.3c1.5 3.5 6 3.5 7.8 0l19.1-36.8c-4-4.3-5.9-7.7-5.9-10.5 0-1.6.6-3 1.9-4.2 0-.1 1.4-1.4 4.2-1.4z" class="st2"/><path d="m125.9 150.9-48.9.5c-1.1 0-2.6-1.8-3.4-4l-14.4-39.6c-.8-2.2-.8-4.5 0-5.2l37.6-31.5c2.3-1.9 5.4-.5 6.8 3.4l25.3 69.5c1.5 3.8.1 6.9-3 6.9z" class="st2" style="opacity:.4"/><path d="M70.6 110.3c-1.3-3.7-3.7-5.8-5.2-4.7-1.4 1-1.5 4.6-.3 8 1.2 3.4 3.4 5.6 5 4.9 1.6-.9 1.8-4.5.5-8.2zM95 123.6c-.6-1.6-1.8-2.7-2.8-2.4-.9.3-1.2 1.8-.6 3.4.6 1.6 1.8 2.6 2.7 2.4 1-.2 1.3-1.8.7-3.4zM98.5 133.4c-.6-1.6-1.9-2.8-2.8-2.5-1 .2-1.2 1.6-.7 3.2.6 1.6 1.8 2.7 2.8 2.6 1-.3 1.3-1.7.7-3.3zM102.1 143.1c-.6-1.6-1.9-2.8-2.9-2.7-1 .1-1.3 1.5-.8 3 .6 1.6 1.8 2.8 2.8 2.7 1.1-.1 1.5-1.4.9-3z" class="st2"/><path d="m96.4 121.3 8.8-2.8M97.6 124.7l14-3.9M100 131.3l9.1-1.9M101.2 134.6l14.5-2.5M103.6 141.2l9.4-1M104.8 144.6l15-1.1M70.8 105.4l28.4-18.7M72.2 109.3l28.9-17.2M73.6 113.2l9.4-5M69.7 126.4l14.1-5.2M70.9 129.5l14.3-4.6M72 132.6l14.5-3.9M73.1 135.7l14.8-3.3M74.2 138.8l15-2.7M75.4 141.9l15.2-2.1M76.5 144.9l6.5-.6" class="st5"/><path d="M65.6 88.8 52 85M69.9 80.8 59 68M78.3 78l3.4-16.5" class="st6"/><path d="M183.5 51.7c-1.1-5.8-3.4-10.9-6.7-15.3-8-10.5-21.4-16.3-35.3-13.7s-24.3 12.9-28 25.6c-1.5 5.3-1.8 11-.8 16.7 3.7 19.7 22.5 32.7 42 29s32.4-22.6 28.8-42.3zm-36.6-17.4c3.6-.1 9.6 7.4 9.6 7.4-8.5-7.2-14-3.5-14-3.5s1-3.8 4.4-3.9zM122.3 40c2.3-.9 4 2 4 2s-4.6-1.5-8.2 7c0-.1 1.8-8.1 4.2-9zm5.6 32.7c-.2 0-.4.1-.7.1-1.4 0-2.9-.9-4-2.4-1.3-1.7-2.4-4.1-3-6.8-.6-2.8-.5-5.4.1-7.5.6-2 1.7-3.6 3.4-4 .2 0 .4-.1.7-.1 1.4 0 2.9 1 4 2.4 1.3 1.7 2.4 4.1 3 6.8s.5 5.4-.1 7.5c-.5 2.1-1.7 3.7-3.4 4zm15.4 13.1c-5 .9-6.5-5-6.5-5l10.9-1.9s.5 6-4.4 6.9zm7.9-16.6c-1.9 3.9-5.1 6.7-9.2 7.5-4.3.8-8.5-.8-11.7-4.1.9-.8 1.6-2 2.1-3.6.7-2.3.7-5.1.1-7.9-.6-2.8-1.7-5.4-3.2-7.3-.9-1.2-2-2-3.1-2.4h.2c1.8-4.2 5.2-7.2 9.5-8 4.1-.8 8.1.7 11.2 3.6-.6.8-1.2 1.7-1.6 2.9-.9 2.5-1.1 5.7-.6 8.9.6 3.2 1.9 6.1 3.6 8.2.8 1 1.7 1.7 2.7 2.2zm8-4.7c-.8 2.3-2.3 4-4.4 4.4-.3.1-.5.1-.8.1-1.8 0-3.4-1-4.8-2.6-1.6-1.9-2.8-4.6-3.4-7.7s-.3-6.1.5-8.4c.8-2.3 2.3-4 4.4-4.4.3 0 .5-.1.8-.1 1.8 0 3.4 1 4.8 2.6 1.6 1.9 2.8 4.6 3.4 7.7.6 3.1.4 6.1-.5 8.4z" class="st2"/></g></svg>