<svg xmlns="http://www.w3.org/2000/svg" xmlns:xlink="http://www.w3.org/1999/xlink" id="Calque_1" viewBox="0 0 841.89 595.28"><defs><linearGradient id="Dégradé_sans_nom_37" x1="151.25" x2="312.08" y1="102.54" y2="263.37" data-name="Dégradé sans nom 37" gradientUnits="userSpaceOnUse"><stop offset=".1" stop-color="#5b5a72"/><stop offset=".5" stop-color="#b0b0bf"/><stop offset=".96" stop-color="#f4f4f6"/></linearGradient><linearGradient xlink:href="#Dégradé_sans_nom_37" id="Dégradé_sans_nom_37-2" x1="519.48" x2="697.47" y1="90.95" y2="268.94" data-name="Dégradé sans nom 37"/><linearGradient xlink:href="#Dégradé_sans_nom_37" id="Dégradé_sans_nom_37-3" x1="331.43" x2="503.02" y1="82.49" y2="254.08" data-name="Dégradé sans nom 37"/><linearGradient xlink:href="#Dégradé_sans_nom_37" id="Dégradé_sans_nom_37-4" x1="308.98" x2="496.46" y1="212.41" y2="399.88" data-name="Dégradé sans nom 37"/><linearGradient xlink:href="#Dégradé_sans_nom_37" id="Dégradé_sans_nom_37-5" x1="288.32" x2="475.8" y1="233.07" y2="420.54" data-name="Dégradé sans nom 37"/><linearGradient xlink:href="#Dégradé_sans_nom_37" id="Dégradé_sans_nom_37-6" x1="362.13" x2="549.6" y1="159.26" y2="346.73" data-name="Dégradé sans nom 37"/><linearGradient xlink:href="#Dégradé_sans_nom_37" id="Dégradé_sans_nom_37-7" x1="350.28" x2="467.35" y1="363.1" y2="480.17" data-name="Dégradé sans nom 37"/><linearGradient id="Dégradé_sans_nom_75" x1="419.78" x2="419.78" y1="375.64" y2="470.48" data-name="Dégradé sans nom 75" gradientUnits="userSpaceOnUse"><stop offset="0" stop-color="#5b5a72"/><stop offset="1" stop-color="#b0b0bf"/></linearGradient><linearGradient id="Dégradé_sans_nom_70" x1="422.09" x2="422.09" y1="123.95" y2="240.03" data-name="Dégradé sans nom 70" gradientUnits="userSpaceOnUse"><stop offset="0" stop-color="#353544"/><stop offset="1" stop-color="#5b5a72"/></linearGradient><linearGradient xlink:href="#Dégradé_sans_nom_37" id="Dégradé_sans_nom_37-8" x1="309.19" x2="496.67" y1="212.19" y2="399.67" data-name="Dégradé sans nom 37"/><linearGradient xlink:href="#Dégradé_sans_nom_37" id="Dégradé_sans_nom_37-9" x1="381.64" x2="569.11" y1="139.75" y2="327.22" data-name="Dégradé sans nom 37"/><linearGradient id="Dégradé_sans_nom_33" x1="493.26" x2="424.08" y1="425.14" y2="425.14" data-name="Dégradé sans nom 33" gradientUnits="userSpaceOnUse"><stop offset="0" stop-color="#b0b0bf"/><stop offset="1" stop-color="#f4f4f6"/></linearGradient><linearGradient xlink:href="#Dégradé_sans_nom_33" id="Dégradé_sans_nom_33-2" x1="502.46" x2="425.5" y1="428" y2="428" data-name="Dégradé sans nom 33"/><linearGradient id="Dégradé_secondaire1_19" x1="345.55" x2="410.28" y1="425.36" y2="424.52" data-name="Dégradé secondaire1 19" gradientUnits="userSpaceOnUse"><stop offset="0" stop-color="#5b5a72"/><stop offset="1" stop-color="#b0b0bf"/></linearGradient><linearGradient xlink:href="#Dégradé_secondaire1_19" id="Dégradé_secondaire1_19-2" x1="336.08" x2="408.04" y1="428.97" y2="428.05" data-name="Dégradé secondaire1 19"/><radialGradient id="Dégradé_sans_nom_59" cx="209.11" cy="519.68" r="144.01" data-name="Dégradé sans nom 59" fx="209.11" fy="519.68" gradientTransform="matrix(1 .00035 -.00004 .11 .02 460.52)" gradientUnits="userSpaceOnUse"><stop offset=".15" stop-color="#353544" stop-opacity=".5"/><stop offset="1" stop-color="#353544" stop-opacity="0"/></radialGradient><radialGradient xlink:href="#Dégradé_sans_nom_59" id="Dégradé_sans_nom_59-2" cx="420.16" data-name="Dégradé sans nom 59" fx="420.16" gradientTransform="matrix(1 .00035 -.00004 .11 .02 460.45)"/><radialGradient xlink:href="#Dégradé_sans_nom_59" id="Dégradé_sans_nom_59-3" cx="613.48" data-name="Dégradé sans nom 59" fx="613.48" gradientTransform="matrix(1 .00035 -.00004 .11 .02 460.38)"/><radialGradient id="Dégradé_sans_nom_17" cx="419.78" cy="573.39" r="91.57" data-name="Dégradé sans nom 17" fx="419.78" fy="573.39" gradientTransform="matrix(1 .00035 -.00004 .11 .02 508.06)" gradientUnits="userSpaceOnUse"><stop offset=".4" stop-color="#353544" stop-opacity=".5"/><stop offset="1" stop-color="#353544" stop-opacity="0"/></radialGradient><radialGradient xlink:href="#Dégradé_sans_nom_17" id="Dégradé_sans_nom_17-2" cx="389.28" cy="578.44" r="56.62" data-name="Dégradé sans nom 17" fx="389.28" fy="578.44" gradientTransform="matrix(.37 .00039 -.00005 .11 272.52 512.54)"/><radialGradient id="Dégradé_sans_nom_66" cx="426.53" cy="268.3" r="111.48" data-name="Dégradé sans nom 66" fx="426.53" fy="268.3" gradientTransform="matrix(1 0 0 .21 0 212.65)" gradientUnits="userSpaceOnUse"><stop offset="0" stop-color="#353544"/><stop offset="1" stop-color="#5b5a72"/></radialGradient><style>.cls-2{fill:#353544}.cls-5{opacity:.5}.cls-5,.cls-6{fill:#fff}.cls-14{fill:#5b5a72}</style></defs><path d="M222.14 301.89v-52.67H115.02V205.3L228.57 39.09h42.13v166.03h32.49v44.1H270.7v52.67h-48.56Zm0-96.77v-89.44l-60.16 89.44h60.16Z" style="fill:url(#Dégradé_sans_nom_37)"/><path d="M544.84 239.92c9.34 5.47 30.78 15.62 52.21 15.62 27.32 0 41.15-14.83 41.15-33.96 0-24.98-22.13-36.3-45.3-36.3h-21.44v-42.55h20.4c17.63-.39 40.11-7.81 40.11-29.28 0-15.22-11.07-26.55-33.2-26.55-18.33 0-37.69 8.98-47.03 15.23l-10.72-42.94c13.49-9.76 40.46-19.13 69.5-19.13 48.06 0 74.69 28.5 74.69 63.24 0 26.94-13.49 48.02-41.15 58.95v.78c26.97 5.47 48.76 28.5 48.76 61.68 0 44.89-34.92 77.68-91.98 77.68-29.05 0-53.6-8.59-66.74-17.96l10.72-44.5Z" style="fill:url(#Dégradé_sans_nom_37-2)"/><path d="M420.16 246.46c24.82 0 44.88-33.66 44.88-75.19s-20.06-75.3-44.88-75.3-44.88 33.66-44.88 75.3 20.13 75.19 44.88 75.19Zm85.94-134.13c6.53 17.73 10.2 37.78 10.2 58.94 0 72.4-43.04 131.15-96.14 131.15s-96.14-58.75-96.14-131.15c0-21.16 3.67-41.21 10.2-58.94 15.84-42.88 48.34-72.3 85.94-72.3s70.1 29.42 85.94 72.3Z" style="fill:url(#Dégradé_sans_nom_37-3)"/><ellipse cx="209.11" cy="519.68" rx="146.3" ry="17.77" style="fill:url(#Dégradé_sans_nom_59)"/><ellipse cx="420.16" cy="519.68" rx="146.3" ry="17.77" style="fill:url(#Dégradé_sans_nom_59-2)"/><ellipse cx="613.48" cy="519.68" rx="146.3" ry="17.77" style="fill:url(#Dégradé_sans_nom_59-3)"/><path d="M418.24 586.93c-3.55 0-7.09-.28-10.25-.82-22.33-.34-42.91-1.66-57.96-3.72-24.78-3.39-24.78-7.32-24.78-8.99s0-5.73 25.9-9.14c15.49-2.04 36.39-3.32 58.98-3.6l.45-25.87c-.46-.59-.84-1.17-1.15-1.77l-48.01-92c-15.22-4.67-19.07-15.1-19.6-23.08-.17-2.66 1.22-5.51 3.6-7.57l-2.3-4.4c-1.34-2.61-1.24-5.65.27-8.13 1.52-2.49 4.24-4.04 7.09-4.04.82 0 1.64.12 2.45.36l6.92 2.1c-8.18-12.06-12.49-27.17-12.54-44-3.72-9.25-5.6-19.01-5.6-29.02v-27.28c-22.37-3.34-41.44-6.43-41.54-19.33-.19-1.8.27-12.66 36.59-19.87-.97-3.66-1.5-7.71-1.5-11.58 0-13.22 6.06-19.14 12.06-19.14s12.06 5.92 12.06 19.14c0 2.71-.27 5.53-.77 8.27.87-.1 1.76-.2 2.65-.29 1.47-7.61 6.26-25.18 21.09-45.56 12.15-16.7 15.09-31.67 17.69-44.88 1.63-8.28 3.17-16.11 6.8-23.15 6.33-12.27 15.39-19.53 27.69-22.19 4.17-.63 7.59-.93 10.55-.93 13.74 0 19.54 6.72 26.65 20.85 2.83 5.62 4.3 5.79 4.45 5.79 1.22 0 2.79-5.26 3.17-10.62.05-.73.62-1.31 1.35-1.39h.15c.67 0 1.26.44 1.44 1.1 3.23 11.56.02 21.41-3.71 26.32-2.44 3.21-5.43 4.98-8.44 4.98-2.16 0-4.25-.93-6.03-2.7-3.8-3.76-7.45-5.75-10.55-5.75-1.72 0-2.94.61-3.63 1.09.73 4.94 4.42 11.64 8.65 19.34 4.63 8.42 9.88 17.96 13.55 28.89 6.12 18.23 7.35 35.93 7.24 48.01.46.04.93.09 1.39.14-.39-2.43-.59-4.91-.59-7.27 0-13.22 6.06-19.14 12.06-19.14s12.06 5.92 12.06 19.14c0 3.41-.43 7.04-1.22 10.39 24.89 4.66 38.6 12.17 38.64 21.22.05 9.58-15.19 18.18-40.76 23.01-1.05.2-2.08.39-3.1.58v22.83c0 10.04-1.89 19.83-5.63 29.1-1.81 15.8-5.16 30.3-9.96 43.16l4.42-1.34c.81-.24 1.64-.37 2.45-.37 2.86 0 5.58 1.55 7.09 4.05 1.5 2.49 1.59 5.52.22 8.12l-1.66 3.18c3.3 1.94 5.5 5.48 5.29 8.78-.54 8.21-4.57 18.92-20.68 23.41-.51.14-1.04.27-1.61.4l-47.64 91.28c-.81 1.56-1.92 2.87-3.3 3.91l-.41 23.7c23.24.2 44.85 1.44 61 3.5 26.89 3.44 26.89 7.53 26.89 9.27 0 1.57 0 5.72-25.86 9.14-15.77 2.08-37.17 3.37-60.25 3.62-3.13.51-6.48.78-9.96.78Zm-24.56-228.52c4.61 4.29 10.76 7.32 17.61 8.71-.35-3.45-.66-6.96-.66-10.13 0-3.07-.66-6.04-1.35-9.19-.57-2.57-1.15-5.23-1.34-7.93-2.63-5.59-4.28-11.74-4.91-18.27-.14-1.4-.25-2.72-.34-4.01-3.65 1.67-6.89 3.85-9.54 6.44l4.38.95c.55.12.99.54 1.13 1.08.89 3.34 1.34 7.16 1.34 11.37 0 9.29-2.23 16.66-6.32 20.99Zm36.06 8.38c6.29-1.51 11.94-4.44 16.21-8.42-4.28-4.3-6.37-11.17-6.37-20.95 0-4.21.45-8.03 1.34-11.37.14-.54.58-.96 1.13-1.08l4.39-.95c-2.78-2.72-6.2-4.99-10.07-6.68.52 8.32-.65 17.46-3.63 28.51a172.915 172.915 0 0 1-.65 2.35c-.17 1.46-.36 2.91-.57 4.35-.07.48-.14.96-.22 1.44l-.11.7-.33 2.09c-.15.92-.31 1.85-.48 2.77 0 0-.49 2.65-.56 3l-.07 4.23Z" class="cls-6"/><path d="M445.08 117.95c12.81 0 18.14 5.77 25.31 20.02 2.44 4.86 4.33 6.61 5.79 6.61 3.81 0 4.67-12.01 4.67-12.01 4.32 15.46-3.15 29.39-10.7 29.39-1.7 0-3.4-.71-4.98-2.26-4.89-4.83-8.78-6.18-11.6-6.18s-4.65 1.41-5.22 1.94c.9 10.52 15.03 27.52 22.37 49.35 6.41 19.09 7.35 37.65 7.14 48.89 1.61.15 3.19.31 4.74.47-.59-2.88-.93-5.97-.93-8.97 0-11.32 4.71-17.64 10.56-17.64s10.56 6.32 10.56 17.64c0 3.92-.58 8-1.57 11.57 56.52 10.11 47.42 32.51-.55 41.57-1.47.28-2.89.54-4.32.81v24.07c0 10.19-2.01 19.91-5.63 28.8 0-.01.02-.02.03-.04-1.61 14.14-4.87 30.45-11 45.82l7.36-2.23c.69-.21 1.36-.3 2.02-.3 4.85 0 8.46 5.26 5.98 9.98l-2.37 4.54c3.26 1.32 6.04 4.7 5.83 8.02-.52 7.82-4.36 17.82-19.59 22.06-.72.2-1.46.37-2.21.52L428.8 532.3c-.86 1.65-2.07 2.91-3.46 3.82l-.44 25.97c49 .32 87.91 5.25 87.91 11.28s-37.25 10.75-84.74 11.26c-2.95.49-6.29.78-9.83.78s-7.09-.3-10.11-.82c-45.88-.7-81.38-5.45-81.38-11.21s37.3-10.75 84.85-11.26l.49-27.88c-.49-.58-.95-1.21-1.33-1.94l-48.31-92.56c-14.85-4.31-18.62-14.18-19.14-21.93-.17-2.69 1.61-5.41 4.01-7.05l-2.88-5.51c-2.43-4.71 1.18-9.98 6.03-9.98.65 0 1.33.1 2.02.3l11.2 3.4c-8.96-11.4-14.89-27.37-14.89-46.99.01.03.03.05.05.08a76.267 76.267 0 0 1-5.65-28.85v-28.57c-22.09-3.3-41.54-6.2-41.54-18.14 0 0-1.76-11.25 36.98-18.61-1.19-3.82-1.89-8.37-1.89-12.74 0-11.32 4.71-17.64 10.56-17.64s10.56 6.32 10.56 17.64c0 3.36-.43 6.83-1.17 10 1.87-.22 3.82-.44 5.82-.64 1.27-7.28 5.76-25.06 21.03-46.06 20.04-27.55 15.41-50.39 24.61-68.22 7.22-14.01 17.06-19.33 26.68-21.42 3.89-.59 7.26-.9 10.23-.9m-13.8 227.6c0 .02-.01.05-.02.07-.21.78-.43 1.56-.65 2.34-.17 1.49-.37 2.96-.58 4.44-.09.67-.2 1.34-.3 2.01-.11.73-.22 1.46-.35 2.19-.15.92-.31 1.83-.48 2.75-.08.41-.15.83-.23 1.24-.12.62-.22 1.25-.35 1.87l-.11 6.25c8.05-1.55 15.03-5.26 19.92-10.33-4.36-3.55-7.06-9.78-7.06-20.91 0-4.21.46-7.88 1.29-10.98l6.98-1.51c-3.65-4.27-8.72-7.71-14.67-9.88 1.05 9.99-.66 20.33-3.4 30.46m-18.28 23.42c-.42-4.09-.85-8.25-.86-11.96 0-5.97-2.37-11.66-2.71-17.5-2.68-5.63-4.29-11.71-4.89-18.03-.19-1.97-.36-4.01-.47-6.07-5.58 2.18-10.34 5.49-13.82 9.56l6.96 1.5c.83 3.11 1.29 6.77 1.29 10.98 0 10.38-2.81 17.44-6.98 20.97 5.22 5.37 12.78 9.21 21.47 10.55m32.11-253.99v3-3c-3.03 0-6.53.3-10.68.93-.06 0-.12.02-.19.03-12.77 2.76-22.16 10.28-28.71 22.97-3.73 7.23-5.29 15.15-6.94 23.55-2.57 13.06-5.48 27.86-17.43 44.29-12.67 17.42-18.1 32.83-20.38 41.86.09-1.14.13-2.28.13-3.4 0-5.95-1.23-11.03-3.56-14.68-2.45-3.85-6-5.96-10-5.96-6.75 0-13.56 6.38-13.56 20.64 0 3.46.41 7.06 1.17 10.42-35.14 7.28-36.53 18.28-36.26 21.11.13 10 10.94 13.73 14.5 14.96 7.28 2.51 16.83 4.05 27.03 5.58v25.98c0 10.11 1.88 19.97 5.6 29.32.08 15.45 3.72 29.48 10.61 41.1l-3.04-.92c-.96-.29-1.93-.43-2.89-.43-3.37 0-6.58 1.82-8.37 4.76-1.79 2.93-1.91 6.52-.33 9.59l1.78 3.4c-2.21 2.27-3.42 5.16-3.24 7.98.55 8.36 4.51 19.23 20.05 24.24l47.73 91.45c.27.53.6 1.05.97 1.56l-.42 23.9c-22.09.32-42.48 1.59-57.7 3.59-23.91 3.15-27.2 6.97-27.2 10.63s3.16 7.35 26.08 10.48c15.08 2.06 35.68 3.38 58.03 3.73 3.25.55 6.74.82 10.38.82s6.92-.26 10.09-.78c23.1-.25 44.51-1.54 60.31-3.63 23.88-3.15 27.17-6.97 27.17-10.62s-3.42-7.59-28.2-10.76c-15.85-2.03-36.94-3.26-59.66-3.5l.37-21.48c1.3-1.1 2.35-2.42 3.15-3.96l47.32-90.66c.35-.08.68-.17 1.01-.26 16.95-4.72 21.2-16.07 21.77-24.75.24-3.83-1.97-7.24-4.83-9.38l1.04-2c1.61-3.06 1.51-6.65-.27-9.59-1.78-2.95-4.99-4.78-8.37-4.78-.96 0-1.93.14-2.88.43l-1.57.47c4.28-12.2 7.3-25.78 9-40.48 3.76-9.4 5.66-19.31 5.66-29.47v-21.58c.62-.12 1.25-.23 1.88-.35 12.46-2.36 22.87-5.72 30.1-9.73 9.85-5.46 11.9-11.04 11.88-14.77-.03-6.88-6.81-16.26-38.35-22.4.6-3.02.93-6.2.93-9.2 0-5.95-1.23-11.03-3.56-14.68-2.45-3.85-6-5.96-10-5.96-4.87 0-9.77 3.32-12.12 10.52-.94-9.49-2.87-20.27-6.55-31.23-3.71-11.05-9-20.66-13.66-29.14-3.88-7.05-7.29-13.25-8.3-17.83.5-.21 1.16-.38 1.96-.38 2.7 0 5.98 1.84 9.49 5.31 2.07 2.05 4.52 3.13 7.09 3.13 3.48 0 6.9-1.98 9.63-5.57 5.18-6.83 6.74-17.68 3.96-27.63a3.003 3.003 0 0 0-2.89-2.19c-.1 0-.2 0-.3.02a3.003 3.003 0 0 0-2.69 2.77c-.25 3.5-1.09 7.27-1.9 8.82-.56-.58-1.53-1.84-2.89-4.55-7.39-14.69-13.46-21.67-27.99-21.67Zm-10.9 231.28c2.73-10.11 3.96-18.66 3.78-26.46 1.9.99 3.66 2.13 5.26 3.41l-1.49.32c-1.1.24-1.98 1.07-2.27 2.16-.92 3.46-1.39 7.42-1.39 11.75 0 9.37 1.88 16.23 5.74 20.84-3.47 2.92-7.78 5.18-12.54 6.57l.04-2.11c.06-.31.12-.63.18-.95l.13-.69c.08-.41.16-.83.23-1.25.17-.93.33-1.86.49-2.79.12-.71.23-1.44.34-2.16v-.06l.09-.54c.08-.5.16-1 .23-1.51.22-1.53.4-2.93.56-4.27.2-.71.4-1.43.59-2.14l.02-.08s0-.03.01-.05Zm-37.82-23.04c1.53-1.22 3.2-2.32 5.01-3.28.05.6.11 1.21.17 1.83.64 6.6 2.29 12.83 4.93 18.51.21 2.71.79 5.33 1.35 7.86.68 3.07 1.31 5.96 1.31 8.87 0 2.61.21 5.4.47 8.21-5.27-1.35-10.02-3.73-13.82-6.92 3.71-4.7 5.72-11.95 5.72-20.84 0-4.34-.47-8.29-1.39-11.75a2.993 2.993 0 0 0-2.27-2.16l-1.48-.32Zm34.91 25.32Z" class="cls-6"/><path d="M427.15 399.4c38.84-3.71 69.21-36.41 69.21-76.17 0-12.35-2.92-24.04-8.12-34.39-12.62-25.02-38.5-42.19-68.45-42.19s-55.83 17.17-68.45 42.19c-5.2 10.34-8.12 22.04-8.12 34.39 0 34.74 23.19 64.09 54.95 73.42 0 0 13.51 4.28 28.99 2.75Zm-43.11-58.41c0-15.77 16.03-28.52 35.74-28.52s35.74 12.75 35.74 28.52-15.98 28.47-35.74 28.47-35.74-12.75-35.74-28.47Z" style="fill:url(#Dégradé_sans_nom_37-4)"/><path d="M337.28 268.56c.95 6.24 3.13 11.9 5.93 14.18v40.5c0-12.35 2.92-24.04 8.12-34.39v-6.06c3.08-2.47 5.42-8.91 6.24-15.75l-20.3 1.52Z" style="fill:url(#Dégradé_sans_nom_37-5)"/><path d="M482.7 271.24c1.12 5.16 3.1 9.59 5.53 11.55v6.06c5.2 10.34 8.12 22.04 8.12 34.39v-40.5c2.66-2.17 4.76-7.37 5.78-13.23l-19.44 1.73Z" style="fill:url(#Dégradé_sans_nom_37-6)"/><ellipse cx="419.78" cy="573.39" rx="93.03" ry="11.3" style="fill:url(#Dégradé_sans_nom_17)"/><path d="M487.12 395.59c5.78-1.73 10.81 4.32 8 9.67l-66.31 127.05c-3.78 7.3-14.27 7.3-18.05 0l-66.31-127.05c-2.76-5.35 2.27-11.4 8.05-9.67l59.82 18.16 4.32 52.26c.32 3.84 5.94 3.84 6.27 0l4.32-52.26 59.88-18.16Z" style="fill:url(#Dégradé_sans_nom_37-7)"/><path d="M454.91 371.87s25.57-4.87 35.85-19.86c-3.39 29.74-14.06 69.12-43.37 89.06-39.16 26.64-8.57 54.68-8.57 54.68-26.06 0-43.96-22.77-41.71-40.13 1.67-12.84-.52-31.3-20.57-44.64-15.69-10.44-27.73-31.02-27.73-58.97 9.4 17.31 46.05 19.89 46.05 19.89s2.9 19.39 27.23 19.39 32.82-19.42 32.82-19.42Z" style="fill:url(#Dégradé_sans_nom_75)"/><path d="M464.56 355.42c2.75-3.72 4.36-10.48 4.36-18 0-6.77-1.19-12.14-3.18-16.03l-23.38 5.05c-.83 3.11-1.29 6.77-1.29 10.98 0 11.59 2.92 17.87 7.6 21.34 0 0 7.51-4.35 15.89-3.34Z" class="cls-2"/><ellipse cx="451.67" cy="338.28" class="cls-5" rx="3.24" ry="2.22"/><ellipse cx="456.62" cy="331.45" class="cls-5" rx="4.95" ry="4.34"/><path d="M397.21 326.44c.83 3.11 1.29 6.77 1.29 10.98 0 15.49-6.23 23.61-13.92 23.61-7.69 0-13.92-8.12-13.92-23.61 0-6.77 1.19-12.14 3.18-16.03l23.38 5.05Z" class="cls-2"/><ellipse cx="387.9" cy="338.28" class="cls-5" rx="3.24" ry="2.22"/><ellipse cx="382.95" cy="331.45" class="cls-5" rx="4.95" ry="4.34"/><path d="M440.27 306.69s-2.3 9.94 6.53 7.15c8.04-2.54 19.19-11.43 19.19-11.43s-21.97 10-25.72 4.28ZM399.3 306.69s2.3 9.94-6.53 7.15c-8.04-2.54-19.19-11.43-19.19-11.43s21.97 10 25.72 4.28Z" class="cls-2"/><path d="M443.9 376.02s-6.18 9.54-19.63 7.61" style="fill:none;stroke:#5b5a72;stroke-linecap:round;stroke-linejoin:round;stroke-width:2.96px"/><ellipse cx="418.24" cy="578.44" rx="21.54" ry="6.99" style="fill:url(#Dégradé_sans_nom_17-2)"/><path d="M301.67 276.53s-3.89-24.85 127.05-24.85 134.83 34.79 71.95 46.67c-62.88 11.88-91.18 13.4-122.08 3.46-30.9-9.94-76.92-6.91-76.92-25.28Z" style="fill:url(#Dégradé_sans_nom_66)"/><path d="M454.87 146.05c-17.97 7.14 5.59 28.21 15.86 58.77 10.27 30.56 6.49 59.77 6.49 59.77-63.67 22.14-115.17-6.51-115.17-6.51s1.48-22.04 21.51-49.59c20.04-27.55 15.41-50.39 24.61-68.22 7.22-14.01 17.06-19.34 26.68-21.42 20.66-3.12 26.71 1.57 35.54 19.13 8.83 17.55 10.46-5.4 10.46-5.4 5.29 18.95-7.12 35.59-15.67 27.13-11.04-10.93-17.02-4.04-17.02-4.04s-.91-6.77 6.71-9.61Z" style="fill:url(#Dégradé_sans_nom_70)"/><path d="M343.21 272.31v-6.27c-3.79-3.09-6.44-12.33-6.44-20.86 0-11.32 4.71-17.64 10.56-17.64s10.56 6.32 10.56 17.64c0 8.53-2.71 17.82-6.55 20.91v6.06s-3.28 2.01-8.12.16Z" style="fill:url(#Dégradé_sans_nom_37-8)"/><path d="M488.13 272.33v-6.27c-3.79-3.09-6.44-12.33-6.44-20.86 0-11.32 4.71-17.64 10.56-17.64s10.56 6.32 10.56 17.64c0 8.53-2.71 17.82-6.55 20.91v6.06s-3.28 2.01-8.12.16Z" style="fill:url(#Dégradé_sans_nom_37-9)"/><path d="M421.96 578.44h-7.88c-1.5 0-2.71-1.21-2.71-2.71l4.41-252.41 13.18 1.82-4.28 250.59c0 1.5-1.21 2.71-2.71 2.71Z" class="cls-14"/><path d="M419.46 544.09c.05-5.89.13-11.78.34-17.67.82-23.08 1.47-46.18 2.42-69.26.87-21.08 2.66-42.11 3.9-63.17 0-.97 0-1.94.02-2.91 1.22-13.29.71-25.92 3.23-39.03l-.54 1.74c-.78 3.59-2 7.1-3.13 10.59-2.26 7-1.86 13.97-3.7 21.12.17-2.07.34-4.14.53-6.2.15-1.53-1.41-3.08-1.06-4.58 1.09-3.85 1.58-7.67 2.9-11.46 1.33-3.8 2.63-7.63 3.77-11.49.77-2.62 1.36-5.67 2.62-8.14 2.77-11.91 4.41-24.2 1.75-36.08-1.74-7.79-6.4-14.64-11.57-20.56-1.6-1.84-3.29-3.5-5.39-4.75-3.66-2.19-5.13 1.81-5.96 4.25-1.38 4.07-1.46 8.74-1.57 12.99-.22 8.88 2.71 16.76 6.81 24.49 1.76 3.3 3.55 7.94 6.82 9.98 3.29 2.07 2.91-10.11 2.85-11.58-.19-4.68-1.13-9.37-2.48-13.84-.59-1.94-1.43-3.78-2.45-5.53-1.37-2.35-4.61-3.97-4.2.43.37 3.91 1.84 7.73 3.03 11.44.12.39-.28.33-.39.04-1.53-3.94-3.67-8.51-3.8-12.82-.04-1.5.73-5.21 3.07-3.54 6.84 4.86 8.06 16.94 8.43 24.47.13 2.68.02 16.99-5.69 10.65-4.51-5.01-7.72-12.34-10.15-18.52-2.44-6.21-3.56-13.95-2.86-21.21-1.8 8.19-2.01 17.04-1.38 25.29.8 10.4 3.57 20.04 9.41 28.79.14.21-.05.45-.23.21-1.78-2.3-3.31-4.73-4.62-7.25 1.06 5.05 2.92 9.87 3.19 15.18.36 6.98 1.19 15.13 1.7 22.07.25 3.37.31 6.74.29 10.12.61-3.46 1.3-6.89 1.67-10.17.76-6.85.56-14.28 2.51-20.9-.14 1.52-.26 3.04-.4 4.56-1.06 4.42-.05 9.41-.55 13.93-.46 4.2-.9 8.36-1.69 12.51-.35 1.86-.75 3.72-1.1 5.59-.12 1.6.24 3.21.13 4.81-1.1 15.95-2.09 31.93-2.15 47.92-.06 12.87-.58 25.83-.46 38.73-.05 2.46-.06 4.92-.18 7.4-.23 5.03-.9 9.93-.85 14.99.1 11.84.25 23.68-.27 35.51-.02.5.27.95.74 1.13 1.29.51 4.08 1.25 7.52.05.47-.16.79-.6.8-1.09.28-23.56 1.54-47.16 2.24-70.71.74-24.95 2.5-49.85 3.93-74.77.07-1.28.1-2.56.17-3.83.61-8.38-1.87-16.11-.62-24.42.15-.72.3-1.43.46-2.15 1.47-6.5 2.59-12.92 3.36-19.52 5.47-19.12 7.75-39.16-4.93-56.32-2.23-3.02-12.23-16.93-16.01-8.45-1.13 2.55-1.9 5.36-2.36 8.29-4.06 9.13-3.72 20.31-2.78 30.02.61 6.32 2.21 12.4 4.89 18.03.34 5.83 2.71 11.53 2.71 17.5 0 6.46 1.33 14.28 1.56 20.74.2 5.41.44 10.76.54 16.14" class="cls-14"/><path d="M417.81 393.89c-.1 1.38-.19 2.76-.28 4.13-1.02 15.98-2.02 31.98-2.16 48-.13 15.04.61 30.29-.87 45.29.19 3.87-.47 7.63-.62 11.49-.38 9.94.19 19.96.05 29.92-.05 3.77-.2 7.53-.38 11.28" class="cls-14"/><path d="M416.77 544.05c.43-5.61 1.03-11.22 1.16-16.84.02-.86.03-1.73.04-2.59 0-.5.01-1 .02-1.49.05-6.02-.05-12.04.26-18.05.3-19.04.7-38.07 1.35-57.1.56-16.37 1.66-32.73 1.68-49.11 0-1.64 1.17-3.27 1.14-4.93.91-10.57-.51-21.27 5.56-30.11 0-.01.02-.01.03-.02 1.09-5.27 1.96-10.53 2.58-15.89.23-.8.45-1.6.67-2.41-.68 1.64-1.36 3.28-2.03 4.92-1.5 3.72-2.88 7.49-4.31 11.23-1.23 3.2-2.08 6.71-3.99 9.58-.3.45-.92.06-.89-.39.25-3.03 1.54-5.72 2.21-8.66.84-3.63-1.34-7.3-2.8-10.49-1.36-2.95-2.86-5.84-4.02-8.87-1.05-2.74-1.74-5.58-3.18-8.16-.3-.58.62-.92.93-.37 1.11 2.1 2.72 3.82 4.2 5.66 1.08 1.33 1.88 3.14 3.21 4.3-.56-1.56-1.55-3.05-2.3-4.49-1-1.92-2.01-3.84-2.99-5.77-.93-1.83-1.77-3.71-2.59-5.59-.81-1.84-1.95-3.71-2.16-5.72-.05-.48.62-.8.9-.36 2.12 3.33 3.73 6.96 6.18 10.08 1.09 1.39 2.47 2.49 3.86 3.56.68.52 1.37 1.02 2.11 1.46 1.18.71 1.48-2.27 1.62-2.93 1.16-5.26 1.29-10.63 1.07-15.99-.18-4.47-1.44-8.84-2.31-13.23-1.32-2.96-3.04-5.71-5.39-8.06-2.36-2.35-3.82 2.55-4.16 4.14-.47 2.23-.16 4.59.23 6.81.67 3.84 2.05 7.52 2.68 11.38.1.6-.72.73-.96.25-3.18-6.38-5.49-13.14-5.53-20.33-.02-3.13.54-6.2 1.43-9.19.46-1.52 1.2-5.37 3.11-5.88 2.17-.58 3.84.9 5.31 2.34 2.37 2.33 4.49 5.01 6.36 7.75 2.23 3.28 4 6.83 5.51 10.5-1.49-4.6-3.72-9.08-6.9-13.38-2.23-3.02-12.23-16.93-16.01-8.45-1.13 2.55-1.9 5.36-2.36 8.29-4.06 9.13-3.72 20.31-2.78 30.02.61 6.32 2.21 12.4 4.89 18.03.34 5.83 2.71 11.53 2.71 17.5 0 6.46 1.33 14.28 1.56 20.74.2 5.41.44 10.76.54 16.14m4.5-81.87c-.67-3.05-1.82-6.91-.67-9.95.12-.31.53-.37.77-.19 1.59 1.21 2.55 3.09 3.11 5.07.78 1.78 1.27 3.67 1.48 5.66.34 3.21 1.05 6.5.13 9.68-.11.38-.63.63-.9.22-2.1-3.14-3.12-6.84-3.93-10.49Z" class="cls-2"/><path d="M469.3 442.41c-7.16 0-15.23-1.42-23.78-2.92-4.4-.77-8.96-1.57-13.6-2.22a1.37 1.37 0 0 1-.99-.67 1.35 1.35 0 0 1-.07-1.19c3.31-7.79 1.03-13.26 1.01-13.31-.16-.37-.15-.79.04-1.15.18-.36.52-.62.91-.71l55.49-12.18c.51-.12 1.08-.19 1.66-.19 2.54 0 5.27 1.29 7.29 3.44 1.84 1.96 2.81 4.36 2.67 6.6-.54 8.16-4.55 18.81-20.57 23.28-2.94.82-6.23 1.22-10.05 1.22Z" style="fill:url(#Dégradé_sans_nom_33)"/><path d="M489.97 409.22c4.26 0 8.88 4.35 8.61 8.61-.52 7.82-4.36 17.82-19.59 22.06-2.98.83-6.22 1.17-9.69 1.17-10.68 0-23.49-3.22-37.19-5.12 3.61-8.49 1-14.38 1-14.38l55.49-12.18c.45-.11.91-.16 1.37-.16m0-2.7c-.67 0-1.34.08-1.97.23l-55.46 12.18c-.79.17-1.46.69-1.83 1.42s-.39 1.57-.06 2.31c.07.18 2.04 5.04-1.02 12.23-.33.77-.28 1.66.14 2.39.41.73 1.15 1.23 1.98 1.34 4.62.64 9.16 1.44 13.55 2.21 8.6 1.51 16.73 2.94 24.01 2.94 3.95 0 7.36-.42 10.42-1.27 16.79-4.68 20.99-15.9 21.55-24.48.17-2.62-.94-5.39-3.03-7.62-2.27-2.42-5.36-3.87-8.27-3.87Z" class="cls-6"/><path d="M431.05 437.6c-5.26 0-13.72-4.59-14.22-10.25-.2-2.3.75-5.48 6.46-7.54 3.09-1.11 6.2-1.4 6.33-1.41h.2c1.77 0 3.32.88 4.5 2.55 2.53 3.6 2.82 10.22 1.49 13.91-.37 1.02-1.47 2.74-4.76 2.74Z" style="fill:url(#Dégradé_sans_nom_33-2)"/><path d="M429.81 419.75c5.04 0 6.46 9.82 4.72 14.66-.46 1.29-1.78 1.84-3.49 1.84-4.75 0-12.46-4.29-12.87-9.02-.56-6.43 11.56-7.48 11.56-7.48h.08m0-2.7h-.14c-.06 0-.12 0-.18.01-.14.01-3.42.31-6.67 1.48-6.85 2.47-7.54 6.65-7.34 8.93.57 6.55 9.84 11.48 15.56 11.48 4.27 0 5.64-2.54 6.03-3.63 1.47-4.09 1.15-11.15-1.66-15.14-1.42-2.02-3.41-3.13-5.6-3.13Z" class="cls-6"/><path d="M372.59 442.41c-3.83 0-7.12-.4-10.05-1.22-16.02-4.46-20.03-15.12-20.57-23.27-.14-2.24.83-4.65 2.67-6.61 2.02-2.15 4.75-3.44 7.29-3.44.58 0 1.15.07 1.69.2l55.46 12.18c.4.09.73.35.91.71.18.36.19.79.03 1.16-.02.05-2.3 5.51 1.01 13.3a1.346 1.346 0 0 1-1.06 1.86c-4.64.65-9.2 1.44-13.6 2.22-8.55 1.5-16.62 2.92-23.78 2.92Z" style="fill:url(#Dégradé_secondaire1_19)"/><path d="M351.92 409.22c.46 0 .92.05 1.37.16l55.49 12.18s-2.61 5.89 1 14.38c-13.7 1.9-26.51 5.12-37.19 5.12-3.47 0-6.71-.34-9.69-1.17-15.23-4.24-19.07-14.24-19.59-22.06-.27-4.25 4.35-8.61 8.61-8.61m0-2.7c-2.91 0-6 1.45-8.27 3.87-2.09 2.23-3.2 5-3.03 7.61.57 8.6 4.77 19.81 21.56 24.49 3.06.86 6.46 1.27 10.41 1.27 7.28 0 15.4-1.43 24.01-2.94 4.39-.77 8.93-1.57 13.55-2.21a2.73 2.73 0 0 0 1.98-1.34c.41-.73.46-1.61.14-2.39-3.06-7.19-1.09-12.05-1.01-12.25.33-.74.3-1.58-.07-2.3a2.687 2.687 0 0 0-1.83-1.4l-55.46-12.18c-.64-.15-1.3-.23-1.97-.23Z" class="cls-6"/><path d="M410.84 437.6c-3.29 0-4.39-1.71-4.76-2.74-1.32-3.69-1.04-10.31 1.49-13.91 1.18-1.67 2.73-2.55 4.5-2.55h.11c.22.02 3.33.3 6.42 1.41 5.7 2.06 6.66 5.23 6.46 7.54-.5 5.66-8.96 10.25-14.22 10.25Z" style="fill:url(#Dégradé_secondaire1_19-2)"/><path d="M412.08 419.75h.08s12.12 1.06 11.56 7.48c-.41 4.73-8.13 9.02-12.87 9.02-1.71 0-3.03-.55-3.49-1.84-1.74-4.84-.32-14.66 4.72-14.66m0-2.7c-2.19 0-4.18 1.11-5.6 3.13-2.81 4-3.13 11.05-1.66 15.14.39 1.09 1.76 3.63 6.03 3.63 5.72 0 14.99-4.93 15.56-11.48.2-2.27-.49-6.46-7.34-8.93-3.25-1.17-6.53-1.47-6.67-1.48h-.32Z" class="cls-6"/></svg>