<svg xmlns="http://www.w3.org/2000/svg" xmlns:xlink="http://www.w3.org/1999/xlink" id="Calque_1" viewBox="0 0 841.89 595.28"><defs><linearGradient id="Dégradé_sans_nom_37" x1="86.86" x2="272.69" y1="164.21" y2="350.04" data-name="Dégradé sans nom 37" gradientUnits="userSpaceOnUse"><stop offset=".1" stop-color="#5b5a72"/><stop offset=".5" stop-color="#b0b0bf"/><stop offset=".96" stop-color="#f4f4f6"/></linearGradient><linearGradient id="Dégradé_sans_nom_45" x1="294.69" x2="466.28" y1="170.38" y2="341.97" data-name="Dégradé sans nom 45" gradientUnits="userSpaceOnUse"><stop offset=".1" stop-color="#5b5a72"/><stop offset=".5" stop-color="#b0b0bf"/><stop offset=".96" stop-color="#f4f4f6"/></linearGradient><linearGradient xlink:href="#Dégradé_sans_nom_45" id="Dégradé_sans_nom_45-2" x1="507.86" x2="679.44" y1="170.38" y2="341.97" data-name="Dégradé sans nom 45"/><linearGradient xlink:href="#Dégradé_sans_nom_45" id="Dégradé_sans_nom_45-3" x1="631.53" x2="730.67" y1="338.45" y2="437.58" data-name="Dégradé sans nom 45"/><linearGradient xlink:href="#Dégradé_sans_nom_45" id="Dégradé_sans_nom_45-4" x1="630" x2="725.06" y1="245.52" y2="340.58" data-name="Dégradé sans nom 45"/><linearGradient id="Dégradé_sans_nom_41" x1="646.95" x2="702.53" y1="165.62" y2="221.2" data-name="Dégradé sans nom 41" gradientUnits="userSpaceOnUse"><stop offset="0" stop-color="#b0b0bf"/><stop offset="1" stop-color="#f4f4f6"/></linearGradient><linearGradient xlink:href="#Dégradé_sans_nom_41" id="Dégradé_sans_nom_41-2" x1="618.02" x2="673.6" y1="194.55" y2="250.13" data-name="Dégradé sans nom 41"/><linearGradient xlink:href="#Dégradé_sans_nom_41" id="Dégradé_sans_nom_41-3" x1="634.94" x2="685.74" y1="208.89" y2="259.7" data-name="Dégradé sans nom 41"/><linearGradient xlink:href="#Dégradé_sans_nom_41" id="Dégradé_sans_nom_41-4" x1="624.49" x2="680.07" y1="188.08" y2="243.66" data-name="Dégradé sans nom 41"/><linearGradient xlink:href="#Dégradé_sans_nom_45" id="Dégradé_sans_nom_45-5" x1="672.45" x2="791.06" y1="174" y2="292.61" data-name="Dégradé sans nom 45"/><linearGradient xlink:href="#Dégradé_sans_nom_45" id="Dégradé_sans_nom_45-6" x1="616.57" x2="736.15" y1="244.06" y2="363.65" data-name="Dégradé sans nom 45"/><linearGradient id="Dégradé_sans_nom_43" x1="605.88" x2="636.82" y1="381.21" y2="412.15" data-name="Dégradé sans nom 43" gradientUnits="userSpaceOnUse"><stop offset="0" stop-color="#5b5a72"/><stop offset="1" stop-color="#b0b0bf"/></linearGradient><linearGradient xlink:href="#Dégradé_sans_nom_43" id="Dégradé_sans_nom_43-2" x1="629.23" x2="648.05" y1="388.46" y2="407.28" data-name="Dégradé sans nom 43"/><linearGradient xlink:href="#Dégradé_sans_nom_41" id="Dégradé_sans_nom_41-5" x1="6390.19" x2="6445.25" y1="113.13" y2="113.13" data-name="Dégradé sans nom 41" gradientTransform="rotate(76.51 3394.464 -3375.773)"/><linearGradient xlink:href="#Dégradé_sans_nom_41" id="Dégradé_sans_nom_41-6" x1="759.67" x2="726.74" y1="373.98" y2="406.91" data-name="Dégradé sans nom 41"/><radialGradient id="Dégradé_sans_nom_62" cx="178.22" cy="457.37" r="112.29" data-name="Dégradé sans nom 62" fx="178.22" fy="457.37" gradientTransform="matrix(1 .00035 -.00004 .11 .02 405.31)" gradientUnits="userSpaceOnUse"><stop offset=".21" stop-color="#353544" stop-opacity=".5"/><stop offset="1" stop-color="#353544" stop-opacity="0"/></radialGradient><radialGradient xlink:href="#Dégradé_sans_nom_62" id="Dégradé_sans_nom_62-2" cx="383.42" data-name="Dégradé sans nom 62" fx="383.42" gradientTransform="matrix(1 .00035 -.00004 .11 .02 405.24)"/><radialGradient xlink:href="#Dégradé_sans_nom_62" id="Dégradé_sans_nom_62-3" cx="596.59" data-name="Dégradé sans nom 62" fx="596.59" gradientTransform="matrix(1 .00035 -.00004 .11 .02 405.16)"/><radialGradient id="Dégradé_sans_nom_17" cx="679.16" cy="505.3" r="77.54" data-name="Dégradé sans nom 17" fx="679.16" fy="505.3" gradientTransform="matrix(1 .00035 -.00004 .11 .02 447.61)" gradientUnits="userSpaceOnUse"><stop offset=".4" stop-color="#353544" stop-opacity=".5"/><stop offset="1" stop-color="#353544" stop-opacity="0"/></radialGradient><style>.cls-1{fill:#353544}.cls-3{fill:#fff}.cls-10{fill:#5b5a72}</style></defs><path d="M248.5 177.45h-86.81l-4.82 39.38c4.82-.79 8.96-.79 14.47-.79 21.36 0 43.06 5.51 58.91 18.51 16.88 13 27.22 34.26 27.22 64.19 0 47.65-35.83 89.79-96.12 89.79-27.22 0-49.95-7.09-62.35-14.57l9.3-44.9c9.99 5.51 30.32 12.6 50.64 12.6 21.7 0 44.78-11.82 44.78-38.99s-18.26-42.53-63.04-42.53c-12.4 0-21.01.79-30.32 2.36l14.81-134.3H248.5v49.23Z" style="fill:url(#Dégradé_sans_nom_37)"/><path d="M383.42 334.35c24.82 0 44.88-33.66 44.88-75.19s-20.06-75.3-44.88-75.3-44.88 33.66-44.88 75.3 20.13 75.19 44.88 75.19Zm85.94-134.13c6.53 17.73 10.2 37.78 10.2 58.94 0 72.4-43.04 131.15-96.14 131.15s-96.14-58.75-96.14-131.15c0-21.16 3.67-41.21 10.2-58.94 15.84-42.88 48.34-72.3 85.94-72.3s70.1 29.42 85.94 72.3Z" style="fill:url(#Dégradé_sans_nom_45)"/><path d="M596.59 334.35c24.82 0 44.88-33.66 44.88-75.19s-20.06-75.3-44.88-75.3-44.88 33.66-44.88 75.3 20.13 75.19 44.88 75.19Zm85.94-134.13c6.53 17.73 10.2 37.78 10.2 58.94 0 72.4-43.04 131.15-96.14 131.15s-96.14-58.75-96.14-131.15c0-21.16 3.67-41.21 10.2-58.94 15.84-42.88 48.34-72.3 85.94-72.3s70.1 29.42 85.94 72.3Z" style="fill:url(#Dégradé_sans_nom_45-2)"/><ellipse cx="178.22" cy="457.37" rx="114.08" ry="13.86" style="fill:url(#Dégradé_sans_nom_62)"/><ellipse cx="383.42" cy="457.37" rx="114.08" ry="13.86" style="fill:url(#Dégradé_sans_nom_62-2)"/><ellipse cx="596.59" cy="457.37" rx="114.08" ry="13.86" style="fill:url(#Dégradé_sans_nom_62-3)"/><path d="M737.89 354.48c4.11 0 7.16 4.45 5.06 8.45l-9.83 18.84-15.32 12.42-.91 2.39c-.29-.09-.6-.18-.93-.27-.25-.07-.5-.13-.77-.2-.17-.04-.34-.08-.52-.12-.22-.05-.45-.1-.69-.14-.17-.03-.34-.06-.52-.09-.27-.04-.54-.08-.82-.11a13.974 13.974 0 0 0-1.75-.11c-4.83 0-6.7 2.67-7.39 4.26-1.23 2.87-.52 6.67 1.95 10.42.48.74 1.05 1.48 1.69 2.19.32.35.65.7 1 1.03.21.2.43.38.65.56.36.3.72.59 1.1.85 1.31.88 2.73 1.45 4.17 1.45.37 0 .74-.04 1.09-.12l-28.36 54.34c-1.6 3.09-4.62 4.63-7.64 4.63s-6.04-1.54-7.64-4.63l-28.36-54.34c.35.08.72.12 1.09.12 1.44 0 2.86-.57 4.17-1.45.38-.26.74-.55 1.1-.85.94-.8 1.81-1.72 2.55-2.67.28-.37.55-.74.79-1.11 2.47-3.76 3.18-7.55 1.95-10.42-.68-1.59-2.55-4.26-7.39-4.26-.43 0-.87.03-1.3.06-.15.01-.3.03-.45.05-.27.03-.55.07-.82.11-.18.03-.35.06-.52.09-.23.04-.46.09-.68.14-.18.04-.35.08-.52.12-.26.06-.52.13-.76.2-.33.09-.65.18-.94.27l-.91-2.39-15.32-12.42-9.83-18.84c-2.06-3.99 1-8.45 5.11-8.45.55 0 1.13.08 1.71.25l50.66 15.38.21 2.49h12.22l.21-2.49 50.71-15.38a6.05 6.05 0 0 1 1.71-.25m-.01-3c-.86 0-1.72.13-2.57.38l-50.72 15.38-1.95.59-.15 1.77h-6.69l-.15-1.77-1.95-.59-50.66-15.38a8.86 8.86 0 0 0-2.58-.38c-3.02 0-5.88 1.63-7.48 4.25-1.6 2.62-1.71 5.83-.3 8.57l9.84 18.85.29.55.48.39L637.99 396l.63 1.64 1.01 2.64 2.7-.85a29.843 29.843 0 0 1 1.51-.42c.14-.03.3-.07.45-.1.19-.04.39-.08.59-.12.15-.03.29-.05.44-.08.23-.04.45-.06.68-.09l.16-.02c.07 0 .13-.02.2-.02.4-.04.73-.05 1.03-.05 2.38 0 3.93.82 4.63 2.44.82 1.89.18 4.73-1.7 7.59a14.673 14.673 0 0 1-2.76 3.14c-.26.22-.56.47-.84.66-.91.61-1.77.94-2.49.94-.15 0-.3-.02-.46-.05l-6.24-1.33 2.95 5.65 28.36 54.34c2 3.85 5.95 6.25 10.3 6.25s8.31-2.4 10.31-6.25l28.36-54.33 2.95-5.65-6.24 1.33c-.16.03-.31.05-.46.05-.72 0-1.58-.33-2.5-.94-.28-.19-.58-.44-.84-.65l-.18-.15c-.12-.1-.23-.19-.35-.3a13.3 13.3 0 0 1-.82-.85c-.51-.57-.99-1.2-1.42-1.85-1.88-2.85-2.51-5.69-1.7-7.58.7-1.62 2.26-2.44 4.63-2.44a13.79 13.79 0 0 1 1.23.07l.17.02c.24.03.47.06.69.09.14.02.29.05.44.08l.6.12c.16.03.31.07.46.1.23.06.45.11.67.17.29.08.57.16.82.24l2.7.86 1.01-2.65.63-1.64 14.69-11.91.48-.39.29-.55 9.83-18.84c1.44-2.73 1.35-5.94-.24-8.57s-4.46-4.27-7.48-4.27ZM679.16 495.72c43.51 0 78.78 4.28 78.78 9.57s-35.27 9.57-78.78 9.57-78.78-4.28-78.78-9.57 35.27-9.57 78.78-9.57m0-3c-21.16 0-41.07 1-56.07 2.82-21.34 2.59-25.71 5.77-25.71 9.75s4.37 7.15 25.71 9.75c15 1.82 34.91 2.82 56.07 2.82s41.07-1 56.07-2.82c21.34-2.59 25.71-5.77 25.71-9.75s-4.37-7.15-25.71-9.75c-15-1.82-34.91-2.82-56.07-2.82ZM697.1 201.87c23.3 8.26 32.21 30.27 34.51 37.3-3.51.71-10.25 1.85-17.17 1.85s-15.26-1.08-19.12-6.25c-3.72-4.99-8.48-15.84 1.55-32.46.03-.05.06-.1.09-.16.05-.1.09-.2.14-.3m-1.59-3.73-1.14 2.51v.02c-.03.05-.05.1-.08.15-10.91 18.1-5.54 30.18-1.36 35.77 4.6 6.16 14.24 7.45 21.52 7.45s14.22-1.2 17.76-1.91l3.31-.67-1.05-3.21c-2.29-6.98-11.66-30.44-36.36-39.2l-2.6-.92ZM661.24 201.87c.04.1.09.2.14.3.03.05.06.11.09.16 10.02 16.62 5.27 27.47 1.55 32.46-3.85 5.16-12.52 6.25-19.12 6.25s-13.65-1.14-17.17-1.85c2.3-7.04 11.21-29.04 34.51-37.3m1.6-3.76-2.61.91c-24.7 8.76-34.08 32.22-36.36 39.2l-1.05 3.21 3.31.67c3.54.72 10.55 1.91 17.76 1.91s16.92-1.29 21.52-7.45c4.17-5.59 9.54-17.67-1.36-35.77-.03-.05-.05-.1-.07-.15l-1.14-2.51Z" class="cls-3"/><path d="M643.82 265.88c9.65 1.3 21.54 1.96 35.35 1.96s25.24-.64 34.8-1.89l-.39-2.97c-8.58 1.13-19.82 1.86-34.41 1.86s-26.3-.77-34.95-1.93c-.82-.11-1.58.47-1.69 1.29-.11.82.47 1.58 1.29 1.69Zm68.9-.03c2.16.64 3.99 1.19 5.18 1.55l.86-2.87c-1.2-.36-3.03-.91-5.19-1.55l-.86 2.88Zm5.55-4.28c-5.63.95-12.31 1.64-19.84 2.06-.11 0-.22.02-.33.04-1.36.23-2.72.43-4.06.59a2.997 2.997 0 0 0-1.15 5.56c6.12 3.58 10.68 9.54 12.52 16.36l2.9-.78c-2.09-7.73-7.16-14.21-13.9-18.16 1.43-.18 2.83-.38 4.19-.61 8.25-.46 14.86-1.21 20.17-2.1l-.5-2.96Zm-9.97 20.83c-4.7.03-12.75 2.38-13.89 17.84a4.172 4.172 0 0 0 3.12 4.38c1.99.54 4.02-.38 4.92-2.23 1.79-3.67 4.21-4.1 5.87-4.1.22 0 .45.01.71.04l.28-2.99c-.32-.03-.65-.05-.98-.05-4.46 0-7.05 2.69-8.56 5.78-.3.61-.91.79-1.44.65-.52-.14-.96-.6-.91-1.27.51-6.93 2.84-15.02 10.92-15.06l-.02-3Zm-2.01 12.75c-.95 14.2-12.87 25.32-27.13 25.32s-26.2-11.14-27.14-25.36l-2.99.2c1.03 15.73 14.14 28.16 30.13 28.16s29.08-12.42 30.13-28.12l-2.99-.2Zm-57.32 3.16c2.79.06 4.93 1.63 6.56 4.83.95 1.86 3.01 2.76 5.01 2.17 1.98-.58 3.22-2.42 3.01-4.47-.64-6.43-3.21-17.36-13.26-18.35l-.29 2.99c7.51.74 9.9 8.9 10.57 15.66.07.68-.35 1.15-.87 1.3-.53.16-1.18-.02-1.49-.65-1.69-3.32-4.51-6.37-9.17-6.46l-.06 3Zm3.92-12.06c1.91-7.1 6.7-13.21 13.16-16.77a3.002 3.002 0 0 0-1.33-5.63c-9.77-.38-18.23-1.18-25.13-2.37l-.51 2.96c6.38 1.1 14.69 1.99 25.52 2.41-7.1 3.91-12.46 10.6-14.61 18.62l2.9.78Zm-12.94-18.93c1.24-.37 3.04-.91 5.13-1.54l-.86-2.88c-2.09.62-3.9 1.17-5.14 1.54l.86 2.87Zm20.42-11.71c6.75.5 13.53.76 20.15.76 5.91 0 16.39-.58 21.11-.88l-.19-2.99c-5.39.35-15.36.88-20.92.88-7.1 0-13.79-.29-19.93-.75-.83-.06-1.55.56-1.61 1.38-.06.83.56 1.55 1.38 1.61Zm38.14-3.76c-.4 1.82.65 3.11 1.15 3.73.06.08.13.15.18.23l2.48-1.69c-.1-.15-.22-.29-.33-.43-.32-.4-.64-.79-.55-1.19l-2.93-.64Zm3.88-.14c-13.53.86-31.32.96-41.38.23-.83-.06-1.54.56-1.6 1.39-.06.83.56 1.54 1.39 1.6 10.6.77 28.63.61 41.79-.23l-.19-2.99Zm-90.94-22.83v64.44c0 37.31 30.37 67.66 67.71 67.66s67.71-30.35 67.71-67.66v-64.44h-3v64.44c0 35.69-28.97 64.66-64.71 64.66s-64.71-28.97-64.71-64.66v-64.44c0-.83-.67-1.5-1.5-1.5s-1.5.67-1.5 1.5Zm134.41 2.25c3.98-3.53 6.46-11.03 6.46-19.59 0-15.55-8.34-17.23-11.92-17.23s-11.92 1.68-11.92 17.23c0 8.58 2.52 16.11 6.56 19.65l1.97-2.26c-3.25-2.84-5.54-9.56-5.54-17.39 0-10.39 4.03-14.23 8.92-14.23s8.92 3.84 8.92 14.23c0 7.83-2.24 14.51-5.45 17.34l1.99 2.25Zm-11.86-2.2v18.64c0 1.18.69 2.25 1.76 2.73 1.14.52 1.8 1.54 2.01 3.13.05.39-.18.9-.64 1.43-.27.31-.79.8-1.75 1.41-.86.55-1.39 1.5-1.39 2.53v5.46h3v-5.46c1.16-.74 1.91-1.42 2.39-1.97 1.34-1.53 1.48-2.91 1.36-3.8-.45-3.39-2.39-4.85-3.75-5.47v-18.64h-3Zm5.68 33.98c-.71-1.41-1.51-2.85-2.43-4.38a2.997 2.997 0 0 0-3.87-1.16c-3.49 1.67-8.47 3.06-14.81 4.15l.51 2.96c7.59-1.3 12.47-2.91 15.6-4.4.82 1.37 1.6 2.76 2.32 4.19l2.68-1.35Zm-19.4-1.19c-.82-.36-2.12-.94-3.7-1.69l-1.29 2.71c1.58.75 2.9 1.35 3.79 1.74l1.2-2.75Zm-4.56 3.99c17.37-2.49 26.51-7.02 25.74-12.77-.62-4.62-3.91-6.27-5.76-6.52-.37-.05-.74-.03-1.1.06-10.42 2.54-21.5 4.32-32.93 5.29l.25 2.99c10.74-.91 22-2.59 33.38-5.37 0 0 2.71.36 3.18 3.94.32 2.42-5.02 6.8-23.2 9.4l.43 2.97Zm-11.87-13.25c-.75-.63-1.35-1.21-1.8-1.75l-2.31 1.92c.59.71 1.33 1.42 2.18 2.13l1.93-2.3Zm-3.88 3.16c12.41-.95 24.35-2.81 35.5-5.53l-.71-2.91c-11.11 2.71-22.84 4.52-35.02 5.45l.23 2.99Zm35.34-5.51c.81 0 1.58-.33 2.14-.9.56-.58.87-1.35.85-2.16a93.16 93.16 0 0 0-.17-3.94c-.08-1.52-.75-2.87-1.88-3.74-1.85-1.42-4.15-1.03-4.59-.94-13.71 2.8-30.32 3.2-35.75-4.08-8.43-11.29-2.62-24.68 1.58-31.66.04-.07.08-.14.11-.21 1.26-2.52.84-4.36.26-5.45-1.17-2.22-3.54-2.64-4.01-2.71l-.4 2.97s1.25.17 1.76 1.14c.3.58.35 1.44-.29 2.71-6.05 10.03-9.88 23.67-1.42 35 7.82 10.48 30.9 6.83 38.77 5.22 0 0 1.3-.27 2.15.38.38.29.67.78.72 1.56.1 1.53.15 2.81.17 3.8v3Zm-41.19-55.74c-4.64-1.06-9.67-1.59-14.95-1.59s-10.3.54-14.95 1.59l.67 2.93c4.3-.98 9.05-1.52 14.28-1.52s9.98.54 14.28 1.52l.67-2.93Zm-29.63-.05c-.46.06-2.84.49-4.01 2.71-.58 1.09-1 2.93.26 5.45.04.07.07.14.11.21 4.21 6.98 10.01 20.37 1.58 31.66-5.43 7.28-22.04 6.88-35.77 4.08-.43-.09-2.73-.48-4.58.95-1.13.87-1.8 2.21-1.88 3.78-.09 1.31-.15 2.63-.17 3.89-.02.8.29 1.58.85 2.16.56.58 1.33.9 2.14.9v-3c.03-.99.08-2.27.18-3.8.04-.78.33-1.26.72-1.56.85-.65 2.15-.38 2.15-.38 7.87 1.61 30.95 5.26 38.77-5.22 8.46-11.34 4.63-24.97-1.42-35-.64-1.28-.59-2.13-.29-2.71.51-.97 1.76-1.14 1.76-1.14l-.4-2.97Zm-41.63 55.76c.14.04 14.03 3.57 34.89 5.32l.25-2.99c-20.57-1.72-34.21-5.19-34.39-5.23l-.75 2.9Zm32.78.48c-.42.53-.98 1.1-1.68 1.71l1.96 2.27c.82-.71 1.53-1.42 2.08-2.12l-2.36-1.86Zm.55.99c-19.43-1.75-32.27-5.03-32.4-5.06-.37-.1-.76-.12-1.14-.07-1.85.25-5.15 1.89-5.76 6.52-.76 5.68 8.17 10.18 25.15 12.68l.44-2.97c-17.71-2.61-22.93-6.93-22.61-9.32.48-3.58 3.18-3.94 3.18-3.94.12.03 13.03 3.35 32.88 5.14l.27-2.99Zm-15.03 8.4c-1.54.74-2.84 1.32-3.66 1.68l1.21 2.75c.92-.4 2.23-.99 3.75-1.73l-1.3-2.7Zm-1.93 1.47c-6.09-1.07-10.89-2.44-14.29-4.06a2.985 2.985 0 0 0-3.86 1.16c-.95 1.57-1.75 3.01-2.44 4.39l2.68 1.35c.72-1.43 1.51-2.82 2.33-4.19 3.05 1.46 7.77 3.03 15.06 4.31l.52-2.95Zm-14.91 2.84v-5.47c0-1.02-.52-1.98-1.38-2.53-.95-.61-1.47-1.1-1.73-1.4-.47-.53-.69-1.04-.64-1.43.21-1.58.87-2.61 2-3.12a2.992 2.992 0 0 0 1.75-2.73v-18.64h-3v18.64c-1.36.62-3.28 2.08-3.73 5.46-.12.89.02 2.27 1.36 3.8.48.54 1.22 1.22 2.37 1.95v5.47h3Zm-1.03-33.07c4.05-3.54 6.56-11.06 6.56-19.65 0-15.55-8.34-17.23-11.92-17.23s-11.92 1.68-11.92 17.23c0 8.56 2.47 16.06 6.46 19.59l1.99-2.25c-3.2-2.84-5.45-9.52-5.45-17.34 0-10.39 3.98-14.23 8.92-14.23s8.92 3.84 8.92 14.23c0 7.83-2.29 14.55-5.54 17.39l1.97 2.26Zm90.29 31.78-.86 2.88.86-2.88Zm0 0 .39 2.97-.39-2.97Zm4.69-1.4.5 2.96-.5-2.96Zm.5 2.96-.86 2.87.86-2.87ZM708.3 282.4l.02 3-.02-3Zm.01 3-2.9.78 2.9-.78Zm-2.02 9.75 2.99.2-2.99-.2Zm3 .2-.28 2.99.28-2.99Zm-57.27-.23-2.99.2-.06 3 .06-3 2.99-.2Zm-1.73-12.63-.29 2.99.29-2.99Zm-.29 2.98 2.9.78-2.9-.78Zm-10.4-23.98-.51 2.96.51-2.96Zm-.51 2.95.86 2.87-.86-2.87Zm5.13-1.53.86 2.88-.86-2.88Zm0 0v.02-.02Zm0 .01Zm0 .01Zm0 0c-.05.4-.12.91-.19 1.42l.19-1.42Zm-.19 1.42Zm0 .02Zm-.01 0Zm0 .01Zm0 0Zm0 .01-.2 1.49c.06-.41.13-.95.2-1.49Zm-.2 1.49c-.06.41-.08.62-.08.62s.03-.21.08-.62Zm103.05-37h-3 3Zm-3 0 1.99 2.25-1.99-2.25Zm-6.87.05h-3 3Zm0 0-1.97 2.26 1.97-2.26Zm2.68 33.98-2.68 1.35h-3 3l2.68-1.35Zm-21.1-1.39.51 2.96 1.2-2.75-1.2 2.75-.51-2.96Zm-1.99-1.49-1.29 2.71 1.29-2.71Zm-1.3 2.71.43 2.97-.43-2.97Zm-13.24-12.03-1.82 1.52-1.72-.38 1.72.38-.48.4.48-.4 1.21.27.14 2.13-.41.28.43-.06.04.64-.04-.64.99-.14c-.02-.17-.1-.33-.2-.5l.15-.18.04.68-.04-.68 1.31-1.56-1.31 1.56-.15-2.31.15 2.31-.15.18s-.04-.06-.06-.1l-.43.29-.22-2.63.22 2.63-.31.21-.14-2.13-1.21-.27 1.82-1.52Zm-2.31 1.91.19 2.44-.32.04c.06.43.23.68.23.69l1.32-.9-1.24.17-.19-2.44Zm35.56-5.51c-.18 0-.36.02-.54.06l.54 2.23v-2.3Zm.01 2.29v.7c.06 0 .11 0 .17-.02l-.17-.68Zm-41.46-55.08-.4 2.97.4-2.97Zm.27.05-.67 2.93.67-2.93Zm-29.63-.05.4 2.97-.4-2.97Zm-.27.05.67 2.93-.67-2.93Zm-41.18 52.74v2.3l.57-2.22c-.19-.05-.38-.07-.57-.07Zm-.01 2.29-.18.68c.06.02.12.02.17.02v-.7Zm32.61 1.16 2.36 1.86-2.36-1.86Zm2.35 1.85-.25 2.99.25-2.99Zm-1.8-.86-.27 2.99-1.96-2.27 1.96 2.27.27-2.99Zm-15.03 8.4 1.3 2.7-1.3-2.7Zm1.3 2.7-.44 2.97.44-2.97Zm-3.23-1.23-.52 2.95-1.21-2.75 1.21 2.75.52-2.95Zm-20.59 1.49 2.68 1.35h3-3l-2.68-1.35Zm5.68-33.98h-3 3Zm-3 0 1.97 2.26-1.97-2.26Zm-6.87-.05h-3.62 3.62Zm0 0-1.99 2.25 1.99-2.25ZM612.5 376c.7 0 1.33.2 1.82.65l25.34 20.55c-.14.06-.24.1-.3.12l-.09.04-.09.04c-1.86.95-3.05 2.73-3.35 5.02-.37 2.87.7 6.34 2.32 9.11-10.49-2.14-23.16-3.39-28.54-8.81-6.75-6.78-5.58-15.48-3.34-21.72 1.04-2.87 3.97-5.01 6.22-5.01m.01-2.99c-3.65 0-7.62 3.07-9.04 6.99-3.6 10.01-2.2 18.6 4.04 24.86 5.02 5.05 14.66 6.8 23.98 8.49 2.03.37 4.13.75 6.09 1.15l6.57 1.34-3.37-5.79c-1.45-2.49-2.19-5.25-1.93-7.21.12-.9.52-2.11 1.74-2.74s.22-.09.22-.09l4.73-1.9-3.96-3.21-25.28-20.5c-1.02-.9-2.32-1.37-3.77-1.37Z" class="cls-3"/><path d="M647.41 398.43c2.01 0 3.9.59 4.72 2.5 1.89 4.39-4.16 12.45-7.89 12.45-.54 0-1.02-.17-1.43-.53-3.26-2.93-6.16-10.88-2.3-12.86 0 0 3.63-1.56 6.9-1.56m0-3c-3.79 0-7.66 1.62-8.09 1.81l-.09.04-.09.04c-1.89.97-3.09 2.78-3.4 5.1-.57 4.34 2.16 10.06 5.06 12.66.95.85 2.14 1.3 3.44 1.3 3.43 0 6.74-3.16 8.69-6.13 2.49-3.78 3.2-7.62 1.96-10.51-.69-1.61-2.59-4.32-7.48-4.32ZM710.9 398.43c3.28 0 6.9 1.56 6.9 1.56 3.85 1.97.96 9.93-2.3 12.86-.41.37-.9.53-1.43.53-3.73 0-9.78-8.06-7.89-12.45.82-1.91 2.7-2.5 4.72-2.5m0-3c-4.89 0-6.78 2.7-7.48 4.32-1.25 2.9-.53 6.73 1.96 10.51 1.95 2.96 5.25 6.13 8.69 6.13 1.3 0 2.49-.45 3.44-1.3 2.9-2.61 5.63-8.32 5.06-12.66-.3-2.32-1.51-4.13-3.4-5.1l-.09-.04-.09-.04c-.43-.18-4.3-1.81-8.09-1.81Z" class="cls-3"/><path d="M745.82 376c2.25 0 5.18 2.13 6.22 5.01 2.24 6.24 3.41 14.94-3.34 21.72-5.38 5.42-18.06 6.67-28.54 8.81 1.61-2.77 2.69-6.24 2.32-9.11-.3-2.29-1.49-4.07-3.35-5.02-.06-.03-.11-.06-.17-.08l-.3-.12L744 376.66c.49-.45 1.12-.65 1.82-.65m0-3.01c-1.45 0-2.75.47-3.77 1.37l-25.28 20.5-3.96 3.21 4.73 1.9.24.1c1.2.62 1.6 1.83 1.72 2.73.26 1.96-.48 4.73-1.93 7.21l-3.37 5.79 6.57-1.34c1.96-.4 4.06-.78 6.09-1.15 9.32-1.69 18.96-3.43 23.98-8.49 6.23-6.25 7.63-14.85 4.03-24.85-1.42-3.92-5.39-6.99-9.04-6.99Z" class="cls-3"/><path d="m736.18 354.73-50.71 15.38-3.66 44.25c-.27 3.25-5.03 3.25-5.31 0l-3.66-44.25-50.66-15.38c-4.9-1.46-9.15 3.66-6.82 8.19l9.83 18.84 17.74 14.38c1.34-.34 2.92-.62 4.48-.62 4.83 0 6.7 2.67 7.39 4.26 1.23 2.87.52 6.66-1.95 10.42-1.94 2.94-5.21 6.08-8.61 6.08-.37 0-.74-.04-1.09-.12l28.36 54.34c3.2 6.18 12.08 6.18 15.28 0l28.36-54.34c-.35.07-.72.12-1.09.12-3.39 0-6.67-3.14-8.61-6.08-2.47-3.76-3.18-7.55-1.95-10.42.68-1.59 2.55-4.26 7.39-4.26 1.56 0 3.14.28 4.48.62l17.74-14.38 9.83-18.84c2.38-4.53-1.88-9.66-6.77-8.19Z" style="fill:url(#Dégradé_sans_nom_45-3)"/><path d="M737 264.26c-.72-1.43-1.5-2.82-2.32-4.19-5.34 2.55-15.76 5.42-36.08 6.55-1.36.23-2.76.43-4.19.61 8.95 5.24 14.95 14.94 14.95 26.08 0 16.66-13.5 30.16-30.2 30.16s-30.2-13.5-30.2-30.16c0-11.41 6.33-21.33 15.65-26.46-23.57-.92-35.22-4.04-40.96-6.79-.82 1.37-1.61 2.76-2.33 4.19-4.39 8.74-6.86 18.63-6.86 29.06 0 35.69 28.97 64.66 64.71 64.66s64.71-28.97 64.71-64.66c0-10.43-2.47-20.32-6.86-29.06Z" style="fill:url(#Dégradé_sans_nom_45-4)"/><ellipse cx="679.16" cy="505.3" rx="78.78" ry="9.57" style="fill:url(#Dégradé_sans_nom_17)"/><path d="M696.96 202.16c-.03.05-.06.11-.09.16-10.02 16.62-5.27 27.47-1.55 32.46 3.85 5.16 12.52 6.24 19.12 6.24s13.66-1.15 17.17-1.85c-2.3-7.04-11.21-29.04-34.51-37.3-.04.1-.09.2-.14.3Z" style="fill:url(#Dégradé_sans_nom_41)"/><path d="M643.89 241.02c6.59 0 15.26-1.08 19.12-6.24 3.72-4.99 8.48-15.84-1.55-32.46-.03-.05-.06-.1-.09-.16-.05-.1-.09-.2-.14-.3-23.3 8.26-32.21 30.26-34.51 37.3 3.52.71 10.26 1.85 17.17 1.85Z" style="fill:url(#Dégradé_sans_nom_41-2)"/><path d="M623.03 249.39s54.5 14.09 112.27 0c0 0 2.71.36 3.18 3.94s-11.46 11.51-59.32 11.51-59.8-7.92-59.32-11.51c.48-3.58 3.18-3.94 3.18-3.94Z" style="fill:url(#Dégradé_sans_nom_41-3)"/><path d="M623.61 247.18c.24.06 24.36 6.19 56.92 6.19 19.13 0 37.38-2.08 54.24-6.2.18-.04.36-.06.54-.06-.02-.99-.07-2.27-.17-3.8-.13-2.51-2.86-1.94-2.86-1.94-7.87 1.61-30.95 5.26-38.77-5.22-8.46-11.34-4.63-24.97 1.42-35 1.71-3.42-1.47-3.85-1.47-3.85-4.3-.98-9.05-1.52-14.28-1.52s-9.98.54-14.28 1.52c0 0-3.18.43-1.47 3.85 6.05 10.03 9.88 23.67 1.42 35-7.82 10.48-30.9 6.83-38.77 5.22 0 0-2.73-.57-2.86 1.94-.1 1.53-.15 2.81-.17 3.8.19 0 .38.02.57.07Z" style="fill:url(#Dégradé_sans_nom_41-4)"/><path d="M640.25 301.09c-.59 1.21-2.45.73-2.35-.62.51-6.95 2.85-15.07 10.99-15.07s10.97 8.65 11.68 15.73c.14 1.38-1.73 1.88-2.36.65-1.72-3.37-4.6-6.47-9.39-6.47-4.46 0-7.05 2.69-8.56 5.78ZM699.74 301.09c-.59 1.21-2.45.73-2.35-.62.51-6.95 2.85-15.07 10.99-15.07s10.97 8.65 11.68 15.73c.14 1.38-1.73 1.88-2.36.65-1.72-3.37-4.6-6.47-9.39-6.47-4.46 0-7.05 2.69-8.56 5.78Z" class="cls-1"/><path d="M666.05 330.02h25.86s-1.36 10.78-12.93 10.73c-11.8 0-12.93-10.73-12.93-10.73Z" class="cls-10"/><path d="M740.39 197.31c-4.9 0-8.92 3.84-8.92 14.23 0 7.83 2.29 14.55 5.54 17.39v18.64c1.37.62 3.3 2.07 3.75 5.47.12.89-.02 2.27-1.36 3.8-.48.55-1.23 1.22-2.39 1.97v5.46c4.39 8.74 6.86 18.63 6.86 29.06V228.9c3.2-2.84 5.45-9.52 5.45-17.34 0-10.39-3.98-14.23-8.92-14.23Z" style="fill:url(#Dégradé_sans_nom_45-5)"/><path d="M618.94 256.83c-1.34-1.53-1.48-2.91-1.36-3.8.45-3.37 2.37-4.83 3.73-5.46v-18.64c3.25-2.84 5.54-9.56 5.54-17.39 0-10.39-3.98-14.23-8.92-14.23s-8.92 3.84-8.92 14.23c0 7.83 2.24 14.51 5.45 17.34v64.43c0-10.43 2.47-20.32 6.86-29.06v-5.47c-1.15-.74-1.9-1.41-2.37-1.95Z" style="fill:url(#Dégradé_sans_nom_45-6)"/><path d="M635.84 402.43c.3-2.29 1.49-4.07 3.35-5.02l.09-.04.09-.04c.05-.02.15-.07.3-.12l-25.34-20.55c-2.08-1.9-6.68.59-8.04 4.35-2.24 6.24-3.41 14.94 3.34 21.72 5.38 5.42 18.06 6.67 28.54 8.81-1.61-2.77-2.69-6.24-2.32-9.11Z" style="fill:url(#Dégradé_sans_nom_43)"/><path d="M640.51 399.99s9.46-4.08 11.62.94c2.16 5.02-6.06 14.85-9.32 11.92s-6.16-10.88-2.3-12.86Z" style="fill:url(#Dégradé_sans_nom_43-2)"/><path d="M717.81 399.99s-9.46-4.08-11.62.94c-2.16 5.02 6.06 14.85 9.32 11.92 3.26-2.93 6.16-10.88 2.3-12.86Z" style="fill:url(#Dégradé_sans_nom_41-5)"/><path d="M705.47 410.21c-2.47-3.76-3.18-7.55-1.95-10.42.68-1.59 2.55-4.26 7.39-4.26 1.86 0 3.74.39 5.22.81l6.39-16.69c.99-2.58-1.39-4.76-5.34-4.76h-76.01c-3.95 0-6.33 2.18-5.34 4.76l6.39 16.69c1.48-.42 3.36-.81 5.22-.81 4.83 0 6.7 2.67 7.39 4.26 1.23 2.87.52 6.66-1.95 10.42-.97 1.47-2.28 3-3.76 4.15l2.73 7.12c.38.99 2.57 1.77 4.9 1.77h44.88c2.33 0 4.53-.78 4.9-1.77l2.73-7.12c-1.49-1.15-2.79-2.68-3.76-4.15Z" class="cls-3"/><path d="M700.63 385.45h-42.94c-1.55 0-2.99-.8-3.22-1.8l-2-8.87c-.27-1.19.92-2.18 2.65-2.18h48.07c1.74 0 2.92.99 2.65 2.18l-2 8.87c-.23 1-1.67 1.8-3.22 1.8Z" class="cls-10"/><path d="M722.89 376.46c-1.03-1.5-3.12-2.37-5.72-2.37h-76.01c-2.6 0-4.69.86-5.72 2.37-.7 1.02-.83 2.26-.37 3.48l6.36 16.64c.46-.15.98-.3 1.54-.44l-6.42-16.77c-.28-.73-.22-1.41.19-2 .72-1.05 2.37-1.67 4.4-1.67h76.01c2.04 0 3.68.63 4.4 1.67.41.59.47 1.26.19 2l-6.42 16.77c.56.14 1.08.29 1.54.44l6.36-16.64c.47-1.22.34-2.45-.37-3.48ZM708.58 413.82l-2.82 7.38c-.16.43-1.78 1.26-4.16 1.26h-44.88c-2.38 0-3.99-.83-4.16-1.26l-2.82-7.38c-.42.37-.87.72-1.32 1.02l2.65 6.93c.57 1.5 3.28 2.29 5.65 2.29h44.88c2.37 0 5.08-.79 5.65-2.29l2.65-6.93c-.46-.31-.9-.65-1.32-1.02Z" class="cls-10"/><path d="M752.04 381.01c-1.36-3.76-5.96-6.26-8.04-4.35l-25.34 20.55c.14.06.24.1.3.12.06.03.12.05.17.08 1.86.95 3.05 2.73 3.35 5.02.37 2.87-.7 6.34-2.32 9.11 10.49-2.14 23.16-3.39 28.54-8.81 6.75-6.78 5.58-15.48 3.34-21.72Z" style="fill:url(#Dégradé_sans_nom_41-6)"/><path d="M696.77 260.29s10.71-4.53 23.28 10.63c0 0-8.04-14.96-14.42-15.94-5.95-.92-8.86 5.31-8.86 5.31ZM661.18 260.29s-10.71-4.53-23.28 10.63c0 0 8.04-14.96 14.42-15.94 5.95-.92 8.86 5.31 8.86 5.31Z" class="cls-1"/><path d="M627.21 272.09s-7.92 27.96.73 28.47c8.65.51-.73-28.47-.73-28.47Z" style="fill:#fff;opacity:.5"/></svg>