<svg xmlns="http://www.w3.org/2000/svg" xml:space="preserve" id="Calque_1" x="0" y="0" style="enable-background:new 0 0 841.9 595.3" version="1.1" viewBox="0 0 841.9 595.3"><style>.st5{fill:#353544}.st6{fill:#fbabab}.st7{opacity:.5;fill:#fff;enable-background:new}.st11{fill:#b0b0bf}</style><linearGradient id="SVGID_1_" x1="513.979" x2="446.339" y1="226.049" y2="293.689" gradientTransform="matrix(1 0 0 -1 0 595.89)" gradientUnits="userSpaceOnUse"><stop offset="0" style="stop-color:#5b5a72"/><stop offset="1" style="stop-color:#b0b0bf"/></linearGradient><path d="M514.8 354.4c0-.8-.1-6.4.6-12.6-3-2.1-6.4-4.3-10.2-6.6-40.7-24.8-78.2-35.5-81.2-29.3-1.8 3.7 17.1 23.5 53.4 44.6 15.5 9 27.6 15.3 36.7 18.9l.7-15z" style="fill:url(#SVGID_1_)"/><linearGradient id="SVGID_00000076591360714333260420000006538330818261706163_" x1="578.396" x2="678.746" y1="269.416" y2="169.066" gradientTransform="matrix(1 0 0 -1 0 595.89)" gradientUnits="userSpaceOnUse"><stop offset="0" style="stop-color:#b0b0bf"/><stop offset="1" style="stop-color:#f4f4f6"/></linearGradient><path d="M573.8 336.2s9.2-13.4 50.3 16.3c41.1 29.7 71.6 65.2 66.7 70.5-3.7 4-39.3-19-76.7-43-38.6-24.7-45.4-36.6-40.3-43.8z" style="fill:url(#SVGID_00000076591360714333260420000006538330818261706163_)"/><linearGradient id="SVGID_00000083810377357781305420000005716073447041227402_" x1="471.938" x2="637.698" y1="229.597" y2="63.837" gradientTransform="matrix(1 0 0 -1 0 595.89)" gradientUnits="userSpaceOnUse"><stop offset=".1" style="stop-color:#5b5a72"/><stop offset=".5" style="stop-color:#b0b0bf"/><stop offset=".96" style="stop-color:#f4f4f6"/></linearGradient><path d="M702.3 490.8c-31.7-21.2-57.2-63.4-57.2-63.4l-20.4-37c-2.6-1.6-5.2-3.4-8-5.1l-4.5-2.9c-36-23-41.7-33.5-42.8-39.5-.6-3.1 0-6 1.8-8.5.3-.4 3.2-4.3 11.1-4.3 3 0 6.4.6 10 1.7l-6.3-11.5c-3.9-7-12-10.7-19.8-8.8-12.9 3.1-21.4 14.1-19.4 27.2l1.5 29.9c.2 3.9-5.5 4.6-6.3.8l-3.9-27.7s-2.3-18.4-12.6-16.2c-8.3 1.8-7.8 29-7.8 29l-4.5 103.9s-4 49.1-23 82.2c-2.6 4.5 2.4 9.6 7 7l31.1-26.3c15.7-9.1 20.5-22.8 21.6-44.9l.7-15.9c-.4-3 1.5-5 3.8-5.5s4.9.4 5.8 3.3l7.7 13.9c11 19.2 21.2 29.4 39.3 30.6l91.7-2.6c5.5.3 7.8-6.5 3.4-9.4z" style="fill:url(#SVGID_00000083810377357781305420000005716073447041227402_)"/><radialGradient id="SVGID_00000084497485063881407580000004379678750791327876_" cx="624.111" cy="-964.965" r="128.75" gradientTransform="matrix(1.28 .00045 .00004 -.11 -236.509 456.822)" gradientUnits="userSpaceOnUse"><stop offset=".4" style="stop-color:#353544;stop-opacity:.5"/><stop offset="1" style="stop-color:#353544;stop-opacity:0"/></radialGradient><ellipse cx="560.9" cy="565.3" rx="167.1" ry="15.9" style="fill:url(#SVGID_00000084497485063881407580000004379678750791327876_)"/><linearGradient id="SVGID_00000113335909239189661120000007859897542625703563_" x1="443.467" x2="635.157" y1="532.317" y2="340.627" gradientTransform="matrix(1 0 0 -1 0 595.89)" gradientUnits="userSpaceOnUse"><stop offset=".1" style="stop-color:#5b5a72"/><stop offset=".5" style="stop-color:#b0b0bf"/><stop offset=".96" style="stop-color:#f4f4f6"/></linearGradient><path d="M627.6 52.9c-2-4.4-8.6-2.6-8 2.2 2.5 20.7 3.8 49.6-3.5 72.6-17.2-18.6-40.9-31.2-68.1-33.9-28.8-2.9-56.1 5.8-77.2 22.4-2.9-23.1 3.4-51.8 9.2-71.7 1.2-4.3-3.4-7.1-5.6-3.4-28.4 46.7-34.1 86.9-33.9 112.6-5.4 11.1-8.9 23.2-10.2 36.1-6 59 37 111.7 96.1 117.6 59 6 111.7-37 117.7-96 1-9.6.6-19-.8-28.1 7.2-26.4 11-71.6-15.7-130.4zm-76.7 149.2c-2.8 27.5-23.5 47.9-46.4 45.6-22.8-2.3-39.1-26.5-36.3-54 2.8-27.6 23.6-48 46.4-45.7 22.9 2.3 39.1 26.5 36.3 54.1z" style="fill:url(#SVGID_00000113335909239189661120000007859897542625703563_)"/><path d="M538.3 138.8s18.7-5.8 37.2 21.7c0 0-10.9-26.4-21.4-29.1-9.8-2.5-15.8 7.4-15.8 7.4zm-49.6-3s-12.1-8-29.3 13c0 0 11.8-21.2 19.6-21.9 7.2-.7 9.7 8.9 9.7 8.9z" class="st5"/><ellipse cx="450.8" cy="233.4" class="st6" rx="4.2" ry="6.6" transform="rotate(-84.232 450.774 233.425)"/><ellipse cx="571.7" cy="245.6" class="st6" rx="5.3" ry="10" transform="rotate(-84.232 571.669 245.658)"/><path d="M537.8 229.2c-4.7-5.8-7.1-15.6-5.7-29.2 2.2-21.7 12.1-32.2 22.8-31.1 5.2.5 9.7 3.7 12.6 9.2 2.1.6 7.7 1.6 12.8-2.7 0 0-.6 10.5-9.4 12.6 0 0 9.7 5.8 19 .2 0 0-5.6 12.2-18.6 12.5-.1 1.1-.1 2.2-.3 3.3-1.4 13.8-5.9 23-11.7 27.6.1 0-8.8-5.5-21.5-2.4z" class="st5"/><ellipse cx="547.8" cy="192.8" class="st7" rx="3.1" ry="4.6" transform="rotate(-84.232 547.809 192.78)"/><ellipse cx="555.7" cy="183.9" class="st7" rx="6.1" ry="7" transform="rotate(-84.232 555.707 183.928)"/><path d="M476.2 220.6c4.6-4.4 8.2-12.8 9.4-25.2 2-19.9-3.9-31-12.4-31.9-4.1-.4-8.1 1.6-11.4 6.1-1.7.2-6.3.1-9.4-4.6 0 0-1.3 9.6 5.1 13 0 0-8.5 3.6-14.8-3.1 0 0 2.2 11.9 12.3 14.4-.1 1-.3 2-.4 3-1.3 12.6.6 21.7 4.4 26.9.1-.1 7.9-3.6 17.2 1.4z" class="st5"/><ellipse cx="467.4" cy="185.4" class="st7" rx="2.9" ry="3.6" transform="rotate(-84.232 467.365 185.42)"/><ellipse cx="473.7" cy="177.2" class="st7" rx="5.6" ry="5.5" transform="rotate(-84.232 473.728 177.198)"/><path d="m518.8 260.6-28.5-4.3s-2.7 21.5 8 23.2c15 2.2 20.5-18.9 20.5-18.9z" style="fill:#5b5a72"/><g style="opacity:.4"><linearGradient id="SVGID_00000181052329044576882030000012231737989119870872_" x1="207.918" x2="431.788" y1="442.748" y2="218.888" gradientTransform="matrix(1 0 0 -1 0 595.89)" gradientUnits="userSpaceOnUse"><stop offset="0" style="stop-color:#b0b0bf"/><stop offset="1" style="stop-color:#f4f4f6"/></linearGradient><path d="m402.9 358.5-213.3-28.8c-12.1-1.6-21.5-18-21.5-36.5v-54.8c0-18.6 9.4-34.9 21.5-36.5L402.9 173c27.3-3.7 51.1 17.7 51.1 48v89.6c0 30.2-23.8 51.6-51.1 47.9z" style="fill:url(#SVGID_00000181052329044576882030000012231737989119870872_)"/></g><path d="M409 172.6c24.6 0 45 20.4 45 48.4v89.6c0 28-20.3 48.4-45 48.4-2 0-4-.1-6.1-.4l-213.3-28.9c-12.1-1.6-21.5-18-21.5-36.5v-54.8c0-18.6 9.4-34.9 21.5-36.5L402.9 173c2.1-.3 4.1-.4 6.1-.4m0-2.7c-2.1 0-4.3.1-6.5.4l-213.3 28.9c-13.4 1.8-23.8 19-23.8 39.1v54.8c0 20.1 10.5 37.3 23.8 39.1l213.3 28.9c2.1.3 4.3.4 6.5.4 12.8 0 24.8-5.1 33.6-14.5 9-9.5 14-22.5 14-36.5V221c0-14.1-5-27-14-36.5-8.8-9.4-20.7-14.6-33.6-14.6z" class="st11"/><linearGradient id="SVGID_00000041257608263663919220000004358994750796781995_" x1="-3000.972" x2="-2993.432" y1="5198.087" y2="5190.547" gradientTransform="scale(-1 1) rotate(-43.922 -7748.391 -838.44)" gradientUnits="userSpaceOnUse"><stop offset=".1" style="stop-color:#5b5a72"/><stop offset=".5" style="stop-color:#b0b0bf"/><stop offset=".96" style="stop-color:#f4f4f6"/></linearGradient><path d="m156.6 214.4-29.9-7.1" style="fill:none;stroke:url(#SVGID_00000041257608263663919220000004358994750796781995_);stroke-width:3;stroke-linecap:round;stroke-linejoin:round"/><linearGradient id="SVGID_00000119799078561955976770000017173613565178848943_" x1="-3108.952" x2="-3087.326" y1="4965.117" y2="4943.491" gradientTransform="scale(-1 1) rotate(-47.322 -7076.075 -790.366)" gradientUnits="userSpaceOnUse"><stop offset=".1" style="stop-color:#5b5a72"/><stop offset=".5" style="stop-color:#b0b0bf"/><stop offset=".96" style="stop-color:#f4f4f6"/></linearGradient><path d="M167.4 193.4 145.5 165" style="fill:none;stroke:url(#SVGID_00000119799078561955976770000017173613565178848943_);stroke-width:3;stroke-linecap:round;stroke-linejoin:round"/><linearGradient id="SVGID_00000053508812929133726730000012400727555822373031_" x1="-3196.341" x2="-3176.011" y1="1430.105" y2="1409.775" gradientTransform="scale(1 -1) rotate(80.358 -556.449 2623.217)" gradientUnits="userSpaceOnUse"><stop offset=".1" style="stop-color:#5b5a72"/><stop offset=".5" style="stop-color:#b0b0bf"/><stop offset=".96" style="stop-color:#f4f4f6"/></linearGradient><path d="m186.5 188.9 6.1-35.9" style="fill:none;stroke:url(#SVGID_00000053508812929133726730000012400727555822373031_);stroke-width:3;stroke-linecap:round;stroke-linejoin:round"/><linearGradient id="SVGID_00000068640577630238603660000005683139939121091228_" x1="-3078.036" x2="-3068.652" y1="4921.795" y2="4912.411" gradientTransform="rotate(81.541 1281.686 4667.477)" gradientUnits="userSpaceOnUse"><stop offset=".1" style="stop-color:#5b5a72"/><stop offset=".5" style="stop-color:#b0b0bf"/><stop offset=".96" style="stop-color:#f4f4f6"/></linearGradient><path d="m401.7 377.6-15.5 38.2" style="fill:none;stroke:url(#SVGID_00000068640577630238603660000005683139939121091228_);stroke-width:3;stroke-linecap:round;stroke-linejoin:round"/><linearGradient id="SVGID_00000128454653322187267430000006786922450312898968_" x1="-3165.472" x2="-3140.561" y1="4679.791" y2="4654.89" gradientTransform="rotate(78.147 1265.394 4746.386)" gradientUnits="userSpaceOnUse"><stop offset=".1" style="stop-color:#5b5a72"/><stop offset=".5" style="stop-color:#b0b0bf"/><stop offset=".96" style="stop-color:#f4f4f6"/></linearGradient><path d="m430.8 383.3 9.3 44.7" style="fill:none;stroke:url(#SVGID_00000128454653322187267430000006786922450312898968_);stroke-width:3;stroke-linecap:round;stroke-linejoin:round"/><linearGradient id="SVGID_00000098200268387918727080000012025820961004705443_" x1="-2994.515" x2="-2969.818" y1="1203.767" y2="1179.069" gradientTransform="rotate(25.829 516.815 8323.71)" gradientUnits="userSpaceOnUse"><stop offset=".1" style="stop-color:#5b5a72"/><stop offset=".5" style="stop-color:#b0b0bf"/><stop offset=".96" style="stop-color:#f4f4f6"/></linearGradient><path d="m452.9 364.9 44 29.2" style="fill:none;stroke:url(#SVGID_00000098200268387918727080000012025820961004705443_);stroke-width:3;stroke-linecap:round;stroke-linejoin:round"/><path d="m272.4 245.6-86.3 1.8c-2.7.1-4.9-2.3-4.9-5.3v-8c0-3 2.2-5.5 4.9-5.6l86.3-3.8c3.3-.1 6.1 2.4 6.1 5.7v8.9c0 3.5-2.8 6.3-6.1 6.3zM425.6 268.5l-241.2-.9c-1.7 0-3-1.5-3-3.4 0-1.8 1.4-3.4 3-3.4l241.2-1.1c2.9 0 5.2 1.9 5.2 4.4 0 2.4-2.3 4.4-5.2 4.4zM425.6 289.7l-241.2-5.8c-1.7 0-3-1.6-3-3.4 0-1.8 1.4-3.3 3-3.3l241.2 3.8c2.9 0 5.2 2 5.2 4.5 0 2.4-2.3 4.3-5.2 4.2zM425.6 311l-241.2-10.7c-1.7-.1-3-1.6-3-3.5 0-1.8 1.4-3.3 3-3.2l241.2 8.7c2.9.1 5.2 2.2 5.2 4.6 0 2.3-2.3 4.2-5.2 4.1z" class="st11"/></svg>