<svg xmlns="http://www.w3.org/2000/svg" id="décors" viewBox="0 0 269.29 269.29"><defs><style>.cls-2{fill:none;stroke:#353544;stroke-linecap:round;stroke-linejoin:round;stroke-width:4.29px}.cls-4,.cls-5{stroke-width:0}.cls-4{fill:#353544}.cls-5{fill:#fff}</style></defs><path d="M180.62 65.6c-3.68 0-6.71 2.89-6.71 10.7 0 5.88 1.72 10.94 4.16 13.07v26.56c-8.02-15.89-24.46-26.8-43.48-26.8s-35.47 10.91-43.48 26.8V89.37c2.44-2.13 4.16-7.19 4.16-13.07 0-7.81-2.99-10.7-6.71-10.7s-6.71 2.89-6.71 10.7c0 5.88 1.69 10.91 4.09 13.04v48.44c0 26.83 21.78 48.61 48.64 48.61s48.64-21.78 48.64-48.61V89.34c2.41-2.13 4.09-7.16 4.09-13.04 0-7.81-2.99-10.7-6.71-10.7Z" class="cls-4"/><path d="M157.43 133.89c2.98 1.72 2.98 6.02 0 7.74l-16.72 9.65-16.72 9.65c-2.98 1.72-6.7-.43-6.7-3.87v-38.6c0-3.44 3.72-5.59 6.7-3.87l16.72 9.65 16.72 9.65Z" class="cls-5"/><rect width="241.13" height="172.23" x="14.08" y="48.53" rx="8.69" ry="8.69" style="fill:none;stroke:#353544;stroke-miterlimit:10;stroke-width:5px"/><path d="M189.95 207.21H31.61c-2.34 0-4.24-1.9-4.24-4.24 0-2.34 1.9-4.24 4.24-4.24h158.35v8.47Z" class="cls-4"/><path d="M194.71 207.21h42.97c2.34 0 4.24-1.9 4.24-4.24 0-2.34-1.9-4.24-4.24-4.24h-42.97v8.47Z" style="stroke-width:0;fill:#5b5a72"/><path d="M189.95 214.32c-6.26 0-11.35-5.09-11.35-11.35s5.09-11.35 11.35-11.35 11.35 5.09 11.35 11.35-5.09 11.35-11.35 11.35Z" class="cls-4"/><path d="M189.95 194.13c4.89 0 8.85 3.96 8.85 8.85s-3.96 8.85-8.85 8.85-8.85-3.96-8.85-8.85 3.96-8.85 8.85-8.85m0-5c-7.64 0-13.85 6.21-13.85 13.85s6.21 13.85 13.85 13.85 13.85-6.21 13.85-13.85-6.21-13.85-13.85-13.85Z" class="cls-5"/><path d="m200.13 107.53 17.97-14.79M200.13 157.06l17.97 14.78M206.93 132.29h22.45M69.16 107.53 51.19 92.74M69.16 157.06l-17.97 14.78M62.36 132.29H39.91" class="cls-2"/></svg>