<?xml version="1.0" encoding="UTF-8"?>
<?xml-stylesheet href="https://cdnjs.cloudflare.com/ajax/libs/font-awesome/6.6.0/css/all.min.css" type="text/css"?>
<svg aria-roledescription="gitGraph" role="graphics-document document" viewBox="-272.566650390625 -35.20000076293945 1480.566650390625 935.5285034179688" style="max-width: 100%;" xmlns="http://www.w3.org/2000/svg" width="100%" id="graph-div" height="100%" xmlns:xlink="http://www.w3.org/1999/xlink"><style>#graph-div{font-family:"trebuchet ms",verdana,arial,sans-serif;font-size:16px;fill:#333;}#graph-div .error-icon{fill:hsl(220.5882352941, 100%, 98.3333333333%);}#graph-div .error-text{fill:rgb(8.5000000002, 5.7500000001, 0);stroke:rgb(8.5000000002, 5.7500000001, 0);}#graph-div .edge-thickness-normal{stroke-width:1px;}#graph-div .edge-thickness-thick{stroke-width:3.5px;}#graph-div .edge-pattern-solid{stroke-dasharray:0;}#graph-div .edge-thickness-invisible{stroke-width:0;fill:none;}#graph-div .edge-pattern-dashed{stroke-dasharray:3;}#graph-div .edge-pattern-dotted{stroke-dasharray:2;}#graph-div .marker{fill:#0b0b0b;stroke:#0b0b0b;}#graph-div .marker.cross{stroke:#0b0b0b;}#graph-div svg{font-family:"trebuchet ms",verdana,arial,sans-serif;font-size:16px;}#graph-div p{margin:0;}#graph-div .commit-id,#graph-div .commit-msg,#graph-div .branch-label{fill:lightgrey;color:lightgrey;font-family:'trebuchet ms',verdana,arial,sans-serif;font-family:var(--mermaid-font-family);}#graph-div .branch-label0{fill:#333;}#graph-div .commit0{stroke:hsl(40.5882352941, 100%, 68.3333333333%);fill:hsl(40.5882352941, 100%, 68.3333333333%);}#graph-div .commit-highlight0{stroke:rgb(0, 52.2500000001, 161.5000000002);fill:rgb(0, 52.2500000001, 161.5000000002);}#graph-div .label0{fill:hsl(40.5882352941, 100%, 68.3333333333%);}#graph-div .arrow0{stroke:hsl(40.5882352941, 100%, 68.3333333333%);}#graph-div .branch-label1{fill:#333;}#graph-div .commit1{stroke:hsl(-79.4117647059, 100%, 68.3333333333%);fill:hsl(-79.4117647059, 100%, 68.3333333333%);}#graph-div .commit-highlight1{stroke:rgb(52.2500000001, 161.5000000002, 0);fill:rgb(52.2500000001, 161.5000000002, 0);}#graph-div .label1{fill:hsl(-79.4117647059, 100%, 68.3333333333%);}#graph-div .arrow1{stroke:hsl(-79.4117647059, 100%, 68.3333333333%);}#graph-div .branch-label2{fill:#333;}#graph-div .commit2{stroke:hsl(220.5882352941, 100%, 73.3333333333%);fill:hsl(220.5882352941, 100%, 73.3333333333%);}#graph-div .commit-highlight2{stroke:rgb(136.0000000002, 92.0000000001, 0);fill:rgb(136.0000000002, 92.0000000001, 0);}#graph-div .label2{fill:hsl(220.5882352941, 100%, 73.3333333333%);}#graph-div .arrow2{stroke:hsl(220.5882352941, 100%, 73.3333333333%);}#graph-div .branch-label3{fill:#333;}#graph-div .commit3{stroke:hsl(10.5882352941, 100%, 68.3333333333%);fill:hsl(10.5882352941, 100%, 68.3333333333%);}#graph-div .commit-highlight3{stroke:rgb(0, 133.0000000002, 161.5000000002);fill:rgb(0, 133.0000000002, 161.5000000002);}#graph-div .label3{fill:hsl(10.5882352941, 100%, 68.3333333333%);}#graph-div .arrow3{stroke:hsl(10.5882352941, 100%, 68.3333333333%);}#graph-div .branch-label4{fill:#333;}#graph-div .commit4{stroke:hsl(-19.4117647059, 100%, 68.3333333333%);fill:hsl(-19.4117647059, 100%, 68.3333333333%);}#graph-div .commit-highlight4{stroke:rgb(0, 161.5000000002, 109.2500000001);fill:rgb(0, 161.5000000002, 109.2500000001);}#graph-div .label4{fill:hsl(-19.4117647059, 100%, 68.3333333333%);}#graph-div .arrow4{stroke:hsl(-19.4117647059, 100%, 68.3333333333%);}#graph-div .branch-label5{fill:#333;}#graph-div .commit5{stroke:hsl(-49.4117647059, 100%, 68.3333333333%);fill:hsl(-49.4117647059, 100%, 68.3333333333%);}#graph-div .commit-highlight5{stroke:rgb(0, 161.5000000002, 28.5);fill:rgb(0, 161.5000000002, 28.5);}#graph-div .label5{fill:hsl(-49.4117647059, 100%, 68.3333333333%);}#graph-div .arrow5{stroke:hsl(-49.4117647059, 100%, 68.3333333333%);}#graph-div .branch-label6{fill:#333;}#graph-div .commit6{stroke:hsl(100.5882352941, 100%, 68.3333333333%);fill:hsl(100.5882352941, 100%, 68.3333333333%);}#graph-div .commit-highlight6{stroke:rgb(109.2500000001, 0, 161.5000000002);fill:rgb(109.2500000001, 0, 161.5000000002);}#graph-div .label6{fill:hsl(100.5882352941, 100%, 68.3333333333%);}#graph-div .arrow6{stroke:hsl(100.5882352941, 100%, 68.3333333333%);}#graph-div .branch-label7{fill:#333;}#graph-div .commit7{stroke:hsl(160.5882352941, 100%, 68.3333333333%);fill:hsl(160.5882352941, 100%, 68.3333333333%);}#graph-div .commit-highlight7{stroke:rgb(161.5000000002, 0, 52.2500000001);fill:rgb(161.5000000002, 0, 52.2500000001);}#graph-div .label7{fill:hsl(160.5882352941, 100%, 68.3333333333%);}#graph-div .arrow7{stroke:hsl(160.5882352941, 100%, 68.3333333333%);}#graph-div .branch{stroke-width:1;stroke:#0b0b0b;stroke-dasharray:2;}#graph-div .commit-label{font-size:10px;fill:rgb(11.0000000001, 34.0000000002, 0);}#graph-div .commit-label-bkg{font-size:10px;fill:hsl(-79.4117647059, 100%, 93.3333333333%);opacity:0.5;}#graph-div .tag-label{font-size:10px;fill:#333;}#graph-div .tag-label-bkg{fill:#fff4dd;stroke:hsl(40.5882352941, 60%, 83.3333333333%);}#graph-div .tag-hole{fill:#333;}#graph-div .commit-merge{stroke:#fff4dd;fill:#fff4dd;}#graph-div .commit-reverse{stroke:#fff4dd;fill:#fff4dd;stroke-width:3;}#graph-div .commit-highlight-inner{stroke:#fff4dd;fill:#fff4dd;}#graph-div .arrow{stroke-width:8;stroke-linecap:round;fill:none;}#graph-div .gitTitleText{text-anchor:middle;font-size:18px;fill:#333;}#graph-div :root{--mermaid-font-family:"trebuchet ms",verdana,arial,sans-serif;}</style><g></g><g class="commit-bullets"></g><g class="commit-labels"></g><g><line class="branch branch0" y2="0" x2="1200" y1="0" x1="0"></line><rect transform="translate(-19, -9.75)" height="23.5" width="69.5" y="-1.75" x="-85.5" ry="4" rx="4" class="branchLabelBkg label0"></rect><g class="branchLabel"><g transform="translate(-95.5, -10.75)" class="label branch-label0"><text><tspan class="row" x="0" dy="1em" xml:space="preserve">master</tspan></text></g></g><line class="branch branch1" y2="90" x2="1200" y1="90" x1="0"></line><rect transform="translate(-19, 80.25)" height="23.5" width="62.18333435058594" y="-1.75" x="-78.18333435058594" ry="4" rx="4" class="branchLabelBkg label1"></rect><g class="branchLabel"><g transform="translate(-88.18333435058594, 79.25)" class="label branch-label1"><text><tspan class="row" x="0" dy="1em" xml:space="preserve">hotfix</tspan></text></g></g><line class="branch branch2" y2="180" x2="1200" y1="180" x1="0"></line><rect transform="translate(-19, 170.25)" height="23.5" width="176.18333435058594" y="-1.75" x="-192.18333435058594" ry="4" rx="4" class="branchLabelBkg label2"></rect><g class="branchLabel"><g transform="translate(-202.18333435058594, 169.25)" class="label branch-label2"><text><tspan class="row" x="0" dy="1em" xml:space="preserve">hotfix/security_patch</tspan></text></g></g><line class="branch branch3" y2="270" x2="1200" y1="270" x1="0"></line><rect transform="translate(-19, 260.25)" height="23.5" width="140.8000030517578" y="-1.75" x="-156.8000030517578" ry="4" rx="4" class="branchLabelBkg label3"></rect><g class="branchLabel"><g transform="translate(-166.8000030517578, 259.25)" class="label branch-label3"><text><tspan class="row" x="0" dy="1em" xml:space="preserve">hotfix/fixed_bug</tspan></text></g></g><line class="branch branch4" y2="360" x2="1200" y1="360" x1="0"></line><rect transform="translate(-19, 350.25)" height="23.5" width="72.01666641235352" y="-1.75" x="-88.01666641235352" ry="4" rx="4" class="branchLabelBkg label4"></rect><g class="branchLabel"><g transform="translate(-98.01666641235352, 349.25)" class="label branch-label4"><text><tspan class="row" x="0" dy="1em" xml:space="preserve">release</tspan></text></g></g><line class="branch branch5" y2="450" x2="1200" y1="450" x1="0"></line><rect transform="translate(-19, 440.25)" height="23.5" width="45.483333587646484" y="-1.75" x="-61.483333587646484" ry="4" rx="4" class="branchLabelBkg label5"></rect><g class="branchLabel"><g transform="translate(-71.48333358764648, 439.25)" class="label branch-label5"><text><tspan class="row" x="0" dy="1em" xml:space="preserve">dev</tspan></text></g></g><line class="branch branch6" y2="540" x2="1200" y1="540" x1="0"></line><rect transform="translate(-19, 530.25)" height="23.5" width="206.60000610351562" y="-1.75" x="-222.60000610351562" ry="4" rx="4" class="branchLabelBkg label6"></rect><g class="branchLabel"><g transform="translate(-232.60000610351562, 529.25)" class="label branch-label6"><text><tspan class="row" x="0" dy="1em" xml:space="preserve">feature/workflow_builder</tspan></text></g></g><line class="branch branch7" y2="630" x2="1200" y1="630" x1="0"></line><rect transform="translate(-19, 620.25)" height="23.5" width="229.56666564941406" y="-1.75" x="-245.56666564941406" ry="4" rx="4" class="branchLabelBkg label7"></rect><g class="branchLabel"><g transform="translate(-255.56666564941406, 619.25)" class="label branch-label7"><text><tspan class="row" x="0" dy="1em" xml:space="preserve">feature/conditionnal_builder</tspan></text></g></g><line class="branch branch0" y2="720" x2="1200" y1="720" x1="0"></line><rect transform="translate(-19, 710.25)" height="23.5" width="130.28333282470703" y="-1.75" x="-146.28333282470703" ry="4" rx="4" class="branchLabelBkg label0"></rect><g class="branchLabel"><g transform="translate(-156.28333282470703, 709.25)" class="label branch-label0"><text><tspan class="row" x="0" dy="1em" xml:space="preserve">platform/demo</tspan></text></g></g><line class="branch branch1" y2="810" x2="1200" y1="810" x1="0"></line><rect transform="translate(-19, 800.25)" height="23.5" width="181.60000610351562" y="-1.75" x="-197.60000610351562" ry="4" rx="4" class="branchLabelBkg label1"></rect><g class="branchLabel"><g transform="translate(-207.60000610351562, 799.25)" class="label branch-label1"><text><tspan class="row" x="0" dy="1em" xml:space="preserve">feature/other_feature</tspan></text></g></g></g><g class="commit-arrows"><path class="arrow arrow6" d="M 10 0 L 10 520 A 20 20, 0, 0, 0, 30 540 L 60 540"></path><path class="arrow arrow7" d="M 10 0 L 10 610 A 20 20, 0, 0, 0, 30 630 L 110 630"></path><path class="arrow arrow6" d="M 60 540 L 160 540"></path><path class="arrow arrow0" d="M 10 0 L 10 700 A 20 20, 0, 0, 0, 30 720 L 210 720"></path><path class="arrow arrow6" d="M 160 540 L 190 540 A 20 20, 0, 0, 1, 210 560 L 210 720"></path><path class="arrow arrow7" d="M 110 630 L 260 630"></path><path class="arrow arrow7" d="M 260 630 L 310 630"></path><path class="arrow arrow0" d="M 210 720 L 360 720"></path><path class="arrow arrow7" d="M 310 630 L 340 630 A 20 20, 0, 0, 1, 360 650 L 360 720"></path><path class="arrow arrow1" d="M 10 0 L 10 790 A 20 20, 0, 0, 0, 30 810 L 410 810"></path><path class="arrow arrow2" d="M 10 0 L 10 160 A 20 20, 0, 0, 0, 30 180 L 460 180"></path><path class="arrow arrow1" d="M 10 0 L 10 70 A 20 20, 0, 0, 0, 30 90 L 510 90"></path><path class="arrow arrow2" d="M 460 180 L 490 180 A 20 20, 0, 0, 0, 510 160 L 510 90"></path><path class="arrow arrow3" d="M 510 90 L 510 250 A 20 20, 0, 0, 0, 530 270 L 560 270"></path><path class="arrow arrow1" d="M 510 90 L 610 90"></path><path class="arrow arrow3" d="M 560 270 L 590 270 A 20 20, 0, 0, 0, 610 250 L 610 90"></path><path class="arrow arrow0" d="M 10 0 L 660 0"></path><path class="arrow arrow1" d="M 610 90 L 640 90 A 20 20, 0, 0, 0, 660 70 L 660 0"></path><path class="arrow arrow5" d="M 10 0 L 10 430 A 20 20, 0, 0, 0, 30 450 L 710 450"></path><path class="arrow arrow7" d="M 310 630 L 690 630 A 20 20, 0, 0, 0, 710 610 L 710 450"></path><path class="arrow arrow5" d="M 710 450 L 760 450"></path><path class="arrow arrow1" d="M 410 810 L 740 810 A 20 20, 0, 0, 0, 760 790 L 760 450"></path><path class="arrow arrow4" d="M 10 0 L 10 340 A 20 20, 0, 0, 0, 30 360 L 810 360"></path><path class="arrow arrow5" d="M 760 450 L 790 450 A 20 20, 0, 0, 0, 810 430 L 810 360"></path><path class="arrow arrow0" d="M 660 0 L 860 0"></path><path class="arrow arrow4" d="M 810 360 L 840 360 A 20 20, 0, 0, 0, 860 340 L 860 0"></path><path class="arrow arrow6" d="M 160 540 L 910 540"></path><path class="arrow arrow0" d="M 360 720 L 960 720"></path><path class="arrow arrow6" d="M 910 540 L 940 540 A 20 20, 0, 0, 1, 960 560 L 960 720"></path><path class="arrow arrow0" d="M 960 720 L 1010 720"></path><path class="arrow arrow0" d="M 510 90 L 510 395 A 10 10, 0, 0, 0, 520 405 L 1000 405 A 10 10, 0, 0, 1, 1010 415 L 1010 720"></path><path class="arrow arrow5" d="M 760 450 L 1060 450"></path><path class="arrow arrow6" d="M 910 540 L 1040 540 A 20 20, 0, 0, 0, 1060 520 L 1060 450"></path><path class="arrow arrow4" d="M 810 360 L 1110 360"></path><path class="arrow arrow5" d="M 1060 450 L 1090 450 A 20 20, 0, 0, 0, 1110 430 L 1110 360"></path><path class="arrow arrow0" d="M 860 0 L 1160 0"></path><path class="arrow arrow4" d="M 1110 360 L 1140 360 A 20 20, 0, 0, 0, 1160 340 L 1160 0"></path></g><g class="commit-bullets"><circle class="commit Initial commit commit0" r="10" cy="0" cx="10"></circle><circle class="commit Init workflow builder commit6" r="10" cy="540" cx="60"></circle><circle class="commit Init other feature commit7" r="10" cy="630" cx="110"></circle><circle class="commit Add workflow builder commit6" r="10" cy="540" cx="160"></circle><circle class="commit 4-cf35ca8 commit0" r="9" cy="720" cx="210"></circle><circle class="commit commit-merge 4-cf35ca8 commit0" r="6" cy="720" cx="210"></circle><circle class="commit Add conditionnal builder commit7" r="10" cy="630" cx="260"></circle><circle class="commit Fix conditionnal builder commit7" r="10" cy="630" cx="310"></circle><circle class="commit 7-43b1e59 commit0" r="9" cy="720" cx="360"></circle><circle class="commit commit-merge 7-43b1e59 commit0" r="6" cy="720" cx="360"></circle><circle class="commit Add other feature commit1" r="10" cy="810" cx="410"></circle><circle class="commit Fix security issue commit2" r="10" cy="180" cx="460"></circle><circle class="commit Security patch commit1" r="9" cy="90" cx="510"></circle><circle class="commit commit-merge Security patch commit1" r="6" cy="90" cx="510"></circle><circle class="commit Fix bug commit3" r="10" cy="270" cx="560"></circle><circle class="commit 12-c3d287f commit1" r="9" cy="90" cx="610"></circle><circle class="commit commit-merge 12-c3d287f commit1" r="6" cy="90" cx="610"></circle><circle class="commit Release 1.0.1 commit0" r="9" cy="0" cx="660"></circle><circle class="commit commit-merge Release 1.0.1 commit0" r="6" cy="0" cx="660"></circle><circle class="commit 14-4bae14e commit5" r="9" cy="450" cx="710"></circle><circle class="commit commit-merge 14-4bae14e commit5" r="6" cy="450" cx="710"></circle><circle class="commit 15-427a52d commit5" r="9" cy="450" cx="760"></circle><circle class="commit commit-merge 15-427a52d commit5" r="6" cy="450" cx="760"></circle><circle class="commit 16-ce74f77 commit4" r="9" cy="360" cx="810"></circle><circle class="commit commit-merge 16-ce74f77 commit4" r="6" cy="360" cx="810"></circle><circle class="commit Release 1.1.0 commit0" r="9" cy="0" cx="860"></circle><circle class="commit commit-merge Release 1.1.0 commit0" r="6" cy="0" cx="860"></circle><circle class="commit Add new feature commit6" r="10" cy="540" cx="910"></circle><circle class="commit 19-d8d159b commit0" r="9" cy="720" cx="960"></circle><circle class="commit commit-merge 19-d8d159b commit0" r="6" cy="720" cx="960"></circle><circle class="commit 20-63cd4cc commit-cherry-pick" r="10" cy="720" cx="1010"></circle><circle class="commit 20-63cd4cc commit-cherry-pick" fill="#fff" r="2.75" cy="722" cx="1007"></circle><circle class="commit 20-63cd4cc commit-cherry-pick" fill="#fff" r="2.75" cy="722" cx="1013"></circle><line class="commit 20-63cd4cc commit-cherry-pick" stroke="#fff" y2="715" x2="1010" y1="721" x1="1013"></line><line class="commit 20-63cd4cc commit-cherry-pick" stroke="#fff" y2="715" x2="1010" y1="721" x1="1007"></line><circle class="commit 21-0f779e8 commit5" r="9" cy="450" cx="1060"></circle><circle class="commit commit-merge 21-0f779e8 commit5" r="6" cy="450" cx="1060"></circle><circle class="commit 22-bf16638 commit4" r="9" cy="360" cx="1110"></circle><circle class="commit commit-merge 22-bf16638 commit4" r="6" cy="360" cx="1110"></circle><circle class="commit Release 1.2.0 commit0" r="9" cy="0" cx="1160"></circle><circle class="commit commit-merge Release 1.2.0 commit0" r="6" cy="0" cx="1160"></circle></g><g class="commit-labels"><g transform="translate(-35.94933410644531, 32.05466735839843) rotate(-45, 0, 0)"><rect height="16" width="68.86666870117188" y="13.5" x="-24.433334350585938" class="commit-label-bkg"></rect><text class="commit-label" y="25" x="-22.433334350585938">Initial commit</text></g><polygon points="-16.991666793823242,-17.2  
      -16.991666793823242,-21.2
      -8.991666793823242,-27.2
      28.991666793823242,-27.2
      28.991666793823242,-11.2
      -8.991666793823242,-11.2" class="tag-label-bkg"></polygon><circle class="tag-hole" r="1.5" cx="-12.991666793823242" cy="-19.2"></circle><text x="-4.991666793823242" class="tag-label" y="-16">v1.0.0</text><g transform="translate(-47.79900115966797, 42.65700103759766) rotate(-45, 50, 540)"><rect height="16" width="100.05000305175781" y="553.5" x="9.974998474121094" class="commit-label-bkg"></rect><text class="commit-label" y="565" x="11.974998474121094">Init workflow builder</text></g><g transform="translate(-41.852000579833984, 37.336000518798826) rotate(-45, 100, 630)"><rect height="16" width="84.4000015258789" y="643.5" x="67.79999923706055" class="commit-label-bkg"></rect><text class="commit-label" y="655" x="69.79999923706055">Init other feature</text></g><g transform="translate(-48.546334686279295, 43.32566787719727) rotate(-45, 150, 540)"><rect height="16" width="102.01667022705078" y="553.5" x="108.99166488647461" class="commit-label-bkg"></rect><text class="commit-label" y="565" x="110.99166488647461">Add workflow builder</text></g><g transform="translate(-53.992999420166015, 48.19899948120118) rotate(-45, 250, 630)"><rect height="16" width="116.3499984741211" y="643.5" x="201.82500076293945" class="commit-label-bkg"></rect><text class="commit-label" y="655" x="203.82500076293945">Add conditionnal builder</text></g><g transform="translate(-52.504667053222654, 46.86733367919922) rotate(-45, 300, 630)"><rect height="16" width="112.43333435058594" y="643.5" x="253.78333282470703" class="commit-label-bkg"></rect><text class="commit-label" y="655" x="255.78333282470703">Fix conditionnal builder</text></g><g transform="translate(-42.59933410644531, 38.004667358398436) rotate(-45, 400, 810)"><rect height="16" width="86.36666870117188" y="823.5" x="366.81666564941406" class="commit-label-bkg"></rect><text class="commit-label" y="835" x="368.81666564941406">Add other feature</text></g><g transform="translate(-41.15533294677734, 36.71266632080078) rotate(-45, 450, 180)"><rect height="16" width="82.56666564941406" y="193.5" x="418.71666717529297" class="commit-label-bkg"></rect><text class="commit-label" y="205" x="420.71666717529297">Fix security issue</text></g><g transform="translate(-36.58266647338867, 32.6213331604004) rotate(-45, 500, 90)"><rect height="16" width="70.53333282470703" y="103.5" x="474.7333335876465" class="commit-label-bkg"></rect><text class="commit-label" y="115" x="476.7333335876465">Security patch</text></g><g transform="translate(-24.289667053222658, 21.62233367919922) rotate(-45, 550, 270)"><rect height="16" width="38.18333435058594" y="283.5" x="540.908332824707" class="commit-label-bkg"></rect><text class="commit-label" y="295" x="542.908332824707">Fix bug</text></g><g transform="translate(-34.904332656860355, 31.119666061401364) rotate(-45, 650, 0)"><rect height="16" width="66.11666488647461" y="13.5" x="626.9416675567627" class="commit-label-bkg"></rect><text class="commit-label" y="25" x="628.9416675567627">Release 1.0.1</text></g><polygon points="633.0083332061768,-17.2  
      633.0083332061768,-21.2
      641.0083332061768,-27.2
      678.9916667938232,-27.2
      678.9916667938232,-11.2
      641.0083332061768,-11.2" class="tag-label-bkg"></polygon><circle class="tag-hole" r="1.5" cx="637.0083332061768" cy="-19.2"></circle><text x="645.0083332061768" class="tag-label" y="-16">v1.0.1</text><g transform="translate(-34.904332656860355, 31.119666061401364) rotate(-45, 850, 0)"><rect height="16" width="66.11666488647461" y="13.5" x="826.9416675567627" class="commit-label-bkg"></rect><text class="commit-label" y="25" x="828.9416675567627">Release 1.1.0</text></g><polygon points="833.0083332061768,-17.2  
      833.0083332061768,-21.2
      841.0083332061768,-27.2
      878.9916667938232,-27.2
      878.9916667938232,-11.2
      841.0083332061768,-11.2" class="tag-label-bkg"></polygon><circle class="tag-hole" r="1.5" cx="837.0083332061768" cy="-19.2"></circle><text x="845.0083332061768" class="tag-label" y="-16">v1.1.0</text><g transform="translate(-40.40166763305664, 36.03833419799805) rotate(-45, 900, 540)"><rect height="16" width="80.58333587646484" y="553.5" x="869.7083320617676" class="commit-label-bkg"></rect><text class="commit-label" y="565" x="871.7083320617676">Add new feature</text></g><polygon points="880.0416641235352,702.8  
      880.0416641235352,698.8
      888.0416641235352,692.8
      1131.9583358764648,692.8
      1131.9583358764648,708.8
      888.0416641235352,708.8" class="tag-label-bkg"></polygon><circle class="tag-hole" r="1.5" cx="884.0416641235352" cy="700.8"></circle><text x="892.0416641235352" class="tag-label" y="704">cherry-pick:Security patch|parent:Fix security issue</text><g transform="translate(-34.904332656860355, 31.119666061401364) rotate(-45, 1150, 0)"><rect height="16" width="66.11666488647461" y="13.5" x="1126.9416675567627" class="commit-label-bkg"></rect><text class="commit-label" y="25" x="1128.9416675567627">Release 1.2.0</text></g><polygon points="1133.0083332061768,-17.2  
      1133.0083332061768,-21.2
      1141.0083332061768,-27.2
      1178.9916667938232,-27.2
      1178.9916667938232,-11.2
      1141.0083332061768,-11.2" class="tag-label-bkg"></polygon><circle class="tag-hole" r="1.5" cx="1137.0083332061768" cy="-19.2"></circle><text x="1145.0083332061768" class="tag-label" y="-16">v1.2.0</text></g></svg>