<?xml version="1.0" standalone="no"?>
<!DOCTYPE svg PUBLIC "-//W3C//DTD SVG 1.1//EN" "http://www.w3.org/Graphics/SVG/1.1/DTD/svg11.dtd" >
<svg xmlns="http://www.w3.org/2000/svg" xmlns:xlink="http://www.w3.org/1999/xlink" version="1.1">
<metadata>
Created by FontForge 20201107 at Tue Nov 25 13:38:37 2025
 By 
Copyright (c) 2014 by Ryoichi Tsunekawa. All rights reserved.
</metadata>
<defs>
<font id="Graphie-BookItalic" horiz-adv-x="839" >
  <font-face 
    font-family="Graphie Book"
    font-weight="350"
    font-style="italic"
    font-stretch="normal"
    units-per-em="2048"
    panose-1="2 11 5 3 2 2 4 9 2 4"
    ascent="1536"
    descent="-512"
    x-height="956"
    cap-height="1360"
    bbox="-442 -430 2320 1882"
    underline-thickness="90"
    underline-position="-208"
    slope="-11"
    unicode-range="U+0020-FB03"
  />
<missing-glyph horiz-adv-x="1269" 
d="M1198 0h-1048v1360h1048v-1360zM1049 1276h-750l375 -520zM618 680l-376 524v-1048zM729 680l377 -524v1048zM1049 84l-375 520l-375 -520h750z" />
    <glyph glyph-name="ff" unicode="ff" horiz-adv-x="1280" 
d="M1284 1454q118 0 182 -41l-24 -127h-6q-55 45 -140 45q-195 0 -235 -207l-33 -168h322l-23 -118h-321l-164 -838h-137l163 838h-454l-164 -838h-137l163 838h-184l25 118h182l31 158q31 156 122.5 238t235.5 82q118 0 182 -41l-24 -127h-6q-55 45 -140 45
q-195 0 -235 -207l-29 -148h455l35 179q31 156 122.5 237.5t235.5 81.5z" />
    <glyph glyph-name="fi" unicode="fi" horiz-adv-x="1085" 
d="M852 0h-137l164 838h-465l-164 -838h-137l163 838h-184l25 118h182l35 179q31 155 121 237t227 82q108 0 172 -41l-25 -127h-6q-55 45 -129 45q-88 0 -146.5 -52.5t-78.5 -154.5l-33 -168h602zM1036 1354q39 0 62.5 -23.5t23.5 -62.5q0 -44 -30 -73.5t-72 -29.5
q-39 0 -62.5 23.5t-23.5 60.5q0 44 30 74.5t72 30.5z" />
    <glyph glyph-name="ffi" unicode="ffi" horiz-adv-x="1677" 
d="M1444 0h-137l163 838h-464l-164 -838h-137l163 838h-454l-164 -838h-137l163 838h-184l25 118h182l31 158q31 156 122.5 238t235.5 82q118 0 184 -39l-24 -123h-6q-49 39 -142 39q-195 0 -235 -207l-29 -148h455l35 179q31 155 121 237t227 82q108 0 172 -41l-25 -127h-6
q-55 45 -129 45q-88 0 -146.5 -52.5t-78.5 -154.5l-33 -168h602zM1628 1354q39 0 62.5 -23.5t23.5 -62.5q0 -44 -30 -73.5t-72 -29.5q-39 0 -62.5 23.5t-23.5 60.5q0 44 30 74.5t72 30.5z" />
    <glyph glyph-name="f_j" unicode="fj" horiz-adv-x="1085" 
d="M1038 956l-217 -1116q-26 -130 -87.5 -190t-166.5 -60q-65 0 -121 27l25 127h6q31 -31 80 -31q55 0 84.5 33t44.5 109l193 983h-465l-164 -838h-137l163 838h-184l25 118h182l35 179q31 155 121 237t227 82q108 0 172 -41l-25 -127h-6q-55 45 -129 45q-88 0 -146.5 -52.5
t-78.5 -154.5l-33 -168h602zM1036 1354q39 0 62.5 -23.5t23.5 -62.5q0 -44 -30 -73.5t-72 -29.5q-39 0 -62.5 23.5t-23.5 60.5q0 44 30 74.5t72 30.5z" />
    <glyph glyph-name="f_f_j" unicode="ffj" horiz-adv-x="1677" 
d="M1630 956l-217 -1116q-26 -130 -87.5 -190t-166.5 -60q-65 0 -121 27l25 127h6q31 -31 80 -31q55 0 84.5 33t44.5 109l192 983h-464l-164 -838h-137l163 838h-454l-164 -838h-137l163 838h-184l25 118h182l31 158q31 156 122.5 238t235.5 82q118 0 184 -39l-24 -123h-6
q-49 39 -142 39q-195 0 -235 -207l-29 -148h455l35 179q31 155 121 237t227 82q108 0 172 -41l-25 -127h-6q-55 45 -129 45q-88 0 -146.5 -52.5t-78.5 -154.5l-33 -168h602zM1628 1354q39 0 62.5 -23.5t23.5 -62.5q0 -44 -30 -73.5t-72 -29.5q-39 0 -62.5 23.5t-23.5 60.5
q0 44 30 74.5t72 30.5z" />
    <glyph glyph-name=".notdef" horiz-adv-x="1269" 
d="M1198 0h-1048v1360h1048v-1360zM1049 1276h-750l375 -520zM618 680l-376 524v-1048zM729 680l377 -524v1048zM1049 84l-375 520l-375 -520h750z" />
    <glyph glyph-name=".null" horiz-adv-x="0" 
 />
    <glyph glyph-name="nonmarkingreturn" horiz-adv-x="682" 
 />
    <glyph glyph-name="space" unicode=" " horiz-adv-x="450" 
 />
    <glyph glyph-name="exclam" unicode="!" horiz-adv-x="495" 
d="M338 1360h162l-213 -1002h-125zM180 176q38 0 63 -24.5t25 -61.5q0 -46 -32 -78t-76 -32q-38 0 -63 24.5t-25 61.5q0 46 32 78t76 32z" />
    <glyph glyph-name="quotedbl" unicode="&#x22;" horiz-adv-x="788" 
d="M229 766l103 594h129l-127 -594h-105zM567 766l103 594h129l-127 -594h-105z" />
    <glyph glyph-name="numbersign" unicode="#" horiz-adv-x="1331" 
d="M926 498h282l-34 -101h-283l-133 -397h-111l133 397h-344l-133 -397h-108l133 397h-285l33 101h286l130 385h-287l35 100h284l127 377h109l-127 -377h344l127 377h110l-127 -377h285l-35 -100h-282zM600 883l-129 -385h344l129 385h-344z" />
    <glyph glyph-name="dollar" unicode="$" horiz-adv-x="1331" 
d="M915 1462l-32 -162q223 -22 336 -110l-29 -152h-8q-92 112 -324 133l-82 -421q199 -17 289 -86.5t90 -202.5q0 -187 -137.5 -295.5t-376.5 -110.5l-35 -178h-123l35 182q-133 12 -237 47.5t-158 88.5l29 149h8q54 -65 153 -105.5t232 -50.5l84 439q-197 17 -285 83
t-88 191q0 181 138.5 291.5t367.5 112.5l31 157h122zM399 922q0 -71 61 -109.5t195 -50.5l82 414q-153 -4 -245.5 -74t-92.5 -180zM1014 440q0 77 -62.5 119t-201.5 55l-84 -430q160 3 254 72.5t94 183.5z" />
    <glyph glyph-name="percent" unicode="%" horiz-adv-x="1544" 
d="M528 1380q127 0 200 -70.5t73 -193.5q0 -53 -10.5 -107t-37 -109.5t-65.5 -97.5t-101 -68.5t-138 -26.5q-128 0 -199.5 72.5t-71.5 197.5q0 54 11.5 107.5t38 107.5t65.5 95t100 67t135 26zM178 0l1118 1360h148l-1118 -1360h-148zM524 1272q-59 0 -104.5 -27.5
t-70.5 -72t-37.5 -92.5t-12.5 -97q0 -79 42 -123.5t114 -44.5q60 0 105.5 29t70.5 75t37 93.5t12 93.5q0 79 -41.5 122.5t-114.5 43.5zM1174 653q127 0 199.5 -70.5t72.5 -193.5q0 -53 -10.5 -107t-37 -109.5t-65.5 -97.5t-101 -68.5t-138 -26.5q-128 0 -199.5 72.5
t-71.5 197.5q0 54 11.5 107.5t38 107.5t66 95t100.5 67t135 26zM1169 545q-59 0 -104.5 -27.5t-70.5 -72t-37.5 -92.5t-12.5 -97q0 -79 42 -123.5t114 -44.5q60 0 105.5 29t70.5 75t37 93.5t12 93.5q0 79 -41.5 122.5t-114.5 43.5z" />
    <glyph glyph-name="ampersand" unicode="&#x26;" horiz-adv-x="1298" 
d="M1090 735l131 -10q-10 -145 -69.5 -279.5t-156.5 -234.5l164 -211h-178l-90 119q-192 -139 -430 -139q-191 0 -298.5 83t-107.5 232q0 152 87 261t272 187q-115 152 -115 279q0 161 109.5 259.5t289.5 98.5q157 0 248.5 -71t91.5 -193q0 -140 -93.5 -233.5t-328.5 -188.5
l302 -387q71 87 118 202.5t54 225.5zM537 795q210 77 289 144.5t79 164.5q0 69 -54.5 111t-145.5 42q-124 0 -196.5 -65.5t-72.5 -179.5q0 -53 22.5 -101t78.5 -116zM473 102q193 0 344 111l-325 430q-162 -69 -228.5 -143t-66.5 -183q0 -104 71 -159.5t205 -55.5z" />
    <glyph glyph-name="quotesingle" unicode="'" horiz-adv-x="450" 
d="M229 766l103 594h129l-127 -594h-105z" />
    <glyph glyph-name="parenleft" unicode="(" horiz-adv-x="737" 
d="M651 1360h152q-251 -236 -368.5 -499.5t-117.5 -526.5q0 -304 175 -543h-140q-172 251 -172 569q0 259 115 520t356 480z" />
    <glyph glyph-name="parenright" unicode=")" horiz-adv-x="737" 
d="M123 -209h-152q251 236 368.5 499.5t117.5 526.5q0 305 -174 543h139q172 -251 172 -569q0 -259 -115 -520t-356 -480z" />
    <glyph glyph-name="asterisk" unicode="*" horiz-adv-x="927" 
d="M715 680l-146 297l-215 -297l-100 74l260 268l-328 80l54 117l305 -132l16 347h127l-72 -347l334 132l27 -117l-350 -82l194 -266z" />
    <glyph glyph-name="plus" unicode="+" horiz-adv-x="1331" 
d="M741 553l-100 -516h-123l100 516h-514l23 123h516l100 516h123l-100 -516h514l-23 -123h-516z" />
    <glyph glyph-name="comma" unicode="," horiz-adv-x="495" 
d="M-98 -291l233 447h144l-265 -447h-112z" />
    <glyph glyph-name="hyphen" unicode="-" horiz-adv-x="757" 
d="M98 489l27 138h565l-26 -138h-566z" />
    <glyph glyph-name="period" unicode="." horiz-adv-x="495" 
d="M180 176q38 0 63 -24.5t25 -61.5q0 -46 -32 -78t-76 -32q-38 0 -63 24.5t-25 61.5q0 46 32 78t76 32z" />
    <glyph glyph-name="slash" unicode="/" horiz-adv-x="833" 
d="M-57 -164l878 1585h127l-878 -1585h-127z" />
    <glyph glyph-name="zero" unicode="0" horiz-adv-x="1331" 
d="M823 1380q221 0 341 -127t120 -360q0 -99 -17 -200.5t-51 -205.5t-91 -194t-131.5 -160.5t-179.5 -111.5t-228 -41q-221 0 -340 128t-119 363q0 118 23 239t76.5 242.5t131.5 215.5t198.5 153t266.5 59zM811 1251q-113 0 -206.5 -50.5t-154 -131t-102.5 -184t-60 -204.5
t-18 -198q0 -182 84.5 -278t245.5 -96q82 0 153.5 26.5t125.5 72t98 107t73.5 130.5t50 144t29.5 145.5t9 137.5q0 183 -85 281t-243 98z" />
    <glyph glyph-name="one" unicode="1" horiz-adv-x="1331" 
d="M840 0h-142l232 1194l-535 -256l29 152l565 270h115z" />
    <glyph glyph-name="two" unicode="2" horiz-adv-x="1331" 
d="M1075 129l-26 -129h-947l25 137l311 213q215 147 337 239t198 171t100.5 136.5t24.5 129.5q0 114 -72.5 169.5t-226.5 55.5q-118 0 -246 -51.5t-219 -134.5h-8l34 182q91 62 214 97.5t239 35.5q430 0 430 -331q0 -74 -16 -133.5t-60 -130t-124.5 -145.5t-207 -169
t-309.5 -211l-198 -127v-4h747z" />
    <glyph glyph-name="three" unicode="3" horiz-adv-x="1331" 
d="M983 690v-4q186 -83 186 -278q0 -201 -154 -314.5t-419 -113.5q-150 0 -281 43t-192 114l31 154h8q55 -85 175 -133.5t265 -48.5q197 0 309.5 82t112.5 227q0 211 -338 211h-199l25 129h209q397 0 397 274q0 105 -87 162t-245 57q-126 0 -244 -48.5t-202 -129.5h-8
l35 180q180 127 440 127q214 0 335.5 -86t121.5 -239q0 -138 -73.5 -231.5t-207.5 -133.5z" />
    <glyph glyph-name="four" unicode="4" horiz-adv-x="1331" 
d="M975 0h-141l55 283h-826l25 120l995 957h156l-184 -948h202l-24 -129h-203zM276 412h637l146 749z" />
    <glyph glyph-name="five" unicode="5" horiz-adv-x="1331" 
d="M492 1231l-80 -408q132 49 297 49q224 0 346.5 -102t122.5 -285q0 -233 -159 -369t-429 -136q-158 0 -292.5 41t-195.5 110l29 148h8q56 -81 177 -125.5t276 -44.5q204 0 322 97.5t118 266.5q0 133 -95.5 201.5t-283.5 68.5q-193 0 -397 -98h-8l137 715h883l-25 -129
h-751z" />
    <glyph glyph-name="six" unicode="6" horiz-adv-x="1331" 
d="M915 1380q244 0 349 -102l-29 -145h-8q-95 118 -316 118q-228 0 -386.5 -146t-211.5 -413h4q188 185 469 185q195 0 310.5 -104.5t115.5 -274.5q0 -226 -156 -372t-397 -146q-238 0 -372.5 137.5t-134.5 386.5q0 77 12.5 158.5t41.5 168t71 165.5t104.5 149.5t138.5 122
t177.5 82t217.5 30.5zM756 748q-136 0 -254.5 -61t-206.5 -171q-2 -14 -2 -43q0 -169 102.5 -266.5t266.5 -97.5q175 0 290 103.5t115 266.5q0 125 -83 197t-228 72z" />
    <glyph glyph-name="seven" unicode="7" horiz-adv-x="1331" 
d="M340 0h-178l1063 1231h-928l25 129h1093l-26 -137z" />
    <glyph glyph-name="eight" unicode="8" horiz-adv-x="1331" 
d="M1006 698v-4q200 -78 200 -282q0 -202 -162.5 -317t-445.5 -115q-243 0 -379.5 89.5t-136.5 247.5q0 144 87 243.5t249 135.5v4q-168 77 -168 261q0 196 151 307.5t414 111.5q225 0 350 -84.5t125 -236.5q0 -135 -73 -228t-211 -133zM393 969q0 -211 346 -211
q201 0 303.5 70.5t102.5 207.5q0 104 -89 159.5t-255 55.5q-191 0 -299.5 -73.5t-108.5 -208.5zM612 109q212 0 329.5 78.5t117.5 222.5q0 219 -381 219q-220 0 -334.5 -74.5t-114.5 -218.5q0 -109 100 -168t283 -59z" />
    <glyph glyph-name="nine" unicode="9" horiz-adv-x="1331" 
d="M748 1380q238 0 372.5 -137.5t134.5 -386.5q0 -77 -12.5 -158.5t-41.5 -168t-71 -165.5t-104.5 -149.5t-138.5 -122t-177.5 -82t-217.5 -30.5q-244 0 -349 102l29 145h8q95 -118 316 -118q228 0 386.5 146t211.5 413h-4q-188 -185 -469 -185q-195 0 -310.5 104.5
t-115.5 274.5q0 226 156 372t397 146zM1112 844q2 14 2 43q0 169 -102.5 266.5t-266.5 97.5q-175 0 -290 -103.5t-115 -266.5q0 -125 83 -197t228 -72q136 0 254.5 61t206.5 171z" />
    <glyph glyph-name="colon" unicode=":" horiz-adv-x="495" 
d="M180 176q38 0 63 -24.5t25 -61.5q0 -46 -32 -78t-76 -32q-38 0 -63 24.5t-25 61.5q0 46 32 78t76 32zM326 930q38 0 63 -24.5t25 -61.5q0 -46 -32.5 -78.5t-76.5 -32.5q-38 0 -63 24.5t-25 61.5q0 46 32.5 78.5t76.5 32.5z" />
    <glyph glyph-name="semicolon" unicode=";" horiz-adv-x="495" 
d="M-98 -291l233 447h144l-265 -447h-112zM326 930q38 0 63 -24.5t25 -61.5q0 -46 -32.5 -78.5t-76.5 -32.5q-38 0 -63 24.5t-25 61.5q0 46 32.5 78.5t76.5 32.5z" />
    <glyph glyph-name="less" unicode="&#x3c;" horiz-adv-x="1331" 
d="M348 604l789 -379l-25 -127l-946 465l18 103l1129 464l-27 -141l-938 -381v-4z" />
    <glyph glyph-name="equal" unicode="=" horiz-adv-x="1331" 
d="M217 938h1077l-24 -123h-1077zM115 414h1077l-25 -123h-1077z" />
    <glyph glyph-name="greater" unicode="&#x3e;" horiz-adv-x="1331" 
d="M1200 563l-1126 -465l24 142l938 383v4l-788 377l26 126l945 -464z" />
    <glyph glyph-name="question" unicode="?" horiz-adv-x="987" 
d="M621 1380q201 0 313.5 -87t112.5 -242q0 -186 -128 -300t-417 -188l-39 -205h-131l57 293q278 60 395 147.5t117 235.5q0 103 -75.5 159t-213.5 56q-122 0 -238.5 -46.5t-205.5 -131.5h-8l33 182q180 127 428 127zM352 176q40 0 65 -23.5t25 -60.5q0 -46 -32 -79t-78 -33
q-38 0 -63 24.5t-25 61.5q0 46 32 78t76 32z" />
    <glyph glyph-name="at" unicode="@" horiz-adv-x="1611" 
d="M1260 924l-99 -508q-4 -28 -4 -37q0 -76 78 -76q50 0 90.5 29.5t65.5 74.5t42 102.5t24 110.5t7 101q0 225 -142 360.5t-390 135.5q-142 0 -273 -59.5t-225.5 -159t-150.5 -236.5t-56 -285q0 -239 162 -388.5t424 -149.5q138 0 263 41t212 112h6l-22 -117
q-82 -56 -204.5 -87t-258.5 -31q-307 0 -495.5 172t-188.5 448q0 169 63.5 321t171.5 261.5t258.5 174t317.5 64.5q286 0 454.5 -160t168.5 -423q0 -52 -8 -107t-24 -112t-43 -107.5t-61.5 -90t-83.5 -62.5t-106 -23q-144 0 -166 121h-4q-100 -121 -283 -121q-141 0 -229 87
t-88 226q0 176 113.5 294t275.5 118q107 0 181.5 -43.5t105.5 -118.5h4l28 148h89zM799 303q128 0 213.5 88.5t85.5 224.5q0 103 -63.5 166.5t-168.5 63.5q-127 0 -215 -89t-88 -218q0 -106 64 -171t172 -65z" />
    <glyph glyph-name="A" unicode="A" horiz-adv-x="1484" 
d="M1194 0l-78 305h-801l-198 -305h-168l893 1360h143l367 -1360h-158zM887 1186h-4l-480 -744h676z" />
    <glyph glyph-name="B" unicode="B" horiz-adv-x="1298" 
d="M1014 690v-4q194 -66 194 -268q0 -198 -128 -308t-380 -110h-626l264 1360h516q430 0 430 -313q0 -142 -69.5 -232.5t-200.5 -124.5zM373 758h401q175 0 265.5 68.5t90.5 201.5q0 195 -288 195h-379zM252 137h455q170 0 259 71t89 210q0 203 -293 203h-416z" />
    <glyph glyph-name="C" unicode="C" horiz-adv-x="1347" 
d="M913 1380q150 0 279.5 -38t200.5 -109l-33 -160h-8q-57 83 -178.5 126.5t-262.5 43.5q-183 0 -331 -84.5t-232 -233t-84 -331.5q0 -216 138.5 -346.5t369.5 -130.5q251 0 428 180h8l-37 -191q-81 -62 -180 -94t-237 -32q-292 0 -466.5 167.5t-174.5 438.5
q0 168 60.5 315.5t166 252.5t254.5 165.5t319 60.5z" />
    <glyph glyph-name="D" unicode="D" horiz-adv-x="1486" 
d="M338 1360h469q305 0 476 -152.5t171 -421.5q0 -356 -219 -571t-588 -215h-573zM1300 774q0 213 -134 331t-378 118h-325l-211 -1086h401q295 0 471 175t176 462z" />
    <glyph glyph-name="E" unicode="E" horiz-adv-x="1253" 
d="M1059 758l-27 -137h-686l-94 -484h835l-28 -137h-985l264 1360h985l-25 -137h-835l-90 -465h686z" />
    <glyph glyph-name="F" unicode="F" horiz-adv-x="1212" 
d="M1057 741l-27 -137h-688l-117 -604h-151l264 1360h987l-27 -137h-835l-94 -482h688z" />
    <glyph glyph-name="G" unicode="G" horiz-adv-x="1445" 
d="M928 1380q167 0 305.5 -38t222.5 -111l-31 -160h-8q-152 172 -491 172q-143 0 -266.5 -49.5t-210 -136t-136 -207t-49.5 -258.5q0 -218 140.5 -346.5t379.5 -128.5q186 0 326 73l70 355h-435l29 137h578l-109 -563q-114 -76 -217 -107.5t-254 -31.5q-305 0 -483 161.5
t-178 433.5q0 230 102 413t289 287.5t426 104.5z" />
    <glyph glyph-name="H" unicode="H" horiz-adv-x="1507" 
d="M1513 1360l-264 -1360h-151l121 621h-873l-121 -621h-151l264 1360h151l-116 -602h872l117 602h151z" />
    <glyph glyph-name="I" unicode="I" horiz-adv-x="483" 
d="M74 0l264 1360h151l-264 -1360h-151z" />
    <glyph glyph-name="J" unicode="J" horiz-adv-x="1036" 
d="M1075 1360l-180 -920q-88 -460 -535 -460q-243 0 -374 141l30 153h9q105 -157 333 -157q155 0 256.5 88t133.5 254l176 901h151z" />
    <glyph glyph-name="K" unicode="K" horiz-adv-x="1282" 
d="M504 680l643 -680h-197l-600 645l-125 -645h-151l264 1360h151l-120 -623l805 623h219z" />
    <glyph glyph-name="L" unicode="L" horiz-adv-x="1175" 
d="M1032 0h-958l264 1360h151l-237 -1223h805z" />
    <glyph glyph-name="M" unicode="M" horiz-adv-x="1908" 
d="M1651 0h-152l234 1208h-4l-807 -1208h-131l-334 1196h-4l-232 -1196h-147l264 1360h221l326 -1163h4l782 1163h244z" />
    <glyph glyph-name="N" unicode="N" horiz-adv-x="1536" 
d="M1255 0h-174l-618 1214h-4l-238 -1214h-147l264 1360h205l598 -1163h4l227 1163h148z" />
    <glyph glyph-name="O" unicode="O" horiz-adv-x="1566" 
d="M901 1380q285 0 459 -169t174 -439q0 -167 -60.5 -314t-165 -251.5t-251 -165.5t-312.5 -61q-286 0 -459 168.5t-173 439.5q0 222 102.5 403.5t283.5 285t402 103.5zM893 1243q-133 0 -250 -50.5t-200 -137t-131 -207t-48 -256.5q0 -213 134 -344t356 -131
q177 0 321.5 86t225.5 234t81 327q0 216 -133.5 347.5t-355.5 131.5z" />
    <glyph glyph-name="P" unicode="P" horiz-adv-x="1286" 
d="M338 1360h545q213 0 322.5 -89.5t109.5 -262.5q0 -235 -134.5 -360.5t-389.5 -125.5h-463l-103 -522h-151zM1163 991q0 232 -297 232h-403l-109 -564h443q178 0 272 86.5t94 245.5z" />
    <glyph glyph-name="Q" unicode="Q" horiz-adv-x="1564" 
d="M1534 772q0 -218 -100 -397.5t-273 -282.5l156 -248h-160l-119 189q-136 -53 -293 -53q-286 0 -459 168.5t-173 439.5q0 222 102.5 403.5t283.5 285t402 103.5q285 0 459 -169t174 -439zM754 117q109 0 209 35l-207 325h159l170 -268q138 86 217.5 232t79.5 323
q0 216 -133.5 347.5t-355.5 131.5q-133 0 -250 -50.5t-200 -137t-131 -207t-48 -256.5q0 -213 134 -344t356 -131z" />
    <glyph glyph-name="R" unicode="R" horiz-adv-x="1345" 
d="M338 1360h557q213 0 322.5 -89t109.5 -261q0 -202 -108 -321t-312 -144l271 -545h-168l-254 539h-426l-105 -539h-151zM1176 997q0 226 -297 226h-416l-107 -547h453q178 0 272.5 83.5t94.5 237.5z" />
    <glyph glyph-name="S" unicode="S" horiz-adv-x="1181" 
d="M719 1380q151 0 280.5 -35.5t192.5 -93.5l-31 -157h-8q-62 72 -176 110.5t-266 38.5q-164 0 -272.5 -81.5t-108.5 -205.5q0 -86 72.5 -129.5t261.5 -64.5q248 -27 350 -104.5t102 -229.5q0 -209 -149 -328.5t-410 -119.5q-172 0 -314 40.5t-218 112.5l28 158h8
q76 -85 205.5 -129.5t296.5 -44.5q184 0 292 78.5t108 212.5q0 95 -78.5 143t-274.5 70q-237 26 -335.5 97.5t-98.5 211.5q0 203 149.5 326.5t393.5 123.5z" />
    <glyph glyph-name="T" unicode="T" horiz-adv-x="1185" 
d="M815 1223l-237 -1223h-152l238 1223h-465l24 137h1082l-25 -137h-465z" />
    <glyph glyph-name="U" unicode="U" horiz-adv-x="1423" 
d="M1462 1360l-155 -795q-56 -292 -216.5 -438.5t-437.5 -146.5q-246 0 -381 114t-135 326q0 62 17 155l151 785h152l-152 -785q-12 -67 -12 -126q0 -161 94.5 -246.5t269.5 -85.5q208 0 334.5 119t171.5 350l152 774h147z" />
    <glyph glyph-name="V" unicode="V" horiz-adv-x="1400" 
d="M682 0h-147l-322 1360h156l268 -1167h4l725 1167h168z" />
    <glyph glyph-name="W" unicode="W" horiz-adv-x="2052" 
d="M1460 0h-149l-158 1104h-4l-592 -1104h-149l-189 1360h154l149 -1127h4l602 1127h134l163 -1131h5l587 1131h162z" />
    <glyph glyph-name="X" unicode="X" horiz-adv-x="1406" 
d="M1075 0l-344 598l-569 -598h-193l676 700l-389 660h176l330 -569l541 569h192l-651 -676l405 -684h-174z" />
    <glyph glyph-name="Y" unicode="Y" horiz-adv-x="1359" 
d="M664 0h-152l119 604l-438 756h176l354 -629l598 629h192l-733 -760z" />
    <glyph glyph-name="Z" unicode="Z" horiz-adv-x="1300" 
d="M1135 137l-25 -137h-1104l25 129l1093 1094h-839l26 137h1053l-25 -129l-1093 -1094h889z" />
    <glyph glyph-name="bracketleft" unicode="[" horiz-adv-x="737" 
d="M203 -98h313l-20 -111h-449l305 1569h449l-21 -111h-317z" />
    <glyph glyph-name="backslash" unicode="\" horiz-adv-x="833" 
d="M637 -164h-123l-260 1585h121z" />
    <glyph glyph-name="bracketright" unicode="]" horiz-adv-x="737" 
d="M-27 -209l23 111h315l260 1347h-313l21 111h448l-305 -1569h-449z" />
    <glyph glyph-name="asciicircum" unicode="^" horiz-adv-x="1331" 
d="M817 1223l-534 -648h-150l651 785h103l346 -785h-135z" />
    <glyph glyph-name="underscore" unicode="_" horiz-adv-x="1024" 
d="M-141 -248l20 96h1024l-20 -96h-1024z" />
    <glyph glyph-name="grave" unicode="`" horiz-adv-x="1024" 
d="M598 1106l-199 326h148l176 -326h-125z" />
    <glyph glyph-name="a" unicode="a" horiz-adv-x="1220" 
d="M987 0h-117l27 145h-4q-68 -79 -167 -122t-218 -43q-195 0 -314.5 121.5t-119.5 314.5q0 155 71.5 284t195.5 203t273 74q151 0 252 -58.5t142 -162.5h4l41 200h121zM535 102q176 0 296.5 124t120.5 311q0 142 -88.5 229.5t-234.5 87.5q-176 0 -297 -124.5t-121 -311.5
q0 -141 89 -228.5t235 -87.5z" />
    <glyph glyph-name="b" unicode="b" horiz-adv-x="1220" 
d="M711 977q196 0 316 -121t120 -315q0 -155 -71.5 -284t-196 -203t-273.5 -74t-250.5 58.5t-142.5 160.5h-4l-43 -199h-119l279 1434h137l-117 -600h4q67 68 160 105.5t201 37.5zM590 102q177 0 298.5 124.5t121.5 305.5q0 145 -88.5 233.5t-235.5 88.5q-177 0 -298.5 -125
t-121.5 -307q0 -143 88.5 -231.5t235.5 -88.5z" />
    <glyph glyph-name="c" unicode="c" horiz-adv-x="999" 
d="M643 977q107 0 201 -29t145 -80l-28 -139h-7q-96 125 -305 125q-190 0 -314 -122t-124 -306q0 -145 93.5 -234.5t242.5 -89.5q98 0 167.5 29.5t141.5 95.5h6l-31 -164q-119 -83 -288 -83q-216 0 -342.5 121t-126.5 317q0 157 73.5 285t204 201t291.5 73z" />
    <glyph glyph-name="d" unicode="d" horiz-adv-x="1220" 
d="M987 0h-117l27 145h-4q-68 -79 -167 -122t-218 -43q-195 0 -314.5 121.5t-119.5 314.5q0 155 71.5 284t195.5 203t273 74q142 0 241 -52.5t144 -146.5h5l124 656h138zM535 102q176 0 296.5 124t120.5 311q0 142 -88.5 229.5t-234.5 87.5q-176 0 -297 -124.5t-121 -311.5
q0 -141 89 -228.5t235 -87.5z" />
    <glyph glyph-name="e" unicode="e" horiz-adv-x="1138" 
d="M639 977q201 0 317.5 -105.5t116.5 -281.5q0 -44 -20 -154h-842v-16q0 -146 100.5 -232t270.5 -86q202 0 370 148h6l-32 -164q-63 -50 -157.5 -78t-199.5 -28q-229 0 -362 117t-133 315q0 243 160.5 404t404.5 161zM631 854q-143 0 -251.5 -82t-148.5 -217h713
q0 139 -81.5 219t-231.5 80z" />
    <glyph glyph-name="f" unicode="f" horiz-adv-x="688" 
d="M692 1454q118 0 182 -41l-24 -127h-6q-55 45 -139 45q-95 0 -155.5 -52t-80.5 -155l-33 -168h322l-23 -118h-321l-164 -838h-137l163 838h-184l25 118h182l35 179q31 156 122.5 237.5t235.5 81.5z" />
    <glyph glyph-name="g" unicode="g" horiz-adv-x="1220" 
d="M1174 956l-173 -884q-45 -232 -191.5 -357t-381.5 -125q-276 0 -403 140l24 137h6q114 -154 373 -154q365 0 438 369l8 47h-4q-140 -143 -360 -143q-195 0 -315.5 121.5t-120.5 314.5q0 153 71.5 280.5t196 201t272.5 73.5q149 0 250.5 -58.5t143.5 -160.5h4l41 198h121z
M537 109q176 0 295.5 122.5t119.5 307.5q0 140 -89 227.5t-234 87.5q-176 0 -297 -122.5t-121 -305.5q0 -142 89.5 -229.5t236.5 -87.5z" />
    <glyph glyph-name="h" unicode="h" horiz-adv-x="1140" 
d="M713 977q160 0 249 -85t89 -235q0 -47 -13 -110l-106 -547h-137l104 537q8 44 8 88q0 111 -61 170t-176 59q-148 0 -253.5 -97.5t-137.5 -264.5l-95 -492h-137l279 1434h137l-119 -617h4q135 160 365 160z" />
    <glyph glyph-name="i" unicode="i" horiz-adv-x="417" 
d="M369 1354q39 0 62.5 -23.5t23.5 -62.5q0 -44 -30.5 -73.5t-72.5 -29.5q-39 0 -62.5 23.5t-23.5 60.5q0 44 30.5 74.5t72.5 30.5zM47 0l186 956h138l-187 -956h-137z" />
    <glyph glyph-name="j" unicode="j" horiz-adv-x="417" 
d="M369 1354q39 0 62.5 -23.5t23.5 -62.5q0 -44 -30.5 -73.5t-72.5 -29.5q-39 0 -62.5 23.5t-23.5 60.5q0 44 30.5 74.5t72.5 30.5zM371 956l-217 -1116q-26 -130 -87.5 -190t-166.5 -60q-65 0 -121 27l24 127h7q31 -31 79 -31q55 0 84.5 33t44.5 109l215 1101h138z" />
    <glyph glyph-name="k" unicode="k" horiz-adv-x="983" 
d="M858 0h-178l-410 446l-86 -446h-137l279 1434h137l-176 -904l540 426h199l-616 -477z" />
    <glyph glyph-name="l" unicode="l" horiz-adv-x="417" 
d="M47 0l279 1434h137l-279 -1434h-137z" />
    <glyph glyph-name="m" unicode="m" horiz-adv-x="1759" 
d="M1362 977q150 0 228.5 -76.5t78.5 -218.5q0 -47 -14 -129l-107 -553h-137l107 551q10 62 10 98q0 100 -52.5 152.5t-156.5 52.5q-138 0 -229 -91.5t-123 -264.5l-97 -498h-137l105 547q12 55 12 102q0 101 -54 153t-157 52q-136 0 -228 -90t-124 -256l-97 -508h-137
l187 956h116l-24 -145h4q122 166 348 166q114 0 187 -51.5t96 -149.5h4q127 201 391 201z" />
    <glyph glyph-name="n" unicode="n" horiz-adv-x="1140" 
d="M713 977q160 0 249 -85t89 -235q0 -47 -13 -110l-106 -547h-137l104 537q8 41 8 88q0 109 -61 169t-176 60q-148 0 -253.5 -97.5t-137.5 -264.5l-95 -492h-137l186 956h117l-28 -168h4q137 189 387 189z" />
    <glyph glyph-name="o" unicode="o" horiz-adv-x="1163" 
d="M635 977q205 0 330 -121t125 -317q0 -155 -73.5 -283.5t-202.5 -202t-286 -73.5q-205 0 -329.5 121t-124.5 317q0 155 73.5 283.5t202.5 202t285 73.5zM629 854q-176 0 -297 -124.5t-121 -311.5q0 -141 89 -228.5t235 -87.5q176 0 296.5 124t120.5 311q0 142 -88.5 229.5
t-234.5 87.5z" />
    <glyph glyph-name="p" unicode="p" horiz-adv-x="1220" 
d="M711 977q196 0 316 -121t120 -315q0 -155 -71 -284t-195.5 -203t-274.5 -74q-141 0 -240.5 52.5t-144.5 145.5h-4l-108 -567h-138l262 1345h117l-26 -145h4q68 79 167 122.5t216 43.5zM590 102q177 0 298.5 124.5t121.5 305.5q0 145 -88.5 233.5t-235.5 88.5
q-178 0 -299 -125t-121 -307q0 -143 88.5 -231.5t235.5 -88.5z" />
    <glyph glyph-name="q" unicode="q" horiz-adv-x="1220" 
d="M911 -389h-137l100 512h-4q-140 -143 -362 -143q-195 0 -314.5 121.5t-119.5 314.5q0 155 71.5 284t195.5 203t273 74q151 0 252 -58.5t142 -162.5h4l41 200h121zM535 102q176 0 296.5 124t120.5 311q0 142 -88.5 229.5t-234.5 87.5q-176 0 -297 -124.5t-121 -311.5
q0 -141 89 -228.5t235 -87.5z" />
    <glyph glyph-name="r" unicode="r" horiz-adv-x="743" 
d="M662 977q90 0 147 -39l-29 -139h-6q-44 47 -137 47q-143 0 -237 -103t-132 -303l-84 -440h-137l186 956h117l-28 -157h4q120 178 336 178z" />
    <glyph glyph-name="s" unicode="s" horiz-adv-x="880" 
d="M510 977q101 0 191.5 -24t136.5 -62l-27 -133h-6q-93 96 -297 96q-115 0 -190.5 -54.5t-75.5 -137.5q0 -52 48.5 -78t168.5 -33q179 -10 254 -67.5t75 -174.5q0 -154 -108.5 -241.5t-298.5 -87.5q-119 0 -218 27.5t-159 78.5l29 137h6q103 -121 344 -121
q123 0 197.5 52.5t74.5 138.5q0 62 -51.5 91.5t-185.5 39.5q-171 13 -241.5 64t-70.5 155q0 151 111 242.5t293 91.5z" />
    <glyph glyph-name="t" unicode="t" horiz-adv-x="743" 
d="M414 838l-105 -537q-6 -30 -6 -57q0 -67 36 -104.5t101 -37.5q90 0 158 60h6l-31 -152q-68 -30 -153 -30q-125 0 -190.5 61t-65.5 174q0 47 8 88l104 535h-184l25 118h186l72 256h110l-49 -256h322l-23 -118h-321z" />
    <glyph glyph-name="u" unicode="u" horiz-adv-x="1140" 
d="M907 0h-116l28 164h-4q-139 -184 -387 -184q-160 0 -249 84.5t-89 234.5q0 53 12 111l107 546h137l-106 -536q-9 -47 -9 -86q0 -111 62.5 -171.5t179.5 -60.5q148 0 252.5 97t136.5 266l94 491h138z" />
    <glyph glyph-name="v" unicode="v" horiz-adv-x="1009" 
d="M483 0h-141l-229 956h141l180 -811h4l498 811h149z" />
    <glyph glyph-name="w" unicode="w" horiz-adv-x="1542" 
d="M1087 0h-135l-125 743h-4l-415 -743h-138l-157 956h137l117 -776h4l434 776h113l133 -774h4l415 774h148z" />
    <glyph glyph-name="x" unicode="x" horiz-adv-x="1048" 
d="M752 0l-236 410l-391 -410h-176l489 498l-280 458h159l224 -383l364 383h174l-461 -471l293 -485h-159z" />
    <glyph glyph-name="y" unicode="y" horiz-adv-x="1009" 
d="M207 -389h-150l289 428l-233 917h141l188 -768h4l490 768h149z" />
    <glyph glyph-name="z" unicode="z" horiz-adv-x="995" 
d="M842 119l-23 -119h-829l22 111l764 727h-592l23 118h788l-22 -110l-764 -727h633z" />
    <glyph glyph-name="braceleft" unicode="{" horiz-adv-x="770" 
d="M813 1249h-78q-87 0 -142.5 -46.5t-72.5 -133.5l-39 -207q-25 -124 -76.5 -193t-136.5 -94v-4q109 -43 109 -188q0 -55 -10 -104l-41 -207q-7 -32 -7 -54q0 -116 144 -116h88l-23 -111h-98q-121 0 -182.5 54t-61.5 157q0 36 9 80l43 223q10 52 10 82q0 71 -36.5 102
t-113.5 31h-45l23 111h37q95 0 152.5 54.5t80.5 170.5l43 223q28 145 110 213t228 68h107z" />
    <glyph glyph-name="bar" unicode="|" horiz-adv-x="686" 
d="M121 -389l354 1823h107l-355 -1823h-106z" />
    <glyph glyph-name="braceright" unicode="}" horiz-adv-x="770" 
d="M731 520h-35q-95 0 -152.5 -54.5t-80.5 -170.5l-45 -223q-26 -144 -108.5 -212.5t-227.5 -68.5h-109l23 111h78q87 0 142.5 46.5t72.5 133.5l39 207q25 124 76 192.5t137 93.5v5q-111 44 -111 188q0 55 10 104l41 207q6 30 6 54q0 116 -141 116h-88l21 111h98
q120 0 182 -53.5t62 -155.5q0 -39 -9 -82l-43 -223q-8 -41 -8 -82q0 -70 36 -101.5t112 -31.5h45z" />
    <glyph glyph-name="asciitilde" unicode="~" horiz-adv-x="1331" 
d="M1208 791l88 -78q-106 -140 -193 -199t-188 -59q-68 0 -128 24.5t-136 87.5q-61 51 -99.5 69.5t-80.5 18.5q-72 0 -140 -47.5t-155 -161.5l-88 74q106 140 193 199t188 59q69 0 130.5 -26t133.5 -88q55 -48 96 -67t82 -19q72 0 140 48.5t157 164.5z" />
    <glyph glyph-name="uni00A0" unicode="&#xa0;" horiz-adv-x="450" 
 />
    <glyph glyph-name="exclamdown" unicode="&#xa1;" horiz-adv-x="495" 
d="M393 1184q-38 0 -63 24.5t-25 61.5q0 46 32.5 78t76.5 32q41 0 65.5 -24.5t24.5 -63.5q0 -45 -33.5 -76.5t-77.5 -31.5zM236 0h-162l213 1001h125z" />
    <glyph glyph-name="cent" unicode="&#xa2;" horiz-adv-x="1331" 
d="M975 1249l-37 -184q190 -23 262 -104l-26 -146h-9q-80 108 -252 123l-147 -754q90 3 160 36.5t141 103.5h8l-33 -174q-69 -48 -138.5 -71t-162.5 -24l-34 -178h-121l37 184q-184 28 -289 147.5t-105 295.5q0 117 44 220.5t121 178.5t186.5 119.5t236.5 46.5l35 180h123z
M373 512q0 -126 72.5 -211.5t201.5 -110.5l146 750q-184 -12 -302 -132.5t-118 -295.5z" />
    <glyph glyph-name="sterling" unicode="&#xa3;" horiz-adv-x="1331" 
d="M924 1380q237 0 364 -127l-31 -151h-8q-56 77 -132 113t-187 36q-309 0 -377 -340l-33 -170h518l-24 -125h-518l-25 -127q-25 -130 -73 -211.5t-138 -144.5v-4h811l-24 -129h-963l27 137q95 64 141.5 136.5t71.5 195.5l28 147h-147l24 125h148l37 189q43 221 171.5 335.5
t338.5 114.5z" />
    <glyph glyph-name="currency" unicode="&#xa4;" horiz-adv-x="1331" 
d="M1255 1071l-194 -162q47 -80 47 -182q0 -173 -123 -303l119 -141l-92 -78l-115 145q-107 -69 -235 -69q-150 0 -246 90l-191 -166l-71 84l196 164q-47 77 -47 180q0 175 121 303l-117 141l90 78l115 -145q112 69 238 69q144 0 245 -88l191 164zM995 715q0 111 -71 183.5
t-183 72.5q-131 0 -227 -97t-96 -233q0 -109 70 -180.5t180 -71.5q132 0 229.5 97.5t97.5 228.5z" />
    <glyph glyph-name="yen" unicode="&#xa5;" horiz-adv-x="1331" 
d="M1204 616h-438l-39 -198h438l-24 -123h-439l-57 -295h-141l57 295h-444l24 123h445l39 198h-445l25 123h422l-363 621h168l299 -537l504 537h176l-598 -621h416z" />
    <glyph glyph-name="brokenbar" unicode="&#xa6;" horiz-adv-x="686" 
d="M319 635l156 799h107l-156 -799h-107zM121 -389l155 799h107l-156 -799h-106z" />
    <glyph glyph-name="section" unicode="&#xa7;" horiz-adv-x="1110" 
d="M750 1454q212 0 323 -82l-29 -137h-6q-106 100 -301 100q-158 0 -250 -60.5t-92 -164.5q0 -68 59.5 -103.5t211.5 -52.5q200 -21 284 -84.5t84 -185.5q0 -115 -63.5 -201t-179.5 -129v-4q104 -63 104 -196q0 -170 -124.5 -266.5t-350.5 -96.5q-118 0 -218 27t-161 76
l27 139h6q124 -121 356 -121q156 0 248 60.5t92 162.5q0 70 -60.5 107t-213.5 55q-201 25 -283 85t-82 179q0 118 63.5 203.5t182.5 128.5v4q-109 61 -109 193q0 169 127 266.5t355 97.5zM565 844q-144 -7 -224.5 -78t-80.5 -182q0 -75 62 -113.5t219 -56.5q20 -2 75 -11
q132 14 209.5 83.5t77.5 175.5q0 75 -59.5 113t-216.5 61q-23 4 -62 8z" />
    <glyph glyph-name="dieresis" unicode="&#xa8;" horiz-adv-x="1024" 
d="M473 1350q38 0 61 -22.5t23 -59.5q0 -43 -28.5 -72t-69.5 -29q-37 0 -59.5 22.5t-22.5 57.5q0 45 27 74t69 29zM870 1350q36 0 58 -22t22 -58q0 -45 -27 -74t-69 -29q-38 0 -61 22.5t-23 59.5q0 43 29 72t71 29z" />
    <glyph glyph-name="copyright" unicode="&#xa9;" horiz-adv-x="1626" 
d="M918 1380q281 0 458.5 -175.5t177.5 -448.5q0 -162 -59.5 -306t-162 -247t-245 -163t-301.5 -60q-281 0 -458.5 175.5t-177.5 448.5q0 162 59.5 306t162 247t245 163t301.5 60zM918 1290q-184 0 -339 -91t-244 -247.5t-89 -343.5q0 -236 151 -387t389 -151q184 0 339 91
t244 247.5t89 343.5q0 236 -151 387t-389 151zM907 1049q79 0 147 -20.5t105 -55.5l-20 -113h-6q-29 45 -90 71.5t-134 26.5q-138 0 -227.5 -91.5t-89.5 -231.5q0 -105 67.5 -169.5t180.5 -64.5q125 0 221 93h6l-23 -123q-47 -32 -94 -46t-114 -14q-157 0 -252 90t-95 234
q0 180 119 297t299 117z" />
    <glyph glyph-name="ordfeminine" unicode="&#xaa;" horiz-adv-x="921" 
d="M836 696h-95l15 95h-4q-99 -107 -258 -107q-135 0 -219.5 85.5t-84.5 219.5q0 167 109 279t268 112q98 0 167 -37t102 -104h4l26 119h99zM518 782q116 0 196.5 81t80.5 204q0 97 -59 156t-156 59q-117 0 -197 -82t-80 -205q0 -95 59 -154t156 -59z" />
    <glyph glyph-name="guillemotleft" unicode="&#xab;" horiz-adv-x="976" 
d="M197 467l223 -281l-27 -137l-327 424v10l493 424l-29 -162zM590 467l223 -281l-27 -137l-327 424v10l493 424l-28 -162z" />
    <glyph glyph-name="logicalnot" unicode="&#xac;" horiz-adv-x="1331" 
d="M1038 199l99 497h-977l24 123h1098l-121 -620h-123z" />
    <glyph glyph-name="uni00AD" unicode="&#xad;" horiz-adv-x="757" 
d="M98 489l27 138h565l-26 -138h-566z" />
    <glyph glyph-name="registered" unicode="&#xae;" horiz-adv-x="1626" 
d="M659 1038h295q114 0 173 -48t59 -142q0 -221 -221 -248l145 -278h-117l-133 276h-186l-53 -276h-101zM1085 838q0 110 -145 110h-199l-49 -260h219q85 0 129.5 38.5t44.5 111.5zM918 1380q281 0 458.5 -175.5t177.5 -448.5q0 -162 -59.5 -306t-162 -247t-245 -163
t-301.5 -60q-281 0 -458.5 175.5t-177.5 448.5q0 162 59.5 306t162 247t245 163t301.5 60zM918 1290q-184 0 -339 -91t-244 -247.5t-89 -343.5q0 -236 151 -387t389 -151q184 0 339 91t244 247.5t89 343.5q0 236 -151 387t-389 151z" />
    <glyph glyph-name="macron" unicode="&#xaf;" horiz-adv-x="1024" 
d="M336 1198l22 113h633l-22 -113h-633z" />
    <glyph glyph-name="degree" unicode="&#xb0;" horiz-adv-x="794" 
d="M543 1380q122 0 198 -76t76 -194q0 -142 -96.5 -239t-235.5 -97q-122 0 -198 77t-76 196q0 140 96.5 236.5t235.5 96.5zM541 1274q-92 0 -155.5 -63.5t-63.5 -159.5q0 -74 47 -121t120 -47q91 0 154.5 62.5t63.5 158.5q0 74 -47 122t-119 48z" />
    <glyph glyph-name="plusminus" unicode="&#xb1;" horiz-adv-x="1331" 
d="M1249 651h-487l-90 -461h-123l90 461h-489l24 123h488l90 461h122l-90 -461h488zM1145 123l-23 -123h-1097l22 123h1098z" />
    <glyph glyph-name="twosuperior" unicode="&#xb2;" 
d="M788 891l-20 -96h-573l20 102l195 137q225 158 297.5 232t72.5 151q0 64 -44 98.5t-126 34.5q-67 0 -141.5 -30.5t-134.5 -81.5h-6l26 127q57 39 129.5 60.5t139.5 21.5q125 0 194.5 -57t69.5 -160q0 -76 -33.5 -137.5t-120.5 -136t-256 -185.5l-117 -76v-4h428z" />
    <glyph glyph-name="threesuperior" unicode="&#xb3;" 
d="M903 1438q0 -78 -44.5 -134t-125.5 -83v-4q109 -55 109 -173q0 -123 -91.5 -192.5t-250.5 -69.5q-85 0 -164 26.5t-125 70.5l22 108h7q42 -52 111.5 -80t150.5 -28q108 0 170.5 46.5t62.5 125.5q0 125 -190 125h-115l16 94h121q111 0 170.5 39t59.5 116q0 61 -49.5 93
t-141.5 32q-67 0 -138.5 -29t-127.5 -79h-6l24 123q111 82 260 82q136 0 210.5 -55t74.5 -154z" />
    <glyph glyph-name="acute" unicode="&#xb4;" horiz-adv-x="1024" 
d="M541 1106l299 326h164l-320 -326h-143z" />
    <glyph glyph-name="uni00B5" unicode="&#xb5;" horiz-adv-x="1179" 
d="M940 0h-119l29 164h-4q-139 -184 -387 -184q-166 0 -248 94h-4l-92 -463h-138l263 1345h137l-107 -536q-8 -41 -8 -86q0 -111 62.5 -171.5t179.5 -60.5q146 0 251.5 98.5t137.5 264.5l94 491h137z" />
    <glyph glyph-name="paragraph" unicode="&#xb6;" horiz-adv-x="1167" 
d="M807 -389h-100l335 1726h-274l-336 -1726h-100l192 987q-174 11 -263 90t-89 223q0 240 151.5 381.5t409.5 141.5h545l-18 -97h-117z" />
    <glyph glyph-name="periodcentered" unicode="&#xb7;" horiz-adv-x="495" 
d="M297 778q38 0 63 -24.5t25 -61.5q0 -46 -32.5 -78t-76.5 -32q-38 0 -63 24.5t-25 61.5q0 46 32.5 78t76.5 32z" />
    <glyph glyph-name="cedilla" unicode="&#xb8;" horiz-adv-x="1024" 
d="M401 -119v-4q77 -1 117.5 -35t40.5 -88q0 -164 -219 -164q-121 0 -180 39l22 99h6q51 -45 152 -45q106 0 106 67q0 57 -90 57q-40 0 -92 -18l2 31l131 180h90z" />
    <glyph glyph-name="onesuperior" unicode="&#xb9;" 
d="M664 795h-107l139 712l-252 -145l21 111l276 161h86z" />
    <glyph glyph-name="ordmasculine" unicode="&#xba;" horiz-adv-x="880" 
d="M580 1380q146 0 235.5 -85t89.5 -222q0 -168 -112.5 -278.5t-278.5 -110.5q-145 0 -234.5 85t-89.5 222q0 167 113 278t277 111zM575 1282q-116 0 -194 -81.5t-78 -205.5q0 -95 60 -154t157 -59q114 0 193.5 82.5t79.5 200.5q0 97 -60.5 157t-157.5 60z" />
    <glyph glyph-name="guillemotright" unicode="&#xbb;" horiz-adv-x="976" 
d="M25 49l30 160l332 280l-221 279l27 139l325 -424v-10zM418 49l31 160l331 280l-221 279l27 139l325 -424v-10z" />
    <glyph glyph-name="onequarter" unicode="&#xbc;" horiz-adv-x="1982" 
d="M485 0l1145 1360h123l-1145 -1360h-123zM1724 0h-106l33 170h-482l19 92l592 578h108l-112 -574h116l-18 -96h-117zM1321 266h348l84 420zM610 520h-106l139 713l-252 -146l21 111l276 162h86z" />
    <glyph glyph-name="onehalf" unicode="&#xbd;" horiz-adv-x="1982" 
d="M397 0l1145 1360h123l-1145 -1360h-123zM1778 96l-21 -96h-573l20 102l195 138q225 158 297.5 232t72.5 151q0 64 -44 98.5t-126 34.5q-67 0 -141 -30.5t-135 -82.5h-6l26 127q57 39 129.5 60.5t139.5 21.5q125 0 194.5 -57t69.5 -160q0 -76 -33.5 -137.5t-120.5 -136
t-256 -185.5l-116 -76v-4h428zM610 520h-106l139 713l-252 -146l21 111l276 162h86z" />
    <glyph glyph-name="threequarters" unicode="&#xbe;" horiz-adv-x="1982" 
d="M500 0l1145 1360h122l-1144 -1360h-123zM1724 0h-106l33 170h-482l19 92l592 578h108l-112 -574h116l-18 -96h-117zM1321 266h348l84 420zM850 1163q0 -78 -44.5 -134t-125.5 -83v-4q108 -54 108 -172q0 -123 -91.5 -192.5t-250.5 -69.5q-85 0 -164 26t-124 70l22 109h6
q42 -52 112 -80.5t151 -28.5q108 0 170.5 46.5t62.5 125.5q0 125 -190 125h-115l16 94h121q110 0 169.5 39.5t59.5 116.5q0 61 -49.5 93t-140.5 32q-67 0 -138.5 -29.5t-127.5 -79.5h-6l24 123q111 82 260 82q136 0 210.5 -55t74.5 -154z" />
    <glyph glyph-name="questiondown" unicode="&#xbf;" horiz-adv-x="987" 
d="M446 -20q-201 0 -313.5 87t-112.5 242q0 186 128 300t417 188l39 204h131l-57 -292q-278 -60 -395 -147.5t-117 -235.5q0 -103 75.5 -159t213.5 -56q122 0 238.5 46.5t205.5 131.5h8l-33 -183q-178 -126 -428 -126zM715 1184q-40 0 -65 23.5t-25 60.5q0 46 32 79t78 33
q38 0 63 -24.5t25 -61.5q0 -46 -32 -78t-76 -32z" />
    <glyph glyph-name="Agrave" unicode="&#xc0;" horiz-adv-x="1484" 
d="M1194 0l-78 305h-801l-198 -305h-168l893 1360h143l367 -1360h-158zM887 1186h-4l-480 -744h676zM897 1493l-199 326h148l176 -326h-125z" />
    <glyph glyph-name="Aacute" unicode="&#xc1;" horiz-adv-x="1484" 
d="M1194 0l-78 305h-801l-198 -305h-168l893 1360h143l367 -1360h-158zM887 1186h-4l-480 -744h676zM854 1493l299 326h164l-320 -326h-143z" />
    <glyph glyph-name="Acircumflex" unicode="&#xc2;" horiz-adv-x="1484" 
d="M1194 0l-78 305h-801l-198 -305h-168l893 1360h143l367 -1360h-158zM887 1186h-4l-480 -744h676zM993 1718l-225 -225h-143l311 326h135l189 -326h-123z" />
    <glyph glyph-name="Atilde" unicode="&#xc3;" horiz-adv-x="1484" 
d="M1194 0l-78 305h-801l-198 -305h-168l893 1360h143l367 -1360h-158zM887 1186h-4l-480 -744h676zM1313 1776l-25 -138q-75 -104 -188 -104q-75 0 -154 61q-37 30 -59 40t-51 10q-106 0 -195 -127h-6l20 137q38 49 89 76.5t104 27.5q39 0 72.5 -13t78.5 -48
q37 -29 59.5 -39t51.5 -10q104 0 197 127h6z" />
    <glyph glyph-name="Adieresis" unicode="&#xc4;" horiz-adv-x="1484" 
d="M1194 0l-78 305h-801l-198 -305h-168l893 1360h143l367 -1360h-158zM887 1186h-4l-480 -744h676zM782 1737q38 0 61 -22.5t23 -59.5q0 -43 -28.5 -72t-69.5 -29q-37 0 -59.5 22.5t-22.5 57.5q0 45 27 74t69 29zM1180 1737q36 0 58 -22t22 -58q0 -45 -27.5 -74t-69.5 -29
q-38 0 -61 22.5t-23 59.5q0 42 29.5 71.5t71.5 29.5z" />
    <glyph glyph-name="Aring" unicode="&#xc5;" horiz-adv-x="1484" 
d="M1194 0l-78 305h-801l-198 -305h-168l893 1360h143l367 -1360h-158zM887 1186h-4l-480 -744h676zM991 1845q74 0 122 -46t48 -116q0 -90 -57.5 -150t-142.5 -60q-75 0 -124 46.5t-49 118.5q0 88 59.5 147.5t143.5 59.5zM987 1747q-40 0 -69 -28t-29 -70q0 -33 21.5 -55.5
t54.5 -22.5q40 0 69 28t29 70q0 33 -21.5 55.5t-54.5 22.5z" />
    <glyph glyph-name="AE" unicode="&#xc6;" horiz-adv-x="2123" 
d="M1243 756h686l-26 -138h-686l-95 -481h836l-29 -137h-985l60 305h-623l-272 -305h-183l1221 1360h1046l-24 -137h-836zM1174 1192l-670 -750h526l148 750h-4z" />
    <glyph glyph-name="Ccedilla" unicode="&#xc7;" horiz-adv-x="1347" 
d="M913 1380q150 0 279.5 -38t200.5 -109l-33 -160h-8q-57 83 -178.5 126.5t-262.5 43.5q-183 0 -331 -84.5t-232 -233t-84 -331.5q0 -216 138.5 -346.5t369.5 -130.5q251 0 428 180h8l-37 -191q-81 -62 -180 -94t-237 -32h-33l-72 -99v-4q77 -1 117.5 -35t40.5 -88
q0 -164 -219 -164q-121 0 -180 39l22 99h6q51 -45 152 -45q106 0 106 67q0 57 -90 57q-40 0 -92 -18l2 31l123 168q-244 34 -384 195t-140 403q0 168 60.5 315.5t166 252.5t254.5 165.5t319 60.5z" />
    <glyph glyph-name="Egrave" unicode="&#xc8;" horiz-adv-x="1253" 
d="M1059 758l-27 -137h-686l-94 -484h835l-28 -137h-985l264 1360h985l-25 -137h-835l-90 -465h686zM811 1493l-199 326h148l176 -326h-125z" />
    <glyph glyph-name="Eacute" unicode="&#xc9;" horiz-adv-x="1253" 
d="M1059 758l-27 -137h-686l-94 -484h835l-28 -137h-985l264 1360h985l-25 -137h-835l-90 -465h686zM768 1493l299 326h164l-320 -326h-143z" />
    <glyph glyph-name="Ecircumflex" unicode="&#xca;" horiz-adv-x="1253" 
d="M1059 758l-27 -137h-686l-94 -484h835l-28 -137h-985l264 1360h985l-25 -137h-835l-90 -465h686zM907 1718l-225 -225h-143l311 326h135l189 -326h-123z" />
    <glyph glyph-name="Edieresis" unicode="&#xcb;" horiz-adv-x="1253" 
d="M1059 758l-27 -137h-686l-94 -484h835l-28 -137h-985l264 1360h985l-25 -137h-835l-90 -465h686zM696 1737q38 0 61 -22.5t23 -59.5q0 -43 -28.5 -72t-69.5 -29q-37 0 -59.5 22.5t-22.5 57.5q0 45 27 74t69 29zM1094 1737q36 0 58 -22t22 -58q0 -45 -27.5 -74t-69.5 -29
q-38 0 -61 22.5t-23 59.5q0 42 29.5 71.5t71.5 29.5z" />
    <glyph glyph-name="Igrave" unicode="&#xcc;" horiz-adv-x="483" 
d="M74 0l264 1360h151l-264 -1360h-151zM395 1493l-198 326h147l176 -326h-125z" />
    <glyph glyph-name="Iacute" unicode="&#xcd;" horiz-adv-x="483" 
d="M74 0l264 1360h151l-264 -1360h-151zM352 1493l299 326h164l-319 -326h-144z" />
    <glyph glyph-name="Icircumflex" unicode="&#xce;" horiz-adv-x="483" 
d="M74 0l264 1360h151l-264 -1360h-151zM492 1718l-226 -225h-143l311 326h135l189 -326h-123z" />
    <glyph glyph-name="Idieresis" unicode="&#xcf;" horiz-adv-x="483" 
d="M74 0l264 1360h151l-264 -1360h-151zM281 1737q38 0 61 -22.5t23 -59.5q0 -43 -29 -72t-70 -29q-37 0 -59.5 22.5t-22.5 57.5q0 45 27.5 74t69.5 29zM678 1737q36 0 58 -22t22 -58q0 -45 -27 -74t-69 -29q-38 0 -61 22.5t-23 59.5q0 42 29 71.5t71 29.5z" />
    <glyph glyph-name="Eth" unicode="&#xd0;" horiz-adv-x="1515" 
d="M369 1360h469q305 0 476 -152.5t171 -421.5q0 -356 -219 -571t-588 -215h-574l121 625h-153l26 131h154zM283 137h401q295 0 471 175t176 462q0 213 -134 331t-378 118h-325l-91 -467h420l-26 -131h-420z" />
    <glyph glyph-name="Ntilde" unicode="&#xd1;" horiz-adv-x="1536" 
d="M1255 0h-174l-618 1214h-4l-238 -1214h-147l264 1360h205l598 -1163h4l227 1163h148zM1327 1776l-24 -138q-75 -104 -189 -104q-74 0 -153 61q-37 30 -59.5 40t-51.5 10q-106 0 -195 -127h-6l21 137q38 49 88.5 76.5t103.5 27.5q73 0 152 -61q37 -29 59 -39t51 -10
q104 0 197 127h6z" />
    <glyph glyph-name="Ograve" unicode="&#xd2;" horiz-adv-x="1566" 
d="M901 1380q285 0 459 -169t174 -439q0 -167 -60.5 -314t-165 -251.5t-251 -165.5t-312.5 -61q-286 0 -459 168.5t-173 439.5q0 222 102.5 403.5t283.5 285t402 103.5zM893 1243q-133 0 -250 -50.5t-200 -137t-131 -207t-48 -256.5q0 -213 134 -344t356 -131
q177 0 321.5 86t225.5 234t81 327q0 216 -133.5 347.5t-355.5 131.5zM936 1493l-199 326h148l176 -326h-125z" />
    <glyph glyph-name="Oacute" unicode="&#xd3;" horiz-adv-x="1566" 
d="M901 1380q285 0 459 -169t174 -439q0 -167 -60.5 -314t-165 -251.5t-251 -165.5t-312.5 -61q-286 0 -459 168.5t-173 439.5q0 222 102.5 403.5t283.5 285t402 103.5zM893 1243q-133 0 -250 -50.5t-200 -137t-131 -207t-48 -256.5q0 -213 134 -344t356 -131
q177 0 321.5 86t225.5 234t81 327q0 216 -133.5 347.5t-355.5 131.5zM893 1493l299 326h164l-320 -326h-143z" />
    <glyph glyph-name="Ocircumflex" unicode="&#xd4;" horiz-adv-x="1566" 
d="M901 1380q285 0 459 -169t174 -439q0 -167 -60.5 -314t-165 -251.5t-251 -165.5t-312.5 -61q-286 0 -459 168.5t-173 439.5q0 222 102.5 403.5t283.5 285t402 103.5zM893 1243q-133 0 -250 -50.5t-200 -137t-131 -207t-48 -256.5q0 -213 134 -344t356 -131
q177 0 321.5 86t225.5 234t81 327q0 216 -133.5 347.5t-355.5 131.5zM1032 1718l-225 -225h-143l311 326h135l188 -326h-122z" />
    <glyph glyph-name="Otilde" unicode="&#xd5;" horiz-adv-x="1566" 
d="M901 1380q285 0 459 -169t174 -439q0 -167 -60.5 -314t-165 -251.5t-251 -165.5t-312.5 -61q-286 0 -459 168.5t-173 439.5q0 222 102.5 403.5t283.5 285t402 103.5zM893 1243q-133 0 -250 -50.5t-200 -137t-131 -207t-48 -256.5q0 -213 134 -344t356 -131
q177 0 321.5 86t225.5 234t81 327q0 216 -133.5 347.5t-355.5 131.5zM1352 1776l-25 -138q-75 -104 -188 -104q-75 0 -154 61q-37 30 -59.5 40t-51.5 10q-105 0 -194 -127h-6l20 137q38 49 89 76.5t104 27.5q39 0 72.5 -13t78.5 -48q37 -29 59.5 -39t51.5 -10q104 0 197 127
h6z" />
    <glyph glyph-name="Odieresis" unicode="&#xd6;" horiz-adv-x="1566" 
d="M901 1380q285 0 459 -169t174 -439q0 -167 -60.5 -314t-165 -251.5t-251 -165.5t-312.5 -61q-286 0 -459 168.5t-173 439.5q0 222 102.5 403.5t283.5 285t402 103.5zM893 1243q-133 0 -250 -50.5t-200 -137t-131 -207t-48 -256.5q0 -213 134 -344t356 -131
q177 0 321.5 86t225.5 234t81 327q0 216 -133.5 347.5t-355.5 131.5zM821 1737q38 0 61 -22.5t23 -59.5q0 -43 -28.5 -72t-69.5 -29q-37 0 -59.5 22.5t-22.5 57.5q0 45 27 74t69 29zM1219 1737q36 0 57.5 -22t21.5 -58q0 -45 -27 -74t-69 -29q-38 0 -61 22.5t-23 59.5
q0 42 29.5 71.5t71.5 29.5z" />
    <glyph glyph-name="multiply" unicode="&#xd7;" horiz-adv-x="1331" 
d="M1124 180l-96 -82l-346 430l-514 -430l-74 95l512 428l-346 428l96 81l349 -430l514 430l71 -94l-512 -428z" />
    <glyph glyph-name="Oslash" unicode="&#xd8;" horiz-adv-x="1566" 
d="M1653 1360l-234 -215q115 -155 115 -373q0 -167 -60.5 -314t-165 -251.5t-251 -165.5t-312.5 -61q-262 0 -434 145l-137 -125h-192l241 221q-110 153 -110 367q0 222 102.5 403.5t283.5 285t402 103.5q257 0 428 -141l131 121h193zM264 592q0 -153 72 -266l883 813
q-129 104 -326 104q-133 0 -250 -50.5t-200 -137t-131 -207t-48 -256.5zM1382 764q0 160 -75 276l-885 -813q129 -110 332 -110q177 0 321.5 86t225.5 234t81 327z" />
    <glyph glyph-name="Ugrave" unicode="&#xd9;" horiz-adv-x="1423" 
d="M1462 1360l-155 -795q-56 -292 -216.5 -438.5t-437.5 -146.5q-246 0 -381 114t-135 326q0 62 17 155l151 785h152l-152 -785q-12 -67 -12 -126q0 -161 94.5 -246.5t269.5 -85.5q208 0 334.5 119t171.5 350l152 774h147zM864 1493l-198 326h147l176 -326h-125z" />
    <glyph glyph-name="Uacute" unicode="&#xda;" horiz-adv-x="1423" 
d="M1462 1360l-155 -795q-56 -292 -216.5 -438.5t-437.5 -146.5q-246 0 -381 114t-135 326q0 62 17 155l151 785h152l-152 -785q-12 -67 -12 -126q0 -161 94.5 -246.5t269.5 -85.5q208 0 334.5 119t171.5 350l152 774h147zM821 1493l299 326h164l-319 -326h-144z" />
    <glyph glyph-name="Ucircumflex" unicode="&#xdb;" horiz-adv-x="1423" 
d="M1462 1360l-155 -795q-56 -292 -216.5 -438.5t-437.5 -146.5q-246 0 -381 114t-135 326q0 62 17 155l151 785h152l-152 -785q-12 -67 -12 -126q0 -161 94.5 -246.5t269.5 -85.5q208 0 334.5 119t171.5 350l152 774h147zM961 1718l-226 -225h-143l311 326h135l189 -326
h-123z" />
    <glyph glyph-name="Udieresis" unicode="&#xdc;" horiz-adv-x="1423" 
d="M1462 1360l-155 -795q-56 -292 -216.5 -438.5t-437.5 -146.5q-246 0 -381 114t-135 326q0 62 17 155l151 785h152l-152 -785q-12 -67 -12 -126q0 -161 94.5 -246.5t269.5 -85.5q208 0 334.5 119t171.5 350l152 774h147zM750 1737q38 0 61 -22.5t23 -59.5q0 -43 -29 -72
t-70 -29q-37 0 -59.5 22.5t-22.5 57.5q0 45 27.5 74t69.5 29zM1147 1737q36 0 58 -22t22 -58q0 -45 -27.5 -74t-69.5 -29q-38 0 -60.5 22.5t-22.5 59.5q0 42 29.5 71.5t70.5 29.5z" />
    <glyph glyph-name="Yacute" unicode="&#xdd;" horiz-adv-x="1359" 
d="M664 0h-152l119 604l-438 756h176l354 -629l598 629h192l-733 -760zM791 1493l299 326h163l-319 -326h-143z" />
    <glyph glyph-name="Thorn" unicode="&#xde;" horiz-adv-x="1286" 
d="M438 1128h393q213 0 323 -90t110 -264q0 -235 -135 -360t-390 -125h-465l-55 -289h-151l264 1360h151zM815 991h-403l-111 -565h444q178 0 272.5 86.5t94.5 245.5q0 233 -297 233z" />
    <glyph glyph-name="germandbls" unicode="&#xdf;" horiz-adv-x="1150" 
d="M733 1454q148 0 232 -67.5t84 -186.5q0 -110 -47 -190.5t-160 -153.5q-66 -43 -90.5 -75t-24.5 -68q0 -37 27.5 -62.5t95.5 -48.5q111 -36 158 -97t47 -161q0 -170 -107 -267t-295 -97q-221 0 -327 98l28 145h6q40 -57 114.5 -89t166.5 -32q126 0 202.5 63t76.5 167
q0 53 -32 87t-114 64q-99 36 -139.5 85.5t-40.5 129.5q0 83 37 141t131 117q85 53 118 102t33 118q0 75 -50 115t-144 40q-145 0 -224 -68.5t-108 -220.5l-203 -1042h-137l205 1061q40 201 157.5 297t323.5 96z" />
    <glyph glyph-name="agrave" unicode="&#xe0;" horiz-adv-x="1220" 
d="M987 0h-117l27 145h-4q-68 -79 -167 -122t-218 -43q-195 0 -314.5 121.5t-119.5 314.5q0 155 71.5 284t195.5 203t273 74q151 0 252 -58.5t142 -162.5h4l41 200h121zM535 102q176 0 296.5 124t120.5 311q0 142 -88.5 229.5t-234.5 87.5q-176 0 -297 -124.5t-121 -311.5
q0 -141 89 -228.5t235 -87.5zM655 1106l-198 326h147l176 -326h-125z" />
    <glyph glyph-name="aacute" unicode="&#xe1;" horiz-adv-x="1220" 
d="M987 0h-117l27 145h-4q-68 -79 -167 -122t-218 -43q-195 0 -314.5 121.5t-119.5 314.5q0 155 71.5 284t195.5 203t273 74q151 0 252 -58.5t142 -162.5h4l41 200h121zM535 102q176 0 296.5 124t120.5 311q0 142 -88.5 229.5t-234.5 87.5q-176 0 -297 -124.5t-121 -311.5
q0 -141 89 -228.5t235 -87.5zM612 1106l299 326h164l-319 -326h-144z" />
    <glyph glyph-name="acircumflex" unicode="&#xe2;" horiz-adv-x="1220" 
d="M987 0h-117l27 145h-4q-68 -79 -167 -122t-218 -43q-195 0 -314.5 121.5t-119.5 314.5q0 155 71.5 284t195.5 203t273 74q151 0 252 -58.5t142 -162.5h4l41 200h121zM535 102q176 0 296.5 124t120.5 311q0 142 -88.5 229.5t-234.5 87.5q-176 0 -297 -124.5t-121 -311.5
q0 -141 89 -228.5t235 -87.5zM752 1331l-226 -225h-143l311 326h135l189 -326h-123z" />
    <glyph glyph-name="atilde" unicode="&#xe3;" horiz-adv-x="1220" 
d="M987 0h-117l27 145h-4q-68 -79 -167 -122t-218 -43q-195 0 -314.5 121.5t-119.5 314.5q0 155 71.5 284t195.5 203t273 74q151 0 252 -58.5t142 -162.5h4l41 200h121zM535 102q176 0 296.5 124t120.5 311q0 142 -88.5 229.5t-234.5 87.5q-176 0 -297 -124.5t-121 -311.5
q0 -141 89 -228.5t235 -87.5zM1071 1389l-24 -138q-75 -104 -189 -104q-74 0 -153 61q-37 29 -59.5 39t-51.5 10q-106 0 -195 -127h-6l21 138q38 49 88.5 76.5t103.5 27.5q73 0 152 -61q37 -29 59 -39t51 -10q104 0 197 127h6z" />
    <glyph glyph-name="adieresis" unicode="&#xe4;" horiz-adv-x="1220" 
d="M987 0h-117l27 145h-4q-68 -79 -167 -122t-218 -43q-195 0 -314.5 121.5t-119.5 314.5q0 155 71.5 284t195.5 203t273 74q151 0 252 -58.5t142 -162.5h4l41 200h121zM535 102q176 0 296.5 124t120.5 311q0 142 -88.5 229.5t-234.5 87.5q-176 0 -297 -124.5t-121 -311.5
q0 -141 89 -228.5t235 -87.5zM541 1350q38 0 61 -22.5t23 -59.5q0 -43 -29 -72t-70 -29q-37 0 -59.5 22.5t-22.5 57.5q0 45 27.5 74t69.5 29zM938 1350q36 0 58 -22t22 -58q0 -45 -27 -74t-69 -29q-38 0 -61 22.5t-23 59.5q0 43 29 72t71 29z" />
    <glyph glyph-name="aring" unicode="&#xe5;" horiz-adv-x="1220" 
d="M987 0h-117l27 145h-4q-68 -79 -167 -122t-218 -43q-195 0 -314.5 121.5t-119.5 314.5q0 155 71.5 284t195.5 203t273 74q151 0 252 -58.5t142 -162.5h4l41 200h121zM535 102q176 0 296.5 124t120.5 311q0 142 -88.5 229.5t-234.5 87.5q-176 0 -297 -124.5t-121 -311.5
q0 -141 89 -228.5t235 -87.5zM750 1458q74 0 122 -46t48 -116q0 -90 -58 -150.5t-143 -60.5q-75 0 -123.5 47t-48.5 119q0 88 59.5 147.5t143.5 59.5zM745 1360q-40 0 -69 -28t-29 -70q0 -33 21.5 -55.5t54.5 -22.5q40 0 69 28t29 70q0 33 -21.5 55.5t-54.5 22.5z" />
    <glyph glyph-name="ae" unicode="&#xe6;" horiz-adv-x="2009" 
d="M1081 436v-16q0 -146 101 -232t272 -86q201 0 369 148h6l-33 -164q-63 -50 -152.5 -78t-187.5 -28q-165 0 -278 59t-160 164h-4l-41 -203h-107l27 143h-4q-137 -163 -381 -163q-195 0 -314.5 121.5t-119.5 314.5q0 155 71.5 284t195.5 203t273 74q144 0 247.5 -58
t146.5 -159h4l41 196h106l-29 -147h5q139 168 389 168q193 0 306.5 -105t113.5 -280q0 -40 -21 -156h-842zM535 102q176 0 296.5 124t120.5 311q0 142 -88.5 229.5t-234.5 87.5q-176 0 -297 -124.5t-121 -311.5q0 -141 89 -228.5t235 -87.5zM1501 854q-143 0 -251 -82
t-148 -217h713q0 139 -82 219t-232 80z" />
    <glyph glyph-name="ccedilla" unicode="&#xe7;" horiz-adv-x="999" 
d="M643 977q107 0 201 -29t145 -80l-28 -139h-7q-96 125 -305 125q-190 0 -314 -122t-124 -306q0 -145 93.5 -234.5t242.5 -89.5q97 0 166.5 30t142.5 97h6l-31 -163q-123 -86 -290 -86h-15l-71 -99v-4q77 -1 117 -34.5t40 -88.5q0 -164 -219 -164q-121 0 -180 39l23 99h6
q51 -45 151 -45q107 0 107 67q0 57 -90 57q-41 0 -93 -18l2 31l121 168q-171 28 -268.5 143.5t-97.5 286.5q0 157 73.5 285t204 201t291.5 73z" />
    <glyph glyph-name="egrave" unicode="&#xe8;" horiz-adv-x="1138" 
d="M639 977q201 0 317.5 -105.5t116.5 -281.5q0 -44 -20 -154h-842v-16q0 -146 100.5 -232t270.5 -86q202 0 370 148h6l-32 -164q-63 -50 -157.5 -78t-199.5 -28q-229 0 -362 117t-133 315q0 243 160.5 404t404.5 161zM631 854q-143 0 -251.5 -82t-148.5 -217h713
q0 139 -81.5 219t-231.5 80zM653 1106l-198 326h147l176 -326h-125z" />
    <glyph glyph-name="eacute" unicode="&#xe9;" horiz-adv-x="1138" 
d="M639 977q201 0 317.5 -105.5t116.5 -281.5q0 -44 -20 -154h-842v-16q0 -146 100.5 -232t270.5 -86q202 0 370 148h6l-32 -164q-63 -50 -157.5 -78t-199.5 -28q-229 0 -362 117t-133 315q0 243 160.5 404t404.5 161zM631 854q-143 0 -251.5 -82t-148.5 -217h713
q0 139 -81.5 219t-231.5 80zM610 1106l299 326h164l-319 -326h-144z" />
    <glyph glyph-name="ecircumflex" unicode="&#xea;" horiz-adv-x="1138" 
d="M639 977q201 0 317.5 -105.5t116.5 -281.5q0 -44 -20 -154h-842v-16q0 -146 100.5 -232t270.5 -86q202 0 370 148h6l-32 -164q-63 -50 -157.5 -78t-199.5 -28q-229 0 -362 117t-133 315q0 243 160.5 404t404.5 161zM631 854q-143 0 -251.5 -82t-148.5 -217h713
q0 139 -81.5 219t-231.5 80zM750 1331l-226 -225h-143l311 326h135l189 -326h-123z" />
    <glyph glyph-name="edieresis" unicode="&#xeb;" horiz-adv-x="1138" 
d="M639 977q201 0 317.5 -105.5t116.5 -281.5q0 -44 -20 -154h-842v-16q0 -146 100.5 -232t270.5 -86q202 0 370 148h6l-32 -164q-63 -50 -157.5 -78t-199.5 -28q-229 0 -362 117t-133 315q0 243 160.5 404t404.5 161zM631 854q-143 0 -251.5 -82t-148.5 -217h713
q0 139 -81.5 219t-231.5 80zM539 1350q38 0 61 -22.5t23 -59.5q0 -43 -29 -72t-70 -29q-37 0 -59.5 22.5t-22.5 57.5q0 45 27.5 74t69.5 29zM936 1350q36 0 58 -22t22 -58q0 -45 -27 -74t-69 -29q-38 0 -61 22.5t-23 59.5q0 43 29 72t71 29z" />
    <glyph glyph-name="igrave" unicode="&#xec;" horiz-adv-x="417" 
d="M371 956l-187 -956h-137l186 956h138zM285 1106l-199 326h147l177 -326h-125z" />
    <glyph glyph-name="iacute" unicode="&#xed;" horiz-adv-x="417" 
d="M371 956l-187 -956h-137l186 956h138zM242 1106l299 326h164l-320 -326h-143z" />
    <glyph glyph-name="icircumflex" unicode="&#xee;" horiz-adv-x="417" 
d="M371 956l-187 -956h-137l186 956h138zM381 1331l-225 -225h-144l312 326h135l188 -326h-123z" />
    <glyph glyph-name="idieresis" unicode="&#xef;" horiz-adv-x="417" 
d="M371 956l-187 -956h-137l186 956h138zM170 1350q38 0 61 -22.5t23 -59.5q0 -43 -28.5 -72t-69.5 -29q-37 0 -59.5 22.5t-22.5 57.5q0 45 27 74t69 29zM567 1350q36 0 58 -22t22 -58q0 -45 -27 -74t-69 -29q-38 0 -61 22.5t-23 59.5q0 43 29.5 72t70.5 29z" />
    <glyph glyph-name="eth" unicode="&#xf0;" horiz-adv-x="1163" 
d="M1087 1231l-131 -39q144 -204 144 -520q0 -104 -10 -180q-31 -232 -186.5 -372t-375.5 -140q-205 0 -329.5 121t-124.5 317q0 154 71.5 282.5t196 202.5t272.5 74q232 0 338 -154h4q-28 191 -131 330l-362 -106l24 122l256 76q-111 108 -288 182v7h225q96 -47 199 -150
l233 70zM535 102q176 0 296.5 124t120.5 311q0 142 -88.5 229.5t-234.5 87.5q-176 0 -297 -124.5t-121 -311.5q0 -141 89 -228.5t235 -87.5z" />
    <glyph glyph-name="ntilde" unicode="&#xf1;" horiz-adv-x="1140" 
d="M713 977q160 0 249 -85t89 -235q0 -47 -13 -110l-106 -547h-137l104 537q8 41 8 88q0 109 -61 169t-176 60q-148 0 -253.5 -97.5t-137.5 -264.5l-95 -492h-137l186 956h117l-28 -168h4q137 189 387 189zM1063 1389l-25 -138q-75 -104 -188 -104q-75 0 -154 61
q-37 29 -59 39t-51 10q-106 0 -195 -127h-6l21 138q38 49 88.5 76.5t103.5 27.5q73 0 152 -61q37 -29 59 -39t51 -10q104 0 197 127h6z" />
    <glyph glyph-name="ograve" unicode="&#xf2;" horiz-adv-x="1163" 
d="M635 977q205 0 330 -121t125 -317q0 -155 -73.5 -283.5t-202.5 -202t-286 -73.5q-205 0 -329.5 121t-124.5 317q0 155 73.5 283.5t202.5 202t285 73.5zM629 854q-176 0 -297 -124.5t-121 -311.5q0 -141 89 -228.5t235 -87.5q176 0 296.5 124t120.5 311q0 142 -88.5 229.5
t-234.5 87.5zM657 1106l-198 326h147l176 -326h-125z" />
    <glyph glyph-name="oacute" unicode="&#xf3;" horiz-adv-x="1163" 
d="M635 977q205 0 330 -121t125 -317q0 -155 -73.5 -283.5t-202.5 -202t-286 -73.5q-205 0 -329.5 121t-124.5 317q0 155 73.5 283.5t202.5 202t285 73.5zM629 854q-176 0 -297 -124.5t-121 -311.5q0 -141 89 -228.5t235 -87.5q176 0 296.5 124t120.5 311q0 142 -88.5 229.5
t-234.5 87.5zM614 1106l299 326h164l-319 -326h-144z" />
    <glyph glyph-name="ocircumflex" unicode="&#xf4;" horiz-adv-x="1163" 
d="M635 977q205 0 330 -121t125 -317q0 -155 -73.5 -283.5t-202.5 -202t-286 -73.5q-205 0 -329.5 121t-124.5 317q0 155 73.5 283.5t202.5 202t285 73.5zM629 854q-176 0 -297 -124.5t-121 -311.5q0 -141 89 -228.5t235 -87.5q176 0 296.5 124t120.5 311q0 142 -88.5 229.5
t-234.5 87.5zM754 1331l-226 -225h-143l311 326h135l189 -326h-123z" />
    <glyph glyph-name="otilde" unicode="&#xf5;" horiz-adv-x="1163" 
d="M635 977q205 0 330 -121t125 -317q0 -155 -73.5 -283.5t-202.5 -202t-286 -73.5q-205 0 -329.5 121t-124.5 317q0 155 73.5 283.5t202.5 202t285 73.5zM629 854q-176 0 -297 -124.5t-121 -311.5q0 -141 89 -228.5t235 -87.5q176 0 296.5 124t120.5 311q0 142 -88.5 229.5
t-234.5 87.5zM1073 1389l-24 -138q-75 -104 -189 -104q-74 0 -153 61q-37 29 -59.5 39t-51.5 10q-106 0 -195 -127h-6l21 138q38 49 88.5 76.5t103.5 27.5q73 0 152 -61q37 -29 59 -39t51 -10q104 0 197 127h6z" />
    <glyph glyph-name="odieresis" unicode="&#xf6;" horiz-adv-x="1163" 
d="M635 977q205 0 330 -121t125 -317q0 -155 -73.5 -283.5t-202.5 -202t-286 -73.5q-205 0 -329.5 121t-124.5 317q0 155 73.5 283.5t202.5 202t285 73.5zM629 854q-176 0 -297 -124.5t-121 -311.5q0 -141 89 -228.5t235 -87.5q176 0 296.5 124t120.5 311q0 142 -88.5 229.5
t-234.5 87.5zM543 1350q38 0 61 -22.5t23 -59.5q0 -43 -29 -72t-70 -29q-37 0 -59.5 22.5t-22.5 57.5q0 45 27.5 74t69.5 29zM940 1350q36 0 58 -22t22 -58q0 -45 -27 -74t-69 -29q-38 0 -61 22.5t-23 59.5q0 43 29 72t71 29z" />
    <glyph glyph-name="divide" unicode="&#xf7;" horiz-adv-x="1331" 
d="M104 553l23 123h1153l-23 -123h-1153zM606 215q37 0 58.5 -21.5t21.5 -56.5q0 -43 -27.5 -70.5t-68.5 -27.5q-36 0 -58 21t-22 55q0 44 26.5 72t69.5 28zM795 1190q37 0 58 -21t21 -57q0 -43 -27.5 -70.5t-68.5 -27.5q-36 0 -58 21t-22 55q0 44 27 72t70 28z" />
    <glyph glyph-name="oslash" unicode="&#xf8;" horiz-adv-x="1163" 
d="M1184 956l-170 -157q76 -112 76 -260q0 -155 -73.5 -283.5t-202.5 -202t-286 -73.5q-176 0 -295 92l-75 -72h-170l166 154q-80 113 -80 264q0 155 73.5 283.5t202.5 202t285 73.5q178 0 299 -94l80 73h170zM211 418q0 -100 43 -170l582 543q-81 63 -207 63
q-176 0 -297 -124.5t-121 -311.5zM952 537q0 94 -41 165l-579 -540q86 -60 203 -60q176 0 296.5 124t120.5 311z" />
    <glyph glyph-name="ugrave" unicode="&#xf9;" horiz-adv-x="1140" 
d="M907 0h-116l28 164h-4q-139 -184 -387 -184q-160 0 -249 84.5t-89 234.5q0 53 12 111l107 546h137l-106 -536q-9 -47 -9 -86q0 -111 62.5 -171.5t179.5 -60.5q148 0 252.5 97t136.5 266l94 491h138zM649 1106l-198 326h147l176 -326h-125z" />
    <glyph glyph-name="uacute" unicode="&#xfa;" horiz-adv-x="1140" 
d="M907 0h-116l28 164h-4q-139 -184 -387 -184q-160 0 -249 84.5t-89 234.5q0 53 12 111l107 546h137l-106 -536q-9 -47 -9 -86q0 -111 62.5 -171.5t179.5 -60.5q148 0 252.5 97t136.5 266l94 491h138zM592 1106l299 326h164l-320 -326h-143z" />
    <glyph glyph-name="ucircumflex" unicode="&#xfb;" horiz-adv-x="1140" 
d="M907 0h-116l28 164h-4q-139 -184 -387 -184q-160 0 -249 84.5t-89 234.5q0 53 12 111l107 546h137l-106 -536q-9 -47 -9 -86q0 -111 62.5 -171.5t179.5 -60.5q148 0 252.5 97t136.5 266l94 491h138zM739 1331l-225 -225h-143l311 326h135l189 -326h-123z" />
    <glyph glyph-name="udieresis" unicode="&#xfc;" horiz-adv-x="1140" 
d="M907 0h-116l28 164h-4q-139 -184 -387 -184q-160 0 -249 84.5t-89 234.5q0 53 12 111l107 546h137l-106 -536q-9 -47 -9 -86q0 -111 62.5 -171.5t179.5 -60.5q148 0 252.5 97t136.5 266l94 491h138zM526 1350q38 0 61 -22.5t23 -59.5q0 -43 -28.5 -72t-69.5 -29
q-37 0 -59.5 22.5t-22.5 57.5q0 45 27 74t69 29zM924 1350q36 0 58 -22t22 -58q0 -45 -27.5 -74t-69.5 -29q-38 0 -61 22.5t-23 59.5q0 42 29.5 71.5t71.5 29.5z" />
    <glyph glyph-name="yacute" unicode="&#xfd;" horiz-adv-x="1009" 
d="M207 -389h-150l289 428l-233 917h141l188 -768h4l490 768h149zM539 1106l299 326h163l-319 -326h-143z" />
    <glyph glyph-name="thorn" unicode="&#xfe;" horiz-adv-x="1220" 
d="M711 977q196 0 316 -121t120 -315q0 -155 -71 -284t-195.5 -203t-274.5 -74q-141 0 -240.5 52.5t-144.5 145.5h-4l-108 -567h-138l355 1823h137l-119 -600h4q146 143 363 143zM590 102q177 0 298.5 124.5t121.5 305.5q0 145 -88.5 233.5t-235.5 88.5q-178 0 -299 -125
t-121 -307q0 -143 88.5 -231.5t235.5 -88.5z" />
    <glyph glyph-name="ydieresis" unicode="&#xff;" horiz-adv-x="1009" 
d="M207 -389h-150l289 428l-233 917h141l188 -768h4l490 768h149zM467 1350q38 0 61 -22.5t23 -59.5q0 -43 -28.5 -72t-69.5 -29q-37 0 -59.5 22.5t-22.5 57.5q0 45 27 74t69 29zM864 1350q36 0 58 -22t22 -58q0 -45 -27 -74t-69 -29q-38 0 -61 22.5t-23 59.5q0 43 29 72
t71 29z" />
    <glyph glyph-name="Amacron" unicode="&#x100;" horiz-adv-x="1484" 
d="M1194 0l-78 305h-801l-198 -305h-168l893 1360h143l367 -1360h-158zM887 1186h-4l-480 -744h676zM645 1585l23 113h632l-22 -113h-633z" />
    <glyph glyph-name="amacron" unicode="&#x101;" horiz-adv-x="1220" 
d="M987 0h-117l27 145h-4q-68 -79 -167 -122t-218 -43q-195 0 -314.5 121.5t-119.5 314.5q0 155 71.5 284t195.5 203t273 74q151 0 252 -58.5t142 -162.5h4l41 200h121zM535 102q176 0 296.5 124t120.5 311q0 142 -88.5 229.5t-234.5 87.5q-176 0 -297 -124.5t-121 -311.5
q0 -141 89 -228.5t235 -87.5zM403 1198l23 113h633l-23 -113h-633z" />
    <glyph glyph-name="Abreve" unicode="&#x102;" horiz-adv-x="1484" 
d="M1194 0l-78 305h-801l-198 -305h-168l893 1360h143l367 -1360h-158zM887 1186h-4l-480 -744h676zM1219 1796h106q-38 -141 -131 -213t-231 -72q-136 0 -210.5 72t-74.5 203v10h106q6 -170 185 -170q182 0 250 170z" />
    <glyph glyph-name="abreve" unicode="&#x103;" horiz-adv-x="1220" 
d="M987 0h-117l27 145h-4q-68 -79 -167 -122t-218 -43q-195 0 -314.5 121.5t-119.5 314.5q0 155 71.5 284t195.5 203t273 74q151 0 252 -58.5t142 -162.5h4l41 200h121zM535 102q176 0 296.5 124t120.5 311q0 142 -88.5 229.5t-234.5 87.5q-176 0 -297 -124.5t-121 -311.5
q0 -141 89 -228.5t235 -87.5zM977 1409h106q-38 -141 -131 -213t-231 -72q-136 0 -210.5 72t-74.5 203v10h107q6 -170 184 -170q182 0 250 170z" />
    <glyph glyph-name="Aogonek" unicode="&#x104;" horiz-adv-x="1484" 
d="M1145 -313q76 0 151 57h7l-23 -115q-62 -39 -152 -39q-84 0 -132 43t-48 111q0 84 60.5 159.5t175.5 133.5l-68 268h-801l-198 -305h-168l893 1360h143l367 -1360h-49q-110 -45 -176 -109t-66 -131q0 -34 23 -53.5t61 -19.5zM887 1186h-4l-480 -744h676z" />
    <glyph glyph-name="aogonek" unicode="&#x105;" horiz-adv-x="1220" 
d="M987 0h-49q-110 -45 -176 -109t-66 -131q0 -34 23 -53.5t61 -19.5q77 0 152 57h6l-23 -115q-62 -39 -151 -39q-84 0 -132 43t-48 111q0 95 77 179t222 143l14 79h-4q-68 -79 -167 -122t-218 -43q-195 0 -314.5 121.5t-119.5 314.5q0 155 71.5 284t195.5 203t273 74
q151 0 252 -58.5t142 -162.5h4l41 200h121zM535 102q176 0 296.5 124t120.5 311q0 142 -88.5 229.5t-234.5 87.5q-176 0 -297 -124.5t-121 -311.5q0 -141 89 -228.5t235 -87.5z" />
    <glyph glyph-name="Cacute" unicode="&#x106;" horiz-adv-x="1347" 
d="M913 1380q150 0 279.5 -38t200.5 -109l-33 -160h-8q-57 83 -178.5 126.5t-262.5 43.5q-183 0 -331 -84.5t-232 -233t-84 -331.5q0 -216 138.5 -346.5t369.5 -130.5q251 0 428 180h8l-37 -191q-81 -62 -180 -94t-237 -32q-292 0 -466.5 167.5t-174.5 438.5
q0 168 60.5 315.5t166 252.5t254.5 165.5t319 60.5zM862 1493l299 326h164l-319 -326h-144z" />
    <glyph glyph-name="cacute" unicode="&#x107;" horiz-adv-x="999" 
d="M643 977q107 0 201 -29t145 -80l-28 -139h-7q-96 125 -305 125q-190 0 -314 -122t-124 -306q0 -145 93.5 -234.5t242.5 -89.5q98 0 167.5 29.5t141.5 95.5h6l-31 -164q-119 -83 -288 -83q-216 0 -342.5 121t-126.5 317q0 157 73.5 285t204 201t291.5 73zM592 1106
l299 326h164l-320 -326h-143z" />
    <glyph glyph-name="Ccircumflex" unicode="&#x108;" horiz-adv-x="1347" 
d="M913 1380q150 0 279.5 -38t200.5 -109l-33 -160h-8q-57 83 -178.5 126.5t-262.5 43.5q-183 0 -331 -84.5t-232 -233t-84 -331.5q0 -216 138.5 -346.5t369.5 -130.5q251 0 428 180h8l-37 -191q-81 -62 -180 -94t-237 -32q-292 0 -466.5 167.5t-174.5 438.5
q0 168 60.5 315.5t166 252.5t254.5 165.5t319 60.5zM1001 1718l-225 -225h-143l311 326h135l189 -326h-123z" />
    <glyph glyph-name="ccircumflex" unicode="&#x109;" horiz-adv-x="999" 
d="M643 977q107 0 201 -29t145 -80l-28 -139h-7q-96 125 -305 125q-190 0 -314 -122t-124 -306q0 -145 93.5 -234.5t242.5 -89.5q98 0 167.5 29.5t141.5 95.5h6l-31 -164q-119 -83 -288 -83q-216 0 -342.5 121t-126.5 317q0 157 73.5 285t204 201t291.5 73zM731 1331
l-225 -225h-144l312 326h135l188 -326h-123z" />
    <glyph glyph-name="Cdotaccent" unicode="&#x10a;" horiz-adv-x="1347" 
d="M913 1380q150 0 279.5 -38t200.5 -109l-33 -160h-8q-57 83 -178.5 126.5t-262.5 43.5q-183 0 -331 -84.5t-232 -233t-84 -331.5q0 -216 138.5 -346.5t369.5 -130.5q251 0 428 180h8l-37 -191q-81 -62 -180 -94t-237 -32q-292 0 -466.5 167.5t-174.5 438.5
q0 168 60.5 315.5t166 252.5t254.5 165.5t319 60.5zM989 1743q41 0 64.5 -24t23.5 -64q0 -45 -30.5 -75t-73.5 -30q-39 0 -63.5 23.5t-24.5 60.5q0 47 30 78t74 31z" />
    <glyph glyph-name="cdotaccent" unicode="&#x10b;" horiz-adv-x="999" 
d="M643 977q107 0 201 -29t145 -80l-28 -139h-7q-96 125 -305 125q-190 0 -314 -122t-124 -306q0 -145 93.5 -234.5t242.5 -89.5q98 0 167.5 29.5t141.5 95.5h6l-31 -164q-119 -83 -288 -83q-216 0 -342.5 121t-126.5 317q0 157 73.5 285t204 201t291.5 73zM719 1356
q41 0 64.5 -24t23.5 -64q0 -45 -31 -75t-74 -30q-39 0 -63.5 23.5t-24.5 60.5q0 47 30 78t75 31z" />
    <glyph glyph-name="Ccaron" unicode="&#x10c;" horiz-adv-x="1347" 
d="M913 1380q150 0 279.5 -38t200.5 -109l-33 -160h-8q-57 83 -178.5 126.5t-262.5 43.5q-183 0 -331 -84.5t-232 -233t-84 -331.5q0 -216 138.5 -346.5t369.5 -130.5q251 0 428 180h8l-37 -191q-81 -62 -180 -94t-237 -32q-292 0 -466.5 167.5t-174.5 438.5
q0 168 60.5 315.5t166 252.5t254.5 165.5t319 60.5zM1020 1493h-135l-189 326h127l140 -224l225 224h145z" />
    <glyph glyph-name="ccaron" unicode="&#x10d;" horiz-adv-x="999" 
d="M643 977q107 0 201 -29t145 -80l-28 -139h-7q-96 125 -305 125q-190 0 -314 -122t-124 -306q0 -145 93.5 -234.5t242.5 -89.5q98 0 167.5 29.5t141.5 95.5h6l-31 -164q-119 -83 -288 -83q-216 0 -342.5 121t-126.5 317q0 157 73.5 285t204 201t291.5 73zM750 1106h-136
l-188 326h127l139 -224l226 224h145z" />
    <glyph glyph-name="Dcaron" unicode="&#x10e;" horiz-adv-x="1486" 
d="M338 1360h469q305 0 476 -152.5t171 -421.5q0 -356 -219 -571t-588 -215h-573zM1300 774q0 213 -134 331t-378 118h-325l-211 -1086h401q295 0 471 175t176 462zM956 1493h-135l-188 326h127l139 -224l225 224h146z" />
    <glyph glyph-name="dcaron" unicode="&#x10f;" horiz-adv-x="1220" 
d="M987 0h-117l27 145h-4q-68 -79 -167 -122t-218 -43q-195 0 -314.5 121.5t-119.5 314.5q0 155 71.5 284t195.5 203t273 74q142 0 241 -52.5t144 -146.5h5l124 656h138zM535 102q176 0 296.5 124t120.5 311q0 142 -88.5 229.5t-234.5 87.5q-176 0 -297 -124.5t-121 -311.5
q0 -141 89 -228.5t235 -87.5zM1278 1055l137 379h141l-170 -379h-108z" />
    <glyph glyph-name="Dcroat" unicode="&#x110;" horiz-adv-x="1515" 
d="M369 1360h469q305 0 476 -152.5t171 -421.5q0 -356 -219 -571t-588 -215h-574l121 625h-153l26 131h154zM283 137h401q295 0 471 175t176 462q0 213 -134 331t-378 118h-325l-91 -467h420l-26 -131h-420z" />
    <glyph glyph-name="dcroat" unicode="&#x111;" horiz-adv-x="1241" 
d="M987 0h-117l27 145h-4q-68 -79 -167 -122t-218 -43q-195 0 -314.5 121.5t-119.5 314.5q0 155 71.5 284t195.5 203t273 74q142 0 241 -52.5t144 -146.5h5l61 318h-406l25 116h401l43 222h138l-43 -222h159l-24 -116h-158zM535 102q176 0 296.5 124t120.5 311
q0 142 -88.5 229.5t-234.5 87.5q-176 0 -297 -124.5t-121 -311.5q0 -141 89 -228.5t235 -87.5z" />
    <glyph glyph-name="Emacron" unicode="&#x112;" horiz-adv-x="1253" 
d="M1059 758l-27 -137h-686l-94 -484h835l-28 -137h-985l264 1360h985l-25 -137h-835l-90 -465h686zM559 1585l23 113h632l-22 -113h-633z" />
    <glyph glyph-name="emacron" unicode="&#x113;" horiz-adv-x="1138" 
d="M639 977q201 0 317.5 -105.5t116.5 -281.5q0 -44 -20 -154h-842v-16q0 -146 100.5 -232t270.5 -86q202 0 370 148h6l-32 -164q-63 -50 -157.5 -78t-199.5 -28q-229 0 -362 117t-133 315q0 243 160.5 404t404.5 161zM631 854q-143 0 -251.5 -82t-148.5 -217h713
q0 139 -81.5 219t-231.5 80zM401 1198l23 113h633l-23 -113h-633z" />
    <glyph glyph-name="Ebreve" unicode="&#x114;" horiz-adv-x="1253" 
d="M1059 758l-27 -137h-686l-94 -484h835l-28 -137h-985l264 1360h985l-25 -137h-835l-90 -465h686zM1133 1796h106q-38 -141 -131 -213t-231 -72q-136 0 -210.5 72t-74.5 203v10h106q6 -170 185 -170q182 0 250 170z" />
    <glyph glyph-name="ebreve" unicode="&#x115;" horiz-adv-x="1138" 
d="M639 977q201 0 317.5 -105.5t116.5 -281.5q0 -44 -20 -154h-842v-16q0 -146 100.5 -232t270.5 -86q202 0 370 148h6l-32 -164q-63 -50 -157.5 -78t-199.5 -28q-229 0 -362 117t-133 315q0 243 160.5 404t404.5 161zM631 854q-143 0 -251.5 -82t-148.5 -217h713
q0 139 -81.5 219t-231.5 80zM975 1409h106q-38 -141 -131 -213t-231 -72q-136 0 -210.5 72t-74.5 203v10h107q6 -170 184 -170q182 0 250 170z" />
    <glyph glyph-name="Edotaccent" unicode="&#x116;" horiz-adv-x="1253" 
d="M1059 758l-27 -137h-686l-94 -484h835l-28 -137h-985l264 1360h985l-25 -137h-835l-90 -465h686zM895 1743q41 0 64.5 -24t23.5 -64q0 -45 -30.5 -75t-73.5 -30q-39 0 -63.5 23.5t-24.5 60.5q0 47 30 78t74 31z" />
    <glyph glyph-name="edotaccent" unicode="&#x117;" horiz-adv-x="1138" 
d="M639 977q201 0 317.5 -105.5t116.5 -281.5q0 -44 -20 -154h-842v-16q0 -146 100.5 -232t270.5 -86q202 0 370 148h6l-32 -164q-63 -50 -157.5 -78t-199.5 -28q-229 0 -362 117t-133 315q0 243 160.5 404t404.5 161zM631 854q-143 0 -251.5 -82t-148.5 -217h713
q0 139 -81.5 219t-231.5 80zM737 1356q41 0 64.5 -24t23.5 -64q0 -45 -30.5 -75t-73.5 -30q-39 0 -63.5 23.5t-24.5 60.5q0 47 30 78t74 31z" />
    <glyph glyph-name="Eogonek" unicode="&#x118;" horiz-adv-x="1253" 
d="M373 758h686l-27 -137h-686l-94 -484h835l-28 -137h-49q-110 -45 -176 -109t-66 -131q0 -34 23 -53.5t61 -19.5q77 0 152 57h6l-23 -115q-62 -39 -151 -39q-84 0 -132.5 43t-48.5 111q0 137 170 252v4h-751l264 1360h985l-25 -137h-835z" />
    <glyph glyph-name="eogonek" unicode="&#x119;" horiz-adv-x="1138" 
d="M211 436v-16q0 -146 100.5 -232t270.5 -86q202 0 370 148h6l-32 -164q-34 -26 -127 -74q-110 -58 -167 -116t-57 -127q0 -37 24.5 -59.5t66.5 -22.5q77 0 149 57h6l-22 -115q-51 -39 -152 -39q-87 0 -134.5 45t-47.5 117q0 122 123 223v5h-19q-229 0 -362 117t-133 315
q0 243 160.5 404t404.5 161q201 0 317.5 -105.5t116.5 -281.5q0 -44 -20 -154h-842zM631 854q-143 0 -251.5 -82t-148.5 -217h713q0 139 -81.5 219t-231.5 80z" />
    <glyph glyph-name="Ecaron" unicode="&#x11a;" horiz-adv-x="1253" 
d="M1059 758l-27 -137h-686l-94 -484h835l-28 -137h-985l264 1360h985l-25 -137h-835l-90 -465h686zM926 1493h-135l-189 326h127l139 -224l226 224h145z" />
    <glyph glyph-name="ecaron" unicode="&#x11b;" horiz-adv-x="1138" 
d="M639 977q201 0 317.5 -105.5t116.5 -281.5q0 -44 -20 -154h-842v-16q0 -146 100.5 -232t270.5 -86q202 0 370 148h6l-32 -164q-63 -50 -157.5 -78t-199.5 -28q-229 0 -362 117t-133 315q0 243 160.5 404t404.5 161zM631 854q-143 0 -251.5 -82t-148.5 -217h713
q0 139 -81.5 219t-231.5 80zM768 1106h-135l-189 326h127l140 -224l225 224h145z" />
    <glyph glyph-name="Gcircumflex" unicode="&#x11c;" horiz-adv-x="1445" 
d="M928 1380q167 0 305.5 -38t222.5 -111l-31 -160h-8q-152 172 -491 172q-143 0 -266.5 -49.5t-210 -136t-136 -207t-49.5 -258.5q0 -218 140.5 -346.5t379.5 -128.5q186 0 326 73l70 355h-435l29 137h578l-109 -563q-114 -76 -217 -107.5t-254 -31.5q-305 0 -483 161.5
t-178 433.5q0 230 102 413t289 287.5t426 104.5zM1020 1718l-225 -225h-144l312 326h135l188 -326h-123z" />
    <glyph glyph-name="gcircumflex" unicode="&#x11d;" horiz-adv-x="1220" 
d="M1174 956l-173 -884q-45 -232 -191.5 -357t-381.5 -125q-276 0 -403 140l24 137h6q114 -154 373 -154q365 0 438 369l8 47h-4q-140 -143 -360 -143q-195 0 -315.5 121.5t-120.5 314.5q0 153 71.5 280.5t196 201t272.5 73.5q149 0 250.5 -58.5t143.5 -160.5h4l41 198h121z
M537 109q176 0 295.5 122.5t119.5 307.5q0 140 -89 227.5t-234 87.5q-176 0 -297 -122.5t-121 -305.5q0 -142 89.5 -229.5t236.5 -87.5zM754 1331l-226 -225h-143l311 326h135l189 -326h-123z" />
    <glyph glyph-name="Gbreve" unicode="&#x11e;" horiz-adv-x="1445" 
d="M928 1380q167 0 305.5 -38t222.5 -111l-31 -160h-8q-152 172 -491 172q-143 0 -266.5 -49.5t-210 -136t-136 -207t-49.5 -258.5q0 -218 140.5 -346.5t379.5 -128.5q186 0 326 73l70 355h-435l29 137h578l-109 -563q-114 -76 -217 -107.5t-254 -31.5q-305 0 -483 161.5
t-178 433.5q0 230 102 413t289 287.5t426 104.5zM1245 1796h107q-38 -141 -131.5 -213t-231.5 -72q-136 0 -210 72t-74 203v10h106q6 -170 184 -170q182 0 250 170z" />
    <glyph glyph-name="gbreve" unicode="&#x11f;" horiz-adv-x="1220" 
d="M1174 956l-173 -884q-45 -232 -191.5 -357t-381.5 -125q-276 0 -403 140l24 137h6q114 -154 373 -154q365 0 438 369l8 47h-4q-140 -143 -360 -143q-195 0 -315.5 121.5t-120.5 314.5q0 153 71.5 280.5t196 201t272.5 73.5q149 0 250.5 -58.5t143.5 -160.5h4l41 198h121z
M537 109q176 0 295.5 122.5t119.5 307.5q0 140 -89 227.5t-234 87.5q-176 0 -297 -122.5t-121 -305.5q0 -142 89.5 -229.5t236.5 -87.5zM979 1409h106q-38 -141 -131 -213t-231 -72q-136 0 -210.5 72t-74.5 203v10h107q6 -170 184 -170q182 0 250 170z" />
    <glyph glyph-name="Gdotaccent" unicode="&#x120;" horiz-adv-x="1445" 
d="M928 1380q167 0 305.5 -38t222.5 -111l-31 -160h-8q-152 172 -491 172q-143 0 -266.5 -49.5t-210 -136t-136 -207t-49.5 -258.5q0 -218 140.5 -346.5t379.5 -128.5q186 0 326 73l70 355h-435l29 137h578l-109 -563q-114 -76 -217 -107.5t-254 -31.5q-305 0 -483 161.5
t-178 433.5q0 230 102 413t289 287.5t426 104.5zM1008 1743q41 0 64.5 -24t23.5 -64q0 -45 -31 -75t-74 -30q-39 0 -63.5 23.5t-24.5 60.5q0 47 30 78t75 31z" />
    <glyph glyph-name="gdotaccent" unicode="&#x121;" horiz-adv-x="1220" 
d="M1174 956l-173 -884q-45 -232 -191.5 -357t-381.5 -125q-276 0 -403 140l24 137h6q114 -154 373 -154q365 0 438 369l8 47h-4q-140 -143 -360 -143q-195 0 -315.5 121.5t-120.5 314.5q0 153 71.5 280.5t196 201t272.5 73.5q149 0 250.5 -58.5t143.5 -160.5h4l41 198h121z
M537 109q176 0 295.5 122.5t119.5 307.5q0 140 -89 227.5t-234 87.5q-176 0 -297 -122.5t-121 -305.5q0 -142 89.5 -229.5t236.5 -87.5zM741 1356q41 0 64.5 -24t23.5 -64q0 -45 -30.5 -75t-73.5 -30q-39 0 -63.5 23.5t-24.5 60.5q0 47 30 78t74 31z" />
    <glyph glyph-name="uni0122" unicode="&#x122;" horiz-adv-x="1445" 
d="M928 1380q167 0 305.5 -38t222.5 -111l-31 -160h-8q-152 172 -491 172q-143 0 -266.5 -49.5t-210 -136t-136 -207t-49.5 -258.5q0 -218 140.5 -346.5t379.5 -128.5q186 0 326 73l70 355h-435l29 137h578l-109 -563q-114 -76 -217 -107.5t-254 -31.5q-305 0 -483 161.5
t-178 433.5q0 230 102 413t289 287.5t426 104.5zM305 -430l273 297h159l-297 -297h-135z" />
    <glyph glyph-name="uni0123" unicode="&#x123;" horiz-adv-x="1220" 
d="M1069 1432l-299 -326h-160l324 326h135zM1174 956l-173 -884q-45 -232 -191.5 -357t-381.5 -125q-276 0 -403 140l24 137h6q114 -154 373 -154q365 0 438 369l8 47h-4q-140 -143 -360 -143q-195 0 -315.5 121.5t-120.5 314.5q0 153 71.5 280.5t196 201t272.5 73.5
q149 0 250.5 -58.5t143.5 -160.5h4l41 198h121zM537 109q176 0 295.5 122.5t119.5 307.5q0 140 -89 227.5t-234 87.5q-176 0 -297 -122.5t-121 -305.5q0 -142 89.5 -229.5t236.5 -87.5z" />
    <glyph glyph-name="Hcircumflex" unicode="&#x124;" horiz-adv-x="1507" 
d="M1513 1360l-264 -1360h-151l121 621h-873l-121 -621h-151l264 1360h151l-116 -602h872l117 602h151zM1004 1718l-226 -225h-143l311 326h135l189 -326h-123z" />
    <glyph glyph-name="hcircumflex" unicode="&#x125;" horiz-adv-x="1140" 
d="M713 977q160 0 249 -85t89 -235q0 -47 -13 -110l-106 -547h-137l104 537q8 44 8 88q0 111 -61 170t-176 59q-148 0 -253.5 -97.5t-137.5 -264.5l-95 -492h-137l279 1434h137l-119 -617h4q135 160 365 160zM469 1782l-225 -226h-144l312 326h135l188 -326h-123z" />
    <glyph glyph-name="Hbar" unicode="&#x126;" horiz-adv-x="1513" 
d="M1251 0h-151l121 621h-873l-121 -621h-151l188 969h-121l25 123h121l51 268h152l-52 -268h873l51 268h152l-52 -268h121l-24 -123h-121zM375 758h872l41 211h-872z" />
    <glyph glyph-name="hbar" unicode="&#x127;" horiz-adv-x="1148" 
d="M721 977q160 0 249 -85t89 -235q0 -51 -12 -110l-107 -547h-137l104 537q8 44 8 88q0 111 -61 170t-176 59q-148 0 -253.5 -97.5t-137.5 -264.5l-94 -492h-138l213 1096h-137l25 116h135l43 222h137l-43 -222h375l-25 -116h-372l-54 -279h4q135 160 365 160z" />
    <glyph glyph-name="Itilde" unicode="&#x128;" horiz-adv-x="483" 
d="M74 0l264 1360h151l-264 -1360h-151zM811 1776l-25 -138q-75 -104 -188 -104q-75 0 -154 61q-37 30 -59 40t-51 10q-106 0 -195 -127h-6l21 137q38 49 88.5 76.5t103.5 27.5q73 0 152 -61q37 -29 59 -39t51 -10q104 0 197 127h6z" />
    <glyph glyph-name="itilde" unicode="&#x129;" horiz-adv-x="417" 
d="M371 956l-187 -956h-137l186 956h138zM700 1389l-24 -138q-75 -104 -189 -104q-74 0 -153 61q-37 29 -59.5 39t-51.5 10q-105 0 -194 -127h-6l20 138q38 49 89 76.5t104 27.5q39 0 72.5 -13t78.5 -48q37 -29 59.5 -39t51.5 -10q103 0 196 127h6z" />
    <glyph glyph-name="Imacron" unicode="&#x12a;" horiz-adv-x="483" 
d="M74 0l264 1360h151l-264 -1360h-151zM143 1585l23 113h633l-23 -113h-633z" />
    <glyph glyph-name="imacron" unicode="&#x12b;" horiz-adv-x="417" 
d="M371 956l-187 -956h-137l186 956h138zM33 1198l22 113h633l-22 -113h-633z" />
    <glyph glyph-name="Ibreve" unicode="&#x12c;" horiz-adv-x="483" 
d="M74 0l264 1360h151l-264 -1360h-151zM717 1796h106q-38 -141 -131 -213t-231 -72q-136 0 -210.5 72t-74.5 203v10h107q6 -170 184 -170q182 0 250 170z" />
    <glyph glyph-name="ibreve" unicode="&#x12d;" horiz-adv-x="417" 
d="M371 956l-187 -956h-137l186 956h138zM606 1409h107q-38 -141 -131.5 -213t-231.5 -72q-136 0 -210 72t-74 203v10h106q6 -170 184 -170q182 0 250 170z" />
    <glyph glyph-name="Iogonek" unicode="&#x12e;" horiz-adv-x="483" 
d="M225 0h-30q-104 -57 -157.5 -114t-53.5 -122q0 -36 22.5 -56.5t61.5 -20.5q76 0 151 57h6l-22 -115q-51 -39 -154 -39q-83 0 -130.5 43t-47.5 111q0 155 209 285l258 1331h151z" />
    <glyph glyph-name="iogonek" unicode="&#x12f;" horiz-adv-x="417" 
d="M184 0h-37q-210 -115 -210 -236q0 -36 22 -56.5t61 -20.5q77 0 152 57h6l-22 -115q-51 -39 -154 -39q-83 0 -130.5 43t-47.5 111q0 163 231 299l178 913h138zM369 1354q39 0 62.5 -23.5t23.5 -62.5q0 -44 -30.5 -73.5t-72.5 -29.5q-39 0 -62.5 23.5t-23.5 60.5
q0 44 30.5 74.5t72.5 30.5z" />
    <glyph glyph-name="Idotaccent" unicode="&#x130;" horiz-adv-x="483" 
d="M74 0l264 1360h151l-264 -1360h-151zM479 1743q41 0 64.5 -24t23.5 -64q0 -45 -30.5 -75t-73.5 -30q-39 0 -63.5 23.5t-24.5 60.5q0 47 30 78t74 31z" />
    <glyph glyph-name="dotlessi" unicode="&#x131;" horiz-adv-x="417" 
d="M371 956l-187 -956h-137l186 956h138z" />
    <glyph glyph-name="IJ" unicode="&#x132;" horiz-adv-x="1519" 
d="M74 0l264 1360h151l-264 -1360h-151zM1559 1360l-181 -920q-88 -460 -534 -460q-244 0 -375 141l31 153h8q105 -157 334 -157q155 0 256 88t133 254l176 901h152z" />
    <glyph glyph-name="ij" unicode="&#x133;" horiz-adv-x="835" 
d="M369 1354q39 0 62.5 -23.5t23.5 -62.5q0 -44 -30.5 -73.5t-72.5 -29.5q-39 0 -62.5 23.5t-23.5 60.5q0 44 30.5 74.5t72.5 30.5zM47 0l186 956h138l-187 -956h-137zM786 1354q39 0 62.5 -23.5t23.5 -62.5q0 -44 -30 -73.5t-72 -29.5q-39 0 -62.5 23.5t-23.5 60.5
q0 44 30 74.5t72 30.5zM788 956l-217 -1116q-26 -130 -87.5 -190t-166.5 -60q-64 0 -120 27l24 127h6q31 -31 80 -31q55 0 84.5 33t44.5 109l215 1101h137z" />
    <glyph glyph-name="Jcircumflex" unicode="&#x134;" horiz-adv-x="1036" 
d="M1075 1360l-180 -920q-88 -460 -535 -460q-243 0 -374 141l30 153h9q105 -157 333 -157q155 0 256.5 88t133.5 254l176 901h151zM1075 1718l-225 -225h-143l311 326h135l188 -326h-122z" />
    <glyph glyph-name="jcircumflex" unicode="&#x135;" horiz-adv-x="417" 
d="M371 956l-217 -1116q-26 -130 -87.5 -190t-166.5 -60q-65 0 -121 27l24 127h7q31 -31 79 -31q55 0 84.5 33t44.5 109l215 1101h138zM381 1331l-225 -225h-144l312 326h135l188 -326h-123z" />
    <glyph glyph-name="uni0136" unicode="&#x136;" horiz-adv-x="1282" 
d="M504 680l643 -680h-197l-600 645l-125 -645h-151l264 1360h151l-120 -623l805 623h219zM203 -430l272 297h160l-297 -297h-135z" />
    <glyph glyph-name="uni0137" unicode="&#x137;" horiz-adv-x="983" 
d="M858 0h-178l-410 446l-86 -446h-137l279 1434h137l-176 -904l540 426h199l-616 -477zM55 -430l273 297h159l-297 -297h-135z" />
    <glyph glyph-name="kgreenlandic" unicode="&#x138;" horiz-adv-x="983" 
d="M858 0h-178l-410 446l-86 -446h-137l186 956h136l-82 -426l540 426h199l-616 -477z" />
    <glyph glyph-name="Lacute" unicode="&#x139;" horiz-adv-x="1175" 
d="M1032 0h-958l264 1360h151l-237 -1223h805zM352 1493l299 326h164l-319 -326h-144z" />
    <glyph glyph-name="lacute" unicode="&#x13a;" horiz-adv-x="417" 
d="M47 0l279 1434h137l-279 -1434h-137zM330 1556l299 326h164l-320 -326h-143z" />
    <glyph glyph-name="uni013B" unicode="&#x13b;" horiz-adv-x="1175" 
d="M1032 0h-958l264 1360h151l-237 -1223h805zM168 -430l272 297h160l-297 -297h-135z" />
    <glyph glyph-name="uni013C" unicode="&#x13c;" horiz-adv-x="417" 
d="M47 0l279 1434h137l-279 -1434h-137zM-258 -430l272 297h160l-297 -297h-135z" />
    <glyph glyph-name="Lcaron" unicode="&#x13d;" horiz-adv-x="1175" 
d="M1032 0h-958l264 1360h151l-237 -1223h805zM610 1055l138 379h141l-170 -379h-109z" />
    <glyph glyph-name="lcaron" unicode="&#x13e;" horiz-adv-x="417" 
d="M47 0l279 1434h137l-279 -1434h-137zM475 1055l137 379h142l-170 -379h-109z" />
    <glyph glyph-name="Ldot" unicode="&#x13f;" horiz-adv-x="1175" 
d="M1032 0h-958l264 1360h151l-237 -1223h805zM872 776q41 0 65 -24t24 -64q0 -45 -30.5 -74.5t-74.5 -29.5q-39 0 -63.5 23.5t-24.5 60.5q0 47 29.5 77.5t74.5 30.5z" />
    <glyph glyph-name="ldot" unicode="&#x140;" horiz-adv-x="493" 
d="M47 0l279 1434h137l-279 -1434h-137zM510 776q41 0 64.5 -24t23.5 -64q0 -45 -30.5 -74.5t-73.5 -29.5q-39 0 -63.5 23.5t-24.5 60.5q0 47 29.5 77.5t74.5 30.5z" />
    <glyph glyph-name="Lslash" unicode="&#x141;" horiz-adv-x="1204" 
d="M1061 0h-959l86 438l-172 -88l31 160l172 90l148 760h151l-131 -674l627 326l-31 -160l-627 -326l-75 -389h804z" />
    <glyph glyph-name="lslash" unicode="&#x142;" horiz-adv-x="466" 
d="M203 0h-137l114 594l-164 -96l31 153l164 97l133 686h137l-114 -594l194 114l-31 -155l-194 -115z" />
    <glyph glyph-name="Nacute" unicode="&#x143;" horiz-adv-x="1536" 
d="M1255 0h-174l-618 1214h-4l-238 -1214h-147l264 1360h205l598 -1163h4l227 1163h148zM868 1493l299 326h164l-319 -326h-144z" />
    <glyph glyph-name="nacute" unicode="&#x144;" horiz-adv-x="1140" 
d="M713 977q160 0 249 -85t89 -235q0 -47 -13 -110l-106 -547h-137l104 537q8 41 8 88q0 109 -61 169t-176 60q-148 0 -253.5 -97.5t-137.5 -264.5l-95 -492h-137l186 956h117l-28 -168h4q137 189 387 189zM604 1106l299 326h164l-319 -326h-144z" />
    <glyph glyph-name="uni0145" unicode="&#x145;" horiz-adv-x="1536" 
d="M1255 0h-174l-618 1214h-4l-238 -1214h-147l264 1360h205l598 -1163h4l227 1163h148zM293 -430l272 297h160l-297 -297h-135z" />
    <glyph glyph-name="uni0146" unicode="&#x146;" horiz-adv-x="1140" 
d="M713 977q160 0 249 -85t89 -235q0 -47 -13 -110l-106 -547h-137l104 537q8 41 8 88q0 109 -61 169t-176 60q-148 0 -253.5 -97.5t-137.5 -264.5l-95 -492h-137l186 956h117l-28 -168h4q137 189 387 189zM117 -430l272 297h160l-297 -297h-135z" />
    <glyph glyph-name="Ncaron" unicode="&#x147;" horiz-adv-x="1536" 
d="M1255 0h-174l-618 1214h-4l-238 -1214h-147l264 1360h205l598 -1163h4l227 1163h148zM1026 1493h-135l-189 326h127l140 -224l225 224h145z" />
    <glyph glyph-name="ncaron" unicode="&#x148;" horiz-adv-x="1140" 
d="M713 977q160 0 249 -85t89 -235q0 -47 -13 -110l-106 -547h-137l104 537q8 41 8 88q0 109 -61 169t-176 60q-148 0 -253.5 -97.5t-137.5 -264.5l-95 -492h-137l186 956h117l-28 -168h4q137 189 387 189zM762 1106h-135l-189 326h127l140 -224l225 224h145z" />
    <glyph glyph-name="napostrophe" unicode="&#x149;" horiz-adv-x="1140" 
d="M238 1434h129q-42 -215 -134 -342h-108q87 145 113 342zM713 977q160 0 249 -85t89 -235q0 -47 -13 -110l-106 -547h-137l104 537q8 41 8 88q0 109 -61 169t-176 60q-148 0 -253.5 -97.5t-137.5 -264.5l-95 -492h-137l186 956h117l-28 -168h4q137 189 387 189z" />
    <glyph glyph-name="Eng" unicode="&#x14a;" horiz-adv-x="1536" 
d="M1520 1360l-295 -1520q-26 -134 -89 -192t-175 -58q-65 0 -119 23l22 139h6q31 -24 82 -24q55 0 85 31t42 96l33 163l-647 1199h-4l-240 -1217h-147l264 1360h205l606 -1112h4l219 1112h148z" />
    <glyph glyph-name="eng" unicode="&#x14b;" horiz-adv-x="1142" 
d="M713 977q160 0 249 -85t89 -235q0 -47 -13 -110l-137 -707q-26 -129 -87.5 -189.5t-164.5 -60.5q-69 0 -121 27l23 127h6q31 -31 80 -31q55 0 85 34t44 108l133 682q8 41 8 88q0 109 -61 169t-176 60q-148 0 -253.5 -97.5t-137.5 -264.5l-95 -492h-137l186 956h117
l-28 -163h4q136 184 387 184z" />
    <glyph glyph-name="Omacron" unicode="&#x14c;" horiz-adv-x="1566" 
d="M901 1380q285 0 459 -169t174 -439q0 -167 -60.5 -314t-165 -251.5t-251 -165.5t-312.5 -61q-286 0 -459 168.5t-173 439.5q0 222 102.5 403.5t283.5 285t402 103.5zM893 1243q-133 0 -250 -50.5t-200 -137t-131 -207t-48 -256.5q0 -213 134 -344t356 -131
q177 0 321.5 86t225.5 234t81 327q0 216 -133.5 347.5t-355.5 131.5zM684 1585l23 113h632l-22 -113h-633z" />
    <glyph glyph-name="omacron" unicode="&#x14d;" horiz-adv-x="1163" 
d="M635 977q205 0 330 -121t125 -317q0 -155 -73.5 -283.5t-202.5 -202t-286 -73.5q-205 0 -329.5 121t-124.5 317q0 155 73.5 283.5t202.5 202t285 73.5zM629 854q-176 0 -297 -124.5t-121 -311.5q0 -141 89 -228.5t235 -87.5q176 0 296.5 124t120.5 311q0 142 -88.5 229.5
t-234.5 87.5zM406 1198l22 113h633l-23 -113h-632z" />
    <glyph glyph-name="Obreve" unicode="&#x14e;" horiz-adv-x="1566" 
d="M901 1380q285 0 459 -169t174 -439q0 -167 -60.5 -314t-165 -251.5t-251 -165.5t-312.5 -61q-286 0 -459 168.5t-173 439.5q0 222 102.5 403.5t283.5 285t402 103.5zM893 1243q-133 0 -250 -50.5t-200 -137t-131 -207t-48 -256.5q0 -213 134 -344t356 -131
q177 0 321.5 86t225.5 234t81 327q0 216 -133.5 347.5t-355.5 131.5zM1257 1796h107q-38 -141 -131.5 -213t-231.5 -72q-136 0 -210 72t-74 203v10h106q6 -170 185 -170q181 0 249 170z" />
    <glyph glyph-name="obreve" unicode="&#x14f;" horiz-adv-x="1163" 
d="M635 977q205 0 330 -121t125 -317q0 -155 -73.5 -283.5t-202.5 -202t-286 -73.5q-205 0 -329.5 121t-124.5 317q0 155 73.5 283.5t202.5 202t285 73.5zM629 854q-176 0 -297 -124.5t-121 -311.5q0 -141 89 -228.5t235 -87.5q176 0 296.5 124t120.5 311q0 142 -88.5 229.5
t-234.5 87.5zM979 1409h106q-38 -141 -131 -213t-231 -72q-136 0 -210.5 72t-74.5 203v10h107q6 -170 184 -170q182 0 250 170z" />
    <glyph glyph-name="Ohungarumlaut" unicode="&#x150;" horiz-adv-x="1566" 
d="M901 1380q285 0 459 -169t174 -439q0 -167 -60.5 -314t-165 -251.5t-251 -165.5t-312.5 -61q-286 0 -459 168.5t-173 439.5q0 222 102.5 403.5t283.5 285t402 103.5zM893 1243q-133 0 -250 -50.5t-200 -137t-131 -207t-48 -256.5q0 -213 134 -344t356 -131
q177 0 321.5 86t225.5 234t81 327q0 216 -133.5 347.5t-355.5 131.5zM713 1493l299 326h159l-323 -326h-135zM1071 1493l305 326h154l-320 -326h-139z" />
    <glyph glyph-name="ohungarumlaut" unicode="&#x151;" horiz-adv-x="1163" 
d="M635 977q205 0 330 -121t125 -317q0 -155 -73.5 -283.5t-202.5 -202t-286 -73.5q-205 0 -329.5 121t-124.5 317q0 155 73.5 283.5t202.5 202t285 73.5zM629 854q-176 0 -297 -124.5t-121 -311.5q0 -141 89 -228.5t235 -87.5q176 0 296.5 124t120.5 311q0 142 -88.5 229.5
t-234.5 87.5zM434 1106l299 326h160l-324 -326h-135zM793 1106l305 326h153l-319 -326h-139z" />
    <glyph glyph-name="OE" unicode="&#x152;" horiz-adv-x="2244" 
d="M2030 621h-689l-94 -484h834l-25 -137h-1304q-306 0 -477 153.5t-171 424.5q0 234 99.5 411.5t283 274t424.5 96.5h1409l-26 -137h-836l-90 -465h688zM1307 1223h-400q-295 0 -471 -173.5t-176 -461.5q0 -214 133.5 -332.5t378.5 -118.5h324z" />
    <glyph glyph-name="oe" unicode="&#x153;" horiz-adv-x="2009" 
d="M1081 436v-16q0 -146 100.5 -232t270.5 -86q201 0 369 148h6l-33 -164q-63 -50 -153 -78t-189 -28q-177 0 -295 66.5t-164 189.5h-4q-68 -121 -190 -188.5t-279 -67.5q-201 0 -323.5 120.5t-122.5 315.5q0 155 72 284t198.5 203t280.5 74q155 0 263.5 -68.5t151.5 -189.5
h4q70 122 191.5 190t277.5 68q199 0 315 -104.5t116 -282.5q0 -38 -21 -154h-842zM535 102q179 0 298 123.5t119 311.5q0 142 -88.5 229.5t-234.5 87.5q-176 0 -297 -124.5t-121 -311.5q0 -141 89 -228.5t235 -87.5zM1501 854q-143 0 -251 -82t-148 -217h713q0 139 -82 219
t-232 80z" />
    <glyph glyph-name="Racute" unicode="&#x154;" horiz-adv-x="1345" 
d="M338 1360h557q213 0 322.5 -89t109.5 -261q0 -202 -108 -321t-312 -144l271 -545h-168l-254 539h-426l-105 -539h-151zM1176 997q0 226 -297 226h-416l-107 -547h453q178 0 272.5 83.5t94.5 237.5zM756 1493l299 326h164l-320 -326h-143z" />
    <glyph glyph-name="racute" unicode="&#x155;" horiz-adv-x="743" 
d="M662 977q90 0 147 -39l-29 -139h-6q-44 47 -137 47q-143 0 -237 -103t-132 -303l-84 -440h-137l186 956h117l-28 -157h4q120 178 336 178zM418 1106l299 326h164l-320 -326h-143z" />
    <glyph glyph-name="uni0156" unicode="&#x156;" horiz-adv-x="1345" 
d="M338 1360h557q213 0 322.5 -89t109.5 -261q0 -202 -108 -321t-312 -144l271 -545h-168l-254 539h-426l-105 -539h-151zM1176 997q0 226 -297 226h-416l-107 -547h453q178 0 272.5 83.5t94.5 237.5zM236 -430l272 297h160l-297 -297h-135z" />
    <glyph glyph-name="uni0157" unicode="&#x157;" horiz-adv-x="743" 
d="M662 977q90 0 147 -39l-29 -139h-6q-44 47 -137 47q-143 0 -237 -103t-132 -303l-84 -440h-137l186 956h117l-28 -157h4q120 178 336 178zM-258 -430l272 297h160l-297 -297h-135z" />
    <glyph glyph-name="Rcaron" unicode="&#x158;" horiz-adv-x="1345" 
d="M338 1360h557q213 0 322.5 -89t109.5 -261q0 -202 -108 -321t-312 -144l271 -545h-168l-254 539h-426l-105 -539h-151zM1176 997q0 226 -297 226h-416l-107 -547h453q178 0 272.5 83.5t94.5 237.5zM913 1493h-135l-188 326h127l139 -224l225 224h146z" />
    <glyph glyph-name="rcaron" unicode="&#x159;" horiz-adv-x="743" 
d="M662 977q90 0 147 -39l-29 -139h-6q-44 47 -137 47q-143 0 -237 -103t-132 -303l-84 -440h-137l186 956h117l-28 -157h4q120 178 336 178zM575 1106h-135l-188 326h127l139 -224l225 224h146z" />
    <glyph glyph-name="Sacute" unicode="&#x15a;" horiz-adv-x="1181" 
d="M719 1380q151 0 280.5 -35.5t192.5 -93.5l-31 -157h-8q-62 72 -176 110.5t-266 38.5q-164 0 -272.5 -81.5t-108.5 -205.5q0 -86 72.5 -129.5t261.5 -64.5q248 -27 350 -104.5t102 -229.5q0 -209 -149 -328.5t-410 -119.5q-172 0 -314 40.5t-218 112.5l28 158h8
q76 -85 205.5 -129.5t296.5 -44.5q184 0 292 78.5t108 212.5q0 95 -78.5 143t-274.5 70q-237 26 -335.5 97.5t-98.5 211.5q0 203 149.5 326.5t393.5 123.5zM700 1493l299 326h164l-319 -326h-144z" />
    <glyph glyph-name="sacute" unicode="&#x15b;" horiz-adv-x="880" 
d="M510 977q101 0 191.5 -24t136.5 -62l-27 -133h-6q-93 96 -297 96q-115 0 -190.5 -54.5t-75.5 -137.5q0 -52 48.5 -78t168.5 -33q179 -10 254 -67.5t75 -174.5q0 -154 -108.5 -241.5t-298.5 -87.5q-119 0 -218 27.5t-159 78.5l29 137h6q103 -121 344 -121
q123 0 197.5 52.5t74.5 138.5q0 62 -51.5 91.5t-185.5 39.5q-171 13 -241.5 64t-70.5 155q0 151 111 242.5t293 91.5zM467 1106l299 326h164l-320 -326h-143z" />
    <glyph glyph-name="Scircumflex" unicode="&#x15c;" horiz-adv-x="1181" 
d="M719 1380q151 0 280.5 -35.5t192.5 -93.5l-31 -157h-8q-62 72 -176 110.5t-266 38.5q-164 0 -272.5 -81.5t-108.5 -205.5q0 -86 72.5 -129.5t261.5 -64.5q248 -27 350 -104.5t102 -229.5q0 -209 -149 -328.5t-410 -119.5q-172 0 -314 40.5t-218 112.5l28 158h8
q76 -85 205.5 -129.5t296.5 -44.5q184 0 292 78.5t108 212.5q0 95 -78.5 143t-274.5 70q-237 26 -335.5 97.5t-98.5 211.5q0 203 149.5 326.5t393.5 123.5zM840 1718l-226 -225h-143l311 326h136l188 -326h-123z" />
    <glyph glyph-name="scircumflex" unicode="&#x15d;" horiz-adv-x="880" 
d="M510 977q101 0 191.5 -24t136.5 -62l-27 -133h-6q-93 96 -297 96q-115 0 -190.5 -54.5t-75.5 -137.5q0 -52 48.5 -78t168.5 -33q179 -10 254 -67.5t75 -174.5q0 -154 -108.5 -241.5t-298.5 -87.5q-119 0 -218 27.5t-159 78.5l29 137h6q103 -121 344 -121
q123 0 197.5 52.5t74.5 138.5q0 62 -51.5 91.5t-185.5 39.5q-171 13 -241.5 64t-70.5 155q0 151 111 242.5t293 91.5zM606 1331l-225 -225h-143l311 326h135l188 -326h-122z" />
    <glyph glyph-name="Scedilla" unicode="&#x15e;" horiz-adv-x="1181" 
d="M25 133l28 158h8q76 -85 205.5 -129.5t296.5 -44.5q184 0 292 78.5t108 212.5q0 95 -78.5 143t-274.5 70q-237 26 -335.5 97.5t-98.5 211.5q0 203 149.5 326.5t393.5 123.5q151 0 280.5 -35.5t192.5 -93.5l-31 -157h-8q-62 72 -176 110.5t-266 38.5q-164 0 -272.5 -81.5
t-108.5 -205.5q0 -86 72.5 -129.5t261.5 -64.5q248 -27 350 -104.5t102 -229.5q0 -209 -147.5 -327.5t-407.5 -120.5l-72 -99v-4q77 -1 117.5 -35t40.5 -88q0 -164 -219 -164q-121 0 -180 39l22 99h6q51 -45 152 -45q107 0 107 67q0 57 -91 57q-40 0 -92 -18l2 31l119 162
q-145 9 -263.5 48.5t-184.5 102.5z" />
    <glyph glyph-name="scedilla" unicode="&#x15f;" horiz-adv-x="880" 
d="M4 86l29 137h6q103 -121 344 -121q123 0 197.5 52.5t74.5 138.5q0 62 -51.5 91.5t-185.5 39.5q-171 13 -241.5 64t-70.5 155q0 151 111 242.5t293 91.5q101 0 191.5 -24t136.5 -62l-27 -133h-6q-93 96 -297 96q-115 0 -190.5 -54.5t-75.5 -137.5q0 -52 48.5 -78
t168.5 -33q179 -10 254 -67.5t75 -174.5q0 -148 -99.5 -234.5t-276.5 -94.5l-72 -99v-4q77 -1 117.5 -35t40.5 -88q0 -164 -219 -164q-122 0 -181 39l23 99h6q51 -45 152 -45q106 0 106 67q0 57 -90 57q-40 0 -92 -18l2 31l117 162q-100 6 -183 33.5t-135 70.5z" />
    <glyph glyph-name="Scaron" unicode="&#x160;" horiz-adv-x="1181" 
d="M719 1380q151 0 280.5 -35.5t192.5 -93.5l-31 -157h-8q-62 72 -176 110.5t-266 38.5q-164 0 -272.5 -81.5t-108.5 -205.5q0 -86 72.5 -129.5t261.5 -64.5q248 -27 350 -104.5t102 -229.5q0 -209 -149 -328.5t-410 -119.5q-172 0 -314 40.5t-218 112.5l28 158h8
q76 -85 205.5 -129.5t296.5 -44.5q184 0 292 78.5t108 212.5q0 95 -78.5 143t-274.5 70q-237 26 -335.5 97.5t-98.5 211.5q0 203 149.5 326.5t393.5 123.5zM858 1493h-135l-188 326h127l139 -224l225 224h145z" />
    <glyph glyph-name="scaron" unicode="&#x161;" horiz-adv-x="880" 
d="M510 977q101 0 191.5 -24t136.5 -62l-27 -133h-6q-93 96 -297 96q-115 0 -190.5 -54.5t-75.5 -137.5q0 -52 48.5 -78t168.5 -33q179 -10 254 -67.5t75 -174.5q0 -154 -108.5 -241.5t-298.5 -87.5q-119 0 -218 27.5t-159 78.5l29 137h6q103 -121 344 -121
q123 0 197.5 52.5t74.5 138.5q0 62 -51.5 91.5t-185.5 39.5q-171 13 -241.5 64t-70.5 155q0 151 111 242.5t293 91.5zM625 1106h-136l-188 326h127l139 -224l226 224h145z" />
    <glyph glyph-name="uni0162" unicode="&#x162;" horiz-adv-x="1185" 
d="M1280 1223h-465l-237 -1223h-27l-76 -119v-4q82 -1 123 -34.5t41 -88.5q0 -164 -219 -164q-121 0 -180 39l22 99h6q51 -45 152 -45q106 0 106 67q0 57 -90 57q-40 0 -92 -18l2 31l115 180h-35l238 1223h-465l24 137h1082z" />
    <glyph glyph-name="uni0163" unicode="&#x163;" horiz-adv-x="743" 
d="M414 838l-105 -537q-6 -30 -6 -57q0 -67 36 -104.5t101 -37.5q90 0 158 60h6l-31 -152q-68 -30 -153 -30q-22 0 -58 4l-73 -103v-4q77 -1 117 -34.5t40 -88.5q0 -164 -219 -164q-121 0 -180 39l23 99h6q51 -45 151 -45q107 0 107 67q0 57 -90 57q-40 0 -92 -18l2 31
l133 184q-123 52 -123 211q0 47 8 88l104 535h-184l25 118h186l72 256h110l-49 -256h322l-23 -118h-321z" />
    <glyph glyph-name="Tcaron" unicode="&#x164;" horiz-adv-x="1185" 
d="M815 1223l-237 -1223h-152l238 1223h-465l24 137h1082l-25 -137h-465zM860 1493h-135l-188 326h127l139 -224l225 224h146z" />
    <glyph glyph-name="tcaron" unicode="&#x165;" horiz-adv-x="743" 
d="M414 838l-105 -537q-6 -30 -6 -57q0 -67 36 -104.5t101 -37.5q90 0 158 60h6l-31 -152q-68 -30 -153 -30q-125 0 -190.5 61t-65.5 174q0 47 8 88l104 535h-184l25 118h186l72 256h110l-49 -256h322l-23 -118h-321zM627 1055l137 379h141l-170 -379h-108z" />
    <glyph glyph-name="Tbar" unicode="&#x166;" horiz-adv-x="1185" 
d="M729 776h279l-25 -123h-278l-127 -653h-152l127 653h-283l25 123h283l86 447h-465l24 137h1082l-25 -137h-465z" />
    <glyph glyph-name="tbar" unicode="&#x167;" horiz-adv-x="765" 
d="M371 608h291l-25 -116h-289l-37 -191q-6 -30 -6 -57q0 -67 36 -104.5t101 -37.5q90 0 158 60h6l-31 -152q-68 -30 -153 -30q-125 0 -190.5 61t-65.5 174q0 47 8 88l37 189h-156l25 116h153l46 230h-185l25 118h186l72 256h110l-49 -256h322l-23 -118h-321z" />
    <glyph glyph-name="Utilde" unicode="&#x168;" horiz-adv-x="1423" 
d="M1462 1360l-155 -795q-56 -292 -216.5 -438.5t-437.5 -146.5q-246 0 -381 114t-135 326q0 62 17 155l151 785h152l-152 -785q-12 -67 -12 -126q0 -161 94.5 -246.5t269.5 -85.5q208 0 334.5 119t171.5 350l152 774h147zM1280 1776l-25 -138q-75 -104 -188 -104
q-75 0 -154 61q-37 30 -59 40t-51 10q-106 0 -195 -127h-6l21 137q38 49 88.5 76.5t103.5 27.5q73 0 152 -61q37 -29 59 -39t51 -10q104 0 197 127h6z" />
    <glyph glyph-name="utilde" unicode="&#x169;" horiz-adv-x="1140" 
d="M907 0h-116l28 164h-4q-139 -184 -387 -184q-160 0 -249 84.5t-89 234.5q0 53 12 111l107 546h137l-106 -536q-9 -47 -9 -86q0 -111 62.5 -171.5t179.5 -60.5q148 0 252.5 97t136.5 266l94 491h138zM1057 1389l-25 -138q-75 -104 -188 -104q-75 0 -154 61q-37 29 -59 39
t-51 10q-106 0 -195 -127h-6l20 138q38 49 89 76.5t104 27.5q39 0 72.5 -13t78.5 -48q37 -29 59.5 -39t51.5 -10q104 0 197 127h6z" />
    <glyph glyph-name="Umacron" unicode="&#x16a;" horiz-adv-x="1423" 
d="M1462 1360l-155 -795q-56 -292 -216.5 -438.5t-437.5 -146.5q-246 0 -381 114t-135 326q0 62 17 155l151 785h152l-152 -785q-12 -67 -12 -126q0 -161 94.5 -246.5t269.5 -85.5q208 0 334.5 119t171.5 350l152 774h147zM612 1585l23 113h633l-23 -113h-633z" />
    <glyph glyph-name="umacron" unicode="&#x16b;" horiz-adv-x="1140" 
d="M907 0h-116l28 164h-4q-139 -184 -387 -184q-160 0 -249 84.5t-89 234.5q0 53 12 111l107 546h137l-106 -536q-9 -47 -9 -86q0 -111 62.5 -171.5t179.5 -60.5q148 0 252.5 97t136.5 266l94 491h138zM389 1198l23 113h632l-22 -113h-633z" />
    <glyph glyph-name="Ubreve" unicode="&#x16c;" horiz-adv-x="1423" 
d="M1462 1360l-155 -795q-56 -292 -216.5 -438.5t-437.5 -146.5q-246 0 -381 114t-135 326q0 62 17 155l151 785h152l-152 -785q-12 -67 -12 -126q0 -161 94.5 -246.5t269.5 -85.5q208 0 334.5 119t171.5 350l152 774h147zM1186 1796h106q-38 -141 -131 -213t-231 -72
q-136 0 -210.5 72t-74.5 203v10h107q6 -170 184 -170q182 0 250 170z" />
    <glyph glyph-name="ubreve" unicode="&#x16d;" horiz-adv-x="1140" 
d="M907 0h-116l28 164h-4q-139 -184 -387 -184q-160 0 -249 84.5t-89 234.5q0 53 12 111l107 546h137l-106 -536q-9 -47 -9 -86q0 -111 62.5 -171.5t179.5 -60.5q148 0 252.5 97t136.5 266l94 491h138zM961 1409h106q-38 -141 -131 -213t-231 -72q-136 0 -210.5 72
t-74.5 203v10h106q6 -170 185 -170q182 0 250 170z" />
    <glyph glyph-name="Uring" unicode="&#x16e;" horiz-adv-x="1423" 
d="M1462 1360l-155 -795q-56 -292 -216.5 -438.5t-437.5 -146.5q-246 0 -381 114t-135 326q0 62 17 155l151 785h152l-152 -785q-12 -67 -12 -126q0 -161 94.5 -246.5t269.5 -85.5q208 0 334.5 119t171.5 350l152 774h147zM958 1845q74 0 122 -46t48 -116q0 -90 -57.5 -150
t-142.5 -60q-75 0 -123.5 46.5t-48.5 118.5q0 88 59 147.5t143 59.5zM954 1747q-40 0 -69 -28t-29 -70q0 -33 21.5 -55.5t54.5 -22.5q40 0 69 28t29 70q0 33 -21.5 55.5t-54.5 22.5z" />
    <glyph glyph-name="uring" unicode="&#x16f;" horiz-adv-x="1140" 
d="M907 0h-116l28 164h-4q-139 -184 -387 -184q-160 0 -249 84.5t-89 234.5q0 53 12 111l107 546h137l-106 -536q-9 -47 -9 -86q0 -111 62.5 -171.5t179.5 -60.5q148 0 252.5 97t136.5 266l94 491h138zM735 1458q74 0 122 -46t48 -116q0 -90 -57.5 -150.5t-142.5 -60.5
q-75 0 -124 47t-49 119q0 88 59.5 147.5t143.5 59.5zM731 1360q-40 0 -69 -28t-29 -70q0 -33 21.5 -55.5t54.5 -22.5q40 0 69 28t29 70q0 33 -21.5 55.5t-54.5 22.5z" />
    <glyph glyph-name="Uhungarumlaut" unicode="&#x170;" horiz-adv-x="1423" 
d="M1462 1360l-155 -795q-56 -292 -216.5 -438.5t-437.5 -146.5q-246 0 -381 114t-135 326q0 62 17 155l151 785h152l-152 -785q-12 -67 -12 -126q0 -161 94.5 -246.5t269.5 -85.5q208 0 334.5 119t171.5 350l152 774h147zM641 1493l299 326h160l-324 -326h-135zM999 1493
l306 326h153l-319 -326h-140z" />
    <glyph glyph-name="uhungarumlaut" unicode="&#x171;" horiz-adv-x="1140" 
d="M907 0h-116l28 164h-4q-139 -184 -387 -184q-160 0 -249 84.5t-89 234.5q0 53 12 111l107 546h137l-106 -536q-9 -47 -9 -86q0 -111 62.5 -171.5t179.5 -60.5q148 0 252.5 97t136.5 266l94 491h138zM412 1106l299 326h159l-323 -326h-135zM770 1106l305 326h154
l-320 -326h-139z" />
    <glyph glyph-name="Uogonek" unicode="&#x172;" horiz-adv-x="1423" 
d="M1462 1360l-155 -795q-76 -399 -357 -532q-140 -65 -200 -132.5t-60 -129.5q0 -38 23.5 -61t66.5 -23q75 0 150 57h6l-23 -115q-51 -39 -151 -39q-87 0 -134.5 41t-47.5 109q0 132 149 240v4q-46 -4 -76 -4q-246 0 -381 114t-135 326q0 62 17 155l151 785h152l-152 -785
q-12 -67 -12 -126q0 -161 94.5 -246.5t269.5 -85.5q208 0 334.5 119t171.5 350l152 774h147z" />
    <glyph glyph-name="uogonek" unicode="&#x173;" horiz-adv-x="1140" 
d="M907 0h-41q-110 -45 -175.5 -109t-65.5 -131q0 -34 23 -53.5t61 -19.5q76 0 151 57h6l-22 -115q-62 -39 -152 -39q-84 0 -132 43t-48 111q0 93 74.5 175t214.5 142l18 103h-4q-139 -184 -387 -184q-160 0 -249 84.5t-89 234.5q0 53 12 111l107 546h137l-106 -536
q-9 -47 -9 -86q0 -111 62.5 -171.5t179.5 -60.5q148 0 252.5 97t136.5 266l94 491h138z" />
    <glyph glyph-name="Wcircumflex" unicode="&#x174;" horiz-adv-x="2052" 
d="M1460 0h-149l-158 1104h-4l-592 -1104h-149l-189 1360h154l149 -1127h4l602 1127h134l163 -1131h5l587 1131h162zM1276 1718l-225 -225h-144l312 326h135l188 -326h-123z" />
    <glyph glyph-name="wcircumflex" unicode="&#x175;" horiz-adv-x="1542" 
d="M1087 0h-135l-125 743h-4l-415 -743h-138l-157 956h137l117 -776h4l434 776h113l133 -774h4l415 774h148zM944 1331l-225 -225h-144l312 326h135l188 -326h-123z" />
    <glyph glyph-name="Ycircumflex" unicode="&#x176;" horiz-adv-x="1359" 
d="M664 0h-152l119 604l-438 756h176l354 -629l598 629h192l-733 -760zM930 1718l-225 -225h-144l311 326h136l188 -326h-123z" />
    <glyph glyph-name="ycircumflex" unicode="&#x177;" horiz-adv-x="1009" 
d="M207 -389h-150l289 428l-233 917h141l188 -768h4l490 768h149zM678 1331l-225 -225h-144l312 326h135l188 -326h-123z" />
    <glyph glyph-name="Ydieresis" unicode="&#x178;" horiz-adv-x="1359" 
d="M664 0h-152l119 604l-438 756h176l354 -629l598 629h192l-733 -760zM719 1737q38 0 61 -22.5t23 -59.5q0 -43 -28.5 -72t-69.5 -29q-37 0 -59.5 22.5t-22.5 57.5q0 45 27 74t69 29zM1116 1737q36 0 58 -22t22 -58q0 -45 -27 -74t-69 -29q-38 0 -61 22.5t-23 59.5
q0 42 29 71.5t71 29.5z" />
    <glyph glyph-name="Zacute" unicode="&#x179;" horiz-adv-x="1300" 
d="M1135 137l-25 -137h-1104l25 129l1093 1094h-839l26 137h1053l-25 -129l-1093 -1094h889zM770 1493l299 326h164l-320 -326h-143z" />
    <glyph glyph-name="zacute" unicode="&#x17a;" horiz-adv-x="995" 
d="M842 119l-23 -119h-829l22 111l764 727h-592l23 118h788l-22 -110l-764 -727h633zM537 1106l299 326h163l-319 -326h-143z" />
    <glyph glyph-name="Zdotaccent" unicode="&#x17b;" horiz-adv-x="1300" 
d="M1135 137l-25 -137h-1104l25 129l1093 1094h-839l26 137h1053l-25 -129l-1093 -1094h889zM897 1743q41 0 64.5 -24t23.5 -64q0 -45 -30.5 -75t-73.5 -30q-39 0 -63.5 23.5t-24.5 60.5q0 47 30 78t74 31z" />
    <glyph glyph-name="zdotaccent" unicode="&#x17c;" horiz-adv-x="995" 
d="M842 119l-23 -119h-829l22 111l764 727h-592l23 118h788l-22 -110l-764 -727h633zM664 1356q41 0 64.5 -24t23.5 -64q0 -45 -31 -75t-74 -30q-39 0 -63.5 23.5t-24.5 60.5q0 47 30 78t75 31z" />
    <glyph glyph-name="Zcaron" unicode="&#x17d;" horiz-adv-x="1300" 
d="M1135 137l-25 -137h-1104l25 129l1093 1094h-839l26 137h1053l-25 -129l-1093 -1094h889zM928 1493h-135l-189 326h127l139 -224l226 224h145z" />
    <glyph glyph-name="zcaron" unicode="&#x17e;" horiz-adv-x="995" 
d="M842 119l-23 -119h-829l22 111l764 727h-592l23 118h788l-22 -110l-764 -727h633zM694 1106h-135l-188 326h127l139 -224l225 224h146z" />
    <glyph glyph-name="florin" unicode="&#x192;" horiz-adv-x="1331" 
d="M1143 1380q117 0 178 -41l-29 -122h-8q-43 40 -139 40t-163 -53t-101 -155l-64 -191h332l-23 -119h-348l-188 -567q-106 -315 -377 -315q-114 0 -178 41l31 122h8q43 -40 139 -40q172 0 242 208l186 551h-297l23 119h313l70 207q106 315 393 315z" />
    <glyph glyph-name="AEacute" unicode="&#x1fc;" horiz-adv-x="2123" 
d="M1243 756h686l-26 -138h-686l-95 -481h836l-29 -137h-985l60 305h-623l-272 -305h-183l1221 1360h1046l-24 -137h-836zM1174 1192l-670 -750h526l148 750h-4zM1190 1493l299 326h164l-320 -326h-143z" />
    <glyph glyph-name="aeacute" unicode="&#x1fd;" horiz-adv-x="2009" 
d="M1081 436v-16q0 -146 101 -232t272 -86q201 0 369 148h6l-33 -164q-63 -50 -152.5 -78t-187.5 -28q-165 0 -278 59t-160 164h-4l-41 -203h-107l27 143h-4q-137 -163 -381 -163q-195 0 -314.5 121.5t-119.5 314.5q0 155 71.5 284t195.5 203t273 74q144 0 247.5 -58
t146.5 -159h4l41 196h106l-29 -147h5q139 168 389 168q193 0 306.5 -105t113.5 -280q0 -40 -21 -156h-842zM535 102q176 0 296.5 124t120.5 311q0 142 -88.5 229.5t-234.5 87.5q-176 0 -297 -124.5t-121 -311.5q0 -141 89 -228.5t235 -87.5zM1501 854q-143 0 -251 -82
t-148 -217h713q0 139 -82 219t-232 80zM1047 1106l299 326h163l-319 -326h-143z" />
    <glyph glyph-name="Oslashacute" unicode="&#x1fe;" horiz-adv-x="1566" 
d="M1653 1360l-234 -215q115 -155 115 -373q0 -167 -60.5 -314t-165 -251.5t-251 -165.5t-312.5 -61q-262 0 -434 145l-137 -125h-192l241 221q-110 153 -110 367q0 222 102.5 403.5t283.5 285t402 103.5q257 0 428 -141l131 121h193zM264 592q0 -153 72 -266l883 813
q-129 104 -326 104q-133 0 -250 -50.5t-200 -137t-131 -207t-48 -256.5zM1382 764q0 160 -75 276l-885 -813q129 -110 332 -110q177 0 321.5 86t225.5 234t81 327zM887 1493l299 326h164l-320 -326h-143z" />
    <glyph glyph-name="oslashacute" unicode="&#x1ff;" horiz-adv-x="1163" 
d="M1184 956l-170 -157q76 -112 76 -260q0 -155 -73.5 -283.5t-202.5 -202t-286 -73.5q-176 0 -295 92l-75 -72h-170l166 154q-80 113 -80 264q0 155 73.5 283.5t202.5 202t285 73.5q178 0 299 -94l80 73h170zM211 418q0 -100 43 -170l582 543q-81 63 -207 63
q-176 0 -297 -124.5t-121 -311.5zM952 537q0 94 -41 165l-579 -540q86 -60 203 -60q176 0 296.5 124t120.5 311zM633 1106l299 326h164l-320 -326h-143z" />
    <glyph glyph-name="uni0218" unicode="&#x218;" horiz-adv-x="1181" 
d="M719 1380q151 0 280.5 -35.5t192.5 -93.5l-31 -157h-8q-62 72 -176 110.5t-266 38.5q-164 0 -272.5 -81.5t-108.5 -205.5q0 -86 72.5 -129.5t261.5 -64.5q248 -27 350 -104.5t102 -229.5q0 -209 -149 -328.5t-410 -119.5q-172 0 -314 40.5t-218 112.5l28 158h8
q76 -85 205.5 -129.5t296.5 -44.5q184 0 292 78.5t108 212.5q0 95 -78.5 143t-274.5 70q-237 26 -335.5 97.5t-98.5 211.5q0 203 149.5 326.5t393.5 123.5zM135 -430l273 297h159l-297 -297h-135z" />
    <glyph glyph-name="uni0219" unicode="&#x219;" horiz-adv-x="880" 
d="M510 977q101 0 191.5 -24t136.5 -62l-27 -133h-6q-93 96 -297 96q-115 0 -190.5 -54.5t-75.5 -137.5q0 -52 48.5 -78t168.5 -33q179 -10 254 -67.5t75 -174.5q0 -154 -108.5 -241.5t-298.5 -87.5q-119 0 -218 27.5t-159 78.5l29 137h6q103 -121 344 -121
q123 0 197.5 52.5t74.5 138.5q0 62 -51.5 91.5t-185.5 39.5q-171 13 -241.5 64t-70.5 155q0 151 111 242.5t293 91.5zM-14 -430l272 297h160l-297 -297h-135z" />
    <glyph glyph-name="uni021A" unicode="&#x21a;" horiz-adv-x="1185" 
d="M815 1223l-237 -1223h-152l238 1223h-465l24 137h1082l-25 -137h-465zM127 -430l272 297h160l-297 -297h-135z" />
    <glyph glyph-name="uni021B" unicode="&#x21b;" horiz-adv-x="743" 
d="M414 838l-105 -537q-6 -30 -6 -57q0 -67 36 -104.5t101 -37.5q90 0 158 60h6l-31 -152q-68 -30 -153 -30q-125 0 -190.5 61t-65.5 174q0 47 8 88l104 535h-184l25 118h186l72 256h110l-49 -256h322l-23 -118h-321zM-66 -430l273 297h160l-297 -297h-136z" />
    <glyph glyph-name="uni0237" unicode="&#x237;" horiz-adv-x="417" 
d="M371 956l-217 -1116q-26 -130 -87.5 -190t-166.5 -60q-65 0 -121 27l24 127h7q31 -31 79 -31q55 0 84.5 33t44.5 109l215 1101h138z" />
    <glyph glyph-name="circumflex" unicode="&#x2c6;" horiz-adv-x="1024" 
d="M688 1331l-225 -225h-144l312 326h135l188 -326h-123z" />
    <glyph glyph-name="caron" unicode="&#x2c7;" horiz-adv-x="1024" 
d="M702 1106h-135l-188 326h127l139 -224l225 224h146z" />
    <glyph glyph-name="breve" unicode="&#x2d8;" horiz-adv-x="1024" 
d="M907 1409h107q-38 -141 -131.5 -213t-231.5 -72q-136 0 -210 72t-74 203v10h106q6 -170 184 -170q182 0 250 170z" />
    <glyph glyph-name="dotaccent" unicode="&#x2d9;" horiz-adv-x="1024" 
d="M672 1356q41 0 64.5 -24t23.5 -64q0 -45 -31 -75t-74 -30q-39 0 -63.5 23.5t-24.5 60.5q0 47 30 78t75 31z" />
    <glyph glyph-name="ring" unicode="&#x2da;" horiz-adv-x="1024" 
d="M682 1458q74 0 122 -46t48 -116q0 -90 -58 -150.5t-143 -60.5q-75 0 -123.5 47t-48.5 119q0 88 59.5 147.5t143.5 59.5zM678 1360q-40 0 -69 -28t-29 -70q0 -33 21 -55.5t54 -22.5q41 0 70 28t29 70q0 33 -21.5 55.5t-54.5 22.5z" />
    <glyph glyph-name="ogonek" unicode="&#x2db;" horiz-adv-x="1024" 
d="M567 78l31 -76q-112 -46 -179 -109.5t-67 -132.5q0 -34 23 -53.5t61 -19.5q77 0 152 57h6l-23 -115q-62 -39 -151 -39q-84 0 -132 43t-48 111q0 99 84.5 186t242.5 148z" />
    <glyph glyph-name="tilde" unicode="&#x2dc;" horiz-adv-x="1024" 
d="M1004 1389l-25 -138q-75 -104 -188 -104q-75 0 -154 61q-37 29 -59.5 39t-51.5 10q-105 0 -194 -127h-6l20 138q38 49 89 76.5t104 27.5q39 0 72.5 -13t78.5 -48q37 -29 59.5 -39t51.5 -10q103 0 196 127h7z" />
    <glyph glyph-name="hungarumlaut" unicode="&#x2dd;" horiz-adv-x="1024" 
d="M360 1106l299 326h160l-323 -326h-136zM719 1106l305 326h154l-320 -326h-139z" />
    <glyph glyph-name="uni0394" unicode="&#x394;" horiz-adv-x="1474" 
d="M1346 0h-1403l893 1360h143zM1153 137l-270 1049h-4l-680 -1049h954z" />
    <glyph glyph-name="uni03A9" unicode="&#x3a9;" horiz-adv-x="1591" 
d="M1409 137l-25 -137h-499l26 129q210 84 329.5 256t119.5 387q0 213 -133.5 342t-354.5 129q-131 0 -248 -48.5t-200 -132.5t-131.5 -201t-48.5 -249q0 -161 79.5 -285.5t221.5 -197.5l-25 -129h-500l27 137h299v4q-121 72 -187.5 192.5t-66.5 278.5q0 163 59.5 305.5
t163 244t249.5 160t313 58.5q288 0 463.5 -162.5t175.5 -424.5q0 -212 -101.5 -383t-286.5 -269v-4h281z" />
    <glyph glyph-name="uni03BC" unicode="&#x3bc;" horiz-adv-x="1179" 
d="M940 0h-119l29 164h-4q-139 -184 -387 -184q-166 0 -248 94h-4l-92 -463h-138l263 1345h137l-107 -536q-8 -41 -8 -86q0 -111 62.5 -171.5t179.5 -60.5q146 0 251.5 98.5t137.5 264.5l94 491h137z" />
    <glyph glyph-name="pi" unicode="&#x3c0;" horiz-adv-x="1210" 
d="M1083 838l-161 -838h-138l162 838h-540l-164 -838h-138l164 838h-168l23 118h1151l-23 -118h-168z" />
    <glyph glyph-name="uni1E02" unicode="&#x1e02;" horiz-adv-x="1298" 
d="M1014 690v-4q194 -66 194 -268q0 -198 -128 -308t-380 -110h-626l264 1360h516q430 0 430 -313q0 -142 -69.5 -232.5t-200.5 -124.5zM373 758h401q175 0 265.5 68.5t90.5 201.5q0 195 -288 195h-379zM252 137h455q170 0 259 71t89 210q0 203 -293 203h-416zM870 1743
q41 0 64.5 -24t23.5 -64q0 -45 -30.5 -75t-73.5 -30q-39 0 -63.5 23.5t-24.5 60.5q0 47 30 78t74 31z" />
    <glyph glyph-name="uni1E03" unicode="&#x1e03;" horiz-adv-x="1220" 
d="M711 977q196 0 316 -121t120 -315q0 -155 -71.5 -284t-196 -203t-273.5 -74t-250.5 58.5t-142.5 160.5h-4l-43 -199h-119l279 1434h137l-117 -600h4q67 68 160 105.5t201 37.5zM590 102q177 0 298.5 124.5t121.5 305.5q0 145 -88.5 233.5t-235.5 88.5q-177 0 -298.5 -125
t-121.5 -307q0 -143 88.5 -231.5t235.5 -88.5zM457 1806q41 0 64.5 -24t23.5 -64q0 -45 -30.5 -74.5t-74.5 -29.5q-39 0 -63.5 23.5t-24.5 60.5q0 47 30 77.5t75 30.5z" />
    <glyph glyph-name="uni1E0A" unicode="&#x1e0a;" horiz-adv-x="1486" 
d="M338 1360h469q305 0 476 -152.5t171 -421.5q0 -356 -219 -571t-588 -215h-573zM1300 774q0 213 -134 331t-378 118h-325l-211 -1086h401q295 0 471 175t176 462zM926 1743q41 0 64.5 -24t23.5 -64q0 -45 -31 -75t-74 -30q-39 0 -63.5 23.5t-24.5 60.5q0 47 30 78t75 31z
" />
    <glyph glyph-name="uni1E0B" unicode="&#x1e0b;" horiz-adv-x="1220" 
d="M987 0h-117l27 145h-4q-68 -79 -167 -122t-218 -43q-195 0 -314.5 121.5t-119.5 314.5q0 155 71.5 284t195.5 203t273 74q142 0 241 -52.5t144 -146.5h5l124 656h138zM535 102q176 0 296.5 124t120.5 311q0 142 -88.5 229.5t-234.5 87.5q-176 0 -297 -124.5t-121 -311.5
q0 -141 89 -228.5t235 -87.5zM1262 1806q41 0 64.5 -24t23.5 -64q0 -45 -30.5 -74.5t-74.5 -29.5q-39 0 -63.5 23.5t-24.5 60.5q0 47 30 77.5t75 30.5z" />
    <glyph glyph-name="uni1E1E" unicode="&#x1e1e;" horiz-adv-x="1212" 
d="M1057 741l-27 -137h-688l-117 -604h-151l264 1360h987l-27 -137h-835l-94 -482h688zM870 1743q41 0 64.5 -24t23.5 -64q0 -45 -30.5 -75t-73.5 -30q-39 0 -63.5 23.5t-24.5 60.5q0 47 30 78t74 31z" />
    <glyph glyph-name="uni1E1F" unicode="&#x1e1f;" horiz-adv-x="688" 
d="M692 1454q118 0 182 -41l-24 -127h-6q-55 45 -139 45q-95 0 -155.5 -52t-80.5 -155l-33 -168h322l-23 -118h-321l-164 -838h-137l163 838h-184l25 118h182l35 179q31 156 122.5 237.5t235.5 81.5zM649 1806q41 0 64.5 -24t23.5 -64q0 -45 -30.5 -74.5t-73.5 -29.5
q-39 0 -63.5 23.5t-24.5 60.5q0 47 29.5 77.5t74.5 30.5z" />
    <glyph glyph-name="uni1E40" unicode="&#x1e40;" horiz-adv-x="1908" 
d="M1651 0h-152l234 1208h-4l-807 -1208h-131l-334 1196h-4l-232 -1196h-147l264 1360h221l326 -1163h4l782 1163h244zM1190 1743q41 0 64.5 -24t23.5 -64q0 -45 -30.5 -75t-73.5 -30q-40 0 -64.5 23.5t-24.5 60.5q0 47 30 78t75 31z" />
    <glyph glyph-name="uni1E41" unicode="&#x1e41;" horiz-adv-x="1759" 
d="M1362 977q150 0 228.5 -76.5t78.5 -218.5q0 -47 -14 -129l-107 -553h-137l107 551q10 62 10 98q0 100 -52.5 152.5t-156.5 52.5q-138 0 -229 -91.5t-123 -264.5l-97 -498h-137l105 547q12 55 12 102q0 101 -54 153t-157 52q-136 0 -228 -90t-124 -256l-97 -508h-137
l187 956h116l-24 -145h4q122 166 348 166q114 0 187 -51.5t96 -149.5h4q127 201 391 201zM1055 1356q41 0 64.5 -24t23.5 -64q0 -45 -31 -75t-74 -30q-39 0 -63.5 23.5t-24.5 60.5q0 47 30 78t75 31z" />
    <glyph glyph-name="uni1E56" unicode="&#x1e56;" horiz-adv-x="1286" 
d="M338 1360h545q213 0 322.5 -89.5t109.5 -262.5q0 -235 -134.5 -360.5t-389.5 -125.5h-463l-103 -522h-151zM1163 991q0 232 -297 232h-403l-109 -564h443q178 0 272 86.5t94 245.5zM893 1743q41 0 64.5 -24t23.5 -64q0 -45 -30.5 -75t-73.5 -30q-40 0 -64.5 23.5
t-24.5 60.5q0 47 30 78t75 31z" />
    <glyph glyph-name="uni1E57" unicode="&#x1e57;" horiz-adv-x="1220" 
d="M711 977q196 0 316 -121t120 -315q0 -155 -71 -284t-195.5 -203t-274.5 -74q-141 0 -240.5 52.5t-144.5 145.5h-4l-108 -567h-138l262 1345h117l-26 -145h4q68 79 167 122.5t216 43.5zM590 102q177 0 298.5 124.5t121.5 305.5q0 145 -88.5 233.5t-235.5 88.5
q-178 0 -299 -125t-121 -307q0 -143 88.5 -231.5t235.5 -88.5zM803 1354q41 0 64.5 -24t23.5 -64q0 -45 -31 -75t-74 -30q-39 0 -63.5 23.5t-24.5 60.5q0 47 30 78t75 31z" />
    <glyph glyph-name="uni1E60" unicode="&#x1e60;" horiz-adv-x="1181" 
d="M719 1380q151 0 280.5 -35.5t192.5 -93.5l-31 -157h-8q-62 72 -176 110.5t-266 38.5q-164 0 -272.5 -81.5t-108.5 -205.5q0 -86 72.5 -129.5t261.5 -64.5q248 -27 350 -104.5t102 -229.5q0 -209 -149 -328.5t-410 -119.5q-172 0 -314 40.5t-218 112.5l28 158h8
q76 -85 205.5 -129.5t296.5 -44.5q184 0 292 78.5t108 212.5q0 95 -78.5 143t-274.5 70q-237 26 -335.5 97.5t-98.5 211.5q0 203 149.5 326.5t393.5 123.5zM827 1743q41 0 64.5 -24t23.5 -64q0 -45 -30.5 -75t-73.5 -30q-39 0 -63.5 23.5t-24.5 60.5q0 47 30 78t74 31z" />
    <glyph glyph-name="uni1E61" unicode="&#x1e61;" horiz-adv-x="880" 
d="M510 977q101 0 191.5 -24t136.5 -62l-27 -133h-6q-93 96 -297 96q-115 0 -190.5 -54.5t-75.5 -137.5q0 -52 48.5 -78t168.5 -33q179 -10 254 -67.5t75 -174.5q0 -154 -108.5 -241.5t-298.5 -87.5q-119 0 -218 27.5t-159 78.5l29 137h6q103 -121 344 -121
q123 0 197.5 52.5t74.5 138.5q0 62 -51.5 91.5t-185.5 39.5q-171 13 -241.5 64t-70.5 155q0 151 111 242.5t293 91.5zM594 1356q41 0 64.5 -24t23.5 -64q0 -45 -30.5 -75t-73.5 -30q-40 0 -64.5 23.5t-24.5 60.5q0 47 30 78t75 31z" />
    <glyph glyph-name="uni1E6A" unicode="&#x1e6a;" horiz-adv-x="1185" 
d="M815 1223l-237 -1223h-152l238 1223h-465l24 137h1082l-25 -137h-465zM829 1743q41 0 65 -24t24 -64q0 -45 -31 -75t-74 -30q-39 0 -63.5 23.5t-24.5 60.5q0 47 30 78t74 31z" />
    <glyph glyph-name="uni1E6B" unicode="&#x1e6b;" horiz-adv-x="743" 
d="M414 838l-105 -537q-6 -30 -6 -57q0 -67 36 -104.5t101 -37.5q90 0 158 60h6l-31 -152q-68 -30 -153 -30q-125 0 -190.5 61t-65.5 174q0 47 8 88l104 535h-184l25 118h186l72 256h110l-49 -256h322l-23 -118h-321zM494 1599q41 0 64.5 -24t23.5 -64q0 -45 -30.5 -74.5
t-74.5 -29.5q-39 0 -63.5 23.5t-24.5 60.5q0 47 30 77.5t75 30.5z" />
    <glyph glyph-name="Wgrave" unicode="&#x1e80;" horiz-adv-x="2052" 
d="M1460 0h-149l-158 1104h-4l-592 -1104h-149l-189 1360h154l149 -1127h4l602 1127h134l163 -1131h5l587 1131h162zM1180 1493l-199 326h147l177 -326h-125z" />
    <glyph glyph-name="wgrave" unicode="&#x1e81;" horiz-adv-x="1542" 
d="M1087 0h-135l-125 743h-4l-415 -743h-138l-157 956h137l117 -776h4l434 776h113l133 -774h4l415 774h148zM848 1106l-199 326h148l176 -326h-125z" />
    <glyph glyph-name="Wacute" unicode="&#x1e82;" horiz-adv-x="2052" 
d="M1460 0h-149l-158 1104h-4l-592 -1104h-149l-189 1360h154l149 -1127h4l602 1127h134l163 -1131h5l587 1131h162zM1137 1493l299 326h163l-319 -326h-143z" />
    <glyph glyph-name="wacute" unicode="&#x1e83;" horiz-adv-x="1542" 
d="M1087 0h-135l-125 743h-4l-415 -743h-138l-157 956h137l117 -776h4l434 776h113l133 -774h4l415 774h148zM805 1106l299 326h164l-320 -326h-143z" />
    <glyph glyph-name="Wdieresis" unicode="&#x1e84;" horiz-adv-x="2052" 
d="M1460 0h-149l-158 1104h-4l-592 -1104h-149l-189 1360h154l149 -1127h4l602 1127h134l163 -1131h5l587 1131h162zM1065 1737q38 0 61 -22.5t23 -59.5q0 -43 -28.5 -72t-69.5 -29q-37 0 -59.5 22.5t-22.5 57.5q0 45 27 74t69 29zM1462 1737q36 0 58 -22t22 -58
q0 -45 -27 -74t-69 -29q-38 0 -61 22.5t-23 59.5q0 42 29 71.5t71 29.5z" />
    <glyph glyph-name="wdieresis" unicode="&#x1e85;" horiz-adv-x="1542" 
d="M1087 0h-135l-125 743h-4l-415 -743h-138l-157 956h137l117 -776h4l434 776h113l133 -774h4l415 774h148zM733 1350q38 0 61 -22.5t23 -59.5q0 -43 -28.5 -72t-69.5 -29q-37 0 -59.5 22.5t-22.5 57.5q0 45 27 74t69 29zM1130 1350q36 0 58 -22t22 -58q0 -45 -27 -74
t-69 -29q-38 0 -61 22.5t-23 59.5q0 43 29 72t71 29z" />
    <glyph glyph-name="Ygrave" unicode="&#x1ef2;" horiz-adv-x="1359" 
d="M664 0h-152l119 604l-438 756h176l354 -629l598 629h192l-733 -760zM834 1493l-199 326h147l176 -326h-124z" />
    <glyph glyph-name="ygrave" unicode="&#x1ef3;" horiz-adv-x="1009" 
d="M207 -389h-150l289 428l-233 917h141l188 -768h4l490 768h149zM582 1106l-199 326h147l177 -326h-125z" />
    <glyph glyph-name="uni2007" unicode="&#x2007;" horiz-adv-x="1331" 
 />
    <glyph glyph-name="figuredash" unicode="&#x2012;" horiz-adv-x="1331" 
d="M129 618l23 123h1126l-23 -123h-1126z" />
    <glyph glyph-name="endash" unicode="&#x2013;" horiz-adv-x="1024" 
d="M106 496l23 122h819l-22 -122h-820z" />
    <glyph glyph-name="emdash" unicode="&#x2014;" horiz-adv-x="2048" 
d="M1950 496h-1844l23 122h1843z" />
    <glyph glyph-name="quoteleft" unicode="&#x2018;" horiz-adv-x="495" 
d="M567 1360l-235 -447h-144l265 447h114z" />
    <glyph glyph-name="quoteright" unicode="&#x2019;" horiz-adv-x="495" 
d="M184 913l234 447h143l-264 -447h-113z" />
    <glyph glyph-name="quotesinglbase" unicode="&#x201a;" horiz-adv-x="495" 
d="M-98 -291l233 447h144l-265 -447h-112z" />
    <glyph glyph-name="quotedblleft" unicode="&#x201c;" horiz-adv-x="843" 
d="M915 1360l-235 -447h-143l264 447h114zM567 1360l-235 -447h-144l265 447h114z" />
    <glyph glyph-name="quotedblright" unicode="&#x201d;" horiz-adv-x="843" 
d="M184 913l234 447h143l-264 -447h-113zM532 913l234 447h143l-264 -447h-113z" />
    <glyph glyph-name="quotedblbase" unicode="&#x201e;" horiz-adv-x="843" 
d="M250 -291l233 447h144l-265 -447h-112zM-98 -291l233 447h144l-265 -447h-112z" />
    <glyph glyph-name="dagger" unicode="&#x2020;" horiz-adv-x="1003" 
d="M657 981l-153 -791h-115l152 791h-334l20 104h334l68 349h116l-67 -349h332l-19 -104h-334z" />
    <glyph glyph-name="daggerdbl" unicode="&#x2021;" horiz-adv-x="1003" 
d="M592 643h334l-21 -104h-334l-67 -349h-115l68 349h-334l20 104h334l64 338h-334l20 104h334l68 349h116l-67 -349h332l-19 -104h-334z" />
    <glyph glyph-name="bullet" unicode="&#x2022;" horiz-adv-x="1024" 
d="M553 844q117 0 189.5 -72t72.5 -186q0 -133 -91.5 -224.5t-221.5 -91.5q-117 0 -189.5 72t-72.5 186q0 134 91.5 225t221.5 91z" />
    <glyph glyph-name="ellipsis" unicode="&#x2026;" horiz-adv-x="2048" 
d="M1593 176q38 0 63 -24.5t25 -61.5q0 -46 -32 -78t-76 -32q-38 0 -63 24.5t-25 61.5q0 46 32 78t76 32zM956 176q38 0 63 -24.5t25 -61.5q0 -46 -32 -78t-76 -32q-38 0 -63 24.5t-25 61.5q0 46 32 78t76 32zM319 176q38 0 63.5 -24.5t25.5 -61.5q0 -46 -32.5 -78
t-76.5 -32q-38 0 -63 24.5t-25 61.5q0 46 32 78t76 32z" />
    <glyph glyph-name="perthousand" unicode="&#x2030;" horiz-adv-x="2254" 
d="M1884 653q127 0 200 -70.5t73 -193.5q0 -44 -8 -89t-24.5 -91.5t-44.5 -87t-66 -72.5t-92 -50.5t-118 -18.5q-128 0 -199 72t-71 198q0 54 11.5 107.5t38 107.5t65.5 95t100 67t135 26zM1880 545q-59 0 -104.5 -27.5t-70.5 -72t-37.5 -92.5t-12.5 -97q0 -79 41.5 -123.5
t113.5 -44.5q60 0 106 29t70.5 74.5t37 93.5t12.5 94q0 79 -41.5 122.5t-114.5 43.5zM528 1380q127 0 200 -70.5t73 -193.5q0 -53 -10.5 -107t-37 -109.5t-65.5 -97.5t-101 -68.5t-138 -26.5q-128 0 -199.5 72.5t-71.5 197.5q0 54 11.5 107.5t38 107.5t65.5 95t100 67
t135 26zM178 0l1118 1360h148l-1118 -1360h-148zM524 1272q-59 0 -104.5 -27.5t-70.5 -72t-37.5 -92.5t-12.5 -97q0 -79 42 -123.5t114 -44.5q60 0 105.5 29t70.5 75t37 93.5t12 93.5q0 79 -41.5 122.5t-114.5 43.5zM1174 653q127 0 199.5 -70.5t72.5 -193.5
q0 -53 -10.5 -107t-37 -109.5t-65.5 -97.5t-101 -68.5t-138 -26.5q-128 0 -199.5 72.5t-71.5 197.5q0 54 11.5 107.5t38 107.5t66 95t100.5 67t135 26zM1169 545q-59 0 -104.5 -27.5t-70.5 -72t-37.5 -92.5t-12.5 -97q0 -79 42 -123.5t114 -44.5q60 0 105.5 29t70.5 75
t37 93.5t12 93.5q0 79 -41.5 122.5t-114.5 43.5z" />
    <glyph glyph-name="guilsinglleft" unicode="&#x2039;" horiz-adv-x="583" 
d="M197 467l223 -281l-27 -137l-327 424v10l493 424l-29 -162z" />
    <glyph glyph-name="guilsinglright" unicode="&#x203a;" horiz-adv-x="583" 
d="M25 49l30 160l332 280l-221 279l27 139l325 -424v-10z" />
    <glyph glyph-name="fraction" unicode="&#x2044;" horiz-adv-x="303" 
d="M-442 0l1144 1360h123l-1144 -1360h-123z" />
    <glyph glyph-name="zerosuperior" unicode="&#x2070;" 
d="M631 1647q135 0 207.5 -79t72.5 -225q0 -72 -13.5 -146.5t-45.5 -150t-79 -133.5t-119 -94.5t-160 -36.5q-134 0 -206.5 78.5t-72.5 224.5q0 72 13.5 146.5t45.5 150t78.5 134t118.5 95t160 36.5zM625 1550q-64 0 -116.5 -31t-86 -79.5t-56.5 -110.5t-32.5 -121
t-9.5 -114q0 -105 45.5 -160t132.5 -55q64 0 117 31.5t86.5 80.5t56 111.5t32 121.5t9.5 113q0 104 -46 158.5t-132 54.5z" />
    <glyph glyph-name="foursuperior" unicode="&#x2074;" 
d="M735 795h-106l33 170h-482l19 92l592 577h108l-113 -573h117l-18 -96h-117zM332 1061h348l84 420z" />
    <glyph glyph-name="fivesuperior" unicode="&#x2075;" 
d="M457 1538l-43 -225q65 22 153 22q136 0 210.5 -65.5t74.5 -182.5q0 -141 -97.5 -223t-254.5 -82q-96 0 -175 23t-124 63l22 111h6q87 -100 269 -100q113 0 179 54t66 150q0 77 -55 117.5t-162 40.5q-114 0 -231 -55h-6l86 448h532l-18 -96h-432z" />
    <glyph glyph-name="sixsuperior" unicode="&#x2076;" 
d="M688 1647q146 0 217 -64l-20 -106h-6q-58 73 -189 73q-124 0 -210 -75.5t-124 -219.5h4q97 82 242 82q125 0 195.5 -64t70.5 -171q0 -147 -89.5 -233.5t-235.5 -86.5q-147 0 -230.5 84t-83.5 234q0 68 14.5 139t49.5 145t86 132t131 94.5t178 36.5zM586 1243
q-151 0 -248 -131q-2 -10 -2 -31q0 -93 56.5 -147.5t152.5 -54.5t156.5 60.5t60.5 150.5q0 72 -47 112.5t-129 40.5z" />
    <glyph glyph-name="sevensuperior" unicode="&#x2077;" 
d="M360 795h-131l627 743h-522l18 96h643l-18 -102z" />
    <glyph glyph-name="eightsuperior" unicode="&#x2078;" 
d="M743 1225v-4q121 -51 121 -177q0 -125 -95.5 -193.5t-268.5 -68.5q-148 0 -231 56.5t-83 156.5q0 93 52 152.5t153 81.5v4q-102 49 -102 160q0 121 89.5 187.5t248.5 66.5q137 0 214 -55.5t77 -153.5q0 -168 -175 -213zM618 1550q-105 0 -165 -41.5t-60 -115.5
q0 -121 191 -121q110 0 169.5 40.5t59.5 117.5q0 59 -50 89.5t-145 30.5zM508 879q119 0 185.5 44.5t66.5 125.5q0 63 -56 96t-161 33q-119 0 -184.5 -42.5t-65.5 -123.5q0 -64 56 -98.5t159 -34.5z" />
    <glyph glyph-name="ninesuperior" unicode="&#x2079;" 
d="M440 782q-146 0 -217 64l21 106h6q58 -73 188 -73q124 0 210 75.5t124 219.5h-4q-97 -82 -242 -82q-124 0 -195 64t-71 171q0 146 90 233t236 87q147 0 230 -84t83 -234q0 -68 -14.5 -139t-49.5 -145t-86 -132t-131 -94.5t-178 -36.5zM543 1186q151 0 248 131q2 10 2 31
q0 93 -56.5 147.5t-152.5 54.5t-156.5 -60.5t-60.5 -150.5q0 -72 47 -112.5t129 -40.5z" />
    <glyph glyph-name="zeroinferior" unicode="&#x2080;" 
d="M401 463q135 0 208 -78.5t73 -224.5q0 -59 -10 -121t-30.5 -126t-54.5 -119.5t-78.5 -99.5t-107.5 -69.5t-137 -25.5q-134 0 -206 78.5t-72 224.5q0 60 10 121.5t29.5 125.5t53.5 119.5t78.5 99.5t107 69.5t136.5 25.5zM395 367q-64 0 -116.5 -31t-86 -80t-56.5 -111
t-32.5 -121t-9.5 -114q0 -105 45.5 -160t132.5 -55q64 0 117 31.5t86.5 81t56 112t32 121.5t9.5 113q0 104 -46 158.5t-132 54.5z" />
    <glyph glyph-name="oneinferior" unicode="&#x2081;" 
d="M434 -389h-106l139 713l-252 -146l21 111l276 162h86z" />
    <glyph glyph-name="twoinferior" unicode="&#x2082;" 
d="M559 -293l-20 -96h-574l21 102l194 137q225 158 298 232t73 151q0 64 -44 99t-126 35q-67 0 -141.5 -31t-135.5 -82h-6l27 127q121 82 268 82q125 0 194.5 -57t69.5 -160q0 -77 -33 -138t-120 -135.5t-256 -185.5l-117 -76v-4h428z" />
    <glyph glyph-name="threeinferior" unicode="&#x2083;" 
d="M674 254q0 -78 -44.5 -134t-125.5 -83v-4q108 -54 108 -172q0 -123 -91.5 -192.5t-250.5 -69.5q-85 0 -164 26t-124 70l22 108h6q42 -52 111.5 -80t150.5 -28q108 0 171 47t63 125q0 125 -191 125h-114l16 94h121q110 0 169.5 39.5t59.5 116.5q0 61 -49.5 93t-140.5 32
q-67 0 -138.5 -29.5t-127.5 -79.5h-7l25 123q111 82 260 82q136 0 210.5 -55t74.5 -154z" />
    <glyph glyph-name="fourinferior" unicode="&#x2084;" 
d="M506 -389h-107l33 170h-481l18 92l592 578h109l-113 -574h117l-19 -96h-116zM102 -123h349l84 420z" />
    <glyph glyph-name="fiveinferior" unicode="&#x2085;" 
d="M227 354l-43 -225q68 23 154 23q136 0 210.5 -65.5t74.5 -182.5q0 -141 -97.5 -223t-255.5 -82q-96 0 -175 23t-124 63l23 110h6q87 -100 268 -100q113 0 179.5 54.5t66.5 150.5q0 77 -55 117t-162 40q-114 0 -231 -55h-7l86 449h533l-19 -97h-432z" />
    <glyph glyph-name="sixinferior" unicode="&#x2086;" 
d="M459 463q146 0 217 -64l-21 -106h-6q-59 74 -188 74q-124 0 -210 -75.5t-124 -219.5h4q97 82 242 82q124 0 195 -64.5t71 -171.5q0 -146 -90 -232.5t-236 -86.5q-147 0 -230 83.5t-83 233.5q0 68 14.5 139t49.5 145t86 132t131 94.5t178 36.5zM356 59q-150 0 -247 -131
q-3 -15 -3 -30q0 -93 56.5 -148t152.5 -55t156.5 60.5t60.5 150.5q0 72 -47 112.5t-129 40.5z" />
    <glyph glyph-name="seveninferior" unicode="&#x2087;" 
d="M131 -389h-131l627 743h-523l19 97h643l-18 -103z" />
    <glyph glyph-name="eightinferior" unicode="&#x2088;" 
d="M514 41v-4q121 -51 121 -176q0 -124 -96 -193t-269 -69q-147 0 -230 56.5t-83 156.5q0 93 52 152t153 81v4q-103 50 -103 160q0 121 89.5 187.5t248.5 66.5q137 0 214 -55.5t77 -153.5q0 -168 -174 -213zM389 367q-105 0 -165 -41.5t-60 -116.5q0 -121 190 -121
q110 0 170 40.5t60 117.5q0 59 -50 90t-145 31zM279 -305q119 0 185 44.5t66 125.5q0 63 -56 96t-161 33q-119 0 -184.5 -42.5t-65.5 -123.5q0 -64 56.5 -98.5t159.5 -34.5z" />
    <glyph glyph-name="nineinferior" unicode="&#x2089;" 
d="M211 -401q-148 0 -217 63l20 107h6q59 -74 189 -74q124 0 210 75.5t124 219.5h-4q-97 -82 -242 -82q-125 0 -195.5 64t-70.5 171q0 147 89.5 233.5t235.5 86.5q147 0 230.5 -84t83.5 -234q0 -68 -14.5 -139t-49.5 -145t-86 -131.5t-131 -94t-178 -36.5zM313 2
q151 0 248 131q2 10 2 31q0 93 -56.5 148t-152.5 55t-156.5 -60.5t-60.5 -150.5q0 -72 47 -113t129 -41z" />
    <glyph glyph-name="Euro" unicode="&#x20ac;" horiz-adv-x="1331" 
d="M1022 1380q111 0 198.5 -27t137.5 -75l-29 -148h-8q-92 121 -303 121q-169 0 -302.5 -89t-211.5 -253h641l-25 -123h-663q-32 -86 -41 -198h665l-22 -123h-645q11 -170 109 -263t272 -93q98 0 191 34t163 93h8l-35 -170q-133 -86 -350 -86q-234 0 -365 128t-139 357h-162
l23 123h143q6 91 39 198h-141l23 123h161q94 224 268.5 347.5t399.5 123.5z" />
    <glyph glyph-name="uni20B9" unicode="&#x20b9;" horiz-adv-x="1331" 
d="M1024 1241v-4q87 -72 90 -201h205l-25 -118h-192q-68 -328 -492 -328h-104v-4l561 -586h-178l-578 610l19 103h256q162 0 250 47t120 158h-735l23 118h729q-4 108 -83.5 154.5t-240.5 46.5h-366l22 123h1073l-22 -119h-332z" />
    <glyph glyph-name="uni2113" unicode="&#x2113;" horiz-adv-x="956" 
d="M395 412l-12 -64q-8 -54 -8 -76q0 -170 168 -170q116 0 215 93h6l-33 -164q-92 -51 -213 -51q-135 0 -208.5 67t-73.5 193q0 36 6 77q-20 -12 -44 -24.5t-54 -28t-48 -24.5l21 145q97 49 153 84l119 608q28 144 114.5 222.5t217.5 78.5q107 0 164 -57t57 -160
q0 -83 -30 -171.5t-93 -184t-171 -196.5t-253 -197zM524 1063l-96 -490q193 147 288 300t95 274q0 108 -100 108q-145 0 -187 -192z" />
    <glyph glyph-name="uni2117" unicode="&#x2117;" horiz-adv-x="1626" 
d="M688 1038h289q115 0 173 -49.5t58 -144.5q0 -260 -280 -260h-228l-49 -262h-102zM1106 838q0 110 -141 110h-197l-51 -274h215q174 0 174 164zM918 1380q281 0 458.5 -175.5t177.5 -448.5q0 -162 -59.5 -306t-162 -247t-245 -163t-301.5 -60q-281 0 -458.5 175.5
t-177.5 448.5q0 162 59.5 306t162 247t245 163t301.5 60zM918 1290q-184 0 -339 -91t-244 -247.5t-89 -343.5q0 -236 151 -387t389 -151q184 0 339 91t244 247.5t89 343.5q0 236 -151 387t-389 151z" />
    <glyph glyph-name="trademark" unicode="&#x2122;" horiz-adv-x="1566" 
d="M502 1278l-117 -608h-94l117 608h-213l14 82h522l-14 -82h-215zM1485 670h-94l110 577h-4l-358 -579h-86l-135 577h-5l-110 -575h-88l133 690h135l131 -565h4l350 565h150z" />
    <glyph glyph-name="uni2126" unicode="&#x2126;" horiz-adv-x="1591" 
d="M1409 137l-25 -137h-499l26 129q210 84 329.5 256t119.5 387q0 213 -133.5 342t-354.5 129q-131 0 -248 -48.5t-200 -132.5t-131.5 -201t-48.5 -249q0 -161 79.5 -285.5t221.5 -197.5l-25 -129h-500l27 137h299v4q-121 72 -187.5 192.5t-66.5 278.5q0 163 59.5 305.5
t163 244t249.5 160t313 58.5q288 0 463.5 -162.5t175.5 -424.5q0 -212 -101.5 -383t-286.5 -269v-4h281z" />
    <glyph glyph-name="estimated" unicode="&#x212e;" horiz-adv-x="1665" 
d="M870 1380q150 0 287 -55t235.5 -148.5t157 -223.5t58.5 -273v-16h-1196q-3 0 -6 -3t-3 -6v-385q0 -16 17 -41q86 -98 204 -153.5t250 -55.5q138 0 262 62.5t214 171.5h108q-105 -127 -259 -200.5t-329 -73.5q-150 0 -286.5 55.5t-235.5 149t-157 223t-58 272.5t58 273
t157 223.5t235.5 148.5t286.5 55zM874 1339q-130 0 -247 -54t-207 -150q-17 -25 -17 -45v-377q0 -13 9 -13h917q12 0 12 13v385q0 25 -20 45q-89 92 -205 144t-242 52z" />
    <glyph glyph-name="onethird" unicode="&#x2153;" horiz-adv-x="1982" 
d="M397 0l1145 1360h123l-1145 -1360h-123zM1892 643q0 -78 -44.5 -134t-125.5 -83v-4q109 -54 109 -172q0 -123 -91.5 -192.5t-250.5 -69.5q-85 0 -164.5 26t-124.5 70l23 109h6q42 -52 112 -80.5t150 -28.5q108 0 170.5 46.5t62.5 125.5q0 125 -190 125h-115l17 94h120
q110 0 170 39.5t60 116.5q0 61 -49.5 93t-141.5 32q-67 0 -138.5 -29.5t-127.5 -79.5h-6l25 123q111 82 260 82q136 0 210 -55t74 -154zM610 520h-106l139 713l-252 -146l21 111l276 162h86z" />
    <glyph glyph-name="twothirds" unicode="&#x2154;" horiz-adv-x="1982" 
d="M428 0l1145 1360h123l-1145 -1360h-123zM1892 643q0 -78 -44.5 -134t-125.5 -83v-4q109 -54 109 -172q0 -123 -91.5 -192.5t-250.5 -69.5q-85 0 -164.5 26t-124.5 70l23 109h6q42 -52 112 -80.5t150 -28.5q108 0 170.5 46.5t62.5 125.5q0 125 -190 125h-115l17 94h120
q110 0 170 39.5t60 116.5q0 61 -49.5 93t-141.5 32q-67 0 -138.5 -29.5t-127.5 -79.5h-6l25 123q111 82 260 82q136 0 210 -55t74 -154zM735 616l-20 -96h-574l21 103l194 137q225 158 298 232t73 151q0 64 -44 98.5t-126 34.5q-67 0 -141 -30.5t-135 -82.5h-7l27 127
q121 82 268 82q125 0 195 -57t70 -160q0 -76 -33.5 -137.5t-120.5 -136t-256 -185.5l-117 -75v-5h428z" />
    <glyph glyph-name="oneeighth" unicode="&#x215b;" horiz-adv-x="1982" 
d="M397 0l1145 1360h123l-1145 -1360h-123zM1733 430v-4q120 -51 120 -176t-95.5 -193.5t-268.5 -68.5q-147 0 -230 56.5t-83 156.5q0 189 204 233v4q-102 50 -102 160q0 121 89.5 187.5t248.5 66.5q137 0 214 -55.5t77 -153.5q0 -168 -174 -213zM1608 756
q-105 0 -165.5 -42t-60.5 -116q0 -121 191 -121q110 0 169.5 40.5t59.5 117.5q0 59 -49.5 90t-144.5 31zM1497 84q119 0 185.5 44.5t66.5 125.5q0 63 -56 96t-161 33q-119 0 -184.5 -42.5t-65.5 -123.5q0 -64 56 -98.5t159 -34.5zM610 520h-106l139 713l-252 -146l21 111
l276 162h86z" />
    <glyph glyph-name="threeeighths" unicode="&#x215c;" horiz-adv-x="1982" 
d="M403 0l1145 1360h123l-1145 -1360h-123zM1733 430v-4q120 -51 120 -176t-95.5 -193.5t-268.5 -68.5q-147 0 -230 56.5t-83 156.5q0 189 204 233v4q-102 50 -102 160q0 121 89.5 187.5t248.5 66.5q137 0 214 -55.5t77 -153.5q0 -168 -174 -213zM1608 756
q-105 0 -165.5 -42t-60.5 -116q0 -121 191 -121q110 0 169.5 40.5t59.5 117.5q0 59 -49.5 90t-144.5 31zM1497 84q119 0 185.5 44.5t66.5 125.5q0 63 -56 96t-161 33q-119 0 -184.5 -42.5t-65.5 -123.5q0 -64 56 -98.5t159 -34.5zM850 1163q0 -78 -44.5 -134t-125.5 -83v-4
q108 -54 108 -172q0 -123 -91.5 -192.5t-250.5 -69.5q-85 0 -164 26t-124 70l22 109h6q42 -52 112 -80.5t151 -28.5q108 0 170.5 46.5t62.5 125.5q0 125 -190 125h-115l16 94h121q110 0 169.5 39.5t59.5 116.5q0 61 -49.5 93t-140.5 32q-67 0 -138.5 -29.5t-127.5 -79.5h-6
l24 123q111 82 260 82q136 0 210.5 -55t74.5 -154z" />
    <glyph glyph-name="fiveeighths" unicode="&#x215d;" horiz-adv-x="1982" 
d="M403 0l1145 1360h123l-1145 -1360h-123zM1733 430v-4q120 -51 120 -176t-95.5 -193.5t-268.5 -68.5q-147 0 -230 56.5t-83 156.5q0 189 204 233v4q-102 50 -102 160q0 121 89.5 187.5t248.5 66.5q137 0 214 -55.5t77 -153.5q0 -168 -174 -213zM1608 756
q-105 0 -165.5 -42t-60.5 -116q0 -121 191 -121q110 0 169.5 40.5t59.5 117.5q0 59 -49.5 90t-144.5 31zM1497 84q119 0 185.5 44.5t66.5 125.5q0 63 -56 96t-161 33q-119 0 -184.5 -42.5t-65.5 -123.5q0 -64 56 -98.5t159 -34.5zM403 1264l-43 -226q68 23 154 23
q136 0 210.5 -65.5t74.5 -182.5q0 -141 -97.5 -223t-255.5 -82q-96 0 -175 23t-124 63l23 111h6q88 -101 268 -101q113 0 179.5 54.5t66.5 150.5q0 77 -55 117.5t-162 40.5q-112 0 -231 -56h-6l86 449h532l-18 -96h-433z" />
    <glyph glyph-name="seveneighths" unicode="&#x215e;" horiz-adv-x="1982" 
d="M303 0l1145 1360h123l-1145 -1360h-123zM1733 430v-4q120 -51 120 -176t-95.5 -193.5t-268.5 -68.5q-147 0 -230 56.5t-83 156.5q0 189 204 233v4q-102 50 -102 160q0 121 89.5 187.5t248.5 66.5q137 0 214 -55.5t77 -153.5q0 -168 -174 -213zM1608 756
q-105 0 -165.5 -42t-60.5 -116q0 -121 191 -121q110 0 169.5 40.5t59.5 117.5q0 59 -49.5 90t-144.5 31zM1497 84q119 0 185.5 44.5t66.5 125.5q0 63 -56 96t-161 33q-119 0 -184.5 -42.5t-65.5 -123.5q0 -64 56 -98.5t159 -34.5zM307 520h-131l627 744h-522l18 96h643
l-18 -103z" />
    <glyph glyph-name="partialdiff" unicode="&#x2202;" horiz-adv-x="1214" 
d="M817 1454q184 0 283.5 -108t99.5 -304q0 -89 -22.5 -199.5t-64 -230t-109 -232t-150 -202t-195 -144t-235.5 -54.5q-157 0 -251.5 96t-94.5 252q0 119 46 233t122 198t178 135.5t209 51.5q125 0 224.5 -56.5t143.5 -152.5h5q51 170 51 289q0 145 -72.5 222t-210.5 77
q-161 0 -311 -115h-8l30 160q140 84 332 84zM444 109q149 0 282.5 127.5t223.5 343.5q-23 106 -108.5 171.5t-192.5 65.5q-84 0 -163 -40t-136.5 -105.5t-92 -153.5t-34.5 -180q0 -103 60 -166t161 -63z" />
    <glyph glyph-name="uni2206" unicode="&#x2206;" horiz-adv-x="1474" 
d="M1346 0h-1403l893 1360h143zM1153 137l-270 1049h-4l-680 -1049h954z" />
    <glyph glyph-name="product" unicode="&#x220f;" horiz-adv-x="1415" 
d="M1110 -266h-152l289 1489h-790l-289 -1489h-152l316 1626h1093z" />
    <glyph glyph-name="summation" unicode="&#x2211;" horiz-adv-x="1171" 
d="M420 1223l432 -693l-662 -659h818l-27 -137h-1032l24 129l689 684l-422 684l24 129h1032l-26 -137h-850z" />
    <glyph glyph-name="minus" unicode="&#x2212;" horiz-adv-x="1331" 
d="M121 553l22 123h1121l-25 -123h-1118z" />
    <glyph glyph-name="uni2219" unicode="&#x2219;" horiz-adv-x="495" 
d="M297 778q38 0 63 -24.5t25 -61.5q0 -46 -32.5 -78t-76.5 -32q-38 0 -63 24.5t-25 61.5q0 46 32.5 78t76.5 32z" />
    <glyph glyph-name="radical" unicode="&#x221a;" horiz-adv-x="1058" 
d="M483 -143h-147l-117 481h-162l25 123h252l92 -414h4l633 1354h151z" />
    <glyph glyph-name="infinity" unicode="&#x221e;" horiz-adv-x="1419" 
d="M1096 993q122 0 194 -73t72 -197q0 -158 -92 -257t-238 -99q-100 0 -172.5 48t-124.5 152h-4q-76 -105 -154.5 -152.5t-175.5 -47.5q-122 0 -194 73t-72 197q0 158 92 257t238 99q99 0 170 -48.5t125 -153.5h4q76 106 155 154t177 48zM422 481q74 0 135.5 44t128.5 145
q-51 113 -105.5 161t-131.5 48q-86 0 -139.5 -66t-53.5 -172q0 -74 45 -117t121 -43zM1049 481q86 0 141 66.5t55 169.5q0 73 -46.5 117.5t-123.5 44.5q-74 0 -135.5 -44t-130.5 -147q52 -113 107.5 -160t132.5 -47z" />
    <glyph glyph-name="integral" unicode="&#x222b;" horiz-adv-x="763" 
d="M195 -129l258 1319q26 135 95.5 199.5t186.5 64.5q95 0 162 -43l-25 -127h-6q-38 47 -123 47q-127 0 -157 -157l-256 -1319q-52 -265 -283 -265q-95 0 -162 43l25 127h6q41 -47 123 -47q126 0 156 158z" />
    <glyph glyph-name="approxequal" unicode="&#x2248;" horiz-adv-x="1331" 
d="M1257 1040l89 -77q-106 -140 -193 -199t-188 -59q-68 0 -128.5 24.5t-136.5 87.5q-61 51 -99.5 69.5t-80.5 18.5q-72 0 -140 -47.5t-155 -161.5l-88 74q106 140 193 199t188 59q68 0 129.5 -26.5t134.5 -88.5q99 -86 179 -86q72 0 139.5 48.5t156.5 164.5zM1159 537
l88 -78q-106 -140 -193 -199t-188 -59q-68 0 -128 24.5t-136 87.5q-61 51 -99.5 69.5t-80.5 18.5q-73 0 -140.5 -47.5t-154.5 -160.5l-88 73q106 140 193 199t188 59q69 0 130.5 -26t133.5 -88q55 -48 96 -67t82 -19q72 0 140 48.5t157 164.5z" />
    <glyph glyph-name="notequal" unicode="&#x2260;" horiz-adv-x="1331" 
d="M623 420h571l-25 -123h-647l-229 -283h-135l229 283h-295l25 123h370l316 389h-615l27 123h688l230 282h135l-230 -282h254l-24 -123h-330z" />
    <glyph glyph-name="lessequal" unicode="&#x2264;" horiz-adv-x="1331" 
d="M383 719l784 -324l-22 -129l-959 412l21 100l1116 412l-27 -139l-913 -328v-4zM1114 123l-22 -123h-1037l23 123h1036z" />
    <glyph glyph-name="greaterequal" unicode="&#x2265;" horiz-adv-x="1331" 
d="M1225 678l-1119 -412l27 140l911 327v4l-784 326l25 127l958 -412zM1114 123l-22 -123h-1037l23 123h1036z" />
    <glyph glyph-name="lozenge" unicode="&#x25ca;" horiz-adv-x="1226" 
d="M467 0l-334 680l596 680h109l338 -680l-598 -680h-111zM283 670l258 -531l483 551l-258 531z" />
    <glyph glyph-name="uniE069" unicode="&#xe069;" horiz-adv-x="417" 
d="M369 1354q39 0 62.5 -23.5t23.5 -62.5q0 -44 -30.5 -73.5t-72.5 -29.5q-39 0 -62.5 23.5t-23.5 60.5q0 44 30.5 74.5t72.5 30.5zM47 0l186 956h138l-187 -956h-137z" />
    <glyph glyph-name="uniEF01" unicode="&#xef01;" horiz-adv-x="1024" 
d="M49 -430l273 297h159l-297 -297h-135z" />
    <glyph glyph-name="uniEF02" unicode="&#xef02;" horiz-adv-x="1024" 
d="M522 1055l137 379h142l-170 -379h-109z" />
    <glyph glyph-name="uniF8FF" unicode="&#xf8ff;" horiz-adv-x="2048" 
d="M899 430v107h-2l-35 -160h-47l57 258h56v-135h2l57 135h64l-58 -258h-49l35 160h-2l-45 -107h-33zM287 584l-35 -158q-8 -26 -19.5 -37.5t-31.5 -11.5h-95l58 258h88q37 0 37 -31q0 -8 -2 -20zM600 377h-49l12 53h-35l-14 -53h-49l47 211q9 47 53 47h45q37 0 37 -31
q0 -8 -2 -20zM1167 377h-49l12 53h-34l-15 -53h-49l47 211q9 47 54 47h45q36 0 36 -31q0 -8 -2 -20zM821 584l-22 -107q-8 -35 -27 -41l12 -59h-47l-8 53h-27l-12 -53h-49l57 258h88q37 0 37 -31q0 -8 -2 -20zM1731 584l-25 -109q-9 -45 -49 -45h-45l-13 -53h-49l58 258h88
q37 0 37 -31q0 -8 -2 -20zM477 635l-57 -258h-49l12 53h-37l-12 -53h-49l57 258h49l-37 -166h37l37 166h49zM1440 635h49l-35 -154q-1 -7 0.5 -9.5t7.5 -2.5h15q9 0 12 8l35 158h49l-35 -160q-9 -45 -49 -45l-29 -53h-49l29 53q-37 0 -37 31q0 10 2 20zM1845 496l-8 -39h-53
l-8 -41h67l-10 -39h-115l58 258h116l-10 -39h-65l-23 -100h51zM1374 596l-49 -219h-49l49 219h-39l8 39h125l-8 -39h-37zM205 596l-41 -180h26q10 0 13 10l35 158q2 12 -7 12h-26zM1659 477l22 107q1 7 -0.5 9.5t-7.5 2.5h-24l-29 -127h27q9 0 12 8zM750 477l22 107
q1 7 -0.5 9.5t-7.5 2.5h-25l-28 -127h26q10 0 13 8zM1155 596h-14q-11 0 -13 -10l-26 -117h37l24 115q1 7 -0.5 9.5t-7.5 2.5zM588 596h-15q-9 0 -12 -10l-26 -117h36l25 115q1 7 -0.5 9.5t-7.5 2.5zM2021 682v-61h-12v51h-2l-14 -41h-8l-15 41h-2v-51h-10v61h20l11 -33h2
l10 33h20zM1950 682v-10h-19v-51h-12v51h-16v10h47z" />
    <glyph glyph-name="zero.numr" 
d="M578 1372q135 0 207.5 -78.5t72.5 -224.5q0 -59 -10 -121t-30.5 -126t-54.5 -119.5t-78.5 -99.5t-107.5 -69.5t-137 -25.5q-134 0 -206 78.5t-72 224.5q0 72 13.5 146.5t45.5 150t78.5 133.5t118.5 94.5t160 36.5zM571 1276q-64 0 -116.5 -31t-86 -80t-56.5 -111
t-32.5 -121t-9.5 -114q0 -105 45.5 -160t133.5 -55q64 0 117 31.5t86.5 81t56 112t32 121.5t9.5 113q0 104 -46 158.5t-133 54.5z" />
    <glyph glyph-name="one.numr" 
d="M610 520h-106l139 713l-252 -146l21 111l276 162h86z" />
    <glyph glyph-name="two.numr" 
d="M735 616l-20 -96h-574l21 103l194 137q225 158 298 232t73 151q0 64 -44 98.5t-126 34.5q-67 0 -141 -30.5t-135 -82.5h-7l27 127q121 82 268 82q125 0 195 -57t70 -160q0 -76 -33.5 -137.5t-120.5 -136t-256 -185.5l-117 -75v-5h428z" />
    <glyph glyph-name="three.numr" 
d="M850 1163q0 -78 -44.5 -134t-125.5 -83v-4q108 -54 108 -172q0 -123 -91.5 -192.5t-250.5 -69.5q-85 0 -164 26t-124 70l22 109h6q42 -52 112 -80.5t151 -28.5q108 0 170.5 46.5t62.5 125.5q0 125 -190 125h-115l16 94h121q110 0 169.5 39.5t59.5 116.5q0 61 -49.5 93
t-140.5 32q-67 0 -138.5 -29.5t-127.5 -79.5h-6l24 123q111 82 260 82q136 0 210.5 -55t74.5 -154z" />
    <glyph glyph-name="four.numr" 
d="M682 520h-107l33 170h-481l18 92l592 578h109l-113 -574h117l-19 -96h-116zM279 786h348l84 420z" />
    <glyph glyph-name="five.numr" 
d="M403 1264l-43 -226q68 23 154 23q136 0 210.5 -65.5t74.5 -182.5q0 -141 -97.5 -223t-255.5 -82q-96 0 -175 23t-124 63l23 111h6q88 -101 268 -101q113 0 179.5 54.5t66.5 150.5q0 77 -55 117.5t-162 40.5q-112 0 -231 -56h-6l86 449h532l-18 -96h-433z" />
    <glyph glyph-name="six.numr" 
d="M635 1372q148 0 217 -63l-21 -107h-6q-59 74 -188 74q-124 0 -210 -75.5t-124 -219.5h4q97 82 242 82q124 0 195 -64.5t71 -171.5q0 -146 -90 -232.5t-236 -86.5q-147 0 -230 83.5t-83 233.5q0 68 14.5 139t49.5 145t86 132t131 94.5t178 36.5zM532 969q-150 0 -247 -131
q-2 -10 -2 -31q0 -93 56.5 -148t152.5 -55t156.5 60.5t60.5 150.5q0 72 -47.5 113t-129.5 41z" />
    <glyph glyph-name="seven.numr" 
d="M307 520h-131l627 744h-522l18 96h643l-18 -103z" />
    <glyph glyph-name="eight.numr" 
d="M690 950v-4q121 -51 121 -176q0 -124 -96 -193t-269 -69q-147 0 -230 56.5t-83 156.5q0 93 52 152t153 81v4q-102 50 -102 160q0 121 89 187.5t248 66.5q137 0 214 -55.5t77 -153.5q0 -168 -174 -213zM565 1276q-105 0 -165 -41.5t-60 -116.5q0 -121 190 -121
q110 0 170 40.5t60 117.5q0 59 -50 90t-145 31zM455 604q119 0 185.5 44.5t66.5 125.5q0 63 -56.5 96t-161.5 33q-118 0 -183.5 -42.5t-65.5 -123.5q0 -64 56 -98.5t159 -34.5z" />
    <glyph glyph-name="nine.numr" 
d="M387 508q-148 0 -217 63l20 107h7q59 -74 188 -74q124 0 210 75.5t124 219.5h-4q-97 -82 -242 -82q-124 0 -195 64.5t-71 171.5q0 146 89.5 232.5t235.5 86.5q147 0 230.5 -83.5t83.5 -233.5q0 -68 -14.5 -139t-49.5 -145t-86 -132t-131 -94.5t-178 -36.5zM489 911
q151 0 248 131q2 10 2 31q0 93 -56.5 148t-152.5 55t-156.5 -60.5t-60.5 -150.5q0 -72 47 -113t129 -41z" />
    <glyph glyph-name="zero.dnom" 
d="M477 852q135 0 208 -78.5t73 -224.5q0 -59 -10 -121t-30.5 -126t-54.5 -119.5t-78.5 -99.5t-107.5 -69.5t-137 -25.5q-134 0 -206.5 78.5t-72.5 224.5q0 72 13.5 146.5t45.5 150t78.5 133.5t118.5 94.5t160 36.5zM471 756q-64 0 -116.5 -31t-86 -80t-56.5 -111
t-32.5 -121t-9.5 -114q0 -105 45.5 -160t132.5 -55q64 0 117 31.5t86.5 81t56 112t32 121.5t9.5 113q0 104 -46 158.5t-132 54.5z" />
    <glyph glyph-name="one.dnom" 
d="M510 0h-107l140 713l-252 -146l20 111l277 162h86z" />
    <glyph glyph-name="two.dnom" 
d="M635 96l-21 -96h-573l20 102l195 138q225 158 298 232t73 151q0 64 -44 98.5t-126 34.5q-67 0 -141.5 -31t-135.5 -82h-6l27 127q121 82 268 82q125 0 194.5 -57t69.5 -160q0 -77 -33 -138t-120 -135.5t-256 -185.5l-117 -76v-4h428z" />
    <glyph glyph-name="three.dnom" 
d="M750 643q0 -78 -44.5 -134t-125.5 -83v-4q108 -54 108 -172q0 -123 -91.5 -192.5t-250.5 -69.5q-85 0 -164.5 26t-124.5 70l23 109h6q42 -52 112 -80.5t150 -28.5q108 0 171 47t63 125q0 125 -191 125h-115l17 94h121q110 0 169.5 39.5t59.5 116.5q0 61 -49.5 93
t-140.5 32q-67 0 -139 -29.5t-128 -79.5h-6l25 123q111 82 260 82q136 0 210.5 -55t74.5 -154z" />
    <glyph glyph-name="four.dnom" 
d="M582 0h-107l33 170h-481l18 92l592 578h108l-112 -574h117l-19 -96h-117zM178 266h348l84 420z" />
    <glyph glyph-name="five.dnom" 
d="M303 743l-43 -225q68 23 154 23q136 0 210 -65t74 -183q0 -141 -97.5 -223t-254.5 -82q-96 0 -175 23t-124 63l23 110h6q87 -100 268 -100q113 0 179.5 54.5t66.5 150.5q0 77 -55 117t-162 40q-115 0 -232 -55h-6l86 449h533l-19 -97h-432z" />
    <glyph glyph-name="six.dnom" 
d="M535 852q146 0 217 -64l-21 -106h-6q-59 74 -188 74q-124 0 -210 -75.5t-124 -219.5h4q97 82 242 82q124 0 195 -64.5t71 -171.5q0 -146 -90 -232.5t-236 -86.5q-147 0 -230 83.5t-83 233.5q0 68 14.5 139t49.5 145t86 132t131 94.5t178 36.5zM432 449q-151 0 -248 -132
q-2 -10 -2 -30q0 -93 56.5 -148t152.5 -55t156.5 60.5t60.5 150.5q0 72 -47 113t-129 41z" />
    <glyph glyph-name="seven.dnom" 
d="M207 0h-131l626 743h-522l19 97h643l-19 -103z" />
    <glyph glyph-name="eight.dnom" 
d="M590 430v-4q121 -51 121 -176q0 -124 -96 -193t-269 -69q-147 0 -230 56.5t-83 156.5q0 93 52 152t153 81v4q-103 50 -103 160q0 121 89.5 187.5t248.5 66.5q137 0 214 -55.5t77 -153.5q0 -168 -174 -213zM465 756q-105 0 -165 -41.5t-60 -116.5q0 -121 190 -121
q110 0 169.5 40.5t59.5 117.5q0 59 -49.5 90t-144.5 31zM354 84q119 0 185.5 44.5t66.5 125.5q0 63 -56 96t-161 33q-119 0 -184.5 -42.5t-65.5 -123.5q0 -64 56 -98.5t159 -34.5z" />
    <glyph glyph-name="nine.dnom" 
d="M287 -12q-148 0 -217 63l20 107h6q59 -74 189 -74q124 0 209.5 75.5t123.5 219.5h-4q-97 -82 -241 -82q-125 0 -196 64t-71 171q0 146 90 233t236 87q147 0 230 -83.5t83 -233.5q0 -68 -14.5 -139t-49.5 -145t-85.5 -132t-130.5 -94.5t-178 -36.5zM389 391q151 0 248 131
q2 10 2 31q0 93 -56.5 148t-152.5 55t-156.5 -60.5t-60.5 -150.5q0 -72 47 -113t129 -41z" />
    </font>
</defs>
</svg>
