<?xml version="1.0" standalone="no"?>
<!DOCTYPE svg PUBLIC "-//W3C//DTD SVG 1.1//EN" "http://www.w3.org/Graphics/SVG/1.1/DTD/svg11.dtd" >
<svg xmlns="http://www.w3.org/2000/svg" xmlns:xlink="http://www.w3.org/1999/xlink" version="1.1">
<metadata>
Created by FontForge 20201107 at Tue Nov 25 13:38:38 2025
 By 
Copyright (c) 2014 by Ryoichi Tsunekawa. All rights reserved.
</metadata>
<defs>
<font id="Graphie-Bold" horiz-adv-x="839" >
  <font-face 
    font-family="Graphie"
    font-weight="700"
    font-stretch="normal"
    units-per-em="2048"
    panose-1="2 11 8 3 2 2 4 2 2 4"
    ascent="1536"
    descent="-512"
    x-height="963"
    cap-height="1360"
    bbox="-381 -430 2204 1894"
    underline-thickness="151"
    underline-position="-208"
    unicode-range="U+0020-FB03"
  />
<missing-glyph horiz-adv-x="1269" 
d="M1159 0h-1048v1360h1048v-1360zM1010 1276h-750l375 -520zM580 680l-377 524v-1048zM690 680l377 -524v1048zM1010 84l-375 520l-375 -520h750z" />
    <glyph glyph-name="ff" unicode="ff" horiz-adv-x="1419" 
d="M1214 1454q123 0 201 -33v-245h-10q-61 41 -150 41q-66 0 -102.5 -39t-36.5 -109v-106h277v-228h-277v-735h-268v735h-393v-735h-269v735h-159v228h159v94q0 182 94.5 279.5t272.5 97.5q123 0 201 -33v-246h-11q-61 41 -149 41q-66 0 -102.5 -38.5t-36.5 -108.5v-86h393
v114q0 182 94 279.5t272 97.5z" />
    <glyph glyph-name="fi" unicode="fi" horiz-adv-x="1245" 
d="M1124 0h-268v735h-401v-735h-269v735h-159v228h159v114q0 181 93 279t264 98q112 0 190 -33v-245h-10q-61 41 -139 41q-59 0 -94 -39t-35 -109v-106h669v-963zM991 1096q-72 0 -119 46.5t-47 119.5q0 72 47 117.5t119 45.5t119 -45.5t47 -117.5q0 -73 -47 -119.5
t-119 -46.5z" />
    <glyph glyph-name="ffi" unicode="ffi" horiz-adv-x="1906" 
d="M1786 963v-963h-268v735h-402v-735h-268v735h-393v-735h-269v735h-159v228h159v94q0 182 94.5 279.5t272.5 97.5q123 0 201 -33v-246h-11q-61 41 -149 41q-66 0 -102.5 -38.5t-36.5 -108.5v-86h393v114q0 181 92.5 279t263.5 98q113 0 191 -33v-245h-11q-61 41 -139 41
q-59 0 -94 -39t-35 -109v-106h670zM1653 1096q-72 0 -119 46.5t-47 119.5q0 72 47 117.5t119 45.5t119 -45.5t47 -117.5q0 -73 -47 -119.5t-119 -46.5z" />
    <glyph glyph-name="f_j" unicode="fj" horiz-adv-x="1245" 
d="M1124 963v-1053q0 -157 -77 -238.5t-218 -81.5q-69 0 -137 21v242h13q31 -25 71 -25q42 0 61 25t19 79v803h-401v-735h-269v735h-159v228h159v114q0 181 93 279t264 98q112 0 190 -33v-245h-10q-61 41 -139 41q-59 0 -94 -39t-35 -109v-106h669zM991 1096
q-72 0 -119 46.5t-47 119.5q0 72 47 117.5t119 45.5t119 -45.5t47 -117.5q0 -73 -47 -119.5t-119 -46.5z" />
    <glyph glyph-name="f_f_j" unicode="ffj" horiz-adv-x="1906" 
d="M1786 963v-1053q0 -157 -77 -238.5t-218 -81.5q-69 0 -137 21v242h12q31 -25 72 -25q42 0 61 25t19 79v803h-402v-735h-268v735h-393v-735h-269v735h-159v228h159v94q0 182 94.5 279.5t272.5 97.5q123 0 201 -33v-246h-11q-61 41 -149 41q-66 0 -102.5 -38.5
t-36.5 -108.5v-86h393v114q0 181 92.5 279t263.5 98q113 0 191 -33v-245h-11q-61 41 -139 41q-59 0 -94 -39t-35 -109v-106h670zM1653 1096q-72 0 -119 46.5t-47 119.5q0 72 47 117.5t119 45.5t119 -45.5t47 -117.5q0 -73 -47 -119.5t-119 -46.5z" />
    <glyph glyph-name=".notdef" horiz-adv-x="1269" 
d="M1159 0h-1048v1360h1048v-1360zM1010 1276h-750l375 -520zM580 680l-377 524v-1048zM690 680l377 -524v1048zM1010 84l-375 520l-375 -520h750z" />
    <glyph glyph-name=".null" horiz-adv-x="0" 
 />
    <glyph glyph-name="nonmarkingreturn" horiz-adv-x="682" 
 />
    <glyph glyph-name="space" unicode=" " horiz-adv-x="450" 
 />
    <glyph glyph-name="exclam" unicode="!" horiz-adv-x="563" 
d="M156 438l-33 922h317l-32 -922h-252zM283 317q72 0 120 -49t48 -121t-48 -119.5t-120 -47.5q-73 0 -121.5 47.5t-48.5 119.5t48.5 121t121.5 49z" />
    <glyph glyph-name="quotedbl" unicode="&#x22;" horiz-adv-x="923" 
d="M152 748l-25 612h258l-25 -612h-208zM563 748l-24 612h258l-25 -612h-209z" />
    <glyph glyph-name="numbersign" unicode="#" horiz-adv-x="1331" 
d="M969 545h245l-26 -185h-246l-51 -360h-203l51 360h-241l-52 -360h-202l51 360h-246l27 185h246l40 291h-245l26 184h246l47 340h203l-47 -340h242l47 340h202l-47 -340h246l-27 -184h-245zM565 836l-41 -291h242l41 291h-242z" />
    <glyph glyph-name="dollar" unicode="$" horiz-adv-x="1331" 
d="M1171 442q0 -172 -111 -270t-325 -115v-180h-133v178q-270 9 -426 109v287h14q147 -132 412 -144v248q-226 15 -328 99.5t-102 254.5q0 169 112 270.5t318 120.5v162h133v-157q242 -9 363 -91v-286h-15q-107 113 -348 125v-242q229 -19 332 -105.5t104 -263.5zM430 928
q0 -46 41 -71t131 -34v228q-172 -18 -172 -123zM735 543v-234q178 18 178 123q0 48 -42 74.5t-136 36.5z" />
    <glyph glyph-name="percent" unicode="%" horiz-adv-x="1560" 
d="M379 1380q145 0 227 -92.5t82 -245.5q0 -152 -82 -243.5t-227 -91.5t-227 91.5t-82 243.5q0 153 82 245.5t227 92.5zM238 0l876 1360h209l-877 -1360h-208zM379 1219q-57 0 -91 -47t-34 -130q0 -81 34 -127.5t91 -46.5t91 46.5t34 127.5q0 83 -34 130t-91 47zM1182 653
q145 0 227 -92.5t82 -245.5q0 -152 -82 -243.5t-227 -91.5t-227.5 91.5t-82.5 243.5q0 153 82.5 245.5t227.5 92.5zM1182 492q-57 0 -91 -47t-34 -130q0 -81 34 -127.5t91 -46.5t91 46.5t34 127.5q0 83 -34 130t-91 47z" />
    <glyph glyph-name="ampersand" unicode="&#x26;" horiz-adv-x="1320" 
d="M938 0l-66 76q-134 -96 -340 -96q-213 0 -332.5 100t-119.5 278q0 236 229 371q-131 155 -131 297q0 164 107 259t290 95t289.5 -89.5t106.5 -243.5q0 -120 -67 -208.5t-214 -158.5l230 -262q51 89 51 225q0 22 -4 68h258q2 -20 2 -60q0 -247 -148 -415l207 -236h-348z
M532 858l17 -18q106 47 150 91t44 101q0 53 -41.5 86t-107.5 33q-68 0 -109 -34t-41 -89q0 -41 20 -80t68 -90zM549 217q92 0 174 31l-268 313q-105 -70 -105 -170q0 -84 51.5 -129t147.5 -45z" />
    <glyph glyph-name="quotesingle" unicode="'" horiz-adv-x="512" 
d="M152 748l-25 612h258l-25 -612h-208z" />
    <glyph glyph-name="parenleft" unicode="(" horiz-adv-x="825" 
d="M469 1360h272q-299 -341 -299 -785q0 -443 299 -784h-272q-150 161 -230.5 364t-80.5 420t80.5 420.5t230.5 364.5z" />
    <glyph glyph-name="parenright" unicode=")" horiz-adv-x="825" 
d="M356 -209h-272q299 341 299 784q0 444 -299 785h272q151 -161 231.5 -364.5t80.5 -420.5t-80.5 -420t-231.5 -364z" />
    <glyph glyph-name="asterisk" unicode="*" horiz-adv-x="954" 
d="M807 778l-193 -137l-137 272l-137 -272l-193 137l220 219l-306 50l74 221l271 -138l-48 304h238l-47 -304l270 138l74 -221l-305 -50z" />
    <glyph glyph-name="plus" unicode="+" horiz-adv-x="1331" 
d="M784 496v-463h-237v463h-463v237h463v463h237v-463h463v-237h-463z" />
    <glyph glyph-name="comma" unicode="," horiz-adv-x="563" 
d="M-14 -217l188 514h277l-248 -514h-217z" />
    <glyph glyph-name="hyphen" unicode="-" horiz-adv-x="757" 
d="M86 426v270h586v-270h-586z" />
    <glyph glyph-name="period" unicode="." horiz-adv-x="563" 
d="M283 317q72 0 120 -49t48 -121t-48 -119.5t-120 -47.5q-73 0 -121.5 47.5t-48.5 119.5t48.5 121t121.5 49z" />
    <glyph glyph-name="slash" unicode="/" horiz-adv-x="870" 
d="M51 -164l531 1585h237l-528 -1585h-240z" />
    <glyph glyph-name="zero" unicode="0" horiz-adv-x="1331" 
d="M666 1380q269 0 417 -183.5t148 -516.5t-148 -516.5t-417 -183.5t-417.5 183.5t-148.5 516.5t148.5 516.5t417.5 183.5zM666 1126q-133 0 -205 -116t-72 -330t72 -330.5t205 -116.5t204.5 116.5t71.5 330.5t-71.5 330t-204.5 116z" />
    <glyph glyph-name="one" unicode="1" horiz-adv-x="1331" 
d="M1008 0h-285v1036l-420 -235v295l471 264h234v-1360z" />
    <glyph glyph-name="two" unicode="2" horiz-adv-x="1331" 
d="M1153 254v-254h-969v266l330 260q205 162 277.5 249t72.5 173t-61.5 132t-177.5 46q-117 0 -224.5 -44t-185.5 -124h-14v304q81 56 192.5 87t229.5 31q255 0 392.5 -108t137.5 -309q0 -163 -95 -294t-345 -309l-146 -102v-4h586z" />
    <glyph glyph-name="three" unicode="3" horiz-adv-x="1331" 
d="M985 692v-4q99 -46 152 -127.5t53 -189.5q0 -184 -144 -287.5t-399 -103.5q-145 0 -269 34.5t-194 94.5v301h15q67 -81 187.5 -129t254.5 -48q124 0 191 48t67 137q0 78 -62.5 112.5t-203.5 34.5h-187v240h162q145 0 208 33t63 108q0 88 -64 134t-184 46
q-114 0 -222 -44.5t-180 -120.5h-14v301q77 56 196 87t251 31q237 0 371 -102t134 -285q0 -101 -47 -178t-135 -123z" />
    <glyph glyph-name="four" unicode="4" horiz-adv-x="1331" 
d="M1094 246v-246h-285v246h-715v239l703 875h297v-860h174v-254h-174zM809 1018l-408 -518h408v518z" />
    <glyph glyph-name="five" unicode="5" horiz-adv-x="1331" 
d="M696 881q233 0 364.5 -118t131.5 -325q0 -215 -146.5 -336.5t-406.5 -121.5q-149 0 -271.5 29t-197.5 83v287h14q71 -69 187.5 -107.5t255.5 -38.5q132 0 203 53t71 150q0 100 -80.5 148.5t-249.5 48.5q-198 0 -346 -60h-14v787h893v-254h-645v-254q119 29 237 29z" />
    <glyph glyph-name="six" unicode="6" horiz-adv-x="1331" 
d="M762 895q211 0 336 -121.5t125 -322.5q0 -212 -140 -341.5t-368 -129.5q-280 0 -435 173.5t-155 489.5q0 343 167.5 540t459.5 197q237 0 364 -88v-284h-14q-121 118 -322 118q-154 0 -248 -91t-114 -259h4q132 119 340 119zM707 233q101 0 163 58t62 155t-61 154
t-162 57q-190 0 -289 -145q9 -129 86 -204t201 -75z" />
    <glyph glyph-name="seven" unicode="7" horiz-adv-x="1331" 
d="M1237 1094l-688 -1094h-336l711 1106h-795v254h1108v-266z" />
    <glyph glyph-name="eight" unicode="8" horiz-adv-x="1331" 
d="M1012 707v-5q223 -90 223 -331q0 -184 -151 -287.5t-418 -103.5t-418.5 103.5t-151.5 287.5q0 222 228 303v4q-187 93 -187 315q0 182 140 284.5t389 102.5t388.5 -102.5t139.5 -284.5q0 -200 -182 -286zM666 1126q-116 0 -178 -42t-62 -121q0 -83 57.5 -121.5
t182.5 -38.5q124 0 181.5 38.5t57.5 121.5q0 79 -61.5 121t-177.5 42zM666 233q133 0 205.5 43.5t72.5 124.5q0 85 -67.5 124.5t-210.5 39.5t-211 -39.5t-68 -124.5q0 -81 73 -124.5t206 -43.5z" />
    <glyph glyph-name="nine" unicode="9" horiz-adv-x="1331" 
d="M616 1380q280 0 435 -173.5t155 -489.5q0 -343 -167 -540t-459 -197q-238 0 -365 88v284h14q122 -119 322 -119q153 0 247.5 91.5t114.5 259.5h-4q-132 -119 -340 -119q-211 0 -335.5 121.5t-124.5 322.5q0 212 139.5 341.5t367.5 129.5zM623 702q189 0 288 146
q-9 129 -85.5 203.5t-200.5 74.5q-102 0 -164 -58.5t-62 -154.5t61 -153.5t163 -57.5z" />
    <glyph glyph-name="colon" unicode=":" horiz-adv-x="563" 
d="M283 317q72 0 120 -49t48 -121t-48 -119.5t-120 -47.5q-73 0 -121.5 47.5t-48.5 119.5t48.5 121t121.5 49zM283 963q72 0 120 -49t48 -121t-48 -120t-120 -48q-73 0 -121.5 48t-48.5 120t48.5 121t121.5 49z" />
    <glyph glyph-name="semicolon" unicode=";" horiz-adv-x="563" 
d="M-14 -217l188 514h277l-248 -514h-217zM283 963q72 0 120 -49t48 -121t-48 -120t-120 -48q-73 0 -121.5 48t-48.5 120t48.5 121t121.5 49z" />
    <glyph glyph-name="less" unicode="&#x3c;" horiz-adv-x="1331" 
d="M475 612l721 -295v-260l-1055 455v205l1055 454v-258l-721 -297v-4z" />
    <glyph glyph-name="equal" unicode="=" horiz-adv-x="1331" 
d="M117 768v238h1097v-238h-1097zM117 223v238h1097v-238h-1097z" />
    <glyph glyph-name="greater" unicode="&#x3e;" horiz-adv-x="1331" 
d="M856 616l-721 295v260l1055 -454v-205l-1055 -455v258l721 297v4z" />
    <glyph glyph-name="question" unicode="?" horiz-adv-x="1017" 
d="M469 1380q232 0 365 -105.5t133 -291.5q0 -152 -96 -251.5t-310 -168.5v-125h-262v291q206 43 292.5 97.5t86.5 142.5q0 74 -55.5 115.5t-153.5 41.5q-117 0 -223 -44t-183 -124h-14v304q79 57 189 87.5t231 30.5zM430 317q72 0 120 -49t48 -121t-48 -119.5t-120 -47.5
t-121 47.5t-49 119.5t49 121t121 49z" />
    <glyph glyph-name="at" unicode="@" horiz-adv-x="1585" 
d="M1163 922v-463q0 -88 62 -88q61 0 97 68.5t36 193.5q0 239 -144 384.5t-393 145.5q-241 0 -398 -169t-157 -429q0 -252 168.5 -412.5t427.5 -160.5q129 0 245.5 36.5t201.5 102.5h10v-158q-182 -116 -457 -116q-165 0 -307.5 52t-244 144.5t-159 225t-57.5 286.5
q0 157 55 293t150.5 232.5t231 152t290.5 55.5q208 0 366 -85.5t242 -237t84 -346.5q0 -191 -86.5 -302.5t-224.5 -111.5q-139 0 -178 121h-4q-36 -58 -99 -89.5t-145 -31.5q-149 0 -245.5 101.5t-96.5 258.5t96.5 259t245.5 102q158 0 232 -107h4l4 93h147zM805 371
q85 0 137.5 56.5t52.5 147.5t-52.5 147t-137.5 56q-86 0 -139.5 -56t-53.5 -147t53.5 -147.5t139.5 -56.5z" />
    <glyph glyph-name="A" unicode="A" horiz-adv-x="1509" 
d="M1155 0l-92 229h-625l-92 -229h-317l579 1360h293l580 -1360h-326zM752 1012h-4l-207 -523h420z" />
    <glyph glyph-name="B" unicode="B" horiz-adv-x="1327" 
d="M1040 696v-4q226 -74 226 -313q0 -187 -123 -283t-361 -96h-637v1360h586q239 0 362.5 -95t123.5 -280q0 -209 -177 -289zM449 811h258q105 0 154.5 35t49.5 106q0 138 -184 138h-278v-279zM449 270h323q186 0 186 142q0 145 -204 145h-305v-287z" />
    <glyph glyph-name="C" unicode="C" horiz-adv-x="1304" 
d="M791 1380q140 0 237.5 -25t179.5 -81v-332h-14q-133 168 -389 168q-196 0 -315 -118t-119 -312t119 -312t315 -118q124 0 224.5 43t164.5 125h14v-332q-83 -55 -181.5 -80.5t-235.5 -25.5q-214 0 -380 89t-257 248.5t-91 362.5t91 362.5t257 248.5t380 89z" />
    <glyph glyph-name="D" unicode="D" horiz-adv-x="1478" 
d="M145 1360h547q347 0 536 -178t189 -502t-189 -502t-536 -178h-547v1360zM449 270h225q213 0 324.5 105t111.5 305t-111.5 305t-324.5 105h-225v-820z" />
    <glyph glyph-name="E" unicode="E" horiz-adv-x="1261" 
d="M1016 809v-254h-567v-285h714v-270h-1018v1360h1018v-270h-714v-281h567z" />
    <glyph glyph-name="F" unicode="F" horiz-adv-x="1224" 
d="M449 791h567v-271h-567v-520h-304v1360h1018v-270h-714v-299z" />
    <glyph glyph-name="G" unicode="G" horiz-adv-x="1433" 
d="M834 1110q-211 0 -337 -117t-126 -313t126 -313t337 -117q94 0 176 18v232h-299v254h592v-668q-185 -106 -482 -106q-347 0 -552.5 189.5t-205.5 510.5t205.5 510.5t552.5 189.5q297 0 482 -106v-332h-15q-174 168 -454 168z" />
    <glyph glyph-name="H" unicode="H" horiz-adv-x="1503" 
d="M1358 0h-305v549h-604v-549h-304v1360h304v-541h604v541h305v-1360z" />
    <glyph glyph-name="I" unicode="I" horiz-adv-x="593" 
d="M145 0v1360h304v-1360h-304z" />
    <glyph glyph-name="J" unicode="J" horiz-adv-x="1048" 
d="M934 1360v-871q0 -509 -510 -509q-223 0 -371 106v320h15q49 -70 137.5 -113t183.5 -43q122 0 182 65.5t60 204.5v840h303z" />
    <glyph glyph-name="K" unicode="K" horiz-adv-x="1378" 
d="M449 578v-578h-304v1360h304v-572l499 572h383l-608 -668l629 -692h-400z" />
    <glyph glyph-name="L" unicode="L" horiz-adv-x="1187" 
d="M1135 0h-990v1360h304v-1090h686v-270z" />
    <glyph glyph-name="M" unicode="M" horiz-adv-x="1943" 
d="M1798 0h-303v1024h-4l-393 -1024h-275l-381 995h-4v-995h-293v1360h455l365 -948h4l364 948h465v-1360z" />
    <glyph glyph-name="N" unicode="N" horiz-adv-x="1517" 
d="M1008 0l-566 1010h-4v-1010h-293v1360h416l514 -914h4v914h293v-1360h-364z" />
    <glyph glyph-name="O" unicode="O" horiz-adv-x="1556" 
d="M778 1380q207 0 370.5 -89t254 -248.5t90.5 -362.5t-90.5 -362.5t-254 -248.5t-370.5 -89t-370.5 89t-254 248.5t-90.5 362.5t90.5 362.5t254 248.5t370.5 89zM778 1110q-181 0 -294 -119.5t-113 -310.5t113 -310.5t294 -119.5t294.5 119.5t113.5 310.5t-113.5 310.5
t-294.5 119.5z" />
    <glyph glyph-name="P" unicode="P" horiz-adv-x="1314" 
d="M145 1360h600q255 0 385 -114.5t130 -338.5q0 -223 -130 -336.5t-385 -113.5h-296v-457h-304v1360zM449 727h282q114 0 167.5 44t53.5 136q0 94 -53.5 138.5t-167.5 44.5h-282v-363z" />
    <glyph glyph-name="Q" unicode="Q" horiz-adv-x="1552" 
d="M1180 -156l-136 179q-122 -43 -266 -43q-207 0 -370.5 89t-254 248.5t-90.5 362.5t90.5 362.5t254 248.5t370.5 89t370.5 -89t254 -248.5t90.5 -362.5q0 -159 -57.5 -294t-163.5 -230l239 -312h-331zM778 250q50 0 86 8l-225 295h330l123 -162q94 118 94 289
q0 191 -113.5 310.5t-294.5 119.5t-294 -119.5t-113 -310.5t113 -310.5t294 -119.5z" />
    <glyph glyph-name="R" unicode="R" horiz-adv-x="1370" 
d="M449 473v-473h-304v1360h611q255 0 384.5 -112.5t129.5 -332.5q0 -328 -285 -411l326 -504h-357l-276 473h-229zM449 743h294q112 0 166 42t54 130q0 89 -54 132t-166 43h-294v-347z" />
    <glyph glyph-name="S" unicode="S" horiz-adv-x="1208" 
d="M635 1380q127 0 245 -28t181 -72v-313h-14q-67 69 -177 107t-239 38q-113 0 -178.5 -40t-65.5 -109q0 -59 56 -89t206 -47q267 -29 380.5 -127t113.5 -294q0 -204 -142 -315t-403 -111q-341 0 -506 118v314h14q95 -79 219.5 -121.5t262.5 -42.5q254 0 254 149
q0 62 -58.5 93.5t-212.5 48.5q-262 29 -373.5 123t-111.5 282q0 204 145.5 320t403.5 116z" />
    <glyph glyph-name="T" unicode="T" horiz-adv-x="1218" 
d="M762 1090v-1090h-303v1090h-406v270h1112v-270h-403z" />
    <glyph glyph-name="U" unicode="U" horiz-adv-x="1413" 
d="M1298 1360v-780q0 -600 -596 -600q-587 0 -587 600v780h303v-760q0 -173 74 -261.5t219 -88.5q146 0 220.5 88.5t74.5 261.5v760h292z" />
    <glyph glyph-name="V" unicode="V" horiz-adv-x="1427" 
d="M862 0h-297l-536 1360h325l363 -969h4l360 969h318z" />
    <glyph glyph-name="W" unicode="W" horiz-adv-x="2068" 
d="M1614 0h-309l-269 866h-4l-270 -866h-307l-420 1360h319l267 -907h4l282 907h260l283 -914h4l268 914h312z" />
    <glyph glyph-name="X" unicode="X" horiz-adv-x="1476" 
d="M406 0h-355l481 694l-460 666h366l305 -463l306 463h356l-463 -666l483 -694h-366l-326 496z" />
    <glyph glyph-name="Y" unicode="Y" horiz-adv-x="1431" 
d="M868 0h-303v557l-557 803h367l346 -526l346 526h356l-555 -803v-557z" />
    <glyph glyph-name="Z" unicode="Z" horiz-adv-x="1325" 
d="M1231 0h-1135v258l723 832h-682v270h1084v-258l-723 -832h733v-270z" />
    <glyph glyph-name="bracketleft" unicode="[" horiz-adv-x="825" 
d="M717 -2v-207h-557v1569h557v-209h-297v-1153h297z" />
    <glyph glyph-name="backslash" unicode="\" horiz-adv-x="870" 
d="M582 -164l-531 1585h240l528 -1585h-237z" />
    <glyph glyph-name="bracketright" unicode="]" horiz-adv-x="825" 
d="M109 1153v207h557v-1569h-557v209h297v1153h-297z" />
    <glyph glyph-name="asciicircum" unicode="^" horiz-adv-x="1331" 
d="M358 565h-274l479 795h205l479 -795h-276l-305 527z" />
    <glyph glyph-name="underscore" unicode="_" horiz-adv-x="1024" 
d="M0 -293v174h1024v-174h-1024z" />
    <glyph glyph-name="grave" unicode="`" horiz-adv-x="1024" 
d="M412 1102l-265 348h283l227 -348h-245z" />
    <glyph glyph-name="a" unicode="a" horiz-adv-x="1202" 
d="M1083 0h-223l-8 129h-4q-100 -149 -313 -149q-204 0 -338 141.5t-134 359.5t134 360t338 142q105 0 185 -37.5t126 -107.5h4l10 125h223v-963zM580 217q107 0 175 73.5t68 190.5t-68 190.5t-175 73.5q-109 0 -177.5 -73.5t-68.5 -190.5t68.5 -190.5t177.5 -73.5z" />
    <glyph glyph-name="b" unicode="b" horiz-adv-x="1204" 
d="M670 983q204 0 337.5 -142t133.5 -360t-133.5 -359.5t-337.5 -141.5q-105 0 -186.5 38.5t-127.5 108.5h-4l-10 -127h-223v1434h268v-555h4q101 104 279 104zM625 217q110 0 177.5 73.5t67.5 190.5t-67.5 190.5t-177.5 73.5q-109 0 -176.5 -73.5t-67.5 -190.5t67.5 -190.5
t176.5 -73.5z" />
    <glyph glyph-name="c" unicode="c" horiz-adv-x="974" 
d="M588 983q190 0 299 -72v-286h-10q-92 120 -261 120q-131 0 -206.5 -71t-75.5 -193q0 -121 75.5 -192.5t206.5 -71.5q170 0 261 123h10v-289q-101 -71 -299 -71q-234 0 -379.5 139.5t-145.5 361.5t145.5 362t379.5 140z" />
    <glyph glyph-name="d" unicode="d" horiz-adv-x="1202" 
d="M1083 0h-223l-8 129h-4q-100 -149 -313 -149q-204 0 -338 141.5t-134 359.5t134 360t338 142q174 0 276 -102h4v553h268v-1434zM580 217q107 0 175 73.5t68 190.5t-68 190.5t-175 73.5q-109 0 -177.5 -73.5t-68.5 -190.5t68.5 -190.5t177.5 -73.5z" />
    <glyph glyph-name="e" unicode="e" horiz-adv-x="1114" 
d="M1051 414h-717q22 -97 104.5 -150t208.5 -53q216 0 336 117h10v-258q-126 -90 -358 -90q-255 0 -413.5 139t-158.5 362q0 221 141 361.5t361 140.5q224 0 355 -124.5t131 -336.5v-108zM573 752q-88 0 -153.5 -47t-85.5 -130h475q-13 86 -76 131.5t-160 45.5z" />
    <glyph glyph-name="f" unicode="f" horiz-adv-x="757" 
d="M553 1454q123 0 201 -33v-245h-11q-61 41 -149 41q-66 0 -102.5 -39t-36.5 -109v-106h276v-228h-276v-735h-269v735h-159v228h159v114q0 182 94.5 279.5t272.5 97.5z" />
    <glyph glyph-name="g" unicode="g" horiz-adv-x="1202" 
d="M1083 963v-885q0 -226 -143 -357t-393 -131t-387 105v270h10q54 -63 145.5 -100t198.5 -37q145 0 223 69t78 197v6h-4q-101 -104 -276 -104q-205 0 -338.5 138t-133.5 355t133.5 355.5t338.5 138.5q214 0 313 -147h4l8 127h223zM580 233q108 0 175.5 70t67.5 186
t-67.5 186t-175.5 70q-110 0 -178 -70t-68 -186t68 -186t178 -70z" />
    <glyph glyph-name="h" unicode="h" horiz-adv-x="1132" 
d="M657 983q177 0 276 -108.5t99 -303.5v-571h-268v539q0 99 -46.5 152.5t-131.5 53.5q-94 0 -146.5 -60.5t-52.5 -172.5v-512h-268v1434h268v-560h4q92 109 266 109z" />
    <glyph glyph-name="i" unicode="i" horiz-adv-x="507" 
d="M254 1425q72 0 119 -45.5t47 -117.5q0 -73 -47 -119.5t-119 -46.5t-119 46.5t-47 119.5q0 72 47 117.5t119 45.5zM119 0v963h268v-963h-268z" />
    <glyph glyph-name="j" unicode="j" horiz-adv-x="507" 
d="M254 1425q72 0 119 -45.5t47 -117.5q0 -73 -47 -119.5t-119 -46.5t-119 46.5t-47 119.5q0 72 47 117.5t119 45.5zM387 963v-1053q0 -157 -77 -238.5t-218 -81.5q-70 0 -137 21v242h12q31 -25 72 -25q42 0 61 25t19 79v1031h268z" />
    <glyph glyph-name="k" unicode="k" horiz-adv-x="1093" 
d="M387 0h-268v1434h268v-865l332 394h332l-418 -469l438 -494h-346l-338 403v-403z" />
    <glyph glyph-name="l" unicode="l" horiz-adv-x="505" 
d="M119 0v1434h268v-1434h-268z" />
    <glyph glyph-name="m" unicode="m" horiz-adv-x="1714" 
d="M1255 983q172 0 265.5 -107t93.5 -303v-573h-268v543q0 99 -42 150.5t-120 51.5q-180 0 -180 -249v-496h-269v543q0 99 -42 150.5t-122 51.5q-180 0 -180 -229v-516h-268v963h223l10 -129h4q85 149 283 149q97 0 173 -41t120 -117h4q88 158 315 158z" />
    <glyph glyph-name="n" unicode="n" horiz-adv-x="1132" 
d="M657 983q177 0 276 -108.5t99 -303.5v-571h-268v539q0 99 -46.5 152.5t-131.5 53.5q-94 0 -146.5 -60.5t-52.5 -172.5v-512h-268v963h223l10 -138h4q43 76 120.5 117t180.5 41z" />
    <glyph glyph-name="o" unicode="o" horiz-adv-x="1157" 
d="M580 983q226 0 370 -140.5t144 -361.5q0 -220 -144 -360.5t-370 -140.5q-227 0 -372 140.5t-145 360.5q0 221 145 361.5t372 140.5zM580 745q-109 0 -177.5 -73.5t-68.5 -190.5t68.5 -190.5t177.5 -73.5q107 0 175 73.5t68 190.5t-68 190.5t-175 73.5z" />
    <glyph glyph-name="p" unicode="p" horiz-adv-x="1204" 
d="M670 983q204 0 337.5 -142t133.5 -360t-133.5 -359.5t-337.5 -141.5q-178 0 -279 104h-4v-473h-268v1352h223l10 -127h4q46 71 126.5 109t187.5 38zM625 217q110 0 177.5 73.5t67.5 190.5t-67.5 190.5t-177.5 73.5q-109 0 -176.5 -73.5t-67.5 -190.5t67.5 -190.5
t176.5 -73.5z" />
    <glyph glyph-name="q" unicode="q" horiz-adv-x="1202" 
d="M1083 -389h-268v473h-4q-101 -104 -276 -104q-204 0 -338 141.5t-134 359.5t134 360t338 142q214 0 313 -147h4l8 127h223v-1352zM580 217q107 0 175 73.5t68 190.5t-68 190.5t-175 73.5q-109 0 -177.5 -73.5t-68.5 -190.5t68.5 -190.5t177.5 -73.5z" />
    <glyph glyph-name="r" unicode="r" horiz-adv-x="808" 
d="M645 983q94 0 141 -37v-262h-10q-64 45 -151 45q-123 0 -180.5 -76.5t-57.5 -238.5v-414h-268v963h223l12 -150h4q80 170 287 170z" />
    <glyph glyph-name="s" unicode="s" horiz-adv-x="897" 
d="M477 983q184 0 303 -61v-256h-10q-96 96 -287 96q-155 0 -155 -90q0 -33 33 -48.5t126 -21.5q191 -12 274 -84t83 -225q0 -148 -104.5 -230.5t-290.5 -82.5q-241 0 -365 86v258h12q114 -123 340 -123q156 0 156 92q0 39 -37.5 57t-138.5 27q-185 17 -262.5 81.5
t-77.5 205.5q0 146 109 232.5t292 86.5z" />
    <glyph glyph-name="t" unicode="t" horiz-adv-x="800" 
d="M733 272v-260q-65 -32 -188 -32q-175 0 -267 94t-92 276v385h-159v228h168l34 270h226v-270h276v-228h-276v-375q0 -69 35 -106t98 -37q83 0 135 55h10z" />
    <glyph glyph-name="u" unicode="u" horiz-adv-x="1130" 
d="M1012 0h-224l-10 137h-4q-43 -76 -119.5 -116.5t-179.5 -40.5q-177 0 -276 109t-99 304v570h269v-539q0 -99 46.5 -153t131.5 -54q93 0 144.5 61t51.5 173v512h269v-963z" />
    <glyph glyph-name="v" unicode="v" horiz-adv-x="1040" 
d="M657 0h-272l-373 963h287l223 -666h4l226 666h276z" />
    <glyph glyph-name="w" unicode="w" horiz-adv-x="1572" 
d="M1561 963l-322 -963h-256l-192 582h-5l-194 -582h-256l-324 963h285l180 -621h4l207 621h211l205 -621h4l180 621h273z" />
    <glyph glyph-name="x" unicode="x" horiz-adv-x="1122" 
d="M555 324l-217 -324h-311l364 496l-344 467h324l198 -293l197 293h309l-342 -467l363 -496h-324z" />
    <glyph glyph-name="y" unicode="y" horiz-adv-x="1040" 
d="M477 -389h-276l182 420l-371 932h287l225 -635h4l224 635h276z" />
    <glyph glyph-name="z" unicode="z" horiz-adv-x="1017" 
d="M84 0v215l485 520h-454v228h809v-215l-486 -521h496v-227h-850z" />
    <glyph glyph-name="braceleft" unicode="{" horiz-adv-x="858" 
d="M520 1049v-146q0 -137 -40.5 -215.5t-125.5 -109.5v-5q85 -31 125.5 -109.5t40.5 -215.5v-146q0 -102 103 -102h125v-209h-175q-161 0 -237 75.5t-76 235.5v187q0 98 -39 140t-125 42h-47v209h47q86 0 125 42t39 140v187q0 160 76 235.5t237 75.5h175v-209h-125
q-103 0 -103 -102z" />
    <glyph glyph-name="bar" unicode="|" horiz-adv-x="686" 
d="M244 -389v1823h198v-1823h-198z" />
    <glyph glyph-name="braceright" unicode="}" horiz-adv-x="858" 
d="M338 102v146q0 137 40.5 215.5t125.5 109.5v5q-85 31 -125.5 109.5t-40.5 215.5v146q0 53 -25 77.5t-77 24.5h-125v209h174q161 0 237 -75.5t76 -235.5v-187q0 -98 39 -140t125 -42h47v-209h-47q-86 0 -125 -42t-39 -140v-187q0 -160 -76 -235.5t-237 -75.5h-174v209h125
q52 0 77 25t25 77z" />
    <glyph glyph-name="asciitilde" unicode="~" horiz-adv-x="1331" 
d="M434 829q76 0 142 -26t157 -92q58 -43 92 -58.5t68 -15.5q46 0 91 44t103 148l195 -114q-160 -316 -385 -316q-76 0 -142 26.5t-157 92.5q-58 43 -92 58.5t-68 15.5q-46 0 -91 -44.5t-103 -148.5l-195 115q160 315 385 315z" />
    <glyph glyph-name="uni00A0" unicode="&#xa0;" horiz-adv-x="450" 
 />
    <glyph glyph-name="exclamdown" unicode="&#xa1;" horiz-adv-x="563" 
d="M408 922l32 -922h-317l33 922h252zM281 1042q-72 0 -120 49t-48 121t48 120t120 48q73 0 121.5 -48t48.5 -120t-48.5 -121t-121.5 -49z" />
    <glyph glyph-name="cent" unicode="&#xa2;" horiz-adv-x="1331" 
d="M1108 729h-14q-89 108 -236 123v-541q148 18 236 125h14v-307q-78 -60 -250 -72v-180h-133v180q-238 14 -381 156.5t-143 368.5q0 225 143 367.5t381 156.5v180h133v-180q159 -12 250 -74v-303zM489 582q0 -109 61.5 -178.5t174.5 -88.5v533q-113 -17 -174.5 -86.5
t-61.5 -179.5z" />
    <glyph glyph-name="sterling" unicode="&#xa3;" horiz-adv-x="1331" 
d="M817 1126q-103 0 -158 -59.5t-55 -173.5v-109h397v-223h-397q-5 -110 -38.5 -182t-104.5 -121v-4h696v-254h-975v266q74 43 105.5 101.5t31.5 154.5v39h-137v223h137v140q0 220 117.5 338t335.5 118q231 0 385 -98v-301h-14q-139 145 -326 145z" />
    <glyph glyph-name="currency" unicode="&#xa4;" horiz-adv-x="1331" 
d="M1069 680q0 -110 -51 -201l147 -141l-157 -158l-142 148q-93 -52 -200 -52q-108 0 -201 52l-141 -148l-158 158l147 141q-51 91 -51 201t51 201l-147 141l158 158l141 -148q91 51 201 51q109 0 200 -51l142 148l157 -158l-147 -141q51 -91 51 -201zM666 485
q83 0 136.5 55t53.5 140t-53.5 139.5t-136.5 54.5t-137 -54.5t-54 -139.5t54 -140t137 -55z" />
    <glyph glyph-name="yen" unicode="&#xa5;" horiz-adv-x="1331" 
d="M1190 727v-182h-381v-137h381v-183h-381v-225h-285v225h-383v183h383v137h-383v182h367l-440 633h344l260 -408l260 408h332l-441 -633h367z" />
    <glyph glyph-name="brokenbar" unicode="&#xa6;" horiz-adv-x="686" 
d="M244 635v799h198v-799h-198zM244 -389v799h198v-799h-198z" />
    <glyph glyph-name="section" unicode="&#xa7;" horiz-adv-x="1130" 
d="M872 395v-4q107 -83 107 -256q0 -161 -113.5 -252.5t-314.5 -91.5q-250 0 -391 86v244h10q133 -115 369 -115q93 0 144.5 34t51.5 93q0 51 -48.5 78.5t-174.5 42.5q-212 26 -302.5 104.5t-90.5 227.5q0 175 147 266v4q-114 75 -114 248q0 163 116 256.5t318 93.5
q205 0 332 -68v-239h-11q-108 94 -315 94q-93 0 -145 -35t-52 -94q0 -47 45.5 -71t165.5 -37q219 -26 312.5 -109.5t93.5 -241.5q0 -171 -140 -258zM645 473q57 15 89 56t32 98q0 67 -54.5 99.5t-199.5 51.5q-68 -11 -107.5 -54t-39.5 -106q0 -61 50 -90.5t185 -48.5z" />
    <glyph glyph-name="dieresis" unicode="&#xa8;" horiz-adv-x="1024" 
d="M295 1413q67 0 110.5 -43t43.5 -108q0 -66 -43.5 -110t-110.5 -44t-108.5 43.5t-41.5 110.5q0 65 41.5 108t108.5 43zM729 1413q67 0 108.5 -43t41.5 -108q0 -67 -41.5 -110.5t-108.5 -43.5t-110.5 44t-43.5 110q0 65 43.5 108t110.5 43z" />
    <glyph glyph-name="copyright" unicode="&#xa9;" horiz-adv-x="1589" 
d="M795 1380q198 0 358 -91t251 -251t91 -358t-91 -358t-251 -251t-358 -91t-358.5 91t-251.5 251t-91 358t91 358t251.5 251t358.5 91zM795 1223q-228 0 -378.5 -153t-150.5 -390t150.5 -390t378.5 -153t378 153t150 390t-150 390t-378 153zM817 1049q132 0 217 -52v-196
h-10q-69 88 -199 88q-94 0 -151.5 -57.5t-57.5 -151.5t57.5 -151.5t151.5 -57.5q133 0 199 88h10v-197q-83 -51 -217 -51q-171 0 -277 103.5t-106 265.5t106 265.5t277 103.5z" />
    <glyph glyph-name="ordfeminine" unicode="&#xaa;" horiz-adv-x="901" 
d="M791 692h-177l-4 72h-4q-72 -88 -203 -88q-145 0 -238 100t-93 254q0 152 93 251t238 99q134 0 203 -88h4l4 70h177v-670zM432 862q69 0 111.5 46.5t42.5 121.5q0 73 -42.5 118.5t-111.5 45.5q-66 0 -107.5 -45.5t-41.5 -118.5q0 -75 41.5 -121.5t107.5 -46.5z" />
    <glyph glyph-name="guillemotleft" unicode="&#xab;" horiz-adv-x="1058" 
d="M500 299v-274l-445 448v16l445 451v-274l-199 -185zM961 299v-274l-445 448v16l445 451v-274l-199 -185z" />
    <glyph glyph-name="logicalnot" unicode="&#xac;" horiz-adv-x="1331" 
d="M1225 188h-238v451h-881v238h1119v-689z" />
    <glyph glyph-name="uni00AD" unicode="&#xad;" horiz-adv-x="757" 
d="M86 426v270h586v-270h-586z" />
    <glyph glyph-name="registered" unicode="&#xae;" horiz-adv-x="1589" 
d="M795 1380q198 0 358 -91t251 -251t91 -358t-91 -358t-251 -251t-358 -91t-358.5 91t-251.5 251t-91 358t91 358t251.5 251t358.5 91zM795 137q228 0 378 153t150 390t-150 390t-378 153t-378.5 -153t-150.5 -390t150.5 -390t378.5 -153zM1114 801q0 -175 -147 -221
l170 -258h-213l-133 239h-97v-239h-178v716h324q274 0 274 -237zM694 715h135q103 0 103 80q0 84 -103 84h-135v-164z" />
    <glyph glyph-name="macron" unicode="&#xaf;" horiz-adv-x="1024" 
d="M176 1155v211h672v-211h-672z" />
    <glyph glyph-name="degree" unicode="&#xb0;" horiz-adv-x="796" 
d="M399 1380q134 0 222 -88t88 -221q0 -134 -88.5 -222.5t-221.5 -88.5t-222 89t-89 222t88.5 221t222.5 88zM399 1217q-61 0 -100 -40.5t-39 -105.5q0 -66 38.5 -106.5t100.5 -40.5t101 40.5t39 106.5q0 64 -39 105t-101 41z" />
    <glyph glyph-name="plusminus" unicode="&#xb1;" horiz-adv-x="1331" 
d="M784 238h441v-238h-1119v238h441v356h-441v237h441v414h237v-414h441v-237h-441v-356z" />
    <glyph glyph-name="twosuperior" unicode="&#xb2;" 
d="M715 971v-176h-588v184l207 160q111 87 148.5 132.5t37.5 96.5q0 50 -36 76t-103 26q-135 0 -234 -102h-10v209q46 32 114 51t138 19q156 0 241 -67.5t85 -193.5q0 -93 -50 -163t-196 -183l-86 -65v-4h332z" />
    <glyph glyph-name="threesuperior" unicode="&#xb3;" 
d="M621 1225v-4q116 -60 116 -195q0 -116 -86 -180t-243 -64q-86 0 -161 20.5t-116 55.5v209h10q41 -51 110.5 -80t151.5 -29q140 0 140 95q0 86 -148 86h-108v159h94q79 0 115 19.5t36 62.5q0 48 -33.5 69t-101.5 21q-67 0 -131.5 -27t-107.5 -73h-11v207q47 32 120.5 51
t152.5 19q145 0 225 -63t80 -177q0 -122 -104 -182z" />
    <glyph glyph-name="acute" unicode="&#xb4;" horiz-adv-x="1024" 
d="M369 1102l227 348h283l-265 -348h-245z" />
    <glyph glyph-name="uni00B5" unicode="&#xb5;" horiz-adv-x="1163" 
d="M1038 0h-223l-10 137h-4q-88 -157 -301 -157q-58 0 -107 12v-381h-268v1352h268v-539q0 -99 46.5 -153t131.5 -54q95 0 147 61t52 173v512h268v-963z" />
    <glyph glyph-name="paragraph" unicode="&#xb6;" horiz-adv-x="1216" 
d="M1032 1264v-1653h-176v1653h-207v-1653h-176v926q-202 23 -304.5 134.5t-102.5 309.5q0 224 130 338.5t384 114.5h561v-170h-109z" />
    <glyph glyph-name="periodcentered" unicode="&#xb7;" horiz-adv-x="563" 
d="M283 850q72 0 120 -49t48 -121t-48 -120t-120 -48q-73 0 -121.5 48t-48.5 120t48.5 121t121.5 49z" />
    <glyph glyph-name="cedilla" unicode="&#xb8;" horiz-adv-x="1024" 
d="M532 -96v-4q203 0 203 -152q0 -158 -252 -158q-111 0 -184 29v137h10q70 -39 164 -39q32 0 51 13.5t19 33.5q0 23 -20.5 36.5t-55.5 13.5q-42 0 -96 -13v31l96 168h121z" />
    <glyph glyph-name="onesuperior" unicode="&#xb9;" 
d="M639 795h-193v612l-210 -127v193l247 161h156v-839z" />
    <glyph glyph-name="ordmasculine" unicode="&#xba;" horiz-adv-x="868" 
d="M432 1380q161 0 263 -98t102 -252q0 -157 -102 -255.5t-263 -98.5q-157 0 -258.5 99t-101.5 255q0 153 101.5 251.5t258.5 98.5zM432 1194q-66 0 -107.5 -45.5t-41.5 -118.5q0 -75 41.5 -121.5t107.5 -46.5q69 0 111.5 46.5t42.5 121.5q0 73 -42.5 118.5t-111.5 45.5z
" />
    <glyph glyph-name="guillemotright" unicode="&#xbb;" horiz-adv-x="1058" 
d="M559 664v274l445 -449v-16l-445 -450v274l199 184zM98 664v274l445 -449v-16l-445 -450v274l199 184z" />
    <glyph glyph-name="onequarter" unicode="&#xbc;" horiz-adv-x="2002" 
d="M543 0l880 1360h205l-880 -1360h-205zM1845 145v-145h-192v145h-410v168l404 527h198v-518h103v-177h-103zM1653 602l-217 -280h217v280zM639 520h-193v613l-210 -127v192l247 162h156v-840z" />
    <glyph glyph-name="onehalf" unicode="&#xbd;" horiz-adv-x="2002" 
d="M459 0l880 1360h205l-880 -1360h-205zM1878 176v-176h-588v184l207 160q111 87 148.5 132.5t37.5 96.5q0 50 -36 76.5t-103 26.5q-133 0 -233 -103h-11v209q46 32 114 51t138 19q156 0 241 -67.5t85 -192.5q0 -93 -50 -163t-196 -183l-86 -66v-4h332zM639 520h-193v613
l-210 -127v192l247 162h156v-840z" />
    <glyph glyph-name="threequarters" unicode="&#xbe;" horiz-adv-x="2002" 
d="M547 0l880 1360h205l-880 -1360h-205zM1845 145v-145h-192v145h-410v168l404 527h198v-518h103v-177h-103zM1653 602l-217 -280h217v280zM621 950v-4q116 -60 116 -194q0 -116 -86 -180t-243 -64q-86 0 -161 20.5t-116 55.5v209h10q41 -51 110.5 -80t151.5 -29
q140 0 140 94q0 86 -148 86h-108v160h94q79 0 115 19.5t36 62.5q0 48 -33.5 69t-101.5 21q-67 0 -131.5 -27t-107.5 -73h-11v207q47 32 120 50.5t153 18.5q145 0 225 -62.5t80 -176.5q0 -123 -104 -183z" />
    <glyph glyph-name="questiondown" unicode="&#xbf;" horiz-adv-x="1017" 
d="M549 -20q-232 0 -365 105.5t-133 291.5q0 152 96 251.5t310 168.5v125h262v-291q-206 -43 -292.5 -97.5t-86.5 -142.5q0 -74 55.5 -116t153.5 -42q117 0 222.5 44t182.5 124h15v-303q-79 -57 -189 -87.5t-231 -30.5zM588 1042q-72 0 -120 49t-48 121t48 120t120 48
t121 -48t49 -120t-49 -121t-121 -49z" />
    <glyph glyph-name="Agrave" unicode="&#xc0;" horiz-adv-x="1509" 
d="M1155 0l-92 229h-625l-92 -229h-317l579 1360h293l580 -1360h-326zM752 1012h-4l-207 -523h420zM645 1483l-264 348h283l227 -348h-246z" />
    <glyph glyph-name="Aacute" unicode="&#xc1;" horiz-adv-x="1509" 
d="M1155 0l-92 229h-625l-92 -229h-317l579 1360h293l580 -1360h-326zM752 1012h-4l-207 -523h420zM618 1483l228 348h282l-264 -348h-246z" />
    <glyph glyph-name="Acircumflex" unicode="&#xc2;" horiz-adv-x="1509" 
d="M1155 0l-92 229h-625l-92 -229h-317l579 1360h293l580 -1360h-326zM752 1012h-4l-207 -523h420zM756 1647l-131 -164h-246l252 348h248l251 -348h-245z" />
    <glyph glyph-name="Atilde" unicode="&#xc3;" horiz-adv-x="1509" 
d="M1155 0l-92 229h-625l-92 -229h-317l579 1360h293l580 -1360h-326zM752 1012h-4l-207 -523h420zM1092 1812v-206q-32 -54 -82.5 -84.5t-108.5 -30.5q-79 0 -166 49q-77 43 -139 43q-106 0 -166 -113h-10v207q31 54 81.5 84.5t108.5 30.5q79 0 166 -49q77 -43 139 -43
q104 0 166 112h11z" />
    <glyph glyph-name="Adieresis" unicode="&#xc4;" horiz-adv-x="1509" 
d="M1155 0l-92 229h-625l-92 -229h-317l579 1360h293l580 -1360h-326zM752 1012h-4l-207 -523h420zM539 1794q67 0 110 -43.5t43 -108.5q0 -66 -43 -109.5t-110 -43.5t-108.5 43t-41.5 110q0 65 41.5 108.5t108.5 43.5zM973 1794q67 0 108 -43t41 -109q0 -67 -41 -110
t-108 -43t-110.5 43.5t-43.5 109.5q0 65 43.5 108.5t110.5 43.5z" />
    <glyph glyph-name="Aring" unicode="&#xc5;" horiz-adv-x="1509" 
d="M1155 0l-92 229h-625l-92 -229h-317l579 1360h293l580 -1360h-326zM752 1012h-4l-207 -523h420zM756 1880q98 0 160.5 -62.5t62.5 -160.5t-62.5 -160.5t-160.5 -62.5t-161 62.5t-63 160.5t63 160.5t161 62.5zM756 1741q-37 0 -60.5 -23t-23.5 -61t23.5 -61t60.5 -23
t60.5 23t23.5 61t-23.5 61t-60.5 23z" />
    <glyph glyph-name="AE" unicode="&#xc6;" horiz-adv-x="2150" 
d="M1337 809h568v-254h-568v-285h715v-270h-1018v229h-534l-148 -229h-344l903 1360h1141v-270h-715v-281zM1034 1059h-4l-364 -570h368v570z" />
    <glyph glyph-name="Ccedilla" unicode="&#xc7;" horiz-adv-x="1304" 
d="M805 1110q-196 0 -315 -118t-119 -312t119 -312t315 -118q124 0 224.5 43t164.5 125h14v-332q-79 -53 -174 -79t-225 -27l-43 -76v-4q203 0 203 -152q0 -158 -252 -158q-113 0 -185 29v137h11q70 -39 164 -39q32 0 50.5 13.5t18.5 33.5q0 23 -20.5 36.5t-55.5 13.5
q-42 0 -96 -13v31l88 154q-284 29 -456.5 220t-172.5 474q0 203 91 362.5t257 248.5t380 89q140 0 237.5 -25t179.5 -81v-332h-14q-133 168 -389 168z" />
    <glyph glyph-name="Egrave" unicode="&#xc8;" horiz-adv-x="1261" 
d="M1016 809v-254h-567v-285h714v-270h-1018v1360h1018v-270h-714v-281h567zM543 1483l-264 348h282l227 -348h-245z" />
    <glyph glyph-name="Eacute" unicode="&#xc9;" horiz-adv-x="1261" 
d="M1016 809v-254h-567v-285h714v-270h-1018v1360h1018v-270h-714v-281h567zM516 1483l227 348h283l-264 -348h-246z" />
    <glyph glyph-name="Ecircumflex" unicode="&#xca;" horiz-adv-x="1261" 
d="M1016 809v-254h-567v-285h714v-270h-1018v1360h1018v-270h-714v-281h567zM653 1647l-131 -164h-246l252 348h248l252 -348h-246z" />
    <glyph glyph-name="Edieresis" unicode="&#xcb;" horiz-adv-x="1261" 
d="M1016 809v-254h-567v-285h714v-270h-1018v1360h1018v-270h-714v-281h567zM436 1794q67 0 110.5 -43.5t43.5 -108.5q0 -66 -43.5 -109.5t-110.5 -43.5t-108 43t-41 110q0 66 41 109t108 43zM870 1794q67 0 108.5 -43.5t41.5 -108.5q0 -67 -41.5 -110t-108.5 -43t-110 43.5
t-43 109.5q0 65 43 108.5t110 43.5z" />
    <glyph glyph-name="Igrave" unicode="&#xcc;" horiz-adv-x="593" 
d="M145 0v1360h304v-1360h-304zM186 1483l-264 348h283l227 -348h-246z" />
    <glyph glyph-name="Iacute" unicode="&#xcd;" horiz-adv-x="593" 
d="M145 0v1360h304v-1360h-304zM160 1483l227 348h283l-264 -348h-246z" />
    <glyph glyph-name="Icircumflex" unicode="&#xce;" horiz-adv-x="593" 
d="M145 0v1360h304v-1360h-304zM297 1647l-131 -164h-246l252 348h248l252 -348h-246z" />
    <glyph glyph-name="Idieresis" unicode="&#xcf;" horiz-adv-x="593" 
d="M145 0v1360h304v-1360h-304zM80 1794q67 0 110 -43.5t43 -108.5q0 -66 -43 -109.5t-110 -43.5t-108.5 43t-41.5 110q0 65 41.5 108.5t108.5 43.5zM514 1794q67 0 108.5 -43.5t41.5 -108.5q0 -67 -41.5 -110t-108.5 -43t-110.5 43.5t-43.5 109.5q0 65 43.5 108.5
t110.5 43.5z" />
    <glyph glyph-name="Eth" unicode="&#xd0;" horiz-adv-x="1513" 
d="M180 1360h547q347 0 536 -178t189 -502t-189 -502t-536 -178h-547v567h-141v236h141v557zM483 270h226q213 0 324.5 105t111.5 305t-111.5 305t-324.5 105h-226v-287h295v-236h-295v-297z" />
    <glyph glyph-name="Ntilde" unicode="&#xd1;" horiz-adv-x="1517" 
d="M1008 0l-566 1010h-4v-1010h-293v1360h416l514 -914h4v914h293v-1360h-364zM1094 1812v-206q-32 -54 -82.5 -84.5t-108.5 -30.5q-79 0 -166 49q-77 43 -139 43q-106 0 -166 -113h-10v207q31 54 81.5 84.5t108.5 30.5q79 0 166 -49q77 -43 140 -43q103 0 165 112h11z" />
    <glyph glyph-name="Ograve" unicode="&#xd2;" horiz-adv-x="1556" 
d="M778 1380q207 0 370.5 -89t254 -248.5t90.5 -362.5t-90.5 -362.5t-254 -248.5t-370.5 -89t-370.5 89t-254 248.5t-90.5 362.5t90.5 362.5t254 248.5t370.5 89zM778 1110q-181 0 -294 -119.5t-113 -310.5t113 -310.5t294 -119.5t294.5 119.5t113.5 310.5t-113.5 310.5
t-294.5 119.5zM668 1483l-265 348h283l227 -348h-245z" />
    <glyph glyph-name="Oacute" unicode="&#xd3;" horiz-adv-x="1556" 
d="M778 1380q207 0 370.5 -89t254 -248.5t90.5 -362.5t-90.5 -362.5t-254 -248.5t-370.5 -89t-370.5 89t-254 248.5t-90.5 362.5t90.5 362.5t254 248.5t370.5 89zM778 1110q-181 0 -294 -119.5t-113 -310.5t113 -310.5t294 -119.5t294.5 119.5t113.5 310.5t-113.5 310.5
t-294.5 119.5zM641 1483l227 348h283l-264 -348h-246z" />
    <glyph glyph-name="Ocircumflex" unicode="&#xd4;" horiz-adv-x="1556" 
d="M778 1380q207 0 370.5 -89t254 -248.5t90.5 -362.5t-90.5 -362.5t-254 -248.5t-370.5 -89t-370.5 89t-254 248.5t-90.5 362.5t90.5 362.5t254 248.5t370.5 89zM778 1110q-181 0 -294 -119.5t-113 -310.5t113 -310.5t294 -119.5t294.5 119.5t113.5 310.5t-113.5 310.5
t-294.5 119.5zM778 1647l-131 -164h-246l252 348h248l252 -348h-246z" />
    <glyph glyph-name="Otilde" unicode="&#xd5;" horiz-adv-x="1556" 
d="M778 1380q207 0 370.5 -89t254 -248.5t90.5 -362.5t-90.5 -362.5t-254 -248.5t-370.5 -89t-370.5 89t-254 248.5t-90.5 362.5t90.5 362.5t254 248.5t370.5 89zM778 1110q-181 0 -294 -119.5t-113 -310.5t113 -310.5t294 -119.5t294.5 119.5t113.5 310.5t-113.5 310.5
t-294.5 119.5zM1114 1812v-206q-32 -54 -82 -84.5t-108 -30.5q-79 0 -166 49q-77 43 -140 43q-105 0 -165 -113h-11v207q31 54 81.5 84.5t109.5 30.5q79 0 166 -49q77 -43 139 -43q104 0 166 112h10z" />
    <glyph glyph-name="Odieresis" unicode="&#xd6;" horiz-adv-x="1556" 
d="M778 1380q207 0 370.5 -89t254 -248.5t90.5 -362.5t-90.5 -362.5t-254 -248.5t-370.5 -89t-370.5 89t-254 248.5t-90.5 362.5t90.5 362.5t254 248.5t370.5 89zM778 1110q-181 0 -294 -119.5t-113 -310.5t113 -310.5t294 -119.5t294.5 119.5t113.5 310.5t-113.5 310.5
t-294.5 119.5zM561 1794q67 0 110.5 -43.5t43.5 -108.5q0 -66 -43.5 -109.5t-110.5 -43.5t-108 43t-41 110q0 66 41 109t108 43zM995 1794q67 0 108.5 -43.5t41.5 -108.5q0 -67 -41.5 -110t-108.5 -43t-110 43.5t-43 109.5q0 65 43 108.5t110 43.5z" />
    <glyph glyph-name="multiply" unicode="&#xd7;" horiz-adv-x="1331" 
d="M1219 229l-168 -168l-385 385l-385 -385l-168 168l385 385l-385 385l168 168l385 -385l385 385l168 -168l-385 -385z" />
    <glyph glyph-name="Oslash" unicode="&#xd8;" horiz-adv-x="1556" 
d="M1493 1360l-172 -205q172 -194 172 -475q0 -203 -90.5 -362.5t-254 -248.5t-370.5 -89q-205 0 -366 88l-58 -68h-291l173 205q-173 195 -173 475q0 203 90.5 362.5t254 248.5t370.5 89q206 0 367 -88l57 68h291zM371 680q0 -137 61 -240l529 631q-83 39 -183 39
q-181 0 -294 -119.5t-113 -310.5zM1186 680q0 135 -62 240l-528 -631q83 -39 182 -39q181 0 294.5 119.5t113.5 310.5z" />
    <glyph glyph-name="Ugrave" unicode="&#xd9;" horiz-adv-x="1413" 
d="M1298 1360v-780q0 -600 -596 -600q-587 0 -587 600v780h303v-760q0 -173 74 -261.5t219 -88.5q146 0 220.5 88.5t74.5 261.5v760h292zM596 1483l-264 348h282l228 -348h-246z" />
    <glyph glyph-name="Uacute" unicode="&#xda;" horiz-adv-x="1413" 
d="M1298 1360v-780q0 -600 -596 -600q-587 0 -587 600v780h303v-760q0 -173 74 -261.5t219 -88.5q146 0 220.5 88.5t74.5 261.5v760h292zM569 1483l228 348h282l-264 -348h-246z" />
    <glyph glyph-name="Ucircumflex" unicode="&#xdb;" horiz-adv-x="1413" 
d="M1298 1360v-780q0 -600 -596 -600q-587 0 -587 600v780h303v-760q0 -173 74 -261.5t219 -88.5q146 0 220.5 88.5t74.5 261.5v760h292zM707 1647l-132 -164h-245l252 348h247l252 -348h-245z" />
    <glyph glyph-name="Udieresis" unicode="&#xdc;" horiz-adv-x="1413" 
d="M1298 1360v-780q0 -600 -596 -600q-587 0 -587 600v780h303v-760q0 -173 74 -261.5t219 -88.5q146 0 220.5 88.5t74.5 261.5v760h292zM489 1794q67 0 110.5 -43.5t43.5 -108.5q0 -66 -43.5 -109.5t-110.5 -43.5t-108 43t-41 110q0 66 41 109t108 43zM924 1794
q67 0 108 -43t41 -109q0 -67 -41 -110t-108 -43t-110.5 43.5t-43.5 109.5q0 65 43.5 108.5t110.5 43.5z" />
    <glyph glyph-name="Yacute" unicode="&#xdd;" horiz-adv-x="1431" 
d="M868 0h-303v557l-557 803h367l346 -526l346 526h356l-555 -803v-557zM580 1483l227 348h283l-265 -348h-245z" />
    <glyph glyph-name="Thorn" unicode="&#xde;" horiz-adv-x="1314" 
d="M449 1161h296q255 0 385 -114.5t130 -337.5t-130 -338t-385 -115h-296v-256h-304v1360h304v-199zM449 526h282q114 0 167.5 44.5t53.5 138.5t-53.5 138t-167.5 44h-282v-365z" />
    <glyph glyph-name="germandbls" unicode="&#xdf;" horiz-adv-x="1134" 
d="M547 1454q183 0 289 -92t106 -252q0 -93 -30 -161t-99 -128q-55 -48 -55 -86q0 -27 20.5 -43.5t79.5 -36.5q130 -42 188 -125.5t58 -222.5q0 -160 -94 -243.5t-273 -83.5q-174 0 -280 59v272h10q102 -94 242 -94q63 0 97 23.5t34 66.5q0 50 -28 78.5t-103 56.5
q-115 41 -160 103.5t-45 177.5q0 74 25.5 130t88.5 116q39 38 54.5 64t15.5 54q0 130 -139 130q-83 0 -122.5 -43t-39.5 -132v-1042h-268v1055q0 399 428 399z" />
    <glyph glyph-name="agrave" unicode="&#xe0;" horiz-adv-x="1202" 
d="M1083 0h-223l-8 129h-4q-100 -149 -313 -149q-204 0 -338 141.5t-134 359.5t134 360t338 142q105 0 185 -37.5t126 -107.5h4l10 125h223v-963zM580 217q107 0 175 73.5t68 190.5t-68 190.5t-175 73.5q-109 0 -177.5 -73.5t-68.5 -190.5t68.5 -190.5t177.5 -73.5z
M463 1102l-264 348h282l228 -348h-246z" />
    <glyph glyph-name="aacute" unicode="&#xe1;" horiz-adv-x="1202" 
d="M1083 0h-223l-8 129h-4q-100 -149 -313 -149q-204 0 -338 141.5t-134 359.5t134 360t338 142q105 0 185 -37.5t126 -107.5h4l10 125h223v-963zM580 217q107 0 175 73.5t68 190.5t-68 190.5t-175 73.5q-109 0 -177.5 -73.5t-68.5 -190.5t68.5 -190.5t177.5 -73.5z
M436 1102l228 348h282l-264 -348h-246z" />
    <glyph glyph-name="acircumflex" unicode="&#xe2;" horiz-adv-x="1202" 
d="M1083 0h-223l-8 129h-4q-100 -149 -313 -149q-204 0 -338 141.5t-134 359.5t134 360t338 142q105 0 185 -37.5t126 -107.5h4l10 125h223v-963zM580 217q107 0 175 73.5t68 190.5t-68 190.5t-175 73.5q-109 0 -177.5 -73.5t-68.5 -190.5t68.5 -190.5t177.5 -73.5z
M573 1266l-131 -164h-245l252 348h247l252 -348h-246z" />
    <glyph glyph-name="atilde" unicode="&#xe3;" horiz-adv-x="1202" 
d="M1083 0h-223l-8 129h-4q-100 -149 -313 -149q-204 0 -338 141.5t-134 359.5t134 360t338 142q105 0 185 -37.5t126 -107.5h4l10 125h223v-963zM580 217q107 0 175 73.5t68 190.5t-68 190.5t-175 73.5q-109 0 -177.5 -73.5t-68.5 -190.5t68.5 -190.5t177.5 -73.5z
M909 1432v-207q-32 -54 -82 -84.5t-108 -30.5q-79 0 -166 49q-77 43 -139 43q-107 0 -166 -112h-10v206q31 54 81.5 84.5t108.5 30.5q79 0 166 -49q77 -43 139 -43q103 0 166 113h10z" />
    <glyph glyph-name="adieresis" unicode="&#xe4;" horiz-adv-x="1202" 
d="M1083 0h-223l-8 129h-4q-100 -149 -313 -149q-204 0 -338 141.5t-134 359.5t134 360t338 142q105 0 185 -37.5t126 -107.5h4l10 125h223v-963zM580 217q107 0 175 73.5t68 190.5t-68 190.5t-175 73.5q-109 0 -177.5 -73.5t-68.5 -190.5t68.5 -190.5t177.5 -73.5z
M356 1413q67 0 110.5 -43t43.5 -108q0 -66 -43.5 -110t-110.5 -44t-108 43.5t-41 110.5q0 65 41 108t108 43zM791 1413q67 0 108 -43t41 -108q0 -67 -41 -110.5t-108 -43.5t-110.5 44t-43.5 110q0 65 43.5 108t110.5 43z" />
    <glyph glyph-name="aring" unicode="&#xe5;" horiz-adv-x="1202" 
d="M1083 0h-223l-8 129h-4q-100 -149 -313 -149q-204 0 -338 141.5t-134 359.5t134 360t338 142q105 0 185 -37.5t126 -107.5h4l10 125h223v-963zM580 217q107 0 175 73.5t68 190.5t-68 190.5t-175 73.5q-109 0 -177.5 -73.5t-68.5 -190.5t68.5 -190.5t177.5 -73.5z
M573 1499q98 0 161 -62.5t63 -160.5t-63 -160.5t-161 -62.5t-160.5 62.5t-62.5 160.5t62.5 160.5t160.5 62.5zM573 1360q-37 0 -60.5 -23t-23.5 -61t23.5 -61t60.5 -23t60.5 23t23.5 61t-23.5 61t-60.5 23z" />
    <glyph glyph-name="ae" unicode="&#xe6;" horiz-adv-x="1878" 
d="M1817 414h-730q22 -96 106.5 -149.5t213.5 -53.5q222 0 342 117h10v-258q-66 -46 -141 -68t-184 -22q-260 0 -373 145h-4l-4 -125h-199l-4 125h-4q-48 -70 -128 -107.5t-183 -37.5q-204 0 -338 141.5t-134 359.5t134 360t338 142q210 0 309 -141h4l6 121h199l4 -121h4
q48 67 130 104t189 37q209 0 323 -120.5t114 -340.5v-108zM580 217q107 0 175 73.5t68 190.5t-68 190.5t-175 73.5q-109 0 -177.5 -73.5t-68.5 -190.5t68.5 -190.5t177.5 -73.5zM1087 575h488q-17 83 -81 130t-159 47t-160.5 -48t-87.5 -129z" />
    <glyph glyph-name="ccedilla" unicode="&#xe7;" horiz-adv-x="974" 
d="M616 745q-131 0 -206.5 -71t-75.5 -193q0 -121 75.5 -192.5t206.5 -71.5q170 0 261 123h10v-289q-91 -65 -271 -71l-43 -76v-4q203 0 203 -152q0 -158 -252 -158q-112 0 -184 29v137h10q70 -39 164 -39q32 0 51 13.5t19 33.5q0 23 -20.5 36.5t-55.5 13.5q-42 0 -96 -13
v31l88 154q-198 26 -317.5 161t-119.5 334q0 222 145.5 362t379.5 140q190 0 299 -72v-286h-10q-92 120 -261 120z" />
    <glyph glyph-name="egrave" unicode="&#xe8;" horiz-adv-x="1114" 
d="M1051 414h-717q22 -97 104.5 -150t208.5 -53q216 0 336 117h10v-258q-126 -90 -358 -90q-255 0 -413.5 139t-158.5 362q0 221 141 361.5t361 140.5q224 0 355 -124.5t131 -336.5v-108zM573 752q-88 0 -153.5 -47t-85.5 -130h475q-13 86 -76 131.5t-160 45.5zM459 1102
l-264 348h282l228 -348h-246z" />
    <glyph glyph-name="eacute" unicode="&#xe9;" horiz-adv-x="1114" 
d="M1051 414h-717q22 -97 104.5 -150t208.5 -53q216 0 336 117h10v-258q-126 -90 -358 -90q-255 0 -413.5 139t-158.5 362q0 221 141 361.5t361 140.5q224 0 355 -124.5t131 -336.5v-108zM573 752q-88 0 -153.5 -47t-85.5 -130h475q-13 86 -76 131.5t-160 45.5zM432 1102
l227 348h283l-264 -348h-246z" />
    <glyph glyph-name="ecircumflex" unicode="&#xea;" horiz-adv-x="1114" 
d="M1051 414h-717q22 -97 104.5 -150t208.5 -53q216 0 336 117h10v-258q-126 -90 -358 -90q-255 0 -413.5 139t-158.5 362q0 221 141 361.5t361 140.5q224 0 355 -124.5t131 -336.5v-108zM573 752q-88 0 -153.5 -47t-85.5 -130h475q-13 86 -76 131.5t-160 45.5zM569 1266
l-131 -164h-245l251 348h248l252 -348h-246z" />
    <glyph glyph-name="edieresis" unicode="&#xeb;" horiz-adv-x="1114" 
d="M1051 414h-717q22 -97 104.5 -150t208.5 -53q216 0 336 117h10v-258q-126 -90 -358 -90q-255 0 -413.5 139t-158.5 362q0 221 141 361.5t361 140.5q224 0 355 -124.5t131 -336.5v-108zM573 752q-88 0 -153.5 -47t-85.5 -130h475q-13 86 -76 131.5t-160 45.5zM352 1413
q67 0 110.5 -43t43.5 -108q0 -66 -43.5 -110t-110.5 -44t-108 43.5t-41 110.5q0 65 41 108t108 43zM786 1413q67 0 108.5 -43t41.5 -108q0 -67 -41.5 -110.5t-108.5 -43.5t-110 44t-43 110q0 65 43 108t110 43z" />
    <glyph glyph-name="igrave" unicode="&#xec;" horiz-adv-x="507" 
d="M387 963v-963h-268v963h268zM143 1102l-264 348h283l227 -348h-246z" />
    <glyph glyph-name="iacute" unicode="&#xed;" horiz-adv-x="507" 
d="M387 963v-963h-268v963h268zM117 1102l227 348h283l-265 -348h-245z" />
    <glyph glyph-name="icircumflex" unicode="&#xee;" horiz-adv-x="507" 
d="M387 963v-963h-268v963h268zM254 1266l-131 -164h-246l252 348h248l252 -348h-246z" />
    <glyph glyph-name="idieresis" unicode="&#xef;" horiz-adv-x="507" 
d="M387 963v-963h-268v963h268zM37 1413q67 0 110 -43t43 -108q0 -66 -43 -110t-110 -44t-108.5 43.5t-41.5 110.5q0 65 41.5 108t108.5 43zM471 1413q67 0 108.5 -43t41.5 -108q0 -67 -41.5 -110.5t-108.5 -43.5t-110.5 44t-43.5 110q0 65 43.5 108t110.5 43z" />
    <glyph glyph-name="eth" unicode="&#xf0;" horiz-adv-x="1157" 
d="M948 1229l-96 -33q242 -285 242 -680q0 -244 -143 -390t-371 -146q-227 0 -372 140.5t-145 360.5q0 218 134 360t338 142q108 0 182 -41l4 2q-51 88 -123 166l-313 -106v153l192 66q-120 109 -301 200v11h406q21 -13 44 -30t35.5 -27t39.5 -33.5t36 -30.5l211 71v-155z
M580 217q107 0 175 73.5t68 190.5t-68 190.5t-175 73.5q-109 0 -177.5 -73.5t-68.5 -190.5t68.5 -190.5t177.5 -73.5z" />
    <glyph glyph-name="ntilde" unicode="&#xf1;" horiz-adv-x="1132" 
d="M657 983q177 0 276 -108.5t99 -303.5v-571h-268v539q0 99 -46.5 152.5t-131.5 53.5q-94 0 -146.5 -60.5t-52.5 -172.5v-512h-268v963h223l10 -138h4q43 76 120.5 117t180.5 41zM903 1432v-207q-32 -54 -82 -84.5t-108 -30.5q-79 0 -166 49q-77 43 -139 43
q-107 0 -166 -112h-11v206q31 54 81.5 84.5t109.5 30.5q79 0 166 -49q77 -43 139 -43q103 0 166 113h10z" />
    <glyph glyph-name="ograve" unicode="&#xf2;" horiz-adv-x="1157" 
d="M580 983q226 0 370 -140.5t144 -361.5q0 -220 -144 -360.5t-370 -140.5q-227 0 -372 140.5t-145 360.5q0 221 145 361.5t372 140.5zM580 745q-109 0 -177.5 -73.5t-68.5 -190.5t68.5 -190.5t177.5 -73.5q107 0 175 73.5t68 190.5t-68 190.5t-175 73.5zM469 1102l-264 348
h282l228 -348h-246z" />
    <glyph glyph-name="oacute" unicode="&#xf3;" horiz-adv-x="1157" 
d="M580 983q226 0 370 -140.5t144 -361.5q0 -220 -144 -360.5t-370 -140.5q-227 0 -372 140.5t-145 360.5q0 221 145 361.5t372 140.5zM580 745q-109 0 -177.5 -73.5t-68.5 -190.5t68.5 -190.5t177.5 -73.5q107 0 175 73.5t68 190.5t-68 190.5t-175 73.5zM442 1102l228 348
h282l-264 -348h-246z" />
    <glyph glyph-name="ocircumflex" unicode="&#xf4;" horiz-adv-x="1157" 
d="M580 983q226 0 370 -140.5t144 -361.5q0 -220 -144 -360.5t-370 -140.5q-227 0 -372 140.5t-145 360.5q0 221 145 361.5t372 140.5zM580 745q-109 0 -177.5 -73.5t-68.5 -190.5t68.5 -190.5t177.5 -73.5q107 0 175 73.5t68 190.5t-68 190.5t-175 73.5zM580 1266
l-131 -164h-246l252 348h247l252 -348h-245z" />
    <glyph glyph-name="otilde" unicode="&#xf5;" horiz-adv-x="1157" 
d="M580 983q226 0 370 -140.5t144 -361.5q0 -220 -144 -360.5t-370 -140.5q-227 0 -372 140.5t-145 360.5q0 221 145 361.5t372 140.5zM580 745q-109 0 -177.5 -73.5t-68.5 -190.5t68.5 -190.5t177.5 -73.5q107 0 175 73.5t68 190.5t-68 190.5t-175 73.5zM915 1432v-207
q-32 -54 -82 -84.5t-108 -30.5q-79 0 -166 49q-77 43 -139 43q-107 0 -166 -112h-10v206q31 54 81.5 84.5t108.5 30.5q79 0 166 -49q77 -43 139 -43q103 0 166 113h10z" />
    <glyph glyph-name="odieresis" unicode="&#xf6;" horiz-adv-x="1157" 
d="M580 983q226 0 370 -140.5t144 -361.5q0 -220 -144 -360.5t-370 -140.5q-227 0 -372 140.5t-145 360.5q0 221 145 361.5t372 140.5zM580 745q-109 0 -177.5 -73.5t-68.5 -190.5t68.5 -190.5t177.5 -73.5q107 0 175 73.5t68 190.5t-68 190.5t-175 73.5zM362 1413
q67 0 110.5 -43t43.5 -108q0 -66 -43.5 -110t-110.5 -44t-108 43.5t-41 110.5q0 65 41 108t108 43zM797 1413q67 0 108 -43t41 -108q0 -67 -41 -110.5t-108 -43.5t-110.5 44t-43.5 110q0 65 43.5 108t110.5 43z" />
    <glyph glyph-name="divide" unicode="&#xf7;" horiz-adv-x="1331" 
d="M666 1225q64 0 105.5 -41.5t41.5 -106.5q0 -66 -41 -106.5t-106 -40.5t-106.5 40.5t-41.5 106.5q0 65 42 106.5t106 41.5zM84 496v237h1163v-237h-1163zM666 299q65 0 106 -40.5t41 -106.5q0 -65 -41.5 -106.5t-105.5 -41.5t-106 42t-42 106q0 66 41.5 106.5t106.5 40.5z
" />
    <glyph glyph-name="oslash" unicode="&#xf8;" horiz-adv-x="1157" 
d="M1094 963l-117 -148q117 -136 117 -334q0 -220 -144 -360.5t-370 -140.5q-124 0 -230 45l-20 -25h-267l119 150q-119 135 -119 331q0 221 145 361.5t372 140.5q121 0 227 -45l20 25h267zM334 481q0 -56 20 -114l293 370q-40 8 -67 8q-109 0 -177.5 -73.5t-68.5 -190.5z
M823 481q0 57 -20 115l-293 -371q40 -8 70 -8q107 0 175 73.5t68 190.5z" />
    <glyph glyph-name="ugrave" unicode="&#xf9;" horiz-adv-x="1130" 
d="M1012 0h-224l-10 137h-4q-43 -76 -119.5 -116.5t-179.5 -40.5q-177 0 -276 109t-99 304v570h269v-539q0 -99 46.5 -153t131.5 -54q93 0 144.5 61t51.5 173v512h269v-963zM444 1102l-264 348h283l227 -348h-246z" />
    <glyph glyph-name="uacute" unicode="&#xfa;" horiz-adv-x="1130" 
d="M1012 0h-224l-10 137h-4q-43 -76 -119.5 -116.5t-179.5 -40.5q-177 0 -276 109t-99 304v570h269v-539q0 -99 46.5 -153t131.5 -54q93 0 144.5 61t51.5 173v512h269v-963zM418 1102l227 348h283l-264 -348h-246z" />
    <glyph glyph-name="ucircumflex" unicode="&#xfb;" horiz-adv-x="1130" 
d="M1012 0h-224l-10 137h-4q-43 -76 -119.5 -116.5t-179.5 -40.5q-177 0 -276 109t-99 304v570h269v-539q0 -99 46.5 -153t131.5 -54q93 0 144.5 61t51.5 173v512h269v-963zM555 1266l-131 -164h-246l252 348h248l252 -348h-246z" />
    <glyph glyph-name="udieresis" unicode="&#xfc;" horiz-adv-x="1130" 
d="M1012 0h-224l-10 137h-4q-43 -76 -119.5 -116.5t-179.5 -40.5q-177 0 -276 109t-99 304v570h269v-539q0 -99 46.5 -153t131.5 -54q93 0 144.5 61t51.5 173v512h269v-963zM338 1413q67 0 110.5 -43t43.5 -108q0 -66 -43.5 -110t-110.5 -44t-108.5 43.5t-41.5 110.5
q0 65 41.5 108t108.5 43zM772 1413q67 0 108.5 -43t41.5 -108q0 -67 -41.5 -110.5t-108.5 -43.5t-110.5 44t-43.5 110q0 65 43.5 108t110.5 43z" />
    <glyph glyph-name="yacute" unicode="&#xfd;" horiz-adv-x="1040" 
d="M477 -389h-276l182 420l-371 932h287l225 -635h4l224 635h276zM383 1102l227 348h283l-264 -348h-246z" />
    <glyph glyph-name="thorn" unicode="&#xfe;" horiz-adv-x="1204" 
d="M670 983q204 0 337.5 -142t133.5 -360t-133.5 -359.5t-337.5 -141.5q-178 0 -279 104h-4v-473h-268v1823h268v-555h4q101 104 279 104zM625 217q110 0 177.5 73.5t67.5 190.5t-67.5 190.5t-177.5 73.5q-109 0 -176.5 -73.5t-67.5 -190.5t67.5 -190.5t176.5 -73.5z" />
    <glyph glyph-name="ydieresis" unicode="&#xff;" horiz-adv-x="1040" 
d="M477 -389h-276l182 420l-371 932h287l225 -635h4l224 635h276zM303 1413q67 0 110.5 -43t43.5 -108q0 -66 -43.5 -110t-110.5 -44t-108 43.5t-41 110.5q0 65 41 108t108 43zM737 1413q67 0 108.5 -43t41.5 -108q0 -67 -41.5 -110.5t-108.5 -43.5t-110 44t-43 110
q0 65 43 108t110 43z" />
    <glyph glyph-name="Amacron" unicode="&#x100;" horiz-adv-x="1509" 
d="M1155 0l-92 229h-625l-92 -229h-317l579 1360h293l580 -1360h-326zM752 1012h-4l-207 -523h420zM420 1536v211h672v-211h-672z" />
    <glyph glyph-name="amacron" unicode="&#x101;" horiz-adv-x="1202" 
d="M1083 0h-223l-8 129h-4q-100 -149 -313 -149q-204 0 -338 141.5t-134 359.5t134 360t338 142q105 0 185 -37.5t126 -107.5h4l10 125h223v-963zM580 217q107 0 175 73.5t68 190.5t-68 190.5t-175 73.5q-109 0 -177.5 -73.5t-68.5 -190.5t68.5 -190.5t177.5 -73.5z
M238 1155v211h671v-211h-671z" />
    <glyph glyph-name="Abreve" unicode="&#x102;" horiz-adv-x="1509" 
d="M1155 0l-92 229h-625l-92 -229h-317l579 1360h293l580 -1360h-326zM752 1012h-4l-207 -523h420zM920 1821h190q-9 -163 -100 -248.5t-254 -85.5t-254.5 86t-100.5 248h191q10 -66 53 -98.5t111 -32.5t111 32.5t53 98.5z" />
    <glyph glyph-name="abreve" unicode="&#x103;" horiz-adv-x="1202" 
d="M1083 0h-223l-8 129h-4q-100 -149 -313 -149q-204 0 -338 141.5t-134 359.5t134 360t338 142q105 0 185 -37.5t126 -107.5h4l10 125h223v-963zM580 217q107 0 175 73.5t68 190.5t-68 190.5t-175 73.5q-109 0 -177.5 -73.5t-68.5 -190.5t68.5 -190.5t177.5 -73.5z
M737 1440h191q-9 -162 -100.5 -248t-254.5 -86t-254 85.5t-100 248.5h191q10 -66 52.5 -98.5t110.5 -32.5t111 32.5t53 98.5z" />
    <glyph glyph-name="Aogonek" unicode="&#x104;" horiz-adv-x="1509" 
d="M1337 -236q68 0 133 56h11v-195q-72 -35 -189 -35q-103 0 -165 49.5t-62 135.5q0 133 127 221v4h-37l-92 229h-625l-92 -229h-317l579 1360h293l580 -1360h-76q-66 -28 -104.5 -71t-38.5 -93q0 -32 21 -52t54 -20zM752 1012h-4l-207 -523h420z" />
    <glyph glyph-name="aogonek" unicode="&#x105;" horiz-adv-x="1202" 
d="M1083 0h-75q-66 -29 -105 -71.5t-39 -92.5q0 -32 21.5 -52t54.5 -20q68 0 133 56h10v-195q-72 -35 -188 -35q-103 0 -165 49.5t-62 135.5q0 164 190 258l-6 96h-4q-100 -149 -313 -149q-204 0 -338 141.5t-134 359.5t134 360t338 142q105 0 185 -37.5t126 -107.5h4
l10 125h223v-963zM580 217q107 0 175 73.5t68 190.5t-68 190.5t-175 73.5q-109 0 -177.5 -73.5t-68.5 -190.5t68.5 -190.5t177.5 -73.5z" />
    <glyph glyph-name="Cacute" unicode="&#x106;" horiz-adv-x="1304" 
d="M791 1380q140 0 237.5 -25t179.5 -81v-332h-14q-133 168 -389 168q-196 0 -315 -118t-119 -312t119 -312t315 -118q124 0 224.5 43t164.5 125h14v-332q-83 -55 -181.5 -80.5t-235.5 -25.5q-214 0 -380 89t-257 248.5t-91 362.5t91 362.5t257 248.5t380 89zM594 1483
l227 348h283l-264 -348h-246z" />
    <glyph glyph-name="cacute" unicode="&#x107;" horiz-adv-x="974" 
d="M588 983q190 0 299 -72v-286h-10q-92 120 -261 120q-131 0 -206.5 -71t-75.5 -193q0 -121 75.5 -192.5t206.5 -71.5q170 0 261 123h10v-289q-101 -71 -299 -71q-234 0 -379.5 139.5t-145.5 361.5t145.5 362t379.5 140zM416 1102l227 348h283l-264 -348h-246z" />
    <glyph glyph-name="Ccircumflex" unicode="&#x108;" horiz-adv-x="1304" 
d="M791 1380q140 0 237.5 -25t179.5 -81v-332h-14q-133 168 -389 168q-196 0 -315 -118t-119 -312t119 -312t315 -118q124 0 224.5 43t164.5 125h14v-332q-83 -55 -181.5 -80.5t-235.5 -25.5q-214 0 -380 89t-257 248.5t-91 362.5t91 362.5t257 248.5t380 89zM731 1647
l-131 -164h-246l252 348h248l252 -348h-246z" />
    <glyph glyph-name="ccircumflex" unicode="&#x109;" horiz-adv-x="974" 
d="M588 983q190 0 299 -72v-286h-10q-92 120 -261 120q-131 0 -206.5 -71t-75.5 -193q0 -121 75.5 -192.5t206.5 -71.5q170 0 261 123h10v-289q-101 -71 -299 -71q-234 0 -379.5 139.5t-145.5 361.5t145.5 362t379.5 140zM553 1266l-131 -164h-246l252 348h248l252 -348
h-246z" />
    <glyph glyph-name="Cdotaccent" unicode="&#x10a;" horiz-adv-x="1304" 
d="M791 1380q140 0 237.5 -25t179.5 -81v-332h-14q-133 168 -389 168q-196 0 -315 -118t-119 -312t119 -312t315 -118q124 0 224.5 43t164.5 125h14v-332q-83 -55 -181.5 -80.5t-235.5 -25.5q-214 0 -380 89t-257 248.5t-91 362.5t91 362.5t257 248.5t380 89zM731 1808
q72 0 120 -47t48 -119q0 -73 -48 -120t-120 -47t-120 47t-48 120q0 72 48 119t120 47z" />
    <glyph glyph-name="cdotaccent" unicode="&#x10b;" horiz-adv-x="974" 
d="M588 983q190 0 299 -72v-286h-10q-92 120 -261 120q-131 0 -206.5 -71t-75.5 -193q0 -121 75.5 -192.5t206.5 -71.5q170 0 261 123h10v-289q-101 -71 -299 -71q-234 0 -379.5 139.5t-145.5 361.5t145.5 362t379.5 140zM553 1427q72 0 120 -46.5t48 -118.5
q0 -73 -48 -120.5t-120 -47.5t-120 47.5t-48 120.5q0 72 48 118.5t120 46.5z" />
    <glyph glyph-name="Ccaron" unicode="&#x10c;" horiz-adv-x="1304" 
d="M791 1380q140 0 237.5 -25t179.5 -81v-332h-14q-133 168 -389 168q-196 0 -315 -118t-119 -312t119 -312t315 -118q124 0 224.5 43t164.5 125h14v-332q-83 -55 -181.5 -80.5t-235.5 -25.5q-214 0 -380 89t-257 248.5t-91 362.5t91 362.5t257 248.5t380 89zM854 1483h-248
l-252 348h246l131 -164l129 164h246z" />
    <glyph glyph-name="ccaron" unicode="&#x10d;" horiz-adv-x="974" 
d="M588 983q190 0 299 -72v-286h-10q-92 120 -261 120q-131 0 -206.5 -71t-75.5 -193q0 -121 75.5 -192.5t206.5 -71.5q170 0 261 123h10v-289q-101 -71 -299 -71q-234 0 -379.5 139.5t-145.5 361.5t145.5 362t379.5 140zM676 1102h-248l-252 348h246l131 -164l129 164h246z
" />
    <glyph glyph-name="Dcaron" unicode="&#x10e;" horiz-adv-x="1478" 
d="M145 1360h547q347 0 536 -178t189 -502t-189 -502t-536 -178h-547v1360zM449 270h225q213 0 324.5 105t111.5 305t-111.5 305t-324.5 105h-225v-820zM827 1483h-247l-252 348h245l132 -164l129 164h245z" />
    <glyph glyph-name="dcaron" unicode="&#x10f;" horiz-adv-x="1202" 
d="M1083 0h-223l-8 129h-4q-100 -149 -313 -149q-204 0 -338 141.5t-134 359.5t134 360t338 142q174 0 276 -102h4v553h268v-1434zM580 217q107 0 175 73.5t68 190.5t-68 190.5t-175 73.5q-109 0 -177.5 -73.5t-68.5 -190.5t68.5 -190.5t177.5 -73.5zM1149 1032l55 402h271
l-123 -402h-203z" />
    <glyph glyph-name="Dcroat" unicode="&#x110;" horiz-adv-x="1513" 
d="M180 1360h547q347 0 536 -178t189 -502t-189 -502t-536 -178h-547v567h-141v236h141v557zM483 270h226q213 0 324.5 105t111.5 305t-111.5 305t-324.5 105h-226v-287h295v-236h-295v-297z" />
    <glyph glyph-name="dcroat" unicode="&#x111;" horiz-adv-x="1228" 
d="M1083 0h-223l-8 129h-4q-100 -149 -313 -149q-204 0 -338 141.5t-134 359.5t134 360t338 142q174 0 276 -102h4v192h-307v187h307v174h268v-174h146v-187h-146v-1073zM580 217q107 0 175 73.5t68 190.5t-68 190.5t-175 73.5q-109 0 -177.5 -73.5t-68.5 -190.5
t68.5 -190.5t177.5 -73.5z" />
    <glyph glyph-name="Emacron" unicode="&#x112;" horiz-adv-x="1261" 
d="M1016 809v-254h-567v-285h714v-270h-1018v1360h1018v-270h-714v-281h567zM317 1536v211h672v-211h-672z" />
    <glyph glyph-name="emacron" unicode="&#x113;" horiz-adv-x="1114" 
d="M1051 414h-717q22 -97 104.5 -150t208.5 -53q216 0 336 117h10v-258q-126 -90 -358 -90q-255 0 -413.5 139t-158.5 362q0 221 141 361.5t361 140.5q224 0 355 -124.5t131 -336.5v-108zM573 752q-88 0 -153.5 -47t-85.5 -130h475q-13 86 -76 131.5t-160 45.5zM233 1155
v211h672v-211h-672z" />
    <glyph glyph-name="Ebreve" unicode="&#x114;" horiz-adv-x="1261" 
d="M1016 809v-254h-567v-285h714v-270h-1018v1360h1018v-270h-714v-281h567zM817 1821h191q-9 -162 -100.5 -248t-254.5 -86t-254 85.5t-100 248.5h190q10 -66 53 -98.5t111 -32.5t111 32.5t53 98.5z" />
    <glyph glyph-name="ebreve" unicode="&#x115;" horiz-adv-x="1114" 
d="M1051 414h-717q22 -97 104.5 -150t208.5 -53q216 0 336 117h10v-258q-126 -90 -358 -90q-255 0 -413.5 139t-158.5 362q0 221 141 361.5t361 140.5q224 0 355 -124.5t131 -336.5v-108zM573 752q-88 0 -153.5 -47t-85.5 -130h475q-13 86 -76 131.5t-160 45.5zM733 1440
h191q-9 -162 -100.5 -248t-254.5 -86t-254 85.5t-100 248.5h191q10 -66 52.5 -98.5t110.5 -32.5t111 32.5t53 98.5z" />
    <glyph glyph-name="Edotaccent" unicode="&#x116;" horiz-adv-x="1261" 
d="M1016 809v-254h-567v-285h714v-270h-1018v1360h1018v-270h-714v-281h567zM653 1808q72 0 120 -47t48 -119q0 -73 -48 -120t-120 -47t-120 47t-48 120q0 72 48 119t120 47z" />
    <glyph glyph-name="edotaccent" unicode="&#x117;" horiz-adv-x="1114" 
d="M1051 414h-717q22 -97 104.5 -150t208.5 -53q216 0 336 117h10v-258q-126 -90 -358 -90q-255 0 -413.5 139t-158.5 362q0 221 141 361.5t361 140.5q224 0 355 -124.5t131 -336.5v-108zM573 752q-88 0 -153.5 -47t-85.5 -130h475q-13 86 -76 131.5t-160 45.5zM569 1427
q72 0 120 -46.5t48 -118.5q0 -73 -48 -120.5t-120 -47.5t-120 47.5t-48 120.5q0 72 48 118.5t120 46.5z" />
    <glyph glyph-name="Eogonek" unicode="&#x118;" horiz-adv-x="1261" 
d="M449 809h567v-254h-567v-285h714v-270h-76q-66 -28 -104.5 -71t-38.5 -93q0 -32 21.5 -52t54.5 -20q68 0 133 56h10v-195q-72 -35 -188 -35q-103 0 -165 49.5t-62 135.5q0 134 126 221v4h-729v1360h1018v-270h-714v-281z" />
    <glyph glyph-name="eogonek" unicode="&#x119;" horiz-adv-x="1114" 
d="M1051 522v-108h-717q22 -97 104.5 -150t208.5 -53q216 0 336 117h10v-258q-42 -30 -129 -64q-61 -25 -98 -71t-37 -97q0 -32 22.5 -53t55.5 -21q68 0 133 56h10v-195q-72 -35 -188 -35q-103 0 -165 50.5t-62 136.5q0 122 100 198v5q-255 0 -413.5 139t-158.5 362
q0 221 141 361.5t361 140.5q224 0 355 -124.5t131 -336.5zM573 752q-88 0 -153.5 -47t-85.5 -130h475q-13 86 -76 131.5t-160 45.5z" />
    <glyph glyph-name="Ecaron" unicode="&#x11a;" horiz-adv-x="1261" 
d="M1016 809v-254h-567v-285h714v-270h-1018v1360h1018v-270h-714v-281h567zM776 1483h-248l-252 348h246l131 -164l129 164h246z" />
    <glyph glyph-name="ecaron" unicode="&#x11b;" horiz-adv-x="1114" 
d="M1051 414h-717q22 -97 104.5 -150t208.5 -53q216 0 336 117h10v-258q-126 -90 -358 -90q-255 0 -413.5 139t-158.5 362q0 221 141 361.5t361 140.5q224 0 355 -124.5t131 -336.5v-108zM573 752q-88 0 -153.5 -47t-85.5 -130h475q-13 86 -76 131.5t-160 45.5zM692 1102
h-248l-251 348h245l131 -164l129 164h246z" />
    <glyph glyph-name="Gcircumflex" unicode="&#x11c;" horiz-adv-x="1433" 
d="M834 1110q-211 0 -337 -117t-126 -313t126 -313t337 -117q94 0 176 18v232h-299v254h592v-668q-185 -106 -482 -106q-347 0 -552.5 189.5t-205.5 510.5t205.5 510.5t552.5 189.5q297 0 482 -106v-332h-15q-174 168 -454 168zM758 1647l-131 -164h-246l252 348h248
l252 -348h-246z" />
    <glyph glyph-name="gcircumflex" unicode="&#x11d;" horiz-adv-x="1202" 
d="M1083 963v-885q0 -226 -143 -357t-393 -131t-387 105v270h10q54 -63 145.5 -100t198.5 -37q145 0 223 69t78 197v6h-4q-101 -104 -276 -104q-205 0 -338.5 138t-133.5 355t133.5 355.5t338.5 138.5q214 0 313 -147h4l8 127h223zM580 233q108 0 175.5 70t67.5 186
t-67.5 186t-175.5 70q-110 0 -178 -70t-68 -186t68 -186t178 -70zM573 1266l-131 -164h-245l252 348h247l252 -348h-246z" />
    <glyph glyph-name="Gbreve" unicode="&#x11e;" horiz-adv-x="1433" 
d="M834 1110q-211 0 -337 -117t-126 -313t126 -313t337 -117q94 0 176 18v232h-299v254h592v-668q-185 -106 -482 -106q-347 0 -552.5 189.5t-205.5 510.5t205.5 510.5t552.5 189.5q297 0 482 -106v-332h-15q-174 168 -454 168zM922 1821h190q-9 -163 -100 -248.5
t-254 -85.5t-254.5 86t-100.5 248h191q10 -66 53 -98.5t111 -32.5t111 32.5t53 98.5z" />
    <glyph glyph-name="gbreve" unicode="&#x11f;" horiz-adv-x="1202" 
d="M1083 963v-885q0 -226 -143 -357t-393 -131t-387 105v270h10q54 -63 145.5 -100t198.5 -37q145 0 223 69t78 197v6h-4q-101 -104 -276 -104q-205 0 -338.5 138t-133.5 355t133.5 355.5t338.5 138.5q214 0 313 -147h4l8 127h223zM580 233q108 0 175.5 70t67.5 186
t-67.5 186t-175.5 70q-110 0 -178 -70t-68 -186t68 -186t178 -70zM737 1440h191q-9 -162 -100.5 -248t-254.5 -86t-254 85.5t-100 248.5h191q10 -66 52.5 -98.5t110.5 -32.5t111 32.5t53 98.5z" />
    <glyph glyph-name="Gdotaccent" unicode="&#x120;" horiz-adv-x="1433" 
d="M834 1110q-211 0 -337 -117t-126 -313t126 -313t337 -117q94 0 176 18v232h-299v254h592v-668q-185 -106 -482 -106q-347 0 -552.5 189.5t-205.5 510.5t205.5 510.5t552.5 189.5q297 0 482 -106v-332h-15q-174 168 -454 168zM758 1808q72 0 120 -47t48 -119
q0 -73 -48 -120t-120 -47t-120 47t-48 120q0 72 48 119t120 47z" />
    <glyph glyph-name="gdotaccent" unicode="&#x121;" horiz-adv-x="1202" 
d="M1083 963v-885q0 -226 -143 -357t-393 -131t-387 105v270h10q54 -63 145.5 -100t198.5 -37q145 0 223 69t78 197v6h-4q-101 -104 -276 -104q-205 0 -338.5 138t-133.5 355t133.5 355.5t338.5 138.5q214 0 313 -147h4l8 127h223zM580 233q108 0 175.5 70t67.5 186
t-67.5 186t-175.5 70q-110 0 -178 -70t-68 -186t68 -186t178 -70zM573 1427q72 0 120 -46.5t48 -118.5q0 -73 -48 -120.5t-120 -47.5t-119.5 47.5t-47.5 120.5q0 72 47.5 118.5t119.5 46.5z" />
    <glyph glyph-name="uni0122" unicode="&#x122;" horiz-adv-x="1433" 
d="M834 1110q-211 0 -337 -117t-126 -313t126 -313t337 -117q94 0 176 18v232h-299v254h592v-668q-185 -106 -482 -106q-347 0 -552.5 189.5t-205.5 510.5t205.5 510.5t552.5 189.5q297 0 482 -106v-332h-15q-174 168 -454 168zM426 -430l199 307h270l-236 -307h-233z" />
    <glyph glyph-name="uni0123" unicode="&#x123;" horiz-adv-x="1204" 
d="M924 1450l-228 -348h-270l264 348h234zM1083 963v-885q0 -226 -143 -357t-393 -131t-387 105v270h10q54 -63 145.5 -100t198.5 -37q145 0 223 69t78 197v6h-4q-101 -104 -276 -104q-205 0 -338.5 138t-133.5 355t133.5 355.5t338.5 138.5q214 0 313 -147h4l8 127h223z
M580 233q108 0 175.5 70t67.5 186t-67.5 186t-175.5 70q-110 0 -178 -70t-68 -186t68 -186t178 -70z" />
    <glyph glyph-name="Hcircumflex" unicode="&#x124;" horiz-adv-x="1503" 
d="M1358 0h-305v549h-604v-549h-304v1360h304v-541h604v541h305v-1360zM752 1647l-131 -164h-246l252 348h247l252 -348h-245z" />
    <glyph glyph-name="hcircumflex" unicode="&#x125;" horiz-adv-x="1132" 
d="M657 983q177 0 276 -108.5t99 -303.5v-571h-268v539q0 99 -46.5 152.5t-131.5 53.5q-94 0 -146.5 -60.5t-52.5 -172.5v-512h-268v1434h268v-560h4q92 109 266 109zM254 1710l-131 -164h-246l252 348h248l252 -348h-246z" />
    <glyph glyph-name="Hbar" unicode="&#x126;" horiz-adv-x="1509" 
d="M1362 967v-967h-305v549h-604v-549h-303v967h-105v207h105v186h303v-186h604v186h305v-186h100v-207h-100zM453 967v-148h604v148h-604z" />
    <glyph glyph-name="hbar" unicode="&#x127;" horiz-adv-x="1146" 
d="M674 983q177 0 276 -108.5t99 -303.5v-571h-269v539q0 99 -46.5 152.5t-131.5 53.5q-94 0 -146.5 -60.5t-52.5 -172.5v-512h-268v1073h-135v187h135v174h268v-174h291v-187h-291v-199h5q92 109 266 109z" />
    <glyph glyph-name="Itilde" unicode="&#x128;" horiz-adv-x="593" 
d="M145 0v1360h304v-1360h-304zM633 1812v-206q-32 -54 -82.5 -84.5t-108.5 -30.5q-79 0 -166 49q-77 43 -139 43q-106 0 -166 -113h-10v207q31 54 81.5 84.5t109.5 30.5q78 0 165 -49q77 -43 140 -43q104 0 166 112h10z" />
    <glyph glyph-name="itilde" unicode="&#x129;" horiz-adv-x="507" 
d="M387 963v-963h-268v963h268zM590 1432v-207q-32 -54 -82.5 -84.5t-108.5 -30.5q-79 0 -166 49q-77 43 -139 43q-107 0 -166 -112h-10v206q31 54 81.5 84.5t109.5 30.5q78 0 165 -49q77 -43 140 -43q103 0 166 113h10z" />
    <glyph glyph-name="Imacron" unicode="&#x12a;" horiz-adv-x="593" 
d="M145 0v1360h304v-1360h-304zM-39 1536v211h672v-211h-672z" />
    <glyph glyph-name="imacron" unicode="&#x12b;" horiz-adv-x="507" 
d="M387 963v-963h-268v963h268zM-82 1155v211h672v-211h-672z" />
    <glyph glyph-name="Ibreve" unicode="&#x12c;" horiz-adv-x="593" 
d="M145 0v1360h304v-1360h-304zM461 1821h190q-9 -163 -100 -248.5t-254 -85.5t-254 85.5t-100 248.5h190q10 -66 53 -98.5t111 -32.5t111 32.5t53 98.5z" />
    <glyph glyph-name="ibreve" unicode="&#x12d;" horiz-adv-x="507" 
d="M387 963v-963h-268v963h268zM418 1440h190q-9 -163 -100 -248.5t-254 -85.5t-254 85.5t-100 248.5h190q10 -66 53 -98.5t111 -32.5t111 32.5t53 98.5z" />
    <glyph glyph-name="Iogonek" unicode="&#x12e;" horiz-adv-x="593" 
d="M465 -180v-195q-72 -35 -189 -35q-103 0 -165 49.5t-62 135.5q0 133 127 221v4h-31v1360h304v-1360h-70q-135 -68 -135 -164q0 -32 22.5 -52t55.5 -20q68 0 133 56h10z" />
    <glyph glyph-name="iogonek" unicode="&#x12f;" horiz-adv-x="507" 
d="M258 -236q68 0 133 56h10v-195q-72 -35 -188 -35q-103 0 -164 49.5t-61 135.5q0 138 131 225v963h268v-963h-70q-135 -68 -135 -164q0 -32 22 -52t54 -20zM254 1425q72 0 119 -45.5t47 -117.5q0 -73 -47 -119.5t-119 -46.5t-119 46.5t-47 119.5q0 72 47 117.5t119 45.5z
" />
    <glyph glyph-name="Idotaccent" unicode="&#x130;" horiz-adv-x="593" 
d="M145 0v1360h304v-1360h-304zM297 1808q72 0 120 -47t48 -119q0 -73 -48 -120t-120 -47t-120 47t-48 120q0 72 48 119t120 47z" />
    <glyph glyph-name="dotlessi" unicode="&#x131;" horiz-adv-x="507" 
d="M387 963v-963h-268v963h268z" />
    <glyph glyph-name="IJ" unicode="&#x132;" horiz-adv-x="1642" 
d="M145 0v1360h304v-1360h-304zM1528 1360v-871q0 -509 -510 -509q-223 0 -371 106v320h15q49 -70 137.5 -113t183.5 -43q122 0 182 65.5t60 204.5v840h303z" />
    <glyph glyph-name="ij" unicode="&#x133;" horiz-adv-x="1015" 
d="M254 1425q72 0 119 -45.5t47 -117.5q0 -73 -47 -119.5t-119 -46.5t-119 46.5t-47 119.5q0 72 47 117.5t119 45.5zM119 0v963h268v-963h-268zM762 1425q72 0 119 -45.5t47 -117.5q0 -73 -47 -119.5t-119 -46.5t-119 46.5t-47 119.5q0 72 47 117.5t119 45.5zM895 963v-1053
q0 -157 -77 -238.5t-218 -81.5q-70 0 -137 21v242h12q31 -25 72 -25q42 0 61 25t19 79v1031h268z" />
    <glyph glyph-name="Jcircumflex" unicode="&#x134;" horiz-adv-x="1048" 
d="M934 1360v-871q0 -509 -510 -509q-223 0 -371 106v320h15q49 -70 137.5 -113t183.5 -43q122 0 182 65.5t60 204.5v840h303zM782 1647l-131 -164h-245l251 348h248l252 -348h-246z" />
    <glyph glyph-name="jcircumflex" unicode="&#x135;" horiz-adv-x="507" 
d="M387 963v-1053q0 -157 -77 -238.5t-218 -81.5q-70 0 -137 21v242h12q31 -25 72 -25q42 0 61 25t19 79v1031h268zM254 1266l-131 -164h-246l252 348h248l252 -348h-246z" />
    <glyph glyph-name="uni0136" unicode="&#x136;" horiz-adv-x="1378" 
d="M449 578v-578h-304v1360h304v-572l499 572h383l-608 -668l629 -692h-400zM358 -430l199 307h270l-235 -307h-234z" />
    <glyph glyph-name="uni0137" unicode="&#x137;" horiz-adv-x="1093" 
d="M387 0h-268v1434h268v-865l332 394h332l-418 -469l438 -494h-346l-338 403v-403zM219 -430l199 307h270l-235 -307h-234z" />
    <glyph glyph-name="kgreenlandic" unicode="&#x138;" horiz-adv-x="1093" 
d="M387 403v-403h-268v963h268v-394l332 394h332l-418 -469l438 -494h-346z" />
    <glyph glyph-name="Lacute" unicode="&#x139;" horiz-adv-x="1187" 
d="M1135 0h-990v1360h304v-1090h686v-270zM160 1483l227 348h283l-264 -348h-246z" />
    <glyph glyph-name="lacute" unicode="&#x13a;" horiz-adv-x="505" 
d="M119 0v1434h268v-1434h-268zM117 1546l227 348h283l-265 -348h-245z" />
    <glyph glyph-name="uni013B" unicode="&#x13b;" horiz-adv-x="1187" 
d="M1135 0h-990v1360h304v-1090h686v-270zM313 -430l199 307h270l-235 -307h-234z" />
    <glyph glyph-name="uni013C" unicode="&#x13c;" horiz-adv-x="505" 
d="M119 0v1434h268v-1434h-268zM-78 -430l199 307h270l-235 -307h-234z" />
    <glyph glyph-name="Lcaron" unicode="&#x13d;" horiz-adv-x="1187" 
d="M1135 0h-990v1360h304v-1090h686v-270zM580 1032l55 402h270l-123 -402h-202z" />
    <glyph glyph-name="lcaron" unicode="&#x13e;" horiz-adv-x="675" 
d="M119 0v1434h268v-1434h-268zM446 1032l56 402h270l-123 -402h-203z" />
    <glyph glyph-name="Ldot" unicode="&#x13f;" horiz-adv-x="1187" 
d="M1135 0h-990v1360h304v-1090h686v-270zM887 846q72 0 120 -47t48 -119q0 -73 -48 -120.5t-120 -47.5t-120 47.5t-48 120.5q0 72 48 119t120 47z" />
    <glyph glyph-name="ldot" unicode="&#x140;" horiz-adv-x="700" 
d="M119 0v1434h268v-1434h-268zM604 846q72 0 120 -47t48 -119q0 -73 -48 -120.5t-120 -47.5t-120 47.5t-48 120.5q0 72 48 119t120 47z" />
    <glyph glyph-name="Lslash" unicode="&#x141;" horiz-adv-x="1220" 
d="M1169 0h-989v383l-141 -82v274l141 82v703h303v-531l467 269v-275l-467 -268v-285h686v-270z" />
    <glyph glyph-name="lslash" unicode="&#x142;" horiz-adv-x="567" 
d="M406 614v-614h-269v451l-135 -82v249l135 82v734h269v-570l159 99v-250z" />
    <glyph glyph-name="Nacute" unicode="&#x143;" horiz-adv-x="1517" 
d="M1008 0l-566 1010h-4v-1010h-293v1360h416l514 -914h4v914h293v-1360h-364zM621 1483l227 348h282l-264 -348h-245z" />
    <glyph glyph-name="nacute" unicode="&#x144;" horiz-adv-x="1132" 
d="M657 983q177 0 276 -108.5t99 -303.5v-571h-268v539q0 99 -46.5 152.5t-131.5 53.5q-94 0 -146.5 -60.5t-52.5 -172.5v-512h-268v963h223l10 -138h4q43 76 120.5 117t180.5 41zM430 1102l227 348h283l-264 -348h-246z" />
    <glyph glyph-name="uni0145" unicode="&#x145;" horiz-adv-x="1517" 
d="M1008 0l-566 1010h-4v-1010h-293v1360h416l514 -914h4v914h293v-1360h-364zM426 -430l199 307h270l-236 -307h-233z" />
    <glyph glyph-name="uni0146" unicode="&#x146;" horiz-adv-x="1132" 
d="M657 983q177 0 276 -108.5t99 -303.5v-571h-268v539q0 99 -46.5 152.5t-131.5 53.5q-94 0 -146.5 -60.5t-52.5 -172.5v-512h-268v963h223l10 -138h4q43 76 120.5 117t180.5 41zM244 -430l198 307h271l-236 -307h-233z" />
    <glyph glyph-name="Ncaron" unicode="&#x147;" horiz-adv-x="1517" 
d="M1008 0l-566 1010h-4v-1010h-293v1360h416l514 -914h4v914h293v-1360h-364zM881 1483h-248l-252 348h246l131 -164l129 164h246z" />
    <glyph glyph-name="ncaron" unicode="&#x148;" horiz-adv-x="1132" 
d="M657 983q177 0 276 -108.5t99 -303.5v-571h-268v539q0 99 -46.5 152.5t-131.5 53.5q-94 0 -146.5 -60.5t-52.5 -172.5v-512h-268v963h223l10 -138h4q43 76 120.5 117t180.5 41zM690 1102h-248l-252 348h246l131 -164l129 164h246z" />
    <glyph glyph-name="napostrophe" unicode="&#x149;" horiz-adv-x="1132" 
d="M25 1434h247q0 -243 -75 -359h-211q43 116 43 264q0 60 -4 95zM657 983q177 0 276 -108.5t99 -303.5v-571h-268v539q0 99 -46.5 152.5t-131.5 53.5q-94 0 -146.5 -60.5t-52.5 -172.5v-512h-268v963h223l10 -138h4q43 76 120.5 117t180.5 41z" />
    <glyph glyph-name="Eng" unicode="&#x14a;" horiz-adv-x="1517" 
d="M1372 1360v-1450q0 -155 -83 -237.5t-226 -82.5q-86 0 -150 21v258h11q36 -25 73 -25q80 0 80 88v103l-635 1003h-4v-1038h-293v1360h420l508 -805h4v805h295z" />
    <glyph glyph-name="eng" unicode="&#x14b;" horiz-adv-x="1132" 
d="M657 983q177 0 276 -108.5t99 -303.5v-661q0 -158 -77 -239t-218 -81q-73 0 -137 21v242h10q36 -25 74 -25q42 0 61 25t19 79v607q0 99 -46.5 152.5t-131.5 53.5q-94 0 -146.5 -60.5t-52.5 -172.5v-512h-268v963h223l10 -138h4q43 76 120.5 117t180.5 41z" />
    <glyph glyph-name="Omacron" unicode="&#x14c;" horiz-adv-x="1556" 
d="M778 1380q207 0 370.5 -89t254 -248.5t90.5 -362.5t-90.5 -362.5t-254 -248.5t-370.5 -89t-370.5 89t-254 248.5t-90.5 362.5t90.5 362.5t254 248.5t370.5 89zM778 1110q-181 0 -294 -119.5t-113 -310.5t113 -310.5t294 -119.5t294.5 119.5t113.5 310.5t-113.5 310.5
t-294.5 119.5zM442 1536v211h672v-211h-672z" />
    <glyph glyph-name="omacron" unicode="&#x14d;" horiz-adv-x="1157" 
d="M580 983q226 0 370 -140.5t144 -361.5q0 -220 -144 -360.5t-370 -140.5q-227 0 -372 140.5t-145 360.5q0 221 145 361.5t372 140.5zM580 745q-109 0 -177.5 -73.5t-68.5 -190.5t68.5 -190.5t177.5 -73.5q107 0 175 73.5t68 190.5t-68 190.5t-175 73.5zM244 1155v211h671
v-211h-671z" />
    <glyph glyph-name="Obreve" unicode="&#x14e;" horiz-adv-x="1556" 
d="M778 1380q207 0 370.5 -89t254 -248.5t90.5 -362.5t-90.5 -362.5t-254 -248.5t-370.5 -89t-370.5 89t-254 248.5t-90.5 362.5t90.5 362.5t254 248.5t370.5 89zM778 1110q-181 0 -294 -119.5t-113 -310.5t113 -310.5t294 -119.5t294.5 119.5t113.5 310.5t-113.5 310.5
t-294.5 119.5zM942 1821h191q-9 -162 -100.5 -248t-254.5 -86t-254 85.5t-100 248.5h190q10 -66 53 -98.5t111 -32.5t111 32.5t53 98.5z" />
    <glyph glyph-name="obreve" unicode="&#x14f;" horiz-adv-x="1157" 
d="M580 983q226 0 370 -140.5t144 -361.5q0 -220 -144 -360.5t-370 -140.5q-227 0 -372 140.5t-145 360.5q0 221 145 361.5t372 140.5zM580 745q-109 0 -177.5 -73.5t-68.5 -190.5t68.5 -190.5t177.5 -73.5q107 0 175 73.5t68 190.5t-68 190.5t-175 73.5zM743 1440h191
q-9 -163 -100 -248.5t-254 -85.5t-254.5 86t-100.5 248h191q10 -66 53 -98.5t111 -32.5t110.5 32.5t52.5 98.5z" />
    <glyph glyph-name="Ohungarumlaut" unicode="&#x150;" horiz-adv-x="1556" 
d="M778 1380q207 0 370.5 -89t254 -248.5t90.5 -362.5t-90.5 -362.5t-254 -248.5t-370.5 -89t-370.5 89t-254 248.5t-90.5 362.5t90.5 362.5t254 248.5t370.5 89zM778 1110q-181 0 -294 -119.5t-113 -310.5t113 -310.5t294 -119.5t294.5 119.5t113.5 310.5t-113.5 310.5
t-294.5 119.5zM440 1483l228 348h270l-264 -348h-234zM838 1483l229 348h268l-264 -348h-233z" />
    <glyph glyph-name="ohungarumlaut" unicode="&#x151;" horiz-adv-x="1157" 
d="M580 983q226 0 370 -140.5t144 -361.5q0 -220 -144 -360.5t-370 -140.5q-227 0 -372 140.5t-145 360.5q0 221 145 361.5t372 140.5zM580 745q-109 0 -177.5 -73.5t-68.5 -190.5t68.5 -190.5t177.5 -73.5q107 0 175 73.5t68 190.5t-68 190.5t-175 73.5zM242 1102l227 348
h270l-264 -348h-233zM639 1102l229 348h269l-265 -348h-233z" />
    <glyph glyph-name="OE" unicode="&#x152;" horiz-adv-x="2146" 
d="M1901 809v-254h-566v-285h713v-270h-1262q-345 0 -534 178t-189 502t189 502t534 178h1262v-270h-713v-281h566zM1030 1090h-225q-213 0 -323.5 -105t-110.5 -305t110.5 -305t323.5 -105h225v820z" />
    <glyph glyph-name="oe" unicode="&#x153;" horiz-adv-x="1873" 
d="M1810 522v-108h-716q22 -97 104.5 -150t208.5 -53q216 0 336 117h10v-258q-128 -90 -342 -90q-318 0 -450 204h-5q-60 -99 -163 -151.5t-238 -52.5q-217 0 -354.5 140t-137.5 361q0 222 137.5 362t354.5 140q134 0 237.5 -53t163.5 -150h5q59 98 161 150.5t236 52.5
q216 0 334 -120.5t118 -340.5zM580 217q107 0 175 73.5t68 190.5t-68 190.5t-175 73.5q-109 0 -177.5 -73.5t-68.5 -190.5t68.5 -190.5t177.5 -73.5zM1333 752q-88 0 -153.5 -47t-85.5 -130h475q-13 86 -76 131.5t-160 45.5z" />
    <glyph glyph-name="Racute" unicode="&#x154;" horiz-adv-x="1370" 
d="M449 473v-473h-304v1360h611q255 0 384.5 -112.5t129.5 -332.5q0 -328 -285 -411l326 -504h-357l-276 473h-229zM449 743h294q112 0 166 42t54 130q0 89 -54 132t-166 43h-294v-347zM530 1483l228 348h282l-264 -348h-246z" />
    <glyph glyph-name="racute" unicode="&#x155;" horiz-adv-x="808" 
d="M645 983q94 0 141 -37v-262h-10q-64 45 -151 45q-123 0 -180.5 -76.5t-57.5 -238.5v-414h-268v963h223l12 -150h4q80 170 287 170zM283 1102l227 348h283l-265 -348h-245z" />
    <glyph glyph-name="uni0156" unicode="&#x156;" horiz-adv-x="1370" 
d="M449 473v-473h-304v1360h611q255 0 384.5 -112.5t129.5 -332.5q0 -328 -285 -411l326 -504h-357l-276 473h-229zM449 743h294q112 0 166 42t54 130q0 89 -54 132t-166 43h-294v-347zM365 -430l198 307h271l-236 -307h-233z" />
    <glyph glyph-name="uni0157" unicode="&#x157;" horiz-adv-x="808" 
d="M645 983q94 0 141 -37v-262h-10q-64 45 -151 45q-123 0 -180.5 -76.5t-57.5 -238.5v-414h-268v963h223l12 -150h4q80 170 287 170zM-78 -430l199 307h270l-235 -307h-234z" />
    <glyph glyph-name="Rcaron" unicode="&#x158;" horiz-adv-x="1370" 
d="M449 473v-473h-304v1360h611q255 0 384.5 -112.5t129.5 -332.5q0 -328 -285 -411l326 -504h-357l-276 473h-229zM449 743h294q112 0 166 42t54 130q0 89 -54 132t-166 43h-294v-347zM791 1483h-248l-252 348h246l131 -164l129 164h245z" />
    <glyph glyph-name="rcaron" unicode="&#x159;" horiz-adv-x="808" 
d="M645 983q94 0 141 -37v-262h-10q-64 45 -151 45q-123 0 -180.5 -76.5t-57.5 -238.5v-414h-268v963h223l12 -150h4q80 170 287 170zM543 1102h-248l-252 348h246l131 -164l129 164h246z" />
    <glyph glyph-name="Sacute" unicode="&#x15a;" horiz-adv-x="1208" 
d="M635 1380q127 0 245 -28t181 -72v-313h-14q-67 69 -177 107t-239 38q-113 0 -178.5 -40t-65.5 -109q0 -59 56 -89t206 -47q267 -29 380.5 -127t113.5 -294q0 -204 -142 -315t-403 -111q-341 0 -506 118v314h14q95 -79 219.5 -121.5t262.5 -42.5q254 0 254 149
q0 62 -58.5 93.5t-212.5 48.5q-262 29 -373.5 123t-111.5 282q0 204 145.5 320t403.5 116zM469 1483l227 348h283l-264 -348h-246z" />
    <glyph glyph-name="sacute" unicode="&#x15b;" horiz-adv-x="897" 
d="M477 983q184 0 303 -61v-256h-10q-96 96 -287 96q-155 0 -155 -90q0 -33 33 -48.5t126 -21.5q191 -12 274 -84t83 -225q0 -148 -104.5 -230.5t-290.5 -82.5q-241 0 -365 86v258h12q114 -123 340 -123q156 0 156 92q0 39 -37.5 57t-138.5 27q-185 17 -262.5 81.5
t-77.5 205.5q0 146 109 232.5t292 86.5zM311 1102l228 348h282l-264 -348h-246z" />
    <glyph glyph-name="Scircumflex" unicode="&#x15c;" horiz-adv-x="1208" 
d="M635 1380q127 0 245 -28t181 -72v-313h-14q-67 69 -177 107t-239 38q-113 0 -178.5 -40t-65.5 -109q0 -59 56 -89t206 -47q267 -29 380.5 -127t113.5 -294q0 -204 -142 -315t-403 -111q-341 0 -506 118v314h14q95 -79 219.5 -121.5t262.5 -42.5q254 0 254 149
q0 62 -58.5 93.5t-212.5 48.5q-262 29 -373.5 123t-111.5 282q0 204 145.5 320t403.5 116zM606 1647l-131 -164h-246l252 348h248l252 -348h-246z" />
    <glyph glyph-name="scircumflex" unicode="&#x15d;" horiz-adv-x="897" 
d="M477 983q184 0 303 -61v-256h-10q-96 96 -287 96q-155 0 -155 -90q0 -33 33 -48.5t126 -21.5q191 -12 274 -84t83 -225q0 -148 -104.5 -230.5t-290.5 -82.5q-241 0 -365 86v258h12q114 -123 340 -123q156 0 156 92q0 39 -37.5 57t-138.5 27q-185 17 -262.5 81.5
t-77.5 205.5q0 146 109 232.5t292 86.5zM449 1266l-132 -164h-245l252 348h247l252 -348h-245z" />
    <glyph glyph-name="Scedilla" unicode="&#x15e;" horiz-adv-x="1208" 
d="M92 98v314h14q95 -79 219.5 -121.5t262.5 -42.5q254 0 254 149q0 62 -58.5 93.5t-212.5 48.5q-262 29 -373.5 123t-111.5 282q0 204 145.5 320t403.5 116q127 0 245 -28t181 -72v-313h-14q-67 69 -177 107t-239 38q-113 0 -178.5 -40t-65.5 -109q0 -59 56 -89t206 -47
q267 -29 380.5 -127t113.5 -294q0 -187 -119.5 -296t-341.5 -126l-45 -80v-4q203 0 203 -152q0 -158 -252 -158q-112 0 -185 29v137h11q70 -39 164 -39q32 0 50.5 13.5t18.5 33.5q0 23 -20.5 36.5t-55.5 13.5q-42 0 -96 -13v31l84 148q-313 6 -467 118z" />
    <glyph glyph-name="scedilla" unicode="&#x15f;" horiz-adv-x="897" 
d="M84 66v258h12q114 -123 340 -123q156 0 156 92q0 39 -37.5 57t-138.5 27q-185 17 -262.5 81.5t-77.5 205.5q0 146 109 232.5t292 86.5q184 0 303 -61v-256h-10q-96 96 -287 96q-155 0 -155 -90q0 -33 33 -48.5t126 -21.5q191 -12 274 -84t83 -225q0 -130 -82 -210
t-232 -99l-47 -80v-4q203 0 203 -152q0 -158 -252 -158q-112 0 -184 29v137h10q70 -39 164 -39q32 0 51 13.5t19 33.5q0 23 -20.5 36.5t-55.5 13.5q-42 0 -96 -13v31l84 148q-210 9 -322 86z" />
    <glyph glyph-name="Scaron" unicode="&#x160;" horiz-adv-x="1208" 
d="M635 1380q127 0 245 -28t181 -72v-313h-14q-67 69 -177 107t-239 38q-113 0 -178.5 -40t-65.5 -109q0 -59 56 -89t206 -47q267 -29 380.5 -127t113.5 -294q0 -204 -142 -315t-403 -111q-341 0 -506 118v314h14q95 -79 219.5 -121.5t262.5 -42.5q254 0 254 149
q0 62 -58.5 93.5t-212.5 48.5q-262 29 -373.5 123t-111.5 282q0 204 145.5 320t403.5 116zM729 1483h-248l-252 348h246l131 -164l129 164h246z" />
    <glyph glyph-name="scaron" unicode="&#x161;" horiz-adv-x="897" 
d="M477 983q184 0 303 -61v-256h-10q-96 96 -287 96q-155 0 -155 -90q0 -33 33 -48.5t126 -21.5q191 -12 274 -84t83 -225q0 -148 -104.5 -230.5t-290.5 -82.5q-241 0 -365 86v258h12q114 -123 340 -123q156 0 156 92q0 39 -37.5 57t-138.5 27q-185 17 -262.5 81.5
t-77.5 205.5q0 146 109 232.5t292 86.5zM571 1102h-247l-252 348h245l132 -164l129 164h245z" />
    <glyph glyph-name="uni0162" unicode="&#x162;" horiz-adv-x="1218" 
d="M627 -96v-4q202 0 202 -152q0 -158 -251 -158q-112 0 -185 29v137h10q70 -39 164 -39q32 0 51 13.5t19 33.5q0 23 -20.5 36.5t-55.5 13.5q-42 0 -96 -13v31l96 168h-102v1090h-406v270h1112v-270h-403v-1090h-80z" />
    <glyph glyph-name="uni0163" unicode="&#x163;" horiz-adv-x="800" 
d="M440 -96v-4q203 0 203 -152q0 -158 -252 -158q-111 0 -184 29v137h10q70 -39 164 -39q32 0 51 13.5t19 33.5q0 23 -20.5 36.5t-55.5 13.5q-42 0 -96 -13v31l102 174q-195 78 -195 344v385h-159v228h168l34 270h226v-270h276v-228h-276v-375q0 -69 35 -106t98 -37
q83 0 135 55h10v-260q-65 -32 -188 -32q-42 0 -60 2z" />
    <glyph glyph-name="Tcaron" unicode="&#x164;" horiz-adv-x="1218" 
d="M762 1090v-1090h-303v1090h-406v270h1112v-270h-403zM731 1483h-248l-252 348h246l131 -164l129 164h246z" />
    <glyph glyph-name="tcaron" unicode="&#x165;" horiz-adv-x="800" 
d="M733 272v-260q-65 -32 -188 -32q-175 0 -267 94t-92 276v385h-159v228h168l34 270h226v-270h276v-228h-276v-375q0 -69 35 -106t98 -37q83 0 135 55h10zM537 1032l55 402h270l-123 -402h-202z" />
    <glyph glyph-name="Tbar" unicode="&#x166;" horiz-adv-x="1218" 
d="M762 795h221v-207h-221v-588h-303v588h-226v207h226v295h-406v270h1112v-270h-403v-295z" />
    <glyph glyph-name="tbar" unicode="&#x167;" horiz-adv-x="821" 
d="M737 272v-260q-65 -32 -188 -32q-175 0 -267 94t-92 276v76h-139v182h139v127h-159v228h168l34 270h226v-270h276v-228h-276v-127h233v-182h-233v-66q0 -69 35 -106t98 -37q83 0 135 55h10z" />
    <glyph glyph-name="Utilde" unicode="&#x168;" horiz-adv-x="1413" 
d="M1298 1360v-780q0 -600 -596 -600q-587 0 -587 600v780h303v-760q0 -173 74 -261.5t219 -88.5q146 0 220.5 88.5t74.5 261.5v760h292zM1042 1812v-206q-32 -54 -82 -84.5t-108 -30.5q-79 0 -166 49q-77 43 -139 43q-106 0 -166 -113h-10v207q31 54 81.5 84.5t108.5 30.5
q79 0 166 -49q77 -43 139 -43q104 0 166 112h10z" />
    <glyph glyph-name="utilde" unicode="&#x169;" horiz-adv-x="1130" 
d="M1012 0h-224l-10 137h-4q-43 -76 -119.5 -116.5t-179.5 -40.5q-177 0 -276 109t-99 304v570h269v-539q0 -99 46.5 -153t131.5 -54q93 0 144.5 61t51.5 173v512h269v-963zM891 1432v-207q-32 -54 -82.5 -84.5t-108.5 -30.5q-78 0 -165 49q-77 43 -140 43q-107 0 -166 -112
h-10v206q31 54 81.5 84.5t109.5 30.5q78 0 165 -49q77 -43 140 -43q103 0 166 113h10z" />
    <glyph glyph-name="Umacron" unicode="&#x16a;" horiz-adv-x="1413" 
d="M1298 1360v-780q0 -600 -596 -600q-587 0 -587 600v780h303v-760q0 -173 74 -261.5t219 -88.5q146 0 220.5 88.5t74.5 261.5v760h292zM371 1536v211h671v-211h-671z" />
    <glyph glyph-name="umacron" unicode="&#x16b;" horiz-adv-x="1130" 
d="M1012 0h-224l-10 137h-4q-43 -76 -119.5 -116.5t-179.5 -40.5q-177 0 -276 109t-99 304v570h269v-539q0 -99 46.5 -153t131.5 -54q93 0 144.5 61t51.5 173v512h269v-963zM219 1155v211h672v-211h-672z" />
    <glyph glyph-name="Ubreve" unicode="&#x16c;" horiz-adv-x="1413" 
d="M1298 1360v-780q0 -600 -596 -600q-587 0 -587 600v780h303v-760q0 -173 74 -261.5t219 -88.5q146 0 220.5 88.5t74.5 261.5v760h292zM870 1821h191q-9 -163 -100 -248.5t-254 -85.5t-254.5 86t-100.5 248h191q10 -66 53 -98.5t111 -32.5t110.5 32.5t52.5 98.5z" />
    <glyph glyph-name="ubreve" unicode="&#x16d;" horiz-adv-x="1130" 
d="M1012 0h-224l-10 137h-4q-43 -76 -119.5 -116.5t-179.5 -40.5q-177 0 -276 109t-99 304v570h269v-539q0 -99 46.5 -153t131.5 -54q93 0 144.5 61t51.5 173v512h269v-963zM719 1440h190q-9 -163 -100 -248.5t-254 -85.5t-254 85.5t-100 248.5h190q10 -66 53 -98.5
t111 -32.5t111 32.5t53 98.5z" />
    <glyph glyph-name="Uring" unicode="&#x16e;" horiz-adv-x="1413" 
d="M1298 1360v-780q0 -600 -596 -600q-587 0 -587 600v780h303v-760q0 -173 74 -261.5t219 -88.5q146 0 220.5 88.5t74.5 261.5v760h292zM707 1880q98 0 160.5 -62.5t62.5 -160.5t-62.5 -160.5t-160.5 -62.5t-161 62.5t-63 160.5t63 160.5t161 62.5zM707 1741
q-37 0 -60.5 -23t-23.5 -61t23.5 -61t60.5 -23t60.5 23t23.5 61t-23.5 61t-60.5 23z" />
    <glyph glyph-name="uring" unicode="&#x16f;" horiz-adv-x="1130" 
d="M1012 0h-224l-10 137h-4q-43 -76 -119.5 -116.5t-179.5 -40.5q-177 0 -276 109t-99 304v570h269v-539q0 -99 46.5 -153t131.5 -54q93 0 144.5 61t51.5 173v512h269v-963zM555 1499q98 0 160.5 -62.5t62.5 -160.5t-62.5 -160.5t-160.5 -62.5t-160.5 62.5t-62.5 160.5
t62.5 160.5t160.5 62.5zM555 1360q-37 0 -60.5 -23t-23.5 -61t23.5 -61t60.5 -23t60.5 23t23.5 61t-23.5 61t-60.5 23z" />
    <glyph glyph-name="Uhungarumlaut" unicode="&#x170;" horiz-adv-x="1413" 
d="M1298 1360v-780q0 -600 -596 -600q-587 0 -587 600v780h303v-760q0 -173 74 -261.5t219 -88.5q146 0 220.5 88.5t74.5 261.5v760h292zM369 1483l227 348h270l-264 -348h-233zM766 1483l229 348h269l-265 -348h-233z" />
    <glyph glyph-name="uhungarumlaut" unicode="&#x171;" horiz-adv-x="1130" 
d="M1012 0h-224l-10 137h-4q-43 -76 -119.5 -116.5t-179.5 -40.5q-177 0 -276 109t-99 304v570h269v-539q0 -99 46.5 -153t131.5 -54q93 0 144.5 61t51.5 173v512h269v-963zM217 1102l227 348h271l-264 -348h-234zM614 1102l230 348h268l-264 -348h-234z" />
    <glyph glyph-name="Uogonek" unicode="&#x172;" horiz-adv-x="1413" 
d="M1298 1360v-780q0 -393 -260 -533q-168 -94 -168 -209q0 -32 22.5 -53t55.5 -21q68 0 133 56h11v-195q-72 -35 -189 -35q-103 0 -165 50.5t-62 136.5q0 120 92 200v5q-20 -2 -66 -2q-587 0 -587 600v780h303v-760q0 -173 74 -261.5t219 -88.5q146 0 220.5 88.5
t74.5 261.5v760h292z" />
    <glyph glyph-name="uogonek" unicode="&#x173;" horiz-adv-x="1130" 
d="M1012 0h-76q-66 -28 -104.5 -71t-38.5 -93q0 -32 21 -52t54 -20q68 0 133 56h11v-195q-72 -35 -189 -35q-103 0 -165 49.5t-62 135.5q0 164 190 258l-8 104h-4q-43 -76 -119.5 -116.5t-179.5 -40.5q-177 0 -276 109t-99 304v570h269v-539q0 -99 46.5 -153t131.5 -54
q93 0 144.5 61t51.5 173v512h269v-963z" />
    <glyph glyph-name="Wcircumflex" unicode="&#x174;" horiz-adv-x="2068" 
d="M1614 0h-309l-269 866h-4l-270 -866h-307l-420 1360h319l267 -907h4l282 907h260l283 -914h4l268 914h312zM1034 1647l-131 -164h-246l252 348h248l252 -348h-246z" />
    <glyph glyph-name="wcircumflex" unicode="&#x175;" horiz-adv-x="1572" 
d="M1561 963l-322 -963h-256l-192 582h-5l-194 -582h-256l-324 963h285l180 -621h4l207 621h211l205 -621h4l180 621h273zM786 1266l-131 -164h-245l252 348h247l252 -348h-246z" />
    <glyph glyph-name="Ycircumflex" unicode="&#x176;" horiz-adv-x="1431" 
d="M868 0h-303v557l-557 803h367l346 -526l346 526h356l-555 -803v-557zM717 1647l-131 -164h-246l252 348h248l252 -348h-246z" />
    <glyph glyph-name="ycircumflex" unicode="&#x177;" horiz-adv-x="1040" 
d="M477 -389h-276l182 420l-371 932h287l225 -635h4l224 635h276zM520 1266l-131 -164h-246l252 348h248l252 -348h-246z" />
    <glyph glyph-name="Ydieresis" unicode="&#x178;" horiz-adv-x="1431" 
d="M868 0h-303v557l-557 803h367l346 -526l346 526h356l-555 -803v-557zM500 1794q67 0 110 -43.5t43 -108.5q0 -66 -43 -109.5t-110 -43.5t-108.5 43t-41.5 110q0 65 41.5 108.5t108.5 43.5zM934 1794q67 0 108 -43t41 -109q0 -67 -41 -110t-108 -43t-110.5 43.5
t-43.5 109.5q0 65 43.5 108.5t110.5 43.5z" />
    <glyph glyph-name="Zacute" unicode="&#x179;" horiz-adv-x="1325" 
d="M1231 0h-1135v258l723 832h-682v270h1084v-258l-723 -832h733v-270zM535 1483l227 348h282l-264 -348h-245z" />
    <glyph glyph-name="zacute" unicode="&#x17a;" horiz-adv-x="1017" 
d="M84 0v215l485 520h-454v228h809v-215l-486 -521h496v-227h-850zM379 1102l227 348h283l-264 -348h-246z" />
    <glyph glyph-name="Zdotaccent" unicode="&#x17b;" horiz-adv-x="1325" 
d="M1231 0h-1135v258l723 832h-682v270h1084v-258l-723 -832h733v-270zM672 1808q72 0 120 -47t48 -119q0 -73 -48 -120t-120 -47t-120 47t-48 120q0 72 48 119t120 47z" />
    <glyph glyph-name="zdotaccent" unicode="&#x17c;" horiz-adv-x="1017" 
d="M84 0v215l485 520h-454v228h809v-215l-486 -521h496v-227h-850zM516 1427q72 0 120 -46.5t48 -118.5q0 -73 -48 -120.5t-120 -47.5t-120 47.5t-48 120.5q0 72 48 118.5t120 46.5z" />
    <glyph glyph-name="Zcaron" unicode="&#x17d;" horiz-adv-x="1325" 
d="M1231 0h-1135v258l723 832h-682v270h1084v-258l-723 -832h733v-270zM795 1483h-248l-252 348h246l131 -164l129 164h246z" />
    <glyph glyph-name="zcaron" unicode="&#x17e;" horiz-adv-x="1017" 
d="M84 0v215l485 520h-454v228h809v-215l-486 -521h496v-227h-850zM639 1102h-248l-252 348h246l131 -164l129 164h246z" />
    <glyph glyph-name="florin" unicode="&#x192;" horiz-adv-x="1331" 
d="M971 1380q131 0 203 -34l-19 -240h-14q-52 37 -133 37q-75 0 -120.5 -40.5t-56.5 -115.5l-14 -104h279v-230h-312l-59 -428q-25 -179 -124.5 -273.5t-258.5 -94.5q-131 0 -203 34l19 240h14q52 -37 133 -37q65 0 105 40.5t51 115.5l57 403h-242v230h273l18 129
q26 180 128.5 274t275.5 94z" />
    <glyph glyph-name="AEacute" unicode="&#x1fc;" horiz-adv-x="2150" 
d="M1337 809h568v-254h-568v-285h715v-270h-1018v229h-534l-148 -229h-344l903 1360h1141v-270h-715v-281zM1034 1059h-4l-364 -570h368v570zM983 1483l227 348h283l-264 -348h-246z" />
    <glyph glyph-name="aeacute" unicode="&#x1fd;" horiz-adv-x="1878" 
d="M1817 414h-730q22 -96 106.5 -149.5t213.5 -53.5q222 0 342 117h10v-258q-66 -46 -141 -68t-184 -22q-260 0 -373 145h-4l-4 -125h-199l-4 125h-4q-48 -70 -128 -107.5t-183 -37.5q-204 0 -338 141.5t-134 359.5t134 360t338 142q210 0 309 -141h4l6 121h199l4 -121h4
q48 67 130 104t189 37q209 0 323 -120.5t114 -340.5v-108zM580 217q107 0 175 73.5t68 190.5t-68 190.5t-175 73.5q-109 0 -177.5 -73.5t-68.5 -190.5t68.5 -190.5t177.5 -73.5zM1087 575h488q-17 83 -81 130t-159 47t-160.5 -48t-87.5 -129zM815 1102l227 348h283
l-264 -348h-246z" />
    <glyph glyph-name="Oslashacute" unicode="&#x1fe;" horiz-adv-x="1556" 
d="M1493 1360l-172 -205q172 -194 172 -475q0 -203 -90.5 -362.5t-254 -248.5t-370.5 -89q-205 0 -366 88l-58 -68h-291l173 205q-173 195 -173 475q0 203 90.5 362.5t254 248.5t370.5 89q206 0 367 -88l57 68h291zM371 680q0 -137 61 -240l529 631q-83 39 -183 39
q-181 0 -294 -119.5t-113 -310.5zM1186 680q0 135 -62 240l-528 -631q83 -39 182 -39q181 0 294.5 119.5t113.5 310.5zM641 1483l227 348h283l-264 -348h-246z" />
    <glyph glyph-name="oslashacute" unicode="&#x1ff;" horiz-adv-x="1157" 
d="M1094 963l-117 -148q117 -136 117 -334q0 -220 -144 -360.5t-370 -140.5q-124 0 -230 45l-20 -25h-267l119 150q-119 135 -119 331q0 221 145 361.5t372 140.5q121 0 227 -45l20 25h267zM334 481q0 -56 20 -114l293 370q-40 8 -67 8q-109 0 -177.5 -73.5t-68.5 -190.5z
M823 481q0 57 -20 115l-293 -371q40 -8 70 -8q107 0 175 73.5t68 190.5zM457 1102l227 348h283l-265 -348h-245z" />
    <glyph glyph-name="uni0218" unicode="&#x218;" horiz-adv-x="1208" 
d="M635 1380q127 0 245 -28t181 -72v-313h-14q-67 69 -177 107t-239 38q-113 0 -178.5 -40t-65.5 -109q0 -59 56 -89t206 -47q267 -29 380.5 -127t113.5 -294q0 -204 -142 -315t-403 -111q-341 0 -506 118v314h14q95 -79 219.5 -121.5t262.5 -42.5q254 0 254 149
q0 62 -58.5 93.5t-212.5 48.5q-262 29 -373.5 123t-111.5 282q0 204 145.5 320t403.5 116zM287 -430l198 307h271l-236 -307h-233z" />
    <glyph glyph-name="uni0219" unicode="&#x219;" horiz-adv-x="897" 
d="M477 983q184 0 303 -61v-256h-10q-96 96 -287 96q-155 0 -155 -90q0 -33 33 -48.5t126 -21.5q191 -12 274 -84t83 -225q0 -148 -104.5 -230.5t-290.5 -82.5q-241 0 -365 86v258h12q114 -123 340 -123q156 0 156 92q0 39 -37.5 57t-138.5 27q-185 17 -262.5 81.5
t-77.5 205.5q0 146 109 232.5t292 86.5zM133 -430l199 307h270l-235 -307h-234z" />
    <glyph glyph-name="uni021A" unicode="&#x21a;" horiz-adv-x="1218" 
d="M762 1090v-1090h-303v1090h-406v270h1112v-270h-403zM276 -430l199 307h270l-235 -307h-234z" />
    <glyph glyph-name="uni021B" unicode="&#x21b;" horiz-adv-x="800" 
d="M733 272v-260q-65 -32 -188 -32q-175 0 -267 94t-92 276v385h-159v228h168l34 270h226v-270h276v-228h-276v-375q0 -69 35 -106t98 -37q83 0 135 55h10zM90 -430l199 307h270l-235 -307h-234z" />
    <glyph glyph-name="uni0237" unicode="&#x237;" horiz-adv-x="507" 
d="M387 963v-1053q0 -157 -77 -238.5t-218 -81.5q-70 0 -137 21v242h12q31 -25 72 -25q42 0 61 25t19 79v1031h268z" />
    <glyph glyph-name="circumflex" unicode="&#x2c6;" horiz-adv-x="1024" 
d="M514 1266l-131 -164h-246l252 348h248l252 -348h-246z" />
    <glyph glyph-name="caron" unicode="&#x2c7;" horiz-adv-x="1024" 
d="M637 1102h-248l-252 348h246l131 -164l129 164h246z" />
    <glyph glyph-name="breve" unicode="&#x2d8;" horiz-adv-x="1024" 
d="M676 1440h190q-9 -163 -100 -248.5t-254 -85.5t-254 85.5t-100 248.5h190q10 -66 53 -98.5t111 -32.5t111 32.5t53 98.5z" />
    <glyph glyph-name="dotaccent" unicode="&#x2d9;" horiz-adv-x="1024" 
d="M512 1427q72 0 120 -46.5t48 -118.5q0 -73 -48 -120.5t-120 -47.5t-120 47.5t-48 120.5q0 72 48 118.5t120 46.5z" />
    <glyph glyph-name="ring" unicode="&#x2da;" horiz-adv-x="1024" 
d="M512 1499q98 0 160.5 -62.5t62.5 -160.5t-62.5 -160.5t-160.5 -62.5t-160.5 62.5t-62.5 160.5t62.5 160.5t160.5 62.5zM512 1360q-37 0 -60.5 -23t-23.5 -61t23.5 -61t60.5 -23t60.5 23t23.5 61t-23.5 61t-60.5 23z" />
    <glyph glyph-name="ogonek" unicode="&#x2db;" horiz-adv-x="1024" 
d="M655 80l29 -80q-66 -28 -104.5 -71t-38.5 -93q0 -32 21 -52t54 -20q69 0 134 56h10v-195q-72 -35 -189 -35q-103 0 -165 49.5t-62 135.5q0 102 74.5 178t236.5 127z" />
    <glyph glyph-name="tilde" unicode="&#x2dc;" horiz-adv-x="1024" 
d="M848 1432v-207q-32 -54 -82.5 -84.5t-108.5 -30.5q-78 0 -165 49q-77 43 -140 43q-107 0 -166 -112h-10v206q31 54 81.5 84.5t109.5 30.5q78 0 165 -49q77 -43 140 -43q103 0 166 113h10z" />
    <glyph glyph-name="hungarumlaut" unicode="&#x2dd;" horiz-adv-x="1024" 
d="M168 1102l227 348h271l-265 -348h-233zM565 1102l230 348h268l-264 -348h-234z" />
    <glyph glyph-name="uni0394" unicode="&#x394;" horiz-adv-x="1507" 
d="M27 0l579 1360h293l580 -1360h-1452zM745 1014l-294 -744h593l-294 744h-5z" />
    <glyph glyph-name="uni03A9" unicode="&#x3a9;" horiz-adv-x="1581" 
d="M1481 270v-270h-559v258q135 78 205.5 191.5t70.5 255.5q0 180 -113 292.5t-294 112.5t-294.5 -112.5t-113.5 -292.5q0 -142 70.5 -255.5t205.5 -191.5v-258h-559v270h246v4q-129 68 -199.5 191.5t-70.5 286.5q0 184 90 327t252.5 222t372.5 79t372.5 -79t252 -222
t89.5 -327q0 -163 -70.5 -286.5t-199.5 -191.5v-4h246z" />
    <glyph glyph-name="uni03BC" unicode="&#x3bc;" horiz-adv-x="1163" 
d="M1038 0h-223l-10 137h-4q-88 -157 -301 -157q-58 0 -107 12v-381h-268v1352h268v-539q0 -99 46.5 -153t131.5 -54q95 0 147 61t52 173v512h268v-963z" />
    <glyph glyph-name="pi" unicode="&#x3c0;" horiz-adv-x="1236" 
d="M1053 735v-735h-269v735h-333v-735h-269v735h-149v228h1171v-228h-151z" />
    <glyph glyph-name="uni1E02" unicode="&#x1e02;" horiz-adv-x="1327" 
d="M1040 696v-4q226 -74 226 -313q0 -187 -123 -283t-361 -96h-637v1360h586q239 0 362.5 -95t123.5 -280q0 -209 -177 -289zM449 811h258q105 0 154.5 35t49.5 106q0 138 -184 138h-278v-279zM449 270h323q186 0 186 142q0 145 -204 145h-305v-287zM645 1808q72 0 120 -47
t48 -119q0 -73 -48 -120t-120 -47t-120 47t-48 120q0 72 48 119t120 47z" />
    <glyph glyph-name="uni1E03" unicode="&#x1e03;" horiz-adv-x="1204" 
d="M670 983q204 0 337.5 -142t133.5 -360t-133.5 -359.5t-337.5 -141.5q-105 0 -186.5 38.5t-127.5 108.5h-4l-10 -127h-223v1434h268v-555h4q101 104 279 104zM625 217q110 0 177.5 73.5t67.5 190.5t-67.5 190.5t-177.5 73.5q-109 0 -176.5 -73.5t-67.5 -190.5t67.5 -190.5
t176.5 -73.5zM254 1872q72 0 120 -47t48 -119q0 -73 -48 -120.5t-120 -47.5t-120 47.5t-48 120.5q0 72 48 119t120 47z" />
    <glyph glyph-name="uni1E0A" unicode="&#x1e0a;" horiz-adv-x="1478" 
d="M145 1360h547q347 0 536 -178t189 -502t-189 -502t-536 -178h-547v1360zM449 270h225q213 0 324.5 105t111.5 305t-111.5 305t-324.5 105h-225v-820zM705 1808q72 0 119.5 -47t47.5 -119q0 -73 -47.5 -120t-119.5 -47t-120 47t-48 120q0 72 48 119t120 47z" />
    <glyph glyph-name="uni1E0B" unicode="&#x1e0b;" horiz-adv-x="1202" 
d="M1083 0h-223l-8 129h-4q-100 -149 -313 -149q-204 0 -338 141.5t-134 359.5t134 360t338 142q174 0 276 -102h4v553h268v-1434zM580 217q107 0 175 73.5t68 190.5t-68 190.5t-175 73.5q-109 0 -177.5 -73.5t-68.5 -190.5t68.5 -190.5t177.5 -73.5zM950 1872q72 0 120 -47
t48 -119q0 -73 -48 -120.5t-120 -47.5t-120 47.5t-48 120.5q0 72 48 119t120 47z" />
    <glyph glyph-name="uni1E1E" unicode="&#x1e1e;" horiz-adv-x="1224" 
d="M449 791h567v-271h-567v-520h-304v1360h1018v-270h-714v-299zM645 1808q72 0 120 -47t48 -119q0 -73 -48 -120t-120 -47t-120 47t-48 120q0 72 48 119t120 47z" />
    <glyph glyph-name="uni1E1F" unicode="&#x1e1f;" horiz-adv-x="757" 
d="M553 1454q123 0 201 -33v-245h-11q-61 41 -149 41q-66 0 -102.5 -39t-36.5 -109v-106h276v-228h-276v-735h-269v735h-159v228h159v114q0 182 94.5 279.5t272.5 97.5zM426 1872q72 0 120 -47t48 -119q0 -73 -48 -120.5t-120 -47.5t-120 47.5t-48 120.5q0 72 48 119t120 47
z" />
    <glyph glyph-name="uni1E40" unicode="&#x1e40;" horiz-adv-x="1943" 
d="M1798 0h-303v1024h-4l-393 -1024h-275l-381 995h-4v-995h-293v1360h455l365 -948h4l364 948h465v-1360zM971 1808q72 0 120 -47t48 -119q0 -73 -48 -120t-120 -47t-120 47t-48 120q0 72 48 119t120 47z" />
    <glyph glyph-name="uni1E41" unicode="&#x1e41;" horiz-adv-x="1714" 
d="M1255 983q172 0 265.5 -107t93.5 -303v-573h-268v543q0 99 -42 150.5t-120 51.5q-180 0 -180 -249v-496h-269v543q0 99 -42 150.5t-122 51.5q-180 0 -180 -229v-516h-268v963h223l10 -129h4q85 149 283 149q97 0 173 -41t120 -117h4q88 158 315 158zM868 1427
q72 0 120 -46.5t48 -118.5q0 -73 -48 -120.5t-120 -47.5t-120 47.5t-48 120.5q0 72 48 118.5t120 46.5z" />
    <glyph glyph-name="uni1E56" unicode="&#x1e56;" horiz-adv-x="1314" 
d="M145 1360h600q255 0 385 -114.5t130 -338.5q0 -223 -130 -336.5t-385 -113.5h-296v-457h-304v1360zM449 727h282q114 0 167.5 44t53.5 136q0 94 -53.5 138.5t-167.5 44.5h-282v-363zM666 1808q72 0 120 -47t48 -119q0 -73 -48 -120t-120 -47t-120 47t-48 120q0 72 48 119
t120 47z" />
    <glyph glyph-name="uni1E57" unicode="&#x1e57;" horiz-adv-x="1204" 
d="M670 983q204 0 337.5 -142t133.5 -360t-133.5 -359.5t-337.5 -141.5q-178 0 -279 104h-4v-473h-268v1352h223l10 -127h4q46 71 126.5 109t187.5 38zM625 217q110 0 177.5 73.5t67.5 190.5t-67.5 190.5t-177.5 73.5q-109 0 -176.5 -73.5t-67.5 -190.5t67.5 -190.5
t176.5 -73.5zM631 1427q72 0 120 -46.5t48 -118.5q0 -73 -48 -120.5t-120 -47.5t-120 47.5t-48 120.5q0 72 48 118.5t120 46.5z" />
    <glyph glyph-name="uni1E60" unicode="&#x1e60;" horiz-adv-x="1208" 
d="M635 1380q127 0 245 -28t181 -72v-313h-14q-67 69 -177 107t-239 38q-113 0 -178.5 -40t-65.5 -109q0 -59 56 -89t206 -47q267 -29 380.5 -127t113.5 -294q0 -204 -142 -315t-403 -111q-341 0 -506 118v314h14q95 -79 219.5 -121.5t262.5 -42.5q254 0 254 149
q0 62 -58.5 93.5t-212.5 48.5q-262 29 -373.5 123t-111.5 282q0 204 145.5 320t403.5 116zM606 1808q72 0 120 -47t48 -119q0 -73 -48 -120t-120 -47t-120 47t-48 120q0 72 48 119t120 47z" />
    <glyph glyph-name="uni1E61" unicode="&#x1e61;" horiz-adv-x="897" 
d="M477 983q184 0 303 -61v-256h-10q-96 96 -287 96q-155 0 -155 -90q0 -33 33 -48.5t126 -21.5q191 -12 274 -84t83 -225q0 -148 -104.5 -230.5t-290.5 -82.5q-241 0 -365 86v258h12q114 -123 340 -123q156 0 156 92q0 39 -37.5 57t-138.5 27q-185 17 -262.5 81.5
t-77.5 205.5q0 146 109 232.5t292 86.5zM449 1427q72 0 119.5 -46.5t47.5 -118.5q0 -73 -47.5 -120.5t-119.5 -47.5t-120 47.5t-48 120.5q0 72 48 118.5t120 46.5z" />
    <glyph glyph-name="uni1E6A" unicode="&#x1e6a;" horiz-adv-x="1218" 
d="M762 1090v-1090h-303v1090h-406v270h1112v-270h-403zM608 1808q72 0 120 -47t48 -119q0 -73 -48 -120t-120 -47t-120 47t-48 120q0 72 48 119t120 47z" />
    <glyph glyph-name="uni1E6B" unicode="&#x1e6b;" horiz-adv-x="800" 
d="M733 272v-260q-65 -32 -188 -32q-175 0 -267 94t-92 276v385h-159v228h168l34 270h226v-270h276v-228h-276v-375q0 -69 35 -106t98 -37q83 0 135 55h10zM338 1686q72 0 120 -47t48 -119q0 -73 -48 -120.5t-120 -47.5t-120 47.5t-48 120.5q0 72 48 119t120 47z" />
    <glyph glyph-name="Wgrave" unicode="&#x1e80;" horiz-adv-x="2068" 
d="M1614 0h-309l-269 866h-4l-270 -866h-307l-420 1360h319l267 -907h4l282 907h260l283 -914h4l268 914h312zM924 1483l-265 348h283l227 -348h-245z" />
    <glyph glyph-name="wgrave" unicode="&#x1e81;" horiz-adv-x="1572" 
d="M1561 963l-322 -963h-256l-192 582h-5l-194 -582h-256l-324 963h285l180 -621h4l207 621h211l205 -621h4l180 621h273zM676 1102l-264 348h282l228 -348h-246z" />
    <glyph glyph-name="Wacute" unicode="&#x1e82;" horiz-adv-x="2068" 
d="M1614 0h-309l-269 866h-4l-270 -866h-307l-420 1360h319l267 -907h4l282 907h260l283 -914h4l268 914h312zM897 1483l227 348h283l-264 -348h-246z" />
    <glyph glyph-name="wacute" unicode="&#x1e83;" horiz-adv-x="1572" 
d="M1561 963l-322 -963h-256l-192 582h-5l-194 -582h-256l-324 963h285l180 -621h4l207 621h211l205 -621h4l180 621h273zM649 1102l228 348h282l-264 -348h-246z" />
    <glyph glyph-name="Wdieresis" unicode="&#x1e84;" horiz-adv-x="2068" 
d="M1614 0h-309l-269 866h-4l-270 -866h-307l-420 1360h319l267 -907h4l282 907h260l283 -914h4l268 914h312zM817 1794q67 0 110.5 -43.5t43.5 -108.5q0 -66 -43.5 -109.5t-110.5 -43.5t-108 43t-41 110q0 66 41 109t108 43zM1251 1794q67 0 108.5 -43.5t41.5 -108.5
q0 -67 -41.5 -110t-108.5 -43t-110 43.5t-43 109.5q0 65 43 108.5t110 43.5z" />
    <glyph glyph-name="wdieresis" unicode="&#x1e85;" horiz-adv-x="1572" 
d="M1561 963l-322 -963h-256l-192 582h-5l-194 -582h-256l-324 963h285l180 -621h4l207 621h211l205 -621h4l180 621h273zM569 1413q67 0 110.5 -43t43.5 -108q0 -66 -43.5 -110t-110.5 -44t-108 43.5t-41 110.5q0 65 41 108t108 43zM1004 1413q67 0 108 -43t41 -108
q0 -67 -41 -110.5t-108 -43.5t-110.5 44t-43.5 110q0 65 43.5 108t110.5 43z" />
    <glyph glyph-name="Ygrave" unicode="&#x1ef2;" horiz-adv-x="1431" 
d="M868 0h-303v557l-557 803h367l346 -526l346 526h356l-555 -803v-557zM606 1483l-264 348h283l227 -348h-246z" />
    <glyph glyph-name="ygrave" unicode="&#x1ef3;" horiz-adv-x="1040" 
d="M477 -389h-276l182 420l-371 932h287l225 -635h4l224 635h276zM410 1102l-265 348h283l227 -348h-245z" />
    <glyph glyph-name="uni2007" unicode="&#x2007;" horiz-adv-x="1331" 
 />
    <glyph glyph-name="figuredash" unicode="&#x2012;" horiz-adv-x="1331" 
d="M102 561v238h1127v-238h-1127z" />
    <glyph glyph-name="endash" unicode="&#x2013;" horiz-adv-x="1024" 
d="M102 442v238h820v-238h-820z" />
    <glyph glyph-name="emdash" unicode="&#x2014;" horiz-adv-x="2048" 
d="M102 442v238h1844v-238h-1844z" />
    <glyph glyph-name="quoteleft" unicode="&#x2018;" horiz-adv-x="563" 
d="M518 1360l-188 -514h-277l248 514h217z" />
    <glyph glyph-name="quoteright" unicode="&#x2019;" horiz-adv-x="563" 
d="M45 846l188 514h277l-248 -514h-217z" />
    <glyph glyph-name="quotesinglbase" unicode="&#x201a;" horiz-adv-x="563" 
d="M-14 -217l188 514h277l-248 -514h-217z" />
    <glyph glyph-name="quotedblleft" unicode="&#x201c;" horiz-adv-x="989" 
d="M518 1360l-188 -514h-277l248 514h217zM944 1360l-188 -514h-277l248 514h217z" />
    <glyph glyph-name="quotedblright" unicode="&#x201d;" horiz-adv-x="989" 
d="M45 846l188 514h277l-248 -514h-217zM471 846l188 514h277l-248 -514h-217z" />
    <glyph glyph-name="quotedblbase" unicode="&#x201e;" horiz-adv-x="989" 
d="M412 -217l188 514h277l-248 -514h-217zM-14 -217l188 514h277l-248 -514h-217z" />
    <glyph glyph-name="dagger" unicode="&#x2020;" horiz-adv-x="997" 
d="M608 934v-754h-217v754h-293v188h293v312h217v-312h293v-188h-293z" />
    <glyph glyph-name="daggerdbl" unicode="&#x2021;" horiz-adv-x="997" 
d="M608 680h293v-188h-293v-312h-217v312h-293v188h293v254h-293v188h293v312h217v-312h293v-188h-293v-254z" />
    <glyph glyph-name="bullet" unicode="&#x2022;" horiz-adv-x="1024" 
d="M512 874q135 0 223 -89t88 -224t-88 -223t-223 -88t-223 88t-88 223t88 224t223 89z" />
    <glyph glyph-name="ellipsis" unicode="&#x2026;" horiz-adv-x="2048" 
d="M1679 317q72 0 120 -49t48 -121t-48 -119.5t-120 -47.5q-73 0 -121.5 47.5t-48.5 119.5t48.5 121t121.5 49zM1024 317q72 0 120 -49t48 -121t-48 -119.5t-120 -47.5q-73 0 -121.5 47.5t-48.5 119.5t48.5 121t121.5 49zM371 317q72 0 120 -49t48 -121t-48 -119.5
t-120 -47.5q-73 0 -121.5 47.5t-48.5 119.5t48.5 121t121.5 49z" />
    <glyph glyph-name="perthousand" unicode="&#x2030;" horiz-adv-x="2271" 
d="M1894 653q145 0 227.5 -92.5t82.5 -245.5q0 -152 -82.5 -243.5t-227.5 -91.5t-227 91.5t-82 243.5q0 153 82 245.5t227 92.5zM1894 492q-57 0 -91 -47t-34 -130q0 -81 34 -127.5t91 -46.5t91 46.5t34 127.5q0 83 -34 130t-91 47zM379 1380q145 0 227 -92.5t82 -245.5
q0 -152 -82 -243.5t-227 -91.5t-227 91.5t-82 243.5q0 153 82 245.5t227 92.5zM238 0l876 1360h209l-877 -1360h-208zM379 1219q-57 0 -91 -47t-34 -130q0 -81 34 -127.5t91 -46.5t91 46.5t34 127.5q0 83 -34 130t-91 47zM1182 653q145 0 227 -92.5t82 -245.5
q0 -152 -82 -243.5t-227 -91.5t-227.5 91.5t-82.5 243.5q0 153 82.5 245.5t227.5 92.5zM1182 492q-57 0 -91 -47t-34 -130q0 -81 34 -127.5t91 -46.5t91 46.5t34 127.5q0 83 -34 130t-91 47z" />
    <glyph glyph-name="guilsinglleft" unicode="&#x2039;" horiz-adv-x="598" 
d="M500 299v-274l-445 448v16l445 451v-274l-199 -185z" />
    <glyph glyph-name="guilsinglright" unicode="&#x203a;" horiz-adv-x="598" 
d="M98 664v274l445 -449v-16l-445 -450v274l199 184z" />
    <glyph glyph-name="fraction" unicode="&#x2044;" horiz-adv-x="323" 
d="M-381 0l881 1360h205l-881 -1360h-205z" />
    <glyph glyph-name="zerosuperior" unicode="&#x2070;" 
d="M420 1647q163 0 251.5 -112t88.5 -321t-88.5 -320.5t-251.5 -111.5t-251.5 111.5t-88.5 320.5t88.5 321t251.5 112zM420 1470q-71 0 -108.5 -65.5t-37.5 -190.5q0 -124 37.5 -190t108.5 -66t108 66t37 190q0 126 -37 191t-108 65z" />
    <glyph glyph-name="foursuperior" unicode="&#x2074;" 
d="M682 940v-145h-193v145h-409v168l403 526h199v-518h102v-176h-102zM489 1397l-217 -281h217v281z" />
    <glyph glyph-name="fivesuperior" unicode="&#x2075;" 
d="M449 1339q139 0 217.5 -72.5t78.5 -201.5q0 -132 -88.5 -207.5t-244.5 -75.5q-180 0 -283 58v196h10q93 -78 262 -78q71 0 110.5 28t39.5 79q0 53 -48.5 81t-140.5 28q-109 0 -198 -29h-10v489h536v-176h-379v-131q61 12 138 12z" />
    <glyph glyph-name="sixsuperior" unicode="&#x2076;" 
d="M479 1346q129 0 204 -73t75 -198q0 -133 -83.5 -213t-223.5 -80q-168 0 -262.5 109t-94.5 301q0 214 100.5 334.5t278.5 120.5q146 0 219 -54v-196h-10q-76 73 -188 73q-170 0 -201 -182h4q71 58 182 58zM444 958q54 0 86.5 30.5t32.5 82.5q0 54 -32.5 84.5t-88.5 30.5
q-47 0 -86.5 -20t-62.5 -56q5 -72 44.5 -112t106.5 -40z" />
    <glyph glyph-name="sevensuperior" unicode="&#x2077;" 
d="M756 1454l-379 -659h-230l398 663h-428v176h639v-180z" />
    <glyph glyph-name="eightsuperior" unicode="&#x2078;" 
d="M635 1229v-4q131 -56 131 -199q0 -115 -92 -179.5t-256 -64.5q-162 0 -253 64.5t-91 179.5q0 138 131 191v4q-107 60 -107 186q0 113 84.5 176.5t235.5 63.5q152 0 237.5 -63.5t85.5 -176.5q0 -125 -106 -178zM418 1470q-62 0 -94.5 -22.5t-32.5 -65.5q0 -84 127 -84
q131 0 131 84q0 88 -131 88zM418 958q74 0 113.5 24t39.5 69q0 88 -153 88q-150 0 -150 -88q0 -44 39 -68.5t111 -24.5z" />
    <glyph glyph-name="ninesuperior" unicode="&#x2079;" 
d="M389 1647q168 0 262 -108.5t94 -301.5q0 -214 -100 -334.5t-278 -120.5q-147 0 -220 54v196h11q77 -74 188 -74q83 0 134.5 47t66.5 136h-4q-71 -58 -183 -58q-129 0 -203.5 73t-74.5 198q0 133 83.5 213t223.5 80zM397 1243q47 0 87 20.5t63 55.5q-4 72 -44 111.5
t-108 39.5q-54 0 -86.5 -30t-32.5 -82q0 -54 32.5 -84.5t88.5 -30.5z" />
    <glyph glyph-name="zeroinferior" unicode="&#x2080;" 
d="M420 463q163 0 251.5 -111.5t88.5 -320.5t-88.5 -320.5t-251.5 -111.5t-251.5 111.5t-88.5 320.5t88.5 320.5t251.5 111.5zM420 287q-71 0 -108.5 -65.5t-37.5 -190.5q0 -124 37.5 -190t108.5 -66t108 66t37 190q0 126 -37 191t-108 65z" />
    <glyph glyph-name="oneinferior" unicode="&#x2081;" 
d="M639 -389h-193v612l-210 -127v193l247 162h156v-840z" />
    <glyph glyph-name="twoinferior" unicode="&#x2082;" 
d="M715 -213v-176h-588v184l207 160q111 87 148.5 132.5t37.5 96.5q0 50 -36 76.5t-103 26.5q-134 0 -234 -103h-10v209q46 32 114 51t138 19q156 0 241 -67.5t85 -192.5q0 -93 -50 -163t-196 -183l-86 -66v-4h332z" />
    <glyph glyph-name="threeinferior" unicode="&#x2083;" 
d="M621 41v-4q116 -60 116 -195q0 -116 -86 -179.5t-243 -63.5q-87 0 -161.5 20t-115.5 55v209h10q41 -51 110.5 -79.5t151.5 -28.5q140 0 140 94q0 86 -148 86h-108v160h94q79 0 115 19.5t36 62.5q0 48 -33.5 69t-101.5 21q-67 0 -131.5 -27.5t-107.5 -73.5h-11v207
q47 32 120.5 51t152.5 19q145 0 225 -63t80 -177q0 -122 -104 -182z" />
    <glyph glyph-name="fourinferior" unicode="&#x2084;" 
d="M682 -244v-145h-193v145h-409v168l403 527h199v-519h102v-176h-102zM489 213l-217 -281h217v281z" />
    <glyph glyph-name="fiveinferior" unicode="&#x2085;" 
d="M449 156q139 0 217.5 -73t78.5 -202q0 -132 -88 -207t-245 -75q-181 0 -283 57v197h10q93 -78 262 -78q71 0 110.5 27.5t39.5 78.5q0 53 -48.5 81t-140.5 28q-109 0 -198 -29h-10v490h536v-177h-379v-131q67 13 138 13z" />
    <glyph glyph-name="sixinferior" unicode="&#x2086;" 
d="M479 162q129 0 204 -73t75 -198q0 -133 -83.5 -212.5t-223.5 -79.5q-168 0 -262.5 108.5t-94.5 300.5q0 214 100.5 334.5t278.5 120.5q148 0 219 -53v-197h-10q-77 74 -188 74q-83 0 -134.5 -47t-66.5 -136h4q71 58 182 58zM444 -225q54 0 86.5 30t32.5 82
q0 54 -32.5 84.5t-88.5 30.5q-47 0 -86.5 -20t-62.5 -56q5 -72 44 -111.5t107 -39.5z" />
    <glyph glyph-name="seveninferior" unicode="&#x2087;" 
d="M756 270l-379 -659h-230l398 663h-428v177h639v-181z" />
    <glyph glyph-name="eightinferior" unicode="&#x2088;" 
d="M635 45v-4q131 -56 131 -199q0 -115 -91.5 -179t-256.5 -64q-162 0 -253 64t-91 179q0 138 131 191v4q-107 60 -107 186q0 113 84.5 176.5t235.5 63.5q152 0 237.5 -63.5t85.5 -176.5q0 -125 -106 -178zM418 287q-62 0 -94.5 -22.5t-32.5 -65.5q0 -84 127 -84
q131 0 131 84q0 88 -131 88zM418 -225q75 0 114 24t39 68q0 88 -153 88q-150 0 -150 -88q0 -44 39 -68t111 -24z" />
    <glyph glyph-name="nineinferior" unicode="&#x2089;" 
d="M389 463q168 0 262 -108.5t94 -301.5q0 -214 -100 -334t-278 -120q-149 0 -220 53v196h11q76 -73 188 -73q170 0 201 182h-4q-69 -57 -183 -57q-129 0 -203.5 72.5t-74.5 197.5q0 133 83.5 213t223.5 80zM397 59q47 0 87 20.5t63 55.5q-5 72 -45 112t-107 40
q-54 0 -86.5 -30.5t-32.5 -82.5q0 -54 32.5 -84.5t88.5 -30.5z" />
    <glyph glyph-name="Euro" unicode="&#x20ac;" horiz-adv-x="1331" 
d="M899 1126q-121 0 -205 -56.5t-125 -164.5h496v-147h-526q-4 -50 -4 -78q0 -51 2 -74h528v-147h-498q80 -226 332 -226q85 0 165.5 31t137.5 88h15v-284q-124 -88 -347 -88q-234 0 -390.5 126t-207.5 353h-157v147h135q-2 25 -2 74q0 53 2 78h-135v147h157
q53 225 209.5 350t388.5 125q223 0 347 -88v-284h-15q-57 57 -137.5 87.5t-165.5 30.5z" />
    <glyph glyph-name="uni20B9" unicode="&#x20b9;" horiz-adv-x="1331" 
d="M963 1198v-4q59 -68 73 -168h170v-160h-168q-40 -300 -393 -334v-4l555 -528h-373l-577 573v140h217q239 0 281 153h-629v160h626q-42 150 -278 150h-348v184h1087v-162h-243z" />
    <glyph glyph-name="uni2113" unicode="&#x2113;" horiz-adv-x="1044" 
d="M692 217q125 0 211 92h10v-280q-88 -49 -241 -49q-160 0 -268.5 71t-147.5 209q-125 -67 -139 -74v269q118 63 121 65v504q0 166 96 261t264 95q155 0 245.5 -90.5t90.5 -245.5q0 -175 -101.5 -326t-328.5 -306q5 -93 53 -144t135 -51zM504 696h4q174 157 174 348
q0 111 -84 111q-94 0 -94 -135v-324z" />
    <glyph glyph-name="uni2117" unicode="&#x2117;" horiz-adv-x="1589" 
d="M795 1380q198 0 358 -91t251 -251t91 -358t-91 -358t-251 -251t-358 -91t-358.5 91t-251.5 251t-91 358t91 358t251.5 251t358.5 91zM795 137q228 0 378 153t150 390t-150 390t-378 153t-378.5 -153t-150.5 -390t150.5 -390t378.5 -153zM547 1038h317q136 0 206.5 -62.5
t70.5 -184.5q0 -123 -70 -185.5t-207 -62.5h-137v-221h-180v716zM727 705h129q100 0 100 86t-100 86h-129v-172z" />
    <glyph glyph-name="trademark" unicode="&#x2122;" horiz-adv-x="1589" 
d="M575 1360v-146h-186v-544h-164v544h-184v146h534zM1485 670h-164v487h-4l-170 -487h-146l-167 481h-5v-481h-155v690h244l157 -457h4l156 457h250v-690z" />
    <glyph glyph-name="uni2126" unicode="&#x2126;" horiz-adv-x="1581" 
d="M1481 270v-270h-559v258q135 78 205.5 191.5t70.5 255.5q0 180 -113 292.5t-294 112.5t-294.5 -112.5t-113.5 -292.5q0 -142 70.5 -255.5t205.5 -191.5v-258h-559v270h246v4q-129 68 -199.5 191.5t-70.5 286.5q0 184 90 327t252.5 222t372.5 79t372.5 -79t252 -222
t89.5 -327q0 -163 -70.5 -286.5t-199.5 -191.5v-4h246z" />
    <glyph glyph-name="estimated" unicode="&#x212e;" horiz-adv-x="1634" 
d="M817 1380q150 0 286.5 -55t235.5 -148.5t157 -223.5t58 -273v-16h-1196q-8 0 -8 -9v-385q0 -16 17 -41q86 -98 204 -153.5t250 -55.5q138 0 261.5 62.5t213.5 171.5h109q-105 -127 -259 -200.5t-329 -73.5q-150 0 -286.5 55.5t-235.5 149t-157 223t-58 272.5t58 273
t157 223.5t235.5 148.5t286.5 55zM821 1339q-130 0 -247 -54t-207 -150q-17 -25 -17 -45v-377q0 -13 8 -13h918q12 0 12 13v385q0 25 -20 45q-89 92 -205 144t-242 52z" />
    <glyph glyph-name="onethird" unicode="&#x2153;" horiz-adv-x="2002" 
d="M459 0l880 1360h205l-880 -1360h-205zM1784 430v-4q117 -60 117 -195q0 -115 -86.5 -179t-243.5 -64q-87 0 -161.5 20t-115.5 55v209h11q41 -51 110.5 -79.5t151.5 -28.5q139 0 139 94q0 86 -147 86h-109v160h94q79 0 115.5 19.5t36.5 62.5q0 48 -33.5 69t-101.5 21
q-67 0 -132 -27.5t-108 -73.5h-10v207q103 70 272 70q145 0 225 -63t80 -177q0 -122 -104 -182zM639 520h-193v613l-210 -127v192l247 162h156v-840z" />
    <glyph glyph-name="twothirds" unicode="&#x2154;" horiz-adv-x="2002" 
d="M489 0l881 1360h205l-881 -1360h-205zM1784 430v-4q117 -60 117 -195q0 -115 -86.5 -179t-243.5 -64q-87 0 -161.5 20t-115.5 55v209h11q41 -51 110.5 -79.5t151.5 -28.5q139 0 139 94q0 86 -147 86h-109v160h94q79 0 115.5 19.5t36.5 62.5q0 48 -33.5 69t-101.5 21
q-67 0 -132 -27.5t-108 -73.5h-10v207q103 70 272 70q145 0 225 -63t80 -177q0 -122 -104 -182zM715 696v-176h-588v185l207 159q111 87 148.5 133t37.5 97q0 50 -36 76t-103 26q-135 0 -234 -102h-10v209q46 32 113.5 50.5t138.5 18.5q156 0 241 -67.5t85 -192.5
q0 -93 -50 -163t-196 -183l-86 -66v-4h332z" />
    <glyph glyph-name="oneeighth" unicode="&#x215b;" horiz-adv-x="2002" 
d="M459 0l880 1360h205l-880 -1360h-205zM1798 434v-4q131 -56 131 -199q0 -115 -91.5 -179t-256.5 -64q-162 0 -253 64t-91 179q0 138 131 191v4q-106 59 -106 186q0 113 84.5 176.5t234.5 63.5q152 0 238 -63.5t86 -176.5q0 -124 -107 -178zM1581 676q-62 0 -94.5 -22.5
t-32.5 -65.5q0 -84 127 -84q131 0 131 84q0 88 -131 88zM1581 164q75 0 114.5 24t39.5 68q0 88 -154 88q-149 0 -149 -88q0 -44 38.5 -68t110.5 -24zM639 520h-193v613l-210 -127v192l247 162h156v-840z" />
    <glyph glyph-name="threeeighths" unicode="&#x215c;" horiz-adv-x="2002" 
d="M461 0l880 1360h205l-880 -1360h-205zM1798 434v-4q131 -56 131 -199q0 -115 -91.5 -179t-256.5 -64q-162 0 -253 64t-91 179q0 138 131 191v4q-106 59 -106 186q0 113 84.5 176.5t234.5 63.5q152 0 238 -63.5t86 -176.5q0 -124 -107 -178zM1581 676q-62 0 -94.5 -22.5
t-32.5 -65.5q0 -84 127 -84q131 0 131 84q0 88 -131 88zM1581 164q75 0 114.5 24t39.5 68q0 88 -154 88q-149 0 -149 -88q0 -44 38.5 -68t110.5 -24zM621 950v-4q116 -60 116 -194q0 -116 -86 -180t-243 -64q-86 0 -161 20.5t-116 55.5v209h10q41 -51 110.5 -80t151.5 -29
q140 0 140 94q0 86 -148 86h-108v160h94q79 0 115 19.5t36 62.5q0 48 -33.5 69t-101.5 21q-67 0 -131.5 -27t-107.5 -73h-11v207q47 32 120 50.5t153 18.5q145 0 225 -62.5t80 -176.5q0 -123 -104 -183z" />
    <glyph glyph-name="fiveeighths" unicode="&#x215d;" horiz-adv-x="2002" 
d="M461 0l880 1360h205l-880 -1360h-205zM1798 434v-4q131 -56 131 -199q0 -115 -91.5 -179t-256.5 -64q-162 0 -253 64t-91 179q0 138 131 191v4q-106 59 -106 186q0 113 84.5 176.5t234.5 63.5q152 0 238 -63.5t86 -176.5q0 -124 -107 -178zM1581 676q-62 0 -94.5 -22.5
t-32.5 -65.5q0 -84 127 -84q131 0 131 84q0 88 -131 88zM1581 164q75 0 114.5 24t39.5 68q0 88 -154 88q-149 0 -149 -88q0 -44 38.5 -68t110.5 -24zM449 1065q139 0 217.5 -72.5t78.5 -201.5q0 -132 -88.5 -207.5t-244.5 -75.5q-181 0 -283 57v197h10q93 -78 262 -78
q71 0 110.5 28t39.5 79q0 53 -48.5 80.5t-140.5 27.5q-109 0 -198 -29h-10v490h536v-176h-379v-131q61 12 138 12z" />
    <glyph glyph-name="seveneighths" unicode="&#x215e;" horiz-adv-x="2002" 
d="M375 0l880 1360h205l-880 -1360h-205zM1798 434v-4q131 -56 131 -199q0 -115 -91.5 -179t-256.5 -64q-162 0 -253 64t-91 179q0 138 131 191v4q-106 59 -106 186q0 113 84.5 176.5t234.5 63.5q152 0 238 -63.5t86 -176.5q0 -124 -107 -178zM1581 676q-62 0 -94.5 -22.5
t-32.5 -65.5q0 -84 127 -84q131 0 131 84q0 88 -131 88zM1581 164q75 0 114.5 24t39.5 68q0 88 -154 88q-149 0 -149 -88q0 -44 38.5 -68t110.5 -24zM756 1180l-379 -660h-230l398 664h-428v176h639v-180z" />
    <glyph glyph-name="partialdiff" unicode="&#x2202;" horiz-adv-x="1208" 
d="M625 1454q223 0 353 -161.5t130 -440.5q0 -186 -47.5 -348.5t-130 -277t-199 -180.5t-250.5 -66q-180 0 -287.5 112.5t-107.5 302.5q0 152 64 283.5t173 209t236 77.5q81 0 147.5 -31t108.5 -86h4v16q0 164 -67 250t-197 86q-148 0 -256 -108h-14v276q133 86 340 86z
M514 233q89 0 160.5 92t109.5 246q-22 69 -67.5 110.5t-102.5 41.5q-103 0 -171 -91.5t-68 -232.5q0 -75 38 -120.5t101 -45.5z" />
    <glyph glyph-name="uni2206" unicode="&#x2206;" horiz-adv-x="1507" 
d="M27 0l579 1360h293l580 -1360h-1452zM745 1014l-294 -744h593l-294 744h-5z" />
    <glyph glyph-name="product" unicode="&#x220f;" horiz-adv-x="1411" 
d="M1270 -266h-303v1356h-525v-1356h-303v1626h1131v-1626z" />
    <glyph glyph-name="summation" unicode="&#x2211;" horiz-adv-x="1202" 
d="M508 1087l463 -540l-465 -543h649v-270h-1065v258l475 555l-475 555v256h1065v-271h-647z" />
    <glyph glyph-name="minus" unicode="&#x2212;" horiz-adv-x="1331" 
d="M96 496v237h1139v-237h-1139z" />
    <glyph glyph-name="uni2219" unicode="&#x2219;" horiz-adv-x="563" 
d="M283 850q72 0 120 -49t48 -121t-48 -120t-120 -48q-73 0 -121.5 48t-48.5 120t48.5 121t121.5 49z" />
    <glyph glyph-name="radical" unicode="&#x221a;" horiz-adv-x="1118" 
d="M700 -143h-266l-166 403h-176v238h336l115 -297h4l297 1200h256z" />
    <glyph glyph-name="infinity" unicode="&#x221e;" horiz-adv-x="1435" 
d="M1020 1022q150 0 236.5 -91.5t86.5 -250.5t-88 -250.5t-241 -91.5q-103 0 -179.5 41t-136.5 127h-4q-58 -88 -125 -128t-153 -40q-151 0 -237.5 92t-86.5 250q0 159 88.5 250.5t241.5 91.5q99 0 175 -42t136 -130h4q58 89 126.5 130.5t156.5 41.5zM434 526q109 0 187 121
q-54 105 -98.5 146t-104.5 41q-59 0 -94 -42t-35 -112t39.5 -112t105.5 -42zM1018 526q59 0 94 42t35 112q0 69 -39.5 111.5t-103.5 42.5q-57 0 -102.5 -29.5t-88.5 -95.5q56 -103 100.5 -143t104.5 -40z" />
    <glyph glyph-name="integral" unicode="&#x222b;" horiz-adv-x="794" 
d="M565 1454q109 0 180 -39v-248h-10q-39 50 -110 50q-46 0 -70.5 -29t-24.5 -84v-1190q0 -160 -76.5 -242t-224.5 -82q-109 0 -180 39v248h10q35 -49 111 -49q44 0 68 29t24 84v1189q0 160 77 242t226 82z" />
    <glyph glyph-name="approxequal" unicode="&#x2248;" horiz-adv-x="1331" 
d="M434 1106q76 0 142 -26.5t157 -92.5q58 -43 92 -58.5t68 -15.5q46 0 91 44.5t103 148.5l195 -115q-160 -315 -385 -315q-76 0 -142 26.5t-157 92.5q-58 42 -92 57.5t-68 15.5q-46 0 -91 -44t-103 -148l-195 115q160 315 385 315zM434 553q76 0 142 -26.5t157 -92.5
q58 -43 92 -58.5t68 -15.5q46 0 91 44.5t103 148.5l195 -115q-160 -315 -385 -315q-76 0 -142 26.5t-157 92.5q-58 42 -92 57.5t-68 15.5q-46 0 -91 -44t-103 -148l-195 115q160 315 385 315z" />
    <glyph glyph-name="notequal" unicode="&#x2260;" horiz-adv-x="1331" 
d="M733 473h481v-233h-602l-120 -236h-240l121 236h-256v233h377l145 283h-522v233h643l121 236h239l-121 -236h215v-233h-335z" />
    <glyph glyph-name="lessequal" unicode="&#x2264;" horiz-adv-x="1331" 
d="M522 776l672 -223v-260l-1057 383v203l1057 381v-259l-672 -221v-4zM1194 238v-238h-1057v238h1057z" />
    <glyph glyph-name="greaterequal" unicode="&#x2265;" horiz-adv-x="1331" 
d="M1194 676l-1057 -383v260l672 223v4l-672 221v259l1057 -381v-203zM1194 238v-238h-1057v238h1057z" />
    <glyph glyph-name="lozenge" unicode="&#x25ca;" horiz-adv-x="1288" 
d="M541 0l-455 680l455 680h207l454 -680l-454 -680h-207zM362 680l281 -424l281 424l-281 424z" />
    <glyph glyph-name="uniE069" unicode="&#xe069;" horiz-adv-x="507" 
d="M254 1425q72 0 119 -45.5t47 -117.5q0 -73 -47 -119.5t-119 -46.5t-119 46.5t-47 119.5q0 72 47 117.5t119 45.5zM119 0v963h268v-963h-268z" />
    <glyph glyph-name="uniEF01" unicode="&#xef01;" horiz-adv-x="1024" 
d="M182 -430l199 307h270l-235 -307h-234z" />
    <glyph glyph-name="uniEF02" unicode="&#xef02;" horiz-adv-x="1024" 
d="M350 1032l56 402h270l-123 -402h-203z" />
    <glyph glyph-name="uniF8FF" unicode="&#xf8ff;" horiz-adv-x="2048" 
d="M899 430v107h-2l-35 -160h-47l57 258h54l2 -135h2l57 135h64l-58 -258h-49l35 160h-2l-45 -107h-33zM287 584l-35 -158q-8 -26 -19.5 -37.5t-31.5 -11.5h-95l58 258h88q37 0 37 -31q0 -8 -2 -20zM600 377h-49l12 53h-35l-14 -53h-49l47 211q9 47 53 47h45q37 0 37 -31
q0 -8 -2 -20zM1167 377h-49l12 53h-34l-15 -53h-49l47 211q9 47 54 47h45q36 0 36 -31q0 -8 -2 -20zM821 584l-22 -107q-8 -35 -27 -41l12 -59h-47l-8 53h-27l-12 -53h-49l57 258h88q37 0 37 -31q0 -8 -2 -20zM1731 584l-25 -109q-9 -45 -49 -45h-45l-13 -53h-49l58 258h88
q37 0 37 -31q0 -8 -2 -20zM477 635l-57 -258h-49l12 53h-37l-12 -53h-49l57 258h49l-37 -166h37l37 166h49zM1440 635h49l-35 -154q-1 -7 0.5 -9.5t7.5 -2.5h15q9 0 12 8l35 158h49l-35 -160q-9 -45 -49 -45l-29 -53h-49l29 53q-37 0 -37 31q0 10 2 20zM1845 496l-8 -39h-53
l-8 -41h67l-10 -39h-115l58 258h116l-10 -39h-65l-23 -100h51zM1374 596l-49 -219h-49l49 219h-39l8 39h125l-8 -39h-37zM205 596l-41 -180h26q10 0 13 10l35 158q2 12 -7 12h-26zM1659 477l22 107q1 7 -0.5 9.5t-7.5 2.5h-24l-29 -127h27q9 0 12 8zM750 477l22 107
q1 7 -0.5 9.5t-7.5 2.5h-25l-28 -127h26q10 0 13 8zM1155 596h-14q-11 0 -13 -10l-26 -117h37l24 115q1 7 -0.5 9.5t-7.5 2.5zM588 596h-15q-9 0 -12 -10l-26 -117h36l25 115q1 7 -0.5 9.5t-7.5 2.5zM2021 682v-61h-12v51h-2l-14 -41h-8l-15 41h-2v-51h-10v61h20l11 -33h2
l10 33h20zM1950 682v-10h-19v-51h-12v51h-16v10h47z" />
    <glyph glyph-name="zero.numr" 
d="M420 1372q163 0 251.5 -111.5t88.5 -320.5t-88.5 -320.5t-251.5 -111.5t-251.5 111.5t-88.5 320.5t88.5 320.5t251.5 111.5zM420 1196q-71 0 -108.5 -65.5t-37.5 -190.5q0 -124 37.5 -190t108.5 -66t108 66t37 190q0 126 -37 191t-108 65z" />
    <glyph glyph-name="one.numr" 
d="M639 520h-193v613l-210 -127v192l247 162h156v-840z" />
    <glyph glyph-name="two.numr" 
d="M715 696v-176h-588v185l207 159q111 87 148.5 133t37.5 97q0 50 -36 76t-103 26q-135 0 -234 -102h-10v209q46 32 113.5 50.5t138.5 18.5q156 0 241 -67.5t85 -192.5q0 -93 -50 -163t-196 -183l-86 -66v-4h332z" />
    <glyph glyph-name="three.numr" 
d="M621 950v-4q116 -60 116 -194q0 -116 -86 -180t-243 -64q-86 0 -161 20.5t-116 55.5v209h10q41 -51 110.5 -80t151.5 -29q140 0 140 94q0 86 -148 86h-108v160h94q79 0 115 19.5t36 62.5q0 48 -33.5 69t-101.5 21q-67 0 -131.5 -27t-107.5 -73h-11v207q47 32 120 50.5
t153 18.5q145 0 225 -62.5t80 -176.5q0 -123 -104 -183z" />
    <glyph glyph-name="four.numr" 
d="M682 666v-146h-193v146h-409v168l403 526h199v-518h102v-176h-102zM489 1122l-217 -280h217v280z" />
    <glyph glyph-name="five.numr" 
d="M449 1065q139 0 217.5 -72.5t78.5 -201.5q0 -132 -88.5 -207.5t-244.5 -75.5q-181 0 -283 57v197h10q93 -78 262 -78q71 0 110.5 28t39.5 79q0 53 -48.5 80.5t-140.5 27.5q-109 0 -198 -29h-10v490h536v-176h-379v-131q61 12 138 12z" />
    <glyph glyph-name="six.numr" 
d="M479 1071q129 0 204 -72.5t75 -197.5q0 -133 -83.5 -213t-223.5 -80q-168 0 -262.5 109t-94.5 301q0 214 100.5 334t278.5 120q148 0 219 -53v-197h-10q-77 74 -188 74q-170 0 -201 -182h4q69 57 182 57zM444 684q54 0 86.5 30.5t32.5 82.5q0 54 -32.5 84t-88.5 30
q-47 0 -86.5 -20t-62.5 -55q5 -72 44.5 -112t106.5 -40z" />
    <glyph glyph-name="seven.numr" 
d="M756 1180l-379 -660h-230l398 664h-428v176h639v-180z" />
    <glyph glyph-name="eight.numr" 
d="M635 954v-4q131 -56 131 -198q0 -115 -92 -179.5t-256 -64.5q-162 0 -253 64.5t-91 179.5q0 137 131 190v4q-107 60 -107 187q0 113 84.5 176t235.5 63q152 0 237.5 -63t85.5 -176q0 -126 -106 -179zM418 1196q-62 0 -94.5 -22.5t-32.5 -65.5q0 -84 127 -84q131 0 131 84
q0 88 -131 88zM418 684q75 0 114 24t39 68q0 88 -153 88q-150 0 -150 -88q0 -44 39 -68t111 -24z" />
    <glyph glyph-name="nine.numr" 
d="M389 1372q168 0 262 -108.5t94 -300.5q0 -214 -100 -334.5t-278 -120.5q-149 0 -220 53v197h11q77 -74 188 -74q170 0 201 182h-4q-69 -57 -183 -57q-129 0 -203.5 72.5t-74.5 197.5q0 133 83.5 213t223.5 80zM397 969q47 0 87 20t63 55q-5 72 -45 112t-107 40
q-54 0 -86.5 -30.5t-32.5 -82.5q0 -54 32.5 -84t88.5 -30z" />
    <glyph glyph-name="zero.dnom" 
d="M420 852q163 0 251.5 -111.5t88.5 -320.5t-88.5 -320.5t-251.5 -111.5t-251.5 111.5t-88.5 320.5t88.5 320.5t251.5 111.5zM420 676q-71 0 -108.5 -65.5t-37.5 -190.5q0 -124 37.5 -190t108.5 -66t108 66t37 190q0 126 -37 191t-108 65z" />
    <glyph glyph-name="one.dnom" 
d="M639 0h-193v612l-210 -127v193l247 162h156v-840z" />
    <glyph glyph-name="two.dnom" 
d="M715 176v-176h-588v184l207 160q111 87 148.5 132.5t37.5 96.5q0 50 -36 76.5t-103 26.5q-134 0 -234 -103h-10v209q46 32 114 51t138 19q156 0 241 -67.5t85 -192.5q0 -93 -50 -163t-196 -183l-86 -66v-4h332z" />
    <glyph glyph-name="three.dnom" 
d="M621 430v-4q116 -60 116 -195q0 -116 -86 -179.5t-243 -63.5q-87 0 -161.5 20t-115.5 55v209h10q41 -51 110.5 -79.5t151.5 -28.5q140 0 140 94q0 86 -148 86h-108v160h94q79 0 115 19.5t36 62.5q0 48 -33.5 69t-101.5 21q-67 0 -131.5 -27.5t-107.5 -73.5h-11v207
q47 32 120.5 51t152.5 19q145 0 225 -63t80 -177q0 -122 -104 -182z" />
    <glyph glyph-name="four.dnom" 
d="M682 145v-145h-193v145h-409v168l403 527h199v-518h102v-177h-102zM489 602l-217 -280h217v280z" />
    <glyph glyph-name="five.dnom" 
d="M449 545q139 0 217.5 -73t78.5 -202q0 -132 -88 -207t-245 -75q-181 0 -283 57v197h10q93 -78 262 -78q71 0 110.5 27.5t39.5 78.5q0 53 -48.5 81t-140.5 28q-109 0 -198 -29h-10v490h536v-176h-379v-132q67 13 138 13z" />
    <glyph glyph-name="six.dnom" 
d="M479 551q129 0 204 -72.5t75 -197.5q0 -133 -83.5 -213t-223.5 -80q-168 0 -262.5 108.5t-94.5 300.5q0 214 100.5 334.5t278.5 120.5q148 0 219 -53v-197h-10q-77 74 -188 74q-170 0 -201 -182h4q69 57 182 57zM444 164q54 0 86.5 30t32.5 82q0 54 -32.5 84.5
t-88.5 30.5q-47 0 -86.5 -20t-62.5 -56q5 -72 44 -111.5t107 -39.5z" />
    <glyph glyph-name="seven.dnom" 
d="M756 659l-379 -659h-230l398 664h-428v176h639v-181z" />
    <glyph glyph-name="eight.dnom" 
d="M635 434v-4q131 -56 131 -199q0 -115 -91.5 -179t-256.5 -64q-162 0 -253 64t-91 179q0 138 131 191v4q-107 60 -107 186q0 113 84.5 176.5t235.5 63.5q152 0 237.5 -63.5t85.5 -176.5q0 -125 -106 -178zM418 676q-62 0 -94.5 -22.5t-32.5 -65.5q0 -84 127 -84
q131 0 131 84q0 88 -131 88zM418 164q75 0 114 24t39 68q0 88 -153 88q-150 0 -150 -88q0 -44 39 -68t111 -24z" />
    <glyph glyph-name="nine.dnom" 
d="M389 852q168 0 262 -108.5t94 -301.5q0 -214 -100 -334t-278 -120q-149 0 -220 53v197h11q77 -74 188 -74q170 0 201 182h-4q-69 -57 -183 -57q-129 0 -203.5 72.5t-74.5 197.5q0 133 83.5 213t223.5 80zM397 449q47 0 87 20t63 55q-5 72 -45 112t-107 40
q-54 0 -86.5 -30.5t-32.5 -82.5q0 -54 32.5 -84t88.5 -30z" />
    </font>
</defs>
</svg>
