<?xml version="1.0" standalone="no"?>
<!DOCTYPE svg PUBLIC "-//W3C//DTD SVG 1.1//EN" "http://www.w3.org/Graphics/SVG/1.1/DTD/svg11.dtd" >
<svg xmlns="http://www.w3.org/2000/svg" xmlns:xlink="http://www.w3.org/1999/xlink" version="1.1">
<metadata>
Created by FontForge 20201107 at Tue Nov 25 13:38:36 2025
 By 
Copyright (c) 2014 by Ryoichi Tsunekawa. All rights reserved.
</metadata>
<defs>
<font id="Graphie-Thin" horiz-adv-x="839" >
  <font-face 
    font-family="Graphie Thin"
    font-weight="100"
    font-stretch="normal"
    units-per-em="2048"
    panose-1="2 11 3 3 2 2 4 2 2 4"
    ascent="1536"
    descent="-512"
    x-height="950"
    cap-height="1360"
    bbox="-324 -430 2224 1866"
    underline-thickness="45"
    underline-position="-208"
    unicode-range="U+0020-FB03"
  />
<missing-glyph horiz-adv-x="1269" 
d="M1159 0h-1048v1360h1048v-1360zM1010 1276h-750l375 -520zM580 680l-377 524v-1048zM690 680l377 -524v1048zM1010 84l-375 520l-375 -520h750z" />
    <glyph glyph-name="ff" unicode="ff" horiz-adv-x="1191" 
d="M1032 1454q109 0 172 -39v-55h-4q-26 22 -73 35.5t-95 13.5q-104 0 -159.5 -63t-55.5 -183v-213h354v-45h-354v-905h-49v905h-500v-905h-49v905h-199v45h199v193q0 138 69 214.5t195 76.5q109 0 172 -39v-56h-4q-26 22 -73.5 36t-94.5 14q-104 0 -159.5 -63t-55.5 -183
v-193h500v213q0 138 69 214.5t195 76.5z" />
    <glyph glyph-name="fi" unicode="fi" horiz-adv-x="978" 
d="M776 0v905h-508v-905h-49v905h-199v45h199v213q0 137 67.5 214t186.5 77q99 0 162 -39v-55h-4q-26 21 -71.5 35t-86.5 14q-98 0 -151.5 -63.5t-53.5 -182.5v-213h557v-950h-49zM801 1305q20 0 33.5 -14t13.5 -34t-13.5 -33.5t-33.5 -13.5t-33.5 13.5t-13.5 33.5t13.5 34
t33.5 14z" />
    <glyph glyph-name="ffi" unicode="ffi" horiz-adv-x="1527" 
d="M1374 0h-49v905h-508v-905h-49v905h-500v-905h-49v905h-199v45h199v193q0 138 69 214.5t195 76.5q109 0 172 -39v-56h-4q-26 22 -73.5 36t-94.5 14q-104 0 -159.5 -63t-55.5 -183v-193h500v213q0 137 67.5 214t186.5 77q99 0 162 -39v-55h-4q-26 21 -71.5 35t-86.5 14
q-98 0 -151.5 -63.5t-53.5 -182.5v-213h557v-950zM1350 1305q20 0 33.5 -14t13.5 -34t-13.5 -33.5t-33.5 -13.5t-33.5 13.5t-13.5 33.5t13.5 34t33.5 14z" />
    <glyph glyph-name="f_j" unicode="fj" horiz-adv-x="978" 
d="M825 950v-1147q0 -114 -39.5 -163.5t-128.5 -49.5q-55 0 -98 21v51h4q43 -27 94 -27q66 0 92.5 37t26.5 131v1102h-508v-905h-49v905h-199v45h199v213q0 137 67.5 214t186.5 77q99 0 162 -39v-55h-4q-26 21 -71.5 35t-86.5 14q-98 0 -151.5 -63.5t-53.5 -182.5v-213h557z
M801 1305q20 0 33.5 -14t13.5 -34t-13.5 -33.5t-33.5 -13.5t-33.5 13.5t-13.5 33.5t13.5 34t33.5 14z" />
    <glyph glyph-name="f_f_j" unicode="ffj" horiz-adv-x="1527" 
d="M1374 950v-1147q0 -114 -39.5 -163.5t-128.5 -49.5q-54 0 -98 21v51h4q44 -27 94 -27q66 0 92.5 37t26.5 131v1102h-508v-905h-49v905h-500v-905h-49v905h-199v45h199v193q0 138 69 214.5t195 76.5q109 0 172 -39v-56h-4q-26 22 -73.5 36t-94.5 14q-104 0 -159.5 -63
t-55.5 -183v-193h500v213q0 137 67.5 214t186.5 77q99 0 162 -39v-55h-4q-26 21 -71.5 35t-86.5 14q-98 0 -151.5 -63.5t-53.5 -182.5v-213h557zM1350 1305q20 0 33.5 -14t13.5 -34t-13.5 -33.5t-33.5 -13.5t-33.5 13.5t-13.5 33.5t13.5 34t33.5 14z" />
    <glyph glyph-name=".notdef" horiz-adv-x="1269" 
d="M1159 0h-1048v1360h1048v-1360zM1010 1276h-750l375 -520zM580 680l-377 524v-1048zM690 680l377 -524v1048zM1010 84l-375 520l-375 -520h750z" />
    <glyph glyph-name=".null" horiz-adv-x="0" 
 />
    <glyph glyph-name="nonmarkingreturn" horiz-adv-x="682" 
 />
    <glyph glyph-name="space" unicode=" " horiz-adv-x="450" 
 />
    <glyph glyph-name="exclam" unicode="!" horiz-adv-x="450" 
d="M197 1360h57l-8 -1053h-41zM225 82q22 0 36.5 -14.5t14.5 -36.5t-14.5 -36.5t-36.5 -14.5t-36.5 14.5t-14.5 36.5t14.5 36.5t36.5 14.5z" />
    <glyph glyph-name="quotedbl" unicode="&#x22;" horiz-adv-x="696" 
d="M186 778l-4 582h45l-4 -582h-37zM473 778l-4 582h45l-4 -582h-37z" />
    <glyph glyph-name="numbersign" unicode="#" horiz-adv-x="1331" 
d="M1196 465l-6 -41h-309l-60 -424h-45l60 424h-416l-60 -424h-45l60 424h-309l6 41h309l63 450h-309l6 41h310l57 404h45l-57 -404h415l58 404h45l-58 -404h310l-6 -41h-310l-63 -450h309zM426 465h416l63 450h-416z" />
    <glyph glyph-name="dollar" unicode="$" horiz-adv-x="1331" 
d="M1130 395q0 -152 -120 -244.5t-328 -95.5v-178h-45v178q-150 4 -269.5 44.5t-193.5 109.5v57h4q151 -157 459 -166v572q-240 13 -339 81.5t-99 211.5q0 150 120 244.5t318 95.5v157h45v-157q270 -9 391 -127v-58h-4q-112 131 -387 140v-547q239 -12 342.5 -87.5
t105.5 -230.5zM246 963q0 -120 86.5 -175.5t304.5 -70.5v543q-180 -1 -285.5 -82.5t-105.5 -214.5zM682 668v-568q187 1 293 81.5t106 215.5q0 131 -91 194.5t-308 76.5z" />
    <glyph glyph-name="percent" unicode="%" horiz-adv-x="1531" 
d="M379 1380q141 0 222 -90t81 -248q0 -157 -81 -246t-222 -89t-222 89t-81 246q0 158 81 248t222 90zM297 0l881 1360h57l-881 -1360h-57zM379 1335q-119 0 -186.5 -77t-67.5 -216q0 -137 67.5 -213.5t186.5 -76.5t186.5 76.5t67.5 213.5q0 139 -67.5 216t-186.5 77z
M1153 653q141 0 222 -90t81 -248q0 -157 -81 -246t-222 -89t-222 89t-81 246q0 158 81 248t222 90zM1153 608q-119 0 -186.5 -77t-67.5 -216q0 -137 67.5 -213.5t186.5 -76.5t186.5 76.5t67.5 213.5q0 139 -67.5 216t-186.5 77z" />
    <glyph glyph-name="ampersand" unicode="&#x26;" horiz-adv-x="1284" 
d="M1161 0l-174 170q-158 -190 -450 -190q-200 0 -315.5 95t-115.5 259q0 128 73 220t237 171l-37 35q-93 91 -130.5 163.5t-37.5 159.5q0 135 94.5 216t251.5 81q155 0 247.5 -75t92.5 -201q0 -123 -89.5 -211.5t-311.5 -179.5l487 -471q111 159 111 411q0 57 -4 90h51
q4 -31 4 -88q0 -277 -127 -448l215 -207h-72zM424 782l37 -37q217 90 302 170t85 189q0 104 -79.5 167.5t-211.5 63.5q-135 0 -216 -68.5t-81 -183.5q0 -83 35 -147.5t129 -153.5zM537 25q266 0 415 178l-501 487q-158 -75 -226.5 -157.5t-68.5 -198.5q0 -148 99.5 -228.5
t281.5 -80.5z" />
    <glyph glyph-name="quotesingle" unicode="'" horiz-adv-x="409" 
d="M186 778l-4 582h45l-4 -582h-37z" />
    <glyph glyph-name="parenleft" unicode="(" horiz-adv-x="677" 
d="M492 1360h61q-307 -337 -307 -785q0 -447 307 -784h-61q-295 340 -295 784q0 445 295 785z" />
    <glyph glyph-name="parenright" unicode=")" horiz-adv-x="677" 
d="M186 -209h-61q307 337 307 784q0 448 -307 785h61q295 -340 295 -785q0 -444 -295 -784z" />
    <glyph glyph-name="asterisk" unicode="*" horiz-adv-x="909" 
d="M664 705l-209 307l-209 -307l-45 32l227 295l-354 107l16 47l348 -121l-10 369h53l-10 -369l348 121l17 -47l-355 -107l228 -295z" />
    <glyph glyph-name="plus" unicode="+" horiz-adv-x="1331" 
d="M688 592v-551h-45v551h-551v45h551v551h45v-551h551v-45h-551z" />
    <glyph glyph-name="comma" unicode="," horiz-adv-x="450" 
d="M96 -311l119 372h51l-129 -372h-41z" />
    <glyph glyph-name="hyphen" unicode="-" horiz-adv-x="757" 
d="M102 530v50h553v-50h-553z" />
    <glyph glyph-name="period" unicode="." horiz-adv-x="450" 
d="M225 82q22 0 36.5 -14.5t14.5 -36.5t-14.5 -36.5t-36.5 -14.5t-36.5 14.5t-14.5 36.5t14.5 36.5t36.5 14.5z" />
    <glyph glyph-name="slash" unicode="/" horiz-adv-x="806" 
d="M82 -164l594 1585h49l-594 -1585h-49z" />
    <glyph glyph-name="zero" unicode="0" horiz-adv-x="1331" 
d="M666 1380q263 0 408 -183.5t145 -516.5t-145 -516.5t-408 -183.5t-408 183.5t-145 516.5t145 516.5t408 183.5zM666 1335q-239 0 -371.5 -171.5t-132.5 -483.5t132.5 -483.5t371.5 -171.5t371 171.5t132 483.5t-132 483.5t-371 171.5z" />
    <glyph glyph-name="one" unicode="1" horiz-adv-x="1331" 
d="M834 0v1298l-527 -268v53l543 277h33v-1360h-49z" />
    <glyph glyph-name="two" unicode="2" horiz-adv-x="1331" 
d="M1135 45v-45h-932v53l227 176q258 201 397 332t198.5 231.5t59.5 202.5q0 164 -108 251t-313 87q-119 0 -236.5 -47t-200.5 -129h-4v64q88 74 206 116.5t235 42.5q227 0 349 -99t122 -284q0 -110 -61.5 -216.5t-204.5 -243t-408 -340.5l-191 -148v-4h865z" />
    <glyph glyph-name="three" unicode="3" horiz-adv-x="1331" 
d="M868 707v-5q154 -28 236 -116.5t82 -227.5q0 -178 -139 -278t-381 -100q-150 0 -278 44.5t-198 122.5v64h5q68 -89 193 -137.5t278 -48.5q222 0 346.5 87.5t124.5 245.5q0 156 -111 238t-321 82h-240v45h207q208 0 319 78t111 225t-117.5 228t-327.5 81
q-126 0 -240.5 -46t-193.5 -130h-4v64q76 73 193.5 115t244.5 42q229 0 361.5 -94.5t132.5 -259.5q0 -125 -73 -206.5t-210 -112.5z" />
    <glyph glyph-name="four" unicode="4" horiz-adv-x="1331" 
d="M1051 0h-50v309h-892v41l888 1010h54v-1006h221v-45h-221v-309zM172 354h829v944z" />
    <glyph glyph-name="five" unicode="5" horiz-adv-x="1331" 
d="M657 864q246 0 384.5 -115t138.5 -319q0 -212 -140.5 -331t-388.5 -119q-154 0 -283.5 44.5t-199.5 122.5v64h4q72 -89 197 -137.5t282 -48.5q228 0 353.5 106t125.5 299q0 186 -123.5 287.5t-349.5 101.5q-120 0 -234 -29.5t-202 -84.5h-4v655h875v-45h-830v-541
q178 90 395 90z" />
    <glyph glyph-name="six" unicode="6" horiz-adv-x="1331" 
d="M735 860q215 0 346 -118t131 -312q0 -203 -136.5 -326.5t-360.5 -123.5q-275 0 -427.5 174t-152.5 489q0 350 160.5 543.5t452.5 193.5q242 0 358 -104v-64h-4q-117 123 -354 123q-271 0 -417.5 -179.5t-146.5 -512.5q0 -33 2 -51h4q85 125 230.5 196.5t314.5 71.5z
M715 25q201 0 324.5 111t123.5 294q0 173 -118 279t-310 106q-173 0 -320 -81.5t-222 -219.5q25 -229 163 -359t359 -130z" />
    <glyph glyph-name="seven" unicode="7" horiz-adv-x="1331" 
d="M354 0h-55l901 1315h-1036v45h1085v-53z" />
    <glyph glyph-name="eight" unicode="8" horiz-adv-x="1331" 
d="M883 705v-5q334 -62 334 -346q0 -177 -146 -275.5t-405 -98.5t-405 98.5t-146 275.5q0 279 334 344v4q-293 62 -293 324q0 166 135.5 260t374.5 94t374.5 -94t135.5 -260q0 -256 -293 -321zM205 1026q0 -303 461 -303q460 0 460 303q0 148 -120 228.5t-340 80.5
t-340.5 -80.5t-120.5 -228.5zM666 25q238 0 369.5 86t131.5 243q0 160 -126 242t-375 82t-375.5 -82t-126.5 -242q0 -157 132 -243t370 -86z" />
    <glyph glyph-name="nine" unicode="9" horiz-adv-x="1331" 
d="M616 1380q275 0 427.5 -174t152.5 -489q0 -351 -160 -544t-452 -193q-243 0 -359 104v63h4q116 -122 355 -122q271 0 417 179.5t146 512.5q0 33 -2 51h-4q-85 -125 -230.5 -196.5t-314.5 -71.5q-215 0 -346 118t-131 312q0 203 136.5 326.5t360.5 123.5zM596 545
q173 0 320.5 81.5t222.5 219.5q-25 229 -163.5 359t-359.5 130q-201 0 -324.5 -111t-123.5 -294q0 -173 118 -279t310 -106z" />
    <glyph glyph-name="colon" unicode=":" horiz-adv-x="450" 
d="M225 82q22 0 36.5 -14.5t14.5 -36.5t-14.5 -36.5t-36.5 -14.5t-36.5 14.5t-14.5 36.5t14.5 36.5t36.5 14.5zM225 907q22 0 36.5 -14.5t14.5 -36.5t-14.5 -36.5t-36.5 -14.5t-36.5 14.5t-14.5 36.5t14.5 36.5t36.5 14.5z" />
    <glyph glyph-name="semicolon" unicode=";" horiz-adv-x="450" 
d="M96 -311l119 372h51l-129 -372h-41zM225 907q22 0 36.5 -14.5t14.5 -36.5t-14.5 -36.5t-36.5 -14.5t-36.5 14.5t-14.5 36.5t14.5 36.5t36.5 14.5z" />
    <glyph glyph-name="less" unicode="&#x3c;" horiz-adv-x="1331" 
d="M1178 176v-49l-1024 471v33l1024 471v-49l-955 -439z" />
    <glyph glyph-name="equal" unicode="=" horiz-adv-x="1331" 
d="M133 848v45h1065v-45h-1065zM133 336v45h1065v-45h-1065z" />
    <glyph glyph-name="greater" unicode="&#x3e;" horiz-adv-x="1331" 
d="M154 1053v49l1024 -471v-33l-1024 -471v49l954 438z" />
    <glyph glyph-name="question" unicode="?" horiz-adv-x="968" 
d="M465 1380q207 0 323.5 -96t116.5 -266q0 -165 -109 -271t-360 -182v-258h-45v291q246 67 355.5 166.5t109.5 251.5q0 151 -102.5 234t-288.5 83q-122 0 -231 -46t-185 -130h-4v64q79 75 190 117t230 42zM414 82q22 0 36.5 -14.5t14.5 -36.5t-14.5 -36.5t-36.5 -14.5
t-37 14.5t-15 36.5t15 36.5t37 14.5z" />
    <glyph glyph-name="at" unicode="@" horiz-adv-x="1628" 
d="M1266 211q-133 0 -133 154v26h-5q-40 -84 -123 -132t-194 -48q-154 0 -256 102t-102 260t102 261.5t256 103.5q109 0 191 -46.5t124 -129.5h4v162h50v-557q0 -56 20.5 -82.5t65.5 -26.5q100 0 159.5 96t59.5 273q0 276 -177.5 450t-465.5 174q-188 0 -339 -89.5
t-236 -248t-85 -356.5q0 -140 52.5 -261.5t144.5 -207.5t221.5 -135t278.5 -49q147 0 268 41t194 114h5v-63q-80 -65 -204.5 -102t-267.5 -37q-214 0 -385.5 90t-267.5 251t-96 363q0 211 92.5 379.5t258 263t372.5 94.5q203 0 360 -85t242.5 -238t85.5 -350
q0 -192 -74.5 -303t-195.5 -111zM819 258q138 0 226 88t88 227q0 141 -88 229.5t-226 88.5q-140 0 -227.5 -88.5t-87.5 -229.5q0 -139 88 -227t227 -88z" />
    <glyph glyph-name="A" unicode="A" horiz-adv-x="1464" 
d="M1184 362h-905l-177 -362h-55l662 1360h47l661 -1360h-57zM729 1290l-428 -880h860l-428 880h-4z" />
    <glyph glyph-name="B" unicode="B" horiz-adv-x="1280" 
d="M901 700v-4q147 -25 224 -109.5t77 -226.5q0 -178 -113.5 -269t-336.5 -91h-572v1360h520q224 0 338.5 -87t114.5 -259q0 -251 -252 -314zM231 717h469q200 0 302 75.5t102 223.5q0 147 -102 222t-302 75h-469v-596zM231 47h521q198 0 298.5 78.5t100.5 232.5t-100.5 233
t-298.5 79h-521v-623z" />
    <glyph glyph-name="C" unicode="C" horiz-adv-x="1376" 
d="M797 1380q147 0 268.5 -42.5t202.5 -123.5v-65h-4q-82 91 -203 137.5t-264 46.5q-194 0 -344.5 -83t-233 -231.5t-82.5 -338.5t82.5 -338.5t233 -231.5t344.5 -83q141 0 262 46t205 138h4v-66q-83 -78 -208 -121.5t-263 -43.5q-156 0 -288.5 52t-225.5 144t-145 222
t-52 282t52 282t145 222t225.5 144t288.5 52z" />
    <glyph glyph-name="D" unicode="D" horiz-adv-x="1490" 
d="M180 1360h506q331 0 525 -183t194 -495q0 -315 -193.5 -498.5t-525.5 -183.5h-506v1360zM231 47h455q309 0 488.5 171t179.5 464q0 292 -179.5 461.5t-488.5 169.5h-455v-1266z" />
    <glyph glyph-name="E" unicode="E" horiz-adv-x="1249" 
d="M997 717v-47h-766v-623h914v-47h-965v1360h965v-47h-914v-596h766z" />
    <glyph glyph-name="F" unicode="F" horiz-adv-x="1206" 
d="M999 709v-47h-768v-662h-51v1360h967v-47h-916v-604h768z" />
    <glyph glyph-name="G" unicode="G" horiz-adv-x="1452" 
d="M803 1333q-298 0 -482 -179.5t-184 -473.5t184 -473.5t482 -179.5q151 0 262 34.5t203 110.5v412h-520v47h569v-486q-191 -165 -514 -165q-212 0 -375 86.5t-252.5 245.5t-89.5 368t89.5 368t252.5 245.5t375 86.5q322 0 514 -166v-65h-4q-102 97 -222 140.5t-288 43.5z
" />
    <glyph glyph-name="H" unicode="H" horiz-adv-x="1511" 
d="M1280 0v670h-1049v-670h-51v1360h51v-643h1049v643h51v-1360h-51z" />
    <glyph glyph-name="I" unicode="I" horiz-adv-x="411" 
d="M180 0v1360h51v-1360h-51z" />
    <glyph glyph-name="J" unicode="J" horiz-adv-x="1028" 
d="M883 1360v-942q0 -204 -115 -321t-317 -117q-120 0 -223.5 40t-176.5 115v66h4q67 -84 170 -129t228 -45q181 0 279.5 102.5t98.5 288.5v942h52z" />
    <glyph glyph-name="K" unicode="K" horiz-adv-x="1214" 
d="M231 674v-674h-51v1360h51v-660l832 660h84l-854 -672l874 -688h-86z" />
    <glyph glyph-name="L" unicode="L" horiz-adv-x="1169" 
d="M180 0v1360h51v-1313h887v-47h-938z" />
    <glyph glyph-name="M" unicode="M" horiz-adv-x="1886" 
d="M1706 0h-51v1298h-4l-693 -1298h-38l-687 1294h-4v-1294h-49v1360h76l684 -1288h4l684 1288h78v-1360z" />
    <glyph glyph-name="N" unicode="N" horiz-adv-x="1521" 
d="M1341 0h-59l-1049 1303h-4v-1303h-49v1360h72l1036 -1288h4v1288h49v-1360z" />
    <glyph glyph-name="O" unicode="O" horiz-adv-x="1572" 
d="M786 1380q152 0 282.5 -52t222.5 -144t144 -222t52 -282t-52 -282t-144 -222t-222.5 -144t-282.5 -52q-203 0 -362.5 89t-248.5 248.5t-89 362.5t89 362.5t248.5 248.5t362.5 89zM786 1333q-188 0 -336 -83t-230.5 -232t-82.5 -338t82.5 -338t230.5 -232t336 -83
t336.5 83t231 232t82.5 338t-82.5 338t-231 232t-336.5 83z" />
    <glyph glyph-name="P" unicode="P" horiz-adv-x="1267" 
d="M180 1360h568q223 0 336.5 -100t113.5 -297t-113.5 -297.5t-336.5 -100.5h-517v-565h-51v1360zM231 612h517q198 0 298.5 89t100.5 262t-100.5 261.5t-298.5 88.5h-517v-701z" />
    <glyph glyph-name="Q" unicode="Q" horiz-adv-x="1566" 
d="M1487 680q0 -191 -80 -344.5t-223 -245.5l211 -246h-68l-188 219q-157 -83 -353 -83q-203 0 -362.5 89t-248.5 248.5t-89 362.5t89 362.5t248.5 248.5t362.5 89q152 0 282.5 -52t222.5 -144t144 -222t52 -282zM786 27q181 0 322 75l-279 326h68l256 -299
q133 84 208 227.5t75 323.5q0 189 -82.5 338t-231 232t-336.5 83t-336 -83t-230.5 -232t-82.5 -338t82.5 -338t230.5 -232t336 -83z" />
    <glyph glyph-name="R" unicode="R" horiz-adv-x="1329" 
d="M231 0h-51v1360h578q223 0 336.5 -98.5t113.5 -290.5q0 -173 -93.5 -270.5t-276.5 -114.5l409 -586h-63l-406 582h-547v-582zM231 629h527q198 0 298.5 86.5t100.5 255.5t-100.5 255.5t-298.5 86.5h-527v-684z" />
    <glyph glyph-name="S" unicode="S" horiz-adv-x="1165" 
d="M573 1380q149 0 267 -36.5t184 -102.5v-63h-4q-66 75 -181.5 115t-265.5 40q-186 0 -302.5 -91.5t-116.5 -237.5q0 -134 95.5 -198t338.5 -85q275 -24 386 -108.5t111 -258.5q0 -172 -131.5 -273t-355.5 -101q-163 0 -298 43.5t-220 123.5v64h4q175 -184 520 -184
q201 0 316.5 87.5t115.5 241.5q0 148 -102 220.5t-354 93.5q-264 23 -370 99.5t-106 236.5q0 164 131.5 269t337.5 105z" />
    <glyph glyph-name="T" unicode="T" horiz-adv-x="1163" 
d="M608 0h-51v1313h-506v47h1061v-47h-504v-1313z" />
    <glyph glyph-name="U" unicode="U" horiz-adv-x="1429" 
d="M1284 1360v-795q0 -283 -147 -434t-422 -151t-422.5 151t-147.5 434v795h52v-795q0 -260 134 -399t384 -139q251 0 385.5 139.5t134.5 398.5v795h49z" />
    <glyph glyph-name="V" unicode="V" horiz-adv-x="1382" 
d="M715 0h-47l-621 1360h57l586 -1286h4l586 1286h55z" />
    <glyph glyph-name="W" unicode="W" horiz-adv-x="2041" 
d="M1513 0h-47l-442 1270h-4l-445 -1270h-47l-475 1360h56l442 -1270h4l442 1270h47l445 -1272h4l442 1272h54z" />
    <glyph glyph-name="X" unicode="X" horiz-adv-x="1359" 
d="M680 655l-543 -655h-65l573 692l-553 668h68l522 -631l520 631h66l-553 -668l573 -692h-67z" />
    <glyph glyph-name="Y" unicode="Y" horiz-adv-x="1310" 
d="M684 0h-51v629l-606 731h69l561 -684l562 684h65l-600 -727v-633z" />
    <glyph glyph-name="Z" unicode="Z" horiz-adv-x="1284" 
d="M100 0v43l1006 1270h-965v47h1033v-43l-1006 -1270h1016v-47h-1084z" />
    <glyph glyph-name="bracketleft" unicode="[" horiz-adv-x="677" 
d="M571 -164v-45h-376v1569h376v-45h-327v-1479h327z" />
    <glyph glyph-name="backslash" unicode="\" horiz-adv-x="806" 
d="M725 -164h-49l-594 1585h49z" />
    <glyph glyph-name="bracketright" unicode="]" horiz-adv-x="677" 
d="M106 1315v45h377v-1569h-377v45h328v1479h-328z" />
    <glyph glyph-name="asciicircum" unicode="^" horiz-adv-x="1331" 
d="M190 582h-53l512 778h33l512 -778h-53l-475 721z" />
    <glyph glyph-name="underscore" unicode="_" horiz-adv-x="1024" 
d="M0 -217v45h1024v-45h-1024z" />
    <glyph glyph-name="grave" unicode="`" horiz-adv-x="1024" 
d="M506 1116l-240 293h60l229 -293h-49z" />
    <glyph glyph-name="a" unicode="a" horiz-adv-x="1230" 
d="M1077 0h-47v242h-4q-55 -122 -172.5 -192t-273.5 -70q-216 0 -355 138.5t-139 356.5t139 357t355 139q157 0 274 -69.5t172 -190.5h4v239h47v-950zM584 25q197 0 322.5 126t125.5 324t-125.5 324.5t-322.5 126.5t-323 -126.5t-126 -324.5t126 -324t323 -126z" />
    <glyph glyph-name="b" unicode="b" horiz-adv-x="1230" 
d="M651 971q216 0 355 -139t139 -357t-139 -356.5t-355 -138.5q-156 0 -273.5 70t-172.5 192h-4v-242h-47v1434h49v-723h4q55 121 172 190.5t272 69.5zM647 25q197 0 323 126t126 324t-126 324.5t-323 126.5t-322.5 -126.5t-125.5 -324.5t125.5 -324t322.5 -126z" />
    <glyph glyph-name="c" unicode="c" horiz-adv-x="1030" 
d="M592 971q216 0 334 -121v-66h-4q-124 142 -330 142q-205 0 -331 -126.5t-126 -324.5q0 -196 126 -323t331 -127q207 0 330 141h4v-66q-117 -120 -334 -120q-228 0 -367 138.5t-139 356.5q0 219 139 357.5t367 138.5z" />
    <glyph glyph-name="d" unicode="d" horiz-adv-x="1230" 
d="M1077 0h-47v242h-4q-55 -122 -172.5 -192t-273.5 -70q-216 0 -355 138.5t-139 356.5t139 357t355 139q155 0 272 -69.5t172 -190.5h4v723h49v-1434zM584 25q197 0 322.5 126t125.5 324t-125.5 324.5t-322.5 126.5t-323 -126.5t-126 -324.5t126 -324t323 -126z" />
    <glyph glyph-name="e" unicode="e" horiz-adv-x="1150" 
d="M1067 473h-932q0 -206 131 -327t355 -121q222 0 376 151h4v-59q-143 -137 -380 -137q-246 0 -390.5 133.5t-144.5 361.5q0 218 139 357t357 139q221 0 353 -125.5t132 -333.5v-39zM582 926q-186 0 -309.5 -113t-137.5 -295h887q-2 182 -123.5 295t-316.5 113z" />
    <glyph glyph-name="f" unicode="f" horiz-adv-x="643" 
d="M483 1454q109 0 172 -39v-55h-4q-26 22 -73 35.5t-95 13.5q-104 0 -159.5 -63t-55.5 -183v-213h355v-45h-355v-905h-49v905h-199v45h199v213q0 138 69 214.5t195 76.5z" />
    <glyph glyph-name="g" unicode="g" horiz-adv-x="1230" 
d="M1077 950v-874q0 -232 -128 -359t-363 -127q-133 0 -241 41t-173 115v64h4q136 -175 410 -175q212 0 327 114.5t115 326.5v164h-4q-55 -121 -172 -190.5t-272 -69.5q-216 0 -355 138.5t-139 356.5t139 357t355 139q156 0 273.5 -70t172.5 -192h4v241h47zM584 25
q197 0 322.5 126t125.5 324t-125.5 324.5t-322.5 126.5t-323 -126.5t-126 -324.5t126 -324t323 -126z" />
    <glyph glyph-name="h" unicode="h" horiz-adv-x="1146" 
d="M604 971q192 0 304 -116.5t112 -315.5v-539h-49v535q0 183 -98 287t-271 104q-183 0 -291 -121.5t-108 -327.5v-477h-49v1434h49v-717h4q48 121 150.5 187.5t246.5 66.5z" />
    <glyph glyph-name="i" unicode="i" horiz-adv-x="356" 
d="M178 1305q20 0 33.5 -14t13.5 -34t-13.5 -33.5t-33.5 -13.5t-33.5 13.5t-13.5 33.5t13.5 34t33.5 14zM154 0v950h49v-950h-49z" />
    <glyph glyph-name="j" unicode="j" horiz-adv-x="356" 
d="M178 1305q20 0 33.5 -14t13.5 -34t-13.5 -33.5t-33.5 -13.5t-33.5 13.5t-13.5 33.5t13.5 34t33.5 14zM203 950v-1147q0 -114 -39.5 -163.5t-128.5 -49.5q-55 0 -98 21v51h4q43 -27 94 -27q66 0 92.5 37t26.5 131v1147h49z" />
    <glyph glyph-name="k" unicode="k" horiz-adv-x="909" 
d="M203 0h-49v1434h49v-934l575 450h74l-596 -467l616 -483h-77l-592 463v-463z" />
    <glyph glyph-name="l" unicode="l" horiz-adv-x="356" 
d="M154 0v1434h49v-1434h-49z" />
    <glyph glyph-name="m" unicode="m" horiz-adv-x="1775" 
d="M1278 971q181 0 276 -108t95 -314v-549h-50v549q0 185 -82 281t-241 96q-169 0 -259.5 -111t-90.5 -317v-498h-49v549q0 185 -82.5 281t-241.5 96q-169 0 -259.5 -111t-90.5 -317v-498h-49v950h47v-207h4q43 111 131.5 169.5t218.5 58.5q142 0 231.5 -69t120.5 -200h4
q37 130 130.5 199.5t236.5 69.5z" />
    <glyph glyph-name="n" unicode="n" horiz-adv-x="1146" 
d="M604 971q192 0 304 -116.5t112 -315.5v-539h-49v535q0 183 -98 287t-271 104q-183 0 -291 -121.5t-108 -327.5v-477h-49v950h47v-237h4q48 123 151 190.5t248 67.5z" />
    <glyph glyph-name="o" unicode="o" horiz-adv-x="1167" 
d="M584 971q218 0 357.5 -139t139.5 -357t-139.5 -356.5t-357.5 -138.5q-219 0 -358.5 138.5t-139.5 356.5t140 357t358 139zM584 926q-197 0 -323 -126.5t-126 -324.5t126 -324t323 -126t322.5 126t125.5 324t-125.5 324.5t-322.5 126.5z" />
    <glyph glyph-name="p" unicode="p" horiz-adv-x="1230" 
d="M651 971q216 0 355 -139t139 -357t-139 -356.5t-355 -138.5q-155 0 -272 69.5t-172 190.5h-4v-629h-49v1339h47v-241h4q55 122 172.5 192t273.5 70zM647 25q197 0 323 126t126 324t-126 324.5t-323 126.5t-322.5 -126.5t-125.5 -324.5t125.5 -324t322.5 -126z" />
    <glyph glyph-name="q" unicode="q" horiz-adv-x="1230" 
d="M1077 -389h-49v629h-4q-55 -121 -172 -190.5t-272 -69.5q-216 0 -355 138.5t-139 356.5t139 357t355 139q156 0 273.5 -70t172.5 -192h4v241h47v-1339zM584 25q197 0 322.5 126t125.5 324t-125.5 324.5t-322.5 126.5t-323 -126.5t-126 -324.5t126 -324t323 -126z" />
    <glyph glyph-name="r" unicode="r" horiz-adv-x="700" 
d="M526 971q82 0 150 -37v-57h-4q-64 47 -148 47q-158 0 -239.5 -117.5t-81.5 -339.5v-467h-49v950h47v-217h4q82 238 321 238z" />
    <glyph glyph-name="s" unicode="s" horiz-adv-x="868" 
d="M428 971q106 0 190.5 -23.5t131.5 -66.5v-60h-5q-99 105 -317 105q-129 0 -209 -65.5t-80 -170.5q0 -92 67.5 -134t233.5 -48q196 -7 277.5 -65.5t81.5 -184.5t-97 -202t-256 -76q-243 0 -366 120v64h4q114 -139 362 -139q141 0 223.5 62.5t82.5 170.5q0 103 -70.5 149.5
t-249.5 53.5q-187 7 -263.5 60t-76.5 169q0 123 94 202t242 79z" />
    <glyph glyph-name="t" unicode="t" horiz-adv-x="704" 
d="M627 76v-58q-56 -38 -152 -38q-120 0 -188 75t-68 207v643h-199v45h201l15 250h32v-250h355v-45h-355v-643q0 -110 55 -173.5t152 -63.5t148 51h4z" />
    <glyph glyph-name="u" unicode="u" horiz-adv-x="1146" 
d="M993 0h-47v238h-4q-48 -123 -151 -190.5t-248 -67.5q-192 0 -304 116.5t-112 315.5v538h49v-534q0 -183 98 -287t271 -104q183 0 291 121.5t108 326.5v477h49v-950z" />
    <glyph glyph-name="v" unicode="v" horiz-adv-x="987" 
d="M516 0h-45l-448 950h55l416 -878h4l413 878h54z" />
    <glyph glyph-name="w" unicode="w" horiz-adv-x="1519" 
d="M1137 0h-45l-328 868h-4l-332 -868h-45l-360 950h53l330 -874h4l329 874h45l328 -872h4l330 872h51z" />
    <glyph glyph-name="x" unicode="x" horiz-adv-x="999" 
d="M117 0h-64l416 487l-395 463h65l365 -430l358 430h64l-391 -463l411 -487h-65l-381 455z" />
    <glyph glyph-name="y" unicode="y" horiz-adv-x="987" 
d="M305 -389h-53l215 436l-444 903h55l416 -841h4l413 841h54z" />
    <glyph glyph-name="z" unicode="z" horiz-adv-x="987" 
d="M86 0v41l737 864h-706v45h774v-41l-737 -864h747v-45h-815z" />
    <glyph glyph-name="braceleft" unicode="{" horiz-adv-x="712" 
d="M330 1092v-248q0 -218 -154 -266v-5q154 -48 154 -266v-248q0 -110 56 -166.5t165 -56.5h55v-45h-55q-130 0 -200 69.5t-70 198.5v248q0 126 -50 186t-151 60h-35v45h35q101 0 151 60t50 186v248q0 129 70 198.5t200 69.5h55v-45h-55q-109 0 -165 -56.5t-56 -166.5z" />
    <glyph glyph-name="bar" unicode="|" horiz-adv-x="686" 
d="M319 -389v1823h46v-1823h-46z" />
    <glyph glyph-name="braceright" unicode="}" horiz-adv-x="712" 
d="M383 59v248q0 218 154 266v5q-154 48 -154 266v248q0 110 -56 166.5t-165 56.5h-56v45h56q130 0 200 -69.5t70 -198.5v-248q0 -126 50 -186t151 -60h35v-45h-35q-101 0 -151 -60t-50 -186v-248q0 -129 -70 -198.5t-200 -69.5h-56v45h56q109 0 165 56.5t56 166.5z" />
    <glyph glyph-name="asciitilde" unicode="~" horiz-adv-x="1331" 
d="M1190 739l39 -24q-141 -228 -311 -228q-61 0 -119.5 24t-147.5 85q-79 56 -130 78t-103 22q-78 0 -144.5 -50t-132.5 -157l-39 25q140 227 312 227q62 0 120 -24.5t148 -85.5q84 -59 132 -79t99 -20q78 0 144.5 50t132.5 157z" />
    <glyph glyph-name="uni00A0" unicode="&#xa0;" horiz-adv-x="450" 
 />
    <glyph glyph-name="exclamdown" unicode="&#xa1;" horiz-adv-x="450" 
d="M254 0h-57l8 1053h41zM225 1278q-22 0 -36.5 14.5t-14.5 36.5t14.5 36.5t36.5 14.5t36.5 -14.5t14.5 -36.5t-14.5 -36.5t-36.5 -14.5z" />
    <glyph glyph-name="cent" unicode="&#xa2;" horiz-adv-x="1331" 
d="M1108 860h-4q-123 135 -334 141v-901q210 6 334 142h4v-66q-124 -115 -338 -121v-178h-45v178q-229 9 -363.5 142t-134.5 354t134.5 354t363.5 142v178h45v-178q214 -6 338 -121v-66zM276 551q0 -202 119.5 -322t329.5 -129v901q-210 -9 -329.5 -128.5t-119.5 -321.5z
" />
    <glyph glyph-name="sterling" unicode="&#xa3;" horiz-adv-x="1331" 
d="M752 1335q-373 0 -373 -411v-222h596v-45h-596v-225q0 -136 -35 -223.5t-115 -159.5v-4h897v-45h-952v53q87 77 121.5 159t34.5 220v225h-156v45h156v222q0 221 108.5 338.5t313.5 117.5q234 0 374 -137v-63h-4q-73 79 -162 117t-208 38z" />
    <glyph glyph-name="currency" unicode="&#xa4;" horiz-adv-x="1331" 
d="M1063 680q0 -154 -100 -268l161 -160l-30 -31l-160 162q-114 -100 -268 -100q-155 0 -269 100l-159 -162l-31 31l162 160q-101 115 -101 268t101 268l-162 160l31 31l159 -162q114 100 269 100q154 0 268 -100l160 162l30 -31l-161 -160q100 -114 100 -268zM315 680
q0 -149 101.5 -251.5t249.5 -102.5t249 102.5t101 251.5t-101 251.5t-249 102.5t-249.5 -102.5t-101.5 -251.5z" />
    <glyph glyph-name="yen" unicode="&#xa5;" horiz-adv-x="1331" 
d="M1171 686h-479v-280h479v-46h-479v-360h-49v360h-479v46h479v280h-479v45h467l-522 629h63l496 -602l493 602h62l-523 -629h471v-45z" />
    <glyph glyph-name="brokenbar" unicode="&#xa6;" horiz-adv-x="686" 
d="M319 635v799h46v-799h-46zM319 -389v799h46v-799h-46z" />
    <glyph glyph-name="section" unicode="&#xa7;" horiz-adv-x="1095" 
d="M723 344v-4q97 -26 151 -83.5t54 -166.5q0 -140 -105 -219.5t-291 -79.5q-114 0 -217 30t-168 83v61h5q59 -62 159.5 -95.5t220.5 -33.5q166 0 257.5 66.5t91.5 187.5q0 109 -78.5 163.5t-274.5 72.5q-217 20 -305 86.5t-88 201.5q0 102 63 179t169 110v4
q-94 26 -146.5 83t-52.5 163q0 137 104 219t277 82q105 0 195.5 -24t142.5 -66v-59h-4q-52 50 -139.5 77t-194.5 27q-155 0 -244.5 -68.5t-89.5 -187.5q0 -109 77 -162t273 -71q217 -20 306.5 -87.5t89.5 -203.5q0 -100 -64.5 -176t-173.5 -109zM184 614q0 -111 77 -166
t269 -77q29 -3 78 -11q134 9 218.5 84t84.5 185q0 113 -79 169t-271 76q-1 0 -80 11q-131 -6 -214 -81.5t-83 -189.5z" />
    <glyph glyph-name="dieresis" unicode="&#xa8;" horiz-adv-x="1024" 
d="M328 1305q20 0 33.5 -14t13.5 -34t-13.5 -33.5t-33.5 -13.5t-33.5 13.5t-13.5 33.5t13.5 34t33.5 14zM696 1305q20 0 33.5 -14t13.5 -34t-13.5 -33.5t-33.5 -13.5t-33.5 13.5t-13.5 33.5t13.5 34t33.5 14z" />
    <glyph glyph-name="copyright" unicode="&#xa9;" horiz-adv-x="1650" 
d="M825 1380q198 0 358.5 -91t251.5 -251t91 -358t-91 -358t-251.5 -251t-358.5 -91t-358 91t-251 251t-91 358t91 358t251 251t358 91zM825 1335q-183 0 -332 -85t-234 -235t-85 -335t85 -335t234 -235t332 -85t332.5 85t234.5 235t85 335t-85 335t-234.5 235t-332.5 85z
M840 1049q155 0 243 -82v-58h-4q-85 97 -237 97q-147 0 -237.5 -91t-90.5 -235t90.5 -235t237.5 -91q153 0 237 97h4v-58q-92 -82 -243 -82q-166 0 -270.5 103.5t-104.5 265.5t104.5 265.5t270.5 103.5z" />
    <glyph glyph-name="ordfeminine" unicode="&#xaa;" horiz-adv-x="935" 
d="M795 700h-43v160h-4q-40 -80 -121.5 -126t-186.5 -46q-152 0 -249 97.5t-97 248.5t97 248.5t249 97.5q104 0 186 -45t122 -123h4v144h43v-656zM444 729q132 0 219 86t87 219q0 134 -86.5 219.5t-219.5 85.5t-219 -85.5t-86 -219.5q0 -133 86.5 -219t218.5 -86z" />
    <glyph glyph-name="guillemotleft" unicode="&#xab;" horiz-adv-x="923" 
d="M461 131v-65l-387 407v4l387 408v-66l-328 -344zM809 131v-65l-387 407v4l387 408v-66l-328 -344z" />
    <glyph glyph-name="logicalnot" unicode="&#xac;" horiz-adv-x="1331" 
d="M1210 205h-45v530h-1040v45h1085v-575z" />
    <glyph glyph-name="uni00AD" unicode="&#xad;" horiz-adv-x="757" 
d="M102 530v50h553v-50h-553z" />
    <glyph glyph-name="registered" unicode="&#xae;" horiz-adv-x="1650" 
d="M825 1380q198 0 358.5 -91t251.5 -251t91 -358t-91 -358t-251.5 -251t-358.5 -91t-358 91t-251 251t-91 358t91 358t251 251t358 91zM825 25q183 0 332.5 85t234.5 235t85 335t-85 335t-234.5 235t-332.5 85t-332 -85t-234 -235t-85 -335t85 -335t234 -235t332 -85z
M1122 829q0 -191 -204 -206l225 -301h-58l-225 299h-239v-299h-48v716h308q241 0 241 -209zM621 664h258q194 0 194 165q0 166 -194 166h-258v-331z" />
    <glyph glyph-name="macron" unicode="&#xaf;" horiz-adv-x="1024" 
d="M795 1274v-45h-566v45h566z" />
    <glyph glyph-name="degree" unicode="&#xb0;" horiz-adv-x="792" 
d="M397 1380q127 0 212 -85t85 -212q0 -129 -84.5 -214t-212.5 -85q-129 0 -214 85t-85 214q0 128 85 212.5t214 84.5zM397 1335q-106 0 -178 -72.5t-72 -179.5q0 -108 72 -181t178 -73q105 0 176.5 73t71.5 181q0 107 -71.5 179.5t-176.5 72.5z" />
    <glyph glyph-name="plusminus" unicode="&#xb1;" horiz-adv-x="1331" 
d="M1208 674h-520v-510h-45v510h-520v45h520v510h45v-510h520v-45zM1208 45v-45h-1085v45h1085z" />
    <glyph glyph-name="twosuperior" unicode="&#xb2;" 
d="M702 840v-45h-563v49l144 114q217 174 293.5 266.5t76.5 180.5q0 95 -61 146t-176 51q-148 0 -260 -109h-4v57q53 45 123.5 71t140.5 26q138 0 212 -62t74 -178q0 -100 -79.5 -198t-307.5 -279l-108 -86v-4h495z" />
    <glyph glyph-name="threesuperior" unicode="&#xb3;" 
d="M561 1231v-4q172 -45 172 -209q0 -111 -83 -173.5t-230 -62.5q-92 0 -168 27t-117 74v59h4q41 -54 115.5 -84.5t165.5 -30.5q126 0 195 50.5t69 142.5q0 89 -63.5 136.5t-182.5 47.5h-139v43h121q119 0 182.5 44.5t63.5 129.5q0 86 -66 133.5t-186 47.5q-154 0 -258 -107
h-4v57q45 43 116.5 69t147.5 26q140 0 219.5 -59t79.5 -163q0 -145 -154 -194z" />
    <glyph glyph-name="acute" unicode="&#xb4;" horiz-adv-x="1024" 
d="M471 1116l229 293h60l-240 -293h-49z" />
    <glyph glyph-name="uni00B5" unicode="&#xb5;" horiz-adv-x="1189" 
d="M1028 0h-47v238h-4q-48 -123 -151 -190.5t-248 -67.5q-130 0 -222.5 54t-140.5 154h-4v-577h-49v1339h49v-534q0 -183 98 -287t271 -104q183 0 291 121.5t108 326.5v477h49v-950z" />
    <glyph glyph-name="paragraph" unicode="&#xb6;" horiz-adv-x="1134" 
d="M938 -389h-51v1775h-318v-1775h-51v1028q-215 3 -324.5 103t-109.5 294q0 197 114 297.5t337 100.5h526v-48h-123v-1775z" />
    <glyph glyph-name="periodcentered" unicode="&#xb7;" horiz-adv-x="450" 
d="M225 731q22 0 36.5 -14.5t14.5 -36.5t-14.5 -36.5t-36.5 -14.5t-36.5 14.5t-14.5 36.5t14.5 36.5t36.5 14.5z" />
    <glyph glyph-name="cedilla" unicode="&#xb8;" horiz-adv-x="1024" 
d="M522 -139q64 0 104 -37t40 -94q0 -68 -44.5 -104t-129.5 -36q-94 0 -142 41v56h4q22 -25 59.5 -39.5t78.5 -14.5q61 0 92.5 25.5t31.5 71.5q0 42 -30.5 67t-85.5 25q-40 0 -84 -21v17l96 182h45l-74 -139v-4q24 4 39 4z" />
    <glyph glyph-name="onesuperior" unicode="&#xb9;" 
d="M578 795h-50v780l-235 -156v51l248 164h37v-839z" />
    <glyph glyph-name="ordmasculine" unicode="&#xba;" horiz-adv-x="888" 
d="M444 1380q153 0 252 -97t99 -249t-99 -249t-252 -97t-251.5 97t-98.5 249t98.5 249t251.5 97zM444 1339q-133 0 -219 -85.5t-86 -219.5q0 -133 86.5 -219t218.5 -86t219 86t87 219q0 134 -86.5 219.5t-219.5 85.5z" />
    <glyph glyph-name="guillemotright" unicode="&#xbb;" horiz-adv-x="923" 
d="M115 819v66l387 -408v-4l-387 -407v65l327 344zM463 819v66l387 -408v-4l-387 -407v65l328 344z" />
    <glyph glyph-name="onequarter" unicode="&#xbc;" horiz-adv-x="1970" 
d="M608 0l881 1360h57l-880 -1360h-58zM1798 0h-49v186h-526v43l524 611h51v-609h127v-45h-127v-186zM1284 231h465v543zM578 520h-50v780l-235 -155v51l248 164h37v-840z" />
    <glyph glyph-name="onehalf" unicode="&#xbd;" horiz-adv-x="1970" 
d="M516 0l881 1360h57l-881 -1360h-57zM1833 45v-45h-563v49l143 115q218 175 294.5 266.5t76.5 179.5q0 95 -61.5 146t-176.5 51q-148 0 -260 -109h-4v58q53 44 123.5 70t140.5 26q138 0 212.5 -62.5t74.5 -177.5q0 -100 -79.5 -198t-307.5 -279l-109 -86v-4h496zM578 520
h-50v780l-235 -155v51l248 164h37v-840z" />
    <glyph glyph-name="threequarters" unicode="&#xbe;" horiz-adv-x="1970" 
d="M629 0l880 1360h58l-881 -1360h-57zM1798 0h-49v186h-526v43l524 611h51v-609h127v-45h-127v-186zM1284 231h465v543zM561 956v-4q172 -45 172 -209q0 -110 -82.5 -172.5t-230.5 -62.5q-93 0 -168.5 26.5t-116.5 73.5v60h4q41 -54 115.5 -84.5t165.5 -30.5q126 0 195 50
t69 142q0 89 -63.5 137t-182.5 48h-139v43h121q119 0 182.5 44.5t63.5 129.5q0 86 -66 133t-186 47q-155 0 -258 -106h-4v57q44 43 116 68.5t148 25.5q140 0 219.5 -58.5t79.5 -162.5q0 -146 -154 -195z" />
    <glyph glyph-name="questiondown" unicode="&#xbf;" horiz-adv-x="968" 
d="M504 -20q-207 0 -324 96t-117 266q0 165 109 271t360 182v258h46v-291q-246 -67 -355.5 -166.5t-109.5 -251.5q0 -151 102.5 -234t288.5 -83q122 0 231 46t185 130h4v-64q-79 -75 -190 -117t-230 -42zM555 1278q-22 0 -36.5 14.5t-14.5 36.5t14.5 36.5t36.5 14.5
t36.5 -14.5t14.5 -36.5t-14.5 -36.5t-36.5 -14.5z" />
    <glyph glyph-name="Agrave" unicode="&#xc0;" horiz-adv-x="1464" 
d="M1184 362h-905l-177 -362h-55l662 1360h47l661 -1360h-57zM729 1290l-428 -880h860l-428 880h-4zM725 1509l-240 293h60l229 -293h-49z" />
    <glyph glyph-name="Aacute" unicode="&#xc1;" horiz-adv-x="1464" 
d="M1184 362h-905l-177 -362h-55l662 1360h47l661 -1360h-57zM729 1290l-428 -880h860l-428 880h-4zM690 1509l230 293h59l-240 -293h-49z" />
    <glyph glyph-name="Acircumflex" unicode="&#xc2;" horiz-adv-x="1464" 
d="M1184 362h-905l-177 -362h-55l662 1360h47l661 -1360h-57zM729 1290l-428 -880h860l-428 880h-4zM711 1802h43l233 -293h-49l-205 246l-207 -246h-49z" />
    <glyph glyph-name="Atilde" unicode="&#xc3;" horiz-adv-x="1464" 
d="M1184 362h-905l-177 -362h-55l662 1360h47l661 -1360h-57zM729 1290l-428 -880h860l-428 880h-4zM1016 1739v-70q-55 -96 -158 -96q-62 0 -137 59q-40 31 -64.5 42.5t-50.5 11.5q-92 0 -151 -121h-4v69q56 97 157 97q61 0 137 -60q39 -31 64 -42t51 -11q93 0 152 121h4z
" />
    <glyph glyph-name="Adieresis" unicode="&#xc4;" horiz-adv-x="1464" 
d="M1184 362h-905l-177 -362h-55l662 1360h47l661 -1360h-57zM729 1290l-428 -880h860l-428 880h-4zM549 1698q20 0 33.5 -13.5t13.5 -33.5t-13.5 -33.5t-33.5 -13.5t-33.5 13.5t-13.5 33.5t13.5 33.5t33.5 13.5zM918 1698q20 0 33.5 -13.5t13.5 -33.5t-13.5 -33.5
t-33.5 -13.5t-34 13.5t-14 33.5t14 33.5t34 13.5z" />
    <glyph glyph-name="Aring" unicode="&#xc5;" horiz-adv-x="1464" 
d="M1184 362h-905l-177 -362h-55l662 1360h47l661 -1360h-57zM729 1290l-428 -880h860l-428 880h-4zM733 1808q65 0 107.5 -42.5t42.5 -106.5q0 -65 -42.5 -107.5t-107.5 -42.5q-64 0 -106.5 42.5t-42.5 107.5t42 107t107 42zM733 1767q-44 0 -75 -31t-31 -77t31 -77.5
t75 -31.5t75.5 31.5t31.5 77.5q0 45 -31 76.5t-76 31.5z" />
    <glyph glyph-name="AE" unicode="&#xc6;" horiz-adv-x="2107" 
d="M1090 717h765v-47h-765v-623h913v-47h-965v362h-688l-264 -362h-59l993 1360h983v-47h-913v-596zM1038 1303h-4l-649 -893h653v893z" />
    <glyph glyph-name="Ccedilla" unicode="&#xc7;" horiz-adv-x="1376" 
d="M797 1333q-194 0 -344.5 -83t-233 -231.5t-82.5 -338.5t82.5 -338.5t233 -231.5t344.5 -83q141 0 262 46t205 138h4v-66q-81 -76 -204 -119.5t-259 -45.5l-64 -119v-4q24 4 39 4q64 0 104 -37t40 -94q0 -68 -44.5 -104t-129.5 -36q-94 0 -142 41v56h4q22 -25 59.5 -39.5
t78.5 -14.5q61 0 92.5 25.5t31.5 71.5q0 42 -30.5 67t-85.5 25q-40 0 -84 -21v17l86 162q-300 12 -487 207t-187 493q0 152 52 282t145 222t225.5 144t288.5 52q147 0 268.5 -42.5t202.5 -123.5v-65h-4q-82 91 -203 137.5t-264 46.5z" />
    <glyph glyph-name="Egrave" unicode="&#xc8;" horiz-adv-x="1249" 
d="M997 717v-47h-766v-623h914v-47h-965v1360h965v-47h-914v-596h766zM653 1509l-239 293h59l229 -293h-49z" />
    <glyph glyph-name="Eacute" unicode="&#xc9;" horiz-adv-x="1249" 
d="M997 717v-47h-766v-623h914v-47h-965v1360h965v-47h-914v-596h766zM618 1509l230 293h59l-239 -293h-50z" />
    <glyph glyph-name="Ecircumflex" unicode="&#xca;" horiz-adv-x="1249" 
d="M997 717v-47h-766v-623h914v-47h-965v1360h965v-47h-914v-596h766zM639 1802h43l233 -293h-49l-204 246l-207 -246h-49z" />
    <glyph glyph-name="Edieresis" unicode="&#xcb;" horiz-adv-x="1249" 
d="M997 717v-47h-766v-623h914v-47h-965v1360h965v-47h-914v-596h766zM477 1698q20 0 33.5 -13.5t13.5 -33.5t-13.5 -33.5t-33.5 -13.5t-33.5 13.5t-13.5 33.5t13.5 33.5t33.5 13.5zM846 1698q20 0 33.5 -13.5t13.5 -33.5t-13.5 -33.5t-33.5 -13.5t-33.5 13.5t-13.5 33.5
t13.5 33.5t33.5 13.5z" />
    <glyph glyph-name="Igrave" unicode="&#xcc;" horiz-adv-x="411" 
d="M180 0v1360h51v-1360h-51zM199 1509l-240 293h59l230 -293h-49z" />
    <glyph glyph-name="Iacute" unicode="&#xcd;" horiz-adv-x="411" 
d="M180 0v1360h51v-1360h-51zM164 1509l229 293h60l-240 -293h-49z" />
    <glyph glyph-name="Icircumflex" unicode="&#xce;" horiz-adv-x="411" 
d="M180 0v1360h51v-1360h-51zM184 1802h43l234 -293h-49l-205 246l-207 -246h-49z" />
    <glyph glyph-name="Idieresis" unicode="&#xcf;" horiz-adv-x="411" 
d="M180 0v1360h51v-1360h-51zM23 1698q20 0 33.5 -13.5t13.5 -33.5t-13.5 -33.5t-33.5 -13.5t-34 13.5t-14 33.5t14 33.5t34 13.5zM391 1698q20 0 33.5 -13.5t13.5 -33.5t-13.5 -33.5t-33.5 -13.5t-33.5 13.5t-13.5 33.5t13.5 33.5t33.5 13.5z" />
    <glyph glyph-name="Eth" unicode="&#xd0;" horiz-adv-x="1517" 
d="M207 1360h506q331 0 525 -183t194 -495q0 -315 -193.5 -498.5t-525.5 -183.5h-506v670h-162v47h162v643zM258 47h455q309 0 488 171t179 464q0 292 -179 461.5t-488 169.5h-455v-596h500v-47h-500v-623z" />
    <glyph glyph-name="Ntilde" unicode="&#xd1;" horiz-adv-x="1521" 
d="M1341 0h-59l-1049 1303h-4v-1303h-49v1360h72l1036 -1288h4v1288h49v-1360zM1044 1739v-70q-55 -96 -157 -96q-62 0 -137 59q-40 31 -64.5 42.5t-50.5 11.5q-93 0 -152 -121h-4v69q56 97 158 97q61 0 137 -60q39 -31 64 -42t51 -11q92 0 151 121h4z" />
    <glyph glyph-name="Ograve" unicode="&#xd2;" horiz-adv-x="1572" 
d="M786 1380q152 0 282.5 -52t222.5 -144t144 -222t52 -282t-52 -282t-144 -222t-222.5 -144t-282.5 -52q-203 0 -362.5 89t-248.5 248.5t-89 362.5t89 362.5t248.5 248.5t362.5 89zM786 1333q-188 0 -336 -83t-230.5 -232t-82.5 -338t82.5 -338t230.5 -232t336 -83
t336.5 83t231 232t82.5 338t-82.5 338t-231 232t-336.5 83zM778 1509l-239 293h59l229 -293h-49z" />
    <glyph glyph-name="Oacute" unicode="&#xd3;" horiz-adv-x="1572" 
d="M786 1380q152 0 282.5 -52t222.5 -144t144 -222t52 -282t-52 -282t-144 -222t-222.5 -144t-282.5 -52q-203 0 -362.5 89t-248.5 248.5t-89 362.5t89 362.5t248.5 248.5t362.5 89zM786 1333q-188 0 -336 -83t-230.5 -232t-82.5 -338t82.5 -338t230.5 -232t336 -83
t336.5 83t231 232t82.5 338t-82.5 338t-231 232t-336.5 83zM743 1509l230 293h59l-239 -293h-50z" />
    <glyph glyph-name="Ocircumflex" unicode="&#xd4;" horiz-adv-x="1572" 
d="M786 1380q152 0 282.5 -52t222.5 -144t144 -222t52 -282t-52 -282t-144 -222t-222.5 -144t-282.5 -52q-203 0 -362.5 89t-248.5 248.5t-89 362.5t89 362.5t248.5 248.5t362.5 89zM786 1333q-188 0 -336 -83t-230.5 -232t-82.5 -338t82.5 -338t230.5 -232t336 -83
t336.5 83t231 232t82.5 338t-82.5 338t-231 232t-336.5 83zM764 1802h43l233 -293h-49l-205 246l-206 -246h-50z" />
    <glyph glyph-name="Otilde" unicode="&#xd5;" horiz-adv-x="1572" 
d="M786 1380q152 0 282.5 -52t222.5 -144t144 -222t52 -282t-52 -282t-144 -222t-222.5 -144t-282.5 -52q-203 0 -362.5 89t-248.5 248.5t-89 362.5t89 362.5t248.5 248.5t362.5 89zM786 1333q-188 0 -336 -83t-230.5 -232t-82.5 -338t82.5 -338t230.5 -232t336 -83
t336.5 83t231 232t82.5 338t-82.5 338t-231 232t-336.5 83zM1069 1739v-70q-55 -96 -158 -96q-62 0 -137 59q-40 31 -64.5 42.5t-50.5 11.5q-92 0 -151 -121h-4v69q56 97 158 97q61 0 137 -60q40 -31 64 -42t50 -11q93 0 152 121h4z" />
    <glyph glyph-name="Odieresis" unicode="&#xd6;" horiz-adv-x="1572" 
d="M786 1380q152 0 282.5 -52t222.5 -144t144 -222t52 -282t-52 -282t-144 -222t-222.5 -144t-282.5 -52q-203 0 -362.5 89t-248.5 248.5t-89 362.5t89 362.5t248.5 248.5t362.5 89zM786 1333q-188 0 -336 -83t-230.5 -232t-82.5 -338t82.5 -338t230.5 -232t336 -83
t336.5 83t231 232t82.5 338t-82.5 338t-231 232t-336.5 83zM602 1698q20 0 33.5 -13.5t13.5 -33.5t-13.5 -33.5t-33.5 -13.5t-33.5 13.5t-13.5 33.5t13.5 33.5t33.5 13.5zM971 1698q20 0 33.5 -13.5t13.5 -33.5t-13.5 -33.5t-33.5 -13.5t-33.5 13.5t-13.5 33.5t13.5 33.5
t33.5 13.5z" />
    <glyph glyph-name="multiply" unicode="&#xd7;" horiz-adv-x="1331" 
d="M1155 158l-33 -33l-456 457l-457 -457l-33 33l457 456l-457 457l33 33l457 -457l456 457l33 -33l-457 -457z" />
    <glyph glyph-name="Oslash" unicode="&#xd8;" horiz-adv-x="1572" 
d="M1487 1360l-184 -189q184 -193 184 -491q0 -152 -52 -282t-144 -222t-222.5 -144t-282.5 -52q-289 0 -481 176l-153 -156h-66l184 188q-184 193 -184 492q0 203 89 362.5t248.5 248.5t362.5 89q290 0 482 -176l153 156h66zM137 680q0 -275 168 -457l930 946
q-181 164 -449 164q-188 0 -336 -83t-230.5 -232t-82.5 -338zM1436 680q0 275 -168 457l-930 -947q180 -163 448 -163q188 0 336.5 83t231 232t82.5 338z" />
    <glyph glyph-name="Ugrave" unicode="&#xd9;" horiz-adv-x="1429" 
d="M1284 1360v-795q0 -283 -147 -434t-422 -151t-422.5 151t-147.5 434v795h52v-795q0 -260 134 -399t384 -139q251 0 385.5 139.5t134.5 398.5v795h49zM707 1509l-240 293h59l230 -293h-49z" />
    <glyph glyph-name="Uacute" unicode="&#xda;" horiz-adv-x="1429" 
d="M1284 1360v-795q0 -283 -147 -434t-422 -151t-422.5 151t-147.5 434v795h52v-795q0 -260 134 -399t384 -139q251 0 385.5 139.5t134.5 398.5v795h49zM672 1509l229 293h60l-240 -293h-49z" />
    <glyph glyph-name="Ucircumflex" unicode="&#xdb;" horiz-adv-x="1429" 
d="M1284 1360v-795q0 -283 -147 -434t-422 -151t-422.5 151t-147.5 434v795h52v-795q0 -260 134 -399t384 -139q251 0 385.5 139.5t134.5 398.5v795h49zM692 1802h43l234 -293h-49l-205 246l-207 -246h-49z" />
    <glyph glyph-name="Udieresis" unicode="&#xdc;" horiz-adv-x="1429" 
d="M1284 1360v-795q0 -283 -147 -434t-422 -151t-422.5 151t-147.5 434v795h52v-795q0 -260 134 -399t384 -139q251 0 385.5 139.5t134.5 398.5v795h49zM530 1698q20 0 34 -13.5t14 -33.5t-14 -33.5t-34 -13.5t-33.5 13.5t-13.5 33.5t13.5 33.5t33.5 13.5zM899 1698
q20 0 33.5 -13.5t13.5 -33.5t-13.5 -33.5t-33.5 -13.5t-33.5 13.5t-13.5 33.5t13.5 33.5t33.5 13.5z" />
    <glyph glyph-name="Yacute" unicode="&#xdd;" horiz-adv-x="1310" 
d="M684 0h-51v629l-606 731h69l561 -684l562 684h65l-600 -727v-633zM612 1509l230 293h59l-239 -293h-50z" />
    <glyph glyph-name="Thorn" unicode="&#xde;" horiz-adv-x="1267" 
d="M231 1106h517q223 0 336.5 -100t113.5 -297t-113.5 -297.5t-336.5 -100.5h-517v-311h-51v1360h51v-254zM231 358h517q198 0 298.5 89t100.5 262t-100.5 261.5t-298.5 88.5h-517v-701z" />
    <glyph glyph-name="germandbls" unicode="&#xdf;" horiz-adv-x="1132" 
d="M555 1454q157 0 248.5 -79.5t91.5 -215.5q0 -86 -34.5 -146.5t-119.5 -121.5q-61 -42 -84.5 -76.5t-23.5 -79.5q0 -64 41.5 -101.5t148.5 -66.5q141 -38 198.5 -103.5t57.5 -182.5q0 -143 -96.5 -222t-271.5 -79q-102 0 -196.5 30t-154.5 82v62h5q52 -58 147 -93.5
t199 -35.5q157 0 239 65.5t82 190.5q0 97 -52 153t-181 92q-119 33 -166 80.5t-47 128.5q0 54 27 96t94 91q79 58 110 111t31 126q0 117 -78 183.5t-215 66.5q-184 0 -268 -87.5t-84 -279.5v-1042h-49v1055q0 399 401 399z" />
    <glyph glyph-name="agrave" unicode="&#xe0;" horiz-adv-x="1230" 
d="M1077 0h-47v242h-4q-55 -122 -172.5 -192t-273.5 -70q-216 0 -355 138.5t-139 356.5t139 357t355 139q157 0 274 -69.5t172 -190.5h4v239h47v-950zM584 25q197 0 322.5 126t125.5 324t-125.5 324.5t-322.5 126.5t-323 -126.5t-126 -324.5t126 -324t323 -126zM573 1116
l-239 293h59l230 -293h-50z" />
    <glyph glyph-name="aacute" unicode="&#xe1;" horiz-adv-x="1230" 
d="M1077 0h-47v242h-4q-55 -122 -172.5 -192t-273.5 -70q-216 0 -355 138.5t-139 356.5t139 357t355 139q157 0 274 -69.5t172 -190.5h4v239h47v-950zM584 25q197 0 322.5 126t125.5 324t-125.5 324.5t-322.5 126.5t-323 -126.5t-126 -324.5t126 -324t323 -126zM539 1116
l229 293h59l-239 -293h-49z" />
    <glyph glyph-name="acircumflex" unicode="&#xe2;" horiz-adv-x="1230" 
d="M1077 0h-47v242h-4q-55 -122 -172.5 -192t-273.5 -70q-216 0 -355 138.5t-139 356.5t139 357t355 139q157 0 274 -69.5t172 -190.5h4v239h47v-950zM584 25q197 0 322.5 126t125.5 324t-125.5 324.5t-322.5 126.5t-323 -126.5t-126 -324.5t126 -324t323 -126zM559 1409h43
l234 -293h-50l-204 246l-207 -246h-49z" />
    <glyph glyph-name="atilde" unicode="&#xe3;" horiz-adv-x="1230" 
d="M1077 0h-47v242h-4q-55 -122 -172.5 -192t-273.5 -70q-216 0 -355 138.5t-139 356.5t139 357t355 139q157 0 274 -69.5t172 -190.5h4v239h47v-950zM584 25q197 0 322.5 126t125.5 324t-125.5 324.5t-322.5 126.5t-323 -126.5t-126 -324.5t126 -324t323 -126zM864 1346
v-70q-55 -96 -157 -96q-63 0 -138 59q-40 31 -64 42t-50 11q-93 0 -152 -121h-4v70q55 96 158 96q62 0 137 -59q39 -31 64 -42t51 -11q92 0 151 121h4z" />
    <glyph glyph-name="adieresis" unicode="&#xe4;" horiz-adv-x="1230" 
d="M1077 0h-47v242h-4q-55 -122 -172.5 -192t-273.5 -70q-216 0 -355 138.5t-139 356.5t139 357t355 139q157 0 274 -69.5t172 -190.5h4v239h47v-950zM584 25q197 0 322.5 126t125.5 324t-125.5 324.5t-322.5 126.5t-323 -126.5t-126 -324.5t126 -324t323 -126zM397 1305
q20 0 33.5 -14t13.5 -34t-13.5 -33.5t-33.5 -13.5t-33.5 13.5t-13.5 33.5t13.5 34t33.5 14zM766 1305q20 0 33.5 -14t13.5 -34t-13.5 -33.5t-33.5 -13.5t-33.5 13.5t-13.5 33.5t13.5 34t33.5 14z" />
    <glyph glyph-name="aring" unicode="&#xe5;" horiz-adv-x="1230" 
d="M1077 0h-47v242h-4q-55 -122 -172.5 -192t-273.5 -70q-216 0 -355 138.5t-139 356.5t139 357t355 139q157 0 274 -69.5t172 -190.5h4v239h47v-950zM584 25q197 0 322.5 126t125.5 324t-125.5 324.5t-322.5 126.5t-323 -126.5t-126 -324.5t126 -324t323 -126zM582 1415
q64 0 106.5 -42.5t42.5 -106.5q0 -65 -42.5 -107.5t-106.5 -42.5t-107 43t-43 107t42.5 106.5t107.5 42.5zM582 1374q-44 0 -75.5 -31t-31.5 -77t31.5 -77.5t75.5 -31.5t75 31.5t31 77.5t-31 77t-75 31z" />
    <glyph glyph-name="ae" unicode="&#xe6;" horiz-adv-x="2093" 
d="M2009 473h-932q0 -206 131 -327t355 -121q222 0 376 151h5v-59q-69 -66 -166.5 -101.5t-210.5 -35.5q-182 0 -307 70t-179 192h-4v-242h-47v242h-4q-55 -122 -172.5 -192t-273.5 -70q-216 0 -355 138.5t-139 356.5t139 357t355 139q157 0 274 -69.5t172 -190.5h4v239h47
v-239h4q52 119 169.5 189.5t277.5 70.5q218 0 349.5 -126t131.5 -333v-39zM584 25q197 0 322.5 126t125.5 324t-125.5 324.5t-322.5 126.5t-323 -126.5t-126 -324.5t126 -324t323 -126zM1077 518h887q-2 182 -123.5 295t-316.5 113q-186 0 -310.5 -113.5t-136.5 -294.5z" />
    <glyph glyph-name="ccedilla" unicode="&#xe7;" horiz-adv-x="1030" 
d="M592 926q-205 0 -331 -126.5t-126 -324.5q0 -196 126 -323t331 -127q207 0 330 141h4v-66q-114 -114 -318 -120l-63 -119v-4q24 4 39 4q64 0 103.5 -37t39.5 -94q0 -68 -44.5 -104t-129.5 -36q-93 0 -141 41v56h4q22 -25 59 -39.5t78 -14.5q61 0 93 25.5t32 71.5
q0 42 -31 67t-86 25q-40 0 -84 -21v17l86 162q-217 10 -347 147t-130 348q0 219 139 357.5t367 138.5q216 0 334 -121v-66h-4q-124 142 -330 142z" />
    <glyph glyph-name="egrave" unicode="&#xe8;" horiz-adv-x="1150" 
d="M1067 473h-932q0 -206 131 -327t355 -121q222 0 376 151h4v-59q-143 -137 -380 -137q-246 0 -390.5 133.5t-144.5 361.5q0 218 139 357t357 139q221 0 353 -125.5t132 -333.5v-39zM582 926q-186 0 -309.5 -113t-137.5 -295h887q-2 182 -123.5 295t-316.5 113zM575 1116
l-239 293h59l230 -293h-50z" />
    <glyph glyph-name="eacute" unicode="&#xe9;" horiz-adv-x="1150" 
d="M1067 473h-932q0 -206 131 -327t355 -121q222 0 376 151h4v-59q-143 -137 -380 -137q-246 0 -390.5 133.5t-144.5 361.5q0 218 139 357t357 139q221 0 353 -125.5t132 -333.5v-39zM582 926q-186 0 -309.5 -113t-137.5 -295h887q-2 182 -123.5 295t-316.5 113zM541 1116
l229 293h59l-239 -293h-49z" />
    <glyph glyph-name="ecircumflex" unicode="&#xea;" horiz-adv-x="1150" 
d="M1067 473h-932q0 -206 131 -327t355 -121q222 0 376 151h4v-59q-143 -137 -380 -137q-246 0 -390.5 133.5t-144.5 361.5q0 218 139 357t357 139q221 0 353 -125.5t132 -333.5v-39zM582 926q-186 0 -309.5 -113t-137.5 -295h887q-2 182 -123.5 295t-316.5 113zM561 1409
h43l234 -293h-50l-204 246l-207 -246h-49z" />
    <glyph glyph-name="edieresis" unicode="&#xeb;" horiz-adv-x="1150" 
d="M1067 473h-932q0 -206 131 -327t355 -121q222 0 376 151h4v-59q-143 -137 -380 -137q-246 0 -390.5 133.5t-144.5 361.5q0 218 139 357t357 139q221 0 353 -125.5t132 -333.5v-39zM582 926q-186 0 -309.5 -113t-137.5 -295h887q-2 182 -123.5 295t-316.5 113zM399 1305
q20 0 33.5 -14t13.5 -34t-13.5 -33.5t-33.5 -13.5t-33.5 13.5t-13.5 33.5t13.5 34t33.5 14zM768 1305q20 0 33.5 -14t13.5 -34t-13.5 -33.5t-33.5 -13.5t-33.5 13.5t-13.5 33.5t13.5 34t33.5 14z" />
    <glyph glyph-name="igrave" unicode="&#xec;" horiz-adv-x="356" 
d="M154 0v950h49v-950h-49zM170 1116l-240 293h60l229 -293h-49z" />
    <glyph glyph-name="iacute" unicode="&#xed;" horiz-adv-x="356" 
d="M154 0v950h49v-950h-49zM135 1116l230 293h59l-240 -293h-49z" />
    <glyph glyph-name="icircumflex" unicode="&#xee;" horiz-adv-x="356" 
d="M154 0v950h49v-950h-49zM156 1409h43l233 -293h-49l-205 246l-207 -246h-49z" />
    <glyph glyph-name="idieresis" unicode="&#xef;" horiz-adv-x="356" 
d="M154 0v950h49v-950h-49zM-6 1305q20 0 33.5 -14t13.5 -34t-13.5 -33.5t-33.5 -13.5t-33.5 13.5t-13.5 33.5t13.5 34t33.5 14zM362 1305q20 0 34 -14t14 -34t-14 -33.5t-34 -13.5t-33.5 13.5t-13.5 33.5t13.5 34t33.5 14z" />
    <glyph glyph-name="eth" unicode="&#xf0;" horiz-adv-x="1167" 
d="M938 1290l-158 -63q147 -134 224 -324t77 -420q0 -223 -139 -363t-358 -140t-358.5 138.5t-139.5 356.5t139 357t355 139q143 0 252.5 -58.5t168.5 -162.5h5q-68 277 -273 458l-336 -133v45l299 119q-153 123 -372 191v4h106q178 -61 315 -174l193 75v-45zM584 25
q197 0 322.5 126t125.5 324t-125.5 324.5t-322.5 126.5t-323 -126.5t-126 -324.5t126 -324t323 -126z" />
    <glyph glyph-name="ntilde" unicode="&#xf1;" horiz-adv-x="1146" 
d="M604 971q192 0 304 -116.5t112 -315.5v-539h-49v535q0 183 -98 287t-271 104q-183 0 -291 -121.5t-108 -327.5v-477h-49v950h47v-237h4q48 123 151 190.5t248 67.5zM856 1346v-70q-55 -96 -158 -96q-62 0 -137 59q-39 31 -64 42t-51 11q-92 0 -151 -121h-4v70
q55 96 158 96q62 0 137 -59q40 -31 64 -42t50 -11q93 0 152 121h4z" />
    <glyph glyph-name="ograve" unicode="&#xf2;" horiz-adv-x="1167" 
d="M584 971q218 0 357.5 -139t139.5 -357t-139.5 -356.5t-357.5 -138.5q-219 0 -358.5 138.5t-139.5 356.5t140 357t358 139zM584 926q-197 0 -323 -126.5t-126 -324.5t126 -324t323 -126t322.5 126t125.5 324t-125.5 324.5t-322.5 126.5zM575 1116l-239 293h59l230 -293
h-50z" />
    <glyph glyph-name="oacute" unicode="&#xf3;" horiz-adv-x="1167" 
d="M584 971q218 0 357.5 -139t139.5 -357t-139.5 -356.5t-357.5 -138.5q-219 0 -358.5 138.5t-139.5 356.5t140 357t358 139zM584 926q-197 0 -323 -126.5t-126 -324.5t126 -324t323 -126t322.5 126t125.5 324t-125.5 324.5t-322.5 126.5zM541 1116l229 293h59l-239 -293
h-49z" />
    <glyph glyph-name="ocircumflex" unicode="&#xf4;" horiz-adv-x="1167" 
d="M584 971q218 0 357.5 -139t139.5 -357t-139.5 -356.5t-357.5 -138.5q-219 0 -358.5 138.5t-139.5 356.5t140 357t358 139zM584 926q-197 0 -323 -126.5t-126 -324.5t126 -324t323 -126t322.5 126t125.5 324t-125.5 324.5t-322.5 126.5zM561 1409h43l234 -293h-50
l-204 246l-207 -246h-49z" />
    <glyph glyph-name="otilde" unicode="&#xf5;" horiz-adv-x="1167" 
d="M584 971q218 0 357.5 -139t139.5 -357t-139.5 -356.5t-357.5 -138.5q-219 0 -358.5 138.5t-139.5 356.5t140 357t358 139zM584 926q-197 0 -323 -126.5t-126 -324.5t126 -324t323 -126t322.5 126t125.5 324t-125.5 324.5t-322.5 126.5zM866 1346v-70q-55 -96 -157 -96
q-63 0 -138 59q-40 31 -64 42t-50 11q-93 0 -152 -121h-4v70q55 96 158 96q62 0 137 -59q39 -31 64 -42t51 -11q92 0 151 121h4z" />
    <glyph glyph-name="odieresis" unicode="&#xf6;" horiz-adv-x="1167" 
d="M584 971q218 0 357.5 -139t139.5 -357t-139.5 -356.5t-357.5 -138.5q-219 0 -358.5 138.5t-139.5 356.5t140 357t358 139zM584 926q-197 0 -323 -126.5t-126 -324.5t126 -324t323 -126t322.5 126t125.5 324t-125.5 324.5t-322.5 126.5zM399 1305q20 0 33.5 -14t13.5 -34
t-13.5 -33.5t-33.5 -13.5t-33.5 13.5t-13.5 33.5t13.5 34t33.5 14zM768 1305q20 0 33.5 -14t13.5 -34t-13.5 -33.5t-33.5 -13.5t-33.5 13.5t-13.5 33.5t13.5 34t33.5 14z" />
    <glyph glyph-name="divide" unicode="&#xf7;" horiz-adv-x="1331" 
d="M666 1167q22 0 35.5 -13.5t13.5 -35.5t-13.5 -35.5t-35.5 -13.5t-36 13.5t-14 35.5t14 35.5t36 13.5zM92 592v45h1147v-45h-1147zM666 160q22 0 35.5 -13.5t13.5 -35.5t-13.5 -36t-35.5 -14t-36 14t-14 36t14 35.5t36 13.5z" />
    <glyph glyph-name="oslash" unicode="&#xf8;" horiz-adv-x="1167" 
d="M1081 950l-127 -131q127 -137 127 -344q0 -218 -139.5 -356.5t-357.5 -138.5q-201 0 -338 118l-96 -98h-64l127 131q-127 137 -127 344q0 218 140 357t358 139q200 0 338 -119l96 98h63zM135 475q0 -187 113 -309l639 651q-121 109 -303 109q-197 0 -323 -126.5
t-126 -324.5zM1032 475q0 188 -112 309l-639 -651q120 -108 303 -108q197 0 322.5 126t125.5 324z" />
    <glyph glyph-name="ugrave" unicode="&#xf9;" horiz-adv-x="1146" 
d="M993 0h-47v238h-4q-48 -123 -151 -190.5t-248 -67.5q-192 0 -304 116.5t-112 315.5v538h49v-534q0 -183 98 -287t271 -104q183 0 291 121.5t108 326.5v477h49v-950zM551 1116l-240 293h60l229 -293h-49z" />
    <glyph glyph-name="uacute" unicode="&#xfa;" horiz-adv-x="1146" 
d="M993 0h-47v238h-4q-48 -123 -151 -190.5t-248 -67.5q-192 0 -304 116.5t-112 315.5v538h49v-534q0 -183 98 -287t271 -104q183 0 291 121.5t108 326.5v477h49v-950zM516 1116l229 293h60l-240 -293h-49z" />
    <glyph glyph-name="ucircumflex" unicode="&#xfb;" horiz-adv-x="1146" 
d="M993 0h-47v238h-4q-48 -123 -151 -190.5t-248 -67.5q-192 0 -304 116.5t-112 315.5v538h49v-534q0 -183 98 -287t271 -104q183 0 291 121.5t108 326.5v477h49v-950zM537 1409h43l233 -293h-49l-205 246l-207 -246h-49z" />
    <glyph glyph-name="udieresis" unicode="&#xfc;" horiz-adv-x="1146" 
d="M993 0h-47v238h-4q-48 -123 -151 -190.5t-248 -67.5q-192 0 -304 116.5t-112 315.5v538h49v-534q0 -183 98 -287t271 -104q183 0 291 121.5t108 326.5v477h49v-950zM375 1305q20 0 33.5 -14t13.5 -34t-13.5 -33.5t-33.5 -13.5t-33.5 13.5t-13.5 33.5t13.5 34t33.5 14z
M743 1305q20 0 34 -14t14 -34t-14 -33.5t-34 -13.5t-33.5 13.5t-13.5 33.5t13.5 34t33.5 14z" />
    <glyph glyph-name="yacute" unicode="&#xfd;" horiz-adv-x="987" 
d="M305 -389h-53l215 436l-444 903h55l416 -841h4l413 841h54zM451 1116l229 293h59l-239 -293h-49z" />
    <glyph glyph-name="thorn" unicode="&#xfe;" horiz-adv-x="1230" 
d="M651 971q216 0 355 -139t139 -357t-139 -356.5t-355 -138.5q-155 0 -272 69.5t-172 190.5h-4v-629h-49v1823h49v-723h4q55 121 172 190.5t272 69.5zM647 25q197 0 323 126t126 324t-126 324.5t-323 126.5t-322.5 -126.5t-125.5 -324.5t125.5 -324t322.5 -126z" />
    <glyph glyph-name="ydieresis" unicode="&#xff;" horiz-adv-x="987" 
d="M305 -389h-53l215 436l-444 903h55l416 -841h4l413 841h54zM309 1305q20 0 33.5 -14t13.5 -34t-13.5 -33.5t-33.5 -13.5t-33.5 13.5t-13.5 33.5t13.5 34t33.5 14zM678 1305q20 0 33.5 -14t13.5 -34t-13.5 -33.5t-33.5 -13.5t-33.5 13.5t-13.5 33.5t13.5 34t33.5 14z" />
    <glyph glyph-name="Amacron" unicode="&#x100;" horiz-adv-x="1464" 
d="M1184 362h-905l-177 -362h-55l662 1360h47l661 -1360h-57zM729 1290l-428 -880h860l-428 880h-4zM1016 1667v-45h-565v45h565z" />
    <glyph glyph-name="amacron" unicode="&#x101;" horiz-adv-x="1230" 
d="M1077 0h-47v242h-4q-55 -122 -172.5 -192t-273.5 -70q-216 0 -355 138.5t-139 356.5t139 357t355 139q157 0 274 -69.5t172 -190.5h4v239h47v-950zM584 25q197 0 322.5 126t125.5 324t-125.5 324.5t-322.5 126.5t-323 -126.5t-126 -324.5t126 -324t323 -126zM864 1274
v-45h-565v45h565z" />
    <glyph glyph-name="Abreve" unicode="&#x102;" horiz-adv-x="1464" 
d="M1184 362h-905l-177 -362h-55l662 1360h47l661 -1360h-57zM729 1290l-428 -880h860l-428 880h-4zM973 1769h43q-22 -113 -95 -173t-188 -60t-187.5 60t-94.5 173h43q20 -91 82 -139.5t157 -48.5t157.5 48.5t82.5 139.5z" />
    <glyph glyph-name="abreve" unicode="&#x103;" horiz-adv-x="1230" 
d="M1077 0h-47v242h-4q-55 -122 -172.5 -192t-273.5 -70q-216 0 -355 138.5t-139 356.5t139 357t355 139q157 0 274 -69.5t172 -190.5h4v239h47v-950zM584 25q197 0 322.5 126t125.5 324t-125.5 324.5t-322.5 126.5t-323 -126.5t-126 -324.5t126 -324t323 -126zM821 1376h43
q-22 -113 -94.5 -173t-187.5 -60t-188 60t-95 173h43q20 -91 82.5 -139.5t157.5 -48.5t157 48.5t82 139.5z" />
    <glyph glyph-name="Aogonek" unicode="&#x104;" horiz-adv-x="1464" 
d="M1270 -367q78 0 143 62h4v-57q-60 -48 -147 -48q-76 0 -121 41.5t-45 110.5q0 171 244 285l-164 335h-905l-177 -362h-55l662 1360h47l661 -1360h-28q-114 -50 -176 -115.5t-62 -138.5q0 -50 32.5 -81.5t86.5 -31.5zM729 1290l-428 -880h860l-428 880h-4z" />
    <glyph glyph-name="aogonek" unicode="&#x105;" horiz-adv-x="1230" 
d="M1077 0h-28q-114 -50 -176 -115.5t-62 -138.5q0 -50 32.5 -81.5t86.5 -31.5q78 0 143 62h4v-57q-60 -48 -147 -48q-76 0 -121 41.5t-45 110.5q0 177 266 295v205h-4q-55 -122 -172.5 -192t-273.5 -70q-216 0 -355 138.5t-139 356.5t139 357t355 139q157 0 274 -69.5
t172 -190.5h4v239h47v-950zM584 25q197 0 322.5 126t125.5 324t-125.5 324.5t-322.5 126.5t-323 -126.5t-126 -324.5t126 -324t323 -126z" />
    <glyph glyph-name="Cacute" unicode="&#x106;" horiz-adv-x="1376" 
d="M797 1380q147 0 268.5 -42.5t202.5 -123.5v-65h-4q-82 91 -203 137.5t-264 46.5q-194 0 -344.5 -83t-233 -231.5t-82.5 -338.5t82.5 -338.5t233 -231.5t344.5 -83q141 0 262 46t205 138h4v-66q-83 -78 -208 -121.5t-263 -43.5q-156 0 -288.5 52t-225.5 144t-145 222
t-52 282t52 282t145 222t225.5 144t288.5 52zM723 1509l229 293h60l-240 -293h-49z" />
    <glyph glyph-name="cacute" unicode="&#x107;" horiz-adv-x="1030" 
d="M592 971q216 0 334 -121v-66h-4q-124 142 -330 142q-205 0 -331 -126.5t-126 -324.5q0 -196 126 -323t331 -127q207 0 330 141h4v-66q-117 -120 -334 -120q-228 0 -367 138.5t-139 356.5q0 219 139 357.5t367 138.5zM518 1116l230 293h59l-240 -293h-49z" />
    <glyph glyph-name="Ccircumflex" unicode="&#x108;" horiz-adv-x="1376" 
d="M797 1380q147 0 268.5 -42.5t202.5 -123.5v-65h-4q-82 91 -203 137.5t-264 46.5q-194 0 -344.5 -83t-233 -231.5t-82.5 -338.5t82.5 -338.5t233 -231.5t344.5 -83q141 0 262 46t205 138h4v-66q-83 -78 -208 -121.5t-263 -43.5q-156 0 -288.5 52t-225.5 144t-145 222
t-52 282t52 282t145 222t225.5 144t288.5 52zM743 1802h43l234 -293h-49l-205 246l-207 -246h-49z" />
    <glyph glyph-name="ccircumflex" unicode="&#x109;" horiz-adv-x="1030" 
d="M592 971q216 0 334 -121v-66h-4q-124 142 -330 142q-205 0 -331 -126.5t-126 -324.5q0 -196 126 -323t331 -127q207 0 330 141h4v-66q-117 -120 -334 -120q-228 0 -367 138.5t-139 356.5q0 219 139 357.5t367 138.5zM539 1409h43l233 -293h-49l-205 246l-207 -246h-49z
" />
    <glyph glyph-name="Cdotaccent" unicode="&#x10a;" horiz-adv-x="1376" 
d="M797 1380q147 0 268.5 -42.5t202.5 -123.5v-65h-4q-82 91 -203 137.5t-264 46.5q-194 0 -344.5 -83t-233 -231.5t-82.5 -338.5t82.5 -338.5t233 -231.5t344.5 -83q141 0 262 46t205 138h4v-66q-83 -78 -208 -121.5t-263 -43.5q-156 0 -288.5 52t-225.5 144t-145 222
t-52 282t52 282t145 222t225.5 144t288.5 52zM766 1698q20 0 33.5 -13.5t13.5 -33.5t-13.5 -33.5t-33.5 -13.5t-33.5 13.5t-13.5 33.5t13.5 33.5t33.5 13.5z" />
    <glyph glyph-name="cdotaccent" unicode="&#x10b;" horiz-adv-x="1030" 
d="M592 971q216 0 334 -121v-66h-4q-124 142 -330 142q-205 0 -331 -126.5t-126 -324.5q0 -196 126 -323t331 -127q207 0 330 141h4v-66q-117 -120 -334 -120q-228 0 -367 138.5t-139 356.5q0 219 139 357.5t367 138.5zM561 1305q20 0 33.5 -14t13.5 -34t-13.5 -33.5
t-33.5 -13.5t-33.5 13.5t-13.5 33.5t13.5 34t33.5 14z" />
    <glyph glyph-name="Ccaron" unicode="&#x10c;" horiz-adv-x="1376" 
d="M797 1380q147 0 268.5 -42.5t202.5 -123.5v-65h-4q-82 91 -203 137.5t-264 46.5q-194 0 -344.5 -83t-233 -231.5t-82.5 -338.5t82.5 -338.5t233 -231.5t344.5 -83q141 0 262 46t205 138h4v-66q-83 -78 -208 -121.5t-263 -43.5q-156 0 -288.5 52t-225.5 144t-145 222
t-52 282t52 282t145 222t225.5 144t288.5 52zM743 1509l-233 293h49l207 -246l205 246h49l-234 -293h-43z" />
    <glyph glyph-name="ccaron" unicode="&#x10d;" horiz-adv-x="1030" 
d="M592 971q216 0 334 -121v-66h-4q-124 142 -330 142q-205 0 -331 -126.5t-126 -324.5q0 -196 126 -323t331 -127q207 0 330 141h4v-66q-117 -120 -334 -120q-228 0 -367 138.5t-139 356.5q0 219 139 357.5t367 138.5zM539 1116l-234 293h49l207 -246l205 246h49l-233 -293
h-43z" />
    <glyph glyph-name="Dcaron" unicode="&#x10e;" horiz-adv-x="1490" 
d="M180 1360h506q331 0 525 -183t194 -495q0 -315 -193.5 -498.5t-525.5 -183.5h-506v1360zM231 47h455q309 0 488.5 171t179.5 464q0 292 -179.5 461.5t-488.5 169.5h-455v-1266zM666 1509l-234 293h49l207 -246l205 246h49l-233 -293h-43z" />
    <glyph glyph-name="dcaron" unicode="&#x10f;" horiz-adv-x="1230" 
d="M1077 0h-47v242h-4q-55 -122 -172.5 -192t-273.5 -70q-216 0 -355 138.5t-139 356.5t139 357t355 139q155 0 272 -69.5t172 -190.5h4v723h49v-1434zM584 25q197 0 322.5 126t125.5 324t-125.5 324.5t-322.5 126.5t-323 -126.5t-126 -324.5t126 -324t323 -126zM1184 1098
l67 336h47l-75 -336h-39z" />
    <glyph glyph-name="Dcroat" unicode="&#x110;" horiz-adv-x="1517" 
d="M207 1360h506q331 0 525 -183t194 -495q0 -315 -193.5 -498.5t-525.5 -183.5h-506v670h-162v47h162v643zM258 47h455q309 0 488 171t179 464q0 292 -179 461.5t-488 169.5h-455v-596h500v-47h-500v-623z" />
    <glyph glyph-name="dcroat" unicode="&#x111;" horiz-adv-x="1247" 
d="M1077 0h-47v242h-4q-55 -122 -172.5 -192t-273.5 -70q-216 0 -355 138.5t-139 356.5t139 357t355 139q155 0 272 -69.5t172 -190.5h4v411h-469v45h469v267h49v-267h166v-45h-166v-1122zM584 25q197 0 322.5 126t125.5 324t-125.5 324.5t-322.5 126.5t-323 -126.5
t-126 -324.5t126 -324t323 -126z" />
    <glyph glyph-name="Emacron" unicode="&#x112;" horiz-adv-x="1249" 
d="M997 717v-47h-766v-623h914v-47h-965v1360h965v-47h-914v-596h766zM944 1667v-45h-565v45h565z" />
    <glyph glyph-name="emacron" unicode="&#x113;" horiz-adv-x="1150" 
d="M1067 473h-932q0 -206 131 -327t355 -121q222 0 376 151h4v-59q-143 -137 -380 -137q-246 0 -390.5 133.5t-144.5 361.5q0 218 139 357t357 139q221 0 353 -125.5t132 -333.5v-39zM582 926q-186 0 -309.5 -113t-137.5 -295h887q-2 182 -123.5 295t-316.5 113zM866 1274
v-45h-565v45h565z" />
    <glyph glyph-name="Ebreve" unicode="&#x114;" horiz-adv-x="1249" 
d="M997 717v-47h-766v-623h914v-47h-965v1360h965v-47h-914v-596h766zM901 1769h43q-22 -113 -94.5 -173t-187.5 -60t-188 60t-95 173h43q20 -91 82.5 -139.5t157.5 -48.5t157 48.5t82 139.5z" />
    <glyph glyph-name="ebreve" unicode="&#x115;" horiz-adv-x="1150" 
d="M1067 473h-932q0 -206 131 -327t355 -121q222 0 376 151h4v-59q-143 -137 -380 -137q-246 0 -390.5 133.5t-144.5 361.5q0 218 139 357t357 139q221 0 353 -125.5t132 -333.5v-39zM582 926q-186 0 -309.5 -113t-137.5 -295h887q-2 182 -123.5 295t-316.5 113zM823 1376
h43q-22 -113 -94.5 -173t-187.5 -60t-188 60t-95 173h43q20 -91 82.5 -139.5t157.5 -48.5t157 48.5t82 139.5z" />
    <glyph glyph-name="Edotaccent" unicode="&#x116;" horiz-adv-x="1249" 
d="M997 717v-47h-766v-623h914v-47h-965v1360h965v-47h-914v-596h766zM662 1698q20 0 33.5 -13.5t13.5 -33.5t-13.5 -33.5t-33.5 -13.5t-34 13.5t-14 33.5t14 33.5t34 13.5z" />
    <glyph glyph-name="edotaccent" unicode="&#x117;" horiz-adv-x="1150" 
d="M1067 473h-932q0 -206 131 -327t355 -121q222 0 376 151h4v-59q-143 -137 -380 -137q-246 0 -390.5 133.5t-144.5 361.5q0 218 139 357t357 139q221 0 353 -125.5t132 -333.5v-39zM582 926q-186 0 -309.5 -113t-137.5 -295h887q-2 182 -123.5 295t-316.5 113zM584 1305
q20 0 33.5 -14t13.5 -34t-13.5 -33.5t-33.5 -13.5t-33.5 13.5t-13.5 33.5t13.5 34t33.5 14z" />
    <glyph glyph-name="Eogonek" unicode="&#x118;" horiz-adv-x="1249" 
d="M231 717h766v-47h-766v-623h914v-47h-29q-113 -50 -175 -115.5t-62 -138.5q0 -50 32.5 -81.5t85.5 -31.5q79 0 144 62h4v-57q-60 -48 -148 -48q-76 0 -121 41.5t-45 110.5q0 149 187 254v4h-838v1360h965v-47h-914v-596z" />
    <glyph glyph-name="eogonek" unicode="&#x119;" horiz-adv-x="1150" 
d="M1067 473h-932q0 -206 131 -327t355 -121q222 0 376 151h4v-59q-43 -40 -86 -66q-119 -69 -178 -139.5t-59 -155.5q0 -51 35 -87t90 -36q78 0 143 62h4v-57q-60 -48 -147 -48q-76 0 -124 46t-48 116q0 127 121 236v4q-61 -12 -131 -12q-246 0 -390.5 133.5t-144.5 361.5
q0 218 139 357t357 139q221 0 353 -125.5t132 -333.5v-39zM135 518h887q-2 182 -123.5 295t-316.5 113q-186 0 -309.5 -113t-137.5 -295z" />
    <glyph glyph-name="Ecaron" unicode="&#x11a;" horiz-adv-x="1249" 
d="M997 717v-47h-766v-623h914v-47h-965v1360h965v-47h-914v-596h766zM639 1509l-233 293h49l207 -246l204 246h49l-233 -293h-43z" />
    <glyph glyph-name="ecaron" unicode="&#x11b;" horiz-adv-x="1150" 
d="M1067 473h-932q0 -206 131 -327t355 -121q222 0 376 151h4v-59q-143 -137 -380 -137q-246 0 -390.5 133.5t-144.5 361.5q0 218 139 357t357 139q221 0 353 -125.5t132 -333.5v-39zM582 926q-186 0 -309.5 -113t-137.5 -295h887q-2 182 -123.5 295t-316.5 113zM561 1116
l-233 293h49l207 -246l204 246h50l-234 -293h-43z" />
    <glyph glyph-name="Gcircumflex" unicode="&#x11c;" horiz-adv-x="1452" 
d="M803 1333q-298 0 -482 -179.5t-184 -473.5t184 -473.5t482 -179.5q151 0 262 34.5t203 110.5v412h-520v47h569v-486q-191 -165 -514 -165q-212 0 -375 86.5t-252.5 245.5t-89.5 368t89.5 368t252.5 245.5t375 86.5q322 0 514 -166v-65h-4q-102 97 -222 140.5t-288 43.5z
M758 1802h43l233 -293h-49l-205 246l-207 -246h-49z" />
    <glyph glyph-name="gcircumflex" unicode="&#x11d;" horiz-adv-x="1230" 
d="M1077 950v-874q0 -232 -128 -359t-363 -127q-133 0 -241 41t-173 115v64h4q136 -175 410 -175q212 0 327 114.5t115 326.5v164h-4q-55 -121 -172 -190.5t-272 -69.5q-216 0 -355 138.5t-139 356.5t139 357t355 139q156 0 273.5 -70t172.5 -192h4v241h47zM584 25
q197 0 322.5 126t125.5 324t-125.5 324.5t-322.5 126.5t-323 -126.5t-126 -324.5t126 -324t323 -126zM559 1409h43l234 -293h-50l-204 246l-207 -246h-49z" />
    <glyph glyph-name="Gbreve" unicode="&#x11e;" horiz-adv-x="1452" 
d="M803 1333q-298 0 -482 -179.5t-184 -473.5t184 -473.5t482 -179.5q151 0 262 34.5t203 110.5v412h-520v47h569v-486q-191 -165 -514 -165q-212 0 -375 86.5t-252.5 245.5t-89.5 368t89.5 368t252.5 245.5t375 86.5q322 0 514 -166v-65h-4q-102 97 -222 140.5t-288 43.5z
M1020 1769h43q-22 -113 -95 -173t-188 -60t-187.5 60t-94.5 173h43q20 -91 82 -139.5t157 -48.5t157.5 48.5t82.5 139.5z" />
    <glyph glyph-name="gbreve" unicode="&#x11f;" horiz-adv-x="1230" 
d="M1077 950v-874q0 -232 -128 -359t-363 -127q-133 0 -241 41t-173 115v64h4q136 -175 410 -175q212 0 327 114.5t115 326.5v164h-4q-55 -121 -172 -190.5t-272 -69.5q-216 0 -355 138.5t-139 356.5t139 357t355 139q156 0 273.5 -70t172.5 -192h4v241h47zM584 25
q197 0 322.5 126t125.5 324t-125.5 324.5t-322.5 126.5t-323 -126.5t-126 -324.5t126 -324t323 -126zM821 1376h43q-22 -113 -94.5 -173t-187.5 -60t-188 60t-95 173h43q20 -91 82.5 -139.5t157.5 -48.5t157 48.5t82 139.5z" />
    <glyph glyph-name="Gdotaccent" unicode="&#x120;" horiz-adv-x="1452" 
d="M803 1333q-298 0 -482 -179.5t-184 -473.5t184 -473.5t482 -179.5q151 0 262 34.5t203 110.5v412h-520v47h569v-486q-191 -165 -514 -165q-212 0 -375 86.5t-252.5 245.5t-89.5 368t89.5 368t252.5 245.5t375 86.5q322 0 514 -166v-65h-4q-102 97 -222 140.5t-288 43.5z
M780 1698q20 0 33.5 -13.5t13.5 -33.5t-13.5 -33.5t-33.5 -13.5t-33.5 13.5t-13.5 33.5t13.5 33.5t33.5 13.5z" />
    <glyph glyph-name="gdotaccent" unicode="&#x121;" horiz-adv-x="1230" 
d="M1077 950v-874q0 -232 -128 -359t-363 -127q-133 0 -241 41t-173 115v64h4q136 -175 410 -175q212 0 327 114.5t115 326.5v164h-4q-55 -121 -172 -190.5t-272 -69.5q-216 0 -355 138.5t-139 356.5t139 357t355 139q156 0 273.5 -70t172.5 -192h4v241h47zM584 25
q197 0 322.5 126t125.5 324t-125.5 324.5t-322.5 126.5t-323 -126.5t-126 -324.5t126 -324t323 -126zM582 1305q20 0 33.5 -14t13.5 -34t-13.5 -33.5t-33.5 -13.5t-33.5 13.5t-13.5 33.5t13.5 34t33.5 14z" />
    <glyph glyph-name="uni0122" unicode="&#x122;" horiz-adv-x="1452" 
d="M803 1333q-298 0 -482 -179.5t-184 -473.5t184 -473.5t482 -179.5q151 0 262 34.5t203 110.5v412h-520v47h569v-486q-191 -165 -514 -165q-212 0 -375 86.5t-252.5 245.5t-89.5 368t89.5 368t252.5 245.5t375 86.5q322 0 514 -166v-65h-4q-102 97 -222 140.5t-288 43.5z
M528 -430l228 291h59l-237 -291h-50z" />
    <glyph glyph-name="uni0123" unicode="&#x123;" horiz-adv-x="1230" 
d="M819 1409l-229 -293h-60l240 293h49zM1077 950v-874q0 -232 -128 -359t-363 -127q-133 0 -241 41t-173 115v64h4q136 -175 410 -175q212 0 327 114.5t115 326.5v164h-4q-55 -121 -172 -190.5t-272 -69.5q-216 0 -355 138.5t-139 356.5t139 357t355 139q156 0 273.5 -70
t172.5 -192h4v241h47zM584 25q197 0 322.5 126t125.5 324t-125.5 324.5t-322.5 126.5t-323 -126.5t-126 -324.5t126 -324t323 -126z" />
    <glyph glyph-name="Hcircumflex" unicode="&#x124;" horiz-adv-x="1511" 
d="M1280 0v670h-1049v-670h-51v1360h51v-643h1049v643h51v-1360h-51zM733 1802h43l234 -293h-49l-205 246l-207 -246h-49z" />
    <glyph glyph-name="hcircumflex" unicode="&#x125;" horiz-adv-x="1146" 
d="M604 971q192 0 304 -116.5t112 -315.5v-539h-49v535q0 183 -98 287t-271 104q-183 0 -291 -121.5t-108 -327.5v-477h-49v1434h49v-717h4q48 121 150.5 187.5t246.5 66.5zM156 1866h43l233 -293h-49l-205 246l-207 -246h-49z" />
    <glyph glyph-name="Hbar" unicode="&#x126;" horiz-adv-x="1515" 
d="M1333 0h-51v670h-1049v-670h-51v981h-133v47h133v332h51v-332h1049v332h51v-332h133v-47h-133v-981zM233 717h1049v264h-1049v-264z" />
    <glyph glyph-name="hbar" unicode="&#x127;" horiz-adv-x="1150" 
d="M608 971q192 0 304 -116.5t112 -315.5v-539h-49v535q0 183 -98 287t-271 104q-183 0 -291 -121.5t-108 -327.5v-477h-49v1122h-154v45h154v267h49v-267h416v-45h-416v-405h4q48 121 150.5 187.5t246.5 66.5z" />
    <glyph glyph-name="Itilde" unicode="&#x128;" horiz-adv-x="411" 
d="M180 0v1360h51v-1360h-51zM489 1739v-70q-55 -96 -157 -96q-62 0 -137 59q-40 31 -64.5 42.5t-50.5 11.5q-93 0 -152 -121h-4v69q56 97 158 97q61 0 137 -60q39 -31 64 -42t51 -11q92 0 151 121h4z" />
    <glyph glyph-name="itilde" unicode="&#x129;" horiz-adv-x="356" 
d="M154 0v950h49v-950h-49zM461 1346v-70q-55 -96 -158 -96q-62 0 -137 59q-39 31 -64 42t-51 11q-92 0 -151 -121h-4v70q55 96 157 96q62 0 137 -59q39 -31 64 -42t51 -11q93 0 152 121h4z" />
    <glyph glyph-name="Imacron" unicode="&#x12a;" horiz-adv-x="411" 
d="M180 0v1360h51v-1360h-51zM489 1667v-45h-565v45h565z" />
    <glyph glyph-name="imacron" unicode="&#x12b;" horiz-adv-x="356" 
d="M154 0v950h49v-950h-49zM461 1274v-45h-565v45h565z" />
    <glyph glyph-name="Ibreve" unicode="&#x12c;" horiz-adv-x="411" 
d="M180 0v1360h51v-1360h-51zM446 1769h43q-22 -113 -94.5 -173t-187.5 -60t-188 60t-95 173h43q20 -91 82.5 -139.5t157.5 -48.5t157 48.5t82 139.5z" />
    <glyph glyph-name="ibreve" unicode="&#x12d;" horiz-adv-x="356" 
d="M154 0v950h49v-950h-49zM418 1376h43q-22 -113 -95 -173t-188 -60t-187.5 60t-94.5 173h43q20 -91 82 -139.5t157 -48.5t157.5 48.5t82.5 139.5z" />
    <glyph glyph-name="Iogonek" unicode="&#x12e;" horiz-adv-x="411" 
d="M303 -305v-57q-60 -48 -147 -48q-76 0 -121 41.5t-45 110.5q0 76 46.5 141t143.5 131v1346h51v-1360q-99 -64 -146.5 -125t-47.5 -129q0 -50 32.5 -81.5t86.5 -31.5q78 0 143 62h4z" />
    <glyph glyph-name="iogonek" unicode="&#x12f;" horiz-adv-x="356" 
d="M266 -305v-57q-60 -48 -147 -48q-76 0 -121 41.5t-45 110.5q0 78 49 144.5t152 133.5v930h49v-950h-8q-99 -65 -147 -125.5t-48 -128.5q0 -50 32.5 -81.5t86.5 -31.5q78 0 143 62h4zM178 1305q20 0 33.5 -14t13.5 -34t-13.5 -33.5t-33.5 -13.5t-33.5 13.5t-13.5 33.5
t13.5 34t33.5 14z" />
    <glyph glyph-name="Idotaccent" unicode="&#x130;" horiz-adv-x="411" 
d="M180 0v1360h51v-1360h-51zM207 1698q20 0 33.5 -13.5t13.5 -33.5t-13.5 -33.5t-33.5 -13.5t-33.5 13.5t-13.5 33.5t13.5 33.5t33.5 13.5z" />
    <glyph glyph-name="dotlessi" unicode="&#x131;" horiz-adv-x="356" 
d="M154 0v950h49v-950h-49z" />
    <glyph glyph-name="IJ" unicode="&#x132;" horiz-adv-x="1439" 
d="M180 0v1360h51v-1360h-51zM1294 1360v-942q0 -204 -115 -321t-317 -117q-247 0 -399 155v66h4q67 -85 169.5 -129.5t227.5 -44.5q181 0 280 102.5t99 288.5v942h51z" />
    <glyph glyph-name="ij" unicode="&#x133;" horiz-adv-x="712" 
d="M178 1305q20 0 33.5 -14t13.5 -34t-13.5 -33.5t-33.5 -13.5t-33.5 13.5t-13.5 33.5t13.5 34t33.5 14zM154 0v950h49v-950h-49zM535 1305q20 0 33.5 -14t13.5 -34t-13.5 -33.5t-33.5 -13.5t-34 13.5t-14 33.5t14 34t34 14zM559 950v-1147q0 -114 -39.5 -163.5
t-128.5 -49.5q-55 0 -98 21v51h4q43 -27 94 -27q66 0 92.5 37t26.5 131v1147h49z" />
    <glyph glyph-name="Jcircumflex" unicode="&#x134;" horiz-adv-x="1028" 
d="M883 1360v-942q0 -204 -115 -321t-317 -117q-120 0 -223.5 40t-176.5 115v66h4q67 -84 170 -129t228 -45q181 0 279.5 102.5t98.5 288.5v942h52zM834 1802h43l233 -293h-49l-205 246l-207 -246h-49z" />
    <glyph glyph-name="jcircumflex" unicode="&#x135;" horiz-adv-x="356" 
d="M203 950v-1147q0 -114 -39.5 -163.5t-128.5 -49.5q-55 0 -98 21v51h4q43 -27 94 -27q66 0 92.5 37t26.5 131v1147h49zM156 1409h43l233 -293h-49l-205 246l-207 -246h-49z" />
    <glyph glyph-name="uni0136" unicode="&#x136;" horiz-adv-x="1214" 
d="M231 674v-674h-51v1360h51v-660l832 660h84l-854 -672l874 -688h-86zM393 -430l228 291h59l-238 -291h-49z" />
    <glyph glyph-name="uni0137" unicode="&#x137;" horiz-adv-x="909" 
d="M203 0h-49v1434h49v-934l575 450h74l-596 -467l616 -483h-77l-592 463v-463zM240 -430l227 291h59l-237 -291h-49z" />
    <glyph glyph-name="kgreenlandic" unicode="&#x138;" horiz-adv-x="909" 
d="M203 0h-49v950h49v-452l575 452h74l-596 -467l616 -483h-77l-592 465v-465z" />
    <glyph glyph-name="Lacute" unicode="&#x139;" horiz-adv-x="1169" 
d="M180 0v1360h51v-1313h887v-47h-938zM164 1509l229 293h60l-240 -293h-49z" />
    <glyph glyph-name="lacute" unicode="&#x13a;" horiz-adv-x="356" 
d="M154 0v1434h49v-1434h-49zM135 1573l230 293h59l-240 -293h-49z" />
    <glyph glyph-name="uni013B" unicode="&#x13b;" horiz-adv-x="1169" 
d="M180 0v1360h51v-1313h887v-47h-938zM375 -430l227 291h60l-238 -291h-49z" />
    <glyph glyph-name="uni013C" unicode="&#x13c;" horiz-adv-x="356" 
d="M154 0v1434h49v-1434h-49zM-74 -430l228 291h59l-238 -291h-49z" />
    <glyph glyph-name="Lcaron" unicode="&#x13d;" horiz-adv-x="1169" 
d="M180 0v1360h51v-1313h887v-47h-938zM451 1098l67 336h47l-76 -336h-38z" />
    <glyph glyph-name="lcaron" unicode="&#x13e;" horiz-adv-x="356" 
d="M154 0v1434h49v-1434h-49zM297 1098l68 336h47l-76 -336h-39z" />
    <glyph glyph-name="Ldot" unicode="&#x13f;" horiz-adv-x="1169" 
d="M180 0v1360h51v-1313h887v-47h-938zM786 727q20 0 34 -13.5t14 -33.5t-14 -33.5t-34 -13.5t-33.5 13.5t-13.5 33.5t13.5 33.5t33.5 13.5z" />
    <glyph glyph-name="ldot" unicode="&#x140;" horiz-adv-x="356" 
d="M154 0v1434h49v-1434h-49zM356 727q20 0 33.5 -13.5t13.5 -33.5t-13.5 -33.5t-33.5 -13.5t-33.5 13.5t-13.5 33.5t13.5 33.5t33.5 13.5z" />
    <glyph glyph-name="Lslash" unicode="&#x141;" horiz-adv-x="1193" 
d="M1143 0h-938v483l-162 -100v53l162 101v823h51v-793l627 387v-53l-627 -387v-467h887v-47z" />
    <glyph glyph-name="lslash" unicode="&#x142;" horiz-adv-x="401" 
d="M209 745v-745h-49v705l-154 -123v53l154 123v676h49v-635l186 149v-53z" />
    <glyph glyph-name="Nacute" unicode="&#x143;" horiz-adv-x="1521" 
d="M1341 0h-59l-1049 1303h-4v-1303h-49v1360h72l1036 -1288h4v1288h49v-1360zM719 1509l229 293h60l-240 -293h-49z" />
    <glyph glyph-name="nacute" unicode="&#x144;" horiz-adv-x="1146" 
d="M604 971q192 0 304 -116.5t112 -315.5v-539h-49v535q0 183 -98 287t-271 104q-183 0 -291 -121.5t-108 -327.5v-477h-49v950h47v-237h4q48 123 151 190.5t248 67.5zM530 1116l230 293h59l-239 -293h-50z" />
    <glyph glyph-name="uni0145" unicode="&#x145;" horiz-adv-x="1521" 
d="M1341 0h-59l-1049 1303h-4v-1303h-49v1360h72l1036 -1288h4v1288h49v-1360zM510 -430l227 291h60l-238 -291h-49z" />
    <glyph glyph-name="uni0146" unicode="&#x146;" horiz-adv-x="1146" 
d="M604 971q192 0 304 -116.5t112 -315.5v-539h-49v535q0 183 -98 287t-271 104q-183 0 -291 -121.5t-108 -327.5v-477h-49v950h47v-237h4q48 123 151 190.5t248 67.5zM334 -430l227 291h60l-238 -291h-49z" />
    <glyph glyph-name="Ncaron" unicode="&#x147;" horiz-adv-x="1521" 
d="M1341 0h-59l-1049 1303h-4v-1303h-49v1360h72l1036 -1288h4v1288h49v-1360zM739 1509l-233 293h49l207 -246l205 246h49l-234 -293h-43z" />
    <glyph glyph-name="ncaron" unicode="&#x148;" horiz-adv-x="1146" 
d="M604 971q192 0 304 -116.5t112 -315.5v-539h-49v535q0 183 -98 287t-271 104q-183 0 -291 -121.5t-108 -327.5v-477h-49v950h47v-237h4q48 123 151 190.5t248 67.5zM551 1116l-234 293h50l206 -246l205 246h49l-233 -293h-43z" />
    <glyph glyph-name="napostrophe" unicode="&#x149;" horiz-adv-x="1146" 
d="M68 1434h49q0 -197 -60 -332h-41q54 120 54 284q0 32 -2 48zM604 971q192 0 304 -116.5t112 -315.5v-539h-49v535q0 183 -98 287t-271 104q-183 0 -291 -121.5t-108 -327.5v-477h-49v950h47v-237h4q48 123 151 190.5t248 67.5z" />
    <glyph glyph-name="Eng" unicode="&#x14a;" horiz-adv-x="1521" 
d="M1341 1360v-1557q0 -114 -39 -163.5t-128 -49.5q-56 0 -99 21v51h4q43 -27 95 -27q66 0 92 37t26 131v185l-1059 1315h-4v-1303h-49v1360h72l1036 -1288h4v1288h49z" />
    <glyph glyph-name="eng" unicode="&#x14b;" horiz-adv-x="1146" 
d="M604 971q192 0 304 -116.5t112 -315.5v-736q0 -113 -39.5 -163t-128.5 -50q-54 0 -98 21v51h4q44 -27 94 -27q66 0 92.5 37t26.5 131v732q0 183 -98 287t-271 104q-183 0 -291 -121.5t-108 -327.5v-477h-49v950h47v-237h4q48 123 151 190.5t248 67.5z" />
    <glyph glyph-name="Omacron" unicode="&#x14c;" horiz-adv-x="1572" 
d="M786 1380q152 0 282.5 -52t222.5 -144t144 -222t52 -282t-52 -282t-144 -222t-222.5 -144t-282.5 -52q-203 0 -362.5 89t-248.5 248.5t-89 362.5t89 362.5t248.5 248.5t362.5 89zM786 1333q-188 0 -336 -83t-230.5 -232t-82.5 -338t82.5 -338t230.5 -232t336 -83
t336.5 83t231 232t82.5 338t-82.5 338t-231 232t-336.5 83zM1069 1667v-45h-565v45h565z" />
    <glyph glyph-name="omacron" unicode="&#x14d;" horiz-adv-x="1167" 
d="M584 971q218 0 357.5 -139t139.5 -357t-139.5 -356.5t-357.5 -138.5q-219 0 -358.5 138.5t-139.5 356.5t140 357t358 139zM584 926q-197 0 -323 -126.5t-126 -324.5t126 -324t323 -126t322.5 126t125.5 324t-125.5 324.5t-322.5 126.5zM866 1274v-45h-565v45h565z" />
    <glyph glyph-name="Obreve" unicode="&#x14e;" horiz-adv-x="1572" 
d="M786 1380q152 0 282.5 -52t222.5 -144t144 -222t52 -282t-52 -282t-144 -222t-222.5 -144t-282.5 -52q-203 0 -362.5 89t-248.5 248.5t-89 362.5t89 362.5t248.5 248.5t362.5 89zM786 1333q-188 0 -336 -83t-230.5 -232t-82.5 -338t82.5 -338t230.5 -232t336 -83
t336.5 83t231 232t82.5 338t-82.5 338t-231 232t-336.5 83zM1026 1769h43q-22 -113 -95 -173t-188 -60t-187.5 60t-94.5 173h43q20 -91 82 -139.5t157 -48.5t157.5 48.5t82.5 139.5z" />
    <glyph glyph-name="obreve" unicode="&#x14f;" horiz-adv-x="1167" 
d="M584 971q218 0 357.5 -139t139.5 -357t-139.5 -356.5t-357.5 -138.5q-219 0 -358.5 138.5t-139.5 356.5t140 357t358 139zM584 926q-197 0 -323 -126.5t-126 -324.5t126 -324t323 -126t322.5 126t125.5 324t-125.5 324.5t-322.5 126.5zM823 1376h43q-22 -113 -94.5 -173
t-187.5 -60t-188 60t-95 173h43q20 -91 82.5 -139.5t157.5 -48.5t157 48.5t82 139.5z" />
    <glyph glyph-name="Ohungarumlaut" unicode="&#x150;" horiz-adv-x="1572" 
d="M786 1380q152 0 282.5 -52t222.5 -144t144 -222t52 -282t-52 -282t-144 -222t-222.5 -144t-282.5 -52q-203 0 -362.5 89t-248.5 248.5t-89 362.5t89 362.5t248.5 248.5t362.5 89zM786 1333q-188 0 -336 -83t-230.5 -232t-82.5 -338t82.5 -338t230.5 -232t336 -83
t336.5 83t231 232t82.5 338t-82.5 338t-231 232t-336.5 83zM590 1509l229 293h60l-240 -293h-49zM897 1509l229 293h60l-240 -293h-49z" />
    <glyph glyph-name="ohungarumlaut" unicode="&#x151;" horiz-adv-x="1167" 
d="M584 971q218 0 357.5 -139t139.5 -357t-139.5 -356.5t-357.5 -138.5q-219 0 -358.5 138.5t-139.5 356.5t140 357t358 139zM584 926q-197 0 -323 -126.5t-126 -324.5t126 -324t323 -126t322.5 126t125.5 324t-125.5 324.5t-322.5 126.5zM387 1116l229 293h60l-240 -293
h-49zM694 1116l230 293h59l-240 -293h-49z" />
    <glyph glyph-name="OE" unicode="&#x152;" horiz-adv-x="2328" 
d="M2077 717v-47h-766v-623h913v-47h-1419q-332 0 -525.5 183.5t-193.5 498.5q0 312 194 495t525 183h1419v-47h-913v-596h766zM1260 1313h-455q-309 0 -488.5 -169.5t-179.5 -461.5q0 -293 179.5 -464t488.5 -171h455v1266z" />
    <glyph glyph-name="oe" unicode="&#x153;" horiz-adv-x="2097" 
d="M2013 473h-932q0 -206 131 -327t355 -121q223 0 377 151h4v-59q-143 -137 -381 -137q-200 0 -332.5 88.5t-175.5 248.5h-4q-45 -155 -170.5 -246t-300.5 -91q-219 0 -358.5 138.5t-139.5 356.5t140 357t358 139q176 0 302 -92t169 -248h4q43 156 168 248t301 92
q221 0 353 -125.5t132 -333.5v-39zM584 25q197 0 322.5 126t125.5 324t-125.5 324.5t-322.5 126.5t-323 -126.5t-126 -324.5t126 -324t323 -126zM1081 518h887q-2 182 -123.5 295t-316.5 113q-186 0 -309.5 -113t-137.5 -295z" />
    <glyph glyph-name="Racute" unicode="&#x154;" horiz-adv-x="1329" 
d="M231 0h-51v1360h578q223 0 336.5 -98.5t113.5 -290.5q0 -173 -93.5 -270.5t-276.5 -114.5l409 -586h-63l-406 582h-547v-582zM231 629h527q198 0 298.5 86.5t100.5 255.5t-100.5 255.5t-298.5 86.5h-527v-684zM600 1509l229 293h60l-240 -293h-49z" />
    <glyph glyph-name="racute" unicode="&#x155;" horiz-adv-x="700" 
d="M526 971q82 0 150 -37v-57h-4q-64 47 -148 47q-158 0 -239.5 -117.5t-81.5 -339.5v-467h-49v950h47v-217h4q82 238 321 238zM319 1116l230 293h59l-239 -293h-50z" />
    <glyph glyph-name="uni0156" unicode="&#x156;" horiz-adv-x="1329" 
d="M231 0h-51v1360h578q223 0 336.5 -98.5t113.5 -290.5q0 -173 -93.5 -270.5t-276.5 -114.5l409 -586h-63l-406 582h-547v-582zM231 629h527q198 0 298.5 86.5t100.5 255.5t-100.5 255.5t-298.5 86.5h-527v-684zM444 -430l228 291h59l-237 -291h-50z" />
    <glyph glyph-name="uni0157" unicode="&#x157;" horiz-adv-x="700" 
d="M526 971q82 0 150 -37v-57h-4q-64 47 -148 47q-158 0 -239.5 -117.5t-81.5 -339.5v-467h-49v950h47v-217h4q82 238 321 238zM-74 -430l228 291h59l-238 -291h-49z" />
    <glyph glyph-name="Rcaron" unicode="&#x158;" horiz-adv-x="1329" 
d="M231 0h-51v1360h578q223 0 336.5 -98.5t113.5 -290.5q0 -173 -93.5 -270.5t-276.5 -114.5l409 -586h-63l-406 582h-547v-582zM231 629h527q198 0 298.5 86.5t100.5 255.5t-100.5 255.5t-298.5 86.5h-527v-684zM621 1509l-234 293h49l207 -246l205 246h49l-233 -293h-43z
" />
    <glyph glyph-name="rcaron" unicode="&#x159;" horiz-adv-x="700" 
d="M526 971q82 0 150 -37v-57h-4q-64 47 -148 47q-158 0 -239.5 -117.5t-81.5 -339.5v-467h-49v950h47v-217h4q82 238 321 238zM340 1116l-234 293h50l206 -246l205 246h49l-233 -293h-43z" />
    <glyph glyph-name="Sacute" unicode="&#x15a;" horiz-adv-x="1165" 
d="M573 1380q149 0 267 -36.5t184 -102.5v-63h-4q-66 75 -181.5 115t-265.5 40q-186 0 -302.5 -91.5t-116.5 -237.5q0 -134 95.5 -198t338.5 -85q275 -24 386 -108.5t111 -258.5q0 -172 -131.5 -273t-355.5 -101q-163 0 -298 43.5t-220 123.5v64h4q175 -184 520 -184
q201 0 316.5 87.5t115.5 241.5q0 148 -102 220.5t-354 93.5q-264 23 -370 99.5t-106 236.5q0 164 131.5 269t337.5 105zM537 1509l229 293h59l-239 -293h-49z" />
    <glyph glyph-name="sacute" unicode="&#x15b;" horiz-adv-x="868" 
d="M428 971q106 0 190.5 -23.5t131.5 -66.5v-60h-5q-99 105 -317 105q-129 0 -209 -65.5t-80 -170.5q0 -92 67.5 -134t233.5 -48q196 -7 277.5 -65.5t81.5 -184.5t-97 -202t-256 -76q-243 0 -366 120v64h4q114 -139 362 -139q141 0 223.5 62.5t82.5 170.5q0 103 -70.5 149.5
t-249.5 53.5q-187 7 -263.5 60t-76.5 169q0 123 94 202t242 79zM389 1116l229 293h60l-240 -293h-49z" />
    <glyph glyph-name="Scircumflex" unicode="&#x15c;" horiz-adv-x="1165" 
d="M573 1380q149 0 267 -36.5t184 -102.5v-63h-4q-66 75 -181.5 115t-265.5 40q-186 0 -302.5 -91.5t-116.5 -237.5q0 -134 95.5 -198t338.5 -85q275 -24 386 -108.5t111 -258.5q0 -172 -131.5 -273t-355.5 -101q-163 0 -298 43.5t-220 123.5v64h4q175 -184 520 -184
q201 0 316.5 87.5t115.5 241.5q0 148 -102 220.5t-354 93.5q-264 23 -370 99.5t-106 236.5q0 164 131.5 269t337.5 105zM557 1802h43l234 -293h-50l-204 246l-207 -246h-49z" />
    <glyph glyph-name="scircumflex" unicode="&#x15d;" horiz-adv-x="868" 
d="M428 971q106 0 190.5 -23.5t131.5 -66.5v-60h-5q-99 105 -317 105q-129 0 -209 -65.5t-80 -170.5q0 -92 67.5 -134t233.5 -48q196 -7 277.5 -65.5t81.5 -184.5t-97 -202t-256 -76q-243 0 -366 120v64h4q114 -139 362 -139q141 0 223.5 62.5t82.5 170.5q0 103 -70.5 149.5
t-249.5 53.5q-187 7 -263.5 60t-76.5 169q0 123 94 202t242 79zM410 1409h43l233 -293h-49l-205 246l-207 -246h-49z" />
    <glyph glyph-name="Scedilla" unicode="&#x15e;" horiz-adv-x="1165" 
d="M80 147v64h4q175 -184 520 -184q201 0 316.5 87.5t115.5 241.5q0 148 -102 220.5t-354 93.5q-264 23 -370 99.5t-106 236.5q0 164 131.5 269t337.5 105q149 0 267 -36.5t184 -102.5v-63h-4q-66 75 -181.5 115t-265.5 40q-186 0 -302.5 -91.5t-116.5 -237.5
q0 -134 95.5 -198t338.5 -85q275 -24 386 -108.5t111 -258.5q0 -169 -124 -268.5t-336 -105.5l-64 -119v-4q24 4 39 4q64 0 103.5 -37t39.5 -94q0 -68 -44.5 -104t-129.5 -36q-93 0 -141 41v56h4q22 -25 59 -39.5t78 -14.5q61 0 93 25.5t32 71.5q0 42 -30.5 67t-85.5 25
q-40 0 -84 -21v17l86 162q-156 3 -286.5 46.5t-213.5 120.5z" />
    <glyph glyph-name="scedilla" unicode="&#x15f;" horiz-adv-x="868" 
d="M80 100v64h4q114 -139 362 -139q141 0 223.5 62.5t82.5 170.5q0 103 -70.5 149.5t-249.5 53.5q-187 7 -263.5 60t-76.5 169q0 123 94 202t242 79q106 0 190.5 -23.5t131.5 -66.5v-60h-5q-99 105 -317 105q-129 0 -209 -65.5t-80 -170.5q0 -92 67.5 -134t233.5 -48
q196 -7 277.5 -65.5t81.5 -184.5q0 -118 -86 -192.5t-228 -83.5l-63 -121v-4q24 4 39 4q64 0 103.5 -37t39.5 -94q0 -68 -44.5 -104t-129.5 -36q-93 0 -141 41v56h4q22 -25 59 -39.5t78 -14.5q61 0 93 25.5t32 71.5q0 42 -31 67t-86 25q-40 0 -84 -21v17l86 162
q-240 3 -360 120z" />
    <glyph glyph-name="Scaron" unicode="&#x160;" horiz-adv-x="1165" 
d="M573 1380q149 0 267 -36.5t184 -102.5v-63h-4q-66 75 -181.5 115t-265.5 40q-186 0 -302.5 -91.5t-116.5 -237.5q0 -134 95.5 -198t338.5 -85q275 -24 386 -108.5t111 -258.5q0 -172 -131.5 -273t-355.5 -101q-163 0 -298 43.5t-220 123.5v64h4q175 -184 520 -184
q201 0 316.5 87.5t115.5 241.5q0 148 -102 220.5t-354 93.5q-264 23 -370 99.5t-106 236.5q0 164 131.5 269t337.5 105zM557 1509l-233 293h49l207 -246l204 246h50l-234 -293h-43z" />
    <glyph glyph-name="scaron" unicode="&#x161;" horiz-adv-x="868" 
d="M428 971q106 0 190.5 -23.5t131.5 -66.5v-60h-5q-99 105 -317 105q-129 0 -209 -65.5t-80 -170.5q0 -92 67.5 -134t233.5 -48q196 -7 277.5 -65.5t81.5 -184.5t-97 -202t-256 -76q-243 0 -366 120v64h4q114 -139 362 -139q141 0 223.5 62.5t82.5 170.5q0 103 -70.5 149.5
t-249.5 53.5q-187 7 -263.5 60t-76.5 169q0 123 94 202t242 79zM410 1116l-234 293h49l207 -246l205 246h49l-233 -293h-43z" />
    <glyph glyph-name="uni0162" unicode="&#x162;" horiz-adv-x="1163" 
d="M549 -139v-4q16 4 43 4q64 0 103.5 -37t39.5 -94q0 -68 -44.5 -104t-129.5 -36q-93 0 -141 41v56h4q22 -25 59 -39.5t78 -14.5q61 0 93 25.5t32 71.5q0 42 -31 67t-86 25q-40 0 -84 -21v17l74 182h-2v1313h-506v47h1061v-47h-504v-1313h-2z" />
    <glyph glyph-name="uni0163" unicode="&#x163;" horiz-adv-x="704" 
d="M358 -139v-4q24 4 39 4q64 0 104 -37t40 -94q0 -68 -44.5 -104t-129.5 -36q-94 0 -142 41v56h4q22 -25 59.5 -39.5t78.5 -14.5q61 0 93 25.5t32 71.5q0 42 -31 67t-86 25q-40 0 -84 -21v17l92 176q-78 25 -121 94.5t-43 173.5v643h-199v45h201l15 250h32v-250h355v-45
h-355v-643q0 -110 55 -173.5t152 -63.5t148 51h4v-58q-56 -38 -152 -38q-19 0 -51 4z" />
    <glyph glyph-name="Tcaron" unicode="&#x164;" horiz-adv-x="1163" 
d="M608 0h-51v1313h-506v47h1061v-47h-504v-1313zM559 1509l-233 293h49l207 -246l204 246h50l-234 -293h-43z" />
    <glyph glyph-name="tcaron" unicode="&#x165;" horiz-adv-x="704" 
d="M627 76v-58q-56 -38 -152 -38q-120 0 -188 75t-68 207v643h-199v45h201l15 250h32v-250h355v-45h-355v-643q0 -110 55 -173.5t152 -63.5t148 51h4zM504 1098l67 336h47l-75 -336h-39z" />
    <glyph glyph-name="Tbar" unicode="&#x166;" horiz-adv-x="1163" 
d="M926 754v-45h-318v-709h-51v709h-319v45h319v559h-506v47h1061v-47h-504v-559h318z" />
    <glyph glyph-name="tbar" unicode="&#x167;" horiz-adv-x="727" 
d="M629 76v-58q-56 -38 -152 -38q-120 0 -188 75t-68 207v287h-178v45h178v311h-198v45h200l15 250h32v-250h355v-45h-355v-311h314v-45h-314v-287q0 -110 55 -173.5t152 -63.5t148 51h4z" />
    <glyph glyph-name="Utilde" unicode="&#x168;" horiz-adv-x="1429" 
d="M1284 1360v-795q0 -283 -147 -434t-422 -151t-422.5 151t-147.5 434v795h52v-795q0 -260 134 -399t384 -139q251 0 385.5 139.5t134.5 398.5v795h49zM997 1739v-70q-55 -96 -157 -96q-63 0 -138 59q-40 31 -64 42.5t-50 11.5q-93 0 -152 -121h-4v69q56 97 158 97
q61 0 137 -60q39 -31 64 -42t51 -11q92 0 151 121h4z" />
    <glyph glyph-name="utilde" unicode="&#x169;" horiz-adv-x="1146" 
d="M993 0h-47v238h-4q-48 -123 -151 -190.5t-248 -67.5q-192 0 -304 116.5t-112 315.5v538h49v-534q0 -183 98 -287t271 -104q183 0 291 121.5t108 326.5v477h49v-950zM842 1346v-70q-55 -96 -158 -96q-62 0 -137 59q-39 31 -64 42t-51 11q-92 0 -151 -121h-5v70
q55 96 158 96q62 0 137 -59q39 -31 64 -42t51 -11q93 0 152 121h4z" />
    <glyph glyph-name="Umacron" unicode="&#x16a;" horiz-adv-x="1429" 
d="M1284 1360v-795q0 -283 -147 -434t-422 -151t-422.5 151t-147.5 434v795h52v-795q0 -260 134 -399t384 -139q251 0 385.5 139.5t134.5 398.5v795h49zM997 1667v-45h-565v45h565z" />
    <glyph glyph-name="umacron" unicode="&#x16b;" horiz-adv-x="1146" 
d="M993 0h-47v238h-4q-48 -123 -151 -190.5t-248 -67.5q-192 0 -304 116.5t-112 315.5v538h49v-534q0 -183 98 -287t271 -104q183 0 291 121.5t108 326.5v477h49v-950zM842 1274v-45h-566v45h566z" />
    <glyph glyph-name="Ubreve" unicode="&#x16c;" horiz-adv-x="1429" 
d="M1284 1360v-795q0 -283 -147 -434t-422 -151t-422.5 151t-147.5 434v795h52v-795q0 -260 134 -399t384 -139q251 0 385.5 139.5t134.5 398.5v795h49zM954 1769h43q-22 -113 -94.5 -173t-187.5 -60t-188 60t-95 173h43q20 -91 82.5 -139.5t157.5 -48.5t157 48.5t82 139.5z
" />
    <glyph glyph-name="ubreve" unicode="&#x16d;" horiz-adv-x="1146" 
d="M993 0h-47v238h-4q-48 -123 -151 -190.5t-248 -67.5q-192 0 -304 116.5t-112 315.5v538h49v-534q0 -183 98 -287t271 -104q183 0 291 121.5t108 326.5v477h49v-950zM799 1376h43q-22 -113 -95 -173t-188 -60t-188 60t-95 173h43q20 -91 82.5 -139.5t157.5 -48.5
t157.5 48.5t82.5 139.5z" />
    <glyph glyph-name="Uring" unicode="&#x16e;" horiz-adv-x="1429" 
d="M1284 1360v-795q0 -283 -147 -434t-422 -151t-422.5 151t-147.5 434v795h52v-795q0 -260 134 -399t384 -139q251 0 385.5 139.5t134.5 398.5v795h49zM715 1808q65 0 107 -42t42 -107t-42.5 -107.5t-106.5 -42.5q-65 0 -107.5 42.5t-42.5 107.5q0 64 42.5 106.5
t107.5 42.5zM715 1767q-45 0 -76 -31.5t-31 -76.5q0 -46 31.5 -77.5t75.5 -31.5t75 31.5t31 77.5t-31 77t-75 31z" />
    <glyph glyph-name="uring" unicode="&#x16f;" horiz-adv-x="1146" 
d="M993 0h-47v238h-4q-48 -123 -151 -190.5t-248 -67.5q-192 0 -304 116.5t-112 315.5v538h49v-534q0 -183 98 -287t271 -104q183 0 291 121.5t108 326.5v477h49v-950zM559 1415q65 0 107.5 -42.5t42.5 -106.5t-42.5 -107t-107.5 -43q-64 0 -106.5 42.5t-42.5 107.5
q0 64 42 106.5t107 42.5zM559 1374q-44 0 -75 -31t-31 -77t31 -77.5t75 -31.5t75.5 31.5t31.5 77.5t-31 77t-76 31z" />
    <glyph glyph-name="Uhungarumlaut" unicode="&#x170;" horiz-adv-x="1429" 
d="M1284 1360v-795q0 -283 -147 -434t-422 -151t-422.5 151t-147.5 434v795h52v-795q0 -260 134 -399t384 -139q251 0 385.5 139.5t134.5 398.5v795h49zM518 1509l230 293h59l-240 -293h-49zM825 1509l230 293h59l-240 -293h-49z" />
    <glyph glyph-name="uhungarumlaut" unicode="&#x171;" horiz-adv-x="1146" 
d="M993 0h-47v238h-4q-48 -123 -151 -190.5t-248 -67.5q-192 0 -304 116.5t-112 315.5v538h49v-534q0 -183 98 -287t271 -104q183 0 291 121.5t108 326.5v477h49v-950zM362 1116l230 293h59l-239 -293h-50zM670 1116l229 293h59l-239 -293h-49z" />
    <glyph glyph-name="Uogonek" unicode="&#x172;" horiz-adv-x="1429" 
d="M1284 1360v-795q0 -371 -250 -514q-118 -67 -177.5 -138.5t-59.5 -156.5q0 -51 35 -87t90 -36q78 0 143 62h4v-57q-60 -48 -147 -48q-76 0 -124 46t-48 116q0 134 122 238v4q-86 -14 -157 -14q-275 0 -422.5 151t-147.5 434v795h52v-795q0 -260 134 -399t384 -139
q251 0 385.5 139.5t134.5 398.5v795h49z" />
    <glyph glyph-name="uogonek" unicode="&#x173;" horiz-adv-x="1146" 
d="M993 0h-28q-114 -50 -176 -115.5t-62 -138.5q0 -50 32.5 -81.5t86.5 -31.5q78 0 143 62h4v-57q-60 -48 -147 -48q-76 0 -121 41.5t-45 110.5q0 177 266 295v201h-4q-48 -123 -151 -190.5t-248 -67.5q-192 0 -304 116.5t-112 315.5v538h49v-534q0 -183 98 -287t271 -104
q183 0 291 121.5t108 326.5v477h49v-950z" />
    <glyph glyph-name="Wcircumflex" unicode="&#x174;" horiz-adv-x="2041" 
d="M1513 0h-47l-442 1270h-4l-445 -1270h-47l-475 1360h56l442 -1270h4l442 1270h47l445 -1272h4l442 1272h54zM999 1802h43l234 -293h-49l-205 246l-207 -246h-49z" />
    <glyph glyph-name="wcircumflex" unicode="&#x175;" horiz-adv-x="1519" 
d="M1137 0h-45l-328 868h-4l-332 -868h-45l-360 950h53l330 -874h4l329 874h45l328 -872h4l330 872h51zM737 1409h43l234 -293h-49l-205 246l-207 -246h-49z" />
    <glyph glyph-name="Ycircumflex" unicode="&#x176;" horiz-adv-x="1310" 
d="M684 0h-51v629l-606 731h69l561 -684l562 684h65l-600 -727v-633zM633 1802h43l233 -293h-49l-205 246l-206 -246h-50z" />
    <glyph glyph-name="ycircumflex" unicode="&#x177;" horiz-adv-x="987" 
d="M305 -389h-53l215 436l-444 903h55l416 -841h4l413 841h54zM471 1409h43l234 -293h-50l-204 246l-207 -246h-49z" />
    <glyph glyph-name="Ydieresis" unicode="&#x178;" horiz-adv-x="1310" 
d="M684 0h-51v629l-606 731h69l561 -684l562 684h65l-600 -727v-633zM471 1698q20 0 33.5 -13.5t13.5 -33.5t-13.5 -33.5t-33.5 -13.5t-33.5 13.5t-13.5 33.5t13.5 33.5t33.5 13.5zM840 1698q20 0 33.5 -13.5t13.5 -33.5t-13.5 -33.5t-33.5 -13.5t-33.5 13.5t-13.5 33.5
t13.5 33.5t33.5 13.5z" />
    <glyph glyph-name="Zacute" unicode="&#x179;" horiz-adv-x="1284" 
d="M100 0v43l1006 1270h-965v47h1033v-43l-1006 -1270h1016v-47h-1084zM608 1509l230 293h59l-240 -293h-49z" />
    <glyph glyph-name="zacute" unicode="&#x17a;" horiz-adv-x="987" 
d="M86 0v41l737 864h-706v45h774v-41l-737 -864h747v-45h-815zM457 1116l229 293h59l-239 -293h-49z" />
    <glyph glyph-name="Zdotaccent" unicode="&#x17b;" horiz-adv-x="1284" 
d="M100 0v43l1006 1270h-965v47h1033v-43l-1006 -1270h1016v-47h-1084zM651 1698q20 0 33.5 -13.5t13.5 -33.5t-13.5 -33.5t-33.5 -13.5t-33.5 13.5t-13.5 33.5t13.5 33.5t33.5 13.5z" />
    <glyph glyph-name="zdotaccent" unicode="&#x17c;" horiz-adv-x="987" 
d="M86 0v41l737 864h-706v45h774v-41l-737 -864h747v-45h-815zM500 1305q20 0 33.5 -14t13.5 -34t-13.5 -33.5t-33.5 -13.5t-33.5 13.5t-13.5 33.5t13.5 34t33.5 14z" />
    <glyph glyph-name="Zcaron" unicode="&#x17d;" horiz-adv-x="1284" 
d="M100 0v43l1006 1270h-965v47h1033v-43l-1006 -1270h1016v-47h-1084zM629 1509l-234 293h49l207 -246l205 246h49l-233 -293h-43z" />
    <glyph glyph-name="zcaron" unicode="&#x17e;" horiz-adv-x="987" 
d="M86 0v41l737 864h-706v45h774v-41l-737 -864h747v-45h-815zM477 1116l-233 293h49l207 -246l205 246h49l-234 -293h-43z" />
    <glyph glyph-name="florin" unicode="&#x192;" horiz-adv-x="1331" 
d="M981 1380q110 0 168 -39l-6 -55h-4q-52 49 -156 49q-219 0 -254 -248l-35 -245h367v-45h-373l-92 -652q-40 -288 -281 -288q-110 0 -168 39l7 55h4q52 -49 155 -49q101 0 158 61t76 187l92 647h-336v45h342l35 250q20 140 98 214t203 74z" />
    <glyph glyph-name="AEacute" unicode="&#x1fc;" horiz-adv-x="2107" 
d="M1090 717h765v-47h-765v-623h913v-47h-965v362h-688l-264 -362h-59l993 1360h983v-47h-913v-596zM1038 1303h-4l-649 -893h653v893zM1010 1509l229 293h59l-239 -293h-49z" />
    <glyph glyph-name="aeacute" unicode="&#x1fd;" horiz-adv-x="2093" 
d="M2009 473h-932q0 -206 131 -327t355 -121q222 0 376 151h5v-59q-69 -66 -166.5 -101.5t-210.5 -35.5q-182 0 -307 70t-179 192h-4v-242h-47v242h-4q-55 -122 -172.5 -192t-273.5 -70q-216 0 -355 138.5t-139 356.5t139 357t355 139q157 0 274 -69.5t172 -190.5h4v239h47
v-239h4q52 119 169.5 189.5t277.5 70.5q218 0 349.5 -126t131.5 -333v-39zM584 25q197 0 322.5 126t125.5 324t-125.5 324.5t-322.5 126.5t-323 -126.5t-126 -324.5t126 -324t323 -126zM1077 518h887q-2 182 -123.5 295t-316.5 113q-186 0 -310.5 -113.5t-136.5 -294.5z
M1010 1116l229 293h59l-239 -293h-49z" />
    <glyph glyph-name="Oslashacute" unicode="&#x1fe;" horiz-adv-x="1572" 
d="M1487 1360l-184 -189q184 -193 184 -491q0 -152 -52 -282t-144 -222t-222.5 -144t-282.5 -52q-289 0 -481 176l-153 -156h-66l184 188q-184 193 -184 492q0 203 89 362.5t248.5 248.5t362.5 89q290 0 482 -176l153 156h66zM137 680q0 -275 168 -457l930 946
q-181 164 -449 164q-188 0 -336 -83t-230.5 -232t-82.5 -338zM1436 680q0 275 -168 457l-930 -947q180 -163 448 -163q188 0 336.5 83t231 232t82.5 338zM739 1509l230 293h59l-240 -293h-49z" />
    <glyph glyph-name="oslashacute" unicode="&#x1ff;" horiz-adv-x="1167" 
d="M1081 950l-127 -131q127 -137 127 -344q0 -218 -139.5 -356.5t-357.5 -138.5q-201 0 -338 118l-96 -98h-64l127 131q-127 137 -127 344q0 218 140 357t358 139q200 0 338 -119l96 98h63zM135 475q0 -187 113 -309l639 651q-121 109 -303 109q-197 0 -323 -126.5
t-126 -324.5zM1032 475q0 188 -112 309l-639 -651q120 -108 303 -108q197 0 322.5 126t125.5 324zM561 1116l230 293h59l-240 -293h-49z" />
    <glyph glyph-name="uni0218" unicode="&#x218;" horiz-adv-x="1165" 
d="M573 1380q149 0 267 -36.5t184 -102.5v-63h-4q-66 75 -181.5 115t-265.5 40q-186 0 -302.5 -91.5t-116.5 -237.5q0 -134 95.5 -198t338.5 -85q275 -24 386 -108.5t111 -258.5q0 -172 -131.5 -273t-355.5 -101q-163 0 -298 43.5t-220 123.5v64h4q175 -184 520 -184
q201 0 316.5 87.5t115.5 241.5q0 148 -102 220.5t-354 93.5q-264 23 -370 99.5t-106 236.5q0 164 131.5 269t337.5 105zM338 -430l227 291h60l-238 -291h-49z" />
    <glyph glyph-name="uni0219" unicode="&#x219;" horiz-adv-x="868" 
d="M428 971q106 0 190.5 -23.5t131.5 -66.5v-60h-5q-99 105 -317 105q-129 0 -209 -65.5t-80 -170.5q0 -92 67.5 -134t233.5 -48q196 -7 277.5 -65.5t81.5 -184.5t-97 -202t-256 -76q-243 0 -366 120v64h4q114 -139 362 -139q141 0 223.5 62.5t82.5 170.5q0 103 -70.5 149.5
t-249.5 53.5q-187 7 -263.5 60t-76.5 169q0 123 94 202t242 79zM199 -430l227 291h59l-237 -291h-49z" />
    <glyph glyph-name="uni021A" unicode="&#x21a;" horiz-adv-x="1163" 
d="M608 0h-51v1313h-506v47h1061v-47h-504v-1313zM330 -430l227 291h59l-237 -291h-49z" />
    <glyph glyph-name="uni021B" unicode="&#x21b;" horiz-adv-x="704" 
d="M627 76v-58q-56 -38 -152 -38q-120 0 -188 75t-68 207v643h-199v45h201l15 250h32v-250h355v-45h-355v-643q0 -110 55 -173.5t152 -63.5t148 51h4zM135 -430l227 291h60l-238 -291h-49z" />
    <glyph glyph-name="uni0237" unicode="&#x237;" horiz-adv-x="356" 
d="M203 950v-1147q0 -114 -39.5 -163.5t-128.5 -49.5q-55 0 -98 21v51h4q43 -27 94 -27q66 0 92.5 37t26.5 131v1147h49z" />
    <glyph glyph-name="circumflex" unicode="&#x2c6;" horiz-adv-x="1024" 
d="M492 1409h43l233 -293h-49l-205 246l-207 -246h-49z" />
    <glyph glyph-name="caron" unicode="&#x2c7;" horiz-adv-x="1024" 
d="M492 1116l-234 293h49l207 -246l205 246h49l-233 -293h-43z" />
    <glyph glyph-name="breve" unicode="&#x2d8;" horiz-adv-x="1024" 
d="M752 1376h43q-22 -113 -95 -173t-188 -60t-188 60t-95 173h43q20 -91 82.5 -139.5t157.5 -48.5t157.5 48.5t82.5 139.5z" />
    <glyph glyph-name="dotaccent" unicode="&#x2d9;" horiz-adv-x="1024" 
d="M512 1305q20 0 33.5 -14t13.5 -34t-13.5 -33.5t-33.5 -13.5t-33.5 13.5t-13.5 33.5t13.5 34t33.5 14z" />
    <glyph glyph-name="ring" unicode="&#x2da;" horiz-adv-x="1024" 
d="M512 1415q65 0 107.5 -42.5t42.5 -106.5t-43 -107t-107 -43t-107 43t-43 107t42.5 106.5t107.5 42.5zM512 1374q-44 0 -75 -31t-31 -77t31 -77.5t75 -31.5t75 31.5t31 77.5t-31 77t-75 31z" />
    <glyph glyph-name="ogonek" unicode="&#x2db;" horiz-adv-x="1024" 
d="M680 39l16 -37q-115 -50 -178 -116t-63 -140q0 -50 32.5 -81.5t85.5 -31.5q79 0 144 62h4v-57q-60 -48 -148 -48q-76 0 -120.5 41.5t-44.5 110.5q0 180 272 297z" />
    <glyph glyph-name="tilde" unicode="&#x2dc;" horiz-adv-x="1024" 
d="M795 1346v-70q-55 -96 -158 -96q-62 0 -137 59q-39 31 -64 42t-51 11q-93 0 -152 -121h-4v70q55 96 158 96q62 0 137 -59q39 -31 64 -42t51 -11q93 0 152 121h4z" />
    <glyph glyph-name="hungarumlaut" unicode="&#x2dd;" horiz-adv-x="1024" 
d="M317 1116l230 293h59l-239 -293h-50zM625 1116l229 293h59l-239 -293h-49z" />
    <glyph glyph-name="uni0394" unicode="&#x394;" horiz-adv-x="1452" 
d="M41 0l661 1360h48l661 -1360h-1370zM1331 47l-604 1243h-4l-604 -1243h1212z" />
    <glyph glyph-name="uni03A9" unicode="&#x3a9;" horiz-adv-x="1597" 
d="M1475 47v-47h-459v43q203 83 317.5 249t114.5 388q0 189 -82.5 338t-230.5 232t-336 83t-336 -83t-230.5 -232t-82.5 -338q0 -222 114.5 -388t317.5 -249v-43h-459v47h344v4q-176 97 -272.5 259t-96.5 370q0 152 52 282t144 222t222.5 144t282.5 52q203 0 362.5 -89
t248.5 -248.5t89 -362.5q0 -208 -96.5 -370t-272.5 -259v-4h345z" />
    <glyph glyph-name="uni03BC" unicode="&#x3bc;" horiz-adv-x="1189" 
d="M1028 0h-47v238h-4q-48 -123 -151 -190.5t-248 -67.5q-130 0 -222.5 54t-140.5 154h-4v-577h-49v1339h49v-534q0 -183 98 -287t271 -104q183 0 291 121.5t108 326.5v477h49v-950z" />
    <glyph glyph-name="pi" unicode="&#x3c0;" horiz-adv-x="1193" 
d="M987 0h-49v905h-682v-905h-49v905h-178v45h1136v-45h-178v-905z" />
    <glyph glyph-name="uni1E02" unicode="&#x1e02;" horiz-adv-x="1280" 
d="M901 700v-4q147 -25 224 -109.5t77 -226.5q0 -178 -113.5 -269t-336.5 -91h-572v1360h520q224 0 338.5 -87t114.5 -259q0 -251 -252 -314zM231 717h469q200 0 302 75.5t102 223.5q0 147 -102 222t-302 75h-469v-596zM231 47h521q198 0 298.5 78.5t100.5 232.5t-100.5 233
t-298.5 79h-521v-623zM627 1698q20 0 33.5 -13.5t13.5 -33.5t-13.5 -33.5t-33.5 -13.5t-33.5 13.5t-13.5 33.5t13.5 33.5t33.5 13.5z" />
    <glyph glyph-name="uni1E03" unicode="&#x1e03;" horiz-adv-x="1230" 
d="M651 971q216 0 355 -139t139 -357t-139 -356.5t-355 -138.5q-156 0 -273.5 70t-172.5 192h-4v-242h-47v1434h49v-723h4q55 121 172 190.5t272 69.5zM647 25q197 0 323 126t126 324t-126 324.5t-323 126.5t-322.5 -126.5t-125.5 -324.5t125.5 -324t322.5 -126zM178 1761
q20 0 33.5 -13.5t13.5 -33.5t-13.5 -33.5t-33.5 -13.5t-33.5 13.5t-13.5 33.5t13.5 33.5t33.5 13.5z" />
    <glyph glyph-name="uni1E0A" unicode="&#x1e0a;" horiz-adv-x="1490" 
d="M180 1360h506q331 0 525 -183t194 -495q0 -315 -193.5 -498.5t-525.5 -183.5h-506v1360zM231 47h455q309 0 488.5 171t179.5 464q0 292 -179.5 461.5t-488.5 169.5h-455v-1266zM688 1698q20 0 33.5 -13.5t13.5 -33.5t-13.5 -33.5t-33.5 -13.5t-33.5 13.5t-13.5 33.5
t13.5 33.5t33.5 13.5z" />
    <glyph glyph-name="uni1E0B" unicode="&#x1e0b;" horiz-adv-x="1230" 
d="M1077 0h-47v242h-4q-55 -122 -172.5 -192t-273.5 -70q-216 0 -355 138.5t-139 356.5t139 357t355 139q155 0 272 -69.5t172 -190.5h4v723h49v-1434zM584 25q197 0 322.5 126t125.5 324t-125.5 324.5t-322.5 126.5t-323 -126.5t-126 -324.5t126 -324t323 -126zM1053 1761
q20 0 33.5 -13.5t13.5 -33.5t-13.5 -33.5t-33.5 -13.5t-33.5 13.5t-13.5 33.5t13.5 33.5t33.5 13.5z" />
    <glyph glyph-name="uni1E1E" unicode="&#x1e1e;" horiz-adv-x="1206" 
d="M999 709v-47h-768v-662h-51v1360h967v-47h-916v-604h768zM627 1698q20 0 33.5 -13.5t13.5 -33.5t-13.5 -33.5t-33.5 -13.5t-33.5 13.5t-13.5 33.5t13.5 33.5t33.5 13.5z" />
    <glyph glyph-name="uni1E1F" unicode="&#x1e1f;" horiz-adv-x="643" 
d="M483 1454q109 0 172 -39v-55h-4q-26 22 -73 35.5t-95 13.5q-104 0 -159.5 -63t-55.5 -183v-213h355v-45h-355v-905h-49v905h-199v45h199v213q0 138 69 214.5t195 76.5zM383 1761q20 0 33.5 -13.5t13.5 -33.5t-13.5 -33.5t-33.5 -13.5t-33.5 13.5t-13.5 33.5t13.5 33.5
t33.5 13.5z" />
    <glyph glyph-name="uni1E40" unicode="&#x1e40;" horiz-adv-x="1886" 
d="M1706 0h-51v1298h-4l-693 -1298h-38l-687 1294h-4v-1294h-49v1360h76l684 -1288h4l684 1288h78v-1360zM942 1698q20 0 33.5 -13.5t13.5 -33.5t-13.5 -33.5t-33.5 -13.5t-33.5 13.5t-13.5 33.5t13.5 33.5t33.5 13.5z" />
    <glyph glyph-name="uni1E41" unicode="&#x1e41;" horiz-adv-x="1775" 
d="M1278 971q181 0 276 -108t95 -314v-549h-50v549q0 185 -82 281t-241 96q-169 0 -259.5 -111t-90.5 -317v-498h-49v549q0 185 -82.5 281t-241.5 96q-169 0 -259.5 -111t-90.5 -317v-498h-49v950h47v-207h4q43 111 131.5 169.5t218.5 58.5q142 0 231.5 -69t120.5 -200h4
q37 130 130.5 199.5t236.5 69.5zM901 1305q20 0 33.5 -14t13.5 -34t-13.5 -33.5t-33.5 -13.5t-33.5 13.5t-13.5 33.5t13.5 34t33.5 14z" />
    <glyph glyph-name="uni1E56" unicode="&#x1e56;" horiz-adv-x="1267" 
d="M180 1360h568q223 0 336.5 -100t113.5 -297t-113.5 -297.5t-336.5 -100.5h-517v-565h-51v1360zM231 612h517q198 0 298.5 89t100.5 262t-100.5 261.5t-298.5 88.5h-517v-701zM649 1698q20 0 33.5 -13.5t13.5 -33.5t-13.5 -33.5t-33.5 -13.5t-33.5 13.5t-13.5 33.5
t13.5 33.5t33.5 13.5z" />
    <glyph glyph-name="uni1E57" unicode="&#x1e57;" horiz-adv-x="1230" 
d="M651 971q216 0 355 -139t139 -357t-139 -356.5t-355 -138.5q-155 0 -272 69.5t-172 190.5h-4v-629h-49v1339h47v-241h4q55 122 172.5 192t273.5 70zM647 25q197 0 323 126t126 324t-126 324.5t-323 126.5t-322.5 -126.5t-125.5 -324.5t125.5 -324t322.5 -126zM649 1303
q20 0 33.5 -14t13.5 -34t-13.5 -33.5t-33.5 -13.5t-33.5 13.5t-13.5 33.5t13.5 34t33.5 14z" />
    <glyph glyph-name="uni1E60" unicode="&#x1e60;" horiz-adv-x="1165" 
d="M573 1380q149 0 267 -36.5t184 -102.5v-63h-4q-66 75 -181.5 115t-265.5 40q-186 0 -302.5 -91.5t-116.5 -237.5q0 -134 95.5 -198t338.5 -85q275 -24 386 -108.5t111 -258.5q0 -172 -131.5 -273t-355.5 -101q-163 0 -298 43.5t-220 123.5v64h4q175 -184 520 -184
q201 0 316.5 87.5t115.5 241.5q0 148 -102 220.5t-354 93.5q-264 23 -370 99.5t-106 236.5q0 164 131.5 269t337.5 105zM580 1698q20 0 33.5 -13.5t13.5 -33.5t-13.5 -33.5t-33.5 -13.5t-34 13.5t-14 33.5t14 33.5t34 13.5z" />
    <glyph glyph-name="uni1E61" unicode="&#x1e61;" horiz-adv-x="868" 
d="M428 971q106 0 190.5 -23.5t131.5 -66.5v-60h-5q-99 105 -317 105q-129 0 -209 -65.5t-80 -170.5q0 -92 67.5 -134t233.5 -48q196 -7 277.5 -65.5t81.5 -184.5t-97 -202t-256 -76q-243 0 -366 120v64h4q114 -139 362 -139q141 0 223.5 62.5t82.5 170.5q0 103 -70.5 149.5
t-249.5 53.5q-187 7 -263.5 60t-76.5 169q0 123 94 202t242 79zM432 1305q20 0 33.5 -14t13.5 -34t-13.5 -33.5t-33.5 -13.5t-33.5 13.5t-13.5 33.5t13.5 34t33.5 14z" />
    <glyph glyph-name="uni1E6A" unicode="&#x1e6a;" horiz-adv-x="1163" 
d="M608 0h-51v1313h-506v47h1061v-47h-504v-1313zM582 1698q20 0 33.5 -13.5t13.5 -33.5t-13.5 -33.5t-33.5 -13.5t-33.5 13.5t-13.5 33.5t13.5 33.5t33.5 13.5z" />
    <glyph glyph-name="uni1E6B" unicode="&#x1e6b;" horiz-adv-x="704" 
d="M627 76v-58q-56 -38 -152 -38q-120 0 -188 75t-68 207v643h-199v45h201l15 250h32v-250h355v-45h-355v-643q0 -110 55 -173.5t152 -63.5t148 51h4zM248 1542q20 0 33.5 -13.5t13.5 -33.5t-13.5 -33.5t-33.5 -13.5t-33.5 13.5t-13.5 33.5t13.5 33.5t33.5 13.5z" />
    <glyph glyph-name="Wgrave" unicode="&#x1e80;" horiz-adv-x="2041" 
d="M1513 0h-47l-442 1270h-4l-445 -1270h-47l-475 1360h56l442 -1270h4l442 1270h47l445 -1272h4l442 1272h54zM1014 1509l-240 293h60l229 -293h-49z" />
    <glyph glyph-name="wgrave" unicode="&#x1e81;" horiz-adv-x="1519" 
d="M1137 0h-45l-328 868h-4l-332 -868h-45l-360 950h53l330 -874h4l329 874h45l328 -872h4l330 872h51zM752 1116l-240 293h59l230 -293h-49z" />
    <glyph glyph-name="Wacute" unicode="&#x1e82;" horiz-adv-x="2041" 
d="M1513 0h-47l-442 1270h-4l-445 -1270h-47l-475 1360h56l442 -1270h4l442 1270h47l445 -1272h4l442 1272h54zM979 1509l229 293h60l-240 -293h-49z" />
    <glyph glyph-name="wacute" unicode="&#x1e83;" horiz-adv-x="1519" 
d="M1137 0h-45l-328 868h-4l-332 -868h-45l-360 950h53l330 -874h4l329 874h45l328 -872h4l330 872h51zM717 1116l229 293h60l-240 -293h-49z" />
    <glyph glyph-name="Wdieresis" unicode="&#x1e84;" horiz-adv-x="2041" 
d="M1513 0h-47l-442 1270h-4l-445 -1270h-47l-475 1360h56l442 -1270h4l442 1270h47l445 -1272h4l442 1272h54zM838 1698q20 0 33.5 -13.5t13.5 -33.5t-13.5 -33.5t-33.5 -13.5t-33.5 13.5t-13.5 33.5t13.5 33.5t33.5 13.5zM1206 1698q20 0 33.5 -13.5t13.5 -33.5
t-13.5 -33.5t-33.5 -13.5t-33.5 13.5t-13.5 33.5t13.5 33.5t33.5 13.5z" />
    <glyph glyph-name="wdieresis" unicode="&#x1e85;" horiz-adv-x="1519" 
d="M1137 0h-45l-328 868h-4l-332 -868h-45l-360 950h53l330 -874h4l329 874h45l328 -872h4l330 872h51zM575 1305q20 0 34 -14t14 -34t-14 -33.5t-34 -13.5t-33.5 13.5t-13.5 33.5t13.5 34t33.5 14zM944 1305q20 0 33.5 -14t13.5 -34t-13.5 -33.5t-33.5 -13.5t-33.5 13.5
t-13.5 33.5t13.5 34t33.5 14z" />
    <glyph glyph-name="Ygrave" unicode="&#x1ef2;" horiz-adv-x="1310" 
d="M684 0h-51v629l-606 731h69l561 -684l562 684h65l-600 -727v-633zM647 1509l-239 293h59l229 -293h-49z" />
    <glyph glyph-name="ygrave" unicode="&#x1ef3;" horiz-adv-x="987" 
d="M305 -389h-53l215 436l-444 903h55l416 -841h4l413 841h54zM485 1116l-239 293h59l230 -293h-50z" />
    <glyph glyph-name="uni2007" unicode="&#x2007;" horiz-adv-x="1331" 
 />
    <glyph glyph-name="figuredash" unicode="&#x2012;" horiz-adv-x="1331" 
d="M102 657v45h1127v-45h-1127z" />
    <glyph glyph-name="endash" unicode="&#x2013;" horiz-adv-x="1024" 
d="M102 532v46h820v-46h-820z" />
    <glyph glyph-name="emdash" unicode="&#x2014;" horiz-adv-x="2048" 
d="M102 532v46h1844v-46h-1844z" />
    <glyph glyph-name="quoteleft" unicode="&#x2018;" horiz-adv-x="450" 
d="M313 1360l-118 -373h-52l129 373h41z" />
    <glyph glyph-name="quoteright" unicode="&#x2019;" horiz-adv-x="450" 
d="M137 987l119 373h51l-129 -373h-41z" />
    <glyph glyph-name="quotesinglbase" unicode="&#x201a;" horiz-adv-x="450" 
d="M96 -311l119 372h51l-129 -372h-41z" />
    <glyph glyph-name="quotedblleft" unicode="&#x201c;" horiz-adv-x="745" 
d="M313 1360l-118 -373h-52l129 373h41zM608 1360l-119 -373h-51l129 373h41z" />
    <glyph glyph-name="quotedblright" unicode="&#x201d;" horiz-adv-x="745" 
d="M137 987l119 373h51l-129 -373h-41zM432 987l119 373h51l-129 -373h-41z" />
    <glyph glyph-name="quotedblbase" unicode="&#x201e;" horiz-adv-x="745" 
d="M391 -311l119 372h51l-129 -372h-41zM96 -311l119 372h51l-129 -372h-41z" />
    <glyph glyph-name="dagger" unicode="&#x2020;" horiz-adv-x="1007" 
d="M528 1014v-817h-49v817h-360v45h360v375h49v-375h361v-45h-361z" />
    <glyph glyph-name="daggerdbl" unicode="&#x2021;" horiz-adv-x="1007" 
d="M528 616h361v-45h-361v-374h-49v374h-360v45h360v398h-360v45h360v375h49v-375h361v-45h-361v-398z" />
    <glyph glyph-name="bullet" unicode="&#x2022;" horiz-adv-x="1024" 
d="M512 825q117 0 193.5 -76.5t76.5 -193.5t-76.5 -193.5t-193.5 -76.5t-193.5 76.5t-76.5 193.5t76.5 193.5t193.5 76.5z" />
    <glyph glyph-name="ellipsis" unicode="&#x2026;" horiz-adv-x="2048" 
d="M1649 82q22 0 36.5 -14.5t14.5 -36.5t-14.5 -36.5t-36.5 -14.5t-37 14.5t-15 36.5t15 36.5t37 14.5zM1024 82q22 0 36.5 -14.5t14.5 -36.5t-14.5 -36.5t-36.5 -14.5t-36.5 14.5t-14.5 36.5t14.5 36.5t36.5 14.5zM399 82q22 0 37 -14.5t15 -36.5t-15 -36.5t-37 -14.5
t-36.5 14.5t-14.5 36.5t14.5 36.5t36.5 14.5z" />
    <glyph glyph-name="perthousand" unicode="&#x2030;" horiz-adv-x="2244" 
d="M1866 653q141 0 222 -90t81 -248q0 -157 -81 -246t-222 -89t-222 89t-81 246q0 158 81 248t222 90zM1866 608q-119 0 -186.5 -77t-67.5 -216q0 -137 67.5 -213.5t186.5 -76.5t186.5 76.5t67.5 213.5q0 139 -67.5 216t-186.5 77zM379 1380q141 0 222 -90t81 -248
q0 -157 -81 -246t-222 -89t-222 89t-81 246q0 158 81 248t222 90zM297 0l881 1360h57l-881 -1360h-57zM379 1335q-119 0 -186.5 -77t-67.5 -216q0 -137 67.5 -213.5t186.5 -76.5t186.5 76.5t67.5 213.5q0 139 -67.5 216t-186.5 77zM1153 653q141 0 222 -90t81 -248
q0 -157 -81 -246t-222 -89t-222 89t-81 246q0 158 81 248t222 90zM1153 608q-119 0 -186.5 -77t-67.5 -216q0 -137 67.5 -213.5t186.5 -76.5t186.5 76.5t67.5 213.5q0 139 -67.5 216t-186.5 77z" />
    <glyph glyph-name="guilsinglleft" unicode="&#x2039;" horiz-adv-x="575" 
d="M461 131v-65l-387 407v4l387 408v-66l-328 -344z" />
    <glyph glyph-name="guilsinglright" unicode="&#x203a;" horiz-adv-x="575" 
d="M115 819v66l387 -408v-4l-387 -407v65l327 344z" />
    <glyph glyph-name="fraction" unicode="&#x2044;" horiz-adv-x="290" 
d="M-324 0l881 1360h57l-880 -1360h-58z" />
    <glyph glyph-name="zerosuperior" unicode="&#x2070;" 
d="M420 1647q158 0 246 -114t88 -319t-88 -318.5t-246 -113.5t-246 113.5t-88 318.5t88 319t246 114zM420 1602q-137 0 -211 -100.5t-74 -287.5t74 -288t211 -101t211 101t74 288t-74 287.5t-211 100.5z" />
    <glyph glyph-name="foursuperior" unicode="&#x2074;" 
d="M668 795h-50v186h-526v43l524 610h52v-608h127v-45h-127v-186zM154 1026h464v543z" />
    <glyph glyph-name="fivesuperior" unicode="&#x2075;" 
d="M418 1331q149 0 231 -70.5t82 -199.5t-85.5 -204t-233.5 -75q-96 0 -173 27t-118 74v59h4q43 -55 117 -85t168 -30q129 0 200.5 62t71.5 172q0 109 -70 167t-202 58q-148 0 -256 -65h-4v413h528v-45h-483v-307q100 49 223 49z" />
    <glyph glyph-name="sixsuperior" unicode="&#x2076;" 
d="M457 1327q132 0 213.5 -73t81.5 -193q0 -126 -83 -202.5t-218 -76.5q-166 0 -258.5 107.5t-92.5 302.5q0 217 97 336t274 119q144 0 217 -64v-57h-4q-76 76 -211 76q-156 0 -239.5 -105.5t-83.5 -302.5v-4h4q51 65 130.5 101t172.5 36zM449 827q115 0 184 64t69 170
q0 101 -67.5 162t-181.5 61q-97 0 -178.5 -46.5t-122.5 -125.5q14 -132 93.5 -208.5t203.5 -76.5z" />
    <glyph glyph-name="sevensuperior" unicode="&#x2077;" 
d="M246 795h-58l545 794h-598v45h647v-49z" />
    <glyph glyph-name="eightsuperior" unicode="&#x2078;" 
d="M565 1233v-4q189 -45 189 -215q0 -109 -88.5 -170.5t-245.5 -61.5t-245.5 61.5t-88.5 170.5q0 168 190 209v4q-165 44 -165 198q0 104 82 163t227 59t227 -59t82 -163q0 -151 -164 -192zM160 1423q0 -85 67 -129.5t193 -44.5t193 44.5t67 129.5t-68 132t-192 47t-192 -47
t-68 -132zM420 827q135 0 210 50t75 141q0 90 -74 138t-211 48t-211 -48t-74 -138q0 -91 75 -141t210 -50z" />
    <glyph glyph-name="ninesuperior" unicode="&#x2079;" 
d="M389 1647q166 0 258 -107.5t92 -302.5q0 -217 -96.5 -336t-273.5 -119q-144 0 -217 64v57h4q76 -76 211 -76q156 0 239.5 105.5t83.5 302.5v4h-4q-51 -65 -130.5 -101t-172.5 -36q-132 0 -213.5 73t-81.5 193q0 126 83 202.5t218 76.5zM387 1145q97 0 178.5 46.5
t122.5 125.5q-14 132 -93.5 208.5t-203.5 76.5q-115 0 -184.5 -64t-69.5 -170q0 -101 68 -162t182 -61z" />
    <glyph glyph-name="zeroinferior" unicode="&#x2080;" 
d="M420 463q158 0 246 -113.5t88 -318.5t-88 -318.5t-246 -113.5t-246 113.5t-88 318.5t88 318.5t246 113.5zM420 418q-137 0 -211 -100t-74 -287t74 -288t211 -101t211 101t74 288t-74 287t-211 100z" />
    <glyph glyph-name="oneinferior" unicode="&#x2081;" 
d="M578 -389h-50v780l-235 -155v51l248 164h37v-840z" />
    <glyph glyph-name="twoinferior" unicode="&#x2082;" 
d="M702 -344v-45h-563v49l144 115q218 174 294 266t76 180q0 95 -61 146t-176 51q-148 0 -260 -109h-4v58q53 44 123.5 70t140.5 26q138 0 212 -62t74 -178q0 -100 -79.5 -198t-307.5 -279l-108 -86v-4h495z" />
    <glyph glyph-name="threeinferior" unicode="&#x2083;" 
d="M561 47v-4q172 -45 172 -209q0 -110 -82.5 -172.5t-230.5 -62.5q-93 0 -168.5 26.5t-116.5 73.5v59h4q41 -54 115.5 -84t165.5 -30q126 0 195 50t69 142q0 89 -63.5 136.5t-182.5 47.5h-139v43h121q119 0 182.5 45t63.5 130q0 86 -66 133t-186 47q-154 0 -258 -107h-4v58
q44 43 116 68.5t148 25.5q140 0 219.5 -58.5t79.5 -162.5q0 -146 -154 -195z" />
    <glyph glyph-name="fourinferior" unicode="&#x2084;" 
d="M668 -389h-50v186h-526v43l524 611h52v-609h127v-45h-127v-186zM154 -158h464v543z" />
    <glyph glyph-name="fiveinferior" unicode="&#x2085;" 
d="M418 147q149 0 231 -70.5t82 -199.5t-85.5 -203.5t-233.5 -74.5q-97 0 -173.5 26.5t-117.5 73.5v59h4q88 -114 285 -114q129 0 200.5 61.5t71.5 171.5q0 109 -70 167t-202 58q-148 0 -256 -65h-4v414h528v-45h-483v-308q100 49 223 49z" />
    <glyph glyph-name="sixinferior" unicode="&#x2086;" 
d="M457 143q132 0 213.5 -73t81.5 -193q0 -126 -83 -202t-218 -76q-166 0 -258.5 107t-92.5 302q0 217 97 336t274 119q144 0 217 -64v-57h-4q-76 76 -211 76q-156 0 -239.5 -105.5t-83.5 -302.5v-4h4q51 65 130.5 101t172.5 36zM449 -356q115 0 184 63.5t69 169.5
q0 101 -67.5 162t-181.5 61q-97 0 -178.5 -46.5t-122.5 -125.5q13 -132 92.5 -208t204.5 -76z" />
    <glyph glyph-name="seveninferior" unicode="&#x2087;" 
d="M246 -389h-58l545 795h-598v45h647v-50z" />
    <glyph glyph-name="eightinferior" unicode="&#x2088;" 
d="M565 49v-4q189 -45 189 -215q0 -109 -88.5 -170t-245.5 -61t-245.5 61t-88.5 170q0 168 190 209v4q-165 44 -165 199q0 104 82 162.5t227 58.5t227 -58.5t82 -162.5q0 -152 -164 -193zM160 240q0 -85 67 -129.5t193 -44.5t193 44.5t67 129.5t-68 131.5t-192 46.5
t-192 -46.5t-68 -131.5zM420 -356q135 0 210 49.5t75 140.5q0 90 -74 138t-211 48t-211 -48t-74 -138q0 -91 75 -140.5t210 -49.5z" />
    <glyph glyph-name="nineinferior" unicode="&#x2089;" 
d="M389 463q166 0 258 -107.5t92 -302.5q0 -217 -96.5 -335.5t-273.5 -118.5q-145 0 -217 63v57h4q75 -75 211 -75q157 0 240 105t83 302v4h-4q-51 -65 -130.5 -101t-172.5 -36q-132 0 -213.5 73t-81.5 193q0 126 83 202.5t218 76.5zM387 -39q97 0 178.5 46.5t122.5 125.5
q-14 132 -93.5 208.5t-203.5 76.5q-115 0 -184.5 -64t-69.5 -170q0 -101 68 -162t182 -61z" />
    <glyph glyph-name="Euro" unicode="&#x20ac;" horiz-adv-x="1331" 
d="M846 1335q-210 0 -349.5 -119.5t-183.5 -334.5h746v-45h-754q-12 -74 -12 -156q0 -78 8 -135h758v-45h-750q40 -224 181.5 -349.5t355.5 -125.5q228 0 344 122h4v-63q-56 -50 -147 -77t-201 -27q-236 0 -390.5 137.5t-197.5 382.5h-152v45h146q-8 57 -8 135q0 74 10 156
h-148v45h156q46 235 199.5 367t384.5 132q110 0 201 -27t147 -77v-64h-4q-117 123 -344 123z" />
    <glyph glyph-name="uni20B9" unicode="&#x20b9;" horiz-adv-x="1331" 
d="M788 1319v-4q200 -78 209 -299h211v-41h-211q-6 -169 -118.5 -256.5t-321.5 -87.5h-168v-4l748 -627h-70l-760 637v39h250q381 0 393 299h-807v41h807q-12 299 -393 299h-414v45h1065v-41h-420z" />
    <glyph glyph-name="uni2113" unicode="&#x2113;" horiz-adv-x="897" 
d="M750 104v-61q-74 -63 -189 -63q-128 0 -197 78t-69 223v94q-72 -53 -143 -96v55q73 41 143 96v674q0 132 59.5 203t171.5 71q103 0 159 -69.5t56 -196.5q0 -175 -104.5 -359t-292.5 -339v-123q0 -131 55.5 -198.5t161.5 -67.5q111 0 184 79h5zM344 1092v-621
q163 138 255.5 307.5t92.5 333.5q0 109 -42 165t-124 56q-182 0 -182 -241z" />
    <glyph glyph-name="uni2117" unicode="&#x2117;" horiz-adv-x="1650" 
d="M825 1380q198 0 358.5 -91t251.5 -251t91 -358t-91 -358t-251.5 -251t-358.5 -91t-358 91t-251 251t-91 358t91 358t251 251t358 91zM825 25q183 0 332.5 85t234.5 235t85 335t-85 335t-234.5 235t-332.5 85t-332 -85t-234 -235t-85 -335t85 -335t234 -235t332 -85z
M600 1038h301q121 0 182.5 -54t61.5 -159q0 -215 -244 -215h-252v-288h-49v716zM649 653h252q195 0 195 172q0 170 -195 170h-252v-342z" />
    <glyph glyph-name="trademark" unicode="&#x2122;" horiz-adv-x="1550" 
d="M551 1360v-41h-234v-649h-47v649h-233v41h514zM1421 670h-47v630h-4l-305 -632h-39l-301 628h-4v-626h-43v690h67l302 -631l303 631h71v-690z" />
    <glyph glyph-name="uni2126" unicode="&#x2126;" horiz-adv-x="1597" 
d="M1475 47v-47h-459v43q203 83 317.5 249t114.5 388q0 189 -82.5 338t-230.5 232t-336 83t-336 -83t-230.5 -232t-82.5 -338q0 -222 114.5 -388t317.5 -249v-43h-459v47h344v4q-176 97 -272.5 259t-96.5 370q0 152 52 282t144 222t222.5 144t282.5 52q203 0 362.5 -89
t248.5 -248.5t89 -362.5q0 -208 -96.5 -370t-272.5 -259v-4h345z" />
    <glyph glyph-name="estimated" unicode="&#x212e;" horiz-adv-x="1683" 
d="M842 1380q150 0 286.5 -55t235.5 -148.5t157 -223.5t58 -273v-16h-1196q-8 0 -8 -9v-385q0 -17 16 -41q86 -98 204.5 -153.5t250.5 -55.5q138 0 261.5 62.5t213.5 171.5h109q-105 -127 -259 -200.5t-329 -73.5q-150 0 -287 55.5t-235.5 149t-157 223t-58.5 272.5
t58.5 273t157 223.5t235.5 148.5t287 55zM846 1339q-131 0 -248 -54t-207 -150q-16 -24 -16 -45v-377q0 -13 8 -13h917q13 0 13 13v385q0 24 -21 45q-89 92 -205 144t-241 52z" />
    <glyph glyph-name="onethird" unicode="&#x2153;" horiz-adv-x="1970" 
d="M516 0l881 1360h57l-881 -1360h-57zM1692 436v-4q172 -45 172 -209q0 -110 -83 -172.5t-231 -62.5q-92 0 -167.5 26.5t-116.5 73.5v59h4q41 -54 115 -84t165 -30q126 0 195.5 50t69.5 142q0 89 -63.5 137t-182.5 48h-139v43h120q119 0 182.5 44.5t63.5 129.5
q0 86 -66 133t-186 47q-154 0 -258 -107h-4v58q44 43 116 68.5t148 25.5q140 0 219.5 -58.5t79.5 -162.5q0 -147 -153 -195zM578 520h-50v780l-235 -155v51l248 164h37v-840z" />
    <glyph glyph-name="twothirds" unicode="&#x2154;" horiz-adv-x="1970" 
d="M547 0l880 1360h58l-881 -1360h-57zM1692 436v-4q172 -45 172 -209q0 -110 -83 -172.5t-231 -62.5q-92 0 -167.5 26.5t-116.5 73.5v59h4q41 -54 115 -84t165 -30q126 0 195.5 50t69.5 142q0 89 -63.5 137t-182.5 48h-139v43h120q119 0 182.5 44.5t63.5 129.5
q0 86 -66 133t-186 47q-154 0 -258 -107h-4v58q44 43 116 68.5t148 25.5q140 0 219.5 -58.5t79.5 -162.5q0 -147 -153 -195zM702 565v-45h-563v49l144 115q218 174 294 266t76 180q0 95 -61 146t-176 51q-149 0 -260 -108h-4v57q53 44 123.5 70t140.5 26q138 0 212 -62
t74 -177q0 -100 -79.5 -198.5t-307.5 -279.5l-108 -86v-4h495z" />
    <glyph glyph-name="oneeighth" unicode="&#x215b;" horiz-adv-x="1970" 
d="M516 0l881 1360h57l-881 -1360h-57zM1696 438v-4q188 -44 188 -215q0 -109 -88.5 -170t-245.5 -61t-245 61t-88 170q0 168 190 209v4q-166 44 -166 199q0 104 82 162.5t227 58.5t227.5 -58.5t82.5 -162.5q0 -152 -164 -193zM1290 629q0 -85 67 -129.5t193 -44.5t193 44.5
t67 129.5t-68 131.5t-192 46.5t-192 -46.5t-68 -131.5zM1550 33q135 0 210 49.5t75 140.5q0 90 -74 138.5t-211 48.5t-210.5 -48t-73.5 -139t74.5 -140.5t209.5 -49.5zM578 520h-50v780l-235 -155v51l248 164h37v-840z" />
    <glyph glyph-name="threeeighths" unicode="&#x215c;" horiz-adv-x="1970" 
d="M526 0l881 1360h57l-880 -1360h-58zM1696 438v-4q188 -44 188 -215q0 -109 -88.5 -170t-245.5 -61t-245 61t-88 170q0 168 190 209v4q-166 44 -166 199q0 104 82 162.5t227 58.5t227.5 -58.5t82.5 -162.5q0 -152 -164 -193zM1290 629q0 -85 67 -129.5t193 -44.5t193 44.5
t67 129.5t-68 131.5t-192 46.5t-192 -46.5t-68 -131.5zM1550 33q135 0 210 49.5t75 140.5q0 90 -74 138.5t-211 48.5t-210.5 -48t-73.5 -139t74.5 -140.5t209.5 -49.5zM561 956v-4q172 -45 172 -209q0 -110 -82.5 -172.5t-230.5 -62.5q-93 0 -168.5 26.5t-116.5 73.5v60h4
q41 -54 115.5 -84.5t165.5 -30.5q126 0 195 50t69 142q0 89 -63.5 137t-182.5 48h-139v43h121q119 0 182.5 44.5t63.5 129.5q0 86 -66 133t-186 47q-155 0 -258 -106h-4v57q44 43 116 68.5t148 25.5q140 0 219.5 -58.5t79.5 -162.5q0 -146 -154 -195z" />
    <glyph glyph-name="fiveeighths" unicode="&#x215d;" horiz-adv-x="1970" 
d="M526 0l881 1360h57l-880 -1360h-58zM1696 438v-4q188 -44 188 -215q0 -109 -88.5 -170t-245.5 -61t-245 61t-88 170q0 168 190 209v4q-166 44 -166 199q0 104 82 162.5t227 58.5t227.5 -58.5t82.5 -162.5q0 -152 -164 -193zM1290 629q0 -85 67 -129.5t193 -44.5t193 44.5
t67 129.5t-68 131.5t-192 46.5t-192 -46.5t-68 -131.5zM1550 33q135 0 210 49.5t75 140.5q0 90 -74 138.5t-211 48.5t-210.5 -48t-73.5 -139t74.5 -140.5t209.5 -49.5zM418 1057q149 0 231 -71t82 -200t-85.5 -203.5t-233.5 -74.5q-97 0 -173.5 26.5t-117.5 73.5v60h4
q43 -55 117 -85t168 -30q129 0 200.5 61.5t71.5 171.5q0 109 -70 167.5t-202 58.5q-147 0 -256 -66h-4v414h528v-45h-483v-307q100 49 223 49z" />
    <glyph glyph-name="seveneighths" unicode="&#x215e;" horiz-adv-x="1970" 
d="M414 0l880 1360h58l-881 -1360h-57zM1696 438v-4q188 -44 188 -215q0 -109 -88.5 -170t-245.5 -61t-245 61t-88 170q0 168 190 209v4q-166 44 -166 199q0 104 82 162.5t227 58.5t227.5 -58.5t82.5 -162.5q0 -152 -164 -193zM1290 629q0 -85 67 -129.5t193 -44.5t193 44.5
t67 129.5t-68 131.5t-192 46.5t-192 -46.5t-68 -131.5zM1550 33q135 0 210 49.5t75 140.5q0 90 -74 138.5t-211 48.5t-210.5 -48t-73.5 -139t74.5 -140.5t209.5 -49.5zM246 520h-58l545 795h-598v45h647v-49z" />
    <glyph glyph-name="partialdiff" unicode="&#x2202;" horiz-adv-x="1218" 
d="M643 1454q218 0 340.5 -149.5t122.5 -413.5q0 -259 -81.5 -467.5t-225 -326t-322.5 -117.5q-164 0 -272.5 111.5t-108.5 281.5q0 154 67 283t183.5 203.5t255.5 74.5q140 0 255.5 -74.5t178.5 -202.5h4q19 117 19 234q0 246 -108.5 382t-305.5 136q-177 0 -305 -113h-4
v56q126 102 307 102zM475 25q194 0 341 151t208 404q-54 142 -167 225.5t-253 83.5q-193 0 -326 -150t-133 -368q0 -150 93.5 -248t236.5 -98z" />
    <glyph glyph-name="uni2206" unicode="&#x2206;" horiz-adv-x="1452" 
d="M41 0l661 1360h48l661 -1360h-1370zM1331 47l-604 1243h-4l-604 -1243h1212z" />
    <glyph glyph-name="product" unicode="&#x220f;" horiz-adv-x="1417" 
d="M1243 -266h-51v1579h-967v-1579h-51v1626h1069v-1626z" />
    <glyph glyph-name="summation" unicode="&#x2211;" horiz-adv-x="1150" 
d="M768 547l-606 -766h944v-47h-1012v43l611 770l-611 770v43h1012v-47h-944z" />
    <glyph glyph-name="minus" unicode="&#x2212;" horiz-adv-x="1331" 
d="M113 592v45h1106v-45h-1106z" />
    <glyph glyph-name="uni2219" unicode="&#x2219;" horiz-adv-x="450" 
d="M225 731q22 0 36.5 -14.5t14.5 -36.5t-14.5 -36.5t-36.5 -14.5t-36.5 14.5t-14.5 36.5t14.5 36.5t36.5 14.5z" />
    <glyph glyph-name="radical" unicode="&#x221a;" horiz-adv-x="1019" 
d="M530 -143h-47l-245 532h-142v45h172l232 -506h4l426 1473h49z" />
    <glyph glyph-name="infinity" unicode="&#x221e;" horiz-adv-x="1406" 
d="M1032 973q122 0 197.5 -81.5t75.5 -211.5t-77 -211.5t-200 -81.5q-96 0 -170 56.5t-151 191.5h-5q-76 -134 -152 -191t-175 -57q-122 0 -197.5 81.5t-75.5 211.5t77 211.5t200 81.5q96 0 171.5 -57t151.5 -189h5q73 132 148.5 189t176.5 57zM385 430q87 0 154 56t141 194
q-77 137 -148.5 193.5t-164.5 56.5q-98 0 -157.5 -68t-59.5 -182t64 -182t171 -68zM1040 430q100 0 160 68t60 182t-65 182t-173 68q-87 0 -153 -55t-140 -193q77 -138 148 -195t163 -57z" />
    <glyph glyph-name="integral" unicode="&#x222b;" horiz-adv-x="745" 
d="M547 1454q99 0 153 -51v-60h-4q-48 66 -149 66q-77 0 -113.5 -45.5t-36.5 -142.5v-1397q0 -234 -198 -234q-99 0 -154 52v59h4q48 -66 150 -66q76 0 112.5 46t36.5 143v1397q0 233 199 233z" />
    <glyph glyph-name="approxequal" unicode="&#x2248;" horiz-adv-x="1331" 
d="M1190 975l39 -25q-140 -227 -311 -227q-61 0 -120 24t-147 84q-79 57 -130.5 79t-102.5 22q-78 0 -144.5 -50t-132.5 -157l-39 25q140 227 312 227q61 0 119.5 -24.5t148.5 -86.5q84 -58 132 -78t99 -20q78 0 144.5 50t132.5 157zM1190 504l39 -25q-140 -227 -311 -227
q-61 0 -120 24t-147 84q-79 57 -130.5 79t-102.5 22q-78 0 -144.5 -50t-132.5 -157l-39 25q140 227 312 227q61 0 119.5 -24.5t148.5 -86.5q84 -58 132 -78t99 -20q78 0 144.5 50t132.5 157z" />
    <glyph glyph-name="notequal" unicode="&#x2260;" horiz-adv-x="1331" 
d="M549 381h649v-45h-680l-219 -316h-51l219 316h-334v45h365l325 467h-690v45h721l219 315h51l-219 -315h293v-45h-324z" />
    <glyph glyph-name="lessequal" unicode="&#x2264;" horiz-adv-x="1331" 
d="M1178 299v-49l-1024 430v33l1024 430v-49l-951 -398zM1178 0h-1024v45h1024v-45z" />
    <glyph glyph-name="greaterequal" unicode="&#x2265;" horiz-adv-x="1331" 
d="M154 250v49l950 397l-950 398v49l1024 -430v-33zM1178 0h-1024v45h1024v-45z" />
    <glyph glyph-name="lozenge" unicode="&#x25ca;" horiz-adv-x="1187" 
d="M578 0l-472 680l472 680h32l471 -680l-471 -680h-32zM160 680l434 -627l434 627l-434 627z" />
    <glyph glyph-name="uniE069" unicode="&#xe069;" horiz-adv-x="356" 
d="M178 1305q20 0 33.5 -14t13.5 -34t-13.5 -33.5t-33.5 -13.5t-33.5 13.5t-13.5 33.5t13.5 34t33.5 14zM154 0v950h49v-950h-49z" />
    <glyph glyph-name="uniEF01" unicode="&#xef01;" horiz-adv-x="1024" 
d="M262 -430l227 291h60l-238 -291h-49z" />
    <glyph glyph-name="uniEF02" unicode="&#xef02;" horiz-adv-x="1024" 
d="M455 1098l67 336h47l-75 -336h-39z" />
    <glyph glyph-name="uniF8FF" unicode="&#xf8ff;" horiz-adv-x="2048" 
d="M899 430v107h-2l-35 -160h-47l57 258h56v-135h2l57 135h64l-58 -258h-49l35 160h-2l-45 -107h-33zM287 584l-35 -158q-8 -26 -19.5 -37.5t-31.5 -11.5h-95l58 258h88q37 0 37 -31q0 -8 -2 -20zM600 377h-49l12 53h-35l-14 -53h-49l47 211q9 47 53 47h45q37 0 37 -31
q0 -8 -2 -20zM1167 377h-49l12 53h-34l-15 -53h-49l47 211q9 47 54 47h45q36 0 36 -31q0 -8 -2 -20zM821 584l-22 -107q-8 -35 -27 -41l12 -59h-47l-8 53h-27l-12 -53h-49l57 258h88q37 0 37 -31q0 -8 -2 -20zM1731 584l-25 -109q-9 -45 -49 -45h-45l-13 -53h-49l58 258h88
q37 0 37 -31q0 -8 -2 -20zM477 635l-57 -258h-49l12 53h-37l-12 -53h-49l57 258h49l-37 -166h37l37 166h49zM1440 635h49l-35 -154q-1 -7 0.5 -9.5t7.5 -2.5h15q9 0 12 8l35 158h49l-35 -160q-9 -45 -49 -45l-29 -53h-49l29 53q-37 0 -37 31q0 10 2 20zM1845 496l-8 -39h-53
l-8 -41h67l-10 -39h-115l58 258h116l-10 -39h-65l-23 -100h51zM1374 596l-49 -219h-49l49 219h-39l8 39h125l-8 -39h-37zM205 596l-41 -180h26q10 0 13 10l35 158q2 12 -7 12h-26zM1659 477l22 107q1 7 -0.5 9.5t-7.5 2.5h-24l-29 -127h27q9 0 12 8zM750 477l22 107
q1 7 -0.5 9.5t-7.5 2.5h-25l-28 -127h26q10 0 13 8zM1155 596h-14q-11 0 -13 -10l-26 -117h37l24 115q1 7 -0.5 9.5t-7.5 2.5zM588 596h-15q-9 0 -12 -10l-26 -117h36l25 115q1 7 -0.5 9.5t-7.5 2.5zM2021 682v-61h-12v51h-2l-14 -41h-8l-15 41h-2v-51h-10v61h20l11 -33h2
l10 33h20zM1950 682v-10h-19v-51h-12v51h-16v10h47z" />
    <glyph glyph-name="zero.numr" 
d="M420 1372q158 0 246 -113.5t88 -318.5t-88 -318.5t-246 -113.5t-246 113.5t-88 318.5t88 318.5t246 113.5zM420 1327q-137 0 -211 -100t-74 -287t74 -288t211 -101t211 101t74 288t-74 287t-211 100z" />
    <glyph glyph-name="one.numr" 
d="M578 520h-50v780l-235 -155v51l248 164h37v-840z" />
    <glyph glyph-name="two.numr" 
d="M702 565v-45h-563v49l144 115q218 174 294 266t76 180q0 95 -61 146t-176 51q-149 0 -260 -108h-4v57q53 44 123.5 70t140.5 26q138 0 212 -62t74 -177q0 -100 -79.5 -198.5t-307.5 -279.5l-108 -86v-4h495z" />
    <glyph glyph-name="three.numr" 
d="M561 956v-4q172 -45 172 -209q0 -110 -82.5 -172.5t-230.5 -62.5q-93 0 -168.5 26.5t-116.5 73.5v60h4q41 -54 115.5 -84.5t165.5 -30.5q126 0 195 50t69 142q0 89 -63.5 137t-182.5 48h-139v43h121q119 0 182.5 44.5t63.5 129.5q0 86 -66 133t-186 47q-155 0 -258 -106
h-4v57q44 43 116 68.5t148 25.5q140 0 219.5 -58.5t79.5 -162.5q0 -146 -154 -195z" />
    <glyph glyph-name="four.numr" 
d="M668 520h-50v187h-526v43l524 610h52v-608h127v-45h-127v-187zM154 752h464v542z" />
    <glyph glyph-name="five.numr" 
d="M418 1057q149 0 231 -71t82 -200t-85.5 -203.5t-233.5 -74.5q-97 0 -173.5 26.5t-117.5 73.5v60h4q43 -55 117 -85t168 -30q129 0 200.5 61.5t71.5 171.5q0 109 -70 167.5t-202 58.5q-147 0 -256 -66h-4v414h528v-45h-483v-307q100 49 223 49z" />
    <glyph glyph-name="six.numr" 
d="M457 1053q132 0 213.5 -73.5t81.5 -193.5q0 -126 -83 -202t-218 -76q-166 0 -258.5 107.5t-92.5 302.5q0 217 97 335.5t274 118.5q145 0 217 -63v-58h-4q-76 76 -211 76q-157 0 -240 -105t-83 -302v-5h4q51 65 130.5 101.5t172.5 36.5zM449 553q115 0 184 63.5t69 169.5
q0 102 -67.5 163t-181.5 61q-97 0 -178.5 -46.5t-122.5 -125.5q14 -132 93.5 -208.5t203.5 -76.5z" />
    <glyph glyph-name="seven.numr" 
d="M246 520h-58l545 795h-598v45h647v-49z" />
    <glyph glyph-name="eight.numr" 
d="M565 958v-4q189 -45 189 -215q0 -109 -88.5 -170t-245.5 -61t-245.5 61t-88.5 170q0 168 190 209v4q-165 44 -165 199q0 104 82 162.5t227 58.5t227 -58.5t82 -162.5q0 -152 -164 -193zM160 1149q0 -85 67 -129.5t193 -44.5t193 44.5t67 129.5t-68 131.5t-192 46.5
t-192 -46.5t-68 -131.5zM420 553q135 0 210 49.5t75 140.5q0 90 -74 138.5t-211 48.5t-211 -48.5t-74 -138.5q0 -91 75 -140.5t210 -49.5z" />
    <glyph glyph-name="nine.numr" 
d="M389 1372q166 0 258 -107t92 -302q0 -217 -96.5 -336t-273.5 -119q-145 0 -217 63v58h4q76 -76 211 -76q156 0 239.5 105.5t83.5 302.5v4h-4q-51 -65 -130.5 -101.5t-172.5 -36.5q-132 0 -213.5 73.5t-81.5 193.5q0 126 83 202t218 76zM387 870q97 0 178.5 46.5
t122.5 125.5q-14 132 -93.5 208.5t-203.5 76.5q-115 0 -184.5 -63.5t-69.5 -169.5q0 -101 68 -162.5t182 -61.5z" />
    <glyph glyph-name="zero.dnom" 
d="M420 852q158 0 246 -113.5t88 -318.5t-88 -318.5t-246 -113.5t-246 113.5t-88 318.5t88 318.5t246 113.5zM420 807q-137 0 -211 -100t-74 -287t74 -288t211 -101t211 101t74 288t-74 287t-211 100z" />
    <glyph glyph-name="one.dnom" 
d="M578 0h-50v780l-235 -155v51l248 164h37v-840z" />
    <glyph glyph-name="two.dnom" 
d="M702 45v-45h-563v49l144 115q218 174 294 266t76 180q0 95 -61 146t-176 51q-148 0 -260 -109h-4v58q53 44 123.5 70t140.5 26q138 0 212 -62t74 -178q0 -100 -79.5 -198t-307.5 -279l-108 -86v-4h495z" />
    <glyph glyph-name="three.dnom" 
d="M561 436v-4q172 -45 172 -209q0 -110 -82.5 -172.5t-230.5 -62.5q-93 0 -168.5 26.5t-116.5 73.5v59h4q41 -54 115.5 -84t165.5 -30q126 0 195 50t69 142q0 89 -63.5 137t-182.5 48h-139v43h121q119 0 182.5 44.5t63.5 129.5q0 86 -66 133t-186 47q-154 0 -258 -107h-4
v58q44 43 116 68.5t148 25.5q140 0 219.5 -58.5t79.5 -162.5q0 -146 -154 -195z" />
    <glyph glyph-name="four.dnom" 
d="M668 0h-50v186h-526v43l524 611h52v-609h127v-45h-127v-186zM154 231h464v543z" />
    <glyph glyph-name="five.dnom" 
d="M418 537q149 0 231 -71t82 -200t-85.5 -203.5t-233.5 -74.5q-97 0 -173.5 26.5t-117.5 73.5v59h4q88 -114 285 -114q129 0 200.5 61.5t71.5 171.5q0 109 -70 167.5t-202 58.5q-147 0 -256 -66h-4v414h528v-45h-483v-308q102 50 223 50z" />
    <glyph glyph-name="six.dnom" 
d="M457 532q132 0 213.5 -73t81.5 -193q0 -126 -83 -202t-218 -76q-166 0 -258.5 107t-92.5 302q0 217 97 336t274 119q144 0 217 -64v-57h-4q-76 76 -211 76q-156 0 -239.5 -105.5t-83.5 -302.5v-4h4q51 65 130.5 101t172.5 36zM449 33q115 0 184 63.5t69 169.5
q0 101 -67.5 162t-181.5 61q-97 0 -178.5 -46.5t-122.5 -125.5q13 -132 92.5 -208t204.5 -76z" />
    <glyph glyph-name="seven.dnom" 
d="M246 0h-58l545 795h-598v45h647v-49z" />
    <glyph glyph-name="eight.dnom" 
d="M565 438v-4q189 -45 189 -215q0 -109 -88.5 -170t-245.5 -61t-245.5 61t-88.5 170q0 168 190 209v4q-165 44 -165 199q0 104 82 162.5t227 58.5t227 -58.5t82 -162.5q0 -152 -164 -193zM160 629q0 -85 67 -129.5t193 -44.5t193 44.5t67 129.5t-68 131.5t-192 46.5
t-192 -46.5t-68 -131.5zM420 33q135 0 210 49.5t75 140.5q0 90 -74 138.5t-211 48.5t-211 -48.5t-74 -138.5q0 -91 75 -140.5t210 -49.5z" />
    <glyph glyph-name="nine.dnom" 
d="M389 852q166 0 258 -107.5t92 -302.5q0 -217 -96.5 -335.5t-273.5 -118.5q-145 0 -217 63v58h4q76 -76 211 -76q157 0 240 105t83 302v4h-4q-51 -65 -130.5 -101t-172.5 -36q-132 0 -213.5 73t-81.5 193q0 126 83 202.5t218 76.5zM387 350q97 0 178.5 46.5t122.5 125.5
q-14 132 -93.5 208.5t-203.5 76.5q-115 0 -184.5 -64t-69.5 -170q0 -101 68 -162t182 -61z" />
    </font>
</defs>
</svg>
