<?xml version="1.0" standalone="no"?>
<!DOCTYPE svg PUBLIC "-//W3C//DTD SVG 1.1//EN" "http://www.w3.org/Graphics/SVG/1.1/DTD/svg11.dtd" >
<svg xmlns="http://www.w3.org/2000/svg" xmlns:xlink="http://www.w3.org/1999/xlink" version="1.1">
<metadata>
Created by FontForge 20201107 at Tue Nov 25 13:38:37 2025
 By 
Copyright (c) 2014 by Ryoichi Tsunekawa. All rights reserved.
</metadata>
<defs>
<font id="Graphie-ExtraLight" horiz-adv-x="839" >
  <font-face 
    font-family="Graphie ExtraLight"
    font-weight="250"
    font-stretch="normal"
    units-per-em="2048"
    panose-1="2 11 4 3 2 2 4 2 2 4"
    ascent="1536"
    descent="-512"
    x-height="952"
    cap-height="1360"
    bbox="-330 -430 2204 1872"
    underline-thickness="57"
    underline-position="-208"
    unicode-range="U+0020-FB03"
  />
<missing-glyph horiz-adv-x="1269" 
d="M1159 0h-1048v1360h1048v-1360zM1010 1276h-750l375 -520zM580 680l-377 524v-1048zM690 680l377 -524v1048zM1010 84l-375 520l-375 -520h750z" />
    <glyph glyph-name="ff" unicode="ff" horiz-adv-x="1220" 
d="M1055 1454q110 0 176 -39v-76h-6q-27 20 -73 33.5t-93 13.5q-100 0 -152.5 -59.5t-52.5 -173.5v-201h344v-67h-344v-885h-76v885h-487v-885h-76v885h-195v67h195v181q0 143 72.5 222t204.5 79q110 0 176 -39v-76h-6q-27 20 -73 33.5t-93 13.5q-100 0 -152.5 -59.5
t-52.5 -173.5v-181h487v201q0 143 72.5 222t204.5 79z" />
    <glyph glyph-name="fi" unicode="fi" horiz-adv-x="1011" 
d="M786 0v885h-495v-885h-76v885h-195v67h195v201q0 142 70.5 221.5t195.5 79.5q100 0 166 -39v-76h-6q-26 20 -71 33.5t-85 13.5q-93 0 -143.5 -60t-50.5 -173v-201h571v-952h-76zM823 1317q26 0 43 -17t17 -43q0 -25 -17 -42t-43 -17q-25 0 -42 17t-17 42q0 26 17 43
t42 17z" />
    <glyph glyph-name="ffi" unicode="ffi" horiz-adv-x="1574" 
d="M1425 0h-75v885h-496v-885h-76v885h-487v-885h-76v885h-195v67h195v181q0 143 72.5 222t204.5 79q110 0 176 -39v-76h-6q-27 20 -73 33.5t-93 13.5q-100 0 -152.5 -59.5t-52.5 -173.5v-181h487v201q0 142 70.5 221.5t195.5 79.5q100 0 166 -39v-76h-6q-26 20 -70.5 33.5
t-84.5 13.5q-93 0 -144 -60t-51 -173v-201h571v-952zM1386 1317q26 0 43 -17t17 -43q0 -25 -17 -42t-43 -17q-25 0 -42 17t-17 42q0 26 17 43t42 17z" />
    <glyph glyph-name="f_j" unicode="fj" horiz-adv-x="1011" 
d="M862 952v-1136q0 -118 -44 -172t-140 -54q-56 0 -103 21v74h7q44 -27 90 -27q63 0 88.5 35.5t25.5 124.5v1067h-495v-885h-76v885h-195v67h195v201q0 142 70.5 221.5t195.5 79.5q100 0 166 -39v-76h-6q-26 20 -71 33.5t-85 13.5q-93 0 -143.5 -60t-50.5 -173v-201h571z
M823 1317q26 0 43 -17t17 -43q0 -25 -17 -42t-43 -17q-25 0 -42 17t-17 42q0 26 17 43t42 17z" />
    <glyph glyph-name="f_f_j" unicode="ffj" horiz-adv-x="1574" 
d="M1425 952v-1136q0 -118 -44 -172t-140 -54q-55 0 -102 21v74h6q43 -27 90 -27q63 0 89 35.5t26 124.5v1067h-496v-885h-76v885h-487v-885h-76v885h-195v67h195v181q0 143 72.5 222t204.5 79q110 0 176 -39v-76h-6q-27 20 -73 33.5t-93 13.5q-100 0 -152.5 -59.5
t-52.5 -173.5v-181h487v201q0 142 70.5 221.5t195.5 79.5q100 0 166 -39v-76h-6q-26 20 -70.5 33.5t-84.5 13.5q-93 0 -144 -60t-51 -173v-201h571zM1386 1317q26 0 43 -17t17 -43q0 -25 -17 -42t-43 -17q-25 0 -42 17t-17 42q0 26 17 43t42 17z" />
    <glyph glyph-name=".notdef" horiz-adv-x="1269" 
d="M1159 0h-1048v1360h1048v-1360zM1010 1276h-750l375 -520zM580 680l-377 524v-1048zM690 680l377 -524v1048zM1010 84l-375 520l-375 -520h750z" />
    <glyph glyph-name=".null" horiz-adv-x="0" 
 />
    <glyph glyph-name="nonmarkingreturn" horiz-adv-x="682" 
 />
    <glyph glyph-name="space" unicode=" " horiz-adv-x="450" 
 />
    <glyph glyph-name="exclam" unicode="!" horiz-adv-x="462" 
d="M201 322l-13 1038h88l-12 -1038h-63zM231 109q28 0 47 -18t19 -46t-19 -46.5t-47 -18.5t-45.5 18.5t-17.5 46.5t17.5 46t45.5 18z" />
    <glyph glyph-name="quotedbl" unicode="&#x22;" horiz-adv-x="722" 
d="M182 774l-6 586h70l-6 -586h-58zM483 774l-6 586h70l-6 -586h-58z" />
    <glyph glyph-name="numbersign" unicode="#" horiz-adv-x="1331" 
d="M897 475h301l-8 -59h-301l-60 -416h-63l59 416h-395l-59 -416h-64l60 416h-304l9 59h303l61 430h-303l8 60h303l56 395h63l-55 -395h395l55 395h64l-55 -395h301l-8 -60h-302zM500 905l-62 -430h396l61 430h-395z" />
    <glyph glyph-name="dollar" unicode="$" horiz-adv-x="1331" 
d="M1135 401q0 -155 -117.5 -247.5t-323.5 -98.5v-178h-67v178q-142 4 -260.5 43t-192.5 105v86h6q152 -152 447 -164v532q-234 15 -333 85.5t-99 215.5q0 152 117.5 246.5t314.5 100.5v157h67v-157q264 -12 381 -123v-86h-6q-112 127 -375 139v-508q235 -15 337 -92.5
t104 -233.5zM270 958q0 -108 81 -160t276 -65v502q-164 -5 -260.5 -79.5t-96.5 -197.5zM694 651v-526q169 4 267 78.5t98 197.5q0 118 -83.5 176.5t-281.5 73.5z" />
    <glyph glyph-name="percent" unicode="%" horiz-adv-x="1536" 
d="M379 1380q141 0 222 -90.5t81 -247.5q0 -155 -81 -245t-222 -90t-222 90t-81 245q0 157 81 247.5t222 90.5zM291 0l876 1360h78l-876 -1360h-78zM379 1317q-111 0 -172.5 -72t-61.5 -203q0 -130 61.5 -201t172.5 -71t172 71t61 201q0 132 -61 203.5t-172 71.5zM1157 653
q141 0 222 -90.5t81 -247.5q0 -155 -81 -245t-222 -90t-222 90t-81 245q0 157 81 247.5t222 90.5zM1157 590q-111 0 -172 -71.5t-61 -203.5q0 -130 61 -201t172 -71t172.5 71t61.5 201q0 131 -61.5 203t-172.5 72z" />
    <glyph glyph-name="ampersand" unicode="&#x26;" horiz-adv-x="1288" 
d="M1135 0l-156 154q-165 -174 -442 -174q-201 0 -318 95.5t-117 260.5q0 127 71 219.5t228 169.5l-30 31q-89 89 -126.5 162t-37.5 159q0 138 96 220.5t256 82.5q158 0 252 -76.5t94 -205.5q0 -125 -85 -212t-300 -177l453 -447q106 148 106 389q0 37 -4 88h76q4 -33 4 -84
q0 -274 -129 -446l213 -209h-104zM436 791l33 -33q206 86 285.5 160.5t79.5 177.5q0 97 -75 157t-198 60q-127 0 -202.5 -64.5t-75.5 -171.5q0 -76 32.5 -137t120.5 -149zM539 47q246 0 389 158l-477 471q-144 -70 -208.5 -149t-64.5 -185q0 -141 94.5 -218t266.5 -77z" />
    <glyph glyph-name="quotesingle" unicode="'" horiz-adv-x="421" 
d="M182 774l-6 586h70l-6 -586h-58z" />
    <glyph glyph-name="parenleft" unicode="(" horiz-adv-x="694" 
d="M489 1360h86q-307 -337 -307 -785q0 -447 307 -784h-86q-296 338 -296 784q0 447 296 785z" />
    <glyph glyph-name="parenright" unicode=")" horiz-adv-x="694" 
d="M205 -209h-86q307 337 307 784q0 448 -307 785h86q297 -339 297 -785q0 -445 -297 -784z" />
    <glyph glyph-name="asterisk" unicode="*" horiz-adv-x="915" 
d="M657 696l-200 305l-201 -305l-61 45l227 289l-350 98l24 68l338 -125l-14 363h76l-17 -363l340 125l23 -68l-350 -98l229 -289z" />
    <glyph glyph-name="plus" unicode="+" horiz-adv-x="1331" 
d="M700 582v-541h-67v541h-541v67h541v539h67v-539h539v-67h-539z" />
    <glyph glyph-name="comma" unicode="," horiz-adv-x="462" 
d="M289 88l-144 -389h-61l127 389h78z" />
    <glyph glyph-name="hyphen" unicode="-" horiz-adv-x="757" 
d="M100 518v76h557v-76h-557z" />
    <glyph glyph-name="period" unicode="." horiz-adv-x="462" 
d="M231 109q28 0 47 -18t19 -46t-19 -46.5t-47 -18.5t-45.5 18.5t-17.5 46.5t17.5 46t45.5 18z" />
    <glyph glyph-name="slash" unicode="/" horiz-adv-x="815" 
d="M78 -164l588 1585h69l-585 -1585h-72z" />
    <glyph glyph-name="zero" unicode="0" horiz-adv-x="1331" 
d="M666 1380q263 0 409 -183.5t146 -516.5t-146 -516.5t-409 -183.5t-409 183.5t-146 516.5t146 516.5t409 183.5zM666 1311q-227 0 -352.5 -165t-125.5 -466t125.5 -466t352.5 -165t352 165t125 466t-125 466t-352 165z" />
    <glyph glyph-name="one" unicode="1" horiz-adv-x="1331" 
d="M897 0h-78v1268l-512 -264v81l533 275h57v-1360z" />
    <glyph glyph-name="two" unicode="2" horiz-adv-x="1331" 
d="M1137 70v-70h-936v78l239 186q359 281 489 432.5t130 292.5q0 156 -103 239t-297 83q-119 0 -234 -46t-198 -128h-6v88q86 72 203.5 113.5t234.5 41.5q230 0 354 -100.5t124 -286.5q0 -110 -59 -214.5t-197 -236.5t-392 -327l-184 -141v-4h832z" />
    <glyph glyph-name="three" unicode="3" horiz-adv-x="1331" 
d="M899 705v-5q139 -34 213 -120.5t74 -219.5q0 -179 -139 -279.5t-383 -100.5q-150 0 -277 43.5t-197 119.5v90h7q69 -87 192.5 -135.5t274.5 -48.5q209 0 326.5 83.5t117.5 232.5q0 148 -105.5 224.5t-306.5 76.5h-233v69h201q200 0 305.5 71.5t105.5 209.5
q0 141 -110.5 218t-309.5 77q-125 0 -238 -45.5t-192 -128.5h-6v90q76 72 193.5 112.5t244.5 40.5q231 0 363.5 -95.5t132.5 -262.5q0 -241 -254 -317z" />
    <glyph glyph-name="four" unicode="4" horiz-adv-x="1331" 
d="M1057 0h-78v301h-873v66l869 993h82v-989h215v-70h-215v-301zM203 371h776v889z" />
    <glyph glyph-name="five" unicode="5" horiz-adv-x="1331" 
d="M662 866q245 0 382.5 -115.5t137.5 -320.5q0 -212 -141.5 -331t-391.5 -119q-153 0 -282 43t-199 118v90h6q72 -88 195.5 -135t279.5 -47q216 0 335.5 100t119.5 281q0 177 -118.5 272t-338.5 95q-238 0 -424 -111h-6v674h877v-70h-807v-502q167 78 375 78z" />
    <glyph glyph-name="six" unicode="6" horiz-adv-x="1331" 
d="M737 864q215 0 346 -118.5t131 -313.5q0 -204 -137.5 -328t-361.5 -124q-276 0 -429 174t-153 489q0 349 161.5 543t453.5 194q239 0 360 -102v-90h-6q-117 123 -350 123q-261 0 -401 -172t-140 -492v-26h4q85 114 222.5 178.5t299.5 64.5zM715 49q189 0 305.5 105.5
t116.5 277.5q0 164 -111 263.5t-293 99.5q-164 0 -303 -76.5t-211 -206.5q23 -217 154.5 -340t341.5 -123z" />
    <glyph glyph-name="seven" unicode="7" horiz-adv-x="1331" 
d="M1247 1282l-870 -1282h-88l878 1290h-1007v70h1087v-78z" />
    <glyph glyph-name="eight" unicode="8" horiz-adv-x="1331" 
d="M911 707v-5q308 -74 308 -346q0 -178 -146.5 -277t-406.5 -99t-406.5 99t-146.5 277q0 270 307 338v4q-266 72 -266 324q0 168 135.5 263t376.5 95t376.5 -95t135.5 -263q0 -246 -267 -315zM231 1018q0 -283 435 -283q434 0 434 283q0 140 -113.5 216.5t-320.5 76.5
t-321 -77t-114 -216zM666 49q226 0 350.5 81t124.5 230q0 151 -119.5 228.5t-355.5 77.5t-356 -77.5t-120 -228.5q0 -149 125 -230t351 -81z" />
    <glyph glyph-name="nine" unicode="9" horiz-adv-x="1331" 
d="M616 1380q276 0 429 -174t153 -489q0 -349 -161.5 -543t-452.5 -194q-240 0 -361 102v90h6q117 -123 351 -123q261 0 400.5 172t139.5 492v26h-4q-85 -114 -222.5 -178.5t-299.5 -64.5q-215 0 -346 118.5t-131 313.5q0 204 137.5 328t361.5 124zM598 565q164 0 303 76.5
t211 206.5q-23 217 -154.5 340t-341.5 123q-189 0 -305 -105.5t-116 -277.5q0 -164 110.5 -263.5t292.5 -99.5z" />
    <glyph glyph-name="colon" unicode=":" horiz-adv-x="462" 
d="M231 109q28 0 47 -18t19 -46t-19 -46.5t-47 -18.5t-45.5 18.5t-17.5 46.5t17.5 46t45.5 18zM231 913q28 0 47 -18t19 -45q0 -28 -19 -47t-47 -19q-27 0 -45 19t-18 47t17.5 45.5t45.5 17.5z" />
    <glyph glyph-name="semicolon" unicode=";" horiz-adv-x="462" 
d="M289 88l-144 -389h-61l127 389h78zM231 913q28 0 47 -18t19 -45q0 -28 -19 -47t-47 -19q-27 0 -45 19t-18 47t17.5 45.5t45.5 17.5z" />
    <glyph glyph-name="less" unicode="&#x3c;" horiz-adv-x="1331" 
d="M1180 193v-74l-1028 469v53l1028 469v-74l-928 -422z" />
    <glyph glyph-name="equal" unicode="=" horiz-adv-x="1331" 
d="M131 838v67h1069v-67h-1069zM131 324v67h1069v-67h-1069z" />
    <glyph glyph-name="greater" unicode="&#x3e;" horiz-adv-x="1331" 
d="M152 1036v74l1028 -469v-53l-1028 -469v74l927 421z" />
    <glyph glyph-name="question" unicode="?" horiz-adv-x="974" 
d="M465 1380q210 0 328 -97t118 -269q0 -162 -107.5 -267.5t-352.5 -183.5v-241h-70v292q239 65 346 158t107 238t-96 223t-273 78q-122 0 -230 -45.5t-184 -128.5h-6v88q80 74 190 114.5t230 40.5zM416 109q28 0 46.5 -18t18.5 -46t-18.5 -46.5t-46.5 -18.5t-47 18.5
t-19 46.5t19 46t47 18z" />
    <glyph glyph-name="at" unicode="@" horiz-adv-x="1624" 
d="M1257 211q-68 0 -103.5 41t-35.5 119v4h-4q-42 -77 -122 -120.5t-185 -43.5q-154 0 -255 102t-101 260t101 261.5t255 103.5q105 0 184 -42t121 -118h4v146h62v-529q0 -67 19.5 -96t64.5 -29q96 0 152 93.5t56 263.5q0 179 -78 318.5t-221.5 217.5t-330.5 78
q-185 0 -333 -88t-231 -244.5t-83 -351.5q0 -184 87.5 -331t244 -229.5t352.5 -82.5q144 0 264.5 41t195.5 113h6v-74q-82 -65 -204.5 -101t-266.5 -36q-214 0 -386 90t-268.5 251t-96.5 363q0 211 93 379.5t259 263t373 94.5q203 0 360 -85t242.5 -238t85.5 -350
q0 -192 -76.5 -303t-200.5 -111zM817 270q132 0 215.5 84.5t83.5 218.5q0 135 -83.5 220.5t-215.5 85.5q-133 0 -217 -85.5t-84 -220.5q0 -134 84 -218.5t217 -84.5z" />
    <glyph glyph-name="A" unicode="A" horiz-adv-x="1470" 
d="M1335 0l-164 344h-876l-164 -344h-86l653 1360h74l653 -1360h-90zM735 1260h-4l-401 -842h807z" />
    <glyph glyph-name="B" unicode="B" horiz-adv-x="1286" 
d="M932 700v-4q278 -60 278 -331q0 -181 -114.5 -273t-339.5 -92h-580v1360h529q226 0 341 -88.5t115 -263.5q0 -238 -229 -308zM256 729h444q189 0 285 70.5t96 208.5q0 278 -379 278h-446v-557zM256 74h498q376 0 376 291q0 290 -378 290h-496v-581z" />
    <glyph glyph-name="C" unicode="C" horiz-adv-x="1368" 
d="M797 1380q298 0 465 -159v-97h-7q-81 90 -199 136.5t-259 46.5q-282 0 -457.5 -174.5t-175.5 -452.5t175.5 -452.5t457.5 -174.5q139 0 257.5 46t200.5 137h7v-97q-83 -76 -204.5 -117.5t-260.5 -41.5q-157 0 -290 52t-226 144t-145 222t-52 282t52 282t145 222t226 144
t290 52z" />
    <glyph glyph-name="D" unicode="D" horiz-adv-x="1488" 
d="M176 1360h510q333 0 527 -182.5t194 -495.5q0 -316 -194 -499t-527 -183h-510v1360zM256 74h428q299 0 471 162.5t172 445.5q0 281 -172 442.5t-471 161.5h-428v-1212z" />
    <glyph glyph-name="E" unicode="E" horiz-adv-x="1251" 
d="M999 729v-74h-743v-581h891v-74h-971v1360h971v-74h-891v-557h743z" />
    <glyph glyph-name="F" unicode="F" horiz-adv-x="1208" 
d="M256 719h745v-74h-745v-645h-80v1360h973v-74h-893v-567z" />
    <glyph glyph-name="G" unicode="G" horiz-adv-x="1449" 
d="M807 1307q-289 0 -466 -171.5t-177 -455.5t177 -455.5t466 -171.5q261 0 430 121v397h-494v74h572v-506q-191 -159 -510 -159q-324 0 -522.5 192t-198.5 508t198.5 508t522.5 192q319 0 510 -159v-97h-6q-100 96 -219 139.5t-283 43.5z" />
    <glyph glyph-name="H" unicode="H" horiz-adv-x="1509" 
d="M1253 0v655h-997v-655h-80v1360h80v-631h997v631h80v-1360h-80z" />
    <glyph glyph-name="I" unicode="I" horiz-adv-x="432" 
d="M176 0v1360h80v-1360h-80z" />
    <glyph glyph-name="J" unicode="J" horiz-adv-x="1030" 
d="M889 1360v-934q0 -211 -117 -328.5t-326 -117.5q-243 0 -395 149v96h6q64 -83 165 -127.5t222 -44.5q175 0 270 98t95 279v930h80z" />
    <glyph glyph-name="K" unicode="K" horiz-adv-x="1232" 
d="M256 0h-80v1360h80v-649l788 649h123l-823 -672l844 -688h-125l-807 662v-662z" />
    <glyph glyph-name="L" unicode="L" horiz-adv-x="1171" 
d="M1120 0h-944v1360h80v-1286h864v-74z" />
    <glyph glyph-name="M" unicode="M" horiz-adv-x="1892" 
d="M1716 0h-80v1276h-4l-657 -1276h-66l-651 1268h-4v-1268h-78v1360h123l643 -1254h4l645 1254h125v-1360z" />
    <glyph glyph-name="N" unicode="N" horiz-adv-x="1519" 
d="M1343 0h-96l-989 1274h-4v-1274h-78v1360h113l973 -1254h4v1254h77v-1360z" />
    <glyph glyph-name="O" unicode="O" horiz-adv-x="1570" 
d="M786 1380q152 0 282.5 -52t222.5 -144t144 -222t52 -282t-52 -282t-144 -222t-222.5 -144t-282.5 -52q-203 0 -363.5 89t-249.5 248.5t-89 362.5t89 362.5t249.5 248.5t363.5 89zM786 1307q-275 0 -448.5 -175t-173.5 -452t173.5 -452t448.5 -175q180 0 322 79.5
t220.5 222.5t78.5 325t-78.5 325t-220.5 222.5t-322 79.5z" />
    <glyph glyph-name="P" unicode="P" horiz-adv-x="1273" 
d="M176 1360h572q226 0 341 -102t115 -302t-115 -301.5t-341 -101.5h-492v-553h-80v1360zM256 627h489q379 0 379 329q0 330 -379 330h-489v-659z" />
    <glyph glyph-name="Q" unicode="Q" horiz-adv-x="1564" 
d="M1487 680q0 -187 -77 -338.5t-214 -243.5l213 -254h-98l-181 215q-155 -79 -344 -79q-203 0 -363.5 89t-249.5 248.5t-89 362.5t89 362.5t249.5 248.5t363.5 89q152 0 282.5 -52t222.5 -144t144 -222t52 -282zM786 53q164 0 293 66l-272 323h98l242 -286
q123 83 191.5 218.5t68.5 305.5q0 182 -78.5 325t-220.5 222.5t-322 79.5q-275 0 -448.5 -175t-173.5 -452t173.5 -452t448.5 -175z" />
    <glyph glyph-name="R" unicode="R" horiz-adv-x="1333" 
d="M256 569v-569h-80v1360h582q226 0 341 -100t115 -295q0 -172 -89.5 -271t-266.5 -119l397 -575h-98l-389 569h-512zM256 643h500q379 0 379 322q0 321 -379 321h-500v-643z" />
    <glyph glyph-name="S" unicode="S" horiz-adv-x="1169" 
d="M580 1380q146 0 263.5 -35.5t184.5 -99.5v-94h-6q-68 75 -182 115.5t-260 40.5q-178 0 -289 -85.5t-111 -222.5q0 -84 38.5 -135.5t128.5 -82.5t247 -46q187 -18 295.5 -62t155.5 -119t47 -194q0 -177 -132.5 -278.5t-361.5 -101.5q-164 0 -297.5 41.5t-218.5 119.5v97h6
q179 -185 514 -185q192 0 302 82t110 225q0 137 -97.5 204.5t-341.5 90.5q-262 24 -367.5 103t-105.5 241q0 169 133 275t345 106z" />
    <glyph glyph-name="T" unicode="T" horiz-adv-x="1169" 
d="M627 1286v-1286h-80v1286h-496v74h1067v-74h-491z" />
    <glyph glyph-name="U" unicode="U" horiz-adv-x="1427" 
d="M1286 1360v-793q0 -284 -147.5 -435.5t-425.5 -151.5q-277 0 -424.5 151.5t-147.5 435.5v793h80v-791q0 -249 127.5 -382.5t366.5 -133.5q238 0 365.5 133.5t127.5 382.5v791h78z" />
    <glyph glyph-name="V" unicode="V" horiz-adv-x="1388" 
d="M731 0h-74l-612 1360h88l561 -1254h4l559 1254h86z" />
    <glyph glyph-name="W" unicode="W" horiz-adv-x="2045" 
d="M1526 0h-78l-422 1219h-4l-424 -1219h-78l-469 1360h86l422 -1227h4l424 1227h72l428 -1231h4l420 1231h84z" />
    <glyph glyph-name="X" unicode="X" horiz-adv-x="1374" 
d="M168 0h-98l563 692l-543 668h100l498 -617l496 617h100l-543 -668l564 -692h-101l-518 641z" />
    <glyph glyph-name="Y" unicode="Y" horiz-adv-x="1325" 
d="M707 0h-80v618l-602 742h104l539 -670l532 670h100l-593 -735v-625z" />
    <glyph glyph-name="Z" unicode="Z" horiz-adv-x="1288" 
d="M100 0v68l973 1218h-932v74h1039v-68l-975 -1218h985v-74h-1090z" />
    <glyph glyph-name="bracketleft" unicode="[" horiz-adv-x="694" 
d="M588 -145v-64h-398v1569h398v-64h-324v-1441h324z" />
    <glyph glyph-name="backslash" unicode="\" horiz-adv-x="815" 
d="M735 -164h-69l-588 1585h72z" />
    <glyph glyph-name="bracketright" unicode="]" horiz-adv-x="694" 
d="M106 1296v64h398v-1569h-398v64h324v1441h-324z" />
    <glyph glyph-name="asciicircum" unicode="^" horiz-adv-x="1331" 
d="M211 580h-80l508 780h53l508 -780h-80l-454 698z" />
    <glyph glyph-name="underscore" unicode="_" horiz-adv-x="1024" 
d="M0 -225v59h1024v-59h-1024z" />
    <glyph glyph-name="grave" unicode="`" horiz-adv-x="1024" 
d="M498 1112l-248 305h86l233 -305h-71z" />
    <glyph glyph-name="a" unicode="a" horiz-adv-x="1226" 
d="M1077 0h-67l-2 219h-4q-56 -112 -169 -175.5t-262 -63.5q-214 0 -351.5 138.5t-137.5 356.5t137.5 358t351.5 140q149 0 262 -64t169 -176h4l2 219h67v-952zM584 47q186 0 305 120t119 308q0 189 -119 309.5t-305 120.5t-305 -120.5t-119 -309.5q0 -188 119 -308
t305 -120z" />
    <glyph glyph-name="b" unicode="b" horiz-adv-x="1228" 
d="M653 973q214 0 353 -140t139 -358q0 -217 -138.5 -356t-353.5 -139q-151 0 -263 64.5t-167 178.5h-4l-2 -223h-67v1434h75v-691h4q58 108 168.5 169t255.5 61zM645 47q186 0 305 120t119 308q0 189 -119 309.5t-305 120.5q-187 0 -306.5 -120.5t-119.5 -309.5
q0 -188 119.5 -308t306.5 -120z" />
    <glyph glyph-name="c" unicode="c" horiz-adv-x="1024" 
d="M592 973q213 0 330 -117v-90h-7q-118 139 -321 139q-195 0 -314.5 -120t-119.5 -310q0 -187 120 -307.5t314 -120.5q203 0 321 139h7v-92q-117 -114 -330 -114q-229 0 -368.5 138.5t-139.5 356.5q0 220 139 359t369 139z" />
    <glyph glyph-name="d" unicode="d" horiz-adv-x="1226" 
d="M1077 0h-69l-2 219h-5q-56 -112 -167.5 -175.5t-260.5 -63.5q-214 0 -351.5 138.5t-137.5 356.5t137.5 358t351.5 140q145 0 255.5 -61t168.5 -169h4v691h76v-1434zM584 47q185 0 303.5 120.5t118.5 307.5q0 189 -118.5 309.5t-303.5 120.5q-186 0 -305 -120.5
t-119 -309.5q0 -188 119 -308t305 -120z" />
    <glyph glyph-name="e" unicode="e" horiz-adv-x="1146" 
d="M1065 461h-905q4 -190 130 -302t335 -112q219 0 370 148h6v-84q-143 -131 -378 -131q-247 0 -393 134t-146 361q0 220 139 359t357 139q221 0 353 -125.5t132 -333.5v-53zM582 905q-172 0 -287.5 -104.5t-134.5 -272.5h837q-6 169 -120 273t-295 104z" />
    <glyph glyph-name="f" unicode="f" horiz-adv-x="657" 
d="M492 1454q110 0 176 -39v-76h-6q-27 20 -73 33.5t-93 13.5q-100 0 -152.5 -59.5t-52.5 -173.5v-201h344v-67h-344v-885h-76v885h-195v67h195v201q0 143 72.5 222t204.5 79z" />
    <glyph glyph-name="g" unicode="g" horiz-adv-x="1226" 
d="M1077 952v-876q0 -231 -129.5 -358.5t-365.5 -127.5q-131 0 -239 39.5t-173 110.5v88h6q65 -82 168 -126t234 -44q203 0 313 109t110 311v133h-4q-58 -107 -168 -168t-256 -61q-214 0 -351.5 138.5t-137.5 356.5t137.5 357t351.5 139q148 0 260 -64t168 -176h5l2 219h69z
M584 49q185 0 303.5 119.5t118.5 308.5t-118.5 308.5t-303.5 119.5q-186 0 -305 -119.5t-119 -308.5t119 -308.5t305 -119.5z" />
    <glyph glyph-name="h" unicode="h" horiz-adv-x="1144" 
d="M610 973q190 0 301 -116t111 -314v-543h-76v535q0 173 -91.5 271.5t-254.5 98.5q-172 0 -273.5 -114.5t-101.5 -309.5v-481h-75v1434h75v-689h4q50 109 148.5 168.5t232.5 59.5z" />
    <glyph glyph-name="i" unicode="i" horiz-adv-x="374" 
d="M186 1317q26 0 43 -17t17 -43q0 -25 -17 -42t-43 -17q-25 0 -42 17t-17 42q0 26 17 43t42 17zM150 0v952h75v-952h-75z" />
    <glyph glyph-name="j" unicode="j" horiz-adv-x="374" 
d="M186 1317q26 0 43 -17t17 -43q0 -25 -17 -42t-43 -17q-25 0 -42 17t-17 42q0 26 17 43t42 17zM225 952v-1136q0 -118 -44 -172t-140 -54q-55 0 -102 21v74h6q43 -27 90 -27q63 0 89 35.5t26 124.5v1134h75z" />
    <glyph glyph-name="k" unicode="k" horiz-adv-x="929" 
d="M225 457v-457h-75v1434h75v-924l539 442h110l-573 -467l594 -485h-115z" />
    <glyph glyph-name="l" unicode="l" horiz-adv-x="374" 
d="M150 0v1434h75v-1434h-75z" />
    <glyph glyph-name="m" unicode="m" horiz-adv-x="1767" 
d="M1276 973q180 0 274.5 -108t94.5 -314v-551h-76v549q0 174 -77 265t-226 91q-160 0 -246 -105.5t-86 -301.5v-498h-76v549q0 174 -77 265t-226 91q-160 0 -245 -105t-85 -300v-500h-75v952h67l2 -192h4q87 213 342 213q135 0 222.5 -64.5t121.5 -187.5h4
q38 123 130.5 187.5t232.5 64.5z" />
    <glyph glyph-name="n" unicode="n" horiz-adv-x="1144" 
d="M610 973q190 0 301 -116t111 -314v-543h-76v535q0 173 -91.5 271.5t-254.5 98.5q-172 0 -273.5 -114.5t-101.5 -309.5v-481h-75v952h67l2 -221h4q47 116 147.5 179t239.5 63z" />
    <glyph glyph-name="o" unicode="o" horiz-adv-x="1167" 
d="M584 973q219 0 359 -139.5t140 -358.5q0 -218 -140 -356.5t-359 -138.5q-220 0 -360 138.5t-140 356.5q0 220 140 359t360 139zM584 905q-186 0 -305 -120.5t-119 -309.5q0 -188 119 -308t305 -120t305 120t119 308q0 189 -119 309.5t-305 120.5z" />
    <glyph glyph-name="p" unicode="p" horiz-adv-x="1228" 
d="M653 973q214 0 353 -140t139 -358q0 -217 -138.5 -356t-353.5 -139q-146 0 -256 61t-168 168h-4v-598h-75v1341h67l2 -223h4q55 114 167.5 179t262.5 65zM645 47q186 0 305 120t119 308q0 189 -119 309.5t-305 120.5q-187 0 -306.5 -120.5t-119.5 -309.5
q0 -188 119.5 -308t306.5 -120z" />
    <glyph glyph-name="q" unicode="q" horiz-adv-x="1226" 
d="M1077 -389h-76v598h-4q-58 -107 -168 -168t-256 -61q-214 0 -351.5 138.5t-137.5 356.5t137.5 358t351.5 140q148 0 260 -64t168 -176h5l2 219h69v-1341zM584 47q185 0 303.5 120.5t118.5 307.5q0 189 -118.5 309.5t-303.5 120.5q-186 0 -305 -120.5t-119 -309.5
q0 -188 119 -308t305 -120z" />
    <glyph glyph-name="r" unicode="r" horiz-adv-x="712" 
d="M541 973q82 0 147 -37v-82h-6q-64 47 -145 47q-154 0 -233 -112.5t-79 -327.5v-461h-75v952h67l2 -202h4q82 223 318 223z" />
    <glyph glyph-name="s" unicode="s" horiz-adv-x="872" 
d="M434 973q214 0 320 -86v-84h-6q-94 102 -314 102q-121 0 -196.5 -60t-75.5 -157q0 -83 63.5 -121t220.5 -45q195 -9 277 -70t82 -190q0 -128 -98 -205t-261 -77q-243 0 -366 114v90h6q113 -137 358 -137q134 0 211.5 57.5t77.5 157.5q0 92 -67.5 135t-233.5 52
q-190 10 -266 64.5t-76 172.5q0 126 96 206.5t248 80.5z" />
    <glyph glyph-name="t" unicode="t" horiz-adv-x="716" 
d="M639 100v-82q-56 -38 -156 -38q-126 0 -197 77t-71 215v613h-195v67h197l19 252h55v-252h344v-67h-344v-611q0 -106 52 -166.5t144 -60.5q93 0 146 53h6z" />
    <glyph glyph-name="u" unicode="u" horiz-adv-x="1144" 
d="M995 0h-69l-2 221h-4q-47 -116 -146.5 -178.5t-238.5 -62.5q-191 0 -301.5 115.5t-110.5 314.5v542h76v-536q0 -172 92 -270.5t254 -98.5q171 0 273 115t102 309v481h75v-952z" />
    <glyph glyph-name="v" unicode="v" horiz-adv-x="993" 
d="M535 0h-76l-439 952h84l392 -860h4l395 860h78z" />
    <glyph glyph-name="w" unicode="w" horiz-adv-x="1525" 
d="M1151 0h-74l-311 825h-4l-313 -825h-72l-357 952h84l308 -841h4l317 841h66l315 -839h4l309 839h78z" />
    <glyph glyph-name="x" unicode="x" horiz-adv-x="1015" 
d="M143 0h-92l410 487l-389 465h96l342 -415l340 415h94l-387 -463l408 -489h-99l-360 442z" />
    <glyph glyph-name="y" unicode="y" horiz-adv-x="991" 
d="M324 -389h-78l213 434l-439 907h84l392 -819h4l393 819h78z" />
    <glyph glyph-name="z" unicode="z" horiz-adv-x="991" 
d="M86 0v61l707 824h-676v67h778v-61l-707 -823h717v-68h-819z" />
    <glyph glyph-name="braceleft" unicode="{" horiz-adv-x="729" 
d="M352 1087v-237q0 -226 -159 -272v-5q159 -47 159 -272v-238q0 -208 207 -208h64v-64h-70q-133 0 -203.5 70t-70.5 202v242q0 123 -49 180.5t-148 57.5h-37v65h37q99 0 148 57.5t49 180.5v241q0 132 70.5 202.5t203.5 70.5h70v-64h-64q-207 0 -207 -209z" />
    <glyph glyph-name="bar" unicode="|" horiz-adv-x="686" 
d="M311 -389v1823h62v-1823h-62z" />
    <glyph glyph-name="braceright" unicode="}" horiz-adv-x="729" 
d="M377 63v238q0 225 160 272v5q-160 47 -160 272v237q0 209 -207 209h-64v64h70q133 0 204 -70.5t71 -202.5v-241q0 -123 48.5 -180.5t147.5 -57.5h37v-65h-37q-99 0 -147.5 -57.5t-48.5 -180.5v-242q0 -132 -71 -202t-204 -70h-70v64h64q207 0 207 208z" />
    <glyph glyph-name="asciitilde" unicode="~" horiz-adv-x="1331" 
d="M1178 750l57 -35q-145 -238 -320 -238q-64 0 -126 25t-144 86q-72 53 -123.5 74.5t-101.5 21.5q-73 0 -137 -49.5t-129 -155.5l-58 35q145 238 320 238q63 0 124.5 -24.5t147.5 -86.5q74 -53 124 -74.5t99 -21.5q74 0 137.5 49t129.5 156z" />
    <glyph glyph-name="uni00A0" unicode="&#xa0;" horiz-adv-x="450" 
 />
    <glyph glyph-name="exclamdown" unicode="&#xa1;" horiz-adv-x="462" 
d="M262 1038l12 -1038h-88l13 1038h63zM231 1251q-28 0 -46.5 18t-18.5 46t18.5 46.5t46.5 18.5t46 -18.5t18 -46.5t-18 -46t-46 -18z" />
    <glyph glyph-name="cent" unicode="&#xa2;" horiz-adv-x="1331" 
d="M1108 846h-6q-121 130 -316 139v-862q198 9 316 139h6v-92q-121 -106 -322 -115v-178h-67v178q-227 11 -360.5 145.5t-133.5 354.5q0 219 133 353t361 145v178h67v-178q201 -9 322 -115v-92zM301 555q0 -192 111.5 -305.5t306.5 -124.5v858q-195 -11 -306.5 -124.5
t-111.5 -303.5z" />
    <glyph glyph-name="sterling" unicode="&#xa3;" horiz-adv-x="1331" 
d="M760 1311q-354 0 -354 -391v-205h573v-70h-573v-194q0 -135 -35.5 -222t-116.5 -155v-4h876v-70h-956v78q86 73 120 152t34 212v203h-154v70h154v209q0 221 109.5 338.5t316.5 117.5q234 0 376 -133v-90h-6q-145 154 -364 154z" />
    <glyph glyph-name="currency" unicode="&#xa4;" horiz-adv-x="1331" 
d="M1063 680q0 -148 -94 -260l159 -158l-45 -45l-157 160q-112 -94 -260 -94t-260 94l-158 -160l-45 45l159 158q-94 112 -94 260t94 260l-159 158l45 45l158 -160q112 94 260 94t260 -94l157 160l45 -45l-159 -158q94 -112 94 -260zM334 680q0 -141 96.5 -238.5
t235.5 -97.5t235 97.5t96 238.5t-96 238.5t-235 97.5t-235.5 -97.5t-96.5 -238.5z" />
    <glyph glyph-name="yen" unicode="&#xa5;" horiz-adv-x="1331" 
d="M1174 666h-467v-256h467v-68h-467v-342h-78v342h-467v68h467v256h-467v67h450l-508 627h97l467 -584l467 584h92l-508 -627h455v-67z" />
    <glyph glyph-name="brokenbar" unicode="&#xa6;" horiz-adv-x="686" 
d="M311 635v799h62v-799h-62zM311 -389v799h62v-799h-62z" />
    <glyph glyph-name="section" unicode="&#xa7;" horiz-adv-x="1099" 
d="M750 348v-4q88 -29 136 -86t48 -162q0 -143 -106 -224t-293 -81q-116 0 -218 29t-167 82v82h6q61 -62 159 -94.5t217 -32.5q159 0 245.5 61.5t86.5 175.5q0 102 -74.5 152.5t-263.5 70.5q-219 23 -306 89.5t-87 203.5q0 100 57.5 176.5t155.5 112.5v4q-85 27 -132.5 84
t-47.5 160q0 140 105 223.5t282 83.5q106 0 195.5 -23t142.5 -65v-80h-6q-52 51 -139 78t-193 27q-147 0 -232 -65.5t-85 -176.5q0 -103 74 -152.5t261 -68.5q217 -21 306.5 -90t89.5 -207q0 -97 -58.5 -172t-158.5 -111zM205 614q0 -108 77.5 -161t266.5 -72q15 -2 59 -8
q127 9 207 80t80 176q0 31 -6.5 57t-16.5 46t-28.5 36.5t-34.5 28t-44 22t-48 16.5t-54 12t-55 9t-59 8q-21 3 -60 8q-125 -6 -204.5 -78t-79.5 -180z" />
    <glyph glyph-name="dieresis" unicode="&#xa8;" horiz-adv-x="1024" 
d="M328 1317q24 0 40.5 -17.5t16.5 -42.5t-16 -41t-41 -16q-28 0 -45 16t-17 41t17.5 42.5t44.5 17.5zM696 1317q27 0 44.5 -17.5t17.5 -42.5t-17 -41t-45 -16q-25 0 -41 16t-16 41t16.5 42.5t40.5 17.5z" />
    <glyph glyph-name="copyright" unicode="&#xa9;" horiz-adv-x="1644" 
d="M821 1380q198 0 358.5 -91t251.5 -251t91 -358t-91 -358t-251.5 -251t-358.5 -91t-358 91t-251 251t-91 358t91 358t251 251t358 91zM821 1323q-179 0 -324.5 -83t-229 -230.5t-83.5 -329.5t83.5 -329.5t229 -230.5t324.5 -83t324.5 83t229 230.5t83.5 329.5t-83.5 329.5
t-229 230.5t-324.5 83zM838 1049q152 0 239 -78v-74h-6q-82 94 -231 94q-140 0 -227 -87t-87 -224t87 -224t227 -87q149 0 231 94h6v-74q-91 -78 -239 -78q-168 0 -272.5 103.5t-104.5 265.5t104.5 265.5t272.5 103.5z" />
    <glyph glyph-name="ordfeminine" unicode="&#xaa;" horiz-adv-x="931" 
d="M795 700h-60v144h-4q-40 -74 -117.5 -116t-177.5 -42q-150 0 -247 98.5t-97 249.5t96.5 248.5t247.5 97.5q100 0 176.5 -40.5t116.5 -114.5h4l2 131h60v-656zM442 745q125 0 207 81t82 208q0 125 -82 206t-207 81t-205.5 -80.5t-80.5 -206.5q0 -127 80.5 -208t205.5 -81z
" />
    <glyph glyph-name="guillemotleft" unicode="&#xab;" horiz-adv-x="940" 
d="M465 152v-91l-393 412v6l393 412v-90l-311 -326zM825 152v-91l-393 412v6l393 412v-90l-311 -326z" />
    <glyph glyph-name="logicalnot" unicode="&#xac;" horiz-adv-x="1331" 
d="M1145 203v522h-1022v68h1089v-590h-67z" />
    <glyph glyph-name="uni00AD" unicode="&#xad;" horiz-adv-x="757" 
d="M100 518v76h557v-76h-557z" />
    <glyph glyph-name="registered" unicode="&#xae;" horiz-adv-x="1644" 
d="M821 1380q198 0 358.5 -91t251.5 -251t91 -358t-91 -358t-251.5 -251t-358.5 -91t-358 91t-251 251t-91 358t91 358t251 251t358 91zM821 37q179 0 324.5 83t229 230.5t83.5 329.5t-83.5 329.5t-229 230.5t-324.5 83t-324.5 -83t-229 -230.5t-83.5 -329.5t83.5 -329.5
t229 -230.5t324.5 -83zM1122 825q0 -188 -196 -209l217 -294h-76l-215 292h-221v-292h-64v716h310q121 0 183 -54t62 -159zM631 672h241q94 0 139.5 37.5t45.5 115.5q0 156 -185 156h-241v-309z" />
    <glyph glyph-name="macron" unicode="&#xaf;" horiz-adv-x="1024" 
d="M219 1221v63h586v-63h-586z" />
    <glyph glyph-name="degree" unicode="&#xb0;" horiz-adv-x="792" 
d="M397 1380q129 0 214 -85t85 -214t-85 -214t-214 -85t-215 85t-86 214t86 214t215 85zM397 1313q-98 0 -163.5 -66t-65.5 -166q0 -101 65 -167t164 -66q97 0 162.5 66t65.5 167q0 99 -65.5 165.5t-162.5 66.5z" />
    <glyph glyph-name="plusminus" unicode="&#xb1;" horiz-adv-x="1331" 
d="M1210 664h-510v-498h-67v498h-512v67h512v500h67v-500h510v-67zM1210 68v-68h-1089v68h1089z" />
    <glyph glyph-name="twosuperior" unicode="&#xb2;" 
d="M705 854v-59h-568v65l152 119q205 164 277.5 251.5t72.5 170.5q0 90 -58.5 138t-168.5 48q-148 0 -256 -108h-6v73q53 44 122.5 69.5t139.5 25.5q141 0 217 -62.5t76 -179.5q0 -100 -76 -194.5t-295 -268.5l-107 -84v-4h478z" />
    <glyph glyph-name="threesuperior" unicode="&#xb3;" 
d="M569 1231v-4q164 -45 164 -209q0 -111 -83 -173.5t-232 -62.5q-90 0 -166 26.5t-117 72.5v75h6q41 -54 114.5 -84t162.5 -30q119 0 184.5 47.5t65.5 134.5q0 83 -60.5 127.5t-173.5 44.5h-137v59h119q115 0 175 41t60 121q0 82 -62 126t-177 44q-151 0 -254 -106h-6v73
q44 43 115.5 68t148.5 25q141 0 221 -59t80 -165q0 -71 -38.5 -120.5t-109.5 -71.5z" />
    <glyph glyph-name="acute" unicode="&#xb4;" horiz-adv-x="1024" 
d="M457 1112l233 305h86l-248 -305h-71z" />
    <glyph glyph-name="uni00B5" unicode="&#xb5;" horiz-adv-x="1185" 
d="M1030 0h-67l-2 221h-5q-48 -115 -148 -178t-239 -63q-228 0 -331 163h-5v-532h-75v1341h75v-536q0 -172 92.5 -270.5t254.5 -98.5q172 0 273 114.5t101 309.5v481h76v-952z" />
    <glyph glyph-name="paragraph" unicode="&#xb6;" horiz-adv-x="1144" 
d="M948 -389h-67v1761h-301v-1761h-68v1016q-214 6 -322 107.5t-108 295.5q0 200 116 302t343 102h530v-62h-123v-1761z" />
    <glyph glyph-name="periodcentered" unicode="&#xb7;" horiz-adv-x="462" 
d="M231 743q28 0 47 -18t19 -45q0 -28 -19 -47t-47 -19q-27 0 -45 19t-18 47t17.5 45.5t45.5 17.5z" />
    <glyph glyph-name="cedilla" unicode="&#xb8;" horiz-adv-x="1024" 
d="M530 -133q69 0 108.5 -37.5t39.5 -97.5q0 -69 -45.5 -105.5t-134.5 -36.5q-94 0 -150 39v72h4q51 -51 146 -51q56 0 85 22.5t29 61.5q0 37 -29.5 58.5t-82.5 21.5q-45 0 -88 -19v21l94 184h55l-65 -131v-4q14 2 34 2z" />
    <glyph glyph-name="onesuperior" unicode="&#xb9;" 
d="M518 795v757l-231 -151v69l248 164h49v-839h-66z" />
    <glyph glyph-name="ordmasculine" unicode="&#xba;" horiz-adv-x="886" 
d="M442 1380q154 0 253.5 -97t99.5 -249q0 -153 -99.5 -250.5t-253.5 -97.5q-153 0 -251.5 97.5t-98.5 250.5q0 152 98.5 249t251.5 97zM442 1321q-125 0 -205.5 -80.5t-80.5 -206.5q0 -127 80.5 -208t205.5 -81t207 81t82 208q0 125 -82 206t-207 81z" />
    <glyph glyph-name="guillemotright" unicode="&#xbb;" horiz-adv-x="940" 
d="M473 801v90l393 -412v-6l-393 -412v91l311 325zM113 801v90l393 -412v-6l-393 -412v91l311 325z" />
    <glyph glyph-name="onequarter" unicode="&#xbc;" horiz-adv-x="1974" 
d="M602 0l881 1360h73l-880 -1360h-74zM1804 0h-65v182h-514v58l512 600h67v-598h125v-60h-125v-182zM1303 242h436v510zM518 520v758l-231 -152v70l248 164h49v-840h-66z" />
    <glyph glyph-name="onehalf" unicode="&#xbd;" horiz-adv-x="1974" 
d="M510 0l881 1360h73l-880 -1360h-74zM1839 59v-59h-567v66l151 118q206 164 278.5 251.5t72.5 170.5q0 90 -59 138.5t-169 48.5q-147 0 -256 -109h-6v74q52 44 121.5 69t140.5 25q141 0 217 -62.5t76 -179.5q0 -100 -76 -194.5t-295 -268.5l-106 -84v-4h477zM518 520v758
l-231 -152v70l248 164h49v-840h-66z" />
    <glyph glyph-name="threequarters" unicode="&#xbe;" horiz-adv-x="1974" 
d="M621 0l880 1360h74l-881 -1360h-73zM1804 0h-65v182h-514v58l512 600h67v-598h125v-60h-125v-182zM1303 242h436v510zM569 956v-4q164 -45 164 -209q0 -111 -83 -173t-232 -62q-91 0 -166.5 26t-116.5 72v76h6q41 -54 114.5 -84.5t162.5 -30.5q119 0 184.5 47.5
t65.5 135.5q0 83 -60.5 127.5t-173.5 44.5h-137v59h119q115 0 175 41t60 121q0 82 -62 126t-177 44q-150 0 -254 -107h-6v74q44 42 115.5 67t148.5 25q141 0 221 -59t80 -164q0 -72 -38.5 -121.5t-109.5 -71.5z" />
    <glyph glyph-name="questiondown" unicode="&#xbf;" horiz-adv-x="974" 
d="M510 -20q-211 0 -329 97t-118 269q0 162 108 267.5t353 183.5v241h70v-293q-240 -65 -346.5 -157.5t-106.5 -237.5t96 -223t273 -78q122 0 230 45.5t184 128.5h6v-88q-80 -74 -190 -114.5t-230 -40.5zM559 1251q-28 0 -46.5 18t-18.5 46t18.5 46.5t46.5 18.5t47 -18.5
t19 -46.5t-19 -46t-47 -18z" />
    <glyph glyph-name="Agrave" unicode="&#xc0;" horiz-adv-x="1470" 
d="M1335 0l-164 344h-876l-164 -344h-86l653 1360h74l653 -1360h-90zM735 1260h-4l-401 -842h807zM715 1503l-248 305h86l233 -305h-71z" />
    <glyph glyph-name="Aacute" unicode="&#xc1;" horiz-adv-x="1470" 
d="M1335 0l-164 344h-876l-164 -344h-86l653 1360h74l653 -1360h-90zM735 1260h-4l-401 -842h807zM680 1503l233 305h86l-247 -305h-72z" />
    <glyph glyph-name="Acircumflex" unicode="&#xc2;" horiz-adv-x="1470" 
d="M1335 0l-164 344h-876l-164 -344h-86l653 1360h74l653 -1360h-90zM735 1260h-4l-401 -842h807zM535 1503h-74l241 305h64l242 -305h-74l-199 242z" />
    <glyph glyph-name="Atilde" unicode="&#xc3;" horiz-adv-x="1470" 
d="M1335 0l-164 344h-876l-164 -344h-86l653 1360h74l653 -1360h-90zM735 1260h-4l-401 -842h807zM1028 1747v-86q-26 -46 -68.5 -72t-93.5 -26q-66 0 -145 59q-66 51 -119 51q-97 0 -156 -121h-4v86q26 47 69 74t93 27q66 0 146 -60q42 -31 66.5 -42t51.5 -11q94 0 156 121
h4z" />
    <glyph glyph-name="Adieresis" unicode="&#xc4;" horiz-adv-x="1470" 
d="M1335 0l-164 344h-876l-164 -344h-86l653 1360h74l653 -1360h-90zM735 1260h-4l-401 -842h807zM551 1708q25 0 41 -17t16 -42t-16 -41.5t-41 -16.5q-27 0 -44.5 16.5t-17.5 41.5t17.5 42t44.5 17zM920 1708q27 0 44 -17t17 -42t-17 -41.5t-44 -16.5q-25 0 -41.5 16.5
t-16.5 41.5t16.5 42t41.5 17z" />
    <glyph glyph-name="Aring" unicode="&#xc5;" horiz-adv-x="1470" 
d="M1335 0l-164 344h-876l-164 -344h-86l653 1360h74l653 -1360h-90zM735 1260h-4l-401 -842h807zM735 1819q69 0 114.5 -45.5t45.5 -114.5t-45.5 -114.5t-114.5 -45.5t-114.5 45.5t-45.5 114.5t45.5 114.5t114.5 45.5zM735 1759q-41 0 -69.5 -28.5t-28.5 -71.5t28.5 -71.5
t69.5 -28.5t70 28.5t29 71.5t-29 71.5t-70 28.5z" />
    <glyph glyph-name="AE" unicode="&#xc6;" horiz-adv-x="2111" 
d="M1118 729h744v-74h-744v-581h891v-74h-971v344h-673l-248 -344h-92l985 1360h999v-74h-891v-557zM1038 1274h-4l-616 -856h620v856z" />
    <glyph glyph-name="Ccedilla" unicode="&#xc7;" horiz-adv-x="1368" 
d="M797 1307q-282 0 -457.5 -174.5t-175.5 -452.5t175.5 -452.5t457.5 -174.5q139 0 257.5 46t200.5 137h7v-97q-81 -75 -200 -116t-255 -43l-55 -111v-4q14 2 34 2q69 0 108.5 -37.5t39.5 -97.5q0 -69 -45.5 -105.5t-134.5 -36.5q-94 0 -150 39v72h4q51 -51 146 -51
q56 0 85 22.5t29 61.5q0 37 -29.5 58.5t-82.5 21.5q-45 0 -88 -19v21l84 166q-197 9 -349 100t-235.5 246.5t-83.5 351.5q0 152 52 282t145 222t226 144t290 52q298 0 465 -159v-97h-7q-81 90 -199 136.5t-259 46.5z" />
    <glyph glyph-name="Egrave" unicode="&#xc8;" horiz-adv-x="1251" 
d="M999 729v-74h-743v-581h891v-74h-971v1360h971v-74h-891v-557h743zM641 1503l-248 305h86l234 -305h-72z" />
    <glyph glyph-name="Eacute" unicode="&#xc9;" horiz-adv-x="1251" 
d="M999 729v-74h-743v-581h891v-74h-971v1360h971v-74h-891v-557h743zM606 1503l234 305h86l-248 -305h-72z" />
    <glyph glyph-name="Ecircumflex" unicode="&#xca;" horiz-adv-x="1251" 
d="M999 729v-74h-743v-581h891v-74h-971v1360h971v-74h-891v-557h743zM461 1503h-74l242 305h63l242 -305h-74l-198 242z" />
    <glyph glyph-name="Edieresis" unicode="&#xcb;" horiz-adv-x="1251" 
d="M999 729v-74h-743v-581h891v-74h-971v1360h971v-74h-891v-557h743zM477 1708q25 0 41.5 -17t16.5 -42t-16.5 -41.5t-41.5 -16.5q-27 0 -44 16.5t-17 41.5t17 42t44 17zM846 1708q27 0 44 -17t17 -42t-17 -41.5t-44 -16.5q-25 0 -41.5 16.5t-16.5 41.5t16.5 42t41.5 17z
" />
    <glyph glyph-name="Igrave" unicode="&#xcc;" horiz-adv-x="432" 
d="M176 0v1360h80v-1360h-80zM197 1503l-248 305h86l233 -305h-71z" />
    <glyph glyph-name="Iacute" unicode="&#xcd;" horiz-adv-x="432" 
d="M176 0v1360h80v-1360h-80zM162 1503l233 305h86l-248 -305h-71z" />
    <glyph glyph-name="Icircumflex" unicode="&#xce;" horiz-adv-x="432" 
d="M176 0v1360h80v-1360h-80zM16 1503h-73l241 305h64l241 -305h-73l-199 242z" />
    <glyph glyph-name="Idieresis" unicode="&#xcf;" horiz-adv-x="432" 
d="M176 0v1360h80v-1360h-80zM33 1708q25 0 41 -17t16 -42t-16 -41.5t-41 -16.5q-27 0 -44.5 16.5t-17.5 41.5t17.5 42t44.5 17zM401 1708q27 0 44.5 -17t17.5 -42t-17.5 -41.5t-44.5 -16.5q-25 0 -41 16.5t-16 41.5t16 42t41 17z" />
    <glyph glyph-name="Eth" unicode="&#xd0;" horiz-adv-x="1517" 
d="M203 1360h510q333 0 527 -182.5t194 -495.5q0 -316 -194 -499t-527 -183h-510v655h-158v74h158v631zM283 74h428q299 0 471 162.5t172 445.5q0 281 -172 442.5t-471 161.5h-428v-557h477v-74h-477v-581z" />
    <glyph glyph-name="Ntilde" unicode="&#xd1;" horiz-adv-x="1519" 
d="M1343 0h-96l-989 1274h-4v-1274h-78v1360h113l973 -1254h4v1254h77v-1360zM1053 1747v-86q-26 -46 -68.5 -72t-93.5 -26q-67 0 -146 59q-39 30 -64 40.5t-54 10.5q-97 0 -156 -121h-4v86q26 47 69 74t93 27q65 0 145 -60q41 -31 66.5 -42t52.5 -11q94 0 156 121h4z" />
    <glyph glyph-name="Ograve" unicode="&#xd2;" horiz-adv-x="1570" 
d="M786 1380q152 0 282.5 -52t222.5 -144t144 -222t52 -282t-52 -282t-144 -222t-222.5 -144t-282.5 -52q-203 0 -363.5 89t-249.5 248.5t-89 362.5t89 362.5t249.5 248.5t363.5 89zM786 1307q-275 0 -448.5 -175t-173.5 -452t173.5 -452t448.5 -175q180 0 322 79.5
t220.5 222.5t78.5 325t-78.5 325t-220.5 222.5t-322 79.5zM766 1503l-248 305h86l234 -305h-72z" />
    <glyph glyph-name="Oacute" unicode="&#xd3;" horiz-adv-x="1570" 
d="M786 1380q152 0 282.5 -52t222.5 -144t144 -222t52 -282t-52 -282t-144 -222t-222.5 -144t-282.5 -52q-203 0 -363.5 89t-249.5 248.5t-89 362.5t89 362.5t249.5 248.5t363.5 89zM786 1307q-275 0 -448.5 -175t-173.5 -452t173.5 -452t448.5 -175q180 0 322 79.5
t220.5 222.5t78.5 325t-78.5 325t-220.5 222.5t-322 79.5zM731 1503l234 305h86l-248 -305h-72z" />
    <glyph glyph-name="Ocircumflex" unicode="&#xd4;" horiz-adv-x="1570" 
d="M786 1380q152 0 282.5 -52t222.5 -144t144 -222t52 -282t-52 -282t-144 -222t-222.5 -144t-282.5 -52q-203 0 -363.5 89t-249.5 248.5t-89 362.5t89 362.5t249.5 248.5t363.5 89zM786 1307q-275 0 -448.5 -175t-173.5 -452t173.5 -452t448.5 -175q180 0 322 79.5
t220.5 222.5t78.5 325t-78.5 325t-220.5 222.5t-322 79.5zM586 1503h-74l242 305h63l242 -305h-74l-199 242z" />
    <glyph glyph-name="Otilde" unicode="&#xd5;" horiz-adv-x="1570" 
d="M786 1380q152 0 282.5 -52t222.5 -144t144 -222t52 -282t-52 -282t-144 -222t-222.5 -144t-282.5 -52q-203 0 -363.5 89t-249.5 248.5t-89 362.5t89 362.5t249.5 248.5t363.5 89zM786 1307q-275 0 -448.5 -175t-173.5 -452t173.5 -452t448.5 -175q180 0 322 79.5
t220.5 222.5t78.5 325t-78.5 325t-220.5 222.5t-322 79.5zM1079 1747v-86q-27 -46 -69 -72t-92 -26q-67 0 -146 59q-66 51 -119 51q-96 0 -155 -121h-4v86q26 47 69 74t92 27q66 0 146 -60q41 -31 66.5 -42t52.5 -11q93 0 155 121h4z" />
    <glyph glyph-name="Odieresis" unicode="&#xd6;" horiz-adv-x="1570" 
d="M786 1380q152 0 282.5 -52t222.5 -144t144 -222t52 -282t-52 -282t-144 -222t-222.5 -144t-282.5 -52q-203 0 -363.5 89t-249.5 248.5t-89 362.5t89 362.5t249.5 248.5t363.5 89zM786 1307q-275 0 -448.5 -175t-173.5 -452t173.5 -452t448.5 -175q180 0 322 79.5
t220.5 222.5t78.5 325t-78.5 325t-220.5 222.5t-322 79.5zM602 1708q25 0 41 -17t16 -42t-16 -41.5t-41 -16.5q-27 0 -44 16.5t-17 41.5t17 42t44 17zM971 1708q27 0 44 -17t17 -42t-17 -41.5t-44 -16.5q-25 0 -41.5 16.5t-16.5 41.5t16.5 42t41.5 17z" />
    <glyph glyph-name="multiply" unicode="&#xd7;" horiz-adv-x="1331" 
d="M1163 166l-49 -49l-448 448l-449 -448l-49 49l448 448l-448 449l49 49l449 -448l448 448l49 -49l-448 -449z" />
    <glyph glyph-name="Oslash" unicode="&#xd8;" horiz-adv-x="1570" 
d="M1487 1360l-182 -191q182 -195 182 -489q0 -152 -52 -282t-144 -222t-222.5 -144t-282.5 -52q-278 0 -469 161l-135 -141h-98l182 190q-182 195 -182 490q0 203 89 362.5t249.5 248.5t363.5 89q276 0 467 -161l136 141h98zM164 680q0 -258 155 -434l881 917
q-170 144 -414 144q-275 0 -448.5 -175t-173.5 -452zM1407 680q0 257 -156 434l-880 -917q174 -144 415 -144q180 0 322 79.5t220.5 222.5t78.5 325z" />
    <glyph glyph-name="Ugrave" unicode="&#xd9;" horiz-adv-x="1427" 
d="M1286 1360v-793q0 -284 -147.5 -435.5t-425.5 -151.5q-277 0 -424.5 151.5t-147.5 435.5v793h80v-791q0 -249 127.5 -382.5t366.5 -133.5q238 0 365.5 133.5t127.5 382.5v791h78zM694 1503l-248 305h86l234 -305h-72z" />
    <glyph glyph-name="Uacute" unicode="&#xda;" horiz-adv-x="1427" 
d="M1286 1360v-793q0 -284 -147.5 -435.5t-425.5 -151.5q-277 0 -424.5 151.5t-147.5 435.5v793h80v-791q0 -249 127.5 -382.5t366.5 -133.5q238 0 365.5 133.5t127.5 382.5v791h78zM659 1503l234 305h86l-248 -305h-72z" />
    <glyph glyph-name="Ucircumflex" unicode="&#xdb;" horiz-adv-x="1427" 
d="M1286 1360v-793q0 -284 -147.5 -435.5t-425.5 -151.5q-277 0 -424.5 151.5t-147.5 435.5v793h80v-791q0 -249 127.5 -382.5t366.5 -133.5q238 0 365.5 133.5t127.5 382.5v791h78zM514 1503h-74l242 305h63l242 -305h-74l-198 242z" />
    <glyph glyph-name="Udieresis" unicode="&#xdc;" horiz-adv-x="1427" 
d="M1286 1360v-793q0 -284 -147.5 -435.5t-425.5 -151.5q-277 0 -424.5 151.5t-147.5 435.5v793h80v-791q0 -249 127.5 -382.5t366.5 -133.5q238 0 365.5 133.5t127.5 382.5v791h78zM530 1708q25 0 41.5 -17t16.5 -42t-16.5 -41.5t-41.5 -16.5q-27 0 -44 16.5t-17 41.5
t17 42t44 17zM899 1708q27 0 44.5 -17t17.5 -42t-17.5 -41.5t-44.5 -16.5q-25 0 -41 16.5t-16 41.5t16 42t41 17z" />
    <glyph glyph-name="Yacute" unicode="&#xdd;" horiz-adv-x="1325" 
d="M707 0h-80v618l-602 742h104l539 -670l532 670h100l-593 -735v-625zM606 1503l234 305h86l-248 -305h-72z" />
    <glyph glyph-name="Thorn" unicode="&#xde;" horiz-adv-x="1273" 
d="M256 1112h492q226 0 341 -101.5t115 -301.5t-115 -302t-341 -102h-492v-305h-80v1360h80v-248zM256 379h489q379 0 379 330q0 329 -379 329h-489v-659z" />
    <glyph glyph-name="germandbls" unicode="&#xdf;" horiz-adv-x="1132" 
d="M555 1454q159 0 252.5 -81.5t93.5 -219.5q0 -86 -34 -148.5t-115 -121.5q-58 -41 -80.5 -74.5t-22.5 -73.5q0 -60 37.5 -94t138.5 -63q141 -39 198.5 -106t57.5 -187q0 -146 -95.5 -225.5t-272.5 -79.5q-99 0 -190.5 28.5t-149.5 77.5v88h6q52 -58 142 -92.5t190 -34.5
q143 0 219 61t76 175q0 90 -49 142t-171 87q-119 35 -166 85t-47 136q0 56 26 99.5t93 93.5q74 56 103.5 107t29.5 118q0 110 -72 172.5t-198 62.5q-173 0 -251.5 -82t-78.5 -262v-1042h-75v1055q0 399 405 399z" />
    <glyph glyph-name="agrave" unicode="&#xe0;" horiz-adv-x="1226" 
d="M1077 0h-67l-2 219h-4q-56 -112 -169 -175.5t-262 -63.5q-214 0 -351.5 138.5t-137.5 356.5t137.5 358t351.5 140q149 0 262 -64t169 -176h4l2 219h67v-952zM584 47q186 0 305 120t119 308q0 189 -119 309.5t-305 120.5t-305 -120.5t-119 -309.5q0 -188 119 -308
t305 -120zM561 1112l-248 305h86l234 -305h-72z" />
    <glyph glyph-name="aacute" unicode="&#xe1;" horiz-adv-x="1226" 
d="M1077 0h-67l-2 219h-4q-56 -112 -169 -175.5t-262 -63.5q-214 0 -351.5 138.5t-137.5 356.5t137.5 358t351.5 140q149 0 262 -64t169 -176h4l2 219h67v-952zM584 47q186 0 305 120t119 308q0 189 -119 309.5t-305 120.5t-305 -120.5t-119 -309.5q0 -188 119 -308
t305 -120zM526 1112l234 305h86l-248 -305h-72z" />
    <glyph glyph-name="acircumflex" unicode="&#xe2;" horiz-adv-x="1226" 
d="M1077 0h-67l-2 219h-4q-56 -112 -169 -175.5t-262 -63.5q-214 0 -351.5 138.5t-137.5 356.5t137.5 358t351.5 140q149 0 262 -64t169 -176h4l2 219h67v-952zM584 47q186 0 305 120t119 308q0 189 -119 309.5t-305 120.5t-305 -120.5t-119 -309.5q0 -188 119 -308
t305 -120zM381 1112h-74l242 305h63l242 -305h-74l-198 242z" />
    <glyph glyph-name="atilde" unicode="&#xe3;" horiz-adv-x="1226" 
d="M1077 0h-67l-2 219h-4q-56 -112 -169 -175.5t-262 -63.5q-214 0 -351.5 138.5t-137.5 356.5t137.5 358t351.5 140q149 0 262 -64t169 -176h4l2 219h67v-952zM584 47q186 0 305 120t119 308q0 189 -119 309.5t-305 120.5t-305 -120.5t-119 -309.5q0 -188 119 -308
t305 -120zM874 1356v-86q-57 -99 -161 -99q-66 0 -146 60q-39 30 -64 40.5t-54 10.5q-97 0 -156 -121h-4v86q26 47 69 74t93 27q65 0 145 -60q41 -31 66.5 -42t52.5 -11q93 0 155 121h4z" />
    <glyph glyph-name="adieresis" unicode="&#xe4;" horiz-adv-x="1226" 
d="M1077 0h-67l-2 219h-4q-56 -112 -169 -175.5t-262 -63.5q-214 0 -351.5 138.5t-137.5 356.5t137.5 358t351.5 140q149 0 262 -64t169 -176h4l2 219h67v-952zM584 47q186 0 305 120t119 308q0 189 -119 309.5t-305 120.5t-305 -120.5t-119 -309.5q0 -188 119 -308
t305 -120zM397 1317q25 0 41.5 -17.5t16.5 -42.5t-16.5 -41t-41.5 -16q-27 0 -44 16t-17 41t17 42.5t44 17.5zM766 1317q27 0 44 -17.5t17 -42.5t-17 -41t-44 -16q-25 0 -41 16t-16 41t16.5 42.5t40.5 17.5z" />
    <glyph glyph-name="aring" unicode="&#xe5;" horiz-adv-x="1226" 
d="M1077 0h-67l-2 219h-4q-56 -112 -169 -175.5t-262 -63.5q-214 0 -351.5 138.5t-137.5 356.5t137.5 358t351.5 140q149 0 262 -64t169 -176h4l2 219h67v-952zM584 47q186 0 305 120t119 308q0 189 -119 309.5t-305 120.5t-305 -120.5t-119 -309.5q0 -188 119 -308
t305 -120zM582 1427q69 0 114 -45t45 -114t-45 -114.5t-114 -45.5t-114.5 45.5t-45.5 114.5t45.5 114t114.5 45zM582 1368q-42 0 -70.5 -29t-28.5 -71q0 -43 29 -72t70 -29t69.5 29t28.5 72t-28.5 71.5t-69.5 28.5z" />
    <glyph glyph-name="ae" unicode="&#xe6;" horiz-adv-x="2068" 
d="M1987 461h-910q5 -191 130.5 -302.5t336.5 -111.5q220 0 371 148h6v-84q-140 -131 -371 -131q-174 0 -293.5 64t-177.5 175h-4l-2 -219h-63l-2 219h-4q-56 -112 -169 -175.5t-262 -63.5q-214 0 -351.5 138.5t-137.5 356.5t137.5 358t351.5 140q149 0 262 -64t169 -176h4
l2 219h63l2 -219h4q55 112 167 176t265 64q216 0 346 -126t130 -333v-53zM584 47q186 0 305 120t119 308q0 189 -119 309.5t-305 120.5t-305 -120.5t-119 -309.5q0 -188 119 -308t305 -120zM1077 528h842q-6 169 -120.5 273t-297.5 104q-174 0 -290.5 -104.5t-133.5 -272.5z
" />
    <glyph glyph-name="ccedilla" unicode="&#xe7;" horiz-adv-x="1024" 
d="M594 905q-195 0 -314.5 -120t-119.5 -310q0 -187 120 -307.5t314 -120.5q203 0 321 139h7v-92q-111 -108 -312 -114l-55 -111v-4q14 2 35 2q69 0 108 -37.5t39 -97.5q0 -69 -45.5 -105.5t-134.5 -36.5q-93 0 -149 39v72h4q51 -51 145 -51q56 0 85.5 22.5t29.5 61.5
q0 37 -30 58.5t-83 21.5q-45 0 -88 -19v21l84 164q-214 12 -342.5 149.5t-128.5 345.5q0 220 139 359t369 139q213 0 330 -117v-90h-7q-118 139 -321 139z" />
    <glyph glyph-name="egrave" unicode="&#xe8;" horiz-adv-x="1146" 
d="M1065 461h-905q4 -190 130 -302t335 -112q219 0 370 148h6v-84q-143 -131 -378 -131q-247 0 -393 134t-146 361q0 220 139 359t357 139q221 0 353 -125.5t132 -333.5v-53zM582 905q-172 0 -287.5 -104.5t-134.5 -272.5h837q-6 169 -120 273t-295 104zM561 1112l-248 305
h86l234 -305h-72z" />
    <glyph glyph-name="eacute" unicode="&#xe9;" horiz-adv-x="1146" 
d="M1065 461h-905q4 -190 130 -302t335 -112q219 0 370 148h6v-84q-143 -131 -378 -131q-247 0 -393 134t-146 361q0 220 139 359t357 139q221 0 353 -125.5t132 -333.5v-53zM582 905q-172 0 -287.5 -104.5t-134.5 -272.5h837q-6 169 -120 273t-295 104zM526 1112l234 305
h86l-248 -305h-72z" />
    <glyph glyph-name="ecircumflex" unicode="&#xea;" horiz-adv-x="1146" 
d="M1065 461h-905q4 -190 130 -302t335 -112q219 0 370 148h6v-84q-143 -131 -378 -131q-247 0 -393 134t-146 361q0 220 139 359t357 139q221 0 353 -125.5t132 -333.5v-53zM582 905q-172 0 -287.5 -104.5t-134.5 -272.5h837q-6 169 -120 273t-295 104zM381 1112h-74
l242 305h63l242 -305h-74l-198 242z" />
    <glyph glyph-name="edieresis" unicode="&#xeb;" horiz-adv-x="1146" 
d="M1065 461h-905q4 -190 130 -302t335 -112q219 0 370 148h6v-84q-143 -131 -378 -131q-247 0 -393 134t-146 361q0 220 139 359t357 139q221 0 353 -125.5t132 -333.5v-53zM582 905q-172 0 -287.5 -104.5t-134.5 -272.5h837q-6 169 -120 273t-295 104zM397 1317
q25 0 41.5 -17.5t16.5 -42.5t-16.5 -41t-41.5 -16q-27 0 -44 16t-17 41t17 42.5t44 17.5zM766 1317q27 0 44 -17.5t17 -42.5t-17 -41t-44 -16q-25 0 -41 16t-16 41t16.5 42.5t40.5 17.5z" />
    <glyph glyph-name="igrave" unicode="&#xec;" horiz-adv-x="374" 
d="M150 0v952h75v-952h-75zM166 1112l-248 305h86l234 -305h-72z" />
    <glyph glyph-name="iacute" unicode="&#xed;" horiz-adv-x="374" 
d="M150 0v952h75v-952h-75zM131 1112l234 305h86l-248 -305h-72z" />
    <glyph glyph-name="icircumflex" unicode="&#xee;" horiz-adv-x="374" 
d="M150 0v952h75v-952h-75zM-14 1112h-74l242 305h63l242 -305h-74l-199 242z" />
    <glyph glyph-name="idieresis" unicode="&#xef;" horiz-adv-x="374" 
d="M150 0v952h75v-952h-75zM2 1317q24 0 40.5 -17.5t16.5 -42.5t-16 -41t-41 -16q-27 0 -44 16t-17 41t17 42.5t44 17.5zM371 1317q27 0 44 -17.5t17 -42.5t-17 -41t-44 -16q-25 0 -41.5 16t-16.5 41t16.5 42.5t41.5 17.5z" />
    <glyph glyph-name="eth" unicode="&#xf0;" horiz-adv-x="1167" 
d="M940 1276l-147 -55q142 -136 216 -322.5t74 -411.5q0 -226 -139.5 -366.5t-359.5 -140.5t-360 138.5t-140 356.5t137.5 358t351.5 140q130 0 232.5 -50t163.5 -139h4q-71 243 -252 410l-336 -127v63l283 109q-130 111 -361 188v7h150q156 -62 284 -168l199 75v-65z
M584 47q186 0 305 120t119 308q0 189 -119 309.5t-305 120.5t-305 -120.5t-119 -309.5q0 -188 119 -308t305 -120z" />
    <glyph glyph-name="ntilde" unicode="&#xf1;" horiz-adv-x="1144" 
d="M610 973q190 0 301 -116t111 -314v-543h-76v535q0 173 -91.5 271.5t-254.5 98.5q-172 0 -273.5 -114.5t-101.5 -309.5v-481h-75v952h67l2 -221h4q47 116 147.5 179t239.5 63zM866 1356v-86q-57 -99 -161 -99q-66 0 -146 60q-66 51 -119 51q-96 0 -155 -121h-4v86
q26 47 69 74t92 27q66 0 146 -60q41 -31 66.5 -42t52.5 -11q93 0 155 121h4z" />
    <glyph glyph-name="ograve" unicode="&#xf2;" horiz-adv-x="1167" 
d="M584 973q219 0 359 -139.5t140 -358.5q0 -218 -140 -356.5t-359 -138.5q-220 0 -360 138.5t-140 356.5q0 220 140 359t360 139zM584 905q-186 0 -305 -120.5t-119 -309.5q0 -188 119 -308t305 -120t305 120t119 308q0 189 -119 309.5t-305 120.5zM563 1112l-248 305h86
l234 -305h-72z" />
    <glyph glyph-name="oacute" unicode="&#xf3;" horiz-adv-x="1167" 
d="M584 973q219 0 359 -139.5t140 -358.5q0 -218 -140 -356.5t-359 -138.5q-220 0 -360 138.5t-140 356.5q0 220 140 359t360 139zM584 905q-186 0 -305 -120.5t-119 -309.5q0 -188 119 -308t305 -120t305 120t119 308q0 189 -119 309.5t-305 120.5zM528 1112l234 305h86
l-248 -305h-72z" />
    <glyph glyph-name="ocircumflex" unicode="&#xf4;" horiz-adv-x="1167" 
d="M584 973q219 0 359 -139.5t140 -358.5q0 -218 -140 -356.5t-359 -138.5q-220 0 -360 138.5t-140 356.5q0 220 140 359t360 139zM584 905q-186 0 -305 -120.5t-119 -309.5q0 -188 119 -308t305 -120t305 120t119 308q0 189 -119 309.5t-305 120.5zM383 1112h-74l242 305
h63l242 -305h-74l-198 242z" />
    <glyph glyph-name="otilde" unicode="&#xf5;" horiz-adv-x="1167" 
d="M584 973q219 0 359 -139.5t140 -358.5q0 -218 -140 -356.5t-359 -138.5q-220 0 -360 138.5t-140 356.5q0 220 140 359t360 139zM584 905q-186 0 -305 -120.5t-119 -309.5q0 -188 119 -308t305 -120t305 120t119 308q0 189 -119 309.5t-305 120.5zM877 1356v-86
q-27 -46 -69.5 -72.5t-92.5 -26.5q-66 0 -146 60q-39 30 -64 40.5t-54 10.5q-97 0 -156 -121h-4v86q26 47 69 74t93 27q65 0 145 -60q41 -31 66.5 -42t52.5 -11q93 0 155 121h5z" />
    <glyph glyph-name="odieresis" unicode="&#xf6;" horiz-adv-x="1167" 
d="M584 973q219 0 359 -139.5t140 -358.5q0 -218 -140 -356.5t-359 -138.5q-220 0 -360 138.5t-140 356.5q0 220 140 359t360 139zM584 905q-186 0 -305 -120.5t-119 -309.5q0 -188 119 -308t305 -120t305 120t119 308q0 189 -119 309.5t-305 120.5zM399 1317
q25 0 41.5 -17.5t16.5 -42.5t-16.5 -41t-41.5 -16q-27 0 -44 16t-17 41t17 42.5t44 17.5zM768 1317q27 0 44 -17.5t17 -42.5t-17 -41t-44 -16q-25 0 -41 16t-16 41t16.5 42.5t40.5 17.5z" />
    <glyph glyph-name="divide" unicode="&#xf7;" horiz-adv-x="1331" 
d="M666 1174q26 0 43.5 -17t17.5 -43q0 -27 -17 -44t-44 -17t-44.5 17t-17.5 44q0 26 18 43t44 17zM92 649h1147v-67h-1147v67zM666 176q27 0 44 -17t17 -44q0 -26 -17.5 -43t-43.5 -17t-44 17t-18 43q0 27 17.5 44t44.5 17z" />
    <glyph glyph-name="oslash" unicode="&#xf8;" horiz-adv-x="1167" 
d="M1083 952l-127 -133q127 -137 127 -344q0 -218 -140 -356.5t-359 -138.5q-193 0 -326 108l-84 -88h-90l127 133q-127 137 -127 342q0 220 140 359t360 139q191 0 325 -109l84 88h90zM160 475q0 -175 102 -289l596 625q-115 94 -274 94q-186 0 -305 -120.5t-119 -309.5z
M1008 475q0 176 -103 291l-596 -625q115 -94 275 -94q186 0 305 120t119 308z" />
    <glyph glyph-name="ugrave" unicode="&#xf9;" horiz-adv-x="1144" 
d="M995 0h-69l-2 221h-4q-47 -116 -146.5 -178.5t-238.5 -62.5q-191 0 -301.5 115.5t-110.5 314.5v542h76v-536q0 -172 92 -270.5t254 -98.5q171 0 273 115t102 309v481h75v-952zM539 1112l-248 305h86l233 -305h-71z" />
    <glyph glyph-name="uacute" unicode="&#xfa;" horiz-adv-x="1144" 
d="M995 0h-69l-2 221h-4q-47 -116 -146.5 -178.5t-238.5 -62.5q-191 0 -301.5 115.5t-110.5 314.5v542h76v-536q0 -172 92 -270.5t254 -98.5q171 0 273 115t102 309v481h75v-952zM504 1112l233 305h86l-248 -305h-71z" />
    <glyph glyph-name="ucircumflex" unicode="&#xfb;" horiz-adv-x="1144" 
d="M995 0h-69l-2 221h-4q-47 -116 -146.5 -178.5t-238.5 -62.5q-191 0 -301.5 115.5t-110.5 314.5v542h76v-536q0 -172 92 -270.5t254 -98.5q171 0 273 115t102 309v481h75v-952zM358 1112h-73l241 305h64l241 -305h-73l-199 242z" />
    <glyph glyph-name="udieresis" unicode="&#xfc;" horiz-adv-x="1144" 
d="M995 0h-69l-2 221h-4q-47 -116 -146.5 -178.5t-238.5 -62.5q-191 0 -301.5 115.5t-110.5 314.5v542h76v-536q0 -172 92 -270.5t254 -98.5q171 0 273 115t102 309v481h75v-952zM375 1317q24 0 40.5 -17.5t16.5 -42.5t-16 -41t-41 -16q-28 0 -45 16t-17 41t17.5 42.5
t44.5 17.5zM743 1317q27 0 44.5 -17.5t17.5 -42.5t-17 -41t-45 -16q-25 0 -41 16t-16 41t16.5 42.5t40.5 17.5z" />
    <glyph glyph-name="yacute" unicode="&#xfd;" horiz-adv-x="991" 
d="M324 -389h-78l213 434l-439 907h84l392 -819h4l393 819h78zM442 1112l234 305h86l-248 -305h-72z" />
    <glyph glyph-name="thorn" unicode="&#xfe;" horiz-adv-x="1228" 
d="M653 973q214 0 353 -140t139 -358q0 -217 -138.5 -356t-353.5 -139q-146 0 -256 61t-168 168h-4v-598h-75v1823h75v-691h4q58 108 168.5 169t255.5 61zM645 47q186 0 305 120t119 308q0 189 -119 309.5t-305 120.5q-187 0 -306.5 -120.5t-119.5 -309.5q0 -188 119.5 -308
t306.5 -120z" />
    <glyph glyph-name="ydieresis" unicode="&#xff;" horiz-adv-x="991" 
d="M324 -389h-78l213 434l-439 907h84l392 -819h4l393 819h78zM313 1317q25 0 41.5 -17.5t16.5 -42.5t-16.5 -41t-41.5 -16q-27 0 -44 16t-17 41t17 42.5t44 17.5zM682 1317q27 0 44 -17.5t17 -42.5t-17 -41t-44 -16q-25 0 -41 16t-16 41t16.5 42.5t40.5 17.5z" />
    <glyph glyph-name="Amacron" unicode="&#x100;" horiz-adv-x="1470" 
d="M1335 0l-164 344h-876l-164 -344h-86l653 1360h74l653 -1360h-90zM735 1260h-4l-401 -842h807zM442 1612v63h586v-63h-586z" />
    <glyph glyph-name="amacron" unicode="&#x101;" horiz-adv-x="1226" 
d="M1077 0h-67l-2 219h-4q-56 -112 -169 -175.5t-262 -63.5q-214 0 -351.5 138.5t-137.5 356.5t137.5 358t351.5 140q149 0 262 -64t169 -176h4l2 219h67v-952zM584 47q186 0 305 120t119 308q0 189 -119 309.5t-305 120.5t-305 -120.5t-119 -309.5q0 -188 119 -308
t305 -120zM289 1221v63h585v-63h-585z" />
    <glyph glyph-name="Abreve" unicode="&#x102;" horiz-adv-x="1470" 
d="M1335 0l-164 344h-876l-164 -344h-86l653 1360h74l653 -1360h-90zM735 1260h-4l-401 -842h807zM971 1778h59q-20 -120 -96 -185t-199 -65t-199 65t-96 185h60q19 -89 79.5 -137t155.5 -48t156 48t80 137z" />
    <glyph glyph-name="abreve" unicode="&#x103;" horiz-adv-x="1226" 
d="M1077 0h-67l-2 219h-4q-56 -112 -169 -175.5t-262 -63.5q-214 0 -351.5 138.5t-137.5 356.5t137.5 358t351.5 140q149 0 262 -64t169 -176h4l2 219h67v-952zM584 47q186 0 305 120t119 308q0 189 -119 309.5t-305 120.5t-305 -120.5t-119 -309.5q0 -188 119 -308
t305 -120zM817 1386h60q-20 -120 -96 -184.5t-199 -64.5t-199 64.5t-96 184.5h59q19 -89 80 -136.5t156 -47.5t155.5 47.5t79.5 136.5z" />
    <glyph glyph-name="Aogonek" unicode="&#x104;" horiz-adv-x="1470" 
d="M1278 -350q81 0 143 59h4v-74q-61 -45 -151 -45q-79 0 -126.5 43t-47.5 115q0 170 221 283l-150 313h-876l-164 -344h-86l653 1360h74l653 -1360h-34q-106 -43 -166 -107t-60 -137q0 -47 31 -76.5t82 -29.5zM735 1260h-4l-401 -842h807z" />
    <glyph glyph-name="aogonek" unicode="&#x105;" horiz-adv-x="1226" 
d="M1077 0h-35q-105 -43 -165 -107t-60 -137q0 -47 31 -76.5t82 -29.5q81 0 143 59h4v-74q-61 -45 -151 -45q-79 0 -126.5 43t-47.5 115q0 92 66.5 168.5t191.5 132.5l-2 170h-4q-56 -112 -169 -175.5t-262 -63.5q-214 0 -351.5 138.5t-137.5 356.5t137.5 358t351.5 140
q149 0 262 -64t169 -176h4l2 219h67v-952zM584 47q186 0 305 120t119 308q0 189 -119 309.5t-305 120.5t-305 -120.5t-119 -309.5q0 -188 119 -308t305 -120z" />
    <glyph glyph-name="Cacute" unicode="&#x106;" horiz-adv-x="1368" 
d="M797 1380q298 0 465 -159v-97h-7q-81 90 -199 136.5t-259 46.5q-282 0 -457.5 -174.5t-175.5 -452.5t175.5 -452.5t457.5 -174.5q139 0 257.5 46t200.5 137h7v-97q-83 -76 -204.5 -117.5t-260.5 -41.5q-157 0 -290 52t-226 144t-145 222t-52 282t52 282t145 222t226 144
t290 52zM707 1503l233 305h86l-248 -305h-71z" />
    <glyph glyph-name="cacute" unicode="&#x107;" horiz-adv-x="1024" 
d="M592 973q213 0 330 -117v-90h-7q-118 139 -321 139q-195 0 -314.5 -120t-119.5 -310q0 -187 120 -307.5t314 -120.5q203 0 321 139h7v-92q-117 -114 -330 -114q-229 0 -368.5 138.5t-139.5 356.5q0 220 139 359t369 139zM506 1112l233 305h86l-247 -305h-72z" />
    <glyph glyph-name="Ccircumflex" unicode="&#x108;" horiz-adv-x="1368" 
d="M797 1380q298 0 465 -159v-97h-7q-81 90 -199 136.5t-259 46.5q-282 0 -457.5 -174.5t-175.5 -452.5t175.5 -452.5t457.5 -174.5q139 0 257.5 46t200.5 137h7v-97q-83 -76 -204.5 -117.5t-260.5 -41.5q-157 0 -290 52t-226 144t-145 222t-52 282t52 282t145 222t226 144
t290 52zM561 1503h-74l242 305h64l241 -305h-73l-199 242z" />
    <glyph glyph-name="ccircumflex" unicode="&#x109;" horiz-adv-x="1024" 
d="M592 973q213 0 330 -117v-90h-7q-118 139 -321 139q-195 0 -314.5 -120t-119.5 -310q0 -187 120 -307.5t314 -120.5q203 0 321 139h7v-92q-117 -114 -330 -114q-229 0 -368.5 138.5t-139.5 356.5q0 220 139 359t369 139zM360 1112h-73l241 305h64l242 -305h-74l-199 242z
" />
    <glyph glyph-name="Cdotaccent" unicode="&#x10a;" horiz-adv-x="1368" 
d="M797 1380q298 0 465 -159v-97h-7q-81 90 -199 136.5t-259 46.5q-282 0 -457.5 -174.5t-175.5 -452.5t175.5 -452.5t457.5 -174.5q139 0 257.5 46t200.5 137h7v-97q-83 -76 -204.5 -117.5t-260.5 -41.5q-157 0 -290 52t-226 144t-145 222t-52 282t52 282t145 222t226 144
t290 52zM762 1708q26 0 42.5 -16.5t16.5 -42.5q0 -25 -16.5 -42.5t-42.5 -17.5t-43 17.5t-17 42.5q0 26 17 42.5t43 16.5z" />
    <glyph glyph-name="cdotaccent" unicode="&#x10b;" horiz-adv-x="1024" 
d="M592 973q213 0 330 -117v-90h-7q-118 139 -321 139q-195 0 -314.5 -120t-119.5 -310q0 -187 120 -307.5t314 -120.5q203 0 321 139h7v-92q-117 -114 -330 -114q-229 0 -368.5 138.5t-139.5 356.5q0 220 139 359t369 139zM561 1317q26 0 43 -17t17 -43q0 -25 -17 -42
t-43 -17t-42.5 17t-16.5 42q0 26 16.5 43t42.5 17z" />
    <glyph glyph-name="Ccaron" unicode="&#x10c;" horiz-adv-x="1368" 
d="M797 1380q298 0 465 -159v-97h-7q-81 90 -199 136.5t-259 46.5q-282 0 -457.5 -174.5t-175.5 -452.5t175.5 -452.5t457.5 -174.5q139 0 257.5 46t200.5 137h7v-97q-83 -76 -204.5 -117.5t-260.5 -41.5q-157 0 -290 52t-226 144t-145 222t-52 282t52 282t145 222t226 144
t290 52zM793 1503h-64l-242 305h74l201 -241l199 241h73z" />
    <glyph glyph-name="ccaron" unicode="&#x10d;" horiz-adv-x="1024" 
d="M592 973q213 0 330 -117v-90h-7q-118 139 -321 139q-195 0 -314.5 -120t-119.5 -310q0 -187 120 -307.5t314 -120.5q203 0 321 139h7v-92q-117 -114 -330 -114q-229 0 -368.5 138.5t-139.5 356.5q0 220 139 359t369 139zM592 1112h-64l-241 305h73l201 -241l199 241h74z
" />
    <glyph glyph-name="Dcaron" unicode="&#x10e;" horiz-adv-x="1488" 
d="M176 1360h510q333 0 527 -182.5t194 -495.5q0 -316 -194 -499t-527 -183h-510v1360zM256 74h428q299 0 471 162.5t172 445.5q0 281 -172 442.5t-471 161.5h-428v-1212zM721 1503h-64l-241 305h73l201 -241l199 241h74z" />
    <glyph glyph-name="dcaron" unicode="&#x10f;" horiz-adv-x="1226" 
d="M1077 0h-69l-2 219h-5q-56 -112 -167.5 -175.5t-260.5 -63.5q-214 0 -351.5 138.5t-137.5 356.5t137.5 358t351.5 140q145 0 255.5 -61t168.5 -169h4v691h76v-1434zM584 47q185 0 303.5 120.5t118.5 307.5q0 189 -118.5 309.5t-303.5 120.5q-186 0 -305 -120.5
t-119 -309.5q0 -188 119 -308t305 -120zM1180 1085l67 349h74l-84 -349h-57z" />
    <glyph glyph-name="Dcroat" unicode="&#x110;" horiz-adv-x="1517" 
d="M203 1360h510q333 0 527 -182.5t194 -495.5q0 -316 -194 -499t-527 -183h-510v655h-158v74h158v631zM283 74h428q299 0 471 162.5t172 445.5q0 281 -172 442.5t-471 161.5h-428v-557h477v-74h-477v-581z" />
    <glyph glyph-name="dcroat" unicode="&#x111;" horiz-adv-x="1245" 
d="M1077 0h-69l-2 219h-5q-56 -112 -167.5 -175.5t-260.5 -63.5q-214 0 -351.5 138.5t-137.5 356.5t137.5 358t351.5 140q145 0 255.5 -61t168.5 -169h4v371h-448v66h448v254h76v-254h164v-66h-164v-1114zM584 47q185 0 303.5 120.5t118.5 307.5q0 189 -118.5 309.5
t-303.5 120.5q-186 0 -305 -120.5t-119 -309.5q0 -188 119 -308t305 -120z" />
    <glyph glyph-name="Emacron" unicode="&#x112;" horiz-adv-x="1251" 
d="M999 729v-74h-743v-581h891v-74h-971v1360h971v-74h-891v-557h743zM369 1612v63h585v-63h-585z" />
    <glyph glyph-name="emacron" unicode="&#x113;" horiz-adv-x="1146" 
d="M1065 461h-905q4 -190 130 -302t335 -112q219 0 370 148h6v-84q-143 -131 -378 -131q-247 0 -393 134t-146 361q0 220 139 359t357 139q221 0 353 -125.5t132 -333.5v-53zM582 905q-172 0 -287.5 -104.5t-134.5 -272.5h837q-6 169 -120 273t-295 104zM289 1221v63h585
v-63h-585z" />
    <glyph glyph-name="Ebreve" unicode="&#x114;" horiz-adv-x="1251" 
d="M999 729v-74h-743v-581h891v-74h-971v1360h971v-74h-891v-557h743zM897 1778h59q-20 -121 -96 -185.5t-198 -64.5q-123 0 -199 65t-96 185h59q19 -89 80 -137t156 -48t155.5 48t79.5 137z" />
    <glyph glyph-name="ebreve" unicode="&#x115;" horiz-adv-x="1146" 
d="M1065 461h-905q4 -190 130 -302t335 -112q219 0 370 148h6v-84q-143 -131 -378 -131q-247 0 -393 134t-146 361q0 220 139 359t357 139q221 0 353 -125.5t132 -333.5v-53zM582 905q-172 0 -287.5 -104.5t-134.5 -272.5h837q-6 169 -120 273t-295 104zM817 1386h60
q-20 -120 -96 -184.5t-199 -64.5t-199 64.5t-96 184.5h59q19 -89 80 -136.5t156 -47.5t155.5 47.5t79.5 136.5z" />
    <glyph glyph-name="Edotaccent" unicode="&#x116;" horiz-adv-x="1251" 
d="M999 729v-74h-743v-581h891v-74h-971v1360h971v-74h-891v-557h743zM662 1708q26 0 42.5 -16.5t16.5 -42.5q0 -25 -16.5 -42.5t-42.5 -17.5t-43 17.5t-17 42.5q0 26 17 42.5t43 16.5z" />
    <glyph glyph-name="edotaccent" unicode="&#x117;" horiz-adv-x="1146" 
d="M1065 461h-905q4 -190 130 -302t335 -112q219 0 370 148h6v-84q-143 -131 -378 -131q-247 0 -393 134t-146 361q0 220 139 359t357 139q221 0 353 -125.5t132 -333.5v-53zM582 905q-172 0 -287.5 -104.5t-134.5 -272.5h837q-6 169 -120 273t-295 104zM582 1317
q26 0 42.5 -17t16.5 -43q0 -25 -16.5 -42t-42.5 -17t-43 17t-17 42q0 26 17 43t43 17z" />
    <glyph glyph-name="Eogonek" unicode="&#x118;" horiz-adv-x="1251" 
d="M256 729h743v-74h-743v-581h891v-74h-35q-105 -43 -165 -107t-60 -137q0 -47 30.5 -76.5t81.5 -29.5q82 0 144 59h4v-74q-61 -45 -152 -45q-79 0 -126.5 43t-47.5 115q0 141 160 248v4h-805v1360h971v-74h-891v-557z" />
    <glyph glyph-name="eogonek" unicode="&#x119;" horiz-adv-x="1146" 
d="M1065 461h-905q4 -190 130 -302t335 -112q219 0 370 148h6v-84q-39 -36 -106 -74q-211 -122 -211 -270q0 -49 33 -83t86 -34q81 0 143 59h4v-74q-61 -45 -151 -45q-79 0 -130 47t-51 121q0 121 111 226v4q-44 -8 -106 -8q-247 0 -393 134t-146 361q0 220 139 359t357 139
q221 0 353 -125.5t132 -333.5v-53zM160 528h837q-6 169 -120 273t-295 104q-172 0 -287.5 -104.5t-134.5 -272.5z" />
    <glyph glyph-name="Ecaron" unicode="&#x11a;" horiz-adv-x="1251" 
d="M999 729v-74h-743v-581h891v-74h-971v1360h971v-74h-891v-557h743zM692 1503h-63l-242 305h74l201 -241l198 241h74z" />
    <glyph glyph-name="ecaron" unicode="&#x11b;" horiz-adv-x="1146" 
d="M1065 461h-905q4 -190 130 -302t335 -112q219 0 370 148h6v-84q-143 -131 -378 -131q-247 0 -393 134t-146 361q0 220 139 359t357 139q221 0 353 -125.5t132 -333.5v-53zM582 905q-172 0 -287.5 -104.5t-134.5 -272.5h837q-6 169 -120 273t-295 104zM612 1112h-63
l-242 305h74l201 -241l198 241h74z" />
    <glyph glyph-name="Gcircumflex" unicode="&#x11c;" horiz-adv-x="1449" 
d="M807 1307q-289 0 -466 -171.5t-177 -455.5t177 -455.5t466 -171.5q261 0 430 121v397h-494v74h572v-506q-191 -159 -510 -159q-324 0 -522.5 192t-198.5 508t198.5 508t522.5 192q319 0 510 -159v-97h-6q-100 96 -219 139.5t-283 43.5zM578 1503h-74l241 305h64l242 -305
h-74l-199 242z" />
    <glyph glyph-name="gcircumflex" unicode="&#x11d;" horiz-adv-x="1226" 
d="M1077 952v-876q0 -231 -129.5 -358.5t-365.5 -127.5q-131 0 -239 39.5t-173 110.5v88h6q65 -82 168 -126t234 -44q203 0 313 109t110 311v133h-4q-58 -107 -168 -168t-256 -61q-214 0 -351.5 138.5t-137.5 356.5t137.5 357t351.5 139q148 0 260 -64t168 -176h5l2 219h69z
M584 49q185 0 303.5 119.5t118.5 308.5t-118.5 308.5t-303.5 119.5q-186 0 -305 -119.5t-119 -308.5t119 -308.5t305 -119.5zM381 1112h-74l242 305h63l242 -305h-74l-198 242z" />
    <glyph glyph-name="Gbreve" unicode="&#x11e;" horiz-adv-x="1449" 
d="M807 1307q-289 0 -466 -171.5t-177 -455.5t177 -455.5t466 -171.5q261 0 430 121v397h-494v74h572v-506q-191 -159 -510 -159q-324 0 -522.5 192t-198.5 508t198.5 508t522.5 192q319 0 510 -159v-97h-6q-100 96 -219 139.5t-283 43.5zM1014 1778h59q-20 -120 -96 -185
t-199 -65t-199 65t-96 185h60q19 -89 79.5 -137t155.5 -48t156 48t80 137z" />
    <glyph glyph-name="gbreve" unicode="&#x11f;" horiz-adv-x="1226" 
d="M1077 952v-876q0 -231 -129.5 -358.5t-365.5 -127.5q-131 0 -239 39.5t-173 110.5v88h6q65 -82 168 -126t234 -44q203 0 313 109t110 311v133h-4q-58 -107 -168 -168t-256 -61q-214 0 -351.5 138.5t-137.5 356.5t137.5 357t351.5 139q148 0 260 -64t168 -176h5l2 219h69z
M584 49q185 0 303.5 119.5t118.5 308.5t-118.5 308.5t-303.5 119.5q-186 0 -305 -119.5t-119 -308.5t119 -308.5t305 -119.5zM817 1386h60q-20 -120 -96 -184.5t-199 -64.5t-199 64.5t-96 184.5h59q19 -89 80 -136.5t156 -47.5t155.5 47.5t79.5 136.5z" />
    <glyph glyph-name="Gdotaccent" unicode="&#x120;" horiz-adv-x="1449" 
d="M807 1307q-289 0 -466 -171.5t-177 -455.5t177 -455.5t466 -171.5q261 0 430 121v397h-494v74h572v-506q-191 -159 -510 -159q-324 0 -522.5 192t-198.5 508t198.5 508t522.5 192q319 0 510 -159v-97h-6q-100 96 -219 139.5t-283 43.5zM778 1708q26 0 43 -16.5t17 -42.5
q0 -25 -17 -42.5t-43 -17.5t-42.5 17.5t-16.5 42.5q0 26 16.5 42.5t42.5 16.5z" />
    <glyph glyph-name="gdotaccent" unicode="&#x121;" horiz-adv-x="1226" 
d="M1077 952v-876q0 -231 -129.5 -358.5t-365.5 -127.5q-131 0 -239 39.5t-173 110.5v88h6q65 -82 168 -126t234 -44q203 0 313 109t110 311v133h-4q-58 -107 -168 -168t-256 -61q-214 0 -351.5 138.5t-137.5 356.5t137.5 357t351.5 139q148 0 260 -64t168 -176h5l2 219h69z
M584 49q185 0 303.5 119.5t118.5 308.5t-118.5 308.5t-303.5 119.5q-186 0 -305 -119.5t-119 -308.5t119 -308.5t305 -119.5zM582 1317q26 0 42.5 -17t16.5 -43q0 -25 -16.5 -42t-42.5 -17t-43 17t-17 42q0 26 17 43t43 17z" />
    <glyph glyph-name="uni0122" unicode="&#x122;" horiz-adv-x="1449" 
d="M807 1307q-289 0 -466 -171.5t-177 -455.5t177 -455.5t466 -171.5q261 0 430 121v397h-494v74h572v-506q-191 -159 -510 -159q-324 0 -522.5 192t-198.5 508t198.5 508t522.5 192q319 0 510 -159v-97h-6q-100 96 -219 139.5t-283 43.5zM516 -430l223 293h84l-235 -293
h-72z" />
    <glyph glyph-name="uni0123" unicode="&#x123;" horiz-adv-x="1226" 
d="M836 1417l-234 -305h-84l246 305h72zM1077 952v-876q0 -231 -129.5 -358.5t-365.5 -127.5q-131 0 -239 39.5t-173 110.5v88h6q65 -82 168 -126t234 -44q203 0 313 109t110 311v133h-4q-58 -107 -168 -168t-256 -61q-214 0 -351.5 138.5t-137.5 356.5t137.5 357t351.5 139
q148 0 260 -64t168 -176h5l2 219h69zM584 49q185 0 303.5 119.5t118.5 308.5t-118.5 308.5t-303.5 119.5q-186 0 -305 -119.5t-119 -308.5t119 -308.5t305 -119.5z" />
    <glyph glyph-name="Hcircumflex" unicode="&#x124;" horiz-adv-x="1509" 
d="M1253 0v655h-997v-655h-80v1360h80v-631h997v631h80v-1360h-80zM555 1503h-74l242 305h63l242 -305h-74l-198 242z" />
    <glyph glyph-name="hcircumflex" unicode="&#x125;" horiz-adv-x="1144" 
d="M610 973q190 0 301 -116t111 -314v-543h-76v535q0 173 -91.5 271.5t-254.5 98.5q-172 0 -273.5 -114.5t-101.5 -309.5v-481h-75v1434h75v-689h4q50 109 148.5 168.5t232.5 59.5zM-14 1567h-74l242 305h63l242 -305h-74l-199 241z" />
    <glyph glyph-name="Hbar" unicode="&#x126;" horiz-adv-x="1515" 
d="M1335 977v-977h-80v655h-997v-655h-80v977h-129v70h129v313h80v-313h997v313h80v-313h131v-70h-131zM258 977v-248h997v248h-997z" />
    <glyph glyph-name="hbar" unicode="&#x127;" horiz-adv-x="1150" 
d="M616 973q190 0 301 -116t111 -314v-543h-76v535q0 173 -91.5 271.5t-254.5 98.5q-172 0 -273.5 -114.5t-101.5 -309.5v-481h-75v1114h-152v66h152v254h75v-254h400v-66h-400v-369h5q50 109 148 168.5t232 59.5z" />
    <glyph glyph-name="Itilde" unicode="&#x128;" horiz-adv-x="432" 
d="M176 0v1360h80v-1360h-80zM510 1747v-86q-26 -46 -68.5 -72t-93.5 -26q-66 0 -145 59q-66 51 -119 51q-97 0 -156 -121h-4v86q26 47 69 74t93 27q65 0 145 -60q41 -31 66.5 -42t52.5 -11q94 0 156 121h4z" />
    <glyph glyph-name="itilde" unicode="&#x129;" horiz-adv-x="374" 
d="M150 0v952h75v-952h-75zM479 1356v-86q-27 -46 -69.5 -72.5t-92.5 -26.5q-65 0 -145 60q-66 51 -119 51q-96 0 -155 -121h-4v86q26 47 69 74t92 27q66 0 146 -60q42 -31 66.5 -42t51.5 -11q94 0 156 121h4z" />
    <glyph glyph-name="Imacron" unicode="&#x12a;" horiz-adv-x="432" 
d="M176 0v1360h80v-1360h-80zM-76 1612v63h586v-63h-586z" />
    <glyph glyph-name="imacron" unicode="&#x12b;" horiz-adv-x="374" 
d="M150 0v952h75v-952h-75zM-106 1221v63h585v-63h-585z" />
    <glyph glyph-name="Ibreve" unicode="&#x12c;" horiz-adv-x="432" 
d="M176 0v1360h80v-1360h-80zM453 1778h59q-20 -120 -96 -185t-199 -65t-199 65t-96 185h60q19 -89 79.5 -137t155.5 -48t156 48t80 137z" />
    <glyph glyph-name="ibreve" unicode="&#x12d;" horiz-adv-x="374" 
d="M150 0v952h75v-952h-75zM422 1386h59q-20 -120 -96 -184.5t-199 -64.5t-199 64.5t-96 184.5h60q19 -89 79.5 -136.5t155.5 -47.5t156 47.5t80 136.5z" />
    <glyph glyph-name="Iogonek" unicode="&#x12e;" horiz-adv-x="432" 
d="M322 -291v-74q-61 -45 -152 -45q-80 0 -127 43.5t-47 116.5q0 146 180 268v1342h80v-1360h-8q-95 -62 -141 -120t-46 -124q0 -47 31 -76.5t82 -29.5q81 0 143 59h5z" />
    <glyph glyph-name="iogonek" unicode="&#x12f;" horiz-adv-x="374" 
d="M283 -291v-74q-61 -45 -152 -45q-80 0 -127 43.5t-47 116.5q0 77 47.5 144.5t145.5 132.5v925h75v-952h-16q-95 -62 -140.5 -120t-45.5 -124q0 -47 30.5 -76.5t81.5 -29.5q82 0 144 59h4zM186 1317q26 0 43 -17t17 -43q0 -25 -17 -42t-43 -17q-25 0 -42 17t-17 42
q0 26 17 43t42 17z" />
    <glyph glyph-name="Idotaccent" unicode="&#x130;" horiz-adv-x="432" 
d="M176 0v1360h80v-1360h-80zM217 1708q26 0 42.5 -16.5t16.5 -42.5q0 -25 -16.5 -42.5t-42.5 -17.5t-42.5 17.5t-16.5 42.5q0 26 16.5 42.5t42.5 16.5z" />
    <glyph glyph-name="dotlessi" unicode="&#x131;" horiz-adv-x="374" 
d="M150 0v952h75v-952h-75z" />
    <glyph glyph-name="IJ" unicode="&#x132;" horiz-adv-x="1462" 
d="M176 0v1360h80v-1360h-80zM1321 1360v-934q0 -211 -116.5 -328.5t-325.5 -117.5q-244 0 -396 149v96h6q64 -83 165.5 -127.5t222.5 -44.5q175 0 269.5 98t94.5 279v930h80z" />
    <glyph glyph-name="ij" unicode="&#x133;" horiz-adv-x="749" 
d="M186 1317q26 0 43 -17t17 -43q0 -25 -17 -42t-43 -17q-25 0 -42 17t-17 42q0 26 17 43t42 17zM150 0v952h75v-952h-75zM561 1317q26 0 43 -17t17 -43q0 -25 -17 -42t-43 -17q-25 0 -42 17t-17 42q0 26 17 43t42 17zM600 952v-1136q0 -118 -44 -172t-140 -54
q-56 0 -103 21v74h6q43 -27 91 -27q63 0 88.5 35.5t25.5 124.5v1134h76z" />
    <glyph glyph-name="Jcircumflex" unicode="&#x134;" horiz-adv-x="1030" 
d="M889 1360v-934q0 -211 -117 -328.5t-326 -117.5q-243 0 -395 149v96h6q64 -83 165 -127.5t222 -44.5q175 0 270 98t95 279v930h80zM647 1503h-74l242 305h64l241 -305h-73l-199 242z" />
    <glyph glyph-name="jcircumflex" unicode="&#x135;" horiz-adv-x="374" 
d="M225 952v-1136q0 -118 -44 -172t-140 -54q-55 0 -102 21v74h6q43 -27 90 -27q63 0 89 35.5t26 124.5v1134h75zM-14 1112h-74l242 305h63l242 -305h-74l-199 242z" />
    <glyph glyph-name="uni0136" unicode="&#x136;" horiz-adv-x="1232" 
d="M256 0h-80v1360h80v-649l788 649h123l-823 -672l844 -688h-125l-807 662v-662zM389 -430l223 293h84l-235 -293h-72z" />
    <glyph glyph-name="uni0137" unicode="&#x137;" horiz-adv-x="929" 
d="M225 457v-457h-75v1434h75v-924l539 442h110l-573 -467l594 -485h-115zM236 -430l223 293h84l-236 -293h-71z" />
    <glyph glyph-name="kgreenlandic" unicode="&#x138;" horiz-adv-x="929" 
d="M225 457v-457h-75v952h75v-442l539 442h110l-573 -467l594 -485h-115z" />
    <glyph glyph-name="Lacute" unicode="&#x139;" horiz-adv-x="1171" 
d="M1120 0h-944v1360h80v-1286h864v-74zM162 1503l233 305h86l-248 -305h-71z" />
    <glyph glyph-name="lacute" unicode="&#x13a;" horiz-adv-x="374" 
d="M150 0v1434h75v-1434h-75zM131 1567l234 305h86l-248 -305h-72z" />
    <glyph glyph-name="uni013B" unicode="&#x13b;" horiz-adv-x="1171" 
d="M1120 0h-944v1360h80v-1286h864v-74zM367 -430l223 293h84l-236 -293h-71z" />
    <glyph glyph-name="uni013C" unicode="&#x13c;" horiz-adv-x="374" 
d="M150 0v1434h75v-1434h-75zM-76 -430l223 293h84l-235 -293h-72z" />
    <glyph glyph-name="Lcaron" unicode="&#x13d;" horiz-adv-x="1171" 
d="M1120 0h-944v1360h80v-1286h864v-74zM465 1085l67 349h74l-84 -349h-57z" />
    <glyph glyph-name="lcaron" unicode="&#x13e;" horiz-adv-x="393" 
d="M150 0v1434h75v-1434h-75zM315 1085l68 349h74l-84 -349h-58z" />
    <glyph glyph-name="Ldot" unicode="&#x13f;" horiz-adv-x="1171" 
d="M1120 0h-944v1360h80v-1286h864v-74zM799 739q26 0 42.5 -16.5t16.5 -42.5q0 -25 -16.5 -42t-42.5 -17t-43 17t-17 42q0 26 17 42.5t43 16.5z" />
    <glyph glyph-name="ldot" unicode="&#x140;" horiz-adv-x="397" 
d="M150 0v1434h75v-1434h-75zM385 739q26 0 42.5 -16.5t16.5 -42.5q0 -25 -16.5 -42t-42.5 -17t-42.5 17t-16.5 42q0 26 16.5 42.5t42.5 16.5z" />
    <glyph glyph-name="Lslash" unicode="&#x141;" horiz-adv-x="1198" 
d="M1147 0h-944v469l-160 -96v82l160 96v809h80v-760l608 371v-82l-608 -371v-444h864v-74z" />
    <glyph glyph-name="lslash" unicode="&#x142;" horiz-adv-x="419" 
d="M233 731v-731h-75v674l-152 -117v80l152 117v680h75v-623l183 139v-80z" />
    <glyph glyph-name="Nacute" unicode="&#x143;" horiz-adv-x="1519" 
d="M1343 0h-96l-989 1274h-4v-1274h-78v1360h113l973 -1254h4v1254h77v-1360zM715 1503l233 305h86l-248 -305h-71z" />
    <glyph glyph-name="nacute" unicode="&#x144;" horiz-adv-x="1144" 
d="M610 973q190 0 301 -116t111 -314v-543h-76v535q0 173 -91.5 271.5t-254.5 98.5q-172 0 -273.5 -114.5t-101.5 -309.5v-481h-75v952h67l2 -221h4q47 116 147.5 179t239.5 63zM518 1112l234 305h86l-248 -305h-72z" />
    <glyph glyph-name="uni0145" unicode="&#x145;" horiz-adv-x="1519" 
d="M1343 0h-96l-989 1274h-4v-1274h-78v1360h113l973 -1254h4v1254h77v-1360zM498 -430l223 293h84l-236 -293h-71z" />
    <glyph glyph-name="uni0146" unicode="&#x146;" horiz-adv-x="1144" 
d="M610 973q190 0 301 -116t111 -314v-543h-76v535q0 173 -91.5 271.5t-254.5 98.5q-172 0 -273.5 -114.5t-101.5 -309.5v-481h-75v952h67l2 -221h4q47 116 147.5 179t239.5 63zM322 -430l223 293h84l-236 -293h-71z" />
    <glyph glyph-name="Ncaron" unicode="&#x147;" horiz-adv-x="1519" 
d="M1343 0h-96l-989 1274h-4v-1274h-78v1360h113l973 -1254h4v1254h77v-1360zM791 1503h-64l-242 305h74l201 -241l198 241h74z" />
    <glyph glyph-name="ncaron" unicode="&#x148;" horiz-adv-x="1144" 
d="M610 973q190 0 301 -116t111 -314v-543h-76v535q0 173 -91.5 271.5t-254.5 98.5q-172 0 -273.5 -114.5t-101.5 -309.5v-481h-75v952h67l2 -221h4q47 116 147.5 179t239.5 63zM604 1112h-63l-242 305h74l200 -241l199 241h74z" />
    <glyph glyph-name="napostrophe" unicode="&#x149;" horiz-adv-x="1144" 
d="M63 1434h72q0 -206 -61 -334h-62q54 123 54 286q0 24 -3 48zM610 973q190 0 301 -116t111 -314v-543h-76v535q0 173 -91.5 271.5t-254.5 98.5q-172 0 -273.5 -114.5t-101.5 -309.5v-481h-75v952h67l2 -221h4q47 116 147.5 179t239.5 63z" />
    <glyph glyph-name="Eng" unicode="&#x14a;" horiz-adv-x="1519" 
d="M1343 1360v-1544q0 -118 -44 -172t-140 -54q-57 0 -104 21v80h4q43 -27 92 -27q63 0 89 34.5t26 119.5v174l-1008 1282h-4v-1274h-78v1360h113l973 -1241h4v1241h77z" />
    <glyph glyph-name="eng" unicode="&#x14b;" horiz-adv-x="1144" 
d="M610 973q190 0 301 -116t111 -314v-727q0 -118 -44 -172t-140 -54q-56 0 -103 21v74h6q41 -27 90 -27q64 0 89.5 35.5t25.5 124.5v717q0 173 -91.5 271.5t-254.5 98.5q-172 0 -273.5 -114.5t-101.5 -309.5v-481h-75v952h67l2 -217h4q50 114 149.5 176t237.5 62z" />
    <glyph glyph-name="Omacron" unicode="&#x14c;" horiz-adv-x="1570" 
d="M786 1380q152 0 282.5 -52t222.5 -144t144 -222t52 -282t-52 -282t-144 -222t-222.5 -144t-282.5 -52q-203 0 -363.5 89t-249.5 248.5t-89 362.5t89 362.5t249.5 248.5t363.5 89zM786 1307q-275 0 -448.5 -175t-173.5 -452t173.5 -452t448.5 -175q180 0 322 79.5
t220.5 222.5t78.5 325t-78.5 325t-220.5 222.5t-322 79.5zM494 1612v63h585v-63h-585z" />
    <glyph glyph-name="omacron" unicode="&#x14d;" horiz-adv-x="1167" 
d="M584 973q219 0 359 -139.5t140 -358.5q0 -218 -140 -356.5t-359 -138.5q-220 0 -360 138.5t-140 356.5q0 220 140 359t360 139zM584 905q-186 0 -305 -120.5t-119 -309.5q0 -188 119 -308t305 -120t305 120t119 308q0 189 -119 309.5t-305 120.5zM291 1221v63h586v-63
h-586z" />
    <glyph glyph-name="Obreve" unicode="&#x14e;" horiz-adv-x="1570" 
d="M786 1380q152 0 282.5 -52t222.5 -144t144 -222t52 -282t-52 -282t-144 -222t-222.5 -144t-282.5 -52q-203 0 -363.5 89t-249.5 248.5t-89 362.5t89 362.5t249.5 248.5t363.5 89zM786 1307q-275 0 -448.5 -175t-173.5 -452t173.5 -452t448.5 -175q180 0 322 79.5
t220.5 222.5t78.5 325t-78.5 325t-220.5 222.5t-322 79.5zM1022 1778h59q-20 -120 -96 -185t-199 -65q-122 0 -198 64.5t-96 185.5h59q19 -89 79.5 -137t155.5 -48t156 48t80 137z" />
    <glyph glyph-name="obreve" unicode="&#x14f;" horiz-adv-x="1167" 
d="M584 973q219 0 359 -139.5t140 -358.5q0 -218 -140 -356.5t-359 -138.5q-220 0 -360 138.5t-140 356.5q0 220 140 359t360 139zM584 905q-186 0 -305 -120.5t-119 -309.5q0 -188 119 -308t305 -120t305 120t119 308q0 189 -119 309.5t-305 120.5zM819 1386h60
q-20 -120 -96 -184.5t-199 -64.5t-199 64.5t-96 184.5h59q19 -89 80 -136.5t156 -47.5t155.5 47.5t79.5 136.5z" />
    <glyph glyph-name="Ohungarumlaut" unicode="&#x150;" horiz-adv-x="1570" 
d="M786 1380q152 0 282.5 -52t222.5 -144t144 -222t52 -282t-52 -282t-144 -222t-222.5 -144t-282.5 -52q-203 0 -363.5 89t-249.5 248.5t-89 362.5t89 362.5t249.5 248.5t363.5 89zM786 1307q-275 0 -448.5 -175t-173.5 -452t173.5 -452t448.5 -175q180 0 322 79.5
t220.5 222.5t78.5 325t-78.5 325t-220.5 222.5t-322 79.5zM569 1503l234 305h84l-246 -305h-72zM893 1503l233 305h84l-247 -305h-70z" />
    <glyph glyph-name="ohungarumlaut" unicode="&#x151;" horiz-adv-x="1167" 
d="M584 973q219 0 359 -139.5t140 -358.5q0 -218 -140 -356.5t-359 -138.5q-220 0 -360 138.5t-140 356.5q0 220 140 359t360 139zM584 905q-186 0 -305 -120.5t-119 -309.5q0 -188 119 -308t305 -120t305 120t119 308q0 189 -119 309.5t-305 120.5zM367 1112l233 305h84
l-246 -305h-71zM690 1112l234 305h84l-248 -305h-70z" />
    <glyph glyph-name="OE" unicode="&#x152;" horiz-adv-x="2308" 
d="M2056 729v-74h-743v-581h891v-74h-1401q-333 0 -526 183t-193 499q0 314 193 496t526 182h1401v-74h-891v-557h743zM1233 1286h-428q-298 0 -469.5 -161.5t-171.5 -442.5q0 -283 171.5 -445.5t469.5 -162.5h428v1212z" />
    <glyph glyph-name="oe" unicode="&#x153;" horiz-adv-x="2070" 
d="M1989 461h-906q5 -191 130 -302.5t335 -111.5q217 0 371 148h6v-84q-143 -131 -377 -131q-193 0 -323 83.5t-178 233.5h-5q-48 -146 -170 -231.5t-292 -85.5q-218 0 -357 138.5t-139 356.5q0 220 139 359t357 139q170 0 292 -87t170 -235h5q48 148 170 235t290 87
q220 0 351 -125.5t131 -333.5v-53zM584 47q186 0 305 120t119 308q0 189 -119 309.5t-305 120.5t-305 -120.5t-119 -309.5q0 -188 119 -308t305 -120zM1083 528h838q-6 169 -120.5 273t-295.5 104q-174 0 -289.5 -104.5t-132.5 -272.5z" />
    <glyph glyph-name="Racute" unicode="&#x154;" horiz-adv-x="1333" 
d="M256 569v-569h-80v1360h582q226 0 341 -100t115 -295q0 -172 -89.5 -271t-266.5 -119l397 -575h-98l-389 569h-512zM256 643h500q379 0 379 322q0 321 -379 321h-500v-643zM590 1503l233 305h86l-247 -305h-72z" />
    <glyph glyph-name="racute" unicode="&#x155;" horiz-adv-x="712" 
d="M541 973q82 0 147 -37v-82h-6q-64 47 -145 47q-154 0 -233 -112.5t-79 -327.5v-461h-75v952h67l2 -202h4q82 223 318 223zM313 1112l234 305h86l-248 -305h-72z" />
    <glyph glyph-name="uni0156" unicode="&#x156;" horiz-adv-x="1333" 
d="M256 569v-569h-80v1360h582q226 0 341 -100t115 -295q0 -172 -89.5 -271t-266.5 -119l397 -575h-98l-389 569h-512zM256 643h500q379 0 379 322q0 321 -379 321h-500v-643zM434 -430l223 293h84l-235 -293h-72z" />
    <glyph glyph-name="uni0157" unicode="&#x157;" horiz-adv-x="712" 
d="M541 973q82 0 147 -37v-82h-6q-64 47 -145 47q-154 0 -233 -112.5t-79 -327.5v-461h-75v952h67l2 -202h4q82 223 318 223zM-76 -430l223 293h84l-235 -293h-72z" />
    <glyph glyph-name="Rcaron" unicode="&#x158;" horiz-adv-x="1333" 
d="M256 569v-569h-80v1360h582q226 0 341 -100t115 -295q0 -172 -89.5 -271t-266.5 -119l397 -575h-98l-389 569h-512zM256 643h500q379 0 379 322q0 321 -379 321h-500v-643zM676 1503h-64l-241 305h73l201 -241l199 241h74z" />
    <glyph glyph-name="rcaron" unicode="&#x159;" horiz-adv-x="712" 
d="M541 973q82 0 147 -37v-82h-6q-64 47 -145 47q-154 0 -233 -112.5t-79 -327.5v-461h-75v952h67l2 -202h4q82 223 318 223zM399 1112h-63l-242 305h74l201 -241l198 241h74z" />
    <glyph glyph-name="Sacute" unicode="&#x15a;" horiz-adv-x="1169" 
d="M580 1380q146 0 263.5 -35.5t184.5 -99.5v-94h-6q-68 75 -182 115.5t-260 40.5q-178 0 -289 -85.5t-111 -222.5q0 -84 38.5 -135.5t128.5 -82.5t247 -46q187 -18 295.5 -62t155.5 -119t47 -194q0 -177 -132.5 -278.5t-361.5 -101.5q-164 0 -297.5 41.5t-218.5 119.5v97h6
q179 -185 514 -185q192 0 302 82t110 225q0 137 -97.5 204.5t-341.5 90.5q-262 24 -367.5 103t-105.5 241q0 169 133 275t345 106zM526 1503l234 305h86l-248 -305h-72z" />
    <glyph glyph-name="sacute" unicode="&#x15b;" horiz-adv-x="872" 
d="M434 973q214 0 320 -86v-84h-6q-94 102 -314 102q-121 0 -196.5 -60t-75.5 -157q0 -83 63.5 -121t220.5 -45q195 -9 277 -70t82 -190q0 -128 -98 -205t-261 -77q-243 0 -366 114v90h6q113 -137 358 -137q134 0 211.5 57.5t77.5 157.5q0 92 -67.5 135t-233.5 52
q-190 10 -266 64.5t-76 172.5q0 126 96 206.5t248 80.5zM379 1112l233 305h86l-247 -305h-72z" />
    <glyph glyph-name="Scircumflex" unicode="&#x15c;" horiz-adv-x="1169" 
d="M580 1380q146 0 263.5 -35.5t184.5 -99.5v-94h-6q-68 75 -182 115.5t-260 40.5q-178 0 -289 -85.5t-111 -222.5q0 -84 38.5 -135.5t128.5 -82.5t247 -46q187 -18 295.5 -62t155.5 -119t47 -194q0 -177 -132.5 -278.5t-361.5 -101.5q-164 0 -297.5 41.5t-218.5 119.5v97h6
q179 -185 514 -185q192 0 302 82t110 225q0 137 -97.5 204.5t-341.5 90.5q-262 24 -367.5 103t-105.5 241q0 169 133 275t345 106zM381 1503h-74l242 305h63l242 -305h-74l-198 242z" />
    <glyph glyph-name="scircumflex" unicode="&#x15d;" horiz-adv-x="872" 
d="M434 973q214 0 320 -86v-84h-6q-94 102 -314 102q-121 0 -196.5 -60t-75.5 -157q0 -83 63.5 -121t220.5 -45q195 -9 277 -70t82 -190q0 -128 -98 -205t-261 -77q-243 0 -366 114v90h6q113 -137 358 -137q134 0 211.5 57.5t77.5 157.5q0 92 -67.5 135t-233.5 52
q-190 10 -266 64.5t-76 172.5q0 126 96 206.5t248 80.5zM233 1112h-73l241 305h64l242 -305h-74l-199 242z" />
    <glyph glyph-name="Scedilla" unicode="&#x15e;" horiz-adv-x="1169" 
d="M82 141v97h6q179 -185 514 -185q192 0 302 82t110 225q0 137 -97.5 204.5t-341.5 90.5q-262 24 -367.5 103t-105.5 241q0 169 133 275t345 106q146 0 263.5 -35.5t184.5 -99.5v-94h-6q-68 75 -182 115.5t-260 40.5q-178 0 -289 -85.5t-111 -222.5q0 -84 38.5 -135.5
t128.5 -82.5t247 -46q187 -18 295.5 -62t155.5 -119t47 -194q0 -169 -123.5 -270t-335.5 -110l-55 -111v-4q14 2 34 2q69 0 108.5 -37.5t39.5 -97.5q0 -69 -45.5 -105.5t-134.5 -36.5q-94 0 -150 39v72h4q51 -51 146 -51q56 0 85 22.5t29 61.5q0 37 -29.5 58.5t-82.5 21.5
q-45 0 -88 -19v21l84 164q-157 3 -285.5 44.5t-210.5 116.5z" />
    <glyph glyph-name="scedilla" unicode="&#x15f;" horiz-adv-x="872" 
d="M80 94v90h6q113 -137 358 -137q134 0 211.5 57.5t77.5 157.5q0 92 -67.5 135t-233.5 52q-190 10 -266 64.5t-76 172.5q0 126 96 206.5t248 80.5q214 0 320 -86v-84h-6q-94 102 -314 102q-121 0 -196.5 -60t-75.5 -157q0 -83 63.5 -121t220.5 -45q195 -9 277 -70t82 -190
q0 -119 -85 -194t-228 -86l-56 -113v-4q14 2 35 2q69 0 108 -37.5t39 -97.5q0 -69 -45.5 -105.5t-134.5 -36.5q-93 0 -149 39v72h4q51 -51 145 -51q56 0 85.5 22.5t29.5 61.5q0 37 -30 58.5t-83 21.5q-45 0 -88 -19v21l84 164q-236 3 -356 114z" />
    <glyph glyph-name="Scaron" unicode="&#x160;" horiz-adv-x="1169" 
d="M580 1380q146 0 263.5 -35.5t184.5 -99.5v-94h-6q-68 75 -182 115.5t-260 40.5q-178 0 -289 -85.5t-111 -222.5q0 -84 38.5 -135.5t128.5 -82.5t247 -46q187 -18 295.5 -62t155.5 -119t47 -194q0 -177 -132.5 -278.5t-361.5 -101.5q-164 0 -297.5 41.5t-218.5 119.5v97h6
q179 -185 514 -185q192 0 302 82t110 225q0 137 -97.5 204.5t-341.5 90.5q-262 24 -367.5 103t-105.5 241q0 169 133 275t345 106zM612 1503h-63l-242 305h74l201 -241l198 241h74z" />
    <glyph glyph-name="scaron" unicode="&#x161;" horiz-adv-x="872" 
d="M434 973q214 0 320 -86v-84h-6q-94 102 -314 102q-121 0 -196.5 -60t-75.5 -157q0 -83 63.5 -121t220.5 -45q195 -9 277 -70t82 -190q0 -128 -98 -205t-261 -77q-243 0 -366 114v90h6q113 -137 358 -137q134 0 211.5 57.5t77.5 157.5q0 92 -67.5 135t-233.5 52
q-190 10 -266 64.5t-76 172.5q0 126 96 206.5t248 80.5zM465 1112h-64l-241 305h73l201 -241l199 241h74z" />
    <glyph glyph-name="uni0162" unicode="&#x162;" horiz-adv-x="1169" 
d="M563 -131v-4q20 2 41 2q69 0 108.5 -37.5t39.5 -97.5q0 -68 -45.5 -105t-135.5 -37q-93 0 -149 39v72h4q51 -51 145 -51q56 0 85.5 22.5t29.5 61.5q0 37 -30 58.5t-83 21.5q-45 0 -88 -19v21l72 184h-10v1286h-496v74h1067v-74h-491v-1286h-11z" />
    <glyph glyph-name="uni0163" unicode="&#x163;" horiz-adv-x="716" 
d="M375 -131v-4q14 2 35 2q69 0 108 -37.5t39 -97.5q0 -69 -45.5 -105.5t-134.5 -36.5q-94 0 -150 39v72h4q51 -51 146 -51q56 0 85.5 22.5t29.5 61.5q0 37 -30 58.5t-83 21.5q-45 0 -88 -19v21l92 180q-80 26 -124 97.5t-44 178.5v613h-195v67h197l19 252h55v-252h344v-67
h-344v-611q0 -106 52 -166.5t144 -60.5q93 0 146 53h6v-82q-56 -38 -156 -38q-19 0 -51 4z" />
    <glyph glyph-name="Tcaron" unicode="&#x164;" horiz-adv-x="1169" 
d="M627 1286v-1286h-80v1286h-496v74h1067v-74h-491zM616 1503h-63l-242 305h74l201 -241l198 241h74z" />
    <glyph glyph-name="tcaron" unicode="&#x165;" horiz-adv-x="716" 
d="M639 100v-82q-56 -38 -156 -38q-126 0 -197 77t-71 215v613h-195v67h197l19 252h55v-252h344v-67h-344v-611q0 -106 52 -166.5t144 -60.5q93 0 146 53h6zM508 1085l67 349h74l-84 -349h-57z" />
    <glyph glyph-name="Tbar" unicode="&#x166;" horiz-adv-x="1169" 
d="M932 760v-70h-305v-690h-80v690h-309v70h309v526h-496v74h1067v-74h-491v-526h305z" />
    <glyph glyph-name="tbar" unicode="&#x167;" horiz-adv-x="737" 
d="M641 100v-82q-56 -38 -156 -38q-126 0 -197 77t-71 215v260h-174v66h174v287h-194v67h196l19 252h55v-252h344v-67h-344v-287h303v-66h-303v-258q0 -106 52 -166.5t144 -60.5q93 0 146 53h6z" />
    <glyph glyph-name="Utilde" unicode="&#x168;" horiz-adv-x="1427" 
d="M1286 1360v-793q0 -284 -147.5 -435.5t-425.5 -151.5q-277 0 -424.5 151.5t-147.5 435.5v793h80v-791q0 -249 127.5 -382.5t366.5 -133.5q238 0 365.5 133.5t127.5 382.5v791h78zM1008 1747v-86q-26 -46 -68.5 -72t-93.5 -26q-67 0 -146 59q-39 30 -64 40.5t-54 10.5
q-97 0 -156 -121h-4v86q26 47 69 74t93 27q65 0 145 -60q41 -31 66.5 -42t52.5 -11q94 0 156 121h4z" />
    <glyph glyph-name="utilde" unicode="&#x169;" horiz-adv-x="1144" 
d="M995 0h-69l-2 221h-4q-47 -116 -146.5 -178.5t-238.5 -62.5q-191 0 -301.5 115.5t-110.5 314.5v542h76v-536q0 -172 92 -270.5t254 -98.5q171 0 273 115t102 309v481h75v-952zM852 1356v-86q-27 -46 -69.5 -72.5t-92.5 -26.5q-65 0 -145 60q-66 51 -119 51
q-97 0 -156 -121h-4v86q26 47 69 74t93 27q65 0 145 -60q41 -31 66.5 -42t52.5 -11q94 0 156 121h4z" />
    <glyph glyph-name="Umacron" unicode="&#x16a;" horiz-adv-x="1427" 
d="M1286 1360v-793q0 -284 -147.5 -435.5t-425.5 -151.5q-277 0 -424.5 151.5t-147.5 435.5v793h80v-791q0 -249 127.5 -382.5t366.5 -133.5q238 0 365.5 133.5t127.5 382.5v791h78zM422 1612v63h586v-63h-586z" />
    <glyph glyph-name="umacron" unicode="&#x16b;" horiz-adv-x="1144" 
d="M995 0h-69l-2 221h-4q-47 -116 -146.5 -178.5t-238.5 -62.5q-191 0 -301.5 115.5t-110.5 314.5v542h76v-536q0 -172 92 -270.5t254 -98.5q171 0 273 115t102 309v481h75v-952zM266 1221v63h586v-63h-586z" />
    <glyph glyph-name="Ubreve" unicode="&#x16c;" horiz-adv-x="1427" 
d="M1286 1360v-793q0 -284 -147.5 -435.5t-425.5 -151.5q-277 0 -424.5 151.5t-147.5 435.5v793h80v-791q0 -249 127.5 -382.5t366.5 -133.5q238 0 365.5 133.5t127.5 382.5v791h78zM950 1778h60q-20 -120 -96 -185t-199 -65t-199 65t-96 185h59q19 -89 80 -137t156 -48
t155.5 48t79.5 137z" />
    <glyph glyph-name="ubreve" unicode="&#x16d;" horiz-adv-x="1144" 
d="M995 0h-69l-2 221h-4q-47 -116 -146.5 -178.5t-238.5 -62.5q-191 0 -301.5 115.5t-110.5 314.5v542h76v-536q0 -172 92 -270.5t254 -98.5q171 0 273 115t102 309v481h75v-952zM795 1386h59q-20 -120 -96 -184.5t-199 -64.5t-199 64.5t-96 184.5h60q19 -89 79.5 -136.5
t155.5 -47.5t156 47.5t80 136.5z" />
    <glyph glyph-name="Uring" unicode="&#x16e;" horiz-adv-x="1427" 
d="M1286 1360v-793q0 -284 -147.5 -435.5t-425.5 -151.5q-277 0 -424.5 151.5t-147.5 435.5v793h80v-791q0 -249 127.5 -382.5t366.5 -133.5q238 0 365.5 133.5t127.5 382.5v791h78zM715 1819q69 0 114 -45.5t45 -114.5t-45 -114.5t-114 -45.5t-114.5 45.5t-45.5 114.5
t45.5 114.5t114.5 45.5zM715 1759q-41 0 -70 -28.5t-29 -71.5t29 -71.5t70 -28.5t69.5 28.5t28.5 71.5t-28.5 71.5t-69.5 28.5z" />
    <glyph glyph-name="uring" unicode="&#x16f;" horiz-adv-x="1144" 
d="M995 0h-69l-2 221h-4q-47 -116 -146.5 -178.5t-238.5 -62.5q-191 0 -301.5 115.5t-110.5 314.5v542h76v-536q0 -172 92 -270.5t254 -98.5q171 0 273 115t102 309v481h75v-952zM559 1427q69 0 114.5 -45t45.5 -114t-45.5 -114.5t-114.5 -45.5t-114.5 45.5t-45.5 114.5
t45.5 114t114.5 45zM559 1368q-41 0 -69.5 -28.5t-28.5 -71.5t28.5 -72t69.5 -29t69.5 29t28.5 72t-28.5 71.5t-69.5 28.5z" />
    <glyph glyph-name="Uhungarumlaut" unicode="&#x170;" horiz-adv-x="1427" 
d="M1286 1360v-793q0 -284 -147.5 -435.5t-425.5 -151.5q-277 0 -424.5 151.5t-147.5 435.5v793h80v-791q0 -249 127.5 -382.5t366.5 -133.5q238 0 365.5 133.5t127.5 382.5v791h78zM498 1503l233 305h84l-246 -305h-71zM821 1503l234 305h84l-248 -305h-70z" />
    <glyph glyph-name="uhungarumlaut" unicode="&#x171;" horiz-adv-x="1144" 
d="M995 0h-69l-2 221h-4q-47 -116 -146.5 -178.5t-238.5 -62.5q-191 0 -301.5 115.5t-110.5 314.5v542h76v-536q0 -172 92 -270.5t254 -98.5q171 0 273 115t102 309v481h75v-952zM342 1112l233 305h84l-245 -305h-72zM666 1112l233 305h84l-248 -305h-69z" />
    <glyph glyph-name="Uogonek" unicode="&#x172;" horiz-adv-x="1427" 
d="M1286 1360v-793q0 -375 -256 -518q-113 -65 -169 -133t-56 -149q0 -49 33.5 -83t87.5 -34q79 0 141 59h4v-74q-61 -45 -151 -45q-80 0 -129.5 47t-49.5 125q0 126 107 224v4q-68 -10 -135 -10q-277 0 -424.5 151.5t-147.5 435.5v793h80v-791q0 -249 127.5 -382.5
t366.5 -133.5q238 0 365.5 133.5t127.5 382.5v791h78z" />
    <glyph glyph-name="uogonek" unicode="&#x173;" horiz-adv-x="1144" 
d="M995 0h-34q-106 -43 -166 -107t-60 -137q0 -47 31 -76.5t82 -29.5q81 0 143 59h4v-74q-61 -45 -151 -45q-79 0 -126.5 43t-47.5 115q0 92 66 168.5t190 130.5l-2 174h-4q-47 -116 -146.5 -178.5t-238.5 -62.5q-191 0 -301.5 115.5t-110.5 314.5v542h76v-536
q0 -172 92 -270.5t254 -98.5q171 0 273 115t102 309v481h75v-952z" />
    <glyph glyph-name="Wcircumflex" unicode="&#x174;" horiz-adv-x="2045" 
d="M1526 0h-78l-422 1219h-4l-424 -1219h-78l-469 1360h86l422 -1227h4l424 1227h72l428 -1231h4l420 1231h84zM823 1503h-73l241 305h64l241 -305h-73l-199 242z" />
    <glyph glyph-name="wcircumflex" unicode="&#x175;" horiz-adv-x="1525" 
d="M1151 0h-74l-311 825h-4l-313 -825h-72l-357 952h84l308 -841h4l317 841h66l315 -839h4l309 839h78zM563 1112h-74l242 305h64l241 -305h-73l-199 242z" />
    <glyph glyph-name="Ycircumflex" unicode="&#x176;" horiz-adv-x="1325" 
d="M707 0h-80v618l-602 742h104l539 -670l532 670h100l-593 -735v-625zM461 1503h-74l242 305h63l242 -305h-74l-198 242z" />
    <glyph glyph-name="ycircumflex" unicode="&#x177;" horiz-adv-x="991" 
d="M324 -389h-78l213 434l-439 907h84l392 -819h4l393 819h78zM297 1112h-74l242 305h63l242 -305h-74l-198 242z" />
    <glyph glyph-name="Ydieresis" unicode="&#x178;" horiz-adv-x="1325" 
d="M707 0h-80v618l-602 742h104l539 -670l532 670h100l-593 -735v-625zM477 1708q25 0 41.5 -17t16.5 -42t-16.5 -41.5t-41.5 -16.5q-27 0 -44 16.5t-17 41.5t17 42t44 17zM846 1708q27 0 44 -17t17 -42t-17 -41.5t-44 -16.5q-25 0 -41.5 16.5t-16.5 41.5t16.5 42t41.5 17z
" />
    <glyph glyph-name="Zacute" unicode="&#x179;" horiz-adv-x="1288" 
d="M100 0v68l973 1218h-932v74h1039v-68l-975 -1218h985v-74h-1090zM598 1503l233 305h87l-248 -305h-72z" />
    <glyph glyph-name="zacute" unicode="&#x17a;" horiz-adv-x="991" 
d="M86 0v61l707 824h-676v67h778v-61l-707 -823h717v-68h-819zM446 1112l234 305h86l-248 -305h-72z" />
    <glyph glyph-name="Zdotaccent" unicode="&#x17b;" horiz-adv-x="1288" 
d="M100 0v68l973 1218h-932v74h1039v-68l-975 -1218h985v-74h-1090zM653 1708q26 0 43 -16.5t17 -42.5q0 -25 -17 -42.5t-43 -17.5t-42.5 17.5t-16.5 42.5q0 26 16.5 42.5t42.5 16.5z" />
    <glyph glyph-name="zdotaccent" unicode="&#x17c;" horiz-adv-x="991" 
d="M86 0v61l707 824h-676v67h778v-61l-707 -823h717v-68h-819zM502 1317q26 0 42.5 -17t16.5 -43q0 -25 -16.5 -42t-42.5 -17t-43 17t-17 42q0 26 17 43t43 17z" />
    <glyph glyph-name="Zcaron" unicode="&#x17d;" horiz-adv-x="1288" 
d="M100 0v68l973 1218h-932v74h1039v-68l-975 -1218h985v-74h-1090zM684 1503h-63l-242 305h74l200 -241l199 241h74z" />
    <glyph glyph-name="zcaron" unicode="&#x17e;" horiz-adv-x="991" 
d="M86 0v61l707 824h-676v67h778v-61l-707 -823h717v-68h-819zM532 1112h-63l-242 305h74l201 -241l198 241h74z" />
    <glyph glyph-name="florin" unicode="&#x192;" horiz-adv-x="1331" 
d="M979 1380q114 0 172 -39l-6 -75h-6q-53 47 -154 47q-209 0 -244 -238l-32 -229h356v-68h-367l-88 -622q-44 -299 -293 -299q-112 0 -170 39l7 75h6q53 -47 153 -47q190 0 224 238l88 616h-324v68h334l33 235q20 146 100 222.5t211 76.5z" />
    <glyph glyph-name="AEacute" unicode="&#x1fc;" horiz-adv-x="2111" 
d="M1118 729h744v-74h-744v-581h891v-74h-971v344h-673l-248 -344h-92l985 1360h999v-74h-891v-557zM1038 1274h-4l-616 -856h620v856zM1006 1503l233 305h86l-248 -305h-71z" />
    <glyph glyph-name="aeacute" unicode="&#x1fd;" horiz-adv-x="2068" 
d="M1987 461h-910q5 -191 130.5 -302.5t336.5 -111.5q220 0 371 148h6v-84q-140 -131 -371 -131q-174 0 -293.5 64t-177.5 175h-4l-2 -219h-63l-2 219h-4q-56 -112 -169 -175.5t-262 -63.5q-214 0 -351.5 138.5t-137.5 356.5t137.5 358t351.5 140q149 0 262 -64t169 -176h4
l2 219h63l2 -219h4q55 112 167 176t265 64q216 0 346 -126t130 -333v-53zM584 47q186 0 305 120t119 308q0 189 -119 309.5t-305 120.5t-305 -120.5t-119 -309.5q0 -188 119 -308t305 -120zM1077 528h842q-6 169 -120.5 273t-297.5 104q-174 0 -290.5 -104.5t-133.5 -272.5z
M985 1112l234 305h86l-248 -305h-72z" />
    <glyph glyph-name="Oslashacute" unicode="&#x1fe;" horiz-adv-x="1570" 
d="M1487 1360l-182 -191q182 -195 182 -489q0 -152 -52 -282t-144 -222t-222.5 -144t-282.5 -52q-278 0 -469 161l-135 -141h-98l182 190q-182 195 -182 490q0 203 89 362.5t249.5 248.5t363.5 89q276 0 467 -161l136 141h98zM164 680q0 -258 155 -434l881 917
q-170 144 -414 144q-275 0 -448.5 -175t-173.5 -452zM1407 680q0 257 -156 434l-880 -917q174 -144 415 -144q180 0 322 79.5t220.5 222.5t78.5 325zM727 1503l234 305h86l-248 -305h-72z" />
    <glyph glyph-name="oslashacute" unicode="&#x1ff;" horiz-adv-x="1167" 
d="M1083 952l-127 -133q127 -137 127 -344q0 -218 -140 -356.5t-359 -138.5q-193 0 -326 108l-84 -88h-90l127 133q-127 137 -127 342q0 220 140 359t360 139q191 0 325 -109l84 88h90zM160 475q0 -175 102 -289l596 625q-115 94 -274 94q-186 0 -305 -120.5t-119 -309.5z
M1008 475q0 176 -103 291l-596 -625q115 -94 275 -94q186 0 305 120t119 308zM547 1112l233 305h86l-248 -305h-71z" />
    <glyph glyph-name="uni0218" unicode="&#x218;" horiz-adv-x="1169" 
d="M580 1380q146 0 263.5 -35.5t184.5 -99.5v-94h-6q-68 75 -182 115.5t-260 40.5q-178 0 -289 -85.5t-111 -222.5q0 -84 38.5 -135.5t128.5 -82.5t247 -46q187 -18 295.5 -62t155.5 -119t47 -194q0 -177 -132.5 -278.5t-361.5 -101.5q-164 0 -297.5 41.5t-218.5 119.5v97h6
q179 -185 514 -185q192 0 302 82t110 225q0 137 -97.5 204.5t-341.5 90.5q-262 24 -367.5 103t-105.5 241q0 169 133 275t345 106zM332 -430l223 293h84l-236 -293h-71z" />
    <glyph glyph-name="uni0219" unicode="&#x219;" horiz-adv-x="872" 
d="M434 973q214 0 320 -86v-84h-6q-94 102 -314 102q-121 0 -196.5 -60t-75.5 -157q0 -83 63.5 -121t220.5 -45q195 -9 277 -70t82 -190q0 -128 -98 -205t-261 -77q-243 0 -366 114v90h6q113 -137 358 -137q134 0 211.5 57.5t77.5 157.5q0 92 -67.5 135t-233.5 52
q-190 10 -266 64.5t-76 172.5q0 126 96 206.5t248 80.5zM190 -430l224 293h84l-236 -293h-72z" />
    <glyph glyph-name="uni021A" unicode="&#x21a;" horiz-adv-x="1169" 
d="M627 1286v-1286h-80v1286h-496v74h1067v-74h-491zM324 -430l223 293h84l-236 -293h-71z" />
    <glyph glyph-name="uni021B" unicode="&#x21b;" horiz-adv-x="716" 
d="M639 100v-82q-56 -38 -156 -38q-126 0 -197 77t-71 215v613h-195v67h197l19 252h55v-252h344v-67h-344v-611q0 -106 52 -166.5t144 -60.5q93 0 146 53h6zM129 -430l223 293h84l-235 -293h-72z" />
    <glyph glyph-name="uni0237" unicode="&#x237;" horiz-adv-x="374" 
d="M225 952v-1136q0 -118 -44 -172t-140 -54q-55 0 -102 21v74h6q43 -27 90 -27q63 0 89 35.5t26 124.5v1134h75z" />
    <glyph glyph-name="circumflex" unicode="&#x2c6;" horiz-adv-x="1024" 
d="M313 1112h-73l241 305h64l241 -305h-73l-199 242z" />
    <glyph glyph-name="caron" unicode="&#x2c7;" horiz-adv-x="1024" 
d="M545 1112h-64l-241 305h73l201 -241l199 241h73z" />
    <glyph glyph-name="breve" unicode="&#x2d8;" horiz-adv-x="1024" 
d="M748 1386h59q-20 -120 -96 -184.5t-199 -64.5t-199 64.5t-96 184.5h59q19 -89 80 -136.5t156 -47.5t156 47.5t80 136.5z" />
    <glyph glyph-name="dotaccent" unicode="&#x2d9;" horiz-adv-x="1024" 
d="M512 1317q26 0 42.5 -17t16.5 -43q0 -25 -16.5 -42t-42.5 -17t-42.5 17t-16.5 42q0 26 16.5 43t42.5 17z" />
    <glyph glyph-name="ring" unicode="&#x2da;" horiz-adv-x="1024" 
d="M512 1427q69 0 114.5 -45t45.5 -114t-45.5 -114.5t-114.5 -45.5t-114.5 45.5t-45.5 114.5t45.5 114t114.5 45zM512 1368q-41 0 -69.5 -28.5t-28.5 -71.5t28.5 -72t69.5 -29t69.5 29t28.5 72t-28.5 71.5t-69.5 28.5z" />
    <glyph glyph-name="ogonek" unicode="&#x2db;" horiz-adv-x="1024" 
d="M672 55l22 -53q-107 -43 -168 -107.5t-61 -138.5q0 -47 31 -76.5t82 -29.5q81 0 143 59h4v-74q-61 -45 -152 -45q-79 0 -126.5 43t-47.5 115q0 94 70.5 172.5t202.5 134.5z" />
    <glyph glyph-name="tilde" unicode="&#x2dc;" horiz-adv-x="1024" 
d="M805 1356v-86q-27 -46 -69.5 -72.5t-92.5 -26.5q-65 0 -145 60q-66 51 -119 51q-97 0 -156 -121h-4v86q26 47 69 74t93 27q65 0 145 -60q41 -31 66.5 -42t52.5 -11q94 0 156 121h4z" />
    <glyph glyph-name="hungarumlaut" unicode="&#x2dd;" horiz-adv-x="1024" 
d="M295 1112l233 305h84l-245 -305h-72zM618 1112l234 305h84l-248 -305h-70z" />
    <glyph glyph-name="uni0394" unicode="&#x394;" horiz-adv-x="1458" 
d="M39 0l653 1360h74l653 -1360h-1380zM1294 74l-565 1186h-4l-565 -1186h1134z" />
    <glyph glyph-name="uni03A9" unicode="&#x3a9;" horiz-adv-x="1595" 
d="M1475 74v-74h-469v68q195 83 304 242.5t109 371.5q0 275 -173 450t-447 175t-448.5 -175t-174.5 -450q0 -212 109.5 -371.5t304.5 -242.5v-68h-469v74h330v4q-170 94 -262.5 250t-92.5 360q0 201 89.5 358.5t249.5 245.5t364 88q203 0 362.5 -88t248.5 -245.5t89 -358.5
q0 -204 -92 -360t-262 -250v-4h330z" />
    <glyph glyph-name="uni03BC" unicode="&#x3bc;" horiz-adv-x="1185" 
d="M1030 0h-67l-2 221h-5q-48 -115 -148 -178t-239 -63q-228 0 -331 163h-5v-532h-75v1341h75v-536q0 -172 92.5 -270.5t254.5 -98.5q172 0 273 114.5t101 309.5v481h76v-952z" />
    <glyph glyph-name="pi" unicode="&#x3c0;" horiz-adv-x="1198" 
d="M995 885v-885h-75v885h-639v-885h-76v885h-176v67h1140v-67h-174z" />
    <glyph glyph-name="uni1E02" unicode="&#x1e02;" horiz-adv-x="1286" 
d="M932 700v-4q278 -60 278 -331q0 -181 -114.5 -273t-339.5 -92h-580v1360h529q226 0 341 -88.5t115 -263.5q0 -238 -229 -308zM256 729h444q189 0 285 70.5t96 208.5q0 278 -379 278h-446v-557zM256 74h498q376 0 376 291q0 290 -378 290h-496v-581zM629 1708
q26 0 42.5 -16.5t16.5 -42.5q0 -25 -16.5 -42.5t-42.5 -17.5t-43 17.5t-17 42.5q0 26 17 42.5t43 16.5z" />
    <glyph glyph-name="uni1E03" unicode="&#x1e03;" horiz-adv-x="1228" 
d="M653 973q214 0 353 -140t139 -358q0 -217 -138.5 -356t-353.5 -139q-151 0 -263 64.5t-167 178.5h-4l-2 -223h-67v1434h75v-691h4q58 108 168.5 169t255.5 61zM645 47q186 0 305 120t119 308q0 189 -119 309.5t-305 120.5q-187 0 -306.5 -120.5t-119.5 -309.5
q0 -188 119.5 -308t306.5 -120zM186 1772q26 0 43 -17t17 -43q0 -25 -17 -42t-43 -17t-42.5 17t-16.5 42q0 26 16.5 43t42.5 17z" />
    <glyph glyph-name="uni1E0A" unicode="&#x1e0a;" horiz-adv-x="1488" 
d="M176 1360h510q333 0 527 -182.5t194 -495.5q0 -316 -194 -499t-527 -183h-510v1360zM256 74h428q299 0 471 162.5t172 445.5q0 281 -172 442.5t-471 161.5h-428v-1212zM690 1708q26 0 43 -16.5t17 -42.5q0 -25 -17 -42.5t-43 -17.5t-42.5 17.5t-16.5 42.5q0 26 16.5 42.5
t42.5 16.5z" />
    <glyph glyph-name="uni1E0B" unicode="&#x1e0b;" horiz-adv-x="1226" 
d="M1077 0h-69l-2 219h-5q-56 -112 -167.5 -175.5t-260.5 -63.5q-214 0 -351.5 138.5t-137.5 356.5t137.5 358t351.5 140q145 0 255.5 -61t168.5 -169h4v691h76v-1434zM584 47q185 0 303.5 120.5t118.5 307.5q0 189 -118.5 309.5t-303.5 120.5q-186 0 -305 -120.5
t-119 -309.5q0 -188 119 -308t305 -120zM1040 1772q26 0 43 -17t17 -43q0 -25 -17 -42t-43 -17t-42.5 17t-16.5 42q0 26 16.5 43t42.5 17z" />
    <glyph glyph-name="uni1E1E" unicode="&#x1e1e;" horiz-adv-x="1208" 
d="M256 719h745v-74h-745v-645h-80v1360h973v-74h-893v-567zM629 1708q26 0 42.5 -16.5t16.5 -42.5q0 -25 -16.5 -42.5t-42.5 -17.5t-43 17.5t-17 42.5q0 26 17 42.5t43 16.5z" />
    <glyph glyph-name="uni1E1F" unicode="&#x1e1f;" horiz-adv-x="657" 
d="M492 1454q110 0 176 -39v-76h-6q-27 20 -73 33.5t-93 13.5q-100 0 -152.5 -59.5t-52.5 -173.5v-201h344v-67h-344v-885h-76v885h-195v67h195v201q0 143 72.5 222t204.5 79zM387 1772q26 0 42.5 -17t16.5 -43q0 -25 -16.5 -42t-42.5 -17t-42.5 17t-16.5 42q0 26 16.5 43
t42.5 17z" />
    <glyph glyph-name="uni1E40" unicode="&#x1e40;" horiz-adv-x="1892" 
d="M1716 0h-80v1276h-4l-657 -1276h-66l-651 1268h-4v-1268h-78v1360h123l643 -1254h4l645 1254h125v-1360zM946 1708q26 0 43 -16.5t17 -42.5q0 -25 -17 -42.5t-43 -17.5t-42.5 17.5t-16.5 42.5q0 26 16.5 42.5t42.5 16.5z" />
    <glyph glyph-name="uni1E41" unicode="&#x1e41;" horiz-adv-x="1767" 
d="M1276 973q180 0 274.5 -108t94.5 -314v-551h-76v549q0 174 -77 265t-226 91q-160 0 -246 -105.5t-86 -301.5v-498h-76v549q0 174 -77 265t-226 91q-160 0 -245 -105t-85 -300v-500h-75v952h67l2 -192h4q87 213 342 213q135 0 222.5 -64.5t121.5 -187.5h4
q38 123 130.5 187.5t232.5 64.5zM897 1317q26 0 42.5 -17t16.5 -43q0 -25 -16.5 -42t-42.5 -17t-42.5 17t-16.5 42q0 26 16.5 43t42.5 17z" />
    <glyph glyph-name="uni1E56" unicode="&#x1e56;" horiz-adv-x="1273" 
d="M176 1360h572q226 0 341 -102t115 -302t-115 -301.5t-341 -101.5h-492v-553h-80v1360zM256 627h489q379 0 379 329q0 330 -379 330h-489v-659zM651 1708q26 0 43 -16.5t17 -42.5q0 -25 -17 -42.5t-43 -17.5t-42.5 17.5t-16.5 42.5q0 26 16.5 42.5t42.5 16.5z" />
    <glyph glyph-name="uni1E57" unicode="&#x1e57;" horiz-adv-x="1228" 
d="M653 973q214 0 353 -140t139 -358q0 -217 -138.5 -356t-353.5 -139q-146 0 -256 61t-168 168h-4v-598h-75v1341h67l2 -223h4q55 114 167.5 179t262.5 65zM645 47q186 0 305 120t119 308q0 189 -119 309.5t-305 120.5q-187 0 -306.5 -120.5t-119.5 -309.5
q0 -188 119.5 -308t306.5 -120zM647 1315q26 0 43 -17t17 -43q0 -25 -17 -42t-43 -17t-42.5 17t-16.5 42q0 26 16.5 43t42.5 17z" />
    <glyph glyph-name="uni1E60" unicode="&#x1e60;" horiz-adv-x="1169" 
d="M580 1380q146 0 263.5 -35.5t184.5 -99.5v-94h-6q-68 75 -182 115.5t-260 40.5q-178 0 -289 -85.5t-111 -222.5q0 -84 38.5 -135.5t128.5 -82.5t247 -46q187 -18 295.5 -62t155.5 -119t47 -194q0 -177 -132.5 -278.5t-361.5 -101.5q-164 0 -297.5 41.5t-218.5 119.5v97h6
q179 -185 514 -185q192 0 302 82t110 225q0 137 -97.5 204.5t-341.5 90.5q-262 24 -367.5 103t-105.5 241q0 169 133 275t345 106zM582 1708q26 0 42.5 -16.5t16.5 -42.5q0 -25 -16.5 -42.5t-42.5 -17.5t-43 17.5t-17 42.5q0 26 17 42.5t43 16.5z" />
    <glyph glyph-name="uni1E61" unicode="&#x1e61;" horiz-adv-x="872" 
d="M434 973q214 0 320 -86v-84h-6q-94 102 -314 102q-121 0 -196.5 -60t-75.5 -157q0 -83 63.5 -121t220.5 -45q195 -9 277 -70t82 -190q0 -128 -98 -205t-261 -77q-243 0 -366 114v90h6q113 -137 358 -137q134 0 211.5 57.5t77.5 157.5q0 92 -67.5 135t-233.5 52
q-190 10 -266 64.5t-76 172.5q0 126 96 206.5t248 80.5zM434 1317q26 0 43 -17t17 -43q0 -25 -17 -42t-43 -17t-42.5 17t-16.5 42q0 26 16.5 43t42.5 17z" />
    <glyph glyph-name="uni1E6A" unicode="&#x1e6a;" horiz-adv-x="1169" 
d="M627 1286v-1286h-80v1286h-496v74h1067v-74h-491zM586 1708q26 0 42.5 -16.5t16.5 -42.5q0 -25 -16.5 -42.5t-42.5 -17.5t-43 17.5t-17 42.5q0 26 17 42.5t43 16.5z" />
    <glyph glyph-name="uni1E6B" unicode="&#x1e6b;" horiz-adv-x="716" 
d="M639 100v-82q-56 -38 -156 -38q-126 0 -197 77t-71 215v613h-195v67h197l19 252h55v-252h344v-67h-344v-611q0 -106 52 -166.5t144 -60.5q93 0 146 53h6zM258 1556q26 0 42.5 -16.5t16.5 -42.5q0 -25 -16.5 -42t-42.5 -17t-42.5 17t-16.5 42q0 26 16.5 42.5t42.5 16.5z
" />
    <glyph glyph-name="Wgrave" unicode="&#x1e80;" horiz-adv-x="2045" 
d="M1526 0h-78l-422 1219h-4l-424 -1219h-78l-469 1360h86l422 -1227h4l424 1227h72l428 -1231h4l420 1231h84zM1004 1503l-248 305h86l233 -305h-71z" />
    <glyph glyph-name="wgrave" unicode="&#x1e81;" horiz-adv-x="1525" 
d="M1151 0h-74l-311 825h-4l-313 -825h-72l-357 952h84l308 -841h4l317 841h66l315 -839h4l309 839h78zM743 1112l-247 305h86l233 -305h-72z" />
    <glyph glyph-name="Wacute" unicode="&#x1e82;" horiz-adv-x="2045" 
d="M1526 0h-78l-422 1219h-4l-424 -1219h-78l-469 1360h86l422 -1227h4l424 1227h72l428 -1231h4l420 1231h84zM969 1503l233 305h86l-248 -305h-71z" />
    <glyph glyph-name="wacute" unicode="&#x1e83;" horiz-adv-x="1525" 
d="M1151 0h-74l-311 825h-4l-313 -825h-72l-357 952h84l308 -841h4l317 841h66l315 -839h4l309 839h78zM709 1112l233 305h86l-248 -305h-71z" />
    <glyph glyph-name="Wdieresis" unicode="&#x1e84;" horiz-adv-x="2045" 
d="M1526 0h-78l-422 1219h-4l-424 -1219h-78l-469 1360h86l422 -1227h4l424 1227h72l428 -1231h4l420 1231h84zM840 1708q25 0 41 -17t16 -42t-16 -41.5t-41 -16.5q-27 0 -44.5 16.5t-17.5 41.5t17.5 42t44.5 17zM1208 1708q27 0 44.5 -17t17.5 -42t-17.5 -41.5t-44.5 -16.5
q-25 0 -41 16.5t-16 41.5t16 42t41 17z" />
    <glyph glyph-name="wdieresis" unicode="&#x1e85;" horiz-adv-x="1525" 
d="M1151 0h-74l-311 825h-4l-313 -825h-72l-357 952h84l308 -841h4l317 841h66l315 -839h4l309 839h78zM580 1317q24 0 40.5 -17.5t16.5 -42.5t-16 -41t-41 -16q-28 0 -45 16t-17 41t17.5 42.5t44.5 17.5zM948 1317q27 0 44.5 -17.5t17.5 -42.5t-17 -41t-45 -16
q-25 0 -41 16t-16 41t16.5 42.5t40.5 17.5z" />
    <glyph glyph-name="Ygrave" unicode="&#x1ef2;" horiz-adv-x="1325" 
d="M707 0h-80v618l-602 742h104l539 -670l532 670h100l-593 -735v-625zM641 1503l-248 305h86l234 -305h-72z" />
    <glyph glyph-name="ygrave" unicode="&#x1ef3;" horiz-adv-x="991" 
d="M324 -389h-78l213 434l-439 907h84l392 -819h4l393 819h78zM477 1112l-248 305h86l234 -305h-72z" />
    <glyph glyph-name="uni2007" unicode="&#x2007;" horiz-adv-x="1331" 
 />
    <glyph glyph-name="figuredash" unicode="&#x2012;" horiz-adv-x="1331" 
d="M102 647v68h1127v-68h-1127z" />
    <glyph glyph-name="endash" unicode="&#x2013;" horiz-adv-x="1024" 
d="M102 522v68h820v-68h-820z" />
    <glyph glyph-name="emdash" unicode="&#x2014;" horiz-adv-x="2048" 
d="M102 522v68h1844v-68h-1844z" />
    <glyph glyph-name="quoteleft" unicode="&#x2018;" horiz-adv-x="462" 
d="M131 971l143 389h62l-127 -389h-78z" />
    <glyph glyph-name="quoteright" unicode="&#x2019;" horiz-adv-x="462" 
d="M332 1360l-144 -389h-61l127 389h78z" />
    <glyph glyph-name="quotesinglbase" unicode="&#x201a;" horiz-adv-x="462" 
d="M289 88l-144 -389h-61l127 389h78z" />
    <glyph glyph-name="quotedblleft" unicode="&#x201c;" horiz-adv-x="774" 
d="M131 971l143 389h62l-127 -389h-78zM442 971l144 389h61l-127 -389h-78z" />
    <glyph glyph-name="quotedblright" unicode="&#x201d;" horiz-adv-x="792" 
d="M332 1360l-144 -389h-61l127 389h78zM643 1360l-143 -389h-62l127 389h78z" />
    <glyph glyph-name="quotedblbase" unicode="&#x201e;" horiz-adv-x="774" 
d="M600 88l-143 -389h-62l127 389h78zM289 88l-144 -389h-61l127 389h78z" />
    <glyph glyph-name="dagger" unicode="&#x2020;" horiz-adv-x="1005" 
d="M539 1004v-809h-70v809h-352v63h352v367h70v-367h352v-63h-352z" />
    <glyph glyph-name="daggerdbl" unicode="&#x2021;" horiz-adv-x="1005" 
d="M539 625h352v-64h-352v-366h-70v366h-352v64h352v379h-352v63h352v367h70v-367h352v-63h-352v-379z" />
    <glyph glyph-name="bullet" unicode="&#x2022;" horiz-adv-x="1024" 
d="M512 831q119 0 196.5 -78t77.5 -198q0 -119 -78 -196.5t-196 -77.5t-196 77.5t-78 196.5q0 120 77.5 198t196.5 78z" />
    <glyph glyph-name="ellipsis" unicode="&#x2026;" horiz-adv-x="2048" 
d="M1651 109q28 0 46.5 -18t18.5 -46t-18.5 -46.5t-46.5 -18.5t-46 18.5t-18 46.5t18 46t46 18zM1024 109q28 0 47 -18t19 -46t-19 -46.5t-47 -18.5t-45.5 18.5t-17.5 46.5t17.5 46t45.5 18zM395 109q28 0 47 -18t19 -46t-19 -46.5t-47 -18.5t-45.5 18.5t-17.5 46.5t17.5 46
t45.5 18z" />
    <glyph glyph-name="perthousand" unicode="&#x2030;" horiz-adv-x="2248" 
d="M1870 653q141 0 222 -90.5t81 -247.5q0 -155 -81 -245t-222 -90t-222 90t-81 245q0 157 81 247.5t222 90.5zM1870 590q-111 0 -172.5 -72t-61.5 -203q0 -130 61.5 -201t172.5 -71t172 71t61 201q0 132 -61 203.5t-172 71.5zM379 1380q141 0 222 -90.5t81 -247.5
q0 -155 -81 -245t-222 -90t-222 90t-81 245q0 157 81 247.5t222 90.5zM291 0l876 1360h78l-876 -1360h-78zM379 1317q-111 0 -172.5 -72t-61.5 -203q0 -130 61.5 -201t172.5 -71t172 71t61 201q0 132 -61 203.5t-172 71.5zM1157 653q141 0 222 -90.5t81 -247.5
q0 -155 -81 -245t-222 -90t-222 90t-81 245q0 157 81 247.5t222 90.5zM1157 590q-111 0 -172 -71.5t-61 -203.5q0 -130 61 -201t172 -71t172.5 71t61.5 201q0 131 -61.5 203t-172.5 72z" />
    <glyph glyph-name="guilsinglleft" unicode="&#x2039;" horiz-adv-x="577" 
d="M465 152v-91l-393 412v6l393 412v-90l-311 -326z" />
    <glyph glyph-name="guilsinglright" unicode="&#x203a;" horiz-adv-x="577" 
d="M113 801v90l393 -412v-6l-393 -412v91l311 325z" />
    <glyph glyph-name="fraction" unicode="&#x2044;" horiz-adv-x="294" 
d="M-330 0l881 1360h74l-881 -1360h-74z" />
    <glyph glyph-name="zerosuperior" unicode="&#x2070;" 
d="M420 1647q158 0 246 -114t88 -319t-88 -318.5t-246 -113.5t-246 113.5t-88 318.5t88 319t246 114zM420 1587q-129 0 -198.5 -96.5t-69.5 -276.5t69.5 -276t198.5 -96t198.5 96t69.5 276t-69.5 276.5t-198.5 96.5z" />
    <glyph glyph-name="foursuperior" unicode="&#x2074;" 
d="M670 795h-66v182h-514v57l512 600h68v-598h125v-59h-125v-182zM168 1036h436v510z" />
    <glyph glyph-name="fivesuperior" unicode="&#x2075;" 
d="M422 1331q148 0 229.5 -70.5t81.5 -199.5t-86 -204t-235 -75q-95 0 -171.5 25.5t-119.5 71.5v73h6q43 -52 117 -81t166 -29q123 0 190.5 58t67.5 161t-68 157t-197 54t-247 -66h-6v428h530v-59h-469v-285q93 41 211 41z" />
    <glyph glyph-name="sixsuperior" unicode="&#x2076;" 
d="M461 1329q131 0 211 -73t80 -193q0 -127 -83 -204t-218 -77q-166 0 -258.5 107.5t-92.5 302.5q0 217 97 336t274 119q142 0 217 -62v-74h-6q-76 76 -207 76q-146 0 -226 -98.5t-83 -284.5h4q50 59 126 92t165 33zM449 842q107 0 172 60.5t65 160.5q0 95 -64 151t-171 56
q-91 0 -167 -43t-114 -117q12 -125 86.5 -196.5t192.5 -71.5z" />
    <glyph glyph-name="sevensuperior" unicode="&#x2077;" 
d="M260 795h-76l527 780h-578v59h645v-65z" />
    <glyph glyph-name="eightsuperior" unicode="&#x2078;" 
d="M580 1233v-4q176 -51 176 -213q0 -110 -89.5 -172t-246.5 -62t-246.5 62t-89.5 172q0 160 178 207v4q-153 47 -153 196q0 106 82.5 165t228.5 59q145 0 228 -59.5t83 -164.5q0 -145 -151 -190zM174 1419q0 -80 63 -122t183 -42t183 42t63 122q0 79 -64.5 123.5
t-181.5 44.5t-181.5 -44.5t-64.5 -123.5zM420 842q129 0 199.5 47t70.5 133q0 85 -69.5 129.5t-200.5 44.5t-200.5 -44.5t-69.5 -129.5q0 -86 70.5 -133t199.5 -47z" />
    <glyph glyph-name="ninesuperior" unicode="&#x2079;" 
d="M389 1647q166 0 258 -107.5t92 -302.5q0 -217 -96.5 -336t-273.5 -119q-142 0 -217 62v74h6q76 -76 207 -76q146 0 226 98.5t83 284.5h-4q-50 -59 -126 -92t-165 -33q-131 0 -211 73t-80 193q0 127 83 204t218 77zM389 1159q91 0 167 43t114 117q-12 125 -86.5 196.5
t-192.5 71.5q-107 0 -172 -60.5t-65 -160.5q0 -95 64 -151t171 -56z" />
    <glyph glyph-name="zeroinferior" unicode="&#x2080;" 
d="M420 463q158 0 246 -113.5t88 -318.5t-88 -318.5t-246 -113.5t-246 113.5t-88 318.5t88 318.5t246 113.5zM420 403q-129 0 -198.5 -96t-69.5 -276t69.5 -276.5t198.5 -96.5t198.5 96.5t69.5 276.5t-69.5 276t-198.5 96z" />
    <glyph glyph-name="oneinferior" unicode="&#x2081;" 
d="M518 -389v758l-231 -152v70l248 164h49v-840h-66z" />
    <glyph glyph-name="twoinferior" unicode="&#x2082;" 
d="M705 -330v-59h-568v65l152 119q205 164 277.5 251.5t72.5 170.5q0 90 -58.5 138t-168.5 48q-148 0 -256 -108h-6v74q52 44 121.5 69t140.5 25q141 0 217 -62.5t76 -179.5q0 -100 -76 -194.5t-295 -268.5l-107 -84v-4h478z" />
    <glyph glyph-name="threeinferior" unicode="&#x2083;" 
d="M569 47v-4q164 -45 164 -209q0 -111 -83 -173t-232 -62q-91 0 -166.5 26t-116.5 72v76h6q41 -54 114.5 -84.5t162.5 -30.5q119 0 184.5 47.5t65.5 134.5q0 83 -60.5 127.5t-173.5 44.5h-137v60h119q235 0 235 161q0 82 -62 126t-177 44q-151 0 -254 -106h-6v74
q44 42 115.5 67t148.5 25q141 0 221 -59t80 -164q0 -72 -38.5 -121.5t-109.5 -71.5z" />
    <glyph glyph-name="fourinferior" unicode="&#x2084;" 
d="M670 -389h-66v182h-514v57l512 601h68v-598h125v-60h-125v-182zM168 -147h436v509z" />
    <glyph glyph-name="fiveinferior" unicode="&#x2085;" 
d="M422 147q148 0 229.5 -70.5t81.5 -199.5t-86 -203.5t-235 -74.5q-95 0 -171.5 25t-119.5 71v74h6q43 -53 117 -82t166 -29q123 0 190.5 58t67.5 161t-68 157t-197 54q-131 0 -247 -65h-6v428h530v-60h-469v-285q93 41 211 41z" />
    <glyph glyph-name="sixinferior" unicode="&#x2086;" 
d="M461 145q131 0 211 -73t80 -193q0 -127 -83 -203.5t-218 -76.5q-166 0 -258.5 107t-92.5 302q0 217 97 336t274 119q142 0 217 -62v-73h-6q-75 75 -207 75q-146 0 -226 -98.5t-83 -284.5h4q50 59 126 92t165 33zM449 -342q107 0 172 60.5t65 160.5q0 95 -64 151t-171 56
q-91 0 -167 -43t-114 -117q12 -125 86.5 -196.5t192.5 -71.5z" />
    <glyph glyph-name="seveninferior" unicode="&#x2087;" 
d="M260 -389h-76l527 780h-578v60h645v-66z" />
    <glyph glyph-name="eightinferior" unicode="&#x2088;" 
d="M580 49v-4q176 -51 176 -213q0 -110 -89.5 -171.5t-246.5 -61.5t-246.5 61.5t-89.5 171.5q0 160 178 207v4q-153 47 -153 197q0 106 82 164.5t229 58.5q145 0 228 -59t83 -164q0 -146 -151 -191zM174 236q0 -80 63 -122t183 -42t183 42t63 122q0 79 -64 123t-182 44
t-182 -44t-64 -123zM420 -342q129 0 199.5 47t70.5 133q0 85 -69.5 129.5t-200.5 44.5t-200.5 -44.5t-69.5 -129.5q0 -86 70.5 -133t199.5 -47z" />
    <glyph glyph-name="nineinferior" unicode="&#x2089;" 
d="M389 463q166 0 258 -107.5t92 -302.5q0 -217 -96.5 -335.5t-273.5 -118.5q-143 0 -217 61v74h6q76 -76 207 -76q146 0 226 98.5t83 284.5h-4q-50 -59 -126 -92t-165 -33q-131 0 -211 73t-80 193q0 127 83 204t218 77zM389 -25q91 0 167 43t114 117q-12 125 -86.5 196.5
t-192.5 71.5q-107 0 -172 -60.5t-65 -160.5q0 -95 64 -151t171 -56z" />
    <glyph glyph-name="Euro" unicode="&#x20ac;" horiz-adv-x="1331" 
d="M852 1311q-198 0 -330.5 -111.5t-177.5 -310.5h715v-68h-727q-10 -75 -10 -141q0 -71 8 -123h729v-68h-719q41 -208 175 -324t337 -116q221 0 338 123h6v-90q-56 -48 -147.5 -75t-200.5 -27q-234 0 -389 134.5t-199 374.5h-154v68h144q-6 59 -6 123q0 81 8 141h-146v68
h158q47 231 201 361t383 130q109 0 200.5 -27t147.5 -75v-90h-6q-117 123 -338 123z" />
    <glyph glyph-name="uni20B9" unicode="&#x20b9;" horiz-adv-x="1331" 
d="M838 1296v-4q151 -80 163 -270h207v-64h-204q-11 -166 -124.5 -253t-322.5 -87h-137v-4l725 -614h-107l-737 629v57h246q184 0 278 66t103 206h-787v64h785q-9 139 -102.5 204.5t-276.5 65.5h-406v68h1067v-64h-370z" />
    <glyph glyph-name="uni2113" unicode="&#x2113;" horiz-adv-x="913" 
d="M768 127v-86q-75 -61 -195 -61q-136 0 -210 82t-74 235v61q-56 -41 -142 -92v82q86 51 142 92v654q0 137 64 210.5t182 73.5q109 0 169 -72t60 -202q0 -174 -104 -353.5t-295 -334.5v-109q0 -128 55 -194t158 -66q110 0 184 80h6zM365 1083v-581q154 133 239.5 290
t85.5 312q0 100 -40 153.5t-115 53.5q-83 0 -126.5 -58.5t-43.5 -169.5z" />
    <glyph glyph-name="uni2117" unicode="&#x2117;" horiz-adv-x="1644" 
d="M821 1380q198 0 358.5 -91t251.5 -251t91 -358t-91 -358t-251.5 -251t-358.5 -91t-358 91t-251 251t-91 358t91 358t251 251t358 91zM821 37q179 0 324.5 83t229 230.5t83.5 329.5t-83.5 329.5t-229 230.5t-324.5 83t-324.5 -83t-229 -230.5t-83.5 -329.5t83.5 -329.5
t229 -230.5t324.5 -83zM594 1038h303q122 0 185 -55.5t63 -161.5q0 -108 -62.5 -163.5t-185.5 -55.5h-240v-280h-63v716zM657 659h238q184 0 184 162q0 160 -184 160h-238v-322z" />
    <glyph glyph-name="trademark" unicode="&#x2122;" horiz-adv-x="1554" 
d="M553 1360v-53h-227v-637h-62v637h-227v53h516zM1430 670h-62v616h-4l-287 -618h-55l-285 612h-4v-610h-55v690h90l281 -606h4l282 606h95v-690z" />
    <glyph glyph-name="uni2126" unicode="&#x2126;" horiz-adv-x="1595" 
d="M1475 74v-74h-469v68q195 83 304 242.5t109 371.5q0 275 -173 450t-447 175t-448.5 -175t-174.5 -450q0 -212 109.5 -371.5t304.5 -242.5v-68h-469v74h330v4q-170 94 -262.5 250t-92.5 360q0 201 89.5 358.5t249.5 245.5t364 88q203 0 362.5 -88t248.5 -245.5t89 -358.5
q0 -204 -92 -360t-262 -250v-4h330z" />
    <glyph glyph-name="estimated" unicode="&#x212e;" horiz-adv-x="1677" 
d="M840 1380q150 0 286.5 -55t235.5 -148.5t157 -223.5t58 -273v-16h-1196q-8 0 -8 -9v-385q0 -17 16 -41q86 -98 204.5 -153.5t250.5 -55.5q138 0 261.5 62.5t213.5 171.5h108q-105 -127 -258.5 -200.5t-328.5 -73.5q-150 0 -287 55.5t-235.5 149t-157 223t-58.5 272.5
t58.5 273t157 223.5t235.5 148.5t287 55zM844 1339q-131 0 -248 -54t-207 -150q-16 -24 -16 -45v-377q0 -13 8 -13h917q13 0 13 13v385q0 24 -21 45q-89 92 -205 144t-241 52z" />
    <glyph glyph-name="onethird" unicode="&#x2153;" horiz-adv-x="1974" 
d="M510 0l881 1360h73l-880 -1360h-74zM1704 436v-4q164 -45 164 -209q0 -110 -83.5 -172.5t-232.5 -62.5q-91 0 -166 26t-116 72v76h6q41 -54 114 -84.5t162 -30.5q119 0 184.5 47.5t65.5 134.5q0 83 -60 127.5t-173 44.5h-137v60h118q116 0 176 41.5t60 120.5
q0 82 -62.5 126t-177.5 44q-150 0 -254 -107h-6v74q44 42 115.5 67t148.5 25q141 0 221 -59t80 -164q0 -72 -38 -121.5t-109 -71.5zM518 520v758l-231 -152v70l248 164h49v-840h-66z" />
    <glyph glyph-name="twothirds" unicode="&#x2154;" horiz-adv-x="1974" 
d="M541 0l880 1360h74l-881 -1360h-73zM1704 436v-4q164 -45 164 -209q0 -110 -83.5 -172.5t-232.5 -62.5q-91 0 -166 26t-116 72v76h6q41 -54 114 -84.5t162 -30.5q119 0 184.5 47.5t65.5 134.5q0 83 -60 127.5t-173 44.5h-137v60h118q116 0 176 41.5t60 120.5
q0 82 -62.5 126t-177.5 44q-150 0 -254 -107h-6v74q44 42 115.5 67t148.5 25q141 0 221 -59t80 -164q0 -72 -38 -121.5t-109 -71.5zM705 580v-60h-568v66l152 119q206 164 278 251t72 170q0 90 -58.5 138.5t-168.5 48.5q-147 0 -256 -109h-6v74q52 44 121.5 69t140.5 25
q141 0 217 -62.5t76 -179.5q0 -99 -76 -193.5t-295 -268.5l-107 -84v-4h478z" />
    <glyph glyph-name="oneeighth" unicode="&#x215b;" horiz-adv-x="1974" 
d="M510 0l881 1360h73l-880 -1360h-74zM1714 438v-4q176 -51 176 -213q0 -110 -89.5 -171.5t-246.5 -61.5t-246 61.5t-89 171.5q0 160 178 207v4q-154 48 -154 197q0 106 82 164.5t229 58.5q146 0 229 -59t83 -164q0 -146 -152 -191zM1309 625q0 -80 62.5 -122t182.5 -42
t183 42t63 122q0 79 -64.5 123.5t-181.5 44.5t-181 -44.5t-64 -123.5zM1554 47q129 0 200 47t71 133q0 85 -70 129.5t-201 44.5t-200.5 -44.5t-69.5 -129.5q0 -86 70.5 -133t199.5 -47zM518 520v758l-231 -152v70l248 164h49v-840h-66z" />
    <glyph glyph-name="threeeighths" unicode="&#x215c;" horiz-adv-x="1974" 
d="M520 0l881 1360h74l-881 -1360h-74zM1714 438v-4q176 -51 176 -213q0 -110 -89.5 -171.5t-246.5 -61.5t-246 61.5t-89 171.5q0 160 178 207v4q-154 48 -154 197q0 106 82 164.5t229 58.5q146 0 229 -59t83 -164q0 -146 -152 -191zM1309 625q0 -80 62.5 -122t182.5 -42
t183 42t63 122q0 79 -64.5 123.5t-181.5 44.5t-181 -44.5t-64 -123.5zM1554 47q129 0 200 47t71 133q0 85 -70 129.5t-201 44.5t-200.5 -44.5t-69.5 -129.5q0 -86 70.5 -133t199.5 -47zM569 956v-4q164 -45 164 -209q0 -111 -83 -173t-232 -62q-91 0 -166.5 26t-116.5 72v76
h6q41 -54 114.5 -84.5t162.5 -30.5q119 0 184.5 47.5t65.5 135.5q0 83 -60.5 127.5t-173.5 44.5h-137v59h119q115 0 175 41t60 121q0 82 -62 126t-177 44q-150 0 -254 -107h-6v74q44 42 115.5 67t148.5 25q141 0 221 -59t80 -164q0 -72 -38.5 -121.5t-109.5 -71.5z" />
    <glyph glyph-name="fiveeighths" unicode="&#x215d;" horiz-adv-x="1974" 
d="M520 0l881 1360h74l-881 -1360h-74zM1714 438v-4q176 -51 176 -213q0 -110 -89.5 -171.5t-246.5 -61.5t-246 61.5t-89 171.5q0 160 178 207v4q-154 48 -154 197q0 106 82 164.5t229 58.5q146 0 229 -59t83 -164q0 -146 -152 -191zM1309 625q0 -80 62.5 -122t182.5 -42
t183 42t63 122q0 79 -64.5 123.5t-181.5 44.5t-181 -44.5t-64 -123.5zM1554 47q129 0 200 47t71 133q0 85 -70 129.5t-201 44.5t-200.5 -44.5t-69.5 -129.5q0 -86 70.5 -133t199.5 -47zM422 1057q148 0 229.5 -71t81.5 -200t-86 -203.5t-235 -74.5q-95 0 -171.5 25
t-119.5 71v74h6q43 -53 117 -82t166 -29q123 0 190.5 58t67.5 161t-68 157t-197 54q-131 0 -247 -65h-6v428h530v-60h-469v-284q93 41 211 41z" />
    <glyph glyph-name="seveneighths" unicode="&#x215e;" horiz-adv-x="1974" 
d="M410 0l880 1360h74l-881 -1360h-73zM1714 438v-4q176 -51 176 -213q0 -110 -89.5 -171.5t-246.5 -61.5t-246 61.5t-89 171.5q0 160 178 207v4q-154 48 -154 197q0 106 82 164.5t229 58.5q146 0 229 -59t83 -164q0 -146 -152 -191zM1309 625q0 -80 62.5 -122t182.5 -42
t183 42t63 122q0 79 -64.5 123.5t-181.5 44.5t-181 -44.5t-64 -123.5zM1554 47q129 0 200 47t71 133q0 85 -70 129.5t-201 44.5t-200.5 -44.5t-69.5 -129.5q0 -86 70.5 -133t199.5 -47zM260 520h-76l527 780h-578v60h645v-66z" />
    <glyph glyph-name="partialdiff" unicode="&#x2202;" horiz-adv-x="1216" 
d="M641 1454q218 0 341.5 -150.5t123.5 -416.5q0 -258 -81.5 -466t-225 -324.5t-322.5 -116.5q-166 0 -274.5 111.5t-108.5 283.5q0 154 67 283.5t183 204.5t254 75q133 0 241.5 -67t170.5 -185h4q14 110 14 203q0 235 -103.5 365t-289.5 130q-178 0 -299 -112h-6v84
q128 98 311 98zM479 49q182 0 320 146t196 389q-53 131 -157.5 207.5t-231.5 76.5q-183 0 -308.5 -142t-125.5 -351q0 -142 86.5 -234t220.5 -92z" />
    <glyph glyph-name="uni2206" unicode="&#x2206;" horiz-adv-x="1458" 
d="M39 0l653 1360h74l653 -1360h-1380zM1294 74l-565 1186h-4l-565 -1186h1134z" />
    <glyph glyph-name="product" unicode="&#x220f;" horiz-adv-x="1417" 
d="M1247 -266h-80v1552h-917v-1552h-80v1626h1077v-1626z" />
    <glyph glyph-name="summation" unicode="&#x2211;" horiz-adv-x="1157" 
d="M201 1286l592 -739l-592 -740h911v-73h-1018v67l594 746l-594 745v68h1018v-74h-911z" />
    <glyph glyph-name="minus" unicode="&#x2212;" horiz-adv-x="1331" 
d="M111 582v67h1110v-67h-1110z" />
    <glyph glyph-name="uni2219" unicode="&#x2219;" horiz-adv-x="462" 
d="M231 743q28 0 47 -18t19 -45q0 -28 -19 -47t-47 -19q-27 0 -45 19t-18 47t17.5 45.5t45.5 17.5z" />
    <glyph glyph-name="radical" unicode="&#x221a;" horiz-adv-x="1032" 
d="M553 -143h-78l-235 518h-148v67h199l213 -477h4l410 1436h77z" />
    <glyph glyph-name="infinity" unicode="&#x221e;" horiz-adv-x="1411" 
d="M1030 979q125 0 202 -83t77 -216t-78.5 -216t-204.5 -83q-98 0 -174 55t-147 180h-5q-68 -124 -144.5 -179.5t-176.5 -55.5q-125 0 -202 83t-77 216t78.5 216t204.5 83q97 0 172 -54.5t150 -181.5h4q71 126 146.5 181t174.5 55zM391 444q83 0 148 53t133 179
q-76 132 -144 185.5t-155 53.5q-92 0 -147.5 -64t-55.5 -171t60 -171.5t161 -64.5zM1038 444q94 0 149.5 64.5t55.5 171.5t-61 171t-162 64q-83 0 -147 -52.5t-134 -178.5q74 -132 142 -186t157 -54z" />
    <glyph glyph-name="integral" unicode="&#x222b;" horiz-adv-x="751" 
d="M549 1454q100 0 158 -49v-82h-7q-48 63 -145 63q-72 0 -106.5 -44t-34.5 -136v-1372q0 -244 -211 -244q-98 0 -158 50v81h6q45 -63 144 -63q73 0 108 44t35 136v1372q0 244 211 244z" />
    <glyph glyph-name="approxequal" unicode="&#x2248;" horiz-adv-x="1331" 
d="M1178 989l57 -35q-144 -237 -320 -237q-64 0 -126 25t-144 85q-73 53 -124 75t-101 22q-73 0 -137 -49.5t-129 -155.5l-58 35q144 237 320 237q63 0 124.5 -24.5t147.5 -85.5q74 -53 124 -75t99 -22q74 0 137.5 49t129.5 156zM1178 510l57 -35q-144 -237 -320 -237
q-64 0 -126 25t-144 85q-72 53 -123.5 74.5t-101.5 21.5q-73 0 -137 -49t-129 -155l-58 34q145 238 320 238q63 0 124.5 -24.5t147.5 -86.5q74 -53 124 -74.5t99 -21.5q74 0 137.5 49t129.5 156z" />
    <glyph glyph-name="notequal" unicode="&#x2260;" horiz-adv-x="1331" 
d="M573 391h627v-67h-674l-204 -306h-74l205 306h-322v67h369l299 447h-668v67h715l205 305h73l-204 -305h280v-67h-328z" />
    <glyph glyph-name="lessequal" unicode="&#x2264;" horiz-adv-x="1331" 
d="M1180 330v-76l-1028 426v51l1028 426v-74l-924 -376zM1180 0h-1028v68h1028v-68z" />
    <glyph glyph-name="greaterequal" unicode="&#x2265;" horiz-adv-x="1331" 
d="M152 254v76l923 377l-923 376v74l1028 -426v-51zM1180 0h-1028v68h1028v-68z" />
    <glyph glyph-name="lozenge" unicode="&#x25ca;" horiz-adv-x="1200" 
d="M571 0l-469 680l469 680h58l469 -680l-469 -680h-58zM186 680l414 -600l414 600l-414 600z" />
    <glyph glyph-name="uniE069" unicode="&#xe069;" horiz-adv-x="374" 
d="M186 1317q26 0 43 -17t17 -43q0 -25 -17 -42t-43 -17q-25 0 -42 17t-17 42q0 26 17 43t42 17zM150 0v952h75v-952h-75z" />
    <glyph glyph-name="uniEF01" unicode="&#xef01;" horiz-adv-x="1024" 
d="M252 -430l223 293h84l-235 -293h-72z" />
    <glyph glyph-name="uniEF02" unicode="&#xef02;" horiz-adv-x="1024" 
d="M442 1085l68 349h74l-84 -349h-58z" />
    <glyph glyph-name="uniF8FF" unicode="&#xf8ff;" horiz-adv-x="2048" 
d="M899 430v107h-2l-35 -160h-47l57 258h58l-2 -135h2l57 135h64l-58 -258h-49l35 160h-2l-45 -107h-33zM287 584l-35 -158q-8 -26 -19.5 -37.5t-31.5 -11.5h-95l58 258h88q37 0 37 -31q0 -8 -2 -20zM600 377h-49l12 53h-35l-14 -53h-49l47 211q9 47 53 47h45q37 0 37 -31
q0 -8 -2 -20zM1167 377h-49l12 53h-34l-15 -53h-49l47 211q9 47 54 47h45q36 0 36 -31q0 -8 -2 -20zM821 584l-22 -107q-8 -35 -27 -41l12 -59h-47l-8 53h-27l-12 -53h-49l57 258h88q37 0 37 -31q0 -8 -2 -20zM1731 584l-25 -109q-9 -45 -49 -45h-45l-13 -53h-49l58 258h88
q37 0 37 -31q0 -8 -2 -20zM477 635l-57 -258h-49l12 53h-37l-12 -53h-49l57 258h49l-37 -166h37l37 166h49zM1440 635h49l-35 -154q-1 -7 0.5 -9.5t7.5 -2.5h15q9 0 12 8l35 158h49l-35 -160q-9 -45 -49 -45l-29 -53h-49l29 53q-37 0 -37 31q0 10 2 20zM1845 496l-8 -39h-53
l-8 -41h67l-10 -39h-115l58 258h116l-10 -39h-65l-23 -100h51zM1374 596l-49 -219h-49l49 219h-39l8 39h125l-8 -39h-37zM205 596l-41 -180h26q10 0 13 10l35 158q2 12 -7 12h-26zM1659 477l22 107q1 7 -0.5 9.5t-7.5 2.5h-24l-29 -127h27q9 0 12 8zM750 477l22 107
q1 7 -0.5 9.5t-7.5 2.5h-25l-28 -127h26q10 0 13 8zM1155 596h-14q-11 0 -13 -10l-26 -117h37l24 115q1 7 -0.5 9.5t-7.5 2.5zM588 596h-15q-9 0 -12 -10l-26 -117h36l25 115q1 7 -0.5 9.5t-7.5 2.5zM2021 682v-61h-12v51h-2l-14 -41h-8l-15 41h-2v-51h-10v61h20l11 -33h2
l10 33h20zM1950 682v-10h-19v-51h-12v51h-16v10h47z" />
    <glyph glyph-name="zero.numr" 
d="M420 1372q158 0 246 -113.5t88 -318.5t-88 -318.5t-246 -113.5t-246 113.5t-88 318.5t88 318.5t246 113.5zM420 1313q-129 0 -198.5 -96.5t-69.5 -276.5t69.5 -276.5t198.5 -96.5t198.5 96.5t69.5 276.5t-69.5 276.5t-198.5 96.5z" />
    <glyph glyph-name="one.numr" 
d="M518 520v758l-231 -152v70l248 164h49v-840h-66z" />
    <glyph glyph-name="two.numr" 
d="M705 580v-60h-568v66l152 119q206 164 278 251t72 170q0 90 -58.5 138.5t-168.5 48.5q-147 0 -256 -109h-6v74q52 44 121.5 69t140.5 25q141 0 217 -62.5t76 -179.5q0 -99 -76 -193.5t-295 -268.5l-107 -84v-4h478z" />
    <glyph glyph-name="three.numr" 
d="M569 956v-4q164 -45 164 -209q0 -111 -83 -173t-232 -62q-91 0 -166.5 26t-116.5 72v76h6q41 -54 114.5 -84.5t162.5 -30.5q119 0 184.5 47.5t65.5 135.5q0 83 -60.5 127.5t-173.5 44.5h-137v59h119q115 0 175 41t60 121q0 82 -62 126t-177 44q-150 0 -254 -107h-6v74
q44 42 115.5 67t148.5 25q141 0 221 -59t80 -164q0 -72 -38.5 -121.5t-109.5 -71.5z" />
    <glyph glyph-name="four.numr" 
d="M670 520h-66v182h-514v58l512 600h68v-598h125v-60h-125v-182zM168 762h436v510z" />
    <glyph glyph-name="five.numr" 
d="M422 1057q148 0 229.5 -71t81.5 -200t-86 -203.5t-235 -74.5q-95 0 -171.5 25t-119.5 71v74h6q43 -53 117 -82t166 -29q123 0 190.5 58t67.5 161t-68 157t-197 54q-131 0 -247 -65h-6v428h530v-60h-469v-284q93 41 211 41z" />
    <glyph glyph-name="six.numr" 
d="M461 1055q131 0 211 -73.5t80 -193.5q0 -127 -83 -203.5t-218 -76.5q-166 0 -258.5 107.5t-92.5 302.5q0 217 97 335.5t274 118.5q143 0 217 -61v-74h-6q-76 76 -207 76q-146 0 -226 -98.5t-83 -284.5h4q50 59 126 92t165 33zM449 567q107 0 172 60.5t65 160.5
q0 95 -64 151t-171 56q-92 0 -167.5 -42.5t-113.5 -116.5q12 -125 86.5 -197t192.5 -72z" />
    <glyph glyph-name="seven.numr" 
d="M260 520h-76l527 780h-578v60h645v-66z" />
    <glyph glyph-name="eight.numr" 
d="M580 958v-4q176 -51 176 -213q0 -110 -89.5 -171.5t-246.5 -61.5t-246.5 61.5t-89.5 171.5q0 160 178 207v4q-153 47 -153 197q0 106 82 164.5t229 58.5q145 0 228 -59t83 -164q0 -146 -151 -191zM174 1145q0 -80 63 -122t183 -42t183 42t63 122q0 79 -64.5 123.5
t-181.5 44.5t-181.5 -44.5t-64.5 -123.5zM420 567q129 0 199.5 47.5t70.5 133.5q0 85 -69.5 129.5t-200.5 44.5t-200.5 -44.5t-69.5 -129.5q0 -86 70.5 -133.5t199.5 -47.5z" />
    <glyph glyph-name="nine.numr" 
d="M389 1372q166 0 258 -107t92 -302q0 -217 -96.5 -336t-273.5 -119q-143 0 -217 61v74h6q76 -76 207 -76q146 0 226 98.5t83 284.5h-4q-50 -59 -126 -92t-165 -33q-131 0 -211 73.5t-80 193.5q0 127 83 203.5t218 76.5zM389 885q92 0 167.5 42.5t113.5 116.5
q-12 125 -86.5 197t-192.5 72q-107 0 -172 -60.5t-65 -160.5q0 -95 64 -151t171 -56z" />
    <glyph glyph-name="zero.dnom" 
d="M420 852q158 0 246 -113.5t88 -318.5t-88 -318.5t-246 -113.5t-246 113.5t-88 318.5t88 318.5t246 113.5zM420 793q-129 0 -198.5 -96.5t-69.5 -276.5t69.5 -276.5t198.5 -96.5t198.5 96.5t69.5 276.5t-69.5 276.5t-198.5 96.5z" />
    <glyph glyph-name="one.dnom" 
d="M518 0v758l-231 -152v70l248 164h49v-840h-66z" />
    <glyph glyph-name="two.dnom" 
d="M705 59v-59h-568v66l152 118q205 164 277.5 251.5t72.5 170.5q0 90 -58.5 138.5t-168.5 48.5q-147 0 -256 -109h-6v74q52 44 121.5 69t140.5 25q141 0 217 -62.5t76 -179.5q0 -100 -76 -194.5t-295 -268.5l-107 -84v-4h478z" />
    <glyph glyph-name="three.dnom" 
d="M569 436v-4q164 -45 164 -209q0 -111 -83 -173t-232 -62q-91 0 -166.5 26t-116.5 72v76h6q41 -54 114.5 -84.5t162.5 -30.5q119 0 184.5 47.5t65.5 134.5q0 83 -60.5 127.5t-173.5 44.5h-137v60h119q115 0 175 41t60 121q0 82 -62 126t-177 44q-150 0 -254 -107h-6v74
q44 42 115.5 67t148.5 25q141 0 221 -59t80 -164q0 -72 -38.5 -121.5t-109.5 -71.5z" />
    <glyph glyph-name="four.dnom" 
d="M670 0h-66v182h-514v58l512 600h68v-598h125v-60h-125v-182zM168 242h436v510z" />
    <glyph glyph-name="five.dnom" 
d="M422 537q148 0 229.5 -71t81.5 -200t-86 -203.5t-235 -74.5q-95 0 -171.5 25t-119.5 71v74h6q43 -53 117 -82t166 -29q123 0 190.5 58t67.5 161t-68 157t-197 54q-131 0 -247 -65h-6v428h530v-60h-469v-284q93 41 211 41z" />
    <glyph glyph-name="six.dnom" 
d="M461 535q131 0 211 -73.5t80 -193.5q0 -127 -83 -203.5t-218 -76.5q-166 0 -258.5 107t-92.5 302q0 217 97 336t274 119q143 0 217 -61v-74h-6q-76 76 -207 76q-146 0 -226 -98.5t-83 -284.5h4q50 59 126 92t165 33zM449 47q107 0 172 60.5t65 160.5q0 95 -64 151
t-171 56q-91 0 -167 -43t-114 -117q12 -125 86.5 -196.5t192.5 -71.5z" />
    <glyph glyph-name="seven.dnom" 
d="M260 0h-76l527 780h-578v60h645v-66z" />
    <glyph glyph-name="eight.dnom" 
d="M580 438v-4q176 -51 176 -213q0 -110 -89.5 -171.5t-246.5 -61.5t-246.5 61.5t-89.5 171.5q0 160 178 207v4q-153 47 -153 197q0 106 82 164.5t229 58.5q145 0 228 -59t83 -164q0 -146 -151 -191zM174 625q0 -80 63 -122t183 -42t183 42t63 122q0 79 -64.5 123.5
t-181.5 44.5t-181.5 -44.5t-64.5 -123.5zM420 47q129 0 199.5 47t70.5 133q0 85 -69.5 129.5t-200.5 44.5t-200.5 -44.5t-69.5 -129.5q0 -86 70.5 -133t199.5 -47z" />
    <glyph glyph-name="nine.dnom" 
d="M389 852q166 0 258 -107.5t92 -302.5q0 -217 -96.5 -335.5t-273.5 -118.5q-143 0 -217 61v74h6q76 -76 207 -76q146 0 226 98.5t83 284.5h-4q-50 -59 -126 -92t-165 -33q-131 0 -211 73t-80 193q0 127 83 204t218 77zM389 365q92 0 167.5 42.5t113.5 116.5
q-12 125 -86.5 197t-192.5 72q-107 0 -172 -61t-65 -161q0 -95 63.5 -150.5t171.5 -55.5z" />
    </font>
</defs>
</svg>
