<?xml version="1.0" standalone="no"?>
<!DOCTYPE svg PUBLIC "-//W3C//DTD SVG 1.1//EN" "http://www.w3.org/Graphics/SVG/1.1/DTD/svg11.dtd" >
<svg xmlns="http://www.w3.org/2000/svg" xmlns:xlink="http://www.w3.org/1999/xlink" version="1.1">
<metadata>
Created by FontForge 20201107 at Tue Nov 25 13:38:38 2025
 By 
Copyright (c) 2014 by Ryoichi Tsunekawa. All rights reserved.
</metadata>
<defs>
<font id="Graphie-ExtraLightItalic" horiz-adv-x="839" >
  <font-face 
    font-family="Graphie ExtraLight"
    font-weight="250"
    font-style="italic"
    font-stretch="normal"
    units-per-em="2048"
    panose-1="2 11 4 3 2 2 4 9 2 4"
    ascent="1536"
    descent="-512"
    x-height="952"
    cap-height="1360"
    bbox="-426 -430 2370 1872"
    underline-thickness="57"
    underline-position="-208"
    slope="-11"
    unicode-range="U+0020-FB03"
  />
<missing-glyph horiz-adv-x="1269" 
d="M1198 0h-1048v1360h1048v-1360zM1049 1276h-750l375 -520zM618 680l-376 524v-1048zM729 680l377 -524v1048zM1049 84l-375 520l-375 -520h750z" />
    <glyph glyph-name="ff" unicode="ff" horiz-adv-x="1220" 
d="M1239 1454q110 0 172 -41l-16 -74h-6q-55 47 -144 47q-104 0 -170 -58.5t-88 -174.5l-39 -201h342l-12 -67h-344l-172 -885h-76l172 885h-487l-172 -885h-76l172 885h-195l13 67h194l37 185q28 142 113.5 219.5t214.5 77.5q110 0 172 -41l-17 -74h-6q-55 47 -143 47
q-104 0 -170 -58.5t-88 -174.5l-35 -181h487l39 205q28 142 113.5 219.5t214.5 77.5z" />
    <glyph glyph-name="fi" unicode="fi" horiz-adv-x="1011" 
d="M770 0h-76l172 885h-495l-172 -885h-76l172 885h-195l13 67h196l39 205q28 142 112 219.5t206 77.5q99 0 161 -41l-16 -74h-6q-23 20 -60 33.5t-73 13.5q-97 0 -162 -59t-86 -174l-39 -201h569zM983 1317q25 0 39 -14t14 -37q0 -28 -19.5 -48t-45.5 -20q-24 0 -38.5 14.5
t-14.5 38.5q0 28 18.5 47t46.5 19z" />
    <glyph glyph-name="ffi" unicode="ffi" horiz-adv-x="1574" 
d="M1518 952l-185 -952h-76l173 885h-496l-172 -885h-76l172 885h-487l-172 -885h-76l172 885h-195l13 67h194l37 185q28 142 113.5 219.5t214.5 77.5q116 0 172 -39l-15 -70h-6q-48 41 -153 41q-100 0 -164 -59.5t-86 -173.5l-35 -181h487l39 205q28 142 112 219.5
t206 77.5q100 0 162 -41l-17 -74h-6q-23 20 -60 33.5t-73 13.5q-97 0 -162 -59t-86 -174l-39 -201h570zM1546 1317q25 0 39 -14t14 -37q0 -28 -19.5 -48t-45.5 -20q-24 0 -38.5 14.5t-14.5 38.5q0 28 18.5 47t46.5 19z" />
    <glyph glyph-name="f_j" unicode="fj" horiz-adv-x="1011" 
d="M954 952l-221 -1138q-23 -120 -74 -172t-143 -52q-55 0 -104 29l14 72h6q37 -33 84 -33q61 0 92.5 36.5t48.5 123.5l209 1067h-495l-172 -885h-76l172 885h-195l13 67h196l39 205q28 142 112 219.5t206 77.5q99 0 161 -41l-16 -74h-6q-23 20 -60 33.5t-73 13.5
q-97 0 -162 -59t-86 -174l-39 -201h569zM983 1317q25 0 39 -14t14 -37q0 -28 -19.5 -48t-45.5 -20q-24 0 -38.5 14.5t-14.5 38.5q0 28 18.5 47t46.5 19z" />
    <glyph glyph-name="f_f_j" unicode="ffj" horiz-adv-x="1574" 
d="M1518 952l-222 -1138q-23 -120 -74 -172t-143 -52q-55 0 -104 29l14 72h6q37 -33 84 -33q61 0 93 36.5t49 123.5l209 1067h-496l-172 -885h-76l172 885h-487l-172 -885h-76l172 885h-195l13 67h194l37 185q28 142 113.5 219.5t214.5 77.5q116 0 172 -39l-15 -70h-6
q-48 41 -153 41q-100 0 -164 -59.5t-86 -173.5l-35 -181h487l39 205q28 142 112 219.5t206 77.5q100 0 162 -41l-17 -74h-6q-23 20 -60 33.5t-73 13.5q-97 0 -162 -59t-86 -174l-39 -201h570zM1546 1317q25 0 39 -14t14 -37q0 -28 -19.5 -48t-45.5 -20q-24 0 -38.5 14.5
t-14.5 38.5q0 28 18.5 47t46.5 19z" />
    <glyph glyph-name=".notdef" horiz-adv-x="1269" 
d="M1198 0h-1048v1360h1048v-1360zM1049 1276h-750l375 -520zM618 680l-376 524v-1048zM729 680l377 -524v1048zM1049 84l-375 520l-375 -520h750z" />
    <glyph glyph-name=".null" horiz-adv-x="0" 
 />
    <glyph glyph-name="nonmarkingreturn" horiz-adv-x="682" 
 />
    <glyph glyph-name="space" unicode=" " horiz-adv-x="450" 
 />
    <glyph glyph-name="exclam" unicode="!" horiz-adv-x="462" 
d="M170 322l190 1038h89l-213 -1038h-66zM156 109q26 0 42.5 -16t16.5 -40q0 -31 -22.5 -52t-51.5 -21q-26 0 -42.5 16t-16.5 41q0 29 22.5 50.5t51.5 21.5z" />
    <glyph glyph-name="quotedbl" unicode="&#x22;" horiz-adv-x="722" 
d="M242 774l106 586h70l-121 -586h-55zM543 774l106 586h70l-121 -586h-55z" />
    <glyph glyph-name="numbersign" unicode="#" horiz-adv-x="1331" 
d="M1198 475l-20 -59h-301l-140 -416h-63l139 416h-395l-139 -416h-64l139 416h-303l21 59h303l143 430h-301l21 60h301l133 395h63l-133 -395h395l133 395h64l-133 -395h303l-21 -60h-303l-143 -430h301zM438 475h396l143 430h-395z" />
    <glyph glyph-name="dollar" unicode="$" horiz-adv-x="1331" 
d="M887 1462l-31 -162q248 -19 356 -120l-16 -82h-6q-97 120 -348 135l-99 -510q213 -15 306.5 -80t93.5 -194q0 -180 -138.5 -287t-371.5 -107h-21l-34 -178h-66l35 180q-142 10 -255.5 50.5t-166.5 99.5l14 80h6q54 -66 163 -109t253 -53l103 534q-216 15 -307 75t-91 181
q0 172 138.5 281t357.5 109h29l30 157h66zM778 1237h-22q-183 0 -297.5 -86.5t-114.5 -224.5q0 -92 76.5 -138t257.5 -59zM1065 438q0 99 -76.5 148.5t-259.5 66.5l-104 -530h20q190 0 305 86t115 229z" />
    <glyph glyph-name="percent" unicode="%" horiz-adv-x="1536" 
d="M530 1380q125 0 198 -69t73 -191q0 -56 -11.5 -111.5t-39 -110.5t-67 -97t-101 -68t-136.5 -26q-125 0 -195.5 71t-70.5 197q0 53 11 106t37 108t65 96.5t100.5 68t136.5 26.5zM197 0l1136 1360h84l-1136 -1360h-84zM528 1317q-61 0 -110.5 -23.5t-80 -60t-51 -84
t-28.5 -91t-8 -85.5q0 -98 52.5 -150.5t148.5 -52.5q61 0 110.5 23.5t80 59.5t51 83t28.5 90.5t8 85.5q0 99 -52.5 152t-148.5 53zM1167 653q125 0 198 -69t73 -191q0 -56 -11.5 -111.5t-39 -110.5t-67 -97t-101 -68t-136.5 -26q-125 0 -195.5 71t-70.5 197q0 53 11 106
t37 108t65 96.5t100.5 68t136.5 26.5zM1165 590q-61 0 -110.5 -23.5t-80 -60t-51 -84t-28.5 -91t-8 -85.5q0 -98 52 -150.5t148 -52.5q75 0 132.5 34.5t87.5 89t44.5 110t14.5 108.5q0 99 -52.5 152t-148.5 53z" />
    <glyph glyph-name="ampersand" unicode="&#x26;" horiz-adv-x="1288" 
d="M1126 743l74 -6q-9 -141 -70.5 -287t-152.5 -243l170 -207h-105l-122 152q-196 -172 -463 -172q-184 0 -290 82t-106 225q0 150 91.5 256t296.5 192l-21 25q-63 78 -90 141t-27 131q0 157 106.5 252.5t280.5 95.5q145 0 230.5 -65.5t85.5 -179.5q0 -140 -99.5 -234.5
t-355.5 -191.5l373 -449q80 92 133.5 225.5t60.5 257.5zM494 788l20 -26q242 87 336 168t94 196q0 85 -67 136t-179 51q-141 0 -225 -78t-84 -207q0 -58 23 -109.5t82 -130.5zM461 47q241 0 416 158l-385 475q-192 -82 -273.5 -170.5t-81.5 -216.5q0 -119 83.5 -182.5
t240.5 -63.5z" />
    <glyph glyph-name="quotesingle" unicode="'" horiz-adv-x="421" 
d="M242 774l106 586h70l-121 -586h-55z" />
    <glyph glyph-name="parenleft" unicode="(" horiz-adv-x="694" 
d="M657 1360h95q-129 -118 -224.5 -247t-152 -259t-84 -257t-27.5 -255q0 -310 178 -551h-82q-170 253 -170 559q0 261 115 525t352 485z" />
    <glyph glyph-name="parenright" unicode=")" horiz-adv-x="694" 
d="M76 -207h-94q170 156 281.5 333.5t158.5 344.5t47 340q0 310 -178 551h82q170 -253 170 -559q0 -261 -115 -525t-352 -485z" />
    <glyph glyph-name="asterisk" unicode="*" horiz-adv-x="915" 
d="M729 696l-164 305l-237 -305l-60 45l267 289l-340 98l32 68l324 -125l31 363h73l-59 -363l354 125l15 -68l-363 -98l193 -289z" />
    <glyph glyph-name="plus" unicode="+" horiz-adv-x="1331" 
d="M721 582l-107 -541h-67l106 541h-542l14 67h541l106 539h68l-107 -539h539l-12 -67h-539z" />
    <glyph glyph-name="comma" unicode="," horiz-adv-x="462" 
d="M-66 -285l201 373h78l-215 -373h-64z" />
    <glyph glyph-name="hyphen" unicode="-" horiz-adv-x="757" 
d="M109 518l14 76h557l-14 -76h-557z" />
    <glyph glyph-name="period" unicode="." horiz-adv-x="462" 
d="M156 109q26 0 42.5 -16.5t16.5 -41.5q0 -30 -22.5 -50.5t-51.5 -20.5q-26 0 -42.5 16t-16.5 41q0 29 22.5 50.5t51.5 21.5z" />
    <glyph glyph-name="slash" unicode="/" horiz-adv-x="815" 
d="M-47 -164l895 1585h74l-897 -1585h-72z" />
    <glyph glyph-name="zero" unicode="0" horiz-adv-x="1331" 
d="M827 1380q218 0 335.5 -126t117.5 -359q0 -117 -23 -238t-76.5 -244t-131.5 -218t-198.5 -155t-266.5 -60q-219 0 -337 126.5t-118 360.5q0 118 23 239.5t77 243.5t132 216.5t199 154t267 59.5zM819 1311q-129 0 -235.5 -56t-174.5 -144t-115 -201.5t-67 -223.5t-20 -215
q0 -203 99 -312.5t282 -109.5q93 0 174.5 29t142.5 79t111 117.5t83.5 143t56.5 157.5t33.5 159t10.5 149q0 206 -98.5 317t-282.5 111z" />
    <glyph glyph-name="one" unicode="1" horiz-adv-x="1331" 
d="M727 0l246 1264l-563 -263l16 84l586 275h57l-264 -1360h-78z" />
    <glyph glyph-name="two" unicode="2" horiz-adv-x="1331" 
d="M1057 70l-13 -70h-935l14 78l274 188q164 113 278 195t202.5 155t141 127t85.5 107.5t45 99.5t12 101q0 260 -340 260q-120 0 -249.5 -50t-221.5 -135h-6l21 107q92 67 218.5 107t245.5 40q205 0 308.5 -79.5t103.5 -233.5q0 -77 -18.5 -139.5t-67.5 -136t-139.5 -156
t-229.5 -185.5t-344 -237l-211 -139v-4h826z" />
    <glyph glyph-name="three" unicode="3" horiz-adv-x="1331" 
d="M938 696v-4q229 -70 229 -284q0 -199 -154 -313.5t-413 -114.5q-151 0 -282.5 45t-190.5 120l18 88h7q56 -86 177.5 -135t270.5 -49q227 0 357 95.5t130 261.5q0 127 -95.5 192.5t-280.5 65.5h-211l14 69h223q215 0 331 83.5t116 242.5q0 120 -100.5 186t-276.5 66
q-130 0 -249 -47.5t-208 -135.5h-6l23 107q86 69 201.5 107t244.5 38q208 0 328.5 -83.5t120.5 -231.5q0 -146 -83.5 -239.5t-240.5 -129.5z" />
    <glyph glyph-name="four" unicode="4" horiz-adv-x="1331" 
d="M1024 301l-59 -301h-78l59 301h-874l12 66l1065 993h80l-193 -989h217l-16 -70h-213zM1128 1247l-940 -876h770z" />
    <glyph glyph-name="five" unicode="5" horiz-adv-x="1331" 
d="M444 1290l-96 -497q165 73 354 73q226 0 350 -101t124 -282q0 -228 -159 -365.5t-427 -137.5q-158 0 -293 44.5t-193 118.5l19 88h6q56 -87 180 -134.5t283 -47.5q231 0 367.5 115.5t136.5 312.5q0 156 -105 238t-307 82q-215 0 -420 -111h-6l131 674h877l-15 -70h-807z
" />
    <glyph glyph-name="six" unicode="6" horiz-adv-x="1331" 
d="M918 1380q240 0 344 -104l-19 -86h-6q-95 121 -324 121q-270 0 -444.5 -174.5t-230.5 -511.5h4q102 113 239.5 176t296.5 63q198 0 315 -102.5t117 -272.5q0 -220 -156.5 -364.5t-398.5 -144.5q-233 0 -366 137.5t-133 386.5q0 77 12.5 158t40.5 167.5t69.5 165.5
t104 149.5t138.5 122.5t178.5 82.5t218.5 30.5zM768 795q-157 0 -295.5 -72.5t-236.5 -202.5q-3 -21 -3 -45q0 -198 117 -312t305 -114q207 0 342.5 124t135.5 310q0 143 -98.5 227.5t-266.5 84.5z" />
    <glyph glyph-name="seven" unicode="7" horiz-adv-x="1331" 
d="M285 0h-101l1131 1290h-996l13 70h1087l-14 -78z" />
    <glyph glyph-name="eight" unicode="8" horiz-adv-x="1331" 
d="M954 700v-4q244 -74 244 -293q0 -198 -160.5 -310.5t-439.5 -112.5q-241 0 -376.5 88t-135.5 243q0 154 100.5 257t282.5 134v5q-213 69 -213 268q0 187 150.5 296t410.5 109q222 0 345.5 -82.5t123.5 -230.5t-84.5 -240.5t-247.5 -126.5zM336 979q0 -246 401 -246
q229 0 350 83t121 239q0 123 -103 189.5t-296 66.5q-222 0 -347.5 -87t-125.5 -245zM604 49q242 0 379 92.5t137 259.5q0 263 -440 263q-250 0 -382 -88t-132 -254q0 -131 114 -202t324 -71z" />
    <glyph glyph-name="nine" unicode="9" horiz-adv-x="1331" 
d="M754 1380q233 0 366 -137.5t133 -386.5q0 -77 -12.5 -158t-40.5 -167.5t-69.5 -165.5t-104 -149.5t-138 -122.5t-178 -82.5t-218.5 -30.5q-241 0 -345 104l19 86h6q95 -121 324 -121q270 0 444.5 174.5t230.5 511.5h-4q-102 -113 -239.5 -176t-296.5 -63q-198 0 -315 102
t-117 272q0 221 156.5 365.5t398.5 144.5zM641 565q157 0 296 73t237 202q2 14 2 45q0 198 -117 312t-305 114q-206 0 -342 -124t-136 -310q0 -143 98.5 -227.5t266.5 -84.5z" />
    <glyph glyph-name="colon" unicode=":" horiz-adv-x="462" 
d="M156 109q26 0 42.5 -16.5t16.5 -41.5q0 -30 -22.5 -50.5t-51.5 -20.5q-26 0 -42.5 16t-16.5 41q0 29 22.5 50.5t51.5 21.5zM311 913q26 0 43 -16t17 -41q0 -30 -22.5 -51t-51.5 -21q-26 0 -42.5 16.5t-16.5 41.5q0 29 22 50t51 21z" />
    <glyph glyph-name="semicolon" unicode=";" horiz-adv-x="462" 
d="M-66 -285l201 373h78l-215 -373h-64zM311 913q26 0 43 -16t17 -41q0 -30 -22.5 -51t-51.5 -21q-26 0 -42.5 16.5t-16.5 41.5q0 29 22 50t51 21z" />
    <glyph glyph-name="less" unicode="&#x3c;" horiz-adv-x="1331" 
d="M276 608l848 -420l-14 -69l-936 469l10 53l1121 469l-17 -78z" />
    <glyph glyph-name="equal" unicode="=" horiz-adv-x="1331" 
d="M201 838l14 67h1069l-14 -67h-1069zM102 324l13 67h1069l-13 -67h-1069z" />
    <glyph glyph-name="greater" unicode="&#x3e;" horiz-adv-x="1331" 
d="M1202 588l-1120 -469l14 78l1014 421l-850 422l16 70l936 -469z" />
    <glyph glyph-name="question" unicode="?" horiz-adv-x="974" 
d="M623 1380q194 0 301.5 -83t107.5 -234q0 -188 -132.5 -306t-430.5 -194l-49 -241h-70l58 292q288 64 417 169t129 274q0 122 -87.5 188t-248.5 66q-120 0 -235 -48t-205 -135h-6l16 105q93 69 207.5 108t227.5 39zM340 109q26 0 42.5 -16.5t16.5 -41.5q0 -29 -22 -50
t-51 -21q-26 0 -43 16t-17 41q0 29 22.5 50.5t51.5 21.5z" />
    <glyph glyph-name="at" unicode="@" horiz-adv-x="1624" 
d="M1243 211q-67 0 -106 34t-39 99v8h-4q-51 -66 -130.5 -103.5t-175.5 -37.5q-142 0 -231.5 87.5t-89.5 227.5q0 173 117.5 292.5t281.5 119.5q116 0 194.5 -50.5t106.5 -139.5h4l33 176h62l-103 -529q-4 -28 -4 -39q0 -44 22.5 -65t59.5 -21q72 0 125.5 47t81 120
t40.5 144.5t13 137.5q0 235 -151 378.5t-408 143.5q-200 0 -369.5 -103.5t-268.5 -281.5t-99 -387q0 -246 168.5 -400.5t441.5 -154.5q142 0 267 42t212 114h6l-16 -84q-84 -60 -209.5 -94.5t-265.5 -34.5q-302 0 -489 171t-187 445q0 168 64 321t173 263.5t260 175.5
t318 65q282 0 449.5 -158.5t167.5 -418.5q0 -80 -18 -164t-54 -164t-101 -131t-149 -51zM799 270q146 0 243 101t97 252q0 116 -72.5 186t-192.5 70q-145 0 -243.5 -99.5t-98.5 -244.5q0 -119 72.5 -192t194.5 -73z" />
    <glyph glyph-name="A" unicode="A" horiz-adv-x="1470" 
d="M1249 0l-96 344h-877l-231 -344h-92l917 1360h74l389 -1360h-84zM895 1260h-4l-565 -842h807z" />
    <glyph glyph-name="B" unicode="B" horiz-adv-x="1286" 
d="M967 692v-4q223 -57 223 -272q0 -196 -126 -306t-374 -110h-606l264 1360h500q207 0 313.5 -75.5t106.5 -223.5q0 -151 -77 -243.5t-224 -125.5zM305 729h465q203 0 310.5 82.5t107.5 239.5q0 235 -344 235h-430zM178 74h516q204 0 310 88.5t106 251.5q0 241 -344 241
h-475z" />
    <glyph glyph-name="C" unicode="C" horiz-adv-x="1368" 
d="M922 1380q149 0 282.5 -42t200.5 -117l-19 -91h-6q-61 84 -189 130.5t-273 46.5q-204 0 -369 -94t-257.5 -259t-92.5 -368q0 -240 152.5 -386.5t408.5 -146.5q263 0 448 185h6l-20 -113q-167 -145 -444 -145q-288 0 -459.5 165.5t-171.5 434.5q0 170 61 318.5t167 254
t255.5 166.5t319.5 61z" />
    <glyph glyph-name="D" unicode="D" horiz-adv-x="1488" 
d="M348 1360h461q301 0 472 -153t171 -419q0 -234 -99.5 -413t-283 -277t-424.5 -98h-561zM1372 780q0 237 -151 371.5t-420 134.5h-387l-236 -1212h471q324 0 523.5 195t199.5 511z" />
    <glyph glyph-name="E" unicode="E" horiz-adv-x="1251" 
d="M305 729h744l-15 -74h-743l-113 -581h891l-14 -74h-971l264 1360h971l-14 -74h-891z" />
    <glyph glyph-name="F" unicode="F" horiz-adv-x="1208" 
d="M303 719h746l-15 -74h-745l-125 -645h-80l264 1360h973l-14 -74h-893z" />
    <glyph glyph-name="G" unicode="G" horiz-adv-x="1449" 
d="M926 1380q172 0 311.5 -40.5t220.5 -120.5l-16 -91h-6q-154 179 -510 179q-156 0 -291 -54.5t-231 -150t-150.5 -230.5t-54.5 -290q0 -243 154 -386t415 -143q131 0 224.5 29t187.5 94l75 395h-493l14 74h572l-97 -510q-120 -84 -226 -119.5t-261 -35.5q-297 0 -471 161
t-174 432q0 230 101.5 414t286 288.5t419.5 104.5z" />
    <glyph glyph-name="H" unicode="H" horiz-adv-x="1509" 
d="M1161 0l127 655h-997l-127 -655h-80l264 1360h80l-123 -631h998l122 631h80l-264 -1360h-80z" />
    <glyph glyph-name="I" unicode="I" horiz-adv-x="432" 
d="M84 0l264 1360h80l-264 -1360h-80z" />
    <glyph glyph-name="J" unicode="J" horiz-adv-x="1030" 
d="M1061 1360l-182 -936q-43 -220 -174 -332t-343 -112q-249 0 -374 153l16 86h6q107 -166 357 -166q171 0 285 98t149 279l178 930h82z" />
    <glyph glyph-name="K" unicode="K" horiz-adv-x="1234" 
d="M987 0l-694 668l-129 -668h-80l264 1360h80l-127 -651l913 651h127l-958 -678l713 -682h-109z" />
    <glyph glyph-name="L" unicode="L" horiz-adv-x="1171" 
d="M84 0l264 1360h80l-250 -1286h862l-12 -74h-944z" />
    <glyph glyph-name="M" unicode="M" horiz-adv-x="1892" 
d="M1624 0h-80l248 1276h-4l-905 -1276h-66l-405 1268h-4l-246 -1268h-78l264 1360h115l401 -1254h4l891 1254h129z" />
    <glyph glyph-name="N" unicode="N" horiz-adv-x="1519" 
d="M1251 0h-88l-747 1280h-4l-250 -1280h-78l264 1360h107l735 -1254h4l244 1254h78z" />
    <glyph glyph-name="O" unicode="O" horiz-adv-x="1570" 
d="M907 1380q283 0 454 -167t171 -437q0 -166 -61 -314t-166 -253.5t-251 -167t-311 -61.5q-283 0 -453.5 167t-170.5 437q0 166 61 314t166 253.5t251 167t310 61.5zM905 1307q-198 0 -359.5 -94t-254 -259.5t-92.5 -367.5q0 -239 150.5 -386t398.5 -147q146 0 277 55.5
t224.5 151t148 229t54.5 283.5q0 240 -149.5 387.5t-397.5 147.5z" />
    <glyph glyph-name="P" unicode="P" horiz-adv-x="1273" 
d="M348 1360h539q205 0 310.5 -86t105.5 -252q0 -226 -130.5 -347.5t-377.5 -121.5h-525l-106 -553h-80zM1223 1018q0 268 -342 268h-467l-129 -659h514q206 0 315 100.5t109 290.5z" />
    <glyph glyph-name="Q" unicode="Q" horiz-adv-x="1570" 
d="M1532 776q0 -227 -108.5 -412t-293.5 -286l154 -234h-86l-133 201q-145 -65 -322 -65q-283 0 -453.5 167t-170.5 437q0 166 61 314t166 253.5t251 167t310 61.5q283 0 454 -167t171 -437zM889 442l201 -303q167 92 264.5 259.5t97.5 373.5q0 240 -149.5 387.5
t-397.5 147.5q-198 0 -359.5 -94t-254 -259.5t-92.5 -367.5q0 -239 150.5 -386t398.5 -147q149 0 276 56l-221 333h86z" />
    <glyph glyph-name="R" unicode="R" horiz-adv-x="1333" 
d="M348 1360h551q416 0 416 -334q0 -202 -115 -321t-330 -134l291 -571h-90l-285 569h-512l-110 -569h-80zM1235 1022q0 264 -344 264h-477l-125 -643h524q205 0 313.5 98t108.5 281z" />
    <glyph glyph-name="S" unicode="S" horiz-adv-x="1169" 
d="M707 1380q151 0 279 -37t194 -100l-17 -88h-6q-60 72 -179.5 112t-275.5 40q-191 0 -315.5 -97.5t-124.5 -248.5q0 -105 84 -157.5t297 -72.5q251 -23 354 -96t103 -221q0 -199 -148.5 -316.5t-400.5 -117.5q-170 0 -311.5 44.5t-214.5 120.5l16 86h6q152 -178 512 -178
q212 0 336.5 94.5t124.5 255.5q0 115 -88.5 172t-313.5 80q-242 24 -339 91t-97 202q0 189 148 310.5t377 121.5z" />
    <glyph glyph-name="T" unicode="T" horiz-adv-x="1169" 
d="M784 1286l-249 -1286h-80l250 1286h-494l12 74h1067l-14 -74h-492z" />
    <glyph glyph-name="U" unicode="U" horiz-adv-x="1427" 
d="M1458 1360l-155 -797q-114 -583 -652 -583q-241 0 -374.5 113.5t-133.5 324.5q0 61 17 151l153 791h80l-153 -793q-15 -73 -15 -139q0 -182 110.5 -278.5t315.5 -96.5q235 0 379.5 132.5t194.5 385.5l155 789h78z" />
    <glyph glyph-name="V" unicode="V" horiz-adv-x="1388" 
d="M639 0h-74l-348 1360h84l315 -1249h5l802 1249h93z" />
    <glyph glyph-name="W" unicode="W" horiz-adv-x="2045" 
d="M1434 0h-78l-187 1223h-4l-659 -1223h-78l-205 1360h84l178 -1231h4l666 1231h74l186 -1233h4l660 1233h88z" />
    <glyph glyph-name="X" unicode="X" horiz-adv-x="1374" 
d="M1212 0h-94l-391 641l-643 -641h-107l699 694l-414 666h94l379 -615l615 615h106l-674 -672z" />
    <glyph glyph-name="Y" unicode="Y" horiz-adv-x="1325" 
d="M535 0l118 623l-456 737h96l407 -670l666 670h107l-740 -737l-119 -623h-79z" />
    <glyph glyph-name="Z" unicode="Z" horiz-adv-x="1288" 
d="M133 74h977l-12 -74h-1090l12 68l1205 1218h-926l14 74h1039l-15 -68z" />
    <glyph glyph-name="bracketleft" unicode="[" horiz-adv-x="694" 
d="M143 -145h324l-12 -64h-398l305 1569h398l-12 -64h-324z" />
    <glyph glyph-name="backslash" unicode="\" horiz-adv-x="815" 
d="M610 -164h-67l-281 1585h70z" />
    <glyph glyph-name="bracketright" unicode="]" horiz-adv-x="694" 
d="M-27 -209l13 64h323l281 1441h-324l13 64h397l-305 -1569h-398z" />
    <glyph glyph-name="asciicircum" unicode="^" horiz-adv-x="1331" 
d="M236 580h-84l659 780h53l357 -780h-76l-318 700z" />
    <glyph glyph-name="underscore" unicode="_" horiz-adv-x="1024" 
d="M887 -225h-1024l12 59h1024z" />
    <glyph glyph-name="grave" unicode="`" horiz-adv-x="1024" 
d="M623 1112l-191 305h84l174 -305h-67z" />
    <glyph glyph-name="a" unicode="a" horiz-adv-x="1226" 
d="M985 0h-67l34 188h-4q-69 -99 -181 -153.5t-249 -54.5q-197 0 -317.5 119.5t-120.5 312.5q0 155 73 284t199.5 203t278.5 74q162 0 272 -74.5t144 -202.5h4l51 256h67zM528 47q204 0 344 142.5t140 349.5q0 164 -102 265t-273 101q-201 0 -341 -143t-140 -348
q0 -164 102 -265.5t270 -101.5z" />
    <glyph glyph-name="b" unicode="b" horiz-adv-x="1226" 
d="M709 973q198 0 319 -119t121 -311q0 -156 -73 -285.5t-199.5 -203.5t-278.5 -74q-163 0 -272 73.5t-142 200.5h-4l-53 -254h-70l279 1434h76l-127 -658h4q71 93 180 145t240 52zM590 47q204 0 343.5 142.5t139.5 349.5q0 164 -102 265t-273 101q-202 0 -341.5 -142.5
t-139.5 -348.5q0 -164 102.5 -265.5t270.5 -101.5z" />
    <glyph glyph-name="c" unicode="c" horiz-adv-x="1013" 
d="M647 973q109 0 204.5 -31.5t143.5 -89.5l-16 -80h-6q-50 66 -135 99.5t-189 33.5q-140 0 -254 -66t-176.5 -177.5t-62.5 -243.5q0 -164 104.5 -267.5t274.5 -103.5q102 0 177 33.5t146 105.5h6l-18 -100q-121 -106 -314 -106q-207 0 -329.5 119.5t-122.5 312.5
q0 155 71.5 282.5t202 203t293.5 75.5z" />
    <glyph glyph-name="d" unicode="d" horiz-adv-x="1226" 
d="M985 0h-70l35 188h-4q-69 -99 -180.5 -153.5t-247.5 -54.5q-197 0 -317.5 119.5t-120.5 312.5q0 155 73 284t199.5 203t278.5 74q158 0 266 -71.5t145 -194.5h5l141 727h76zM528 47q133 0 244 65t174.5 178t63.5 249q0 164 -102 265t-271 101q-201 0 -341 -143t-140 -348
q0 -164 102 -265.5t270 -101.5z" />
    <glyph glyph-name="e" unicode="e" horiz-adv-x="1146" 
d="M639 973q201 0 318.5 -107.5t117.5 -285.5q0 -62 -14 -117h-903q-2 -16 -2 -49q0 -170 110.5 -268.5t302.5 -98.5q211 0 373 152h6l-18 -97q-67 -58 -161.5 -90t-203.5 -32q-224 0 -354.5 114.5t-130.5 311.5q0 119 43 224t117 180.5t177.5 119t221.5 43.5zM637 905
q-171 0 -300 -104.5t-167 -272.5h834q2 12 2 37q0 155 -99 247.5t-270 92.5z" />
    <glyph glyph-name="f" unicode="f" horiz-adv-x="657" 
d="M676 1454q110 0 172 -41l-17 -74h-6q-55 47 -143 47q-104 0 -170 -58.5t-88 -174.5l-39 -201h342l-12 -67h-344l-172 -885h-76l172 885h-195l13 67h196l39 205q28 142 113.5 219.5t214.5 77.5z" />
    <glyph glyph-name="g" unicode="g" horiz-adv-x="1226" 
d="M1169 952l-170 -878q-45 -234 -188.5 -359t-376.5 -125q-280 0 -403 152l14 82h6q59 -84 152.5 -125t234.5 -41q201 0 324 108t162 312l18 96h-4q-71 -91 -180 -141.5t-240 -50.5q-197 0 -317.5 119.5t-120.5 312.5q0 154 73 282.5t199.5 202.5t278.5 74
q160 0 269.5 -74.5t143.5 -200.5h5l51 254h69zM528 49q204 0 343 141.5t139 350.5q0 162 -102 263t-271 101q-204 0 -342.5 -142t-138.5 -351q0 -163 102 -263t270 -100z" />
    <glyph glyph-name="h" unicode="h" horiz-adv-x="1144" 
d="M700 973q164 0 254 -86t90 -238q0 -61 -10 -110l-104 -539h-76l104 535q11 68 11 102q0 128 -74 198t-211 70q-171 0 -295.5 -115t-161.5 -309l-94 -481h-76l279 1434h76l-133 -686h4q69 108 177.5 166.5t239.5 58.5z" />
    <glyph glyph-name="i" unicode="i" horiz-adv-x="374" 
d="M346 1317q25 0 39 -14t14 -37q0 -28 -19.5 -48t-45.5 -20q-24 0 -38.5 14.5t-14.5 38.5q0 28 18.5 47t46.5 19zM57 0l185 952h75l-184 -952h-76z" />
    <glyph glyph-name="j" unicode="j" horiz-adv-x="374" 
d="M346 1317q25 0 39 -14t14 -37q0 -28 -19.5 -48t-45.5 -20q-24 0 -38.5 14.5t-14.5 38.5q0 28 18.5 47t46.5 19zM317 952l-221 -1138q-23 -120 -74 -172t-143 -52q-55 0 -104 29l14 72h6q37 -33 84 -33q61 0 92.5 36.5t48.5 123.5l222 1134h75z" />
    <glyph glyph-name="k" unicode="k" horiz-adv-x="929" 
d="M700 0l-479 459l-90 -459h-74l279 1434h74l-181 -926l623 444h117l-668 -473l502 -479h-103z" />
    <glyph glyph-name="l" unicode="l" horiz-adv-x="374" 
d="M412 1434l-279 -1434h-76l279 1434h76z" />
    <glyph glyph-name="m" unicode="m" horiz-adv-x="1779" 
d="M1374 973q150 0 228.5 -76t78.5 -219q0 -47 -14 -129l-106 -549h-76l106 549q13 67 13 115q0 119 -62.5 180t-185.5 61q-160 0 -266 -105t-144 -302l-96 -498h-76l107 549q12 61 12 115q0 119 -62.5 180t-183.5 61q-158 0 -263.5 -105t-143.5 -300l-99 -500h-75l184 952
h69l-34 -188h4q125 209 375 209q132 0 207.5 -64t89.5 -184h4q126 248 409 248z" />
    <glyph glyph-name="n" unicode="n" horiz-adv-x="1144" 
d="M700 973q164 0 254 -86t90 -238q0 -61 -10 -110l-104 -539h-76l104 537q11 68 11 100q0 128 -74 198t-211 70q-171 0 -295.5 -115t-161.5 -309l-94 -481h-76l185 952h69l-41 -219h4q69 115 179.5 177.5t246.5 62.5z" />
    <glyph glyph-name="o" unicode="o" horiz-adv-x="1165" 
d="M639 973q202 0 325 -119.5t123 -310.5q0 -239 -161 -401t-400 -162q-201 0 -323.5 119.5t-122.5 312.5q0 155 73.5 284t202 203t283.5 74zM637 905q-201 0 -341 -143t-140 -348q0 -164 102 -265.5t270 -101.5q204 0 344 142.5t140 349.5q0 164 -102 265t-273 101z" />
    <glyph glyph-name="p" unicode="p" horiz-adv-x="1226" 
d="M709 973q198 0 319 -119t121 -311q0 -156 -73 -285.5t-199.5 -203.5t-278.5 -74q-159 0 -268.5 71.5t-145.5 194.5h-4l-123 -635h-75l260 1341h69l-35 -188h5q69 99 181.5 154t246.5 55zM590 47q204 0 343.5 142.5t139.5 349.5q0 164 -102 265t-273 101q-201 0 -341 -143
t-140 -348q0 -164 102.5 -265.5t270.5 -101.5z" />
    <glyph glyph-name="q" unicode="q" horiz-adv-x="1226" 
d="M909 -389h-75l110 567h-4q-71 -95 -180.5 -146.5t-241.5 -51.5q-197 0 -317.5 119.5t-120.5 312.5q0 155 73 284t199.5 203t278.5 74q161 0 270 -74.5t143 -202.5h5l51 256h69zM528 47q133 0 244 65t174.5 178t63.5 249q0 164 -102 265t-271 101q-201 0 -341 -143
t-140 -348q0 -164 102 -265.5t270 -101.5z" />
    <glyph glyph-name="r" unicode="r" horiz-adv-x="712" 
d="M631 973q92 0 145 -39l-16 -82h-6q-49 49 -133 49q-153 0 -255 -113t-143 -329l-90 -459h-76l185 952h69l-39 -202h4q126 223 355 223z" />
    <glyph glyph-name="s" unicode="s" horiz-adv-x="872" 
d="M504 973q102 0 189.5 -24.5t133.5 -65.5l-16 -82h-6q-82 104 -301 104q-141 0 -230.5 -68.5t-89.5 -177.5q0 -67 56.5 -98.5t201.5 -40.5q184 -12 259 -63t75 -160q0 -145 -110 -231t-293 -86q-118 0 -216 30t-153 84l16 82h7q47 -62 137.5 -95.5t208.5 -33.5
q152 0 242 66t90 178q0 76 -61 112t-216 46q-176 12 -245.5 57t-69.5 143q0 146 108 235t283 89z" />
    <glyph glyph-name="t" unicode="t" horiz-adv-x="716" 
d="M371 885l-119 -611q-8 -36 -8 -67q0 -76 39.5 -118t115.5 -42q90 0 158 59h6l-18 -90q-56 -36 -152 -36q-108 0 -166.5 56.5t-58.5 158.5q0 42 8 81l121 609h-197l13 67h198l68 252h55l-49 -252h342l-12 -67h-344z" />
    <glyph glyph-name="u" unicode="u" horiz-adv-x="1144" 
d="M903 0h-69l40 215h-4q-69 -113 -179.5 -174t-246.5 -61q-163 0 -253.5 85.5t-90.5 237.5q0 55 11 109l106 540h76l-105 -536q-10 -58 -10 -101q0 -128 73.5 -198t209.5 -70q171 0 295.5 115t161.5 309l94 481h75z" />
    <glyph glyph-name="v" unicode="v" horiz-adv-x="993" 
d="M442 0h-75l-252 952h78l225 -862h4l559 862h84z" />
    <glyph glyph-name="w" unicode="w" horiz-adv-x="1525" 
d="M1059 0h-74l-151 829h-5l-473 -829h-71l-170 952h73l150 -843h4l479 843h64l153 -848h4l476 848h79z" />
    <glyph glyph-name="x" unicode="x" horiz-adv-x="1013" 
d="M782 0l-278 440l-447 -440h-100l506 494l-299 458h88l264 -415l420 415h100l-479 -467l313 -485h-88z" />
    <glyph glyph-name="y" unicode="y" horiz-adv-x="993" 
d="M158 -389h-84l297 434l-256 907h78l231 -823h4l553 823h84z" />
    <glyph glyph-name="z" unicode="z" horiz-adv-x="987" 
d="M823 68l-12 -68h-819l12 61l860 824h-669l12 67h778l-12 -61l-860 -823h710z" />
    <glyph glyph-name="braceleft" unicode="{" horiz-adv-x="729" 
d="M782 1296h-59q-103 0 -168.5 -54.5t-85.5 -158.5l-45 -235q-23 -117 -75 -182.5t-136 -87.5v-5q115 -38 115 -178q0 -30 -11 -98l-47 -236q-6 -34 -6 -61q0 -145 172 -145h66l-13 -64h-65q-115 0 -174.5 52t-59.5 151q0 34 9 74l47 239q8 44 8 86q0 77 -39 113.5
t-119 36.5h-39l15 65h32q198 0 246 242l47 240q53 270 326 270h72z" />
    <glyph glyph-name="bar" unicode="|" horiz-adv-x="686" 
d="M143 -389l355 1823h61l-354 -1823h-62z" />
    <glyph glyph-name="braceright" unicode="}" horiz-adv-x="729" 
d="M696 543h-32q-198 0 -246 -242l-47 -240q-53 -270 -326 -270h-72l13 64h61q102 0 167 54.5t85 158.5l45 235q23 117 75 182.5t136 87.5v5q-115 38 -115 178q0 30 11 98l47 236q6 35 6 61q0 145 -170 145h-68l13 64h67q114 0 173 -52t59 -151q0 -33 -9 -74l-47 -239
q-8 -44 -8 -86q0 -77 39 -113.5t119 -36.5h39z" />
    <glyph glyph-name="asciitilde" unicode="~" horiz-adv-x="1331" 
d="M1231 754l51 -41q-101 -128 -183.5 -182t-176.5 -54q-64 0 -119 23.5t-133 87.5q-68 56 -111.5 76t-91.5 20q-80 0 -151 -47.5t-162 -161.5l-50 41q100 128 181.5 182t175.5 54q64 0 122.5 -25.5t133.5 -87.5q66 -55 110.5 -74.5t92.5 -19.5q78 0 149.5 47.5t161.5 161.5
z" />
    <glyph glyph-name="uni00A0" unicode="&#xa0;" horiz-adv-x="450" 
 />
    <glyph glyph-name="exclamdown" unicode="&#xa1;" horiz-adv-x="462" 
d="M387 1251q-26 0 -42.5 16.5t-16.5 41.5q0 30 22 50.5t51 20.5q27 0 43.5 -15.5t16.5 -41.5q0 -29 -21.5 -50.5t-52.5 -21.5zM184 0h-88l213 1038h66z" />
    <glyph glyph-name="cent" unicode="&#xa2;" horiz-adv-x="1331" 
d="M934 1231l-35 -180q101 -9 180 -39t117 -78l-16 -82h-6q-85 115 -289 131l-168 -860h10q101 0 177.5 34t154.5 109h6l-21 -104q-141 -107 -321 -107h-18l-35 -178h-66l35 182q-190 23 -296.5 139t-106.5 291q0 119 43.5 222.5t120 179t187 119t240.5 43.5h4l35 178h68z
M311 496q0 -150 90 -249.5t252 -119.5l166 858q-221 -3 -364.5 -143t-143.5 -346z" />
    <glyph glyph-name="sterling" unicode="&#xa3;" horiz-adv-x="1331" 
d="M922 1380q240 0 356 -135l-16 -86h-7q-54 78 -133.5 115t-197.5 37q-355 0 -432 -391l-41 -205h573l-14 -70h-572l-39 -196q-26 -134 -75.5 -219.5t-139.5 -155.5v-4h867l-13 -70h-956l16 78q99 74 148.5 153t75.5 211l38 203h-153l14 70h154l41 211q43 222 171.5 338
t334.5 116z" />
    <glyph glyph-name="currency" unicode="&#xa4;" horiz-adv-x="1331" 
d="M1249 1096l-202 -168q59 -86 59 -201q0 -92 -36.5 -175t-102.5 -144l120 -148l-51 -43l-118 150q-114 -84 -256 -84q-165 0 -261 104l-200 -170l-39 47l203 168q-60 88 -60 201q0 92 36.5 175t102.5 144l-120 148l51 43l119 -150q114 84 256 84q161 0 260 -104l200 170z
M1040 721q0 127 -82 211t-210 84q-151 0 -263 -112t-112 -267q0 -127 81.5 -210t209.5 -83q152 0 264 112.5t112 264.5z" />
    <glyph glyph-name="yen" unicode="&#xa5;" horiz-adv-x="1331" 
d="M1210 666h-467l-51 -258h467l-12 -66h-467l-66 -342h-77l67 342h-471l14 66h469l50 258h-469l14 67h455l-390 627h91l356 -584l577 584h99l-631 -627h455z" />
    <glyph glyph-name="brokenbar" unicode="&#xa6;" horiz-adv-x="686" 
d="M342 635l156 799h61l-156 -799h-61zM143 -389l156 799h61l-155 -799h-62z" />
    <glyph glyph-name="section" unicode="&#xa7;" horiz-adv-x="1099" 
d="M741 1454q213 0 322 -88l-16 -78h-7q-103 103 -305 103q-181 0 -285 -74t-104 -203q0 -84 67.5 -125.5t239.5 -60.5q201 -21 283 -79.5t82 -174.5q0 -121 -75.5 -210t-209.5 -124v-4q67 -25 104 -71t37 -126q0 -164 -119.5 -256t-336.5 -92q-115 0 -216.5 29.5
t-162.5 81.5l16 80h6q113 -125 361 -125q180 0 282.5 73t102.5 199q0 86 -67.5 129t-243.5 61q-199 22 -280 78.5t-81 171.5q0 124 76.5 214t210.5 124v4q-143 49 -143 195q0 159 122 253.5t340 94.5zM946 664q0 96 -78.5 142.5t-279.5 65.5q-176 0 -278.5 -80.5
t-102.5 -211.5q0 -62 31 -100.5t113 -65t231 -41.5q165 6 264.5 87t99.5 204z" />
    <glyph glyph-name="dieresis" unicode="&#xa8;" horiz-adv-x="1024" 
d="M485 1317q25 0 39.5 -14t14.5 -37q0 -27 -19.5 -46.5t-46.5 -19.5q-25 0 -39 14t-14 37q0 28 18.5 47t46.5 19zM856 1317q25 0 39 -14t14 -37q0 -27 -19 -46.5t-46 -19.5q-25 0 -39 14t-14 37q0 28 18.5 47t46.5 19z" />
    <glyph glyph-name="copyright" unicode="&#xa9;" horiz-adv-x="1644" 
d="M930 1380q281 0 458 -174.5t177 -447.5q0 -160 -60.5 -304t-163 -248t-246 -165t-302.5 -61q-281 0 -458 174.5t-177 447.5q0 160 60.5 304t163 248t246 165t302.5 61zM930 1323q-193 0 -357 -96t-259 -261.5t-95 -361.5q0 -248 160.5 -407.5t413.5 -159.5
q193 0 356.5 96t258.5 261.5t95 361.5q0 248 -160 407.5t-413 159.5zM918 1049q80 0 150 -21.5t106 -58.5l-15 -72h-6q-30 46 -94 70t-141 24q-154 0 -254.5 -102.5t-100.5 -257.5q0 -118 76 -190t203 -72q123 0 227 96h6l-16 -86q-55 -35 -105 -51.5t-116 -16.5
q-153 0 -246.5 88.5t-93.5 231.5q0 179 120 298.5t300 119.5z" />
    <glyph glyph-name="ordfeminine" unicode="&#xaa;" horiz-adv-x="931" 
d="M838 700h-60l25 125h-4q-50 -66 -126.5 -102.5t-166.5 -36.5q-137 0 -222 84t-85 217q0 167 110.5 280t272.5 113q108 0 183 -48t103 -132h4l35 156h60zM514 745q138 0 233 96t95 234q0 110 -70 178t-184 68q-135 0 -229.5 -94t-94.5 -234q0 -111 69 -179.5t181 -68.5z
" />
    <glyph glyph-name="guillemotleft" unicode="&#xab;" horiz-adv-x="940" 
d="M152 469l249 -326l-16 -82l-313 412v6l475 412l-19 -98zM512 469l250 -326l-17 -82l-313 412v6l475 412l-18 -98z" />
    <glyph glyph-name="logicalnot" unicode="&#xac;" horiz-adv-x="1331" 
d="M1159 203h-67l102 522h-1022l12 68h1090z" />
    <glyph glyph-name="uni00AD" unicode="&#xad;" horiz-adv-x="757" 
d="M109 518l14 76h557l-14 -76h-557z" />
    <glyph glyph-name="registered" unicode="&#xae;" horiz-adv-x="1644" 
d="M678 1038h291q109 0 165 -45t56 -133q0 -228 -238 -246l160 -292h-74l-155 292h-226l-57 -292h-61zM1126 852q0 129 -168 129h-229l-61 -309h254q204 0 204 180zM930 1380q281 0 458 -174.5t177 -447.5q0 -160 -60.5 -304t-163 -248t-246 -165t-302.5 -61
q-281 0 -458 174.5t-177 447.5q0 160 60.5 304t163 248t246 165t302.5 61zM930 1323q-193 0 -357 -96t-259 -261.5t-95 -361.5q0 -248 160.5 -407.5t413.5 -159.5q193 0 356.5 96t258.5 261.5t95 361.5q0 248 -160 407.5t-413 159.5z" />
    <glyph glyph-name="macron" unicode="&#xaf;" horiz-adv-x="1024" 
d="M365 1221l12 63h586l-13 -63h-585z" />
    <glyph glyph-name="degree" unicode="&#xb0;" horiz-adv-x="792" 
d="M547 1380q119 0 193.5 -73.5t74.5 -188.5q0 -143 -97 -239.5t-235 -96.5q-121 0 -195.5 73.5t-74.5 191.5q0 140 98 236.5t236 96.5zM545 1311q-107 0 -182.5 -76.5t-75.5 -190.5q0 -86 55.5 -140t144.5 -54q105 0 180.5 76t75.5 190q0 87 -54.5 141t-143.5 54z" />
    <glyph glyph-name="plusminus" unicode="&#xb1;" horiz-adv-x="1331" 
d="M1247 664h-510l-98 -498h-68l99 498h-512l12 67h512l98 500h68l-98 -500h510zM1130 68l-12 -68h-1089l12 68h1089z" />
    <glyph glyph-name="twosuperior" unicode="&#xb2;" 
d="M778 854l-12 -59h-567l14 65l174 123q262 184 347 270.5t85 176.5q0 75 -49.5 116t-140.5 41q-70 0 -144.5 -30t-136.5 -82h-6l16 86q124 86 277 86q119 0 184.5 -54.5t65.5 -152.5q0 -78 -38 -143t-135 -147.5t-288 -209.5l-123 -82v-4h477z" />
    <glyph glyph-name="threesuperior" unicode="&#xb3;" 
d="M901 1446q0 -85 -49 -142t-139 -79v-4q127 -45 127 -172q0 -124 -91.5 -195.5t-248.5 -71.5q-84 0 -162.5 27.5t-122.5 73.5l12 71h6q44 -53 116 -82.5t153 -29.5q127 0 199.5 56t72.5 153q0 70 -55.5 107.5t-159.5 37.5h-121l11 59h129q125 0 191.5 49t66.5 134
q0 72 -57.5 110.5t-162.5 38.5q-143 0 -266 -110h-6l16 84q109 86 263 86q133 0 205.5 -52.5t72.5 -148.5z" />
    <glyph glyph-name="acute" unicode="&#xb4;" horiz-adv-x="1024" 
d="M578 1112l290 305h90l-305 -305h-75z" />
    <glyph glyph-name="uni00B5" unicode="&#xb5;" horiz-adv-x="1185" 
d="M1122 952l-186 -952h-68l43 217h-4q-71 -114 -181.5 -175.5t-248.5 -61.5q-230 0 -303 170h-4l-104 -539h-76l260 1341h76l-105 -536q-10 -58 -10 -99q0 -128 74 -199t211 -71q171 0 295.5 115t162.5 309l93 481h75z" />
    <glyph glyph-name="paragraph" unicode="&#xb6;" horiz-adv-x="1144" 
d="M780 -389h-65l342 1761h-305l-342 -1761h-66l199 1016q-179 6 -271 83t-92 220q0 233 145.5 368.5t397.5 135.5h532l-10 -62h-123z" />
    <glyph glyph-name="periodcentered" unicode="&#xb7;" horiz-adv-x="462" 
d="M281 743q26 0 42.5 -16t16.5 -41q0 -30 -22.5 -51t-51.5 -21q-26 0 -42.5 16.5t-16.5 41.5q0 29 22 50t52 21z" />
    <glyph glyph-name="cedilla" unicode="&#xb8;" horiz-adv-x="1024" 
d="M381 -133h18q59 0 94 -34t35 -89q0 -75 -49 -114.5t-137 -39.5q-47 0 -91.5 12t-66.5 31l11 68h4q20 -23 58.5 -37t82.5 -14q65 0 94 27.5t29 66.5q0 33 -24.5 51.5t-71.5 18.5q-31 0 -82 -19l2 21l125 184h57l-88 -129v-4z" />
    <glyph glyph-name="onesuperior" unicode="&#xb9;" 
d="M645 795h-65l147 753l-260 -151l14 73l279 164h49z" />
    <glyph glyph-name="ordmasculine" unicode="&#xba;" horiz-adv-x="886" 
d="M588 1380q142 0 229.5 -84.5t87.5 -220.5q0 -167 -112.5 -278t-276.5 -111q-141 0 -229 84t-88 219q0 168 112.5 279.5t276.5 111.5zM586 1321q-134 0 -228 -93.5t-94 -234.5q0 -110 70 -179t182 -69q137 0 231.5 95t94.5 233q0 110 -71 179t-185 69z" />
    <glyph glyph-name="guillemotright" unicode="&#xbb;" horiz-adv-x="940" 
d="M506 473l-473 -412l16 97l377 325l-248 326l17 82l311 -412v-6zM866 473l-473 -412l17 97l376 325l-247 326l16 82l311 -412v-6z" />
    <glyph glyph-name="onequarter" unicode="&#xbc;" horiz-adv-x="1974" 
d="M506 0l1145 1360h80l-1145 -1360h-80zM1712 0h-65l34 182h-514l13 58l632 600h64l-117 -598h125l-12 -60h-125zM1266 242h428l96 497zM590 520h-66l148 754l-260 -152l14 74l279 164h49z" />
    <glyph glyph-name="onehalf" unicode="&#xbd;" horiz-adv-x="1974" 
d="M414 0l1145 1360h79l-1144 -1360h-80zM1759 59l-12 -59h-567l14 66l174 122q262 184 347 270.5t85 176.5q0 75 -49.5 116.5t-140.5 41.5q-69 0 -143.5 -30.5t-137.5 -82.5h-6l16 86q124 86 277 86q119 0 184.5 -54.5t65.5 -152.5q0 -78 -38 -143t-135 -147.5t-288 -209.5
l-123 -82v-4h477zM592 520h-66l148 754l-260 -152l14 74l279 164h49z" />
    <glyph glyph-name="threequarters" unicode="&#xbe;" horiz-adv-x="1974" 
d="M524 0l1145 1360h80l-1145 -1360h-80zM1712 0h-65l34 182h-514l13 58l632 600h64l-117 -598h125l-12 -60h-125zM1266 242h428l96 497zM848 1171q0 -85 -49.5 -142t-139.5 -79v-4q127 -45 127 -172q0 -124 -91.5 -195t-248.5 -71q-84 0 -162 27.5t-122 72.5l12 72h6
q44 -53 116 -83t153 -30q127 0 199.5 56t72.5 153q0 71 -55.5 108.5t-159.5 37.5h-121l10 59h129q125 0 191.5 48.5t66.5 133.5q0 72 -57.5 111t-161.5 39q-142 0 -266 -111h-6l16 84q109 86 262 86q133 0 206 -53t73 -148z" />
    <glyph glyph-name="questiondown" unicode="&#xbf;" horiz-adv-x="974" 
d="M430 -20q-194 0 -302 83.5t-108 233.5q0 187 133 305t431 195l49 241h69l-57 -293q-289 -64 -418 -168.5t-129 -273.5q0 -122 87.5 -188t248.5 -66q120 0 235.5 48t204.5 134h7l-17 -104q-93 -69 -207 -108t-227 -39zM713 1251q-26 0 -43 16.5t-17 41.5q0 29 22 50t52 21
q26 0 42.5 -16t16.5 -41q0 -29 -22 -50.5t-51 -21.5z" />
    <glyph glyph-name="Agrave" unicode="&#xc0;" horiz-adv-x="1470" 
d="M1249 0l-96 344h-877l-231 -344h-92l917 1360h74l389 -1360h-84zM895 1260h-4l-565 -842h807zM924 1503l-191 305h84l174 -305h-67z" />
    <glyph glyph-name="Aacute" unicode="&#xc1;" horiz-adv-x="1470" 
d="M1249 0l-96 344h-877l-231 -344h-92l917 1360h74l389 -1360h-84zM895 1260h-4l-565 -842h807zM883 1503l291 305h90l-306 -305h-75z" />
    <glyph glyph-name="Acircumflex" unicode="&#xc2;" horiz-adv-x="1470" 
d="M1249 0l-96 344h-877l-231 -344h-92l917 1360h74l389 -1360h-84zM895 1260h-4l-565 -842h807zM743 1503h-77l297 305h65l182 -305h-67l-156 242z" />
    <glyph glyph-name="Atilde" unicode="&#xc3;" horiz-adv-x="1470" 
d="M1249 0l-96 344h-877l-231 -344h-92l917 1360h74l389 -1360h-84zM895 1260h-4l-565 -842h807zM1278 1751l-16 -92q-71 -96 -175 -96q-37 0 -67.5 13t-69.5 48q-54 49 -104 49q-99 0 -184 -123h-5l17 90q36 46 81.5 72.5t92.5 26.5q37 0 67.5 -13.5t69.5 -48.5
q34 -29 56.5 -40t48.5 -11q102 0 184 125h4z" />
    <glyph glyph-name="Adieresis" unicode="&#xc4;" horiz-adv-x="1470" 
d="M1249 0l-96 344h-877l-231 -344h-92l917 1360h74l389 -1360h-84zM895 1260h-4l-565 -842h807zM788 1708q25 0 39.5 -14t14.5 -37q0 -27 -19.5 -46.5t-46.5 -19.5q-25 0 -39 14t-14 37q0 28 18.5 47t46.5 19zM1159 1708q25 0 39 -14t14 -37q0 -27 -19 -46.5t-46 -19.5
q-25 0 -39 14t-14 37q0 28 18.5 47t46.5 19z" />
    <glyph glyph-name="Aring" unicode="&#xc5;" horiz-adv-x="1470" 
d="M1249 0l-96 344h-877l-231 -344h-92l917 1360h74l389 -1360h-84zM895 1260h-4l-565 -842h807zM983 1819q65 0 105 -40t40 -104q0 -75 -51 -125.5t-123 -50.5q-66 0 -106.5 39t-40.5 102q0 75 51 127t125 52zM981 1759q-46 0 -79.5 -33.5t-33.5 -80.5q0 -37 23.5 -61.5
t62.5 -24.5q46 0 79.5 33.5t33.5 78.5q0 39 -23.5 63.5t-62.5 24.5z" />
    <glyph glyph-name="AE" unicode="&#xc6;" horiz-adv-x="2111" 
d="M1167 729h744l-15 -74h-743l-113 -581h891l-14 -74h-971l68 344h-668l-315 -344h-99l1248 1360h1001l-14 -74h-891zM1190 1266l-778 -848h616l166 848h-4z" />
    <glyph glyph-name="Ccedilla" unicode="&#xc7;" horiz-adv-x="1368" 
d="M922 1380q149 0 282.5 -42t200.5 -117l-19 -91h-6q-61 84 -189 130.5t-273 46.5q-204 0 -369 -94t-257.5 -259t-92.5 -368q0 -240 152.5 -386.5t408.5 -146.5q263 0 448 185h6l-20 -113q-167 -145 -444 -145h-39l-74 -109v-4h18q59 0 94 -34t35 -89q0 -75 -49 -114.5
t-137 -39.5q-47 0 -91.5 12t-66.5 31l11 68h4q20 -23 58.5 -37t82.5 -14q65 0 94 27.5t29 66.5q0 33 -24.5 51.5t-71.5 18.5q-31 0 -82 -19l2 21l114 168q-250 28 -394 188.5t-144 407.5q0 170 61 318.5t167 254t255.5 166.5t319.5 61z" />
    <glyph glyph-name="Egrave" unicode="&#xc8;" horiz-adv-x="1251" 
d="M305 729h744l-15 -74h-743l-113 -581h891l-14 -74h-971l264 1360h971l-14 -74h-891zM846 1503l-191 305h84l174 -305h-67z" />
    <glyph glyph-name="Eacute" unicode="&#xc9;" horiz-adv-x="1251" 
d="M305 729h744l-15 -74h-743l-113 -581h891l-14 -74h-971l264 1360h971l-14 -74h-891zM805 1503l291 305h90l-305 -305h-76z" />
    <glyph glyph-name="Ecircumflex" unicode="&#xca;" horiz-adv-x="1251" 
d="M305 729h744l-15 -74h-743l-113 -581h891l-14 -74h-971l264 1360h971l-14 -74h-891zM666 1503h-78l297 305h65l183 -305h-68l-156 242z" />
    <glyph glyph-name="Edieresis" unicode="&#xcb;" horiz-adv-x="1251" 
d="M305 729h744l-15 -74h-743l-113 -581h891l-14 -74h-971l264 1360h971l-14 -74h-891zM711 1708q25 0 39 -14t14 -37q0 -27 -19.5 -46.5t-46.5 -19.5q-25 0 -39 14t-14 37q0 28 19 47t47 19zM1081 1708q25 0 39.5 -14t14.5 -37q0 -27 -19.5 -46.5t-46.5 -19.5q-25 0 -39 14
t-14 37q0 28 18.5 47t46.5 19z" />
    <glyph glyph-name="Igrave" unicode="&#xcc;" horiz-adv-x="432" 
d="M84 0l264 1360h80l-264 -1360h-80zM403 1503l-190 305h84l174 -305h-68z" />
    <glyph glyph-name="Iacute" unicode="&#xcd;" horiz-adv-x="432" 
d="M84 0l264 1360h80l-264 -1360h-80zM362 1503l291 305h90l-305 -305h-76z" />
    <glyph glyph-name="Icircumflex" unicode="&#xce;" horiz-adv-x="432" 
d="M84 0l264 1360h80l-264 -1360h-80zM223 1503h-78l297 305h66l182 -305h-67l-156 242z" />
    <glyph glyph-name="Idieresis" unicode="&#xcf;" horiz-adv-x="432" 
d="M84 0l264 1360h80l-264 -1360h-80zM268 1708q25 0 39.5 -14t14.5 -37q0 -27 -19.5 -46.5t-46.5 -19.5q-25 0 -39 14t-14 37q0 28 18.5 47t46.5 19zM639 1708q25 0 39 -14t14 -37q0 -27 -19 -46.5t-46 -19.5q-25 0 -39.5 14t-14.5 37q0 28 19 47t47 19z" />
    <glyph glyph-name="Eth" unicode="&#xd0;" horiz-adv-x="1517" 
d="M375 1360h461q301 0 472 -153t171 -419q0 -234 -99.5 -413t-283 -277t-424.5 -98h-561l127 655h-158l14 72h158zM205 74h471q324 0 523.5 195t199.5 511q0 237 -151.5 371.5t-420.5 134.5h-387l-108 -559h479l-14 -72h-480z" />
    <glyph glyph-name="Ntilde" unicode="&#xd1;" horiz-adv-x="1519" 
d="M1251 0h-88l-747 1280h-4l-250 -1280h-78l264 1360h107l735 -1254h4l244 1254h78zM1300 1751l-16 -92q-71 -96 -174 -96q-37 0 -67.5 13t-69.5 48q-54 49 -105 49q-99 0 -184 -123h-4l16 90q36 46 81.5 72.5t92.5 26.5q37 0 68 -13.5t70 -48.5q34 -29 56 -40t48 -11
q102 0 184 125h4z" />
    <glyph glyph-name="Ograve" unicode="&#xd2;" horiz-adv-x="1570" 
d="M907 1380q283 0 454 -167t171 -437q0 -166 -61 -314t-166 -253.5t-251 -167t-311 -61.5q-283 0 -453.5 167t-170.5 437q0 166 61 314t166 253.5t251 167t310 61.5zM905 1307q-198 0 -359.5 -94t-254 -259.5t-92.5 -367.5q0 -239 150.5 -386t398.5 -147q146 0 277 55.5
t224.5 151t148 229t54.5 283.5q0 240 -149.5 387.5t-397.5 147.5zM971 1503l-191 305h84l174 -305h-67z" />
    <glyph glyph-name="Oacute" unicode="&#xd3;" horiz-adv-x="1570" 
d="M907 1380q283 0 454 -167t171 -437q0 -166 -61 -314t-166 -253.5t-251 -167t-311 -61.5q-283 0 -453.5 167t-170.5 437q0 166 61 314t166 253.5t251 167t310 61.5zM905 1307q-198 0 -359.5 -94t-254 -259.5t-92.5 -367.5q0 -239 150.5 -386t398.5 -147q146 0 277 55.5
t224.5 151t148 229t54.5 283.5q0 240 -149.5 387.5t-397.5 147.5zM930 1503l291 305h90l-305 -305h-76z" />
    <glyph glyph-name="Ocircumflex" unicode="&#xd4;" horiz-adv-x="1570" 
d="M907 1380q283 0 454 -167t171 -437q0 -166 -61 -314t-166 -253.5t-251 -167t-311 -61.5q-283 0 -453.5 167t-170.5 437q0 166 61 314t166 253.5t251 167t310 61.5zM905 1307q-198 0 -359.5 -94t-254 -259.5t-92.5 -367.5q0 -239 150.5 -386t398.5 -147q146 0 277 55.5
t224.5 151t148 229t54.5 283.5q0 240 -149.5 387.5t-397.5 147.5zM791 1503h-78l297 305h65l182 -305h-67l-156 242z" />
    <glyph glyph-name="Otilde" unicode="&#xd5;" horiz-adv-x="1570" 
d="M907 1380q283 0 454 -167t171 -437q0 -166 -61 -314t-166 -253.5t-251 -167t-311 -61.5q-283 0 -453.5 167t-170.5 437q0 166 61 314t166 253.5t251 167t310 61.5zM905 1307q-198 0 -359.5 -94t-254 -259.5t-92.5 -367.5q0 -239 150.5 -386t398.5 -147q146 0 277 55.5
t224.5 151t148 229t54.5 283.5q0 240 -149.5 387.5t-397.5 147.5zM1325 1751l-16 -92q-71 -96 -174 -96q-38 0 -68.5 13t-69.5 48q-54 49 -104 49q-99 0 -184 -123h-4l16 90q36 46 81.5 72.5t92.5 26.5q37 0 67.5 -13.5t69.5 -48.5q34 -29 56.5 -40t48.5 -11q102 0 184 125
h4z" />
    <glyph glyph-name="Odieresis" unicode="&#xd6;" horiz-adv-x="1570" 
d="M907 1380q283 0 454 -167t171 -437q0 -166 -61 -314t-166 -253.5t-251 -167t-311 -61.5q-283 0 -453.5 167t-170.5 437q0 166 61 314t166 253.5t251 167t310 61.5zM905 1307q-198 0 -359.5 -94t-254 -259.5t-92.5 -367.5q0 -239 150.5 -386t398.5 -147q146 0 277 55.5
t224.5 151t148 229t54.5 283.5q0 240 -149.5 387.5t-397.5 147.5zM836 1708q25 0 39 -14t14 -37q0 -27 -19.5 -46.5t-46.5 -19.5q-25 0 -39 14t-14 37q0 28 19 47t47 19zM1206 1708q25 0 39.5 -14t14.5 -37q0 -27 -19.5 -46.5t-46.5 -19.5q-25 0 -39 14t-14 37q0 28 18.5 47
t46.5 19z" />
    <glyph glyph-name="multiply" unicode="&#xd7;" horiz-adv-x="1331" 
d="M1102 162l-53 -45l-363 448l-536 -448l-41 53l536 448l-362 449l55 45l360 -448l537 448l43 -53l-537 -449z" />
    <glyph glyph-name="Oslash" unicode="&#xd8;" horiz-adv-x="1570" 
d="M1647 1360l-234 -205q119 -157 119 -379q0 -166 -61 -314t-166 -253.5t-251 -167t-311 -61.5q-293 0 -467 180l-180 -160h-106l241 213q-112 152 -112 371q0 166 61 314t166 253.5t251 167t310 61.5q287 0 459 -172l172 152h109zM199 586q0 -187 94 -320l1014 891
q-153 150 -402 150q-198 0 -359.5 -94t-254 -259.5t-92.5 -367.5zM1452 772q0 197 -100 330l-1014 -891q152 -158 410 -158q146 0 277 55.5t224.5 151t148 229t54.5 283.5z" />
    <glyph glyph-name="Ugrave" unicode="&#xd9;" horiz-adv-x="1427" 
d="M1458 1360l-155 -797q-114 -583 -652 -583q-241 0 -374.5 113.5t-133.5 324.5q0 61 17 151l153 791h80l-153 -793q-15 -73 -15 -139q0 -182 110.5 -278.5t315.5 -96.5q235 0 379.5 132.5t194.5 385.5l155 789h78zM899 1503l-190 305h84l174 -305h-68z" />
    <glyph glyph-name="Uacute" unicode="&#xda;" horiz-adv-x="1427" 
d="M1458 1360l-155 -797q-114 -583 -652 -583q-241 0 -374.5 113.5t-133.5 324.5q0 61 17 151l153 791h80l-153 -793q-15 -73 -15 -139q0 -182 110.5 -278.5t315.5 -96.5q235 0 379.5 132.5t194.5 385.5l155 789h78zM858 1503l291 305h90l-305 -305h-76z" />
    <glyph glyph-name="Ucircumflex" unicode="&#xdb;" horiz-adv-x="1427" 
d="M1458 1360l-155 -797q-114 -583 -652 -583q-241 0 -374.5 113.5t-133.5 324.5q0 61 17 151l153 791h80l-153 -793q-15 -73 -15 -139q0 -182 110.5 -278.5t315.5 -96.5q235 0 379.5 132.5t194.5 385.5l155 789h78zM719 1503h-78l297 305h66l182 -305h-68l-155 242z" />
    <glyph glyph-name="Udieresis" unicode="&#xdc;" horiz-adv-x="1427" 
d="M1458 1360l-155 -797q-114 -583 -652 -583q-241 0 -374.5 113.5t-133.5 324.5q0 61 17 151l153 791h80l-153 -793q-15 -73 -15 -139q0 -182 110.5 -278.5t315.5 -96.5q235 0 379.5 132.5t194.5 385.5l155 789h78zM764 1708q25 0 39 -14t14 -37q0 -27 -19 -46.5t-46 -19.5
q-25 0 -39.5 14t-14.5 37q0 28 19 47t47 19zM1135 1708q25 0 39 -14t14 -37q0 -27 -19.5 -46.5t-46.5 -19.5q-25 0 -39 14t-14 37q0 28 19 47t47 19z" />
    <glyph glyph-name="Yacute" unicode="&#xdd;" horiz-adv-x="1325" 
d="M535 0l118 623l-456 737h96l407 -670l666 670h107l-740 -737l-119 -623h-79zM807 1503l291 305h90l-305 -305h-76z" />
    <glyph glyph-name="Thorn" unicode="&#xde;" horiz-adv-x="1273" 
d="M231 379h510q206 0 315 100.5t109 290.5q0 268 -342 268h-465zM737 305h-520l-59 -305h-80l264 1360h80l-49 -248h456q205 0 310.5 -86t105.5 -252q0 -226 -130.5 -347.5t-377.5 -121.5z" />
    <glyph glyph-name="germandbls" unicode="&#xdf;" horiz-adv-x="1148" 
d="M739 1454q140 0 219.5 -64t79.5 -178q0 -104 -46.5 -179.5t-157.5 -143.5q-81 -50 -110.5 -89t-29.5 -91q0 -47 32.5 -77.5t113.5 -56.5q114 -35 161.5 -91t47.5 -150q0 -160 -111.5 -257t-294.5 -97q-113 0 -203 29t-141 81l16 86h7q40 -61 123 -95t194 -34
q152 0 243 76.5t91 202.5q0 70 -39 113t-137 75q-97 32 -136.5 74.5t-39.5 113.5q0 74 37 128t130 112q98 61 137.5 120.5t39.5 141.5q0 86 -62 134t-172 48q-172 0 -266 -82t-129 -262l-203 -1042h-76l205 1057q40 202 157 299.5t320 97.5z" />
    <glyph glyph-name="agrave" unicode="&#xe0;" horiz-adv-x="1226" 
d="M985 0h-67l34 188h-4q-69 -99 -181 -153.5t-249 -54.5q-197 0 -317.5 119.5t-120.5 312.5q0 155 73 284t199.5 203t278.5 74q162 0 272 -74.5t144 -202.5h4l51 256h67zM528 47q204 0 344 142.5t140 349.5q0 164 -102 265t-273 101q-201 0 -341 -143t-140 -348
q0 -164 102 -265.5t270 -101.5zM690 1112l-190 305h84l174 -305h-68z" />
    <glyph glyph-name="aacute" unicode="&#xe1;" horiz-adv-x="1226" 
d="M985 0h-67l34 188h-4q-69 -99 -181 -153.5t-249 -54.5q-197 0 -317.5 119.5t-120.5 312.5q0 155 73 284t199.5 203t278.5 74q162 0 272 -74.5t144 -202.5h4l51 256h67zM528 47q204 0 344 142.5t140 349.5q0 164 -102 265t-273 101q-201 0 -341 -143t-140 -348
q0 -164 102 -265.5t270 -101.5zM649 1112l291 305h90l-305 -305h-76z" />
    <glyph glyph-name="acircumflex" unicode="&#xe2;" horiz-adv-x="1226" 
d="M985 0h-67l34 188h-4q-69 -99 -181 -153.5t-249 -54.5q-197 0 -317.5 119.5t-120.5 312.5q0 155 73 284t199.5 203t278.5 74q162 0 272 -74.5t144 -202.5h4l51 256h67zM528 47q204 0 344 142.5t140 349.5q0 164 -102 265t-273 101q-201 0 -341 -143t-140 -348
q0 -164 102 -265.5t270 -101.5zM510 1112h-78l297 305h66l182 -305h-68l-155 242z" />
    <glyph glyph-name="atilde" unicode="&#xe3;" horiz-adv-x="1226" 
d="M985 0h-67l34 188h-4q-69 -99 -181 -153.5t-249 -54.5q-197 0 -317.5 119.5t-120.5 312.5q0 155 73 284t199.5 203t278.5 74q162 0 272 -74.5t144 -202.5h4l51 256h67zM528 47q204 0 344 142.5t140 349.5q0 164 -102 265t-273 101q-201 0 -341 -143t-140 -348
q0 -164 102 -265.5t270 -101.5zM1044 1360l-16 -92q-72 -97 -174 -97q-37 0 -67.5 13.5t-69.5 48.5q-54 49 -105 49q-99 0 -184 -123h-4l16 90q36 46 81.5 72.5t92.5 26.5q37 0 68 -13.5t70 -48.5q34 -29 56 -40t48 -11q102 0 184 125h4z" />
    <glyph glyph-name="adieresis" unicode="&#xe4;" horiz-adv-x="1226" 
d="M985 0h-67l34 188h-4q-69 -99 -181 -153.5t-249 -54.5q-197 0 -317.5 119.5t-120.5 312.5q0 155 73 284t199.5 203t278.5 74q162 0 272 -74.5t144 -202.5h4l51 256h67zM528 47q204 0 344 142.5t140 349.5q0 164 -102 265t-273 101q-201 0 -341 -143t-140 -348
q0 -164 102 -265.5t270 -101.5zM555 1317q25 0 39 -14t14 -37q0 -27 -19 -46.5t-46 -19.5q-25 0 -39.5 14t-14.5 37q0 28 19 47t47 19zM926 1317q25 0 39 -14t14 -37q0 -27 -19.5 -46.5t-46.5 -19.5q-25 0 -39 14t-14 37q0 28 19 47t47 19z" />
    <glyph glyph-name="aring" unicode="&#xe5;" horiz-adv-x="1226" 
d="M985 0h-67l34 188h-4q-69 -99 -181 -153.5t-249 -54.5q-197 0 -317.5 119.5t-120.5 312.5q0 155 73 284t199.5 203t278.5 74q162 0 272 -74.5t144 -202.5h4l51 256h67zM528 47q204 0 344 142.5t140 349.5q0 164 -102 265t-273 101q-201 0 -341 -143t-140 -348
q0 -164 102 -265.5t270 -101.5zM750 1427q66 0 105.5 -39.5t39.5 -103.5q0 -74 -50.5 -125t-123.5 -51q-66 0 -107 39t-41 102q0 75 51.5 126.5t125.5 51.5zM748 1368q-46 0 -79.5 -34t-33.5 -81q0 -37 23.5 -61.5t62.5 -24.5q45 0 79 34t34 79q0 39 -23.5 63.5t-62.5 24.5z
" />
    <glyph glyph-name="ae" unicode="&#xe6;" horiz-adv-x="2068" 
d="M1982 463h-903q-2 -14 -2 -45q0 -172 111 -271.5t303 -99.5q211 0 373 152h6l-19 -97q-141 -122 -358 -122q-183 0 -301 74t-154 204h-4l-53 -258h-63l36 190h-4q-70 -99 -182 -154.5t-250 -55.5q-197 0 -317.5 119.5t-120.5 312.5q0 155 72.5 284t199 203t279.5 74
q161 0 271.5 -74.5t144.5 -200.5h4l51 254h63l-37 -192h5q68 101 180.5 157t253.5 56q196 0 313 -107t117 -282q0 -62 -15 -121zM528 47q204 0 344 142.5t140 349.5q0 164 -102 265t-273 101q-201 0 -341 -143t-140 -348q0 -164 102 -265.5t270 -101.5zM1556 905
q-170 0 -298 -104.5t-166 -272.5h833q2 12 2 37q0 155 -100.5 247.5t-270.5 92.5z" />
    <glyph glyph-name="ccedilla" unicode="&#xe7;" horiz-adv-x="1013" 
d="M647 973q109 0 204.5 -31.5t143.5 -89.5l-16 -80h-6q-50 66 -135 99.5t-189 33.5q-140 0 -254 -66t-176.5 -177.5t-62.5 -243.5q0 -164 104.5 -267.5t274.5 -103.5q102 0 177 33.5t146 105.5h6l-18 -100q-121 -106 -314 -106h-18l-74 -109v-4h19q59 0 94 -34t35 -89
q0 -75 -49.5 -114.5t-137.5 -39.5q-47 0 -91 12t-66 31l10 68h4q20 -23 58.5 -37t82.5 -14q65 0 94 27.5t29 66.5q0 33 -24.5 51.5t-71.5 18.5q-31 0 -82 -19l2 21l115 168q-177 22 -279 137.5t-102 290.5q0 155 71.5 282.5t202 203t293.5 75.5z" />
    <glyph glyph-name="egrave" unicode="&#xe8;" horiz-adv-x="1146" 
d="M639 973q201 0 318.5 -107.5t117.5 -285.5q0 -62 -14 -117h-903q-2 -16 -2 -49q0 -170 110.5 -268.5t302.5 -98.5q211 0 373 152h6l-18 -97q-67 -58 -161.5 -90t-203.5 -32q-224 0 -354.5 114.5t-130.5 311.5q0 119 43 224t117 180.5t177.5 119t221.5 43.5zM637 905
q-171 0 -300 -104.5t-167 -272.5h834q2 12 2 37q0 155 -99 247.5t-270 92.5zM690 1112l-190 305h84l174 -305h-68z" />
    <glyph glyph-name="eacute" unicode="&#xe9;" horiz-adv-x="1146" 
d="M639 973q201 0 318.5 -107.5t117.5 -285.5q0 -62 -14 -117h-903q-2 -16 -2 -49q0 -170 110.5 -268.5t302.5 -98.5q211 0 373 152h6l-18 -97q-67 -58 -161.5 -90t-203.5 -32q-224 0 -354.5 114.5t-130.5 311.5q0 119 43 224t117 180.5t177.5 119t221.5 43.5zM637 905
q-171 0 -300 -104.5t-167 -272.5h834q2 12 2 37q0 155 -99 247.5t-270 92.5zM649 1112l291 305h90l-305 -305h-76z" />
    <glyph glyph-name="ecircumflex" unicode="&#xea;" horiz-adv-x="1146" 
d="M639 973q201 0 318.5 -107.5t117.5 -285.5q0 -62 -14 -117h-903q-2 -16 -2 -49q0 -170 110.5 -268.5t302.5 -98.5q211 0 373 152h6l-18 -97q-67 -58 -161.5 -90t-203.5 -32q-224 0 -354.5 114.5t-130.5 311.5q0 119 43 224t117 180.5t177.5 119t221.5 43.5zM637 905
q-171 0 -300 -104.5t-167 -272.5h834q2 12 2 37q0 155 -99 247.5t-270 92.5zM510 1112h-78l297 305h66l182 -305h-68l-155 242z" />
    <glyph glyph-name="edieresis" unicode="&#xeb;" horiz-adv-x="1146" 
d="M639 973q201 0 318.5 -107.5t117.5 -285.5q0 -62 -14 -117h-903q-2 -16 -2 -49q0 -170 110.5 -268.5t302.5 -98.5q211 0 373 152h6l-18 -97q-67 -58 -161.5 -90t-203.5 -32q-224 0 -354.5 114.5t-130.5 311.5q0 119 43 224t117 180.5t177.5 119t221.5 43.5zM637 905
q-171 0 -300 -104.5t-167 -272.5h834q2 12 2 37q0 155 -99 247.5t-270 92.5zM555 1317q25 0 39 -14t14 -37q0 -27 -19 -46.5t-46 -19.5q-25 0 -39.5 14t-14.5 37q0 28 19 47t47 19zM926 1317q25 0 39 -14t14 -37q0 -27 -19.5 -46.5t-46.5 -19.5q-25 0 -39 14t-14 37
q0 28 19 47t47 19z" />
    <glyph glyph-name="igrave" unicode="&#xec;" horiz-adv-x="374" 
d="M57 0l185 952h75l-186 -952h-74zM295 1112l-191 305h84l174 -305h-67z" />
    <glyph glyph-name="iacute" unicode="&#xed;" horiz-adv-x="374" 
d="M57 0l185 952h75l-186 -952h-74zM254 1112l291 305h90l-305 -305h-76z" />
    <glyph glyph-name="icircumflex" unicode="&#xee;" horiz-adv-x="374" 
d="M57 0l185 952h75l-186 -952h-74zM115 1112h-78l297 305h65l183 -305h-68l-156 242z" />
    <glyph glyph-name="idieresis" unicode="&#xef;" horiz-adv-x="374" 
d="M57 0l185 952h75l-186 -952h-74zM160 1317q25 0 39 -14t14 -37q0 -27 -19.5 -46.5t-46.5 -19.5q-25 0 -39 14t-14 37q0 28 19 47t47 19zM530 1317q25 0 39.5 -14t14.5 -37q0 -27 -19.5 -46.5t-46.5 -19.5q-25 0 -39 14t-14 37q0 28 18.5 47t46.5 19z" />
    <glyph glyph-name="eth" unicode="&#xf0;" horiz-adv-x="1165" 
d="M1094 1272l-164 -55q166 -206 166 -549q0 -98 -11 -185q-29 -225 -184.5 -364t-374.5 -139q-201 0 -323.5 119.5t-122.5 312.5q0 116 43 220t117 179t176 118.5t215 43.5q140 0 241 -57.5t148 -159.5h4q-22 265 -166 434l-358 -123l14 70l299 102q-121 118 -317 188v7
h137q148 -62 254 -168l221 75zM528 47q204 0 344 142.5t140 349.5q0 164 -102 265t-273 101q-202 0 -342.5 -142.5t-140.5 -348.5q0 -164 102.5 -265.5t271.5 -101.5z" />
    <glyph glyph-name="ntilde" unicode="&#xf1;" horiz-adv-x="1144" 
d="M700 973q164 0 254 -86t90 -238q0 -61 -10 -110l-104 -539h-76l104 537q11 68 11 100q0 128 -74 198t-211 70q-171 0 -295.5 -115t-161.5 -309l-94 -481h-76l185 952h69l-41 -219h4q69 115 179.5 177.5t246.5 62.5zM1036 1360l-16 -92q-72 -97 -174 -97q-37 0 -67.5 13.5
t-69.5 48.5q-54 49 -105 49q-99 0 -184 -123h-4l16 90q36 46 81.5 72.5t92.5 26.5q37 0 67.5 -13.5t69.5 -48.5q34 -29 56.5 -40t48.5 -11q102 0 184 125h4z" />
    <glyph glyph-name="ograve" unicode="&#xf2;" horiz-adv-x="1165" 
d="M639 973q202 0 325 -119.5t123 -310.5q0 -239 -161 -401t-400 -162q-201 0 -323.5 119.5t-122.5 312.5q0 155 73.5 284t202 203t283.5 74zM637 905q-201 0 -341 -143t-140 -348q0 -164 102 -265.5t270 -101.5q204 0 344 142.5t140 349.5q0 164 -102 265t-273 101z
M692 1112l-190 305h84l174 -305h-68z" />
    <glyph glyph-name="oacute" unicode="&#xf3;" horiz-adv-x="1165" 
d="M639 973q202 0 325 -119.5t123 -310.5q0 -239 -161 -401t-400 -162q-201 0 -323.5 119.5t-122.5 312.5q0 155 73.5 284t202 203t283.5 74zM637 905q-201 0 -341 -143t-140 -348q0 -164 102 -265.5t270 -101.5q204 0 344 142.5t140 349.5q0 164 -102 265t-273 101z
M651 1112l291 305h90l-305 -305h-76z" />
    <glyph glyph-name="ocircumflex" unicode="&#xf4;" horiz-adv-x="1165" 
d="M639 973q202 0 325 -119.5t123 -310.5q0 -239 -161 -401t-400 -162q-201 0 -323.5 119.5t-122.5 312.5q0 155 73.5 284t202 203t283.5 74zM637 905q-201 0 -341 -143t-140 -348q0 -164 102 -265.5t270 -101.5q204 0 344 142.5t140 349.5q0 164 -102 265t-273 101z
M512 1112h-78l297 305h66l182 -305h-68l-155 242z" />
    <glyph glyph-name="otilde" unicode="&#xf5;" horiz-adv-x="1165" 
d="M639 973q202 0 325 -119.5t123 -310.5q0 -239 -161 -401t-400 -162q-201 0 -323.5 119.5t-122.5 312.5q0 155 73.5 284t202 203t283.5 74zM637 905q-201 0 -341 -143t-140 -348q0 -164 102 -265.5t270 -101.5q204 0 344 142.5t140 349.5q0 164 -102 265t-273 101z
M1047 1360l-17 -92q-72 -97 -174 -97q-37 0 -67.5 13.5t-69.5 48.5q-54 49 -105 49q-99 0 -184 -123h-4l16 90q36 46 81.5 72.5t92.5 26.5q37 0 68 -13.5t70 -48.5q34 -29 56 -40t48 -11q102 0 184 125h5z" />
    <glyph glyph-name="odieresis" unicode="&#xf6;" horiz-adv-x="1165" 
d="M639 973q202 0 325 -119.5t123 -310.5q0 -239 -161 -401t-400 -162q-201 0 -323.5 119.5t-122.5 312.5q0 155 73.5 284t202 203t283.5 74zM637 905q-201 0 -341 -143t-140 -348q0 -164 102 -265.5t270 -101.5q204 0 344 142.5t140 349.5q0 164 -102 265t-273 101z
M557 1317q25 0 39 -14t14 -37q0 -27 -19 -46.5t-46 -19.5q-25 0 -39 14t-14 37q0 28 18.5 47t46.5 19zM928 1317q25 0 39 -14t14 -37q0 -27 -19.5 -46.5t-46.5 -19.5q-25 0 -39 14t-14 37q0 28 19 47t47 19z" />
    <glyph glyph-name="divide" unicode="&#xf7;" horiz-adv-x="1331" 
d="M797 1174q24 0 39.5 -15t15.5 -37q0 -30 -20.5 -49.5t-49.5 -19.5q-25 0 -39 14t-14 37q0 29 19.5 49.5t48.5 20.5zM111 582l14 67h1147l-12 -67h-1149zM604 176q24 0 39.5 -14.5t15.5 -36.5q0 -30 -20.5 -50t-48.5 -20q-25 0 -39 14t-14 37q0 30 19 50t48 20z" />
    <glyph glyph-name="oslash" unicode="&#xf8;" horiz-adv-x="1165" 
d="M1182 952l-172 -151q77 -110 77 -258q0 -239 -161 -401t-400 -162q-199 0 -321 116l-111 -96h-98l166 145q-82 111 -82 267q0 155 73.5 284t202 203t283.5 74q205 0 328 -123l116 102h99zM156 414q0 -128 63 -219l692 608q-107 102 -274 102q-201 0 -341 -143t-140 -348z
M1012 539q0 125 -60 213l-692 -607q106 -98 268 -98q204 0 344 142.5t140 349.5z" />
    <glyph glyph-name="ugrave" unicode="&#xf9;" horiz-adv-x="1144" 
d="M903 0h-69l40 215h-4q-69 -113 -179.5 -174t-246.5 -61q-163 0 -253.5 85.5t-90.5 237.5q0 55 11 109l106 540h76l-105 -536q-10 -58 -10 -101q0 -128 73.5 -198t209.5 -70q171 0 295.5 115t161.5 309l94 481h75zM676 1112l-191 305h84l174 -305h-67z" />
    <glyph glyph-name="uacute" unicode="&#xfa;" horiz-adv-x="1144" 
d="M903 0h-69l40 215h-4q-69 -113 -179.5 -174t-246.5 -61q-163 0 -253.5 85.5t-90.5 237.5q0 55 11 109l106 540h76l-105 -536q-10 -58 -10 -101q0 -128 73.5 -198t209.5 -70q171 0 295.5 115t161.5 309l94 481h75zM631 1112l291 305h90l-305 -305h-76z" />
    <glyph glyph-name="ucircumflex" unicode="&#xfb;" horiz-adv-x="1144" 
d="M903 0h-69l40 215h-4q-69 -113 -179.5 -174t-246.5 -61q-163 0 -253.5 85.5t-90.5 237.5q0 55 11 109l106 540h76l-105 -536q-10 -58 -10 -101q0 -128 73.5 -198t209.5 -70q171 0 295.5 115t161.5 309l94 481h75zM496 1112h-78l297 305h65l183 -305h-68l-156 242z" />
    <glyph glyph-name="udieresis" unicode="&#xfc;" horiz-adv-x="1144" 
d="M903 0h-69l40 215h-4q-69 -113 -179.5 -174t-246.5 -61q-163 0 -253.5 85.5t-90.5 237.5q0 55 11 109l106 540h76l-105 -536q-10 -58 -10 -101q0 -128 73.5 -198t209.5 -70q171 0 295.5 115t161.5 309l94 481h75zM541 1317q25 0 39 -14t14 -37q0 -27 -19.5 -46.5
t-46.5 -19.5q-25 0 -39 14t-14 37q0 28 19 47t47 19zM911 1317q25 0 39.5 -14t14.5 -37q0 -27 -19.5 -46.5t-46.5 -19.5q-25 0 -39 14t-14 37q0 28 18.5 47t46.5 19z" />
    <glyph glyph-name="yacute" unicode="&#xfd;" horiz-adv-x="993" 
d="M158 -389h-84l297 434l-256 907h78l231 -823h4l553 823h84zM565 1112l291 305h90l-305 -305h-76z" />
    <glyph glyph-name="thorn" unicode="&#xfe;" horiz-adv-x="1226" 
d="M709 973q198 0 319 -119t121 -311q0 -157 -73 -286.5t-199.5 -203t-278.5 -73.5q-159 0 -268.5 71.5t-145.5 194.5h-4l-123 -635h-75l354 1823h76l-125 -658h4q70 93 179 145t239 52zM590 47q204 0 343.5 142.5t139.5 349.5q0 164 -102 265t-273 101q-201 0 -341 -143
t-140 -348q0 -164 102.5 -265.5t270.5 -101.5z" />
    <glyph glyph-name="ydieresis" unicode="&#xff;" horiz-adv-x="993" 
d="M158 -389h-84l297 434l-256 907h78l231 -823h4l553 823h84zM471 1317q25 0 39 -14t14 -37q0 -27 -19 -46.5t-46 -19.5q-25 0 -39 14t-14 37q0 28 18.5 47t46.5 19zM842 1317q25 0 39 -14t14 -37q0 -27 -19.5 -46.5t-46.5 -19.5q-25 0 -39 14t-14 37q0 28 19 47t47 19z
" />
    <glyph glyph-name="Amacron" unicode="&#x100;" horiz-adv-x="1470" 
d="M1249 0l-96 344h-877l-231 -344h-92l917 1360h74l389 -1360h-84zM895 1260h-4l-565 -842h807zM668 1612l12 63h586l-13 -63h-585z" />
    <glyph glyph-name="amacron" unicode="&#x101;" horiz-adv-x="1226" 
d="M985 0h-67l34 188h-4q-69 -99 -181 -153.5t-249 -54.5q-197 0 -317.5 119.5t-120.5 312.5q0 155 73 284t199.5 203t278.5 74q162 0 272 -74.5t144 -202.5h4l51 256h67zM528 47q204 0 344 142.5t140 349.5q0 164 -102 265t-273 101q-201 0 -341 -143t-140 -348
q0 -164 102 -265.5t270 -101.5zM434 1221l12 63h586l-12 -63h-586z" />
    <glyph glyph-name="Abreve" unicode="&#x102;" horiz-adv-x="1470" 
d="M1249 0l-96 344h-877l-231 -344h-92l917 1360h74l389 -1360h-84zM895 1260h-4l-565 -842h807zM1227 1778h59q-38 -121 -123.5 -185.5t-206.5 -64.5q-123 0 -189.5 66t-68.5 184h58q3 -89 54.5 -137t145.5 -48t165 48t106 137z" />
    <glyph glyph-name="abreve" unicode="&#x103;" horiz-adv-x="1226" 
d="M985 0h-67l34 188h-4q-69 -99 -181 -153.5t-249 -54.5q-197 0 -317.5 119.5t-120.5 312.5q0 155 73 284t199.5 203t278.5 74q162 0 272 -74.5t144 -202.5h4l51 256h67zM528 47q204 0 344 142.5t140 349.5q0 164 -102 265t-273 101q-201 0 -341 -143t-140 -348
q0 -164 102 -265.5t270 -101.5zM993 1386h60q-38 -121 -123.5 -185t-206.5 -64q-123 0 -189.5 65.5t-68.5 183.5h57q3 -89 55 -136.5t146 -47.5t164.5 47.5t105.5 136.5z" />
    <glyph glyph-name="Aogonek" unicode="&#x104;" horiz-adv-x="1470" 
d="M1122 -350q77 0 150 59h4l-14 -76q-55 -43 -142 -43q-77 0 -119.5 37.5t-42.5 100.5q0 181 281 309l-86 307h-877l-231 -344h-92l917 1360h74l389 -1360h-35q-125 -52 -199.5 -120t-74.5 -140q0 -41 26 -65.5t72 -24.5zM891 1260l-565 -842h807l-238 842h-4z" />
    <glyph glyph-name="aogonek" unicode="&#x105;" horiz-adv-x="1226" 
d="M985 0h-35q-125 -52 -199.5 -120t-74.5 -140q0 -41 26 -65.5t72 -24.5q77 0 150 59h4l-15 -76q-55 -43 -141 -43q-77 0 -119.5 37.5t-42.5 100.5q0 97 81.5 179t236.5 144l24 137h-4q-69 -99 -181 -153.5t-249 -54.5q-197 0 -317.5 119.5t-120.5 312.5q0 155 73 284
t199.5 203t278.5 74q162 0 272 -74.5t144 -202.5h4l51 256h67zM528 47q204 0 344 142.5t140 349.5q0 164 -102 265t-273 101q-201 0 -341 -143t-140 -348q0 -164 102 -265.5t270 -101.5z" />
    <glyph glyph-name="Cacute" unicode="&#x106;" horiz-adv-x="1368" 
d="M922 1380q149 0 282.5 -42t200.5 -117l-19 -91h-6q-61 84 -189 130.5t-273 46.5q-204 0 -369 -94t-257.5 -259t-92.5 -368q0 -240 152.5 -386.5t408.5 -146.5q263 0 448 185h6l-20 -113q-167 -145 -444 -145q-288 0 -459.5 165.5t-171.5 434.5q0 170 61 318.5t167 254
t255.5 166.5t319.5 61zM907 1503l291 305h90l-305 -305h-76z" />
    <glyph glyph-name="cacute" unicode="&#x107;" horiz-adv-x="1013" 
d="M647 973q109 0 204.5 -31.5t143.5 -89.5l-16 -80h-6q-50 66 -135 99.5t-189 33.5q-140 0 -254 -66t-176.5 -177.5t-62.5 -243.5q0 -164 104.5 -267.5t274.5 -103.5q102 0 177 33.5t146 105.5h6l-18 -100q-121 -106 -314 -106q-207 0 -329.5 119.5t-122.5 312.5
q0 155 71.5 282.5t202 203t293.5 75.5zM629 1112l291 305h90l-305 -305h-76z" />
    <glyph glyph-name="Ccircumflex" unicode="&#x108;" horiz-adv-x="1368" 
d="M922 1380q149 0 282.5 -42t200.5 -117l-19 -91h-6q-61 84 -189 130.5t-273 46.5q-204 0 -369 -94t-257.5 -259t-92.5 -368q0 -240 152.5 -386.5t408.5 -146.5q263 0 448 185h6l-20 -113q-167 -145 -444 -145q-288 0 -459.5 165.5t-171.5 434.5q0 170 61 318.5t167 254
t255.5 166.5t319.5 61zM768 1503h-78l297 305h66l182 -305h-68l-155 242z" />
    <glyph glyph-name="ccircumflex" unicode="&#x109;" horiz-adv-x="1013" 
d="M647 973q109 0 204.5 -31.5t143.5 -89.5l-16 -80h-6q-50 66 -135 99.5t-189 33.5q-140 0 -254 -66t-176.5 -177.5t-62.5 -243.5q0 -164 104.5 -267.5t274.5 -103.5q102 0 177 33.5t146 105.5h6l-18 -100q-121 -106 -314 -106q-207 0 -329.5 119.5t-122.5 312.5
q0 155 71.5 282.5t202 203t293.5 75.5zM489 1112h-77l297 305h65l182 -305h-67l-156 242z" />
    <glyph glyph-name="Cdotaccent" unicode="&#x10a;" horiz-adv-x="1368" 
d="M922 1380q149 0 282.5 -42t200.5 -117l-19 -91h-6q-61 84 -189 130.5t-273 46.5q-204 0 -369 -94t-257.5 -259t-92.5 -368q0 -240 152.5 -386.5t408.5 -146.5q263 0 448 185h6l-20 -113q-167 -145 -444 -145q-288 0 -459.5 165.5t-171.5 434.5q0 170 61 318.5t167 254
t255.5 166.5t319.5 61zM997 1708q25 0 40.5 -14.5t15.5 -36.5q0 -29 -20 -48.5t-48 -19.5q-25 0 -39 14t-14 37q0 28 19.5 48t45.5 20z" />
    <glyph glyph-name="cdotaccent" unicode="&#x10b;" horiz-adv-x="1013" 
d="M647 973q109 0 204.5 -31.5t143.5 -89.5l-16 -80h-6q-50 66 -135 99.5t-189 33.5q-140 0 -254 -66t-176.5 -177.5t-62.5 -243.5q0 -164 104.5 -267.5t274.5 -103.5q102 0 177 33.5t146 105.5h6l-18 -100q-121 -106 -314 -106q-207 0 -329.5 119.5t-122.5 312.5
q0 155 71.5 282.5t202 203t293.5 75.5zM719 1317q24 0 39.5 -14.5t15.5 -36.5q0 -29 -19.5 -48.5t-47.5 -19.5q-25 0 -39.5 14t-14.5 37q0 28 20 48t46 20z" />
    <glyph glyph-name="Ccaron" unicode="&#x10c;" horiz-adv-x="1368" 
d="M922 1380q149 0 282.5 -42t200.5 -117l-19 -91h-6q-61 84 -189 130.5t-273 46.5q-204 0 -369 -94t-257.5 -259t-92.5 -368q0 -240 152.5 -386.5t408.5 -146.5q263 0 448 185h6l-20 -113q-167 -145 -444 -145q-288 0 -459.5 165.5t-171.5 434.5q0 170 61 318.5t167 254
t255.5 166.5t319.5 61zM997 1503h-65l-182 305h67l156 -241l244 241h77z" />
    <glyph glyph-name="ccaron" unicode="&#x10d;" horiz-adv-x="1013" 
d="M647 973q109 0 204.5 -31.5t143.5 -89.5l-16 -80h-6q-50 66 -135 99.5t-189 33.5q-140 0 -254 -66t-176.5 -177.5t-62.5 -243.5q0 -164 104.5 -267.5t274.5 -103.5q102 0 177 33.5t146 105.5h6l-18 -100q-121 -106 -314 -106q-207 0 -329.5 119.5t-122.5 312.5
q0 155 71.5 282.5t202 203t293.5 75.5zM719 1112h-66l-182 305h68l155 -241l244 241h78z" />
    <glyph glyph-name="Dcaron" unicode="&#x10e;" horiz-adv-x="1488" 
d="M348 1360h461q301 0 472 -153t171 -419q0 -234 -99.5 -413t-283 -277t-424.5 -98h-561zM1372 780q0 237 -151 371.5t-420 134.5h-387l-236 -1212h471q324 0 523.5 195t199.5 511zM922 1503h-66l-182 305h67l156 -241l244 241h78z" />
    <glyph glyph-name="dcaron" unicode="&#x10f;" horiz-adv-x="1226" 
d="M985 0h-70l35 188h-4q-69 -99 -180.5 -153.5t-247.5 -54.5q-197 0 -317.5 119.5t-120.5 312.5q0 155 73 284t199.5 203t278.5 74q158 0 266 -71.5t145 -194.5h5l141 727h76zM528 47q133 0 244 65t174.5 178t63.5 249q0 164 -102 265t-271 101q-201 0 -341 -143t-140 -348
q0 -164 102 -265.5t270 -101.5zM1298 1085l136 349h75l-149 -349h-62z" />
    <glyph glyph-name="Dcroat" unicode="&#x110;" horiz-adv-x="1517" 
d="M375 1360h461q301 0 472 -153t171 -419q0 -234 -99.5 -413t-283 -277t-424.5 -98h-561l127 655h-158l14 72h158zM205 74h471q324 0 523.5 195t199.5 511q0 237 -151.5 371.5t-420.5 134.5h-387l-108 -559h479l-14 -72h-480z" />
    <glyph glyph-name="dcroat" unicode="&#x111;" horiz-adv-x="1245" 
d="M985 0h-70l35 188h-4q-69 -99 -180.5 -153.5t-247.5 -54.5q-197 0 -317.5 119.5t-120.5 312.5q0 155 73 284t199.5 203t278.5 74q158 0 266 -71.5t145 -194.5h5l79 407h-450l14 66h449l49 254h76l-50 -254h164l-12 -66h-164zM528 47q133 0 244 65t174.5 178t63.5 249
q0 164 -102 265t-271 101q-201 0 -341 -143t-140 -348q0 -164 102 -265.5t270 -101.5z" />
    <glyph glyph-name="Emacron" unicode="&#x112;" horiz-adv-x="1251" 
d="M305 729h744l-15 -74h-743l-113 -581h891l-14 -74h-971l264 1360h971l-14 -74h-891zM590 1612l12 63h586l-12 -63h-586z" />
    <glyph glyph-name="emacron" unicode="&#x113;" horiz-adv-x="1146" 
d="M639 973q201 0 318.5 -107.5t117.5 -285.5q0 -62 -14 -117h-903q-2 -16 -2 -49q0 -170 110.5 -268.5t302.5 -98.5q211 0 373 152h6l-18 -97q-67 -58 -161.5 -90t-203.5 -32q-224 0 -354.5 114.5t-130.5 311.5q0 119 43 224t117 180.5t177.5 119t221.5 43.5zM637 905
q-171 0 -300 -104.5t-167 -272.5h834q2 12 2 37q0 155 -99 247.5t-270 92.5zM434 1221l12 63h586l-12 -63h-586z" />
    <glyph glyph-name="Ebreve" unicode="&#x114;" horiz-adv-x="1251" 
d="M305 729h744l-15 -74h-743l-113 -581h891l-14 -74h-971l264 1360h971l-14 -74h-891zM1149 1778h59q-38 -121 -123.5 -185.5t-205.5 -64.5q-123 0 -189.5 66t-68.5 184h57q3 -89 55 -137t146 -48t164.5 48t105.5 137z" />
    <glyph glyph-name="ebreve" unicode="&#x115;" horiz-adv-x="1146" 
d="M639 973q201 0 318.5 -107.5t117.5 -285.5q0 -62 -14 -117h-903q-2 -16 -2 -49q0 -170 110.5 -268.5t302.5 -98.5q211 0 373 152h6l-18 -97q-67 -58 -161.5 -90t-203.5 -32q-224 0 -354.5 114.5t-130.5 311.5q0 119 43 224t117 180.5t177.5 119t221.5 43.5zM637 905
q-171 0 -300 -104.5t-167 -272.5h834q2 12 2 37q0 155 -99 247.5t-270 92.5zM993 1386h60q-38 -121 -123.5 -185t-206.5 -64q-123 0 -189.5 65.5t-68.5 183.5h57q3 -89 55 -136.5t146 -47.5t164.5 47.5t105.5 136.5z" />
    <glyph glyph-name="Edotaccent" unicode="&#x116;" horiz-adv-x="1251" 
d="M305 729h744l-15 -74h-743l-113 -581h891l-14 -74h-971l264 1360h971l-14 -74h-891zM895 1708q24 0 39.5 -14.5t15.5 -36.5q0 -29 -19.5 -48.5t-47.5 -19.5q-25 0 -39.5 14t-14.5 37q0 28 20 48t46 20z" />
    <glyph glyph-name="edotaccent" unicode="&#x117;" horiz-adv-x="1146" 
d="M639 973q201 0 318.5 -107.5t117.5 -285.5q0 -62 -14 -117h-903q-2 -16 -2 -49q0 -170 110.5 -268.5t302.5 -98.5q211 0 373 152h6l-18 -97q-67 -58 -161.5 -90t-203.5 -32q-224 0 -354.5 114.5t-130.5 311.5q0 119 43 224t117 180.5t177.5 119t221.5 43.5zM637 905
q-171 0 -300 -104.5t-167 -272.5h834q2 12 2 37q0 155 -99 247.5t-270 92.5zM739 1317q25 0 40.5 -14.5t15.5 -36.5q0 -29 -20 -48.5t-48 -19.5q-25 0 -39 14t-14 37q0 28 19.5 48t45.5 20z" />
    <glyph glyph-name="Eogonek" unicode="&#x118;" horiz-adv-x="1251" 
d="M305 729h744l-15 -74h-743l-113 -581h891l-14 -74h-35q-125 -52 -200 -120t-75 -140q0 -41 26.5 -65.5t72.5 -24.5q76 0 149 59h4l-14 -76q-55 -43 -141 -43q-77 0 -119.5 37.5t-42.5 100.5q0 152 203 268v4h-799l264 1360h971l-14 -74h-891z" />
    <glyph glyph-name="eogonek" unicode="&#x119;" horiz-adv-x="1146" 
d="M1061 463h-903q-2 -16 -2 -49q0 -170 110.5 -268.5t302.5 -98.5q214 0 373 150h6l-18 -93q-36 -31 -115 -75q-128 -72 -194 -139.5t-66 -145.5q0 -42 27 -68t77 -26q79 0 150 59h4l-14 -76q-58 -43 -146 -43q-77 0 -120.5 40.5t-43.5 105.5q0 128 150 244v4
q-46 -4 -74 -4q-224 0 -354.5 114.5t-130.5 311.5q0 119 43 224t117 180.5t177.5 119t221.5 43.5q201 0 318.5 -107.5t117.5 -285.5q0 -62 -14 -117zM637 905q-171 0 -300 -104.5t-167 -272.5h834q2 12 2 37q0 155 -99 247.5t-270 92.5z" />
    <glyph glyph-name="Ecaron" unicode="&#x11a;" horiz-adv-x="1251" 
d="M305 729h744l-15 -74h-743l-113 -581h891l-14 -74h-971l264 1360h971l-14 -74h-891zM895 1503h-66l-182 305h68l155 -241l244 241h78z" />
    <glyph glyph-name="ecaron" unicode="&#x11b;" horiz-adv-x="1146" 
d="M639 973q201 0 318.5 -107.5t117.5 -285.5q0 -62 -14 -117h-903q-2 -16 -2 -49q0 -170 110.5 -268.5t302.5 -98.5q211 0 373 152h6l-18 -97q-67 -58 -161.5 -90t-203.5 -32q-224 0 -354.5 114.5t-130.5 311.5q0 119 43 224t117 180.5t177.5 119t221.5 43.5zM637 905
q-171 0 -300 -104.5t-167 -272.5h834q2 12 2 37q0 155 -99 247.5t-270 92.5zM739 1112h-65l-182 305h67l156 -241l243 241h78z" />
    <glyph glyph-name="Gcircumflex" unicode="&#x11c;" horiz-adv-x="1449" 
d="M926 1380q172 0 311.5 -40.5t220.5 -120.5l-16 -91h-6q-154 179 -510 179q-156 0 -291 -54.5t-231 -150t-150.5 -230.5t-54.5 -290q0 -243 154 -386t415 -143q131 0 224.5 29t187.5 94l75 395h-493l14 74h572l-97 -510q-120 -84 -226 -119.5t-261 -35.5q-297 0 -471 161
t-174 432q0 230 101.5 414t286 288.5t419.5 104.5zM784 1503h-77l297 305h65l182 -305h-67l-156 242z" />
    <glyph glyph-name="gcircumflex" unicode="&#x11d;" horiz-adv-x="1226" 
d="M1169 952l-170 -878q-45 -234 -188.5 -359t-376.5 -125q-280 0 -403 152l14 82h6q59 -84 152.5 -125t234.5 -41q201 0 324 108t162 312l18 96h-4q-71 -91 -180 -141.5t-240 -50.5q-197 0 -317.5 119.5t-120.5 312.5q0 154 73 282.5t199.5 202.5t278.5 74
q160 0 269.5 -74.5t143.5 -200.5h5l51 254h69zM528 49q204 0 343 141.5t139 350.5q0 162 -102 263t-271 101q-204 0 -342.5 -142t-138.5 -351q0 -163 102 -263t270 -100zM512 1112h-78l297 305h66l182 -305h-68l-155 242z" />
    <glyph glyph-name="Gbreve" unicode="&#x11e;" horiz-adv-x="1449" 
d="M926 1380q172 0 311.5 -40.5t220.5 -120.5l-16 -91h-6q-154 179 -510 179q-156 0 -291 -54.5t-231 -150t-150.5 -230.5t-54.5 -290q0 -243 154 -386t415 -143q131 0 224.5 29t187.5 94l75 395h-493l14 74h572l-97 -510q-120 -84 -226 -119.5t-261 -35.5q-297 0 -471 161
t-174 432q0 230 101.5 414t286 288.5t419.5 104.5zM1268 1778h59q-38 -121 -123.5 -185.5t-206.5 -64.5q-123 0 -189.5 66t-68.5 184h58q3 -89 54.5 -137t145.5 -48t165 48t106 137z" />
    <glyph glyph-name="gbreve" unicode="&#x11f;" horiz-adv-x="1226" 
d="M1169 952l-170 -878q-45 -234 -188.5 -359t-376.5 -125q-280 0 -403 152l14 82h6q59 -84 152.5 -125t234.5 -41q201 0 324 108t162 312l18 96h-4q-71 -91 -180 -141.5t-240 -50.5q-197 0 -317.5 119.5t-120.5 312.5q0 154 73 282.5t199.5 202.5t278.5 74
q160 0 269.5 -74.5t143.5 -200.5h5l51 254h69zM528 49q204 0 343 141.5t139 350.5q0 162 -102 263t-271 101q-204 0 -342.5 -142t-138.5 -351q0 -163 102 -263t270 -100zM995 1386h60q-38 -121 -123.5 -185t-206.5 -64q-123 0 -189.5 65.5t-68.5 183.5h57q3 -89 55 -136.5
t146 -47.5t164.5 47.5t105.5 136.5z" />
    <glyph glyph-name="Gdotaccent" unicode="&#x120;" horiz-adv-x="1449" 
d="M926 1380q172 0 311.5 -40.5t220.5 -120.5l-16 -91h-6q-154 179 -510 179q-156 0 -291 -54.5t-231 -150t-150.5 -230.5t-54.5 -290q0 -243 154 -386t415 -143q131 0 224.5 29t187.5 94l75 395h-493l14 74h572l-97 -510q-120 -84 -226 -119.5t-261 -35.5q-297 0 -471 161
t-174 432q0 230 101.5 414t286 288.5t419.5 104.5zM1014 1708q24 0 39.5 -14.5t15.5 -36.5q0 -29 -20 -48.5t-48 -19.5q-25 0 -39 14t-14 37q0 28 20 48t46 20z" />
    <glyph glyph-name="gdotaccent" unicode="&#x121;" horiz-adv-x="1226" 
d="M1169 952l-170 -878q-45 -234 -188.5 -359t-376.5 -125q-280 0 -403 152l14 82h6q59 -84 152.5 -125t234.5 -41q201 0 324 108t162 312l18 96h-4q-71 -91 -180 -141.5t-240 -50.5q-197 0 -317.5 119.5t-120.5 312.5q0 154 73 282.5t199.5 202.5t278.5 74
q160 0 269.5 -74.5t143.5 -200.5h5l51 254h69zM528 49q204 0 343 141.5t139 350.5q0 162 -102 263t-271 101q-204 0 -342.5 -142t-138.5 -351q0 -163 102 -263t270 -100zM741 1317q25 0 40.5 -14.5t15.5 -36.5q0 -29 -20 -48.5t-48 -19.5q-25 0 -39 14t-14 37q0 28 19.5 48
t45.5 20z" />
    <glyph glyph-name="uni0122" unicode="&#x122;" horiz-adv-x="1449" 
d="M926 1380q172 0 311.5 -40.5t220.5 -120.5l-16 -91h-6q-154 179 -510 179q-156 0 -291 -54.5t-231 -150t-150.5 -230.5t-54.5 -290q0 -243 154 -386t415 -143q131 0 224.5 29t187.5 94l75 395h-493l14 74h572l-97 -510q-120 -84 -226 -119.5t-261 -35.5q-297 0 -471 161
t-174 432q0 230 101.5 414t286 288.5t419.5 104.5zM340 -430l283 293h84l-289 -293h-78z" />
    <glyph glyph-name="uni0123" unicode="&#x123;" horiz-adv-x="1226" 
d="M1028 1417l-295 -305h-84l301 305h78zM1169 952l-170 -878q-45 -234 -188.5 -359t-376.5 -125q-280 0 -403 152l14 82h6q59 -84 152.5 -125t234.5 -41q201 0 324 108t162 312l18 96h-4q-71 -91 -180 -141.5t-240 -50.5q-197 0 -317.5 119.5t-120.5 312.5q0 154 73 282.5
t199.5 202.5t278.5 74q160 0 269.5 -74.5t143.5 -200.5h5l51 254h69zM528 49q204 0 343 141.5t139 350.5q0 162 -102 263t-271 101q-204 0 -342.5 -142t-138.5 -351q0 -163 102 -263t270 -100z" />
    <glyph glyph-name="Hcircumflex" unicode="&#x124;" horiz-adv-x="1509" 
d="M1161 0l127 655h-997l-127 -655h-80l264 1360h80l-123 -631h998l122 631h80l-264 -1360h-80zM762 1503h-78l297 305h66l182 -305h-68l-155 242z" />
    <glyph glyph-name="hcircumflex" unicode="&#x125;" horiz-adv-x="1144" 
d="M700 973q164 0 254 -86t90 -238q0 -61 -10 -110l-104 -539h-76l104 535q11 68 11 102q0 128 -74 198t-211 70q-171 0 -295.5 -115t-161.5 -309l-94 -481h-76l279 1434h76l-133 -686h4q69 108 177.5 166.5t239.5 58.5zM205 1567h-78l297 305h65l183 -305h-68l-155 241z
" />
    <glyph glyph-name="Hbar" unicode="&#x126;" horiz-adv-x="1515" 
d="M1243 0h-80l127 655h-997l-127 -655h-80l190 977h-129l13 70h129l61 313h80l-61 -313h997l61 313h80l-61 -313h131l-12 -70h-131zM307 729h998l49 248h-998z" />
    <glyph glyph-name="hbar" unicode="&#x127;" horiz-adv-x="1150" 
d="M707 973q164 0 254 -86t90 -238q0 -56 -11 -110l-104 -539h-76l105 535q10 62 10 102q0 128 -74 198t-211 70q-171 0 -295.5 -115t-161.5 -309l-94 -481h-76l218 1114h-144l13 66h143l49 254h76l-49 -254h409l-14 -66h-408l-71 -366h4q69 108 177.5 166.5t240.5 58.5z
" />
    <glyph glyph-name="Itilde" unicode="&#x128;" horiz-adv-x="432" 
d="M84 0l264 1360h80l-264 -1360h-80zM758 1751l-17 -92q-71 -96 -174 -96q-37 0 -67.5 13t-69.5 48q-54 49 -104 49q-100 0 -185 -123h-4l17 90q36 46 81.5 72.5t92.5 26.5q37 0 67.5 -13.5t69.5 -48.5q34 -29 56 -40t48 -11q103 0 185 125h4z" />
    <glyph glyph-name="itilde" unicode="&#x129;" horiz-adv-x="374" 
d="M57 0l185 952h75l-186 -952h-74zM649 1360l-16 -92q-72 -97 -174 -97q-37 0 -67.5 13.5t-69.5 48.5q-54 49 -105 49q-99 0 -184 -123h-4l16 90q36 46 81.5 72.5t92.5 26.5q37 0 67.5 -13.5t69.5 -48.5q34 -29 56.5 -40t48.5 -11q102 0 184 125h4z" />
    <glyph glyph-name="Imacron" unicode="&#x12a;" horiz-adv-x="432" 
d="M84 0l264 1360h80l-264 -1360h-80zM147 1612l13 63h585l-12 -63h-586z" />
    <glyph glyph-name="imacron" unicode="&#x12b;" horiz-adv-x="374" 
d="M57 0l185 952h75l-186 -952h-74zM39 1221l12 63h586l-12 -63h-586z" />
    <glyph glyph-name="Ibreve" unicode="&#x12c;" horiz-adv-x="432" 
d="M84 0l264 1360h80l-264 -1360h-80zM707 1778h59q-38 -121 -123.5 -185.5t-206.5 -64.5q-123 0 -189.5 66t-68.5 184h58q3 -89 54.5 -137t145.5 -48t165 48t106 137z" />
    <glyph glyph-name="ibreve" unicode="&#x12d;" horiz-adv-x="374" 
d="M57 0l185 952h75l-186 -952h-74zM598 1386h59q-38 -121 -123 -185t-206 -64q-123 0 -189.5 65.5t-68.5 183.5h57q3 -89 55 -136.5t146 -47.5t164.5 47.5t105.5 136.5z" />
    <glyph glyph-name="Iogonek" unicode="&#x12e;" horiz-adv-x="432" 
d="M18 -350q79 0 150 59h4l-12 -76q-58 -43 -148 -43q-75 0 -116 37.5t-41 100.5q0 84 57 155.5t176 141.5l260 1335h80l-264 -1360h-10q-234 -135 -234 -262q0 -41 26 -64.5t72 -23.5z" />
    <glyph glyph-name="iogonek" unicode="&#x12f;" horiz-adv-x="374" 
d="M131 0h-18q-234 -135 -234 -262q0 -41 26 -64.5t72 -23.5q79 0 150 59h4l-12 -76q-58 -43 -148 -43q-75 0 -116 37.5t-41 100.5q0 85 61.5 159.5t187.5 145.5l179 919h75zM346 1317q25 0 39 -14t14 -37q0 -28 -19.5 -48t-45.5 -20q-24 0 -38.5 14.5t-14.5 38.5
q0 28 18.5 47t46.5 19z" />
    <glyph glyph-name="Idotaccent" unicode="&#x130;" horiz-adv-x="432" 
d="M84 0l264 1360h80l-264 -1360h-80zM453 1708q24 0 39.5 -14.5t15.5 -36.5q0 -29 -20 -48.5t-48 -19.5q-25 0 -39 14t-14 37q0 28 20 48t46 20z" />
    <glyph glyph-name="dotlessi" unicode="&#x131;" horiz-adv-x="374" 
d="M57 0l185 952h75l-186 -952h-74z" />
    <glyph glyph-name="IJ" unicode="&#x132;" horiz-adv-x="1462" 
d="M84 0l264 1360h80l-264 -1360h-80zM1493 1360l-182 -936q-43 -220 -173.5 -332t-342.5 -112q-250 0 -375 153l16 86h6q107 -166 357 -166q171 0 285 98t149 279l178 930h82z" />
    <glyph glyph-name="ij" unicode="&#x133;" horiz-adv-x="749" 
d="M346 1317q25 0 39 -14t14 -37q0 -28 -19.5 -48t-45.5 -20q-24 0 -38.5 14.5t-14.5 38.5q0 28 18.5 47t46.5 19zM57 0l185 952h75l-184 -952h-76zM721 1317q25 0 39 -14t14 -37q0 -28 -19.5 -48t-45.5 -20q-25 0 -39.5 15t-14.5 38q0 28 19 47t47 19zM692 952l-221 -1138
q-23 -120 -74 -172t-143 -52q-55 0 -104 29l14 72h6q37 -33 84 -33q61 0 92.5 36.5t48.5 123.5l221 1134h76z" />
    <glyph glyph-name="Jcircumflex" unicode="&#x134;" horiz-adv-x="1030" 
d="M1061 1360l-182 -936q-43 -220 -174 -332t-343 -112q-249 0 -374 153l16 86h6q107 -166 357 -166q171 0 285 98t149 279l178 930h82zM854 1503h-78l297 305h66l182 -305h-68l-155 242z" />
    <glyph glyph-name="jcircumflex" unicode="&#x135;" horiz-adv-x="374" 
d="M317 952l-221 -1138q-23 -120 -74 -172t-143 -52q-55 0 -104 29l14 72h6q37 -33 84 -33q61 0 92.5 36.5t48.5 123.5l222 1134h75zM115 1112h-78l297 305h65l183 -305h-68l-156 242z" />
    <glyph glyph-name="uni0136" unicode="&#x136;" horiz-adv-x="1234" 
d="M987 0l-694 668l-129 -668h-80l264 1360h80l-127 -651l913 651h127l-958 -678l713 -682h-109zM217 -430l283 293h84l-289 -293h-78z" />
    <glyph glyph-name="uni0137" unicode="&#x137;" horiz-adv-x="929" 
d="M700 0l-479 459l-90 -459h-74l279 1434h74l-181 -926l623 444h117l-668 -473l502 -479h-103zM63 -430l283 293h84l-289 -293h-78z" />
    <glyph glyph-name="kgreenlandic" unicode="&#x138;" horiz-adv-x="929" 
d="M700 0l-479 461l-90 -461h-74l185 952h75l-88 -446l623 446h117l-668 -473l502 -479h-103z" />
    <glyph glyph-name="Lacute" unicode="&#x139;" horiz-adv-x="1171" 
d="M84 0l264 1360h80l-250 -1286h862l-12 -74h-944zM362 1503l291 305h90l-305 -305h-76z" />
    <glyph glyph-name="lacute" unicode="&#x13a;" horiz-adv-x="374" 
d="M412 1434l-279 -1434h-76l279 1434h76zM344 1567l291 305h90l-305 -305h-76z" />
    <glyph glyph-name="uni013B" unicode="&#x13b;" horiz-adv-x="1171" 
d="M84 0l264 1360h80l-250 -1286h862l-12 -74h-944zM190 -430l283 293h84l-289 -293h-78z" />
    <glyph glyph-name="uni013C" unicode="&#x13c;" horiz-adv-x="374" 
d="M412 1434l-279 -1434h-76l279 1434h76zM-252 -430l283 293h84l-289 -293h-78z" />
    <glyph glyph-name="Lcaron" unicode="&#x13d;" horiz-adv-x="1171" 
d="M84 0l264 1360h80l-250 -1286h862l-12 -74h-944zM586 1085l135 349h76l-150 -349h-61z" />
    <glyph glyph-name="lcaron" unicode="&#x13e;" horiz-adv-x="374" 
d="M412 1434l-279 -1434h-76l279 1434h76zM444 1085l136 349h75l-149 -349h-62z" />
    <glyph glyph-name="Ldot" unicode="&#x13f;" horiz-adv-x="1171" 
d="M84 0l264 1360h80l-250 -1286h862l-12 -74h-944zM842 739q24 0 39.5 -14.5t15.5 -36.5q0 -29 -20 -48t-48 -19q-25 0 -39 14t-14 37q0 28 20 47.5t46 19.5z" />
    <glyph glyph-name="ldot" unicode="&#x140;" horiz-adv-x="397" 
d="M412 1434l-279 -1434h-76l279 1434h76zM438 739q25 0 40.5 -14.5t15.5 -36.5q0 -29 -20 -48t-48 -19q-25 0 -39 14t-14 37q0 28 19.5 47.5t45.5 19.5z" />
    <glyph glyph-name="Lslash" unicode="&#x141;" horiz-adv-x="1198" 
d="M111 0l92 469l-180 -96l16 88l180 96l156 803h80l-148 -754l680 365l-16 -86l-680 -367l-86 -444h862l-12 -74h-944z" />
    <glyph glyph-name="lslash" unicode="&#x142;" horiz-adv-x="419" 
d="M147 0h-75l131 670l-174 -113l18 86l172 113l131 678h76l-121 -621l209 137l-16 -86l-209 -137z" />
    <glyph glyph-name="Nacute" unicode="&#x143;" horiz-adv-x="1519" 
d="M1251 0h-88l-747 1280h-4l-250 -1280h-78l264 1360h107l735 -1254h4l244 1254h78zM905 1503l291 305h90l-305 -305h-76z" />
    <glyph glyph-name="nacute" unicode="&#x144;" horiz-adv-x="1144" 
d="M700 973q164 0 254 -86t90 -238q0 -61 -10 -110l-104 -539h-76l104 537q11 68 11 100q0 128 -74 198t-211 70q-171 0 -295.5 -115t-161.5 -309l-94 -481h-76l185 952h69l-41 -219h4q69 115 179.5 177.5t246.5 62.5zM641 1112l291 305h90l-305 -305h-76z" />
    <glyph glyph-name="uni0145" unicode="&#x145;" horiz-adv-x="1519" 
d="M1251 0h-88l-747 1280h-4l-250 -1280h-78l264 1360h107l735 -1254h4l244 1254h78zM322 -430l282 293h84l-289 -293h-77z" />
    <glyph glyph-name="uni0146" unicode="&#x146;" horiz-adv-x="1144" 
d="M700 973q164 0 254 -86t90 -238q0 -61 -10 -110l-104 -539h-76l104 537q11 68 11 100q0 128 -74 198t-211 70q-171 0 -295.5 -115t-161.5 -309l-94 -481h-76l185 952h69l-41 -219h4q69 115 179.5 177.5t246.5 62.5zM145 -430l283 293h84l-289 -293h-78z" />
    <glyph glyph-name="Ncaron" unicode="&#x147;" horiz-adv-x="1519" 
d="M1251 0h-88l-747 1280h-4l-250 -1280h-78l264 1360h107l735 -1254h4l244 1254h78zM995 1503h-65l-182 305h67l156 -241l243 241h78z" />
    <glyph glyph-name="ncaron" unicode="&#x148;" horiz-adv-x="1144" 
d="M700 973q164 0 254 -86t90 -238q0 -61 -10 -110l-104 -539h-76l104 537q11 68 11 100q0 128 -74 198t-211 70q-171 0 -295.5 -115t-161.5 -309l-94 -481h-76l185 952h69l-41 -219h4q69 115 179.5 177.5t246.5 62.5zM731 1112h-65l-183 305h68l156 -241l243 241h78z" />
    <glyph glyph-name="napostrophe" unicode="&#x149;" horiz-adv-x="1144" 
d="M250 1434h74q-43 -207 -127 -334h-60q89 150 113 334zM700 973q164 0 254 -86t90 -238q0 -61 -10 -110l-104 -539h-76l104 537q11 68 11 100q0 128 -74 198t-211 70q-171 0 -295.5 -115t-161.5 -309l-94 -481h-76l185 952h69l-41 -219h4q69 115 179.5 177.5t246.5 62.5z
" />
    <glyph glyph-name="Eng" unicode="&#x14a;" horiz-adv-x="1519" 
d="M1516 1360l-302 -1546q-23 -121 -74.5 -172.5t-146.5 -51.5q-61 0 -104 21l14 78h6q39 -25 84 -25q61 0 95 36t49 118l37 186l-758 1272h-4l-250 -1276h-78l264 1360h107l735 -1237h4l244 1237h78z" />
    <glyph glyph-name="eng" unicode="&#x14b;" horiz-adv-x="1144" 
d="M700 973q164 0 254 -86t90 -238q0 -61 -10 -110l-141 -725q-23 -119 -74 -171.5t-143 -52.5q-56 0 -105 29l15 72h4q37 -33 86 -33q61 0 93.5 37t49.5 123l139 719q11 68 11 100q0 128 -74 198t-211 70q-171 0 -295.5 -115t-161.5 -309l-94 -481h-76l185 952h69l-41 -213
h4q70 111 180.5 172.5t245.5 61.5z" />
    <glyph glyph-name="Omacron" unicode="&#x14c;" horiz-adv-x="1570" 
d="M907 1380q283 0 454 -167t171 -437q0 -166 -61 -314t-166 -253.5t-251 -167t-311 -61.5q-283 0 -453.5 167t-170.5 437q0 166 61 314t166 253.5t251 167t310 61.5zM905 1307q-198 0 -359.5 -94t-254 -259.5t-92.5 -367.5q0 -239 150.5 -386t398.5 -147q146 0 277 55.5
t224.5 151t148 229t54.5 283.5q0 240 -149.5 387.5t-397.5 147.5zM715 1612l12 63h586l-13 -63h-585z" />
    <glyph glyph-name="omacron" unicode="&#x14d;" horiz-adv-x="1165" 
d="M639 973q202 0 325 -119.5t123 -310.5q0 -239 -161 -401t-400 -162q-201 0 -323.5 119.5t-122.5 312.5q0 155 73.5 284t202 203t283.5 74zM637 905q-201 0 -341 -143t-140 -348q0 -164 102 -265.5t270 -101.5q204 0 344 142.5t140 349.5q0 164 -102 265t-273 101z
M436 1221l13 63h585l-12 -63h-586z" />
    <glyph glyph-name="Obreve" unicode="&#x14e;" horiz-adv-x="1570" 
d="M907 1380q283 0 454 -167t171 -437q0 -166 -61 -314t-166 -253.5t-251 -167t-311 -61.5q-283 0 -453.5 167t-170.5 437q0 166 61 314t166 253.5t251 167t310 61.5zM905 1307q-198 0 -359.5 -94t-254 -259.5t-92.5 -367.5q0 -239 150.5 -386t398.5 -147q146 0 277 55.5
t224.5 151t148 229t54.5 283.5q0 240 -149.5 387.5t-397.5 147.5zM1274 1778h59q-38 -121 -123.5 -185.5t-205.5 -64.5q-123 0 -190 66t-69 184h58q3 -89 55 -137t146 -48t164.5 48t105.5 137z" />
    <glyph glyph-name="obreve" unicode="&#x14f;" horiz-adv-x="1165" 
d="M639 973q202 0 325 -119.5t123 -310.5q0 -239 -161 -401t-400 -162q-201 0 -323.5 119.5t-122.5 312.5q0 155 73.5 284t202 203t283.5 74zM637 905q-201 0 -341 -143t-140 -348q0 -164 102 -265.5t270 -101.5q204 0 344 142.5t140 349.5q0 164 -102 265t-273 101z
M995 1386h60q-38 -121 -123.5 -185t-206.5 -64q-123 0 -189.5 65.5t-68.5 183.5h57q3 -89 55 -136.5t146 -47.5t164.5 47.5t105.5 136.5z" />
    <glyph glyph-name="Ohungarumlaut" unicode="&#x150;" horiz-adv-x="1570" 
d="M907 1380q283 0 454 -167t171 -437q0 -166 -61 -314t-166 -253.5t-251 -167t-311 -61.5q-283 0 -453.5 167t-170.5 437q0 166 61 314t166 253.5t251 167t310 61.5zM905 1307q-198 0 -359.5 -94t-254 -259.5t-92.5 -367.5q0 -239 150.5 -386t398.5 -147q146 0 277 55.5
t224.5 151t148 229t54.5 283.5q0 240 -149.5 387.5t-397.5 147.5zM766 1503l295 305h84l-301 -305h-78zM1094 1503l290 305h89l-306 -305h-73z" />
    <glyph glyph-name="ohungarumlaut" unicode="&#x151;" horiz-adv-x="1165" 
d="M639 973q202 0 325 -119.5t123 -310.5q0 -239 -161 -401t-400 -162q-201 0 -323.5 119.5t-122.5 312.5q0 155 73.5 284t202 203t283.5 74zM637 905q-201 0 -341 -143t-140 -348q0 -164 102 -265.5t270 -101.5q204 0 344 142.5t140 349.5q0 164 -102 265t-273 101z
M487 1112l295 305h84l-301 -305h-78zM815 1112l291 305h88l-305 -305h-74z" />
    <glyph glyph-name="OE" unicode="&#x152;" horiz-adv-x="2295" 
d="M1356 729h743l-14 -74h-744l-112 -581h891l-15 -74h-1351q-301 0 -472 153.5t-171 421.5q0 175 58.5 321t163.5 248.5t255.5 159t331.5 56.5h1450l-15 -74h-891zM1384 1286h-469q-325 0 -523.5 -193.5t-198.5 -508.5q0 -240 151 -375t420 -135h385z" />
    <glyph glyph-name="oe" unicode="&#x153;" horiz-adv-x="2070" 
d="M1985 463h-904q-2 -16 -2 -49q0 -170 111 -268.5t301 -98.5q217 0 375 152h6l-19 -97q-141 -122 -358 -122q-193 0 -314 83t-155 234h-4q-64 -147 -195 -232t-303 -85q-200 0 -322 119.5t-122 312.5q0 155 73.5 284t201.5 203t282 74q169 0 281 -85.5t143 -232.5h4
q67 148 198.5 233t301.5 85q200 0 317 -106.5t117 -282.5q0 -66 -14 -121zM528 47q206 0 346 141.5t140 350.5q0 164 -103 265t-274 101q-201 0 -341 -143t-140 -348q0 -164 102 -265.5t270 -101.5zM1559 905q-171 0 -299 -104.5t-166 -272.5h833q2 12 2 37q0 154 -101 247
t-269 93z" />
    <glyph glyph-name="Racute" unicode="&#x154;" horiz-adv-x="1333" 
d="M348 1360h551q416 0 416 -334q0 -202 -115 -321t-330 -134l291 -571h-90l-285 569h-512l-110 -569h-80zM1235 1022q0 264 -344 264h-477l-125 -643h524q205 0 313.5 98t108.5 281zM788 1503l291 305h90l-305 -305h-76z" />
    <glyph glyph-name="racute" unicode="&#x155;" horiz-adv-x="712" 
d="M631 973q92 0 145 -39l-16 -82h-6q-49 49 -133 49q-153 0 -255 -113t-143 -329l-90 -459h-76l185 952h69l-39 -202h4q126 223 355 223zM436 1112l291 305h90l-305 -305h-76z" />
    <glyph glyph-name="uni0156" unicode="&#x156;" horiz-adv-x="1333" 
d="M348 1360h551q416 0 416 -334q0 -202 -115 -321t-330 -134l291 -571h-90l-285 569h-512l-110 -569h-80zM1235 1022q0 264 -344 264h-477l-125 -643h524q205 0 313.5 98t108.5 281zM260 -430l283 293h84l-289 -293h-78z" />
    <glyph glyph-name="uni0157" unicode="&#x157;" horiz-adv-x="712" 
d="M631 973q92 0 145 -39l-16 -82h-6q-49 49 -133 49q-153 0 -255 -113t-143 -329l-90 -459h-76l185 952h69l-39 -202h4q126 223 355 223zM-252 -430l283 293h84l-289 -293h-78z" />
    <glyph glyph-name="Rcaron" unicode="&#x158;" horiz-adv-x="1333" 
d="M348 1360h551q416 0 416 -334q0 -202 -115 -321t-330 -134l291 -571h-90l-285 569h-512l-110 -569h-80zM1235 1022q0 264 -344 264h-477l-125 -643h524q205 0 313.5 98t108.5 281zM879 1503h-66l-182 305h67l156 -241l244 241h78z" />
    <glyph glyph-name="rcaron" unicode="&#x159;" horiz-adv-x="712" 
d="M631 973q92 0 145 -39l-16 -82h-6q-49 49 -133 49q-153 0 -255 -113t-143 -329l-90 -459h-76l185 952h69l-39 -202h4q126 223 355 223zM526 1112h-65l-182 305h67l156 -241l243 241h78z" />
    <glyph glyph-name="Sacute" unicode="&#x15a;" horiz-adv-x="1169" 
d="M707 1380q151 0 279 -37t194 -100l-17 -88h-6q-60 72 -179.5 112t-275.5 40q-191 0 -315.5 -97.5t-124.5 -248.5q0 -105 84 -157.5t297 -72.5q251 -23 354 -96t103 -221q0 -199 -148.5 -316.5t-400.5 -117.5q-170 0 -311.5 44.5t-214.5 120.5l16 86h6q152 -178 512 -178
q212 0 336.5 94.5t124.5 255.5q0 115 -88.5 172t-313.5 80q-242 24 -339 91t-97 202q0 189 148 310.5t377 121.5zM713 1503l291 305h90l-306 -305h-75z" />
    <glyph glyph-name="sacute" unicode="&#x15b;" horiz-adv-x="872" 
d="M504 973q102 0 189.5 -24.5t133.5 -65.5l-16 -82h-6q-82 104 -301 104q-141 0 -230.5 -68.5t-89.5 -177.5q0 -67 56.5 -98.5t201.5 -40.5q184 -12 259 -63t75 -160q0 -145 -110 -231t-293 -86q-118 0 -216 30t-153 84l16 82h7q47 -62 137.5 -95.5t208.5 -33.5
q152 0 242 66t90 178q0 76 -61 112t-216 46q-176 12 -245.5 57t-69.5 143q0 146 108 235t283 89zM496 1112l290 305h91l-306 -305h-75z" />
    <glyph glyph-name="Scircumflex" unicode="&#x15c;" horiz-adv-x="1169" 
d="M707 1380q151 0 279 -37t194 -100l-17 -88h-6q-60 72 -179.5 112t-275.5 40q-191 0 -315.5 -97.5t-124.5 -248.5q0 -105 84 -157.5t297 -72.5q251 -23 354 -96t103 -221q0 -199 -148.5 -316.5t-400.5 -117.5q-170 0 -311.5 44.5t-214.5 120.5l16 86h6q152 -178 512 -178
q212 0 336.5 94.5t124.5 255.5q0 115 -88.5 172t-313.5 80q-242 24 -339 91t-97 202q0 189 148 310.5t377 121.5zM573 1503h-77l297 305h65l182 -305h-67l-156 242z" />
    <glyph glyph-name="scircumflex" unicode="&#x15d;" horiz-adv-x="872" 
d="M504 973q102 0 189.5 -24.5t133.5 -65.5l-16 -82h-6q-82 104 -301 104q-141 0 -230.5 -68.5t-89.5 -177.5q0 -67 56.5 -98.5t201.5 -40.5q184 -12 259 -63t75 -160q0 -145 -110 -231t-293 -86q-118 0 -216 30t-153 84l16 82h7q47 -62 137.5 -95.5t208.5 -33.5
q152 0 242 66t90 178q0 76 -61 112t-216 46q-176 12 -245.5 57t-69.5 143q0 146 108 235t283 89zM356 1112h-77l296 305h66l182 -305h-67l-156 242z" />
    <glyph glyph-name="Scedilla" unicode="&#x15e;" horiz-adv-x="1169" 
d="M25 145l16 86h6q152 -178 512 -178q212 0 336.5 94.5t124.5 255.5q0 115 -88.5 172t-313.5 80q-242 24 -339 91t-97 202q0 189 148 310.5t377 121.5q151 0 279 -37t194 -100l-17 -88h-6q-60 72 -179.5 112t-275.5 40q-191 0 -315.5 -97.5t-124.5 -248.5q0 -105 84 -157.5
t297 -72.5q251 -23 354 -96t103 -221q0 -201 -149 -317.5t-400 -116.5h-14l-74 -109v-4h18q59 0 94 -34t35 -89q0 -75 -49 -114.5t-137 -39.5q-47 0 -91.5 12t-66.5 31l10 68h5q20 -23 58.5 -37t82.5 -14q65 0 94 27.5t29 66.5q0 33 -24.5 51.5t-71.5 18.5q-31 0 -82 -19
l2 21l112 166q-146 8 -267 50.5t-189 112.5z" />
    <glyph glyph-name="scedilla" unicode="&#x15f;" horiz-adv-x="872" 
d="M4 94l16 82h7q47 -62 137.5 -95.5t208.5 -33.5q152 0 242 66t90 178q0 76 -61 112t-216 46q-176 12 -245.5 57t-69.5 143q0 146 108 235t283 89q102 0 189.5 -24.5t133.5 -65.5l-16 -82h-6q-82 104 -301 104q-141 0 -230.5 -68.5t-89.5 -177.5q0 -67 56.5 -98.5
t201.5 -40.5q184 -12 259 -63t75 -160q0 -140 -104.5 -226.5t-282.5 -90.5l-74 -109v-4h19q59 0 94 -34t35 -89q0 -75 -49.5 -114.5t-137.5 -39.5q-47 0 -91 12t-66 31l10 68h4q20 -23 58.5 -37t82.5 -14q65 0 94 27.5t29 66.5q0 33 -24.5 51.5t-71.5 18.5q-31 0 -82 -19
l2 21l113 164q-106 6 -193 36t-137 78z" />
    <glyph glyph-name="Scaron" unicode="&#x160;" horiz-adv-x="1169" 
d="M707 1380q151 0 279 -37t194 -100l-17 -88h-6q-60 72 -179.5 112t-275.5 40q-191 0 -315.5 -97.5t-124.5 -248.5q0 -105 84 -157.5t297 -72.5q251 -23 354 -96t103 -221q0 -199 -148.5 -316.5t-400.5 -117.5q-170 0 -311.5 44.5t-214.5 120.5l16 86h6q152 -178 512 -178
q212 0 336.5 94.5t124.5 255.5q0 115 -88.5 172t-313.5 80q-242 24 -339 91t-97 202q0 189 148 310.5t377 121.5zM803 1503h-66l-182 305h68l155 -241l244 241h78z" />
    <glyph glyph-name="scaron" unicode="&#x161;" horiz-adv-x="872" 
d="M504 973q102 0 189.5 -24.5t133.5 -65.5l-16 -82h-6q-82 104 -301 104q-141 0 -230.5 -68.5t-89.5 -177.5q0 -67 56.5 -98.5t201.5 -40.5q184 -12 259 -63t75 -160q0 -145 -110 -231t-293 -86q-118 0 -216 30t-153 84l16 82h7q47 -62 137.5 -95.5t208.5 -33.5
q152 0 242 66t90 178q0 76 -61 112t-216 46q-176 12 -245.5 57t-69.5 143q0 146 108 235t283 89zM586 1112h-66l-182 305h68l155 -241l244 241h78z" />
    <glyph glyph-name="uni0162" unicode="&#x162;" horiz-adv-x="1169" 
d="M1276 1286h-492l-249 -1286h-9l-77 -129v-4h22q59 0 94 -34t35 -89q0 -75 -49 -114.5t-137 -39.5q-47 0 -91.5 12t-66.5 31l10 68h4q20 -23 59 -37t83 -14q65 0 94 27.5t29 66.5q0 33 -25 51.5t-72 18.5q-31 0 -82 -19l2 21l111 184h-14l250 1286h-494l12 74h1067z" />
    <glyph glyph-name="uni0163" unicode="&#x163;" horiz-adv-x="716" 
d="M393 -20q-23 0 -55 4l-78 -113v-4h19q59 0 94 -34t35 -89q0 -75 -49.5 -114.5t-137.5 -39.5q-47 0 -91.5 12t-66.5 31l11 68h4q20 -23 58.5 -37t82.5 -14q65 0 94 27.5t29 66.5q0 33 -24.5 51.5t-71.5 18.5q-31 0 -82 -19l2 21l123 182q-59 22 -90 73t-31 124q0 42 8 81
l121 609h-197l13 67h198l68 252h55l-49 -252h342l-12 -67h-344l-119 -611q-8 -36 -8 -67q0 -76 39.5 -118t115.5 -42q90 0 158 59h6l-18 -90q-56 -36 -152 -36z" />
    <glyph glyph-name="Tcaron" unicode="&#x164;" horiz-adv-x="1169" 
d="M784 1286l-249 -1286h-80l250 1286h-494l12 74h1067l-14 -74h-492zM819 1503h-65l-183 305h68l156 -241l243 241h78z" />
    <glyph glyph-name="tcaron" unicode="&#x165;" horiz-adv-x="716" 
d="M371 885l-119 -611q-8 -36 -8 -67q0 -76 39.5 -118t115.5 -42q90 0 158 59h6l-18 -90q-56 -36 -152 -36q-108 0 -166.5 56.5t-58.5 158.5q0 42 8 81l121 609h-197l13 67h198l68 252h55l-49 -252h342l-12 -67h-344zM627 1085l135 349h76l-150 -349h-61z" />
    <glyph glyph-name="Tbar" unicode="&#x166;" horiz-adv-x="1169" 
d="M682 760h307l-14 -70h-307l-133 -690h-80l133 690h-309l14 70h309l103 526h-494l12 74h1067l-14 -74h-492z" />
    <glyph glyph-name="tbar" unicode="&#x167;" horiz-adv-x="737" 
d="M401 47q90 0 158 59h6l-18 -90q-56 -36 -152 -36q-108 0 -166.5 56.5t-58.5 158.5q0 42 8 81l51 256h-166l13 66h166l57 287h-197l13 67h198l68 252h55l-49 -252h342l-12 -67h-344l-56 -287h312l-13 -66h-311l-51 -258q-8 -36 -8 -67q0 -76 39.5 -118t115.5 -42z" />
    <glyph glyph-name="Utilde" unicode="&#x168;" horiz-adv-x="1427" 
d="M1458 1360l-155 -797q-114 -583 -652 -583q-241 0 -374.5 113.5t-133.5 324.5q0 61 17 151l153 791h80l-153 -793q-15 -73 -15 -139q0 -182 110.5 -278.5t315.5 -96.5q235 0 379.5 132.5t194.5 385.5l155 789h78zM1253 1751l-16 -92q-71 -96 -174 -96q-37 0 -67.5 13
t-69.5 48q-54 49 -105 49q-99 0 -184 -123h-4l16 90q36 46 81.5 72.5t92.5 26.5q37 0 68 -13.5t70 -48.5q34 -29 56 -40t48 -11q102 0 184 125h4z" />
    <glyph glyph-name="utilde" unicode="&#x169;" horiz-adv-x="1144" 
d="M903 0h-69l40 215h-4q-69 -113 -179.5 -174t-246.5 -61q-163 0 -253.5 85.5t-90.5 237.5q0 55 11 109l106 540h76l-105 -536q-10 -58 -10 -101q0 -128 73.5 -198t209.5 -70q171 0 295.5 115t161.5 309l94 481h75zM1030 1360l-16 -92q-72 -97 -174 -97q-37 0 -68 13.5
t-70 48.5q-54 49 -104 49q-99 0 -184 -123h-4l16 90q36 46 81.5 72.5t92.5 26.5q37 0 67.5 -13.5t69.5 -48.5q34 -29 56.5 -40t48.5 -11q102 0 184 125h4z" />
    <glyph glyph-name="Umacron" unicode="&#x16a;" horiz-adv-x="1427" 
d="M1458 1360l-155 -797q-114 -583 -652 -583q-241 0 -374.5 113.5t-133.5 324.5q0 61 17 151l153 791h80l-153 -793q-15 -73 -15 -139q0 -182 110.5 -278.5t315.5 -96.5q235 0 379.5 132.5t194.5 385.5l155 789h78zM643 1612l12 63h586l-12 -63h-586z" />
    <glyph glyph-name="umacron" unicode="&#x16b;" horiz-adv-x="1144" 
d="M903 0h-69l40 215h-4q-69 -113 -179.5 -174t-246.5 -61q-163 0 -253.5 85.5t-90.5 237.5q0 55 11 109l106 540h76l-105 -536q-10 -58 -10 -101q0 -128 73.5 -198t209.5 -70q171 0 295.5 115t161.5 309l94 481h75zM420 1221l12 63h586l-12 -63h-586z" />
    <glyph glyph-name="Ubreve" unicode="&#x16c;" horiz-adv-x="1427" 
d="M1458 1360l-155 -797q-114 -583 -652 -583q-241 0 -374.5 113.5t-133.5 324.5q0 61 17 151l153 791h80l-153 -793q-15 -73 -15 -139q0 -182 110.5 -278.5t315.5 -96.5q235 0 379.5 132.5t194.5 385.5l155 789h78zM1202 1778h60q-38 -121 -123.5 -185.5t-206.5 -64.5
q-123 0 -189.5 66t-68.5 184h57q3 -89 55 -137t146 -48t164.5 48t105.5 137z" />
    <glyph glyph-name="ubreve" unicode="&#x16d;" horiz-adv-x="1144" 
d="M903 0h-69l40 215h-4q-69 -113 -179.5 -174t-246.5 -61q-163 0 -253.5 85.5t-90.5 237.5q0 55 11 109l106 540h76l-105 -536q-10 -58 -10 -101q0 -128 73.5 -198t209.5 -70q171 0 295.5 115t161.5 309l94 481h75zM977 1386h59q-38 -121 -123 -185t-206 -64
q-123 0 -189.5 65.5t-68.5 183.5h57q3 -89 55 -136.5t146 -47.5t164.5 47.5t105.5 136.5z" />
    <glyph glyph-name="Uring" unicode="&#x16e;" horiz-adv-x="1427" 
d="M1458 1360l-155 -797q-114 -583 -652 -583q-241 0 -374.5 113.5t-133.5 324.5q0 61 17 151l153 791h80l-153 -793q-15 -73 -15 -139q0 -182 110.5 -278.5t315.5 -96.5q235 0 379.5 132.5t194.5 385.5l155 789h78zM958 1819q66 0 106 -40.5t40 -103.5q0 -75 -51 -125.5
t-123 -50.5q-66 0 -107 39t-41 102q0 75 51 127t125 52zM956 1759q-46 0 -79 -33.5t-33 -80.5q0 -37 23.5 -61.5t62.5 -24.5q45 0 78.5 33.5t33.5 78.5q0 39 -23.5 63.5t-62.5 24.5z" />
    <glyph glyph-name="uring" unicode="&#x16f;" horiz-adv-x="1144" 
d="M903 0h-69l40 215h-4q-69 -113 -179.5 -174t-246.5 -61q-163 0 -253.5 85.5t-90.5 237.5q0 55 11 109l106 540h76l-105 -536q-10 -58 -10 -101q0 -128 73.5 -198t209.5 -70q171 0 295.5 115t161.5 309l94 481h75zM735 1427q66 0 106 -40t40 -103q0 -74 -50.5 -125
t-123.5 -51q-66 0 -107 39t-41 102q0 75 51 126.5t125 51.5zM733 1368q-46 0 -79 -34t-33 -81q0 -37 23.5 -61.5t62.5 -24.5q45 0 78.5 34t33.5 79q0 39 -23.5 63.5t-62.5 24.5z" />
    <glyph glyph-name="Uhungarumlaut" unicode="&#x170;" horiz-adv-x="1427" 
d="M1458 1360l-155 -797q-114 -583 -652 -583q-241 0 -374.5 113.5t-133.5 324.5q0 61 17 151l153 791h80l-153 -793q-15 -73 -15 -139q0 -182 110.5 -278.5t315.5 -96.5q235 0 379.5 132.5t194.5 385.5l155 789h78zM694 1503l295 305h84l-301 -305h-78zM1022 1503l291 305
h88l-305 -305h-74z" />
    <glyph glyph-name="uhungarumlaut" unicode="&#x171;" horiz-adv-x="1144" 
d="M903 0h-69l40 215h-4q-69 -113 -179.5 -174t-246.5 -61q-163 0 -253.5 85.5t-90.5 237.5q0 55 11 109l106 540h76l-105 -536q-10 -58 -10 -101q0 -128 73.5 -198t209.5 -70q171 0 295.5 115t161.5 309l94 481h75zM467 1112l295 305h84l-301 -305h-78zM795 1112l290 305
h89l-306 -305h-73z" />
    <glyph glyph-name="Uogonek" unicode="&#x172;" horiz-adv-x="1427" 
d="M1458 1360l-155 -797q-79 -404 -373 -540q-264 -122 -264 -275q0 -44 27 -71t77 -27q79 0 150 59h4l-15 -76q-55 -43 -145 -43q-79 0 -121.5 41t-42.5 105q0 132 145 244v4q-62 -4 -94 -4q-241 0 -374.5 113.5t-133.5 324.5q0 61 17 151l153 791h80l-153 -793
q-15 -73 -15 -139q0 -182 110.5 -278.5t315.5 -96.5q236 0 381 132.5t195 385.5l153 789h78z" />
    <glyph glyph-name="uogonek" unicode="&#x173;" horiz-adv-x="1144" 
d="M903 0h-26q-125 -52 -200 -120t-75 -140q0 -41 26 -65.5t72 -24.5q77 0 150 59h4l-14 -76q-55 -43 -142 -43q-77 0 -119 37.5t-42 100.5q0 192 305 319l32 168h-4q-69 -113 -179.5 -174t-246.5 -61q-163 0 -253.5 85.5t-90.5 237.5q0 55 11 109l106 540h76l-105 -536
q-10 -58 -10 -101q0 -128 73.5 -198t209.5 -70q171 0 295.5 115t161.5 309l94 481h75z" />
    <glyph glyph-name="Wcircumflex" unicode="&#x174;" horiz-adv-x="2045" 
d="M1434 0h-78l-187 1223h-4l-659 -1223h-78l-205 1360h84l178 -1231h4l666 1231h74l186 -1233h4l660 1233h88zM1030 1503h-78l297 305h66l182 -305h-67l-156 242z" />
    <glyph glyph-name="wcircumflex" unicode="&#x175;" horiz-adv-x="1525" 
d="M1059 0h-74l-151 829h-5l-473 -829h-71l-170 952h73l150 -843h4l479 843h64l153 -848h4l476 848h79zM692 1112h-78l297 305h66l182 -305h-67l-156 242z" />
    <glyph glyph-name="Ycircumflex" unicode="&#x176;" horiz-adv-x="1325" 
d="M535 0l118 623l-456 737h96l407 -670l666 670h107l-740 -737l-119 -623h-79zM668 1503h-78l297 305h65l183 -305h-68l-156 242z" />
    <glyph glyph-name="ycircumflex" unicode="&#x177;" horiz-adv-x="993" 
d="M158 -389h-84l297 434l-256 907h78l231 -823h4l553 823h84zM426 1112h-78l297 305h66l182 -305h-68l-155 242z" />
    <glyph glyph-name="Ydieresis" unicode="&#x178;" horiz-adv-x="1325" 
d="M535 0l118 623l-456 737h96l407 -670l666 670h107l-740 -737l-119 -623h-79zM713 1708q25 0 39 -14t14 -37q0 -27 -19.5 -46.5t-46.5 -19.5q-25 0 -39 14t-14 37q0 28 19 47t47 19zM1083 1708q25 0 39.5 -14t14.5 -37q0 -27 -19.5 -46.5t-46.5 -19.5q-25 0 -39 14t-14 37
q0 28 18.5 47t46.5 19z" />
    <glyph glyph-name="Zacute" unicode="&#x179;" horiz-adv-x="1288" 
d="M133 74h977l-12 -74h-1090l12 68l1205 1218h-926l14 74h1039l-15 -68zM799 1503l291 305h90l-306 -305h-75z" />
    <glyph glyph-name="zacute" unicode="&#x17a;" horiz-adv-x="987" 
d="M823 68l-12 -68h-819l12 61l860 824h-669l12 67h778l-12 -61l-860 -823h710zM567 1112l291 305h90l-305 -305h-76z" />
    <glyph glyph-name="Zdotaccent" unicode="&#x17b;" horiz-adv-x="1288" 
d="M133 74h977l-12 -74h-1090l12 68l1205 1218h-926l14 74h1039l-15 -68zM889 1708q24 0 39.5 -14.5t15.5 -36.5q0 -29 -19.5 -48.5t-47.5 -19.5q-25 0 -39.5 14t-14.5 37q0 28 20 48t46 20z" />
    <glyph glyph-name="zdotaccent" unicode="&#x17c;" horiz-adv-x="987" 
d="M823 68l-12 -68h-819l12 61l860 824h-669l12 67h778l-12 -61l-860 -823h710zM657 1317q25 0 40.5 -14.5t15.5 -36.5q0 -29 -20 -48.5t-48 -19.5q-25 0 -39 14t-14 37q0 28 19.5 48t45.5 20z" />
    <glyph glyph-name="Zcaron" unicode="&#x17d;" horiz-adv-x="1288" 
d="M133 74h977l-12 -74h-1090l12 68l1205 1218h-926l14 74h1039l-15 -68zM889 1503h-66l-182 305h68l155 -241l244 241h78z" />
    <glyph glyph-name="zcaron" unicode="&#x17e;" horiz-adv-x="987" 
d="M823 68l-12 -68h-819l12 61l860 824h-669l12 67h778l-12 -61l-860 -823h710zM657 1112h-65l-182 305h67l156 -241l244 241h77z" />
    <glyph glyph-name="florin" unicode="&#x192;" horiz-adv-x="1331" 
d="M1151 1380q109 0 166 -41l-19 -69h-6q-43 43 -143 43q-214 0 -291 -238l-76 -229h355l-13 -68h-366l-209 -626q-101 -295 -346 -295q-112 0 -166 41l18 71h6q45 -45 146 -45q96 0 161 58.5t107 179.5l207 616h-322l13 68h334l79 239q100 295 365 295z" />
    <glyph glyph-name="AEacute" unicode="&#x1fc;" horiz-adv-x="2111" 
d="M1167 729h744l-15 -74h-743l-113 -581h891l-14 -74h-971l68 344h-668l-315 -344h-99l1248 1360h1001l-14 -74h-891zM1190 1266l-778 -848h616l166 848h-4zM1206 1503l291 305h90l-305 -305h-76z" />
    <glyph glyph-name="aeacute" unicode="&#x1fd;" horiz-adv-x="2068" 
d="M1982 463h-903q-2 -14 -2 -45q0 -172 111 -271.5t303 -99.5q211 0 373 152h6l-19 -97q-141 -122 -358 -122q-183 0 -301 74t-154 204h-4l-53 -258h-63l36 190h-4q-70 -99 -182 -154.5t-250 -55.5q-197 0 -317.5 119.5t-120.5 312.5q0 155 72.5 284t199 203t279.5 74
q161 0 271.5 -74.5t144.5 -200.5h4l51 254h63l-37 -192h5q68 101 180.5 157t253.5 56q196 0 313 -107t117 -282q0 -62 -15 -121zM528 47q204 0 344 142.5t140 349.5q0 164 -102 265t-273 101q-201 0 -341 -143t-140 -348q0 -164 102 -265.5t270 -101.5zM1556 905
q-170 0 -298 -104.5t-166 -272.5h833q2 12 2 37q0 155 -100.5 247.5t-270.5 92.5zM1108 1112l291 305h90l-305 -305h-76z" />
    <glyph glyph-name="Oslashacute" unicode="&#x1fe;" horiz-adv-x="1570" 
d="M1647 1360l-234 -205q119 -157 119 -379q0 -166 -61 -314t-166 -253.5t-251 -167t-311 -61.5q-293 0 -467 180l-180 -160h-106l241 213q-112 152 -112 371q0 166 61 314t166 253.5t251 167t310 61.5q287 0 459 -172l172 152h109zM199 586q0 -187 94 -320l1014 891
q-153 150 -402 150q-198 0 -359.5 -94t-254 -259.5t-92.5 -367.5zM1452 772q0 197 -100 330l-1014 -891q152 -158 410 -158q146 0 277 55.5t224.5 151t148 229t54.5 283.5zM926 1503l291 305h90l-306 -305h-75z" />
    <glyph glyph-name="oslashacute" unicode="&#x1ff;" horiz-adv-x="1165" 
d="M1182 952l-172 -151q77 -110 77 -258q0 -239 -161 -401t-400 -162q-199 0 -321 116l-111 -96h-98l166 145q-82 111 -82 267q0 155 73.5 284t202 203t283.5 74q205 0 328 -123l116 102h99zM156 414q0 -128 63 -219l692 608q-107 102 -274 102q-201 0 -341 -143t-140 -348z
M1012 539q0 125 -60 213l-692 -607q106 -98 268 -98q204 0 344 142.5t140 349.5zM672 1112l291 305h90l-305 -305h-76z" />
    <glyph glyph-name="uni0218" unicode="&#x218;" horiz-adv-x="1169" 
d="M707 1380q151 0 279 -37t194 -100l-17 -88h-6q-60 72 -179.5 112t-275.5 40q-191 0 -315.5 -97.5t-124.5 -248.5q0 -105 84 -157.5t297 -72.5q251 -23 354 -96t103 -221q0 -199 -148.5 -316.5t-400.5 -117.5q-170 0 -311.5 44.5t-214.5 120.5l16 86h6q152 -178 512 -178
q212 0 336.5 94.5t124.5 255.5q0 115 -88.5 172t-313.5 80q-242 24 -339 91t-97 202q0 189 148 310.5t377 121.5zM156 -430l282 293h84l-289 -293h-77z" />
    <glyph glyph-name="uni0219" unicode="&#x219;" horiz-adv-x="872" 
d="M504 973q102 0 189.5 -24.5t133.5 -65.5l-16 -82h-6q-82 104 -301 104q-141 0 -230.5 -68.5t-89.5 -177.5q0 -67 56.5 -98.5t201.5 -40.5q184 -12 259 -63t75 -160q0 -145 -110 -231t-293 -86q-118 0 -216 30t-153 84l16 82h7q47 -62 137.5 -95.5t208.5 -33.5
q152 0 242 66t90 178q0 76 -61 112t-216 46q-176 12 -245.5 57t-69.5 143q0 146 108 235t283 89zM8 -430l283 293h84l-289 -293h-78z" />
    <glyph glyph-name="uni021A" unicode="&#x21a;" horiz-adv-x="1169" 
d="M784 1286l-249 -1286h-80l250 1286h-494l12 74h1067l-14 -74h-492zM145 -430l283 293h84l-289 -293h-78z" />
    <glyph glyph-name="uni021B" unicode="&#x21b;" horiz-adv-x="716" 
d="M371 885l-119 -611q-8 -36 -8 -67q0 -76 39.5 -118t115.5 -42q90 0 158 59h6l-18 -90q-56 -36 -152 -36q-108 0 -166.5 56.5t-58.5 158.5q0 42 8 81l121 609h-197l13 67h198l68 252h55l-49 -252h342l-12 -67h-344zM-47 -430l283 293h83l-288 -293h-78z" />
    <glyph glyph-name="uni0237" unicode="&#x237;" horiz-adv-x="374" 
d="M317 952l-221 -1138q-23 -120 -74 -172t-143 -52q-55 0 -104 29l14 72h6q37 -33 84 -33q61 0 92.5 36.5t48.5 123.5l222 1134h75z" />
    <glyph glyph-name="circumflex" unicode="&#x2c6;" horiz-adv-x="1024" 
d="M442 1112h-77l297 305h65l182 -305h-67l-156 242z" />
    <glyph glyph-name="caron" unicode="&#x2c7;" horiz-adv-x="1024" 
d="M670 1112h-66l-182 305h67l156 -241l244 241h78z" />
    <glyph glyph-name="breve" unicode="&#x2d8;" horiz-adv-x="1024" 
d="M922 1386h59q-38 -121 -123.5 -185t-206.5 -64q-123 0 -189.5 65.5t-68.5 183.5h58q3 -89 54.5 -136.5t145.5 -47.5t165 47.5t106 136.5z" />
    <glyph glyph-name="dotaccent" unicode="&#x2d9;" horiz-adv-x="1024" 
d="M670 1317q24 0 39.5 -14.5t15.5 -36.5q0 -29 -20 -48.5t-48 -19.5q-25 0 -39 14t-14 37q0 28 20 48t46 20z" />
    <glyph glyph-name="ring" unicode="&#x2da;" horiz-adv-x="1024" 
d="M680 1427q66 0 105.5 -39.5t39.5 -103.5q0 -74 -50.5 -125t-123.5 -51q-66 0 -106.5 39t-40.5 102q0 75 51 126.5t125 51.5zM678 1368q-46 0 -79.5 -34t-33.5 -81q0 -37 23.5 -61.5t62.5 -24.5q45 0 79 34t34 79q0 39 -23.5 63.5t-62.5 24.5z" />
    <glyph glyph-name="ogonek" unicode="&#x2db;" horiz-adv-x="1024" 
d="M586 55l16 -53q-127 -52 -202.5 -120t-75.5 -142q0 -41 26 -65.5t72 -24.5q76 0 149 59h4l-14 -76q-55 -43 -141 -43q-77 0 -119.5 37.5t-42.5 100.5q0 99 84 182t244 145z" />
    <glyph glyph-name="tilde" unicode="&#x2dc;" horiz-adv-x="1024" 
d="M975 1360l-17 -92q-72 -97 -174 -97q-37 0 -67.5 13.5t-69.5 48.5q-54 49 -104 49q-100 0 -185 -123h-4l17 90q36 46 81.5 72.5t92.5 26.5q37 0 67.5 -13.5t69.5 -48.5q34 -29 56 -40t48 -11q103 0 185 125h4z" />
    <glyph glyph-name="hungarumlaut" unicode="&#x2dd;" horiz-adv-x="1024" 
d="M414 1112l295 305h84l-301 -305h-78zM741 1112l291 305h88l-305 -305h-74z" />
    <glyph glyph-name="uni0394" unicode="&#x394;" horiz-adv-x="1458" 
d="M-53 0l917 1360h74l389 -1360h-1380zM1223 74l-336 1188h-4l-795 -1188h1135z" />
    <glyph glyph-name="uni03A9" unicode="&#x3a9;" horiz-adv-x="1595" 
d="M1397 74l-15 -74h-469l13 68q232 85 368 276t136 430t-150 386t-401 147q-196 0 -358 -94t-254.5 -258t-92.5 -363q0 -178 90.5 -314t247.5 -210l-14 -68h-469l12 74h338v4q-136 83 -209.5 214t-73.5 300q0 166 60.5 312t164.5 250.5t249.5 165t310.5 60.5
q283 0 455.5 -165t172.5 -433q0 -231 -112.5 -414t-321.5 -290v-4h322z" />
    <glyph glyph-name="uni03BC" unicode="&#x3bc;" horiz-adv-x="1185" 
d="M1122 952l-186 -952h-68l43 217h-4q-71 -114 -181.5 -175.5t-248.5 -61.5q-230 0 -303 170h-4l-104 -539h-76l260 1341h76l-105 -536q-10 -58 -10 -99q0 -128 74 -199t211 -71q171 0 295.5 115t162.5 309l93 481h75z" />
    <glyph glyph-name="pi" unicode="&#x3c0;" horiz-adv-x="1198" 
d="M1075 885l-172 -885h-76l172 885h-639l-172 -885h-75l172 885h-176l12 67h1141l-13 -67h-174z" />
    <glyph glyph-name="uni1E02" unicode="&#x1e02;" horiz-adv-x="1286" 
d="M967 692v-4q223 -57 223 -272q0 -196 -126 -306t-374 -110h-606l264 1360h500q207 0 313.5 -75.5t106.5 -223.5q0 -151 -77 -243.5t-224 -125.5zM305 729h465q203 0 310.5 82.5t107.5 239.5q0 235 -344 235h-430zM178 74h516q204 0 310 88.5t106 251.5q0 241 -344 241
h-475zM864 1708q25 0 40.5 -14.5t15.5 -36.5q0 -29 -20 -48.5t-48 -19.5q-25 0 -39 14t-14 37q0 28 19.5 48t45.5 20z" />
    <glyph glyph-name="uni1E03" unicode="&#x1e03;" horiz-adv-x="1226" 
d="M709 973q198 0 319 -119t121 -311q0 -156 -73 -285.5t-199.5 -203.5t-278.5 -74q-163 0 -272 73.5t-142 200.5h-4l-53 -254h-70l279 1434h76l-127 -658h4q71 93 180 145t240 52zM590 47q204 0 343.5 142.5t139.5 349.5q0 164 -102 265t-273 101q-202 0 -341.5 -142.5
t-139.5 -348.5q0 -164 102.5 -265.5t270.5 -101.5zM434 1772q24 0 39.5 -15t15.5 -37q0 -29 -19.5 -48t-47.5 -19q-25 0 -39 14t-14 37q0 28 19.5 48t45.5 20z" />
    <glyph glyph-name="uni1E0A" unicode="&#x1e0a;" horiz-adv-x="1488" 
d="M348 1360h461q301 0 472 -153t171 -419q0 -234 -99.5 -413t-283 -277t-424.5 -98h-561zM1372 780q0 237 -151 371.5t-420 134.5h-387l-236 -1212h471q324 0 523.5 195t199.5 511zM922 1708q24 0 39.5 -14.5t15.5 -36.5q0 -29 -20 -48.5t-48 -19.5q-25 0 -39 14t-14 37
q0 28 20 48t46 20z" />
    <glyph glyph-name="uni1E0B" unicode="&#x1e0b;" horiz-adv-x="1226" 
d="M985 0h-70l35 188h-4q-69 -99 -180.5 -153.5t-247.5 -54.5q-197 0 -317.5 119.5t-120.5 312.5q0 155 73 284t199.5 203t278.5 74q158 0 266 -71.5t145 -194.5h5l141 727h76zM528 47q133 0 244 65t174.5 178t63.5 249q0 164 -102 265t-271 101q-201 0 -341 -143t-140 -348
q0 -164 102 -265.5t270 -101.5zM1288 1772q24 0 39.5 -15t15.5 -37q0 -29 -19.5 -48t-47.5 -19q-25 0 -39 14t-14 37q0 28 19.5 48t45.5 20z" />
    <glyph glyph-name="uni1E1E" unicode="&#x1e1e;" horiz-adv-x="1208" 
d="M303 719h746l-15 -74h-745l-125 -645h-80l264 1360h973l-14 -74h-893zM864 1708q25 0 40.5 -14.5t15.5 -36.5q0 -29 -20 -48.5t-48 -19.5q-25 0 -39 14t-14 37q0 28 19.5 48t45.5 20z" />
    <glyph glyph-name="uni1E1F" unicode="&#x1e1f;" horiz-adv-x="657" 
d="M676 1454q110 0 172 -41l-17 -74h-6q-55 47 -143 47q-104 0 -170 -58.5t-88 -174.5l-39 -201h342l-12 -67h-344l-172 -885h-76l172 885h-195l13 67h196l39 205q28 142 113.5 219.5t214.5 77.5zM635 1772q24 0 39.5 -15t15.5 -37q0 -29 -19.5 -48t-47.5 -19
q-25 0 -39.5 14t-14.5 37q0 28 20 48t46 20z" />
    <glyph glyph-name="uni1E40" unicode="&#x1e40;" horiz-adv-x="1892" 
d="M1624 0h-80l248 1276h-4l-905 -1276h-66l-405 1268h-4l-246 -1268h-78l264 1360h115l401 -1254h4l891 1254h129zM1182 1708q24 0 39.5 -14.5t15.5 -36.5q0 -29 -20 -48.5t-48 -19.5q-25 0 -39 14t-14 37q0 28 20 48t46 20z" />
    <glyph glyph-name="uni1E41" unicode="&#x1e41;" horiz-adv-x="1779" 
d="M1374 973q150 0 228.5 -76t78.5 -219q0 -47 -14 -129l-106 -549h-76l106 549q13 67 13 115q0 119 -62.5 180t-185.5 61q-160 0 -266 -105t-144 -302l-96 -498h-76l107 549q12 61 12 115q0 119 -62.5 180t-183.5 61q-158 0 -263.5 -105t-143.5 -300l-99 -500h-75l184 952
h69l-34 -188h4q125 209 375 209q132 0 207.5 -64t89.5 -184h4q126 248 409 248zM1063 1317q24 0 39.5 -14.5t15.5 -36.5q0 -29 -19.5 -48.5t-47.5 -19.5q-25 0 -39.5 14t-14.5 37q0 28 20 48t46 20z" />
    <glyph glyph-name="uni1E56" unicode="&#x1e56;" horiz-adv-x="1273" 
d="M348 1360h539q205 0 310.5 -86t105.5 -252q0 -226 -130.5 -347.5t-377.5 -121.5h-525l-106 -553h-80zM1223 1018q0 268 -342 268h-467l-129 -659h514q206 0 315 100.5t109 290.5zM887 1708q24 0 39.5 -14.5t15.5 -36.5q0 -29 -20 -48.5t-48 -19.5q-25 0 -39 14t-14 37
q0 28 20 48t46 20z" />
    <glyph glyph-name="uni1E57" unicode="&#x1e57;" horiz-adv-x="1226" 
d="M709 973q198 0 319 -119t121 -311q0 -156 -73 -285.5t-199.5 -203.5t-278.5 -74q-159 0 -268.5 71.5t-145.5 194.5h-4l-123 -635h-75l260 1341h69l-35 -188h5q69 99 181.5 154t246.5 55zM590 47q204 0 343.5 142.5t139.5 349.5q0 164 -102 265t-273 101q-201 0 -341 -143
t-140 -348q0 -164 102.5 -265.5t270.5 -101.5zM805 1315q24 0 39.5 -14.5t15.5 -36.5q0 -29 -19.5 -48.5t-47.5 -19.5q-25 0 -39.5 14t-14.5 37q0 28 20 48t46 20z" />
    <glyph glyph-name="uni1E60" unicode="&#x1e60;" horiz-adv-x="1169" 
d="M707 1380q151 0 279 -37t194 -100l-17 -88h-6q-60 72 -179.5 112t-275.5 40q-191 0 -315.5 -97.5t-124.5 -248.5q0 -105 84 -157.5t297 -72.5q251 -23 354 -96t103 -221q0 -199 -148.5 -316.5t-400.5 -117.5q-170 0 -311.5 44.5t-214.5 120.5l16 86h6q152 -178 512 -178
q212 0 336.5 94.5t124.5 255.5q0 115 -88.5 172t-313.5 80q-242 24 -339 91t-97 202q0 189 148 310.5t377 121.5zM803 1708q24 0 39.5 -14.5t15.5 -36.5q0 -29 -19.5 -48.5t-47.5 -19.5q-25 0 -39.5 14t-14.5 37q0 28 20 48t46 20z" />
    <glyph glyph-name="uni1E61" unicode="&#x1e61;" horiz-adv-x="872" 
d="M504 973q102 0 189.5 -24.5t133.5 -65.5l-16 -82h-6q-82 104 -301 104q-141 0 -230.5 -68.5t-89.5 -177.5q0 -67 56.5 -98.5t201.5 -40.5q184 -12 259 -63t75 -160q0 -145 -110 -231t-293 -86q-118 0 -216 30t-153 84l16 82h7q47 -62 137.5 -95.5t208.5 -33.5
q152 0 242 66t90 178q0 76 -61 112t-216 46q-176 12 -245.5 57t-69.5 143q0 146 108 235t283 89zM586 1317q24 0 39.5 -14.5t15.5 -36.5q0 -29 -20 -48.5t-48 -19.5q-25 0 -39 14t-14 37q0 28 20 48t46 20z" />
    <glyph glyph-name="uni1E6A" unicode="&#x1e6a;" horiz-adv-x="1169" 
d="M784 1286l-249 -1286h-80l250 1286h-494l12 74h1067l-14 -74h-492zM819 1708q24 0 39.5 -14.5t15.5 -36.5q0 -29 -19.5 -48.5t-47.5 -19.5q-25 0 -39 14t-14 37q0 28 19.5 48t45.5 20z" />
    <glyph glyph-name="uni1E6B" unicode="&#x1e6b;" horiz-adv-x="716" 
d="M371 885l-119 -611q-8 -36 -8 -67q0 -76 39.5 -118t115.5 -42q90 0 158 59h6l-18 -90q-56 -36 -152 -36q-108 0 -166.5 56.5t-58.5 158.5q0 42 8 81l121 609h-197l13 67h198l68 252h55l-49 -252h342l-12 -67h-344zM463 1556q24 0 39.5 -14.5t15.5 -36.5q0 -29 -19.5 -48
t-47.5 -19q-25 0 -39.5 14t-14.5 37q0 27 19.5 47t46.5 20z" />
    <glyph glyph-name="Wgrave" unicode="&#x1e80;" horiz-adv-x="2045" 
d="M1434 0h-78l-187 1223h-4l-659 -1223h-78l-205 1360h84l178 -1231h4l666 1231h74l186 -1233h4l660 1233h88zM1210 1503l-190 305h84l174 -305h-68z" />
    <glyph glyph-name="wgrave" unicode="&#x1e81;" horiz-adv-x="1525" 
d="M1059 0h-74l-151 829h-5l-473 -829h-71l-170 952h73l150 -843h4l479 843h64l153 -848h4l476 848h79zM872 1112l-190 305h84l174 -305h-68z" />
    <glyph glyph-name="Wacute" unicode="&#x1e82;" horiz-adv-x="2045" 
d="M1434 0h-78l-187 1223h-4l-659 -1223h-78l-205 1360h84l178 -1231h4l666 1231h74l186 -1233h4l660 1233h88zM1169 1503l291 305h90l-305 -305h-76z" />
    <glyph glyph-name="wacute" unicode="&#x1e83;" horiz-adv-x="1525" 
d="M1059 0h-74l-151 829h-5l-473 -829h-71l-170 952h73l150 -843h4l479 843h64l153 -848h4l476 848h79zM831 1112l291 305h90l-305 -305h-76z" />
    <glyph glyph-name="Wdieresis" unicode="&#x1e84;" horiz-adv-x="2045" 
d="M1434 0h-78l-187 1223h-4l-659 -1223h-78l-205 1360h84l178 -1231h4l666 1231h74l186 -1233h4l660 1233h88zM1075 1708q25 0 39 -14t14 -37q0 -27 -19 -46.5t-46 -19.5q-25 0 -39 14t-14 37q0 28 18.5 47t46.5 19zM1446 1708q25 0 39 -14t14 -37q0 -27 -19 -46.5
t-46 -19.5q-25 0 -39.5 14t-14.5 37q0 28 19 47t47 19z" />
    <glyph glyph-name="wdieresis" unicode="&#x1e85;" horiz-adv-x="1525" 
d="M1059 0h-74l-151 829h-5l-473 -829h-71l-170 952h73l150 -843h4l479 843h64l153 -848h4l476 848h79zM737 1317q25 0 39.5 -14t14.5 -37q0 -27 -19.5 -46.5t-46.5 -19.5q-25 0 -39 14t-14 37q0 28 18.5 47t46.5 19zM1108 1317q25 0 39 -14t14 -37q0 -27 -19 -46.5
t-46 -19.5q-25 0 -39.5 14t-14.5 37q0 28 19 47t47 19z" />
    <glyph glyph-name="Ygrave" unicode="&#x1ef2;" horiz-adv-x="1325" 
d="M535 0l118 623l-456 737h96l407 -670l666 670h107l-740 -737l-119 -623h-79zM848 1503l-191 305h84l174 -305h-67z" />
    <glyph glyph-name="ygrave" unicode="&#x1ef3;" horiz-adv-x="993" 
d="M158 -389h-84l297 434l-256 907h78l231 -823h4l553 823h84zM606 1112l-190 305h84l174 -305h-68z" />
    <glyph glyph-name="uni2007" unicode="&#x2007;" horiz-adv-x="1331" 
 />
    <glyph glyph-name="figuredash" unicode="&#x2012;" horiz-adv-x="1331" 
d="M135 647l12 68h1127l-12 -68h-1127z" />
    <glyph glyph-name="endash" unicode="&#x2013;" horiz-adv-x="1024" 
d="M113 522l12 68h819l-12 -68h-819z" />
    <glyph glyph-name="emdash" unicode="&#x2014;" horiz-adv-x="2048" 
d="M113 522l12 68h1843l-12 -68h-1843z" />
    <glyph glyph-name="quoteleft" unicode="&#x2018;" horiz-adv-x="462" 
d="M510 1360l-201 -373h-78l215 373h64z" />
    <glyph glyph-name="quoteright" unicode="&#x2019;" horiz-adv-x="462" 
d="M225 987l201 373h78l-215 -373h-64z" />
    <glyph glyph-name="quotesinglbase" unicode="&#x201a;" horiz-adv-x="462" 
d="M-66 -285l201 373h78l-215 -373h-64z" />
    <glyph glyph-name="quotedblleft" unicode="&#x201c;" horiz-adv-x="774" 
d="M821 1360l-200 -373h-78l215 373h63zM510 1360l-201 -373h-78l215 373h64z" />
    <glyph glyph-name="quotedblright" unicode="&#x201d;" horiz-adv-x="774" 
d="M225 987l201 373h78l-215 -373h-64zM537 987l200 373h78l-215 -373h-63z" />
    <glyph glyph-name="quotedblbase" unicode="&#x201e;" horiz-adv-x="774" 
d="M246 -285l200 373h78l-215 -373h-63zM-66 -285l201 373h78l-215 -373h-64z" />
    <glyph glyph-name="dagger" unicode="&#x2020;" horiz-adv-x="1005" 
d="M639 1004l-156 -809h-67l155 809h-352l10 63h355l71 367h68l-72 -367h353l-11 -63h-354z" />
    <glyph glyph-name="daggerdbl" unicode="&#x2021;" horiz-adv-x="1005" 
d="M567 625h353l-13 -64h-352l-72 -366h-67l71 366h-354l12 64h355l71 379h-352l10 63h355l71 367h68l-72 -367h353l-11 -63h-354z" />
    <glyph glyph-name="bullet" unicode="&#x2022;" horiz-adv-x="1024" 
d="M557 831q108 0 177 -68.5t69 -174.5q0 -128 -89.5 -217.5t-215.5 -89.5q-109 0 -177.5 67.5t-68.5 173.5q0 130 89 219.5t216 89.5z" />
    <glyph glyph-name="ellipsis" unicode="&#x2026;" horiz-adv-x="2048" 
d="M1575 109q26 0 42.5 -16.5t16.5 -41.5q0 -30 -22 -50.5t-51 -20.5q-26 0 -43 16t-17 41q0 29 22.5 50.5t51.5 21.5zM948 109q26 0 43 -16.5t17 -41.5q0 -30 -22.5 -50.5t-51.5 -20.5q-26 0 -43 16t-17 41q0 29 22.5 50.5t51.5 21.5zM319 109q26 0 43 -16.5t17 -41.5
q0 -30 -22.5 -50.5t-51.5 -20.5q-26 0 -42.5 16t-16.5 41q0 29 22 50.5t51 21.5z" />
    <glyph glyph-name="perthousand" unicode="&#x2030;" horiz-adv-x="2248" 
d="M1880 653q125 0 197.5 -69t72.5 -191q0 -56 -11.5 -111.5t-38.5 -110.5t-66.5 -97t-101 -68t-136.5 -26q-125 0 -195.5 71t-70.5 197q0 53 11 106t37 108t65 96.5t100.5 68t136.5 26.5zM1878 590q-75 0 -132.5 -35t-87.5 -89.5t-44.5 -110.5t-14.5 -109
q0 -98 52.5 -150.5t148.5 -52.5q75 0 132.5 34.5t87.5 89t44.5 110t14.5 108.5q0 99 -52.5 152t-148.5 53zM530 1380q125 0 198 -69t73 -191q0 -56 -11.5 -111.5t-39 -110.5t-67 -97t-101 -68t-136.5 -26q-125 0 -195.5 71t-70.5 197q0 53 11 106t37 108t65 96.5t100.5 68
t136.5 26.5zM197 0l1136 1360h84l-1136 -1360h-84zM528 1317q-61 0 -110.5 -23.5t-80 -60t-51 -84t-28.5 -91t-8 -85.5q0 -98 52.5 -150.5t148.5 -52.5q61 0 110.5 23.5t80 59.5t51 83t28.5 90.5t8 85.5q0 99 -52.5 152t-148.5 53zM1167 653q125 0 198 -69t73 -191
q0 -56 -11.5 -111.5t-39 -110.5t-67 -97t-101 -68t-136.5 -26q-125 0 -195.5 71t-70.5 197q0 53 11 106t37 108t65 96.5t100.5 68t136.5 26.5zM1165 590q-61 0 -110.5 -23.5t-80 -60t-51 -84t-28.5 -91t-8 -85.5q0 -98 52 -150.5t148 -52.5q75 0 132.5 34.5t87.5 89
t44.5 110t14.5 108.5q0 99 -52.5 152t-148.5 53z" />
    <glyph glyph-name="guilsinglleft" unicode="&#x2039;" horiz-adv-x="577" 
d="M152 469l249 -326l-16 -82l-313 412v6l475 412l-19 -98z" />
    <glyph glyph-name="guilsinglright" unicode="&#x203a;" horiz-adv-x="577" 
d="M506 473l-473 -412l16 97l377 325l-248 326l17 82l311 -412v-6z" />
    <glyph glyph-name="fraction" unicode="&#x2044;" horiz-adv-x="294" 
d="M-426 0l1145 1360h80l-1145 -1360h-80z" />
    <glyph glyph-name="zerosuperior" unicode="&#x2070;" 
d="M635 1647q132 0 204 -78t72 -223q0 -72 -14 -147t-46 -150.5t-79 -134t-119.5 -95.5t-160.5 -37q-132 0 -203.5 77.5t-71.5 221.5q0 58 10 119.5t30 126t54 121.5t78.5 102t108 71t137.5 26zM631 1587q-74 0 -134.5 -34.5t-99 -88t-64.5 -122t-37 -133t-11 -124.5
q0 -119 53.5 -181t157.5 -62q74 0 135 34.5t100 87.5t66 121.5t38 133t11 124.5q0 118 -55.5 181t-159.5 63z" />
    <glyph glyph-name="foursuperior" unicode="&#x2074;" 
d="M731 795h-65l34 182h-514l13 57l632 600h64l-117 -598h125l-12 -59h-125zM285 1036h428l96 498z" />
    <glyph glyph-name="fivesuperior" unicode="&#x2075;" 
d="M424 1575l-53 -279q87 37 192 37q137 0 211 -63t74 -180q0 -140 -97.5 -224t-254.5 -84q-97 0 -175 26.5t-120 72.5l14 71h6q38 -53 109.5 -81.5t165.5 -28.5q132 0 209 65t77 180q0 91 -60.5 139t-178.5 48q-116 0 -244 -64h-6l82 424h530l-12 -59h-469z" />
    <glyph glyph-name="sixsuperior" unicode="&#x2076;" 
d="M692 1647q148 0 211 -66l-12 -70h-6q-60 76 -193 76q-147 0 -246 -96.5t-137 -276.5h4q121 115 289 115q122 0 193 -63t71 -168q0 -141 -90 -228.5t-235 -87.5q-144 0 -227 83t-83 231q0 68 15 139.5t50 146t86.5 133t131.5 95.5t178 37zM592 1270q-179 0 -293 -156
q-2 -12 -2 -31q0 -111 67.5 -176t178.5 -65q115 0 186.5 71.5t71.5 180.5q0 82 -56 129t-153 47z" />
    <glyph glyph-name="sevensuperior" unicode="&#x2077;" 
d="M993 1569l-669 -774h-86l680 780h-572l12 59h646z" />
    <glyph glyph-name="eightsuperior" unicode="&#x2078;" 
d="M723 1227v-4q139 -47 139 -183q0 -121 -97.5 -189.5t-266.5 -68.5q-146 0 -228 55.5t-82 153.5q0 194 224 236v4q-119 47 -119 166q0 118 90 184t246 66q136 0 211 -53.5t75 -147.5q0 -174 -192 -219zM358 1399q0 -70 58 -107t168 -37q127 0 196.5 50t69.5 137
q0 68 -59 106.5t-166 38.5q-125 0 -196 -50t-71 -138zM504 842q136 0 214.5 53t78.5 149q0 73 -65 112.5t-185 39.5q-140 0 -216.5 -52t-76.5 -147q0 -75 65 -115t185 -40z" />
    <glyph glyph-name="ninesuperior" unicode="&#x2079;" 
d="M436 782q-148 0 -211 66l13 70h6q60 -76 192 -76q148 0 246.5 96t136.5 276h-4q-120 -114 -289 -114q-122 0 -193 63t-71 168q0 141 90.5 228.5t235.5 87.5q144 0 226.5 -83t82.5 -231q0 -68 -15 -139.5t-50 -146t-86.5 -133t-131.5 -95.5t-178 -37zM537 1159
q178 0 292 156q2 12 2 31q0 112 -67 176.5t-178 64.5q-115 0 -186.5 -71.5t-71.5 -180.5q0 -82 56 -129t153 -47z" />
    <glyph glyph-name="zeroinferior" unicode="&#x2080;" 
d="M406 463q132 0 204 -78t72 -223q0 -72 -14 -146.5t-46.5 -150t-79.5 -134t-119.5 -95.5t-160.5 -37q-132 0 -203 77t-71 222q0 71 13.5 145t45.5 150t78.5 135.5t119.5 97t161 37.5zM401 403q-74 0 -134.5 -34.5t-99 -87.5t-64.5 -121.5t-37 -133t-11 -124.5
q0 -119 53.5 -181.5t157.5 -62.5q74 0 135 34.5t100 88t66 122t38 133t11 124.5q0 118 -55.5 180.5t-159.5 62.5z" />
    <glyph glyph-name="oneinferior" unicode="&#x2081;" 
d="M416 -389h-66l148 754l-260 -152l14 74l278 164h50z" />
    <glyph glyph-name="twoinferior" unicode="&#x2082;" 
d="M549 -330l-12 -59h-568l15 65l174 123q262 184 347 270.5t85 176.5q0 75 -50 116t-141 41q-69 0 -143 -30t-137 -82h-6l16 86q124 86 277 86q118 0 183.5 -54.5t65.5 -152.5q0 -78 -37.5 -143t-135 -147.5t-287.5 -209.5l-123 -82v-4h477z" />
    <glyph glyph-name="threeinferior" unicode="&#x2083;" 
d="M672 262q0 -85 -49.5 -142t-139.5 -79v-4q127 -45 127 -172q0 -124 -91.5 -195t-248.5 -71q-84 0 -162 27.5t-122 72.5l12 72h6q44 -53 115.5 -83t152.5 -30q127 0 200 56t73 153q0 70 -55.5 107.5t-159.5 37.5h-121l10 60h129q125 0 191.5 48.5t66.5 133.5
q0 72 -57 110.5t-162 38.5q-143 0 -266 -110h-6l16 84q109 86 262 86q133 0 206 -53t73 -148z" />
    <glyph glyph-name="fourinferior" unicode="&#x2084;" 
d="M502 -389h-66l35 182h-514l12 57l633 601h64l-117 -598h125l-12 -60h-125zM55 -147h428l97 497z" />
    <glyph glyph-name="fiveinferior" unicode="&#x2085;" 
d="M195 391l-54 -278q87 37 193 37q136 0 210 -63.5t74 -180.5q0 -140 -97.5 -223.5t-254.5 -83.5q-98 0 -176 26t-119 72l15 72h6q38 -53 109.5 -82t164.5 -29q132 0 209.5 65.5t77.5 180.5q0 91 -61 138.5t-179 47.5q-117 0 -243 -63h-7l82 424h531l-12 -60h-469z" />
    <glyph glyph-name="sixinferior" unicode="&#x2086;" 
d="M463 463q148 0 211 -66l-12 -69h-7q-60 75 -192 75q-148 0 -246.5 -96t-136.5 -276h4q120 114 289 114q122 0 193 -63t71 -168q0 -141 -90.5 -228t-235.5 -87q-144 0 -226.5 82.5t-82.5 230.5q0 68 15 139.5t50 146t86.5 133t131.5 95.5t178 37zM362 86q-178 0 -292 -156
q-2 -12 -2 -30q0 -112 67 -177t178 -65q115 0 186.5 71.5t71.5 180.5q0 82 -56 129t-153 47z" />
    <glyph glyph-name="seveninferior" unicode="&#x2087;" 
d="M764 385l-670 -774h-86l680 780h-571l12 60h645z" />
    <glyph glyph-name="eightinferior" unicode="&#x2088;" 
d="M494 43v-4q139 -47 139 -182q0 -121 -97.5 -189.5t-267.5 -68.5q-146 0 -227.5 55t-81.5 153q0 194 223 236v4q-119 47 -119 166q0 118 90 184t246 66q136 0 211.5 -53.5t75.5 -147.5q0 -174 -192 -219zM129 215q0 -143 225 -143q128 0 197.5 49.5t69.5 136.5
q0 68 -59.5 106.5t-166.5 38.5q-124 0 -195 -50t-71 -138zM274 -342q136 0 214.5 53.5t78.5 149.5q0 73 -65 112t-185 39q-140 0 -216 -51.5t-76 -146.5q0 -75 64.5 -115.5t184.5 -40.5z" />
    <glyph glyph-name="nineinferior" unicode="&#x2089;" 
d="M207 -401q-149 0 -211 65l12 70h6q60 -76 193 -76q147 0 246 96.5t137 276.5h-4q-121 -115 -289 -115q-122 0 -193 63t-71 168q0 141 90 228.5t235 87.5q144 0 227 -82.5t83 -230.5q0 -68 -15 -139.5t-50 -146t-86.5 -133t-131.5 -95.5t-178 -37zM307 -25q179 0 293 156
q2 12 2 31q0 111 -67.5 176t-178.5 65q-115 0 -186.5 -71t-71.5 -180q0 -82 56 -129.5t153 -47.5z" />
    <glyph glyph-name="Euro" unicode="&#x20ac;" horiz-adv-x="1331" 
d="M1020 1380q110 0 197 -28t135 -78l-17 -84h-6q-89 121 -313 121q-198 0 -352.5 -111t-239.5 -311h715l-13 -68h-727q-47 -138 -53 -264h729l-14 -68h-719q2 -208 113 -324t313 -116q103 0 200.5 33.5t164.5 93.5h6l-19 -98q-128 -98 -362 -98q-235 0 -364.5 135
t-129.5 374h-155l14 68h145q7 133 51 264h-145l14 68h156q93 233 270 362t406 129z" />
    <glyph glyph-name="uni20B9" unicode="&#x20b9;" horiz-adv-x="1331" 
d="M956 1296v-4q150 -72 150 -256v-14h209l-12 -64h-205q-28 -167 -151.5 -253.5t-334.5 -86.5h-174v-4l613 -614h-97l-624 629l12 57h268q184 0 284 66t128 206h-789l15 64h782v27q0 125 -85.5 184t-258.5 59h-387l14 68h1067l-14 -64h-410z" />
    <glyph glyph-name="uni2113" unicode="&#x2113;" horiz-adv-x="913" 
d="M350 412l-20 -105q-8 -41 -8 -84q0 -176 172 -176q112 0 204 88h7l-21 -98q-85 -57 -201 -57q-117 0 -178 58.5t-61 168.5q0 37 10 92l10 57q-79 -50 -155 -90l16 86q102 54 158 90l127 656q26 135 102 207.5t193 72.5q92 0 140 -50.5t48 -145.5q0 -79 -30.5 -169.5
t-92.5 -190t-170 -206.5t-250 -204zM483 1083l-114 -581q114 84 203 177t142 180.5t80 167t27 147.5q0 137 -123 137q-83 0 -138 -58.5t-77 -169.5z" />
    <glyph glyph-name="uni2117" unicode="&#x2117;" horiz-adv-x="1644" 
d="M705 1038h284q223 0 223 -184q0 -252 -272 -252h-258l-53 -280h-64zM944 659q99 0 152 49.5t53 139.5q0 133 -168 133h-225l-62 -322h250zM930 1380q281 0 458 -174.5t177 -447.5q0 -160 -60.5 -304t-163 -248t-246 -165t-302.5 -61q-281 0 -458 174.5t-177 447.5
q0 160 60.5 304t163 248t246 165t302.5 61zM930 1323q-193 0 -357 -96t-259 -261.5t-95 -361.5q0 -248 160.5 -407.5t413.5 -159.5q193 0 356.5 96t258.5 261.5t95 361.5q0 248 -160 407.5t-413 159.5z" />
    <glyph glyph-name="trademark" unicode="&#x2122;" horiz-adv-x="1554" 
d="M715 1307h-228l-122 -637h-62l123 637h-227l10 53h516zM1466 670h-61l119 616h-4l-408 -618h-53l-164 612h-4l-119 -610h-55l133 690h84l162 -608h4l401 608h98z" />
    <glyph glyph-name="uni2126" unicode="&#x2126;" horiz-adv-x="1595" 
d="M1397 74l-15 -74h-469l13 68q232 85 368 276t136 430t-150 386t-401 147q-196 0 -358 -94t-254.5 -258t-92.5 -363q0 -178 90.5 -314t247.5 -210l-14 -68h-469l12 74h338v4q-136 83 -209.5 214t-73.5 300q0 166 60.5 312t164.5 250.5t249.5 165t310.5 60.5
q283 0 455.5 -165t172.5 -433q0 -231 -112.5 -414t-321.5 -290v-4h322z" />
    <glyph glyph-name="estimated" unicode="&#x212e;" horiz-adv-x="1677" 
d="M879 1380q150 0 286.5 -55t235.5 -148.5t157 -223.5t58 -273v-16h-1196q-8 0 -8 -9v-385q0 -17 16 -41q86 -98 204.5 -153.5t250.5 -55.5q138 0 261.5 62.5t213.5 171.5h108q-105 -127 -258.5 -200.5t-328.5 -73.5q-150 0 -287 55.5t-235.5 149t-157 223t-58.5 272.5
t58.5 273t157 223.5t235.5 148.5t287 55zM883 1339q-131 0 -248 -54t-207 -150q-16 -24 -16 -45v-377q0 -13 8 -13h917q13 0 13 13v385q0 24 -21 45q-89 92 -205 144t-241 52z" />
    <glyph glyph-name="onethird" unicode="&#x2153;" horiz-adv-x="1974" 
d="M414 0l1145 1360h79l-1144 -1360h-80zM1882 651q0 -85 -49 -142t-139 -79v-4q127 -45 127 -172q0 -124 -91.5 -195t-248.5 -71q-84 0 -162.5 27.5t-122.5 72.5l12 72h6q44 -53 116 -83t153 -30q127 0 199.5 56t72.5 153q0 70 -55.5 107.5t-159.5 37.5h-121l11 60h129
q125 0 191.5 48.5t66.5 133.5q0 72 -57.5 111t-162.5 39q-142 0 -266 -111h-6l16 84q109 86 263 86q133 0 205.5 -52.5t72.5 -148.5zM592 520h-66l148 754l-260 -152l14 74l279 164h49z" />
    <glyph glyph-name="twothirds" unicode="&#x2154;" horiz-adv-x="1974" 
d="M444 0l1145 1360h80l-1145 -1360h-80zM1882 651q0 -85 -49 -142t-139 -79v-4q127 -45 127 -172q0 -124 -91.5 -195t-248.5 -71q-84 0 -162.5 27.5t-122.5 72.5l12 72h6q44 -53 116 -83t153 -30q127 0 199.5 56t72.5 153q0 70 -55.5 107.5t-159.5 37.5h-121l11 60h129
q125 0 191.5 48.5t66.5 133.5q0 72 -57.5 111t-162.5 39q-142 0 -266 -111h-6l16 84q109 86 263 86q133 0 205.5 -52.5t72.5 -148.5zM725 580l-12 -60h-568l15 66l174 123q263 185 347.5 270.5t84.5 175.5q0 75 -50 116.5t-141 41.5q-69 0 -143 -30.5t-137 -82.5h-6l16 86
q124 86 277 86q118 0 183.5 -54.5t65.5 -152.5q0 -78 -37.5 -142.5t-134.5 -147t-288 -209.5l-123 -82v-4h477z" />
    <glyph glyph-name="oneeighth" unicode="&#x215b;" horiz-adv-x="1974" 
d="M414 0l1145 1360h79l-1144 -1360h-80zM1704 432v-4q139 -47 139 -182q0 -121 -97.5 -189.5t-266.5 -68.5q-146 0 -228 55.5t-82 153.5q0 193 224 235v4q-119 47 -119 166q0 118 90 184t246 66q136 0 211 -53.5t75 -147.5q0 -174 -192 -219zM1339 604q0 -70 57.5 -106.5
t168.5 -36.5q128 0 197 49.5t69 136.5q0 68 -59.5 107t-165.5 39q-124 0 -195.5 -50.5t-71.5 -138.5zM1485 47q136 0 214.5 53.5t78.5 149.5q0 73 -65 112t-185 39q-140 0 -216.5 -51.5t-76.5 -146.5q0 -75 65 -115.5t185 -40.5zM590 520h-66l148 754l-260 -152l14 74
l279 164h49z" />
    <glyph glyph-name="threeeighths" unicode="&#x215c;" horiz-adv-x="1974" 
d="M424 0l1145 1360h80l-1145 -1360h-80zM1704 432v-4q139 -47 139 -182q0 -121 -97.5 -189.5t-266.5 -68.5q-146 0 -228 55.5t-82 153.5q0 193 224 235v4q-119 47 -119 166q0 118 90 184t246 66q136 0 211 -53.5t75 -147.5q0 -174 -192 -219zM1339 604q0 -70 57.5 -106.5
t168.5 -36.5q128 0 197 49.5t69 136.5q0 68 -59.5 107t-165.5 39q-124 0 -195.5 -50.5t-71.5 -138.5zM1485 47q136 0 214.5 53.5t78.5 149.5q0 73 -65 112t-185 39q-140 0 -216.5 -51.5t-76.5 -146.5q0 -75 65 -115.5t185 -40.5zM848 1171q0 -85 -49.5 -142t-139.5 -79v-4
q127 -45 127 -172q0 -124 -91.5 -195t-248.5 -71q-84 0 -162 27.5t-122 72.5l12 72h6q44 -53 116 -83t153 -30q127 0 199.5 56t72.5 153q0 71 -55.5 108.5t-159.5 37.5h-121l10 59h129q125 0 191.5 48.5t66.5 133.5q0 72 -57.5 111t-161.5 39q-142 0 -266 -111h-6l16 84
q109 86 262 86q133 0 206 -53t73 -148z" />
    <glyph glyph-name="fiveeighths" unicode="&#x215d;" horiz-adv-x="1974" 
d="M424 0l1145 1360h80l-1145 -1360h-80zM1704 432v-4q139 -47 139 -182q0 -121 -97.5 -189.5t-266.5 -68.5q-146 0 -228 55.5t-82 153.5q0 193 224 235v4q-119 47 -119 166q0 118 90 184t246 66q136 0 211 -53.5t75 -147.5q0 -174 -192 -219zM1339 604q0 -70 57.5 -106.5
t168.5 -36.5q128 0 197 49.5t69 136.5q0 68 -59.5 107t-165.5 39q-124 0 -195.5 -50.5t-71.5 -138.5zM1485 47q136 0 214.5 53.5t78.5 149.5q0 73 -65 112t-185 39q-140 0 -216.5 -51.5t-76.5 -146.5q0 -75 65 -115.5t185 -40.5zM371 1300l-54 -278q87 37 193 37
q137 0 211 -63.5t74 -180.5q0 -140 -98 -223.5t-255 -83.5q-98 0 -176 26t-119 72l15 72h6q38 -53 109.5 -82t164.5 -29q132 0 209.5 65.5t77.5 180.5q0 91 -61 138.5t-179 47.5q-117 0 -243 -63h-6l82 424h530l-12 -60h-469z" />
    <glyph glyph-name="seveneighths" unicode="&#x215e;" horiz-adv-x="1974" 
d="M313 0l1145 1360h80l-1145 -1360h-80zM1704 432v-4q139 -47 139 -182q0 -121 -97.5 -189.5t-266.5 -68.5q-146 0 -228 55.5t-82 153.5q0 193 224 235v4q-119 47 -119 166q0 118 90 184t246 66q136 0 211 -53.5t75 -147.5q0 -174 -192 -219zM1339 604q0 -70 57.5 -106.5
t168.5 -36.5q128 0 197 49.5t69 136.5q0 68 -59.5 107t-165.5 39q-124 0 -195.5 -50.5t-71.5 -138.5zM1485 47q136 0 214.5 53.5t78.5 149.5q0 73 -65 112t-185 39q-140 0 -216.5 -51.5t-76.5 -146.5q0 -75 65 -115.5t185 -40.5zM940 1294l-670 -774h-86l680 780h-571l12 60
h645z" />
    <glyph glyph-name="partialdiff" unicode="&#x2202;" horiz-adv-x="1216" 
d="M825 1454q182 0 279.5 -104t97.5 -293q0 -76 -16 -169t-49 -196.5t-80 -204.5t-113 -192.5t-143 -161.5t-175.5 -111.5t-205.5 -41.5q-153 0 -246.5 94t-93.5 245q0 159 78 302t210 230t281 87q137 0 247.5 -69t152.5 -185h4q69 194 69 363q0 162 -80.5 249.5
t-230.5 87.5q-169 0 -324 -118h-6l17 92q149 96 327 96zM426 49q179 0 335 145t255 390q-27 129 -130 206.5t-233 77.5q-129 0 -243.5 -76.5t-182 -202t-67.5 -263.5q0 -124 72.5 -200.5t193.5 -76.5z" />
    <glyph glyph-name="uni2206" unicode="&#x2206;" horiz-adv-x="1458" 
d="M-53 0l917 1360h74l389 -1360h-1380zM1223 74l-336 1188h-4l-795 -1188h1135z" />
    <glyph glyph-name="product" unicode="&#x220f;" horiz-adv-x="1417" 
d="M1102 -266h-80l301 1552h-915l-302 -1552h-79l315 1626h1075z" />
    <glyph glyph-name="summation" unicode="&#x2211;" horiz-adv-x="1157" 
d="M344 1286l457 -749l-723 -730h903l-12 -73h-1018l12 67l739 746l-450 745l14 68h1018l-14 -74h-926z" />
    <glyph glyph-name="minus" unicode="&#x2212;" horiz-adv-x="1331" 
d="M131 582l12 67h1110l-12 -67h-1110z" />
    <glyph glyph-name="uni2219" unicode="&#x2219;" horiz-adv-x="462" 
d="M281 743q26 0 42.5 -16t16.5 -41q0 -30 -22.5 -51t-51.5 -21q-26 0 -42.5 16.5t-16.5 41.5q0 29 22 50t52 21z" />
    <glyph glyph-name="radical" unicode="&#x221a;" horiz-adv-x="1032" 
d="M432 -143h-80l-133 518h-145l12 67h195l120 -479h5l688 1438h82z" />
    <glyph glyph-name="infinity" unicode="&#x221e;" horiz-adv-x="1411" 
d="M1102 979q114 0 182 -69.5t68 -186.5q0 -149 -90 -245.5t-228 -96.5q-97 0 -167 54.5t-128 178.5h-4q-83 -123 -165 -178t-181 -55q-115 0 -183.5 69.5t-68.5 186.5q0 149 90 245.5t228 96.5q99 0 168 -53.5t127 -177.5h4q86 124 167.5 177.5t180.5 53.5zM401 444
q84 0 154 53t154 183q-58 128 -120 181.5t-149 53.5q-104 0 -168.5 -77.5t-64.5 -202.5q0 -88 52.5 -139.5t141.5 -51.5zM1049 444q104 0 170.5 76.5t66.5 196.5q0 92 -53.5 145t-145.5 53q-84 0 -153.5 -52.5t-153.5 -180.5q61 -132 121.5 -185t147.5 -53z" />
    <glyph glyph-name="integral" unicode="&#x222b;" horiz-adv-x="751" 
d="M213 -162l268 1374q25 123 87 182.5t165 59.5q94 0 152 -45l-15 -76h-6q-44 53 -131 53q-72 0 -115.5 -44t-62.5 -136l-268 -1374q-23 -123 -85.5 -182.5t-166.5 -59.5q-90 0 -152 45l15 76h6q41 -53 131 -53q74 0 117.5 44t60.5 136z" />
    <glyph glyph-name="approxequal" unicode="&#x2248;" horiz-adv-x="1331" 
d="M1276 993l51 -41q-101 -127 -183.5 -181t-176.5 -54q-64 0 -119 23.5t-133 86.5q-68 56 -111.5 76.5t-91.5 20.5q-80 0 -151 -47.5t-162 -161.5l-49 41q100 128 181 181.5t175 53.5q65 0 123 -25.5t133 -86.5q67 -55 111 -75t92 -20q78 0 149.5 47.5t161.5 161.5z
M1182 514l51 -41q-101 -127 -184 -181t-177 -54q-64 0 -118.5 23.5t-132.5 86.5q-68 56 -111.5 76t-91.5 20q-80 0 -152 -47.5t-162 -160.5l-49 40q100 128 181.5 182t175.5 54q64 0 122.5 -25.5t133.5 -87.5q66 -55 110 -74.5t92 -19.5q78 0 150 48t162 161z" />
    <glyph glyph-name="notequal" unicode="&#x2260;" horiz-adv-x="1331" 
d="M559 391h625l-13 -67h-669l-264 -306h-78l264 306h-322l13 67h366l387 447h-667l14 67h711l264 305h78l-264 -305h280l-14 -67h-324z" />
    <glyph glyph-name="lessequal" unicode="&#x2264;" horiz-adv-x="1331" 
d="M297 700l852 -376l-12 -70l-944 426l10 51l1108 426l-15 -80zM1100 68l-13 -68h-1028l13 68h1028z" />
    <glyph glyph-name="greaterequal" unicode="&#x2265;" horiz-adv-x="1331" 
d="M111 254l12 78l995 377l-848 376l13 72l948 -426l-10 -51zM1087 0h-1028l13 68h1028z" />
    <glyph glyph-name="lozenge" unicode="&#x25ca;" horiz-adv-x="1200" 
d="M479 0l-336 680l600 680h56l340 -680l-602 -680h-58zM225 674l293 -594l537 606l-293 592z" />
    <glyph glyph-name="uniE069" unicode="&#xe069;" horiz-adv-x="374" 
d="M346 1317q25 0 39 -14t14 -37q0 -28 -19.5 -48t-45.5 -20q-24 0 -38.5 14.5t-14.5 38.5q0 28 18.5 47t46.5 19zM57 0l185 952h75l-184 -952h-76z" />
    <glyph glyph-name="uniEF01" unicode="&#xef01;" horiz-adv-x="1024" 
d="M76 -430l282 293h84l-288 -293h-78z" />
    <glyph glyph-name="uniEF02" unicode="&#xef02;" horiz-adv-x="1024" 
d="M561 1085l135 349h76l-149 -349h-62z" />
    <glyph glyph-name="uniF8FF" unicode="&#xf8ff;" horiz-adv-x="2048" 
d="M899 430v107h-2l-35 -160h-47l57 258h56v-135h2l57 135h64l-58 -258h-49l35 160h-2l-45 -107h-33zM287 584l-35 -158q-8 -26 -19.5 -37.5t-31.5 -11.5h-95l58 258h88q37 0 37 -31q0 -8 -2 -20zM600 377h-49l12 53h-35l-14 -53h-49l47 211q9 47 53 47h45q37 0 37 -31
q0 -8 -2 -20zM1167 377h-49l12 53h-34l-15 -53h-49l47 211q9 47 54 47h45q36 0 36 -31q0 -8 -2 -20zM821 584l-22 -107q-8 -35 -27 -41l12 -59h-47l-8 53h-27l-12 -53h-49l57 258h88q37 0 37 -31q0 -8 -2 -20zM1731 584l-25 -109q-9 -45 -49 -45h-45l-13 -53h-49l58 258h88
q37 0 37 -31q0 -8 -2 -20zM477 635l-57 -258h-49l12 53h-37l-12 -53h-49l57 258h49l-37 -166h37l37 166h49zM1440 635h49l-35 -154q-1 -7 0.5 -9.5t7.5 -2.5h15q9 0 12 8l35 158h49l-35 -160q-9 -45 -49 -45l-29 -53h-49l29 53q-37 0 -37 31q0 10 2 20zM1845 496l-8 -39h-53
l-8 -41h67l-10 -39h-115l58 258h116l-10 -39h-65l-23 -100h51zM1374 596l-49 -219h-49l49 219h-39l8 39h125l-8 -39h-37zM205 596l-41 -180h26q10 0 13 10l35 158q2 12 -7 12h-26zM1659 477l22 107q1 7 -0.5 9.5t-7.5 2.5h-24l-29 -127h27q9 0 12 8zM750 477l22 107
q1 7 -0.5 9.5t-7.5 2.5h-25l-28 -127h26q10 0 13 8zM1155 596h-14q-11 0 -13 -10l-26 -117h37l24 115q1 7 -0.5 9.5t-7.5 2.5zM588 596h-15q-9 0 -12 -10l-26 -117h36l25 115q1 7 -0.5 9.5t-7.5 2.5zM2021 682v-61h-12v51h-2l-14 -41h-8l-15 41h-2v-51h-10v61h20l11 -33h2
l10 33h20zM1950 682v-10h-19v-51h-12v51h-16v10h47z" />
    <glyph glyph-name="zero.numr" 
d="M582 1372q132 0 204 -78t72 -223q0 -72 -14 -146.5t-46.5 -150t-79.5 -134t-119.5 -95.5t-160.5 -37q-132 0 -203 77t-71 222q0 71 13.5 145t45.5 150t78.5 135.5t119.5 97t161 37.5zM578 1313q-74 0 -135 -34.5t-99 -88t-64.5 -122t-37.5 -133t-11 -124.5
q0 -119 53.5 -181.5t157.5 -62.5q74 0 135 34.5t100 88t66 122t38.5 133t11.5 124.5q0 118 -55.5 181t-159.5 63z" />
    <glyph glyph-name="one.numr" 
d="M592 520h-66l148 754l-260 -152l14 74l279 164h49z" />
    <glyph glyph-name="two.numr" 
d="M725 580l-12 -60h-568l15 66l174 123q263 185 347.5 270.5t84.5 175.5q0 75 -50 116.5t-141 41.5q-69 0 -143 -30.5t-137 -82.5h-6l16 86q124 86 277 86q118 0 183.5 -54.5t65.5 -152.5q0 -78 -37.5 -142.5t-134.5 -147t-288 -209.5l-123 -82v-4h477z" />
    <glyph glyph-name="three.numr" 
d="M848 1171q0 -85 -49.5 -142t-139.5 -79v-4q127 -45 127 -172q0 -124 -91.5 -195t-248.5 -71q-84 0 -162 27.5t-122 72.5l12 72h6q44 -53 116 -83t153 -30q127 0 199.5 56t72.5 153q0 71 -55.5 108.5t-159.5 37.5h-121l10 59h129q125 0 191.5 48.5t66.5 133.5
q0 72 -57.5 111t-161.5 39q-142 0 -266 -111h-6l16 84q109 86 262 86q133 0 206 -53t73 -148z" />
    <glyph glyph-name="four.numr" 
d="M678 520h-66l35 182h-514l12 58l633 600h64l-117 -598h125l-12 -60h-125zM231 762h428l97 498z" />
    <glyph glyph-name="five.numr" 
d="M371 1300l-54 -278q87 37 193 37q137 0 211 -63.5t74 -180.5q0 -140 -98 -223.5t-255 -83.5q-98 0 -176 26t-119 72l15 72h6q38 -53 109.5 -82t164.5 -29q132 0 209.5 65.5t77.5 180.5q0 91 -61 138.5t-179 47.5q-117 0 -243 -63h-6l82 424h530l-12 -60h-469z" />
    <glyph glyph-name="six.numr" 
d="M639 1372q149 0 211 -65l-12 -70h-7q-60 76 -192 76q-147 0 -246 -96.5t-137 -276.5h4q121 115 289 115q122 0 193 -63.5t71 -168.5q0 -141 -90.5 -228t-235.5 -87q-144 0 -226.5 82.5t-82.5 230.5q0 68 15 139.5t50 146t86.5 133t131.5 95.5t178 37zM539 995
q-180 0 -293 -155q-2 -12 -2 -31q0 -112 67 -177t178 -65q115 0 187 71.5t72 180.5q0 82 -56 129t-153 47z" />
    <glyph glyph-name="seven.numr" 
d="M940 1294l-670 -774h-86l680 780h-571l12 60h645z" />
    <glyph glyph-name="eight.numr" 
d="M670 952v-4q139 -47 139 -182q0 -121 -97.5 -189.5t-267.5 -68.5q-146 0 -227.5 55.5t-81.5 153.5q0 193 223 235v4q-118 47 -118 166q0 118 89.5 184t245.5 66q136 0 211.5 -53.5t75.5 -147.5q0 -174 -192 -219zM305 1124q0 -143 225 -143q128 0 197.5 49.5t69.5 136.5
q0 68 -59.5 107t-166.5 39q-124 0 -195 -50.5t-71 -138.5zM451 567q136 0 214 53.5t78 149.5q0 73 -64.5 112.5t-184.5 39.5q-140 0 -216.5 -52t-76.5 -147q0 -75 65 -115.5t185 -40.5z" />
    <glyph glyph-name="nine.numr" 
d="M383 508q-149 0 -211 65l12 70h6q60 -76 193 -76q147 0 246 96.5t137 276.5h-4q-121 -115 -289 -115q-122 0 -193 63.5t-71 168.5q0 141 90.5 228t235.5 87q144 0 226.5 -82.5t82.5 -230.5q0 -68 -15 -139.5t-50 -146t-86.5 -133t-131.5 -95.5t-178 -37zM483 885
q180 0 293 155q2 12 2 31q0 112 -67.5 177t-178.5 65q-115 0 -186.5 -71.5t-71.5 -180.5q0 -82 56 -129t153 -47z" />
    <glyph glyph-name="zero.dnom" 
d="M481 852q132 0 204.5 -78.5t72.5 -222.5q0 -72 -14 -146.5t-46.5 -150t-79.5 -134t-119.5 -95.5t-160.5 -37q-132 0 -203.5 77.5t-71.5 221.5q0 71 13.5 145t45.5 150t78.5 135.5t119.5 97t161 37.5zM477 793q-74 0 -134.5 -34.5t-99 -88t-64.5 -122t-37 -133t-11 -124.5
q0 -119 53.5 -181.5t157.5 -62.5q74 0 135 34.5t100 88t66 122t38 133t11 124.5q0 118 -55.5 181t-159.5 63z" />
    <glyph glyph-name="one.dnom" 
d="M492 0h-66l147 754l-260 -152l15 74l278 164h49z" />
    <glyph glyph-name="two.dnom" 
d="M625 59l-13 -59h-567l14 66l174 122q263 185 348 271t85 176q0 75 -50 116.5t-141 41.5q-69 0 -143 -30.5t-137 -82.5h-7l17 86q124 86 276 86q119 0 184.5 -54.5t65.5 -152.5q0 -78 -38 -143t-135 -147.5t-288 -209.5l-123 -82v-4h478z" />
    <glyph glyph-name="three.dnom" 
d="M748 651q0 -85 -49.5 -142t-139.5 -79v-4q127 -45 127 -172q0 -124 -91.5 -195t-248.5 -71q-84 0 -162.5 27.5t-122.5 72.5l13 72h6q44 -53 115.5 -83t152.5 -30q127 0 200 56t73 153q0 70 -55.5 107.5t-159.5 37.5h-121l10 60h129q125 0 191.5 48.5t66.5 133.5
q0 72 -57.5 111t-161.5 39q-142 0 -266 -111h-7l17 84q109 86 262 86q133 0 206 -53t73 -148z" />
    <glyph glyph-name="four.dnom" 
d="M578 0h-66l35 182h-514l12 58l633 600h63l-116 -598h125l-13 -60h-125zM131 242h428l96 497z" />
    <glyph glyph-name="five.dnom" 
d="M270 780l-53 -278q87 37 193 37q136 0 210 -63.5t74 -180.5q0 -140 -97.5 -223.5t-254.5 -83.5q-98 0 -176 26t-119 72l14 72h7q38 -53 109.5 -82t164.5 -29q132 0 209.5 65.5t77.5 180.5q0 91 -61 138.5t-179 47.5t-244 -63h-6l82 424h531l-13 -60h-469z" />
    <glyph glyph-name="six.dnom" 
d="M539 852q148 0 211 -66l-13 -69h-6q-60 76 -192 76q-147 0 -246 -96.5t-137 -276.5h4q121 115 289 115q122 0 193 -63.5t71 -168.5q0 -141 -90.5 -228t-235.5 -87q-144 0 -226.5 82.5t-82.5 230.5q0 68 15 139.5t50 146t86.5 133t131.5 95.5t178 37zM438 475
q-179 0 -293 -156q-2 -12 -2 -30q0 -112 67.5 -177t178.5 -65q115 0 186.5 71.5t71.5 180.5q0 82 -56 129t-153 47z" />
    <glyph glyph-name="seven.dnom" 
d="M840 774l-670 -774h-86l680 780h-571l12 60h645z" />
    <glyph glyph-name="eight.dnom" 
d="M569 432v-4q140 -47 140 -182q0 -121 -97.5 -189.5t-267.5 -68.5q-146 0 -227.5 55.5t-81.5 153.5q0 193 223 235v4q-119 47 -119 166q0 118 90 184t246 66q136 0 211.5 -53.5t75.5 -147.5q0 -173 -193 -219zM205 604q0 -143 225 -143q128 0 197 49.5t69 136.5
q0 68 -59.5 107t-165.5 39q-124 0 -195 -50.5t-71 -138.5zM350 47q136 0 214.5 53.5t78.5 149.5q0 73 -65 112t-185 39q-140 0 -216.5 -51.5t-76.5 -146.5q0 -75 65 -115.5t185 -40.5z" />
    <glyph glyph-name="nine.dnom" 
d="M283 -12q-149 0 -211 65l12 70h6q60 -76 193 -76q147 0 246 96.5t137 276.5h-4q-121 -115 -289 -115q-122 0 -193 63.5t-71 168.5q0 141 90 228t235 87q144 0 226.5 -82.5t82.5 -230.5q0 -68 -14.5 -139.5t-50 -146t-86.5 -133t-131 -95.5t-178 -37zM383 365
q180 0 293 155q2 12 2 31q0 112 -67.5 177t-178.5 65q-115 0 -186.5 -71.5t-71.5 -180.5q0 -82 56 -129t153 -47z" />
    </font>
</defs>
</svg>
